G04 EAGLE Gerber X2 export*
%TF.Part,Single*%
%TF.FileFunction,Copper,L2,Bot,Mixed*%
%TF.FilePolarity,Positive*%
%TF.GenerationSoftware,Autodesk,EAGLE,9.1.0*%
%TF.CreationDate,2019-05-29T07:05:15Z*%
G75*
%MOMM*%
%FSLAX34Y34*%
%LPD*%
%AMOC8*
5,1,8,0,0,1.08239X$1,22.5*%
G01*
%ADD10C,1.508000*%
%ADD11C,1.524000*%
%ADD12P,1.429621X8X22.500000*%
%ADD13C,1.308000*%
%ADD14C,1.308000*%
%ADD15C,2.250000*%
%ADD16C,0.600000*%
%ADD17C,0.400000*%
%ADD18C,0.406400*%
%ADD19C,0.609600*%


D10*
X1059260Y165100D02*
X1074340Y165100D01*
X1074340Y215900D02*
X1059260Y215900D01*
X1059260Y317500D02*
X1074340Y317500D01*
X1287860Y165100D02*
X1302940Y165100D01*
X1302940Y215900D02*
X1287860Y215900D01*
X1287860Y266700D02*
X1302940Y266700D01*
X1302940Y317500D02*
X1287860Y317500D01*
D11*
X228600Y436880D02*
X228600Y452120D01*
X203200Y452120D02*
X203200Y436880D01*
X381000Y436880D02*
X381000Y452120D01*
X355600Y452120D02*
X355600Y436880D01*
X533400Y436880D02*
X533400Y452120D01*
X508000Y452120D02*
X508000Y436880D01*
X685800Y436880D02*
X685800Y452120D01*
X660400Y452120D02*
X660400Y436880D01*
X838200Y436880D02*
X838200Y452120D01*
X812800Y452120D02*
X812800Y436880D01*
X990600Y436880D02*
X990600Y452120D01*
X965200Y452120D02*
X965200Y436880D01*
X1143000Y436880D02*
X1143000Y452120D01*
X1117600Y452120D02*
X1117600Y436880D01*
X1295400Y436880D02*
X1295400Y452120D01*
X1270000Y452120D02*
X1270000Y436880D01*
X1181100Y83820D02*
X1181100Y68580D01*
X1206500Y68580D02*
X1206500Y83820D01*
X1231900Y83820D02*
X1231900Y68580D01*
D12*
X165100Y330200D03*
X241300Y330200D03*
X165100Y279400D03*
X241300Y279400D03*
X165100Y215900D03*
X241300Y215900D03*
D11*
X165100Y436880D02*
X165100Y452120D01*
X139700Y452120D02*
X139700Y436880D01*
X317500Y436880D02*
X317500Y452120D01*
X292100Y452120D02*
X292100Y436880D01*
X469900Y436880D02*
X469900Y452120D01*
X444500Y452120D02*
X444500Y436880D01*
X622300Y436880D02*
X622300Y452120D01*
X596900Y452120D02*
X596900Y436880D01*
X774700Y436880D02*
X774700Y452120D01*
X749300Y452120D02*
X749300Y436880D01*
X927100Y436880D02*
X927100Y452120D01*
X901700Y452120D02*
X901700Y436880D01*
X1079500Y436880D02*
X1079500Y452120D01*
X1054100Y452120D02*
X1054100Y436880D01*
X1231900Y436880D02*
X1231900Y452120D01*
X1206500Y452120D02*
X1206500Y436880D01*
X96520Y241300D02*
X81280Y241300D01*
X81280Y215900D02*
X96520Y215900D01*
X96520Y292100D02*
X81280Y292100D01*
X81280Y266700D02*
X96520Y266700D01*
X96520Y342900D02*
X81280Y342900D01*
X81280Y317500D02*
X96520Y317500D01*
X800100Y96520D02*
X800100Y81280D01*
X774700Y81280D02*
X774700Y96520D01*
X749300Y96520D02*
X749300Y81280D01*
X723900Y81280D02*
X723900Y96520D01*
X698500Y96520D02*
X698500Y81280D01*
X673100Y81280D02*
X673100Y96520D01*
X647700Y96520D02*
X647700Y81280D01*
X622300Y81280D02*
X622300Y96520D01*
X596900Y96520D02*
X596900Y81280D01*
X571500Y81280D02*
X571500Y96520D01*
D13*
X685800Y323660D02*
X685800Y336740D01*
X660400Y336740D02*
X660400Y323660D01*
X635000Y323660D02*
X635000Y336740D01*
X609600Y336740D02*
X609600Y323660D01*
X584200Y323660D02*
X584200Y336740D01*
X558800Y336740D02*
X558800Y323660D01*
X533400Y323660D02*
X533400Y336740D01*
X508000Y336740D02*
X508000Y323660D01*
X482600Y323660D02*
X482600Y336740D01*
X457200Y336740D02*
X457200Y323660D01*
X431800Y323660D02*
X431800Y336740D01*
X406400Y336740D02*
X406400Y323660D01*
X685800Y184340D02*
X685800Y171260D01*
X660400Y171260D02*
X660400Y184340D01*
X635000Y184340D02*
X635000Y171260D01*
X482600Y171260D02*
X482600Y184340D01*
X457200Y184340D02*
X457200Y171260D01*
X431800Y171260D02*
X431800Y184340D01*
X406400Y184340D02*
X406400Y171260D01*
X330200Y171260D02*
X330200Y184340D01*
X330200Y323660D02*
X330200Y336740D01*
X355600Y336740D02*
X355600Y323660D01*
X381000Y323660D02*
X381000Y336740D01*
X355600Y184340D02*
X355600Y171260D01*
X381000Y171260D02*
X381000Y184340D01*
X609600Y184340D02*
X609600Y171260D01*
D14*
X673100Y228600D03*
X673100Y254000D03*
X673100Y279400D03*
D13*
X508000Y184340D02*
X508000Y171260D01*
X533400Y171260D02*
X533400Y184340D01*
X558800Y184340D02*
X558800Y171260D01*
X584200Y171260D02*
X584200Y184340D01*
D14*
X698500Y228600D03*
X698500Y254000D03*
X698500Y279400D03*
D15*
X776150Y368300D02*
X798650Y368300D01*
X798650Y241300D02*
X776150Y241300D01*
X776150Y292100D02*
X798650Y292100D01*
X979350Y165100D02*
X1001850Y165100D01*
X1001850Y266700D02*
X979350Y266700D01*
X979350Y368300D02*
X1001850Y368300D01*
D11*
X96520Y419100D02*
X81280Y419100D01*
X81280Y393700D02*
X96520Y393700D01*
X233680Y368300D02*
X248920Y368300D01*
X248920Y393700D02*
X233680Y393700D01*
X96520Y76200D02*
X81280Y76200D01*
X81280Y101600D02*
X96520Y101600D01*
X96520Y127000D02*
X81280Y127000D01*
X81280Y152400D02*
X96520Y152400D01*
X96520Y177800D02*
X81280Y177800D01*
D16*
X242400Y395050D02*
X291400Y444050D01*
X242400Y395050D02*
X241300Y393700D01*
X291400Y444050D02*
X292100Y444500D01*
X140900Y444050D02*
X140900Y438800D01*
X171950Y407750D01*
X216322Y407750D01*
X140900Y444050D02*
X139700Y444500D01*
X216322Y407750D02*
X241300Y393700D01*
X408650Y445800D02*
X443650Y445800D01*
X408650Y445800D02*
X387650Y466800D01*
X310650Y466800D01*
X291400Y447550D01*
X443650Y445800D02*
X444500Y444500D01*
X292100Y444500D02*
X291400Y447550D01*
X560900Y445800D02*
X595900Y445800D01*
X560900Y445800D02*
X539900Y466800D01*
X462900Y466800D01*
X443650Y447550D01*
X595900Y445800D02*
X596900Y444500D01*
X444500Y444500D02*
X443650Y447550D01*
X713150Y445800D02*
X748150Y445800D01*
X713150Y445800D02*
X692150Y466800D01*
X615150Y466800D01*
X595900Y447550D01*
X748150Y445800D02*
X749300Y444500D01*
X596900Y444500D02*
X595900Y447550D01*
X865400Y445800D02*
X900400Y445800D01*
X865400Y445800D02*
X844400Y466800D01*
X767400Y466800D01*
X748150Y447550D01*
X900400Y445800D02*
X901700Y444500D01*
X749300Y444500D02*
X748150Y447550D01*
X1017650Y445800D02*
X1052650Y445800D01*
X1017650Y445800D02*
X996650Y466800D01*
X919650Y466800D01*
X900400Y447550D01*
X1052650Y445800D02*
X1054100Y444500D01*
X901700Y444500D02*
X900400Y447550D01*
X1171650Y445800D02*
X1204900Y445800D01*
X1171650Y445800D02*
X1150650Y466800D01*
X1071900Y466800D01*
X1052650Y447550D01*
X1204900Y445800D02*
X1206500Y444500D01*
X1054100Y444500D02*
X1052650Y447550D01*
X202150Y445800D02*
X165400Y445800D01*
X165100Y444500D01*
X202150Y445800D02*
X203200Y444500D01*
X317650Y445800D02*
X354400Y445800D01*
X317650Y445800D02*
X317500Y444500D01*
X354400Y445800D02*
X355600Y444500D01*
X469900Y445800D02*
X506650Y445800D01*
X469900Y445800D02*
X469900Y444500D01*
X506650Y445800D02*
X508000Y444500D01*
X623900Y445800D02*
X658900Y445800D01*
X623900Y445800D02*
X622300Y444500D01*
X658900Y445800D02*
X660400Y444500D01*
X776150Y445800D02*
X811150Y445800D01*
X776150Y445800D02*
X774700Y444500D01*
X811150Y445800D02*
X812800Y444500D01*
X928400Y445800D02*
X965150Y445800D01*
X928400Y445800D02*
X927100Y444500D01*
X965150Y445800D02*
X965200Y444500D01*
X1080650Y445800D02*
X1117400Y445800D01*
X1080650Y445800D02*
X1079500Y444500D01*
X1117400Y445800D02*
X1117600Y444500D01*
X1232900Y445800D02*
X1269650Y445800D01*
X1232900Y445800D02*
X1231900Y444500D01*
X1269650Y445800D02*
X1270000Y444500D01*
X393700Y419100D02*
X381000Y431800D01*
X393700Y419100D02*
X520700Y419100D01*
X533400Y431800D01*
X533400Y444500D01*
X673100Y419100D02*
X685800Y431800D01*
X673100Y419100D02*
X546100Y419100D01*
X533400Y431800D01*
X88900Y431800D02*
X88900Y419100D01*
X88900Y431800D02*
X127000Y469900D01*
X228600Y469900D01*
X228600Y444500D01*
X838200Y419100D02*
X838200Y342900D01*
X838200Y419100D02*
X838200Y444500D01*
X989650Y444050D02*
X989650Y430850D01*
X977900Y419100D01*
X838200Y419100D01*
X989650Y444050D02*
X990600Y444500D01*
X1130300Y419100D02*
X1143000Y431800D01*
X1130300Y419100D02*
X1003300Y419100D01*
X1295400Y431800D02*
X1295400Y444500D01*
X1295400Y431800D02*
X1282700Y419100D01*
X1155700Y419100D01*
X1142704Y431504D01*
X268650Y451050D02*
X230150Y451050D01*
X268650Y451050D02*
X294900Y477300D01*
X1275300Y477300D01*
X1294256Y457200D01*
X230150Y451050D02*
X228600Y444500D01*
X1294256Y457200D02*
X1295400Y457200D01*
X698500Y419100D02*
X685800Y431800D01*
X698500Y419100D02*
X838200Y419100D01*
X800100Y241300D02*
X787400Y241300D01*
X800100Y241300D02*
X825500Y266700D01*
X825500Y330200D02*
X838200Y342900D01*
X825500Y330200D02*
X825500Y266700D01*
X990600Y431800D02*
X990600Y444500D01*
X990600Y431800D02*
X1003300Y419100D01*
X1143000Y431800D02*
X1143000Y444500D01*
X1295400Y444500D02*
X1295400Y457200D01*
X685800Y444500D02*
X685800Y431800D01*
X381000Y431800D02*
X381000Y444500D01*
X1142704Y431504D02*
X1143000Y431800D01*
D17*
X584200Y330200D02*
X584200Y304800D01*
X736600Y191200D02*
X736600Y165100D01*
X622300Y266700D02*
X584200Y304800D01*
X622300Y266700D02*
X723900Y266700D01*
X736600Y254000D01*
X736600Y191200D01*
X774700Y127000D02*
X774700Y88900D01*
X774700Y127000D02*
X736600Y165100D01*
X559150Y314550D02*
X559150Y328550D01*
X559150Y314550D02*
X670500Y203200D01*
X698500Y203200D01*
X723900Y177800D01*
X723900Y152835D01*
X559150Y328550D02*
X558800Y330200D01*
X723900Y152835D02*
X749517Y127217D01*
X749300Y88900D01*
X534650Y303550D02*
X534650Y328550D01*
X534650Y303550D02*
X647700Y190500D01*
X534650Y328550D02*
X533400Y330200D01*
X647700Y190500D02*
X647700Y165100D01*
X660400Y152400D01*
X685800Y152400D01*
X723900Y114300D01*
X723900Y88900D01*
X508400Y304400D02*
X508400Y328550D01*
X508400Y304400D02*
X622300Y190500D01*
X622300Y165100D01*
X508400Y328550D02*
X508000Y330200D01*
X622300Y165100D02*
X647700Y139700D01*
X685800Y139700D01*
X698500Y127000D01*
X698500Y88900D01*
X483900Y278100D02*
X483900Y328550D01*
X482600Y330200D01*
X483900Y278100D02*
X571500Y190500D01*
X571500Y165100D01*
X635000Y119380D02*
X673100Y119380D01*
X673100Y88900D01*
X584200Y152400D02*
X571500Y165100D01*
X584200Y152400D02*
X594360Y152400D01*
X627380Y119380D01*
X635000Y119380D01*
X457650Y278950D02*
X457650Y328550D01*
X457650Y278950D02*
X546100Y190500D01*
X546100Y152400D01*
X457650Y328550D02*
X457200Y330200D01*
X546100Y152400D02*
X571500Y152400D01*
X572770Y152400D01*
X641350Y111760D02*
X647700Y105410D01*
X647700Y88900D01*
X596900Y127000D02*
X571500Y152400D01*
X596900Y127000D02*
X604520Y127000D01*
X619760Y111760D02*
X641350Y111760D01*
X619760Y111760D02*
X604520Y127000D01*
X433150Y276050D02*
X433150Y328550D01*
X433150Y276050D02*
X520650Y188550D01*
X520650Y152450D01*
X433150Y328550D02*
X431800Y330200D01*
X520650Y152450D02*
X533400Y139700D01*
X571500Y139700D01*
X596900Y114300D01*
X603250Y114300D01*
X622300Y95250D01*
X622300Y88900D01*
X406900Y277800D02*
X406900Y328550D01*
X406900Y277800D02*
X495300Y189400D01*
X495300Y152400D01*
X406900Y328550D02*
X406400Y330200D01*
X597250Y90550D02*
X596900Y88900D01*
X520700Y127000D02*
X495300Y152400D01*
X520700Y127000D02*
X571500Y127000D01*
X596900Y101600D01*
X596900Y88900D01*
X329900Y328550D02*
X328550Y328550D01*
X266700Y266700D01*
X228600Y266700D01*
X165100Y330200D01*
X329900Y328550D02*
X330200Y330200D01*
X152400Y342900D02*
X88900Y342900D01*
X152400Y342900D02*
X165100Y330200D01*
X189650Y241300D02*
X317500Y241300D01*
X355600Y283405D01*
X139700Y292100D02*
X88900Y292100D01*
X355600Y283405D02*
X355600Y330200D01*
D18*
X152400Y292100D02*
X139700Y292100D01*
X152400Y292100D02*
X165100Y279400D01*
X165100Y254000D01*
X177800Y241300D01*
X189650Y241300D01*
D17*
X330400Y228800D02*
X381000Y279400D01*
X330400Y228800D02*
X177650Y228800D01*
X165400Y216550D01*
X165100Y215900D01*
X139150Y241050D02*
X90150Y241050D01*
X139150Y241050D02*
X163650Y216550D01*
X90150Y241050D02*
X88900Y241300D01*
X163650Y216550D02*
X165100Y215900D01*
X381000Y279400D02*
X381000Y330200D01*
X393700Y203200D02*
X406400Y190500D01*
X393700Y203200D02*
X275950Y203200D01*
X250800Y178050D01*
X90150Y178050D01*
X88900Y177800D01*
X406400Y177800D02*
X406400Y190500D01*
X431800Y165100D02*
X431800Y165100D01*
X419100Y152400D01*
X88900Y152400D01*
X431800Y165100D02*
X431800Y165100D01*
X431800Y177800D01*
X457200Y165100D02*
X419100Y127000D01*
X88900Y127000D01*
X457200Y165100D02*
X457200Y177800D01*
X482600Y165100D02*
X419100Y101600D01*
X88900Y101600D01*
X482600Y165100D02*
X482600Y177800D01*
D16*
X240650Y214800D02*
X184650Y214800D01*
X170650Y200800D01*
X74400Y200800D01*
X70150Y196550D02*
X50800Y215900D01*
X50800Y347400D01*
X61700Y358300D01*
X200400Y358300D01*
X241300Y215900D02*
X240650Y214800D01*
X233609Y330200D02*
X200400Y358300D01*
X240650Y327250D02*
X240650Y280000D01*
X241300Y279400D01*
X240650Y327250D02*
X241300Y330200D01*
X736600Y50800D02*
X1320800Y50800D01*
X74400Y200800D02*
X70150Y196550D01*
X50800Y177200D02*
X50800Y63500D01*
X63500Y50800D01*
X501900Y50800D01*
X527300Y63500D02*
X551276Y87476D01*
X571500Y88900D01*
X698500Y160020D02*
X698500Y165100D01*
D18*
X736600Y121920D02*
X736600Y50800D01*
D16*
X241300Y330200D02*
X233609Y330200D01*
X685800Y177800D02*
X698500Y165100D01*
X698500Y50800D02*
X521900Y50800D01*
X511900Y60800D01*
X1320800Y50800D02*
X1346200Y76200D01*
X1333500Y215900D02*
X1295400Y215900D01*
X1333500Y215900D02*
X1346200Y203200D01*
X1346200Y76200D01*
X514600Y63500D02*
X511900Y60800D01*
X514600Y63500D02*
X501900Y50800D01*
X70150Y196550D02*
X50800Y177200D01*
X698500Y50800D02*
X736600Y50800D01*
X527300Y63500D02*
X514600Y63500D01*
D19*
X698500Y160020D02*
X736600Y121920D01*
D16*
X1066650Y165800D02*
X1066650Y214800D01*
X1066650Y165800D02*
X1066800Y165100D01*
X1066650Y214800D02*
X1066800Y215900D01*
X1155900Y76550D02*
X1180400Y76550D01*
X1155900Y76550D02*
X1068400Y164050D01*
X1180400Y76550D02*
X1181100Y76200D01*
X1068400Y164050D02*
X1066800Y165100D01*
X1064900Y165800D02*
X991400Y165800D01*
X990600Y165100D01*
X1064900Y165800D02*
X1066800Y165100D01*
X1066650Y318050D02*
X1040400Y318050D01*
X991400Y367050D01*
X1066650Y318050D02*
X1066800Y317500D01*
X991400Y367050D02*
X990600Y368300D01*
X1231150Y150050D02*
X1231150Y76550D01*
X1231150Y150050D02*
X1066650Y314550D01*
X1231150Y76550D02*
X1231900Y76200D01*
X1066650Y314550D02*
X1066800Y317500D01*
X194930Y381500D02*
X139200Y381500D01*
X127000Y393700D01*
X194930Y381500D02*
X212090Y368300D01*
X127000Y393700D02*
X88900Y393700D01*
X212090Y368300D02*
X241300Y368300D01*
X787400Y368300D01*
X787400Y292100D01*
X88400Y216550D02*
X75550Y216550D01*
X63500Y228600D01*
X63500Y245900D01*
X83150Y265550D01*
X88400Y265550D01*
X88400Y216550D02*
X88900Y215900D01*
X88400Y265550D02*
X88900Y266700D01*
X88400Y316300D02*
X75000Y316300D01*
X63500Y304800D01*
X63500Y279400D01*
X75096Y267804D01*
X88400Y316300D02*
X88900Y317500D01*
X88900Y266700D02*
X75096Y267804D01*
X1143650Y318050D02*
X1294150Y318050D01*
X1143650Y318050D02*
X1068000Y393700D01*
X927100Y393700D01*
X889100Y355700D01*
X889100Y228600D01*
X1294150Y318050D02*
X1295400Y317500D01*
D17*
X658900Y192000D02*
X658900Y178050D01*
X658900Y192000D02*
X546100Y304800D01*
X546100Y355600D01*
X547850Y355600D02*
X584200Y355600D01*
X596900Y342900D01*
X596900Y317500D01*
X658900Y178050D02*
X660400Y177800D01*
D18*
X152400Y317500D02*
X88900Y317500D01*
X215900Y254000D02*
X304800Y254000D01*
X342900Y292100D01*
X342900Y355600D01*
X546100Y355600D02*
X547850Y355600D01*
X215900Y254000D02*
X152400Y317500D01*
D16*
X749300Y190500D02*
X800100Y139700D01*
X749300Y190500D02*
X749300Y266700D01*
X711200Y304800D01*
X609600Y304800D02*
X596900Y317500D01*
X609600Y304800D02*
X711200Y304800D01*
D18*
X495300Y355600D02*
X342900Y355600D01*
X495300Y355600D02*
X546100Y355600D01*
D16*
X469900Y76200D02*
X88900Y76200D01*
X469900Y76200D02*
X508000Y114300D01*
D17*
X571580Y114300D01*
X635000Y63500D02*
X685800Y63500D01*
X635000Y63500D02*
X622380Y63500D01*
X495300Y292100D02*
X495300Y355600D01*
X495300Y292100D02*
X596900Y190500D01*
D19*
X800100Y139700D02*
X889000Y228600D01*
X889100Y228600D01*
D16*
X800100Y139700D02*
X800100Y88900D01*
D17*
X596900Y166370D02*
X596900Y190500D01*
X596900Y166370D02*
X636270Y127000D01*
X685800Y127000D01*
X685800Y63500D01*
X584200Y101680D02*
X571580Y114300D01*
X591673Y68660D02*
X591740Y68660D01*
X596900Y63500D01*
X591673Y68660D02*
X584200Y76133D01*
X584200Y101680D01*
X596900Y63500D02*
X622380Y63500D01*
M02*
