M48
;GenerationSoftware,Autodesk,EAGLE,9.1.0*%
;CreationDate,2019-05-29T07:05:15Z*%
FMAT,2
ICI,OFF
METRIC,TZ,000.000
T6C0.800
T5C0.813
T4C1.000
T3C1.016
T2C1.500
T1C3.200
%
G90
M71
T1
X2540Y2540
X2540Y45720
X134620Y2540
X134620Y45720
T2
X109220Y34290
X127000Y13970
X78740Y24130
X78740Y36830
X99060Y36830
X99060Y26670
X99060Y16510
X78740Y29210
T3
X8890Y39370
X24130Y36830
X24130Y39370
X8890Y7620
X8890Y10160
X8890Y12700
X8890Y15240
X22860Y44450
X20320Y44450
X38100Y44450
X35560Y44450
X53340Y44450
X50800Y44450
X68580Y44450
X66040Y44450
X83820Y44450
X81280Y44450
X99060Y44450
X96520Y44450
X114300Y44450
X111760Y44450
X129540Y44450
X127000Y44450
X118110Y7620
X120650Y7620
X123190Y7620
X16510Y44450
X13970Y44450
X31750Y44450
X29210Y44450
X46990Y44450
X44450Y44450
X62230Y44450
X59690Y44450
X77470Y44450
X74930Y44450
X92710Y44450
X90170Y44450
X107950Y44450
X105410Y44450
X123190Y44450
X120650Y44450
X8890Y24130
X8890Y21590
X8890Y29210
X8890Y26670
X8890Y34290
X8890Y31750
X80010Y8890
X77470Y8890
X74930Y8890
X72390Y8890
X69850Y8890
X67310Y8890
X64770Y8890
X62230Y8890
X59690Y8890
X57150Y8890
X8890Y17780
X8890Y41910
T4
X106680Y16510
X106680Y21590
X106680Y31750
X129540Y16510
X129540Y21590
X129540Y26670
X129540Y31750
T5
X24130Y21590
X16510Y21590
X24130Y27940
X16510Y27940
X24130Y33020
X16510Y33020
T6
X48260Y17780
X45720Y17780
X43180Y17780
X40640Y17780
X33020Y17780
X68580Y33020
X35560Y33020
X38100Y33020
X35560Y17780
X38100Y17780
X60960Y17780
X67310Y22860
X67310Y25400
X67310Y27940
X50800Y17780
X53340Y17780
X55880Y17780
X58420Y17780
X69850Y22860
X69850Y25400
X33020Y33020
X45720Y33020
X43180Y33020
X40640Y33020
X68580Y17780
X66040Y17780
X63500Y17780
X66040Y33020
X63500Y33020
X60960Y33020
X58420Y33020
X55880Y33020
X53340Y33020
X50800Y33020
X48260Y33020
X69850Y27940
M30