G04 EAGLE Gerber X2 export*
%TF.Part,Single*%
%TF.FileFunction,Profile,NP*%
%TF.FilePolarity,Positive*%
%TF.GenerationSoftware,Autodesk,EAGLE,9.1.0*%
%TF.CreationDate,2019-05-29T07:05:15Z*%
G75*
%MOMM*%
%FSLAX34Y34*%
%LPD*%
%AMOC8*
5,1,8,0,0,1.08239X$1,22.5*%
G01*
%ADD10C,0.254000*%


D10*
X0Y0D02*
X546100Y0D01*
X546100Y25400D01*
X825500Y25400D01*
X825500Y0D01*
X1117600Y0D01*
X1117600Y25400D01*
X1244600Y25400D01*
X1244600Y0D01*
X1371600Y0D01*
X1371600Y495300D01*
X0Y495300D01*
X0Y0D01*
X41400Y24876D02*
X41332Y23831D01*
X41195Y22792D01*
X40990Y21765D01*
X40719Y20753D01*
X40383Y19761D01*
X39982Y18793D01*
X39518Y17854D01*
X38995Y16946D01*
X38413Y16075D01*
X37775Y15244D01*
X37084Y14457D01*
X36343Y13716D01*
X35556Y13025D01*
X34725Y12388D01*
X33854Y11806D01*
X32946Y11282D01*
X32007Y10818D01*
X31039Y10417D01*
X30047Y10081D01*
X29035Y9810D01*
X28008Y9605D01*
X26969Y9469D01*
X25924Y9400D01*
X24876Y9400D01*
X23831Y9469D01*
X22792Y9605D01*
X21765Y9810D01*
X20753Y10081D01*
X19761Y10417D01*
X18793Y10818D01*
X17854Y11282D01*
X16946Y11806D01*
X16075Y12388D01*
X15244Y13025D01*
X14457Y13716D01*
X13716Y14457D01*
X13025Y15244D01*
X12388Y16075D01*
X11806Y16946D01*
X11282Y17854D01*
X10818Y18793D01*
X10417Y19761D01*
X10081Y20753D01*
X9810Y21765D01*
X9605Y22792D01*
X9469Y23831D01*
X9400Y24876D01*
X9400Y25924D01*
X9469Y26969D01*
X9605Y28008D01*
X9810Y29035D01*
X10081Y30047D01*
X10417Y31039D01*
X10818Y32007D01*
X11282Y32946D01*
X11806Y33854D01*
X12388Y34725D01*
X13025Y35556D01*
X13716Y36343D01*
X14457Y37084D01*
X15244Y37775D01*
X16075Y38413D01*
X16946Y38995D01*
X17854Y39518D01*
X18793Y39982D01*
X19761Y40383D01*
X20753Y40719D01*
X21765Y40990D01*
X22792Y41195D01*
X23831Y41332D01*
X24876Y41400D01*
X25924Y41400D01*
X26969Y41332D01*
X28008Y41195D01*
X29035Y40990D01*
X30047Y40719D01*
X31039Y40383D01*
X32007Y39982D01*
X32946Y39518D01*
X33854Y38995D01*
X34725Y38413D01*
X35556Y37775D01*
X36343Y37084D01*
X37084Y36343D01*
X37775Y35556D01*
X38413Y34725D01*
X38995Y33854D01*
X39518Y32946D01*
X39982Y32007D01*
X40383Y31039D01*
X40719Y30047D01*
X40990Y29035D01*
X41195Y28008D01*
X41332Y26969D01*
X41400Y25924D01*
X41400Y24876D01*
X41400Y456676D02*
X41332Y455631D01*
X41195Y454592D01*
X40990Y453565D01*
X40719Y452553D01*
X40383Y451561D01*
X39982Y450593D01*
X39518Y449654D01*
X38995Y448746D01*
X38413Y447875D01*
X37775Y447044D01*
X37084Y446257D01*
X36343Y445516D01*
X35556Y444825D01*
X34725Y444188D01*
X33854Y443606D01*
X32946Y443082D01*
X32007Y442618D01*
X31039Y442217D01*
X30047Y441881D01*
X29035Y441610D01*
X28008Y441405D01*
X26969Y441269D01*
X25924Y441200D01*
X24876Y441200D01*
X23831Y441269D01*
X22792Y441405D01*
X21765Y441610D01*
X20753Y441881D01*
X19761Y442217D01*
X18793Y442618D01*
X17854Y443082D01*
X16946Y443606D01*
X16075Y444188D01*
X15244Y444825D01*
X14457Y445516D01*
X13716Y446257D01*
X13025Y447044D01*
X12388Y447875D01*
X11806Y448746D01*
X11282Y449654D01*
X10818Y450593D01*
X10417Y451561D01*
X10081Y452553D01*
X9810Y453565D01*
X9605Y454592D01*
X9469Y455631D01*
X9400Y456676D01*
X9400Y457724D01*
X9469Y458769D01*
X9605Y459808D01*
X9810Y460835D01*
X10081Y461847D01*
X10417Y462839D01*
X10818Y463807D01*
X11282Y464746D01*
X11806Y465654D01*
X12388Y466525D01*
X13025Y467356D01*
X13716Y468143D01*
X14457Y468884D01*
X15244Y469575D01*
X16075Y470213D01*
X16946Y470795D01*
X17854Y471318D01*
X18793Y471782D01*
X19761Y472183D01*
X20753Y472519D01*
X21765Y472790D01*
X22792Y472995D01*
X23831Y473132D01*
X24876Y473200D01*
X25924Y473200D01*
X26969Y473132D01*
X28008Y472995D01*
X29035Y472790D01*
X30047Y472519D01*
X31039Y472183D01*
X32007Y471782D01*
X32946Y471318D01*
X33854Y470795D01*
X34725Y470213D01*
X35556Y469575D01*
X36343Y468884D01*
X37084Y468143D01*
X37775Y467356D01*
X38413Y466525D01*
X38995Y465654D01*
X39518Y464746D01*
X39982Y463807D01*
X40383Y462839D01*
X40719Y461847D01*
X40990Y460835D01*
X41195Y459808D01*
X41332Y458769D01*
X41400Y457724D01*
X41400Y456676D01*
X1362200Y24876D02*
X1362132Y23831D01*
X1361995Y22792D01*
X1361790Y21765D01*
X1361519Y20753D01*
X1361183Y19761D01*
X1360782Y18793D01*
X1360318Y17854D01*
X1359795Y16946D01*
X1359213Y16075D01*
X1358575Y15244D01*
X1357884Y14457D01*
X1357143Y13716D01*
X1356356Y13025D01*
X1355525Y12388D01*
X1354654Y11806D01*
X1353746Y11282D01*
X1352807Y10818D01*
X1351839Y10417D01*
X1350847Y10081D01*
X1349835Y9810D01*
X1348808Y9605D01*
X1347769Y9469D01*
X1346724Y9400D01*
X1345676Y9400D01*
X1344631Y9469D01*
X1343592Y9605D01*
X1342565Y9810D01*
X1341553Y10081D01*
X1340561Y10417D01*
X1339593Y10818D01*
X1338654Y11282D01*
X1337746Y11806D01*
X1336875Y12388D01*
X1336044Y13025D01*
X1335257Y13716D01*
X1334516Y14457D01*
X1333825Y15244D01*
X1333188Y16075D01*
X1332606Y16946D01*
X1332082Y17854D01*
X1331618Y18793D01*
X1331217Y19761D01*
X1330881Y20753D01*
X1330610Y21765D01*
X1330405Y22792D01*
X1330269Y23831D01*
X1330200Y24876D01*
X1330200Y25924D01*
X1330269Y26969D01*
X1330405Y28008D01*
X1330610Y29035D01*
X1330881Y30047D01*
X1331217Y31039D01*
X1331618Y32007D01*
X1332082Y32946D01*
X1332606Y33854D01*
X1333188Y34725D01*
X1333825Y35556D01*
X1334516Y36343D01*
X1335257Y37084D01*
X1336044Y37775D01*
X1336875Y38413D01*
X1337746Y38995D01*
X1338654Y39518D01*
X1339593Y39982D01*
X1340561Y40383D01*
X1341553Y40719D01*
X1342565Y40990D01*
X1343592Y41195D01*
X1344631Y41332D01*
X1345676Y41400D01*
X1346724Y41400D01*
X1347769Y41332D01*
X1348808Y41195D01*
X1349835Y40990D01*
X1350847Y40719D01*
X1351839Y40383D01*
X1352807Y39982D01*
X1353746Y39518D01*
X1354654Y38995D01*
X1355525Y38413D01*
X1356356Y37775D01*
X1357143Y37084D01*
X1357884Y36343D01*
X1358575Y35556D01*
X1359213Y34725D01*
X1359795Y33854D01*
X1360318Y32946D01*
X1360782Y32007D01*
X1361183Y31039D01*
X1361519Y30047D01*
X1361790Y29035D01*
X1361995Y28008D01*
X1362132Y26969D01*
X1362200Y25924D01*
X1362200Y24876D01*
X1362200Y456676D02*
X1362132Y455631D01*
X1361995Y454592D01*
X1361790Y453565D01*
X1361519Y452553D01*
X1361183Y451561D01*
X1360782Y450593D01*
X1360318Y449654D01*
X1359795Y448746D01*
X1359213Y447875D01*
X1358575Y447044D01*
X1357884Y446257D01*
X1357143Y445516D01*
X1356356Y444825D01*
X1355525Y444188D01*
X1354654Y443606D01*
X1353746Y443082D01*
X1352807Y442618D01*
X1351839Y442217D01*
X1350847Y441881D01*
X1349835Y441610D01*
X1348808Y441405D01*
X1347769Y441269D01*
X1346724Y441200D01*
X1345676Y441200D01*
X1344631Y441269D01*
X1343592Y441405D01*
X1342565Y441610D01*
X1341553Y441881D01*
X1340561Y442217D01*
X1339593Y442618D01*
X1338654Y443082D01*
X1337746Y443606D01*
X1336875Y444188D01*
X1336044Y444825D01*
X1335257Y445516D01*
X1334516Y446257D01*
X1333825Y447044D01*
X1333188Y447875D01*
X1332606Y448746D01*
X1332082Y449654D01*
X1331618Y450593D01*
X1331217Y451561D01*
X1330881Y452553D01*
X1330610Y453565D01*
X1330405Y454592D01*
X1330269Y455631D01*
X1330200Y456676D01*
X1330200Y457724D01*
X1330269Y458769D01*
X1330405Y459808D01*
X1330610Y460835D01*
X1330881Y461847D01*
X1331217Y462839D01*
X1331618Y463807D01*
X1332082Y464746D01*
X1332606Y465654D01*
X1333188Y466525D01*
X1333825Y467356D01*
X1334516Y468143D01*
X1335257Y468884D01*
X1336044Y469575D01*
X1336875Y470213D01*
X1337746Y470795D01*
X1338654Y471318D01*
X1339593Y471782D01*
X1340561Y472183D01*
X1341553Y472519D01*
X1342565Y472790D01*
X1343592Y472995D01*
X1344631Y473132D01*
X1345676Y473200D01*
X1346724Y473200D01*
X1347769Y473132D01*
X1348808Y472995D01*
X1349835Y472790D01*
X1350847Y472519D01*
X1351839Y472183D01*
X1352807Y471782D01*
X1353746Y471318D01*
X1354654Y470795D01*
X1355525Y470213D01*
X1356356Y469575D01*
X1357143Y468884D01*
X1357884Y468143D01*
X1358575Y467356D01*
X1359213Y466525D01*
X1359795Y465654D01*
X1360318Y464746D01*
X1360782Y463807D01*
X1361183Y462839D01*
X1361519Y461847D01*
X1361790Y460835D01*
X1361995Y459808D01*
X1362132Y458769D01*
X1362200Y457724D01*
X1362200Y456676D01*
X1099700Y342532D02*
X1099628Y341798D01*
X1099484Y341075D01*
X1099270Y340370D01*
X1098988Y339689D01*
X1098641Y339040D01*
X1098231Y338427D01*
X1097764Y337857D01*
X1097243Y337336D01*
X1096673Y336869D01*
X1096060Y336459D01*
X1095411Y336112D01*
X1094730Y335830D01*
X1094025Y335616D01*
X1093302Y335472D01*
X1092568Y335400D01*
X1091832Y335400D01*
X1091098Y335472D01*
X1090375Y335616D01*
X1089670Y335830D01*
X1088989Y336112D01*
X1088340Y336459D01*
X1087727Y336869D01*
X1087157Y337336D01*
X1086636Y337857D01*
X1086169Y338427D01*
X1085759Y339040D01*
X1085412Y339689D01*
X1085130Y340370D01*
X1084916Y341075D01*
X1084772Y341798D01*
X1084700Y342532D01*
X1084700Y343268D01*
X1084772Y344002D01*
X1084916Y344725D01*
X1085130Y345430D01*
X1085412Y346111D01*
X1085759Y346760D01*
X1086169Y347373D01*
X1086636Y347943D01*
X1087157Y348464D01*
X1087727Y348931D01*
X1088340Y349341D01*
X1088989Y349688D01*
X1089670Y349970D01*
X1090375Y350184D01*
X1091098Y350328D01*
X1091832Y350400D01*
X1092568Y350400D01*
X1093302Y350328D01*
X1094025Y350184D01*
X1094730Y349970D01*
X1095411Y349688D01*
X1096060Y349341D01*
X1096673Y348931D01*
X1097243Y348464D01*
X1097764Y347943D01*
X1098231Y347373D01*
X1098641Y346760D01*
X1098988Y346111D01*
X1099270Y345430D01*
X1099484Y344725D01*
X1099628Y344002D01*
X1099700Y343268D01*
X1099700Y342532D01*
X1277500Y139332D02*
X1277428Y138598D01*
X1277284Y137875D01*
X1277070Y137170D01*
X1276788Y136489D01*
X1276441Y135840D01*
X1276031Y135227D01*
X1275564Y134657D01*
X1275043Y134136D01*
X1274473Y133669D01*
X1273860Y133259D01*
X1273211Y132912D01*
X1272530Y132630D01*
X1271825Y132416D01*
X1271102Y132272D01*
X1270368Y132200D01*
X1269632Y132200D01*
X1268898Y132272D01*
X1268175Y132416D01*
X1267470Y132630D01*
X1266789Y132912D01*
X1266140Y133259D01*
X1265527Y133669D01*
X1264957Y134136D01*
X1264436Y134657D01*
X1263969Y135227D01*
X1263559Y135840D01*
X1263212Y136489D01*
X1262930Y137170D01*
X1262716Y137875D01*
X1262572Y138598D01*
X1262500Y139332D01*
X1262500Y140068D01*
X1262572Y140802D01*
X1262716Y141525D01*
X1262930Y142230D01*
X1263212Y142911D01*
X1263559Y143560D01*
X1263969Y144173D01*
X1264436Y144743D01*
X1264957Y145264D01*
X1265527Y145731D01*
X1266140Y146141D01*
X1266789Y146488D01*
X1267470Y146770D01*
X1268175Y146984D01*
X1268898Y147128D01*
X1269632Y147200D01*
X1270368Y147200D01*
X1271102Y147128D01*
X1271825Y146984D01*
X1272530Y146770D01*
X1273211Y146488D01*
X1273860Y146141D01*
X1274473Y145731D01*
X1275043Y145264D01*
X1275564Y144743D01*
X1276031Y144173D01*
X1276441Y143560D01*
X1276788Y142911D01*
X1277070Y142230D01*
X1277284Y141525D01*
X1277428Y140802D01*
X1277500Y140068D01*
X1277500Y139332D01*
M02*
