G04 EAGLE Gerber X2 export*
%TF.Part,Single*%
%TF.FileFunction,Copper,L2,Bot,Mixed*%
%TF.FilePolarity,Positive*%
%TF.GenerationSoftware,Autodesk,EAGLE,9.1.0*%
%TF.CreationDate,2019-04-29T08:05:55Z*%
G75*
%MOMM*%
%FSLAX34Y34*%
%LPD*%
%AMOC8*
5,1,8,0,0,1.08239X$1,22.5*%
G01*
%ADD10C,2.000000*%
%ADD11C,1.508000*%
%ADD12C,1.524000*%
%ADD13P,1.429621X8X112.500000*%
%ADD14C,1.308000*%
%ADD15C,1.308000*%
%ADD16C,0.600000*%
%ADD17C,0.400000*%


D10*
X746600Y132600D02*
X726600Y132600D01*
X726600Y71600D02*
X746600Y71600D01*
X784600Y91600D02*
X784600Y111600D01*
D11*
X185340Y381000D02*
X170260Y381000D01*
X170260Y431800D02*
X185340Y431800D01*
X185340Y533400D02*
X170260Y533400D01*
X398860Y381000D02*
X413940Y381000D01*
X413940Y431800D02*
X398860Y431800D01*
X398860Y482600D02*
X413940Y482600D01*
X413940Y533400D02*
X398860Y533400D01*
D12*
X58420Y622300D02*
X43180Y622300D01*
X43180Y647700D02*
X58420Y647700D01*
X58420Y469900D02*
X43180Y469900D01*
X43180Y495300D02*
X58420Y495300D01*
X58420Y317500D02*
X43180Y317500D01*
X43180Y342900D02*
X58420Y342900D01*
X58420Y165100D02*
X43180Y165100D01*
X43180Y190500D02*
X58420Y190500D01*
D13*
X482600Y101600D03*
X482600Y203200D03*
X419100Y101600D03*
X419100Y203200D03*
X355600Y101600D03*
X355600Y203200D03*
D12*
X58420Y558800D02*
X43180Y558800D01*
X43180Y584200D02*
X58420Y584200D01*
X58420Y406400D02*
X43180Y406400D01*
X43180Y431800D02*
X58420Y431800D01*
X58420Y254000D02*
X43180Y254000D01*
X43180Y279400D02*
X58420Y279400D01*
X58420Y101600D02*
X43180Y101600D01*
X43180Y127000D02*
X58420Y127000D01*
X355600Y58420D02*
X355600Y43180D01*
X330200Y43180D02*
X330200Y58420D01*
X419100Y58420D02*
X419100Y43180D01*
X393700Y43180D02*
X393700Y58420D01*
X482600Y58420D02*
X482600Y43180D01*
X457200Y43180D02*
X457200Y58420D01*
X596900Y538480D02*
X596900Y553720D01*
X571500Y553720D02*
X571500Y538480D01*
X546100Y538480D02*
X546100Y553720D01*
X520700Y553720D02*
X520700Y538480D01*
X495300Y538480D02*
X495300Y553720D01*
D14*
X653860Y533400D02*
X666940Y533400D01*
X666940Y508000D02*
X653860Y508000D01*
X653860Y482600D02*
X666940Y482600D01*
X666940Y457200D02*
X653860Y457200D01*
X653860Y431800D02*
X666940Y431800D01*
X666940Y406400D02*
X653860Y406400D01*
X653860Y381000D02*
X666940Y381000D01*
X666940Y355600D02*
X653860Y355600D01*
X653860Y330200D02*
X666940Y330200D01*
X666940Y304800D02*
X653860Y304800D01*
X653860Y279400D02*
X666940Y279400D01*
X666940Y254000D02*
X653860Y254000D01*
X806260Y533400D02*
X819340Y533400D01*
X819340Y508000D02*
X806260Y508000D01*
X806260Y482600D02*
X819340Y482600D01*
X819340Y330200D02*
X806260Y330200D01*
X806260Y304800D02*
X819340Y304800D01*
X819340Y279400D02*
X806260Y279400D01*
X806260Y254000D02*
X819340Y254000D01*
X819340Y177800D02*
X806260Y177800D01*
X666940Y177800D02*
X653860Y177800D01*
X653860Y203200D02*
X666940Y203200D01*
X666940Y228600D02*
X653860Y228600D01*
X806260Y203200D02*
X819340Y203200D01*
X819340Y228600D02*
X806260Y228600D01*
X806260Y457200D02*
X819340Y457200D01*
D15*
X762000Y520700D03*
X736600Y520700D03*
X711200Y520700D03*
D14*
X806260Y355600D02*
X819340Y355600D01*
X819340Y381000D02*
X806260Y381000D01*
X806260Y406400D02*
X819340Y406400D01*
X819340Y431800D02*
X806260Y431800D01*
D15*
X762000Y546100D03*
X736600Y546100D03*
X711200Y546100D03*
D12*
X203200Y58420D02*
X203200Y43180D01*
X228600Y43180D02*
X228600Y58420D01*
X665480Y711200D02*
X680720Y711200D01*
X680720Y685800D02*
X665480Y685800D01*
X741680Y584200D02*
X756920Y584200D01*
X756920Y609600D02*
X741680Y609600D01*
X741680Y635000D02*
X756920Y635000D01*
X756920Y660400D02*
X741680Y660400D01*
X741680Y685800D02*
X756920Y685800D01*
X756920Y711200D02*
X741680Y711200D01*
D16*
X180000Y430000D02*
X180000Y382500D01*
X177800Y381000D01*
X180000Y430000D02*
X177800Y431800D01*
X711200Y711200D02*
X749300Y711200D01*
X711200Y711200D02*
X711200Y673100D01*
X660400Y622300D01*
X286000Y622300D01*
X286000Y538500D01*
X180000Y432500D01*
X177800Y431800D01*
X750000Y710000D02*
X788600Y710000D01*
X750000Y710000D02*
X749300Y711200D01*
X736600Y71600D02*
X744700Y63500D01*
X736600Y71600D02*
X808200Y71600D01*
X888540Y151940D01*
X888540Y610060D01*
X788600Y710000D01*
D17*
X812300Y255000D02*
X760600Y255000D01*
X723100Y292500D01*
X497500Y292500D01*
X497500Y545000D01*
X812300Y255000D02*
X812800Y254000D01*
X497500Y545000D02*
X495300Y546100D01*
X773300Y280000D02*
X812300Y280000D01*
X773300Y280000D02*
X735800Y317500D01*
X522500Y317500D01*
X522500Y545000D01*
X812300Y280000D02*
X812800Y279400D01*
X522500Y545000D02*
X520700Y546100D01*
X773300Y305000D02*
X812300Y305000D01*
X773300Y305000D02*
X735800Y342500D01*
X547500Y342500D01*
X547500Y545000D01*
X812300Y305000D02*
X812800Y304800D01*
X547500Y545000D02*
X546100Y546100D01*
X764600Y367500D02*
X801900Y330200D01*
X764600Y367500D02*
X572500Y367500D01*
X572500Y545000D01*
X571500Y546100D01*
X801900Y330200D02*
X812800Y330200D01*
X659800Y177500D02*
X596700Y177500D01*
X521700Y102500D01*
X485000Y102500D01*
X659800Y177500D02*
X660400Y177800D01*
X485000Y102500D02*
X482600Y101600D01*
X482500Y100000D02*
X482500Y52500D01*
X482600Y50800D01*
X482500Y100000D02*
X482600Y101600D01*
X586300Y202500D02*
X659800Y202500D01*
X586300Y202500D02*
X524200Y140400D01*
X445400Y140400D01*
X445400Y127900D01*
X659800Y202500D02*
X660400Y203200D01*
X445400Y127900D02*
X419100Y101600D01*
X420000Y100000D02*
X420000Y52500D01*
X419100Y50800D01*
X420000Y100000D02*
X419100Y101600D01*
X445200Y240200D02*
X636100Y240200D01*
X445200Y240200D02*
X445200Y182500D01*
X377000Y114300D01*
X357500Y100000D02*
X357500Y52500D01*
X355600Y50800D01*
X357500Y100000D02*
X355600Y101600D01*
X368300Y114300D02*
X377000Y114300D01*
X368300Y114300D02*
X355600Y101600D01*
X636100Y240200D02*
X647700Y228600D01*
X660400Y228600D01*
X789600Y317500D02*
X838200Y317500D01*
X838200Y420000D01*
X723900Y420000D01*
X723900Y596900D01*
X738909Y611909D01*
X749300Y609600D01*
X751500Y355600D02*
X660400Y355600D01*
X751500Y355600D02*
X789600Y317500D01*
X697300Y410132D02*
X697300Y584800D01*
X747500Y635000D01*
X697300Y410132D02*
X660400Y381000D01*
X747500Y635000D02*
X749300Y635000D01*
X685800Y431800D02*
X660400Y406400D01*
X685800Y431800D02*
X685800Y598300D01*
X747500Y660000D01*
X749300Y660400D01*
X629600Y567100D02*
X629600Y437200D01*
X629600Y567100D02*
X747500Y685000D01*
X629600Y437200D02*
X635000Y431800D01*
X747500Y685000D02*
X749300Y685800D01*
X660400Y431800D02*
X635000Y431800D01*
D16*
X52500Y585000D02*
X52500Y620000D01*
X52500Y585000D02*
X50800Y584200D01*
X52500Y620000D02*
X50800Y622300D01*
X52500Y467500D02*
X52500Y432500D01*
X50800Y431800D01*
X52500Y467500D02*
X50800Y469900D01*
X52500Y317500D02*
X52500Y280000D01*
X50800Y279400D01*
X50800Y317500D02*
X52500Y317500D01*
X52500Y165000D02*
X52500Y127500D01*
X50800Y127000D01*
X52500Y165000D02*
X50800Y165100D01*
X52500Y100000D02*
X167500Y100000D01*
X167500Y87500D01*
X202500Y52500D01*
X52500Y100000D02*
X50800Y101600D01*
X202500Y52500D02*
X203200Y50800D01*
X39840Y267700D02*
X14800Y267700D01*
X14800Y369800D01*
X27500Y382500D02*
X50000Y405000D01*
X39840Y267700D02*
X50800Y254000D01*
X50000Y405000D02*
X50800Y406400D01*
X14800Y522300D02*
X50000Y557500D01*
X14800Y522300D02*
X14800Y397700D01*
X50000Y557500D02*
X50800Y558800D01*
X27500Y385000D02*
X27500Y382500D01*
X14800Y102500D02*
X50000Y102500D01*
X14800Y102500D02*
X14800Y265200D01*
X50000Y102500D02*
X50800Y101600D01*
X14800Y265200D02*
X14800Y267700D01*
X14800Y369800D02*
X27500Y382500D01*
X27500Y385000D02*
X14800Y397700D01*
X71250Y211250D02*
X69700Y209700D01*
X52500Y192500D01*
X50800Y190500D01*
X85200Y495000D02*
X87700Y495000D01*
X87700Y355600D02*
X87700Y337700D01*
X87700Y355600D02*
X87700Y495000D01*
X52500Y495000D02*
X50800Y495300D01*
X87700Y337700D02*
X87700Y328850D01*
X87700Y647500D02*
X52500Y647500D01*
X87700Y647500D02*
X87700Y497500D01*
X52500Y647500D02*
X50800Y647700D01*
X228600Y177800D02*
X228600Y50800D01*
X203200Y203200D02*
X140150Y203200D01*
X203200Y203200D02*
X228600Y177800D01*
X87700Y255650D02*
X87700Y337700D01*
X87700Y255650D02*
X140150Y203200D01*
X87700Y227700D02*
X69700Y209700D01*
X87700Y227700D02*
X87700Y337700D01*
X85200Y495000D02*
X87700Y497500D01*
X75000Y495000D02*
X52500Y495000D01*
X75000Y495000D02*
X85200Y495000D01*
X63500Y355600D02*
X50800Y342900D01*
X63500Y355600D02*
X87700Y355600D01*
X358350Y383350D02*
X383750Y408750D01*
X405000Y430000D01*
X332500Y357500D02*
X332500Y52500D01*
X405000Y430000D02*
X406400Y431800D01*
X332500Y52500D02*
X330200Y50800D01*
X370000Y27500D02*
X392500Y50000D01*
X370000Y27500D02*
X332500Y27500D01*
X332500Y50000D01*
X392500Y50000D02*
X393700Y50800D01*
X332500Y50000D02*
X330200Y50800D01*
X595000Y547500D02*
X587500Y555000D01*
X587500Y560000D01*
X577500Y570000D01*
X357100Y570000D01*
X357100Y384600D01*
X595000Y547500D02*
X596900Y546100D01*
X358350Y383350D02*
X357100Y384600D01*
X812800Y508000D02*
X876300Y508000D01*
X876300Y203200D01*
X828100Y155000D01*
X640000Y155000D01*
X512500Y27500D01*
X457500Y27500D01*
X457500Y50000D01*
X457200Y50800D01*
X412500Y27500D02*
X392500Y47500D01*
X412500Y27500D02*
X455000Y27500D01*
X393700Y50800D02*
X392500Y47500D01*
X455000Y27500D02*
X457500Y27500D01*
X332500Y357500D02*
X358350Y383350D01*
X767500Y592500D02*
X806527Y553473D01*
X767500Y592500D02*
X750000Y592500D01*
X750000Y585000D01*
X806527Y553473D02*
X812800Y533400D01*
X750000Y585000D02*
X749300Y584200D01*
X417500Y202500D02*
X357500Y202500D01*
D17*
X355600Y203200D01*
X417500Y202500D02*
X419100Y203200D01*
D16*
X485000Y205000D02*
X535700Y205000D01*
X546600Y215900D01*
X660400Y215900D01*
X711200Y266700D02*
X762000Y215900D01*
X431800Y266700D02*
X420000Y266700D01*
X444500Y266700D02*
X711200Y266700D01*
X420000Y266700D02*
X420000Y205000D01*
D17*
X482600Y203200D02*
X485000Y205000D01*
X420000Y205000D02*
X419100Y203200D01*
D16*
X444500Y495500D02*
X407500Y532500D01*
X444500Y495500D02*
X444500Y266700D01*
D17*
X407500Y532500D02*
X406400Y533400D01*
D16*
X852500Y470000D02*
X852500Y230200D01*
X838200Y215900D01*
X762000Y215900D01*
D17*
X812300Y532500D02*
X812800Y533400D01*
D16*
X706100Y215900D02*
X660400Y215900D01*
X800000Y470000D02*
X787400Y482600D01*
X787400Y508000D01*
X812800Y533400D01*
X800000Y470000D02*
X852500Y470000D01*
X731500Y215900D02*
X706100Y215900D01*
X731500Y215900D02*
X762000Y215900D01*
X444500Y266700D02*
X431800Y266700D01*
X172300Y538900D02*
X172300Y580200D01*
X259200Y667100D01*
X624600Y667100D01*
X667500Y710000D01*
X672500Y710000D01*
X673100Y711200D01*
X704000Y132500D02*
X735000Y132500D01*
X279400Y199800D02*
X129600Y349600D01*
X129600Y487100D01*
X175000Y532500D01*
X735000Y132500D02*
X736600Y132600D01*
X177800Y533400D02*
X175000Y532500D01*
X279400Y199800D02*
X279400Y38100D01*
X304340Y13160D01*
X521160Y13160D01*
X609600Y101600D01*
X704000Y101600D01*
X704000Y132500D01*
X177800Y533400D02*
X172300Y538900D01*
M02*
