G04 EAGLE Gerber X2 export*
%TF.Part,Single*%
%TF.FileFunction,Copper,L1,Top,Mixed*%
%TF.FilePolarity,Positive*%
%TF.GenerationSoftware,Autodesk,EAGLE,9.1.0*%
%TF.CreationDate,2019-04-29T08:05:55Z*%
G75*
%MOMM*%
%FSLAX34Y34*%
%LPD*%
%AMOC8*
5,1,8,0,0,1.08239X$1,22.5*%
G01*
%ADD10C,2.000000*%
%ADD11C,1.508000*%
%ADD12C,1.524000*%
%ADD13P,1.429621X8X112.500000*%
%ADD14C,1.308000*%
%ADD15C,1.308000*%


D10*
X746600Y132600D02*
X726600Y132600D01*
X726600Y71600D02*
X746600Y71600D01*
X784600Y91600D02*
X784600Y111600D01*
D11*
X185340Y381000D02*
X170260Y381000D01*
X170260Y431800D02*
X185340Y431800D01*
X185340Y533400D02*
X170260Y533400D01*
X398860Y381000D02*
X413940Y381000D01*
X413940Y431800D02*
X398860Y431800D01*
X398860Y482600D02*
X413940Y482600D01*
X413940Y533400D02*
X398860Y533400D01*
D12*
X58420Y622300D02*
X43180Y622300D01*
X43180Y647700D02*
X58420Y647700D01*
X58420Y469900D02*
X43180Y469900D01*
X43180Y495300D02*
X58420Y495300D01*
X58420Y317500D02*
X43180Y317500D01*
X43180Y342900D02*
X58420Y342900D01*
X58420Y165100D02*
X43180Y165100D01*
X43180Y190500D02*
X58420Y190500D01*
D13*
X482600Y101600D03*
X482600Y203200D03*
X419100Y101600D03*
X419100Y203200D03*
X355600Y101600D03*
X355600Y203200D03*
D12*
X58420Y558800D02*
X43180Y558800D01*
X43180Y584200D02*
X58420Y584200D01*
X58420Y406400D02*
X43180Y406400D01*
X43180Y431800D02*
X58420Y431800D01*
X58420Y254000D02*
X43180Y254000D01*
X43180Y279400D02*
X58420Y279400D01*
X58420Y101600D02*
X43180Y101600D01*
X43180Y127000D02*
X58420Y127000D01*
X355600Y58420D02*
X355600Y43180D01*
X330200Y43180D02*
X330200Y58420D01*
X419100Y58420D02*
X419100Y43180D01*
X393700Y43180D02*
X393700Y58420D01*
X482600Y58420D02*
X482600Y43180D01*
X457200Y43180D02*
X457200Y58420D01*
X596900Y538480D02*
X596900Y553720D01*
X571500Y553720D02*
X571500Y538480D01*
X546100Y538480D02*
X546100Y553720D01*
X520700Y553720D02*
X520700Y538480D01*
X495300Y538480D02*
X495300Y553720D01*
D14*
X653860Y533400D02*
X666940Y533400D01*
X666940Y508000D02*
X653860Y508000D01*
X653860Y482600D02*
X666940Y482600D01*
X666940Y457200D02*
X653860Y457200D01*
X653860Y431800D02*
X666940Y431800D01*
X666940Y406400D02*
X653860Y406400D01*
X653860Y381000D02*
X666940Y381000D01*
X666940Y355600D02*
X653860Y355600D01*
X653860Y330200D02*
X666940Y330200D01*
X666940Y304800D02*
X653860Y304800D01*
X653860Y279400D02*
X666940Y279400D01*
X666940Y254000D02*
X653860Y254000D01*
X806260Y533400D02*
X819340Y533400D01*
X819340Y508000D02*
X806260Y508000D01*
X806260Y482600D02*
X819340Y482600D01*
X819340Y330200D02*
X806260Y330200D01*
X806260Y304800D02*
X819340Y304800D01*
X819340Y279400D02*
X806260Y279400D01*
X806260Y254000D02*
X819340Y254000D01*
X819340Y177800D02*
X806260Y177800D01*
X666940Y177800D02*
X653860Y177800D01*
X653860Y203200D02*
X666940Y203200D01*
X666940Y228600D02*
X653860Y228600D01*
X806260Y203200D02*
X819340Y203200D01*
X819340Y228600D02*
X806260Y228600D01*
X806260Y457200D02*
X819340Y457200D01*
D15*
X762000Y520700D03*
X736600Y520700D03*
X711200Y520700D03*
D14*
X806260Y355600D02*
X819340Y355600D01*
X819340Y381000D02*
X806260Y381000D01*
X806260Y406400D02*
X819340Y406400D01*
X819340Y431800D02*
X806260Y431800D01*
D15*
X762000Y546100D03*
X736600Y546100D03*
X711200Y546100D03*
D12*
X203200Y58420D02*
X203200Y43180D01*
X228600Y43180D02*
X228600Y58420D01*
X665480Y711200D02*
X680720Y711200D01*
X680720Y685800D02*
X665480Y685800D01*
X741680Y584200D02*
X756920Y584200D01*
X756920Y609600D02*
X741680Y609600D01*
X741680Y635000D02*
X756920Y635000D01*
X756920Y660400D02*
X741680Y660400D01*
X741680Y685800D02*
X756920Y685800D01*
X756920Y711200D02*
X741680Y711200D01*
M02*
