M48
;GenerationSoftware,Autodesk,EAGLE,9.1.0*%
;CreationDate,2019-04-29T08:05:55Z*%
FMAT,2
ICI,OFF
METRIC,TZ,000.000
T5C0.800
T4C0.813
T3C1.000
T2C1.016
T1C3.200
%
G90
M71
T1
X2540Y72390
X11430Y72390
X87630Y72390
X87630Y2540
X2540Y2540
X60960Y72390
X11430Y2540
X60960Y2540
T2
X5080Y25400
X5080Y31750
X5080Y27940
X5080Y10160
X57150Y54610
X5080Y12700
X35560Y5080
X33020Y5080
X41910Y5080
X39370Y5080
X48260Y5080
X45720Y5080
X5080Y62230
X5080Y64770
X5080Y46990
X5080Y49530
X59690Y54610
X5080Y34290
X5080Y16510
X5080Y19050
X22860Y5080
X20320Y5080
X74930Y71120
X49530Y54610
X52070Y54610
X54610Y54610
X5080Y55880
X5080Y58420
X5080Y40640
X5080Y43180
X67310Y71120
X67310Y68580
X74930Y58420
X74930Y60960
X74930Y63500
X74930Y66040
X74930Y68580
T3
X40640Y43180
X40640Y48260
X40640Y53340
X78460Y10160
X20320Y55880
X38100Y35560
X73660Y13260
X73660Y7160
X17780Y38100
X17780Y43180
X17780Y53340
X40640Y38100
T4
X41910Y10160
X41910Y20320
X48260Y20320
X48260Y10160
X35560Y20320
X35560Y10160
T5
X66040Y30480
X66040Y27940
X66040Y25400
X81280Y53340
X81280Y50800
X81280Y48260
X81280Y33020
X81280Y30480
X81280Y27940
X81280Y25400
X81280Y17780
X66040Y17780
X66040Y22860
X81280Y20320
X81280Y22860
X81280Y45720
X76200Y52070
X73660Y52070
X71120Y52070
X81280Y35560
X81280Y38100
X81280Y40640
X81280Y43180
X66040Y20320
X73660Y54610
X66040Y43180
X66040Y40640
X66040Y38100
X66040Y35560
X66040Y33020
X71120Y54610
X66040Y53340
X66040Y50800
X66040Y48260
X66040Y45720
X76200Y54610
M30