G04 EAGLE Gerber X2 export*
%TF.Part,Single*%
%TF.FileFunction,Profile,NP*%
%TF.FilePolarity,Positive*%
%TF.GenerationSoftware,Autodesk,EAGLE,9.1.0*%
%TF.CreationDate,2019-04-29T08:05:55Z*%
G75*
%MOMM*%
%FSLAX34Y34*%
%LPD*%
%AMOC8*
5,1,8,0,0,1.08239X$1,22.5*%
G01*
%ADD10C,0.254000*%


D10*
X0Y0D02*
X901700Y0D01*
X901700Y749300D01*
X0Y749200D01*
X0Y0D01*
X722600Y66600D02*
X750600Y66600D01*
X750600Y76600D01*
X722600Y76600D01*
X722600Y66600D01*
X720100Y127600D02*
X753100Y127600D01*
X753100Y137600D01*
X720100Y137600D01*
X720100Y127600D01*
X779600Y87600D02*
X789600Y87600D01*
X789600Y115600D01*
X779600Y115600D01*
X779600Y87600D01*
X892300Y723376D02*
X892232Y722331D01*
X892095Y721292D01*
X891890Y720265D01*
X891619Y719253D01*
X891283Y718261D01*
X890882Y717293D01*
X890418Y716354D01*
X889895Y715446D01*
X889313Y714575D01*
X888675Y713744D01*
X887984Y712957D01*
X887243Y712216D01*
X886456Y711525D01*
X885625Y710888D01*
X884754Y710306D01*
X883846Y709782D01*
X882907Y709318D01*
X881939Y708917D01*
X880947Y708581D01*
X879935Y708310D01*
X878908Y708105D01*
X877869Y707969D01*
X876824Y707900D01*
X875776Y707900D01*
X874731Y707969D01*
X873692Y708105D01*
X872665Y708310D01*
X871653Y708581D01*
X870661Y708917D01*
X869693Y709318D01*
X868754Y709782D01*
X867846Y710306D01*
X866975Y710888D01*
X866144Y711525D01*
X865357Y712216D01*
X864616Y712957D01*
X863925Y713744D01*
X863288Y714575D01*
X862706Y715446D01*
X862182Y716354D01*
X861718Y717293D01*
X861317Y718261D01*
X860981Y719253D01*
X860710Y720265D01*
X860505Y721292D01*
X860369Y722331D01*
X860300Y723376D01*
X860300Y724424D01*
X860369Y725469D01*
X860505Y726508D01*
X860710Y727535D01*
X860981Y728547D01*
X861317Y729539D01*
X861718Y730507D01*
X862182Y731446D01*
X862706Y732354D01*
X863288Y733225D01*
X863925Y734056D01*
X864616Y734843D01*
X865357Y735584D01*
X866144Y736275D01*
X866975Y736913D01*
X867846Y737495D01*
X868754Y738018D01*
X869693Y738482D01*
X870661Y738883D01*
X871653Y739219D01*
X872665Y739490D01*
X873692Y739695D01*
X874731Y739832D01*
X875776Y739900D01*
X876824Y739900D01*
X877869Y739832D01*
X878908Y739695D01*
X879935Y739490D01*
X880947Y739219D01*
X881939Y738883D01*
X882907Y738482D01*
X883846Y738018D01*
X884754Y737495D01*
X885625Y736913D01*
X886456Y736275D01*
X887243Y735584D01*
X887984Y734843D01*
X888675Y734056D01*
X889313Y733225D01*
X889895Y732354D01*
X890418Y731446D01*
X890882Y730507D01*
X891283Y729539D01*
X891619Y728547D01*
X891890Y727535D01*
X892095Y726508D01*
X892232Y725469D01*
X892300Y724424D01*
X892300Y723376D01*
X892300Y24876D02*
X892232Y23831D01*
X892095Y22792D01*
X891890Y21765D01*
X891619Y20753D01*
X891283Y19761D01*
X890882Y18793D01*
X890418Y17854D01*
X889895Y16946D01*
X889313Y16075D01*
X888675Y15244D01*
X887984Y14457D01*
X887243Y13716D01*
X886456Y13025D01*
X885625Y12388D01*
X884754Y11806D01*
X883846Y11282D01*
X882907Y10818D01*
X881939Y10417D01*
X880947Y10081D01*
X879935Y9810D01*
X878908Y9605D01*
X877869Y9469D01*
X876824Y9400D01*
X875776Y9400D01*
X874731Y9469D01*
X873692Y9605D01*
X872665Y9810D01*
X871653Y10081D01*
X870661Y10417D01*
X869693Y10818D01*
X868754Y11282D01*
X867846Y11806D01*
X866975Y12388D01*
X866144Y13025D01*
X865357Y13716D01*
X864616Y14457D01*
X863925Y15244D01*
X863288Y16075D01*
X862706Y16946D01*
X862182Y17854D01*
X861718Y18793D01*
X861317Y19761D01*
X860981Y20753D01*
X860710Y21765D01*
X860505Y22792D01*
X860369Y23831D01*
X860300Y24876D01*
X860300Y25924D01*
X860369Y26969D01*
X860505Y28008D01*
X860710Y29035D01*
X860981Y30047D01*
X861317Y31039D01*
X861718Y32007D01*
X862182Y32946D01*
X862706Y33854D01*
X863288Y34725D01*
X863925Y35556D01*
X864616Y36343D01*
X865357Y37084D01*
X866144Y37775D01*
X866975Y38413D01*
X867846Y38995D01*
X868754Y39518D01*
X869693Y39982D01*
X870661Y40383D01*
X871653Y40719D01*
X872665Y40990D01*
X873692Y41195D01*
X874731Y41332D01*
X875776Y41400D01*
X876824Y41400D01*
X877869Y41332D01*
X878908Y41195D01*
X879935Y40990D01*
X880947Y40719D01*
X881939Y40383D01*
X882907Y39982D01*
X883846Y39518D01*
X884754Y38995D01*
X885625Y38413D01*
X886456Y37775D01*
X887243Y37084D01*
X887984Y36343D01*
X888675Y35556D01*
X889313Y34725D01*
X889895Y33854D01*
X890418Y32946D01*
X890882Y32007D01*
X891283Y31039D01*
X891619Y30047D01*
X891890Y29035D01*
X892095Y28008D01*
X892232Y26969D01*
X892300Y25924D01*
X892300Y24876D01*
X41400Y24876D02*
X41332Y23831D01*
X41195Y22792D01*
X40990Y21765D01*
X40719Y20753D01*
X40383Y19761D01*
X39982Y18793D01*
X39518Y17854D01*
X38995Y16946D01*
X38413Y16075D01*
X37775Y15244D01*
X37084Y14457D01*
X36343Y13716D01*
X35556Y13025D01*
X34725Y12388D01*
X33854Y11806D01*
X32946Y11282D01*
X32007Y10818D01*
X31039Y10417D01*
X30047Y10081D01*
X29035Y9810D01*
X28008Y9605D01*
X26969Y9469D01*
X25924Y9400D01*
X24876Y9400D01*
X23831Y9469D01*
X22792Y9605D01*
X21765Y9810D01*
X20753Y10081D01*
X19761Y10417D01*
X18793Y10818D01*
X17854Y11282D01*
X16946Y11806D01*
X16075Y12388D01*
X15244Y13025D01*
X14457Y13716D01*
X13716Y14457D01*
X13025Y15244D01*
X12388Y16075D01*
X11806Y16946D01*
X11282Y17854D01*
X10818Y18793D01*
X10417Y19761D01*
X10081Y20753D01*
X9810Y21765D01*
X9605Y22792D01*
X9469Y23831D01*
X9400Y24876D01*
X9400Y25924D01*
X9469Y26969D01*
X9605Y28008D01*
X9810Y29035D01*
X10081Y30047D01*
X10417Y31039D01*
X10818Y32007D01*
X11282Y32946D01*
X11806Y33854D01*
X12388Y34725D01*
X13025Y35556D01*
X13716Y36343D01*
X14457Y37084D01*
X15244Y37775D01*
X16075Y38413D01*
X16946Y38995D01*
X17854Y39518D01*
X18793Y39982D01*
X19761Y40383D01*
X20753Y40719D01*
X21765Y40990D01*
X22792Y41195D01*
X23831Y41332D01*
X24876Y41400D01*
X25924Y41400D01*
X26969Y41332D01*
X28008Y41195D01*
X29035Y40990D01*
X30047Y40719D01*
X31039Y40383D01*
X32007Y39982D01*
X32946Y39518D01*
X33854Y38995D01*
X34725Y38413D01*
X35556Y37775D01*
X36343Y37084D01*
X37084Y36343D01*
X37775Y35556D01*
X38413Y34725D01*
X38995Y33854D01*
X39518Y32946D01*
X39982Y32007D01*
X40383Y31039D01*
X40719Y30047D01*
X40990Y29035D01*
X41195Y28008D01*
X41332Y26969D01*
X41400Y25924D01*
X41400Y24876D01*
X41400Y723376D02*
X41332Y722331D01*
X41195Y721292D01*
X40990Y720265D01*
X40719Y719253D01*
X40383Y718261D01*
X39982Y717293D01*
X39518Y716354D01*
X38995Y715446D01*
X38413Y714575D01*
X37775Y713744D01*
X37084Y712957D01*
X36343Y712216D01*
X35556Y711525D01*
X34725Y710888D01*
X33854Y710306D01*
X32946Y709782D01*
X32007Y709318D01*
X31039Y708917D01*
X30047Y708581D01*
X29035Y708310D01*
X28008Y708105D01*
X26969Y707969D01*
X25924Y707900D01*
X24876Y707900D01*
X23831Y707969D01*
X22792Y708105D01*
X21765Y708310D01*
X20753Y708581D01*
X19761Y708917D01*
X18793Y709318D01*
X17854Y709782D01*
X16946Y710306D01*
X16075Y710888D01*
X15244Y711525D01*
X14457Y712216D01*
X13716Y712957D01*
X13025Y713744D01*
X12388Y714575D01*
X11806Y715446D01*
X11282Y716354D01*
X10818Y717293D01*
X10417Y718261D01*
X10081Y719253D01*
X9810Y720265D01*
X9605Y721292D01*
X9469Y722331D01*
X9400Y723376D01*
X9400Y724424D01*
X9469Y725469D01*
X9605Y726508D01*
X9810Y727535D01*
X10081Y728547D01*
X10417Y729539D01*
X10818Y730507D01*
X11282Y731446D01*
X11806Y732354D01*
X12388Y733225D01*
X13025Y734056D01*
X13716Y734843D01*
X14457Y735584D01*
X15244Y736275D01*
X16075Y736913D01*
X16946Y737495D01*
X17854Y738018D01*
X18793Y738482D01*
X19761Y738883D01*
X20753Y739219D01*
X21765Y739490D01*
X22792Y739695D01*
X23831Y739832D01*
X24876Y739900D01*
X25924Y739900D01*
X26969Y739832D01*
X28008Y739695D01*
X29035Y739490D01*
X30047Y739219D01*
X31039Y738883D01*
X32007Y738482D01*
X32946Y738018D01*
X33854Y737495D01*
X34725Y736913D01*
X35556Y736275D01*
X36343Y735584D01*
X37084Y734843D01*
X37775Y734056D01*
X38413Y733225D01*
X38995Y732354D01*
X39518Y731446D01*
X39982Y730507D01*
X40383Y729539D01*
X40719Y728547D01*
X40990Y727535D01*
X41195Y726508D01*
X41332Y725469D01*
X41400Y724424D01*
X41400Y723376D01*
X130300Y24876D02*
X130232Y23831D01*
X130095Y22792D01*
X129890Y21765D01*
X129619Y20753D01*
X129283Y19761D01*
X128882Y18793D01*
X128418Y17854D01*
X127895Y16946D01*
X127313Y16075D01*
X126675Y15244D01*
X125984Y14457D01*
X125243Y13716D01*
X124456Y13025D01*
X123625Y12388D01*
X122754Y11806D01*
X121846Y11282D01*
X120907Y10818D01*
X119939Y10417D01*
X118947Y10081D01*
X117935Y9810D01*
X116908Y9605D01*
X115869Y9469D01*
X114824Y9400D01*
X113776Y9400D01*
X112731Y9469D01*
X111692Y9605D01*
X110665Y9810D01*
X109653Y10081D01*
X108661Y10417D01*
X107693Y10818D01*
X106754Y11282D01*
X105846Y11806D01*
X104975Y12388D01*
X104144Y13025D01*
X103357Y13716D01*
X102616Y14457D01*
X101925Y15244D01*
X101288Y16075D01*
X100706Y16946D01*
X100182Y17854D01*
X99718Y18793D01*
X99317Y19761D01*
X98981Y20753D01*
X98710Y21765D01*
X98505Y22792D01*
X98369Y23831D01*
X98300Y24876D01*
X98300Y25924D01*
X98369Y26969D01*
X98505Y28008D01*
X98710Y29035D01*
X98981Y30047D01*
X99317Y31039D01*
X99718Y32007D01*
X100182Y32946D01*
X100706Y33854D01*
X101288Y34725D01*
X101925Y35556D01*
X102616Y36343D01*
X103357Y37084D01*
X104144Y37775D01*
X104975Y38413D01*
X105846Y38995D01*
X106754Y39518D01*
X107693Y39982D01*
X108661Y40383D01*
X109653Y40719D01*
X110665Y40990D01*
X111692Y41195D01*
X112731Y41332D01*
X113776Y41400D01*
X114824Y41400D01*
X115869Y41332D01*
X116908Y41195D01*
X117935Y40990D01*
X118947Y40719D01*
X119939Y40383D01*
X120907Y39982D01*
X121846Y39518D01*
X122754Y38995D01*
X123625Y38413D01*
X124456Y37775D01*
X125243Y37084D01*
X125984Y36343D01*
X126675Y35556D01*
X127313Y34725D01*
X127895Y33854D01*
X128418Y32946D01*
X128882Y32007D01*
X129283Y31039D01*
X129619Y30047D01*
X129890Y29035D01*
X130095Y28008D01*
X130232Y26969D01*
X130300Y25924D01*
X130300Y24876D01*
X625600Y24876D02*
X625532Y23831D01*
X625395Y22792D01*
X625190Y21765D01*
X624919Y20753D01*
X624583Y19761D01*
X624182Y18793D01*
X623718Y17854D01*
X623195Y16946D01*
X622613Y16075D01*
X621975Y15244D01*
X621284Y14457D01*
X620543Y13716D01*
X619756Y13025D01*
X618925Y12388D01*
X618054Y11806D01*
X617146Y11282D01*
X616207Y10818D01*
X615239Y10417D01*
X614247Y10081D01*
X613235Y9810D01*
X612208Y9605D01*
X611169Y9469D01*
X610124Y9400D01*
X609076Y9400D01*
X608031Y9469D01*
X606992Y9605D01*
X605965Y9810D01*
X604953Y10081D01*
X603961Y10417D01*
X602993Y10818D01*
X602054Y11282D01*
X601146Y11806D01*
X600275Y12388D01*
X599444Y13025D01*
X598657Y13716D01*
X597916Y14457D01*
X597225Y15244D01*
X596588Y16075D01*
X596006Y16946D01*
X595482Y17854D01*
X595018Y18793D01*
X594617Y19761D01*
X594281Y20753D01*
X594010Y21765D01*
X593805Y22792D01*
X593669Y23831D01*
X593600Y24876D01*
X593600Y25924D01*
X593669Y26969D01*
X593805Y28008D01*
X594010Y29035D01*
X594281Y30047D01*
X594617Y31039D01*
X595018Y32007D01*
X595482Y32946D01*
X596006Y33854D01*
X596588Y34725D01*
X597225Y35556D01*
X597916Y36343D01*
X598657Y37084D01*
X599444Y37775D01*
X600275Y38413D01*
X601146Y38995D01*
X602054Y39518D01*
X602993Y39982D01*
X603961Y40383D01*
X604953Y40719D01*
X605965Y40990D01*
X606992Y41195D01*
X608031Y41332D01*
X609076Y41400D01*
X610124Y41400D01*
X611169Y41332D01*
X612208Y41195D01*
X613235Y40990D01*
X614247Y40719D01*
X615239Y40383D01*
X616207Y39982D01*
X617146Y39518D01*
X618054Y38995D01*
X618925Y38413D01*
X619756Y37775D01*
X620543Y37084D01*
X621284Y36343D01*
X621975Y35556D01*
X622613Y34725D01*
X623195Y33854D01*
X623718Y32946D01*
X624182Y32007D01*
X624583Y31039D01*
X624919Y30047D01*
X625190Y29035D01*
X625395Y28008D01*
X625532Y26969D01*
X625600Y25924D01*
X625600Y24876D01*
X130300Y723376D02*
X130232Y722331D01*
X130095Y721292D01*
X129890Y720265D01*
X129619Y719253D01*
X129283Y718261D01*
X128882Y717293D01*
X128418Y716354D01*
X127895Y715446D01*
X127313Y714575D01*
X126675Y713744D01*
X125984Y712957D01*
X125243Y712216D01*
X124456Y711525D01*
X123625Y710888D01*
X122754Y710306D01*
X121846Y709782D01*
X120907Y709318D01*
X119939Y708917D01*
X118947Y708581D01*
X117935Y708310D01*
X116908Y708105D01*
X115869Y707969D01*
X114824Y707900D01*
X113776Y707900D01*
X112731Y707969D01*
X111692Y708105D01*
X110665Y708310D01*
X109653Y708581D01*
X108661Y708917D01*
X107693Y709318D01*
X106754Y709782D01*
X105846Y710306D01*
X104975Y710888D01*
X104144Y711525D01*
X103357Y712216D01*
X102616Y712957D01*
X101925Y713744D01*
X101288Y714575D01*
X100706Y715446D01*
X100182Y716354D01*
X99718Y717293D01*
X99317Y718261D01*
X98981Y719253D01*
X98710Y720265D01*
X98505Y721292D01*
X98369Y722331D01*
X98300Y723376D01*
X98300Y724424D01*
X98369Y725469D01*
X98505Y726508D01*
X98710Y727535D01*
X98981Y728547D01*
X99317Y729539D01*
X99718Y730507D01*
X100182Y731446D01*
X100706Y732354D01*
X101288Y733225D01*
X101925Y734056D01*
X102616Y734843D01*
X103357Y735584D01*
X104144Y736275D01*
X104975Y736913D01*
X105846Y737495D01*
X106754Y738018D01*
X107693Y738482D01*
X108661Y738883D01*
X109653Y739219D01*
X110665Y739490D01*
X111692Y739695D01*
X112731Y739832D01*
X113776Y739900D01*
X114824Y739900D01*
X115869Y739832D01*
X116908Y739695D01*
X117935Y739490D01*
X118947Y739219D01*
X119939Y738883D01*
X120907Y738482D01*
X121846Y738018D01*
X122754Y737495D01*
X123625Y736913D01*
X124456Y736275D01*
X125243Y735584D01*
X125984Y734843D01*
X126675Y734056D01*
X127313Y733225D01*
X127895Y732354D01*
X128418Y731446D01*
X128882Y730507D01*
X129283Y729539D01*
X129619Y728547D01*
X129890Y727535D01*
X130095Y726508D01*
X130232Y725469D01*
X130300Y724424D01*
X130300Y723376D01*
X625600Y723376D02*
X625532Y722331D01*
X625395Y721292D01*
X625190Y720265D01*
X624919Y719253D01*
X624583Y718261D01*
X624182Y717293D01*
X623718Y716354D01*
X623195Y715446D01*
X622613Y714575D01*
X621975Y713744D01*
X621284Y712957D01*
X620543Y712216D01*
X619756Y711525D01*
X618925Y710888D01*
X618054Y710306D01*
X617146Y709782D01*
X616207Y709318D01*
X615239Y708917D01*
X614247Y708581D01*
X613235Y708310D01*
X612208Y708105D01*
X611169Y707969D01*
X610124Y707900D01*
X609076Y707900D01*
X608031Y707969D01*
X606992Y708105D01*
X605965Y708310D01*
X604953Y708581D01*
X603961Y708917D01*
X602993Y709318D01*
X602054Y709782D01*
X601146Y710306D01*
X600275Y710888D01*
X599444Y711525D01*
X598657Y712216D01*
X597916Y712957D01*
X597225Y713744D01*
X596588Y714575D01*
X596006Y715446D01*
X595482Y716354D01*
X595018Y717293D01*
X594617Y718261D01*
X594281Y719253D01*
X594010Y720265D01*
X593805Y721292D01*
X593669Y722331D01*
X593600Y723376D01*
X593600Y724424D01*
X593669Y725469D01*
X593805Y726508D01*
X594010Y727535D01*
X594281Y728547D01*
X594617Y729539D01*
X595018Y730507D01*
X595482Y731446D01*
X596006Y732354D01*
X596588Y733225D01*
X597225Y734056D01*
X597916Y734843D01*
X598657Y735584D01*
X599444Y736275D01*
X600275Y736913D01*
X601146Y737495D01*
X602054Y738018D01*
X602993Y738482D01*
X603961Y738883D01*
X604953Y739219D01*
X605965Y739490D01*
X606992Y739695D01*
X608031Y739832D01*
X609076Y739900D01*
X610124Y739900D01*
X611169Y739832D01*
X612208Y739695D01*
X613235Y739490D01*
X614247Y739219D01*
X615239Y738883D01*
X616207Y738482D01*
X617146Y738018D01*
X618054Y737495D01*
X618925Y736913D01*
X619756Y736275D01*
X620543Y735584D01*
X621284Y734843D01*
X621975Y734056D01*
X622613Y733225D01*
X623195Y732354D01*
X623718Y731446D01*
X624182Y730507D01*
X624583Y729539D01*
X624919Y728547D01*
X625190Y727535D01*
X625395Y726508D01*
X625532Y725469D01*
X625600Y724424D01*
X625600Y723376D01*
X208200Y558519D02*
X208137Y557961D01*
X208012Y557414D01*
X207827Y556884D01*
X207583Y556378D01*
X207284Y555902D01*
X206934Y555463D01*
X206537Y555066D01*
X206098Y554716D01*
X205622Y554417D01*
X205116Y554173D01*
X204586Y553988D01*
X204039Y553863D01*
X203481Y553800D01*
X202919Y553800D01*
X202361Y553863D01*
X201814Y553988D01*
X201284Y554173D01*
X200778Y554417D01*
X200302Y554716D01*
X199863Y555066D01*
X199466Y555463D01*
X199116Y555902D01*
X198817Y556378D01*
X198573Y556884D01*
X198388Y557414D01*
X198263Y557961D01*
X198200Y558519D01*
X198200Y559081D01*
X198263Y559639D01*
X198388Y560186D01*
X198573Y560716D01*
X198817Y561222D01*
X199116Y561698D01*
X199466Y562137D01*
X199863Y562534D01*
X200302Y562884D01*
X200778Y563183D01*
X201284Y563427D01*
X201814Y563612D01*
X202361Y563737D01*
X202919Y563800D01*
X203481Y563800D01*
X204039Y563737D01*
X204586Y563612D01*
X205116Y563427D01*
X205622Y563183D01*
X206098Y562884D01*
X206537Y562534D01*
X206934Y562137D01*
X207284Y561698D01*
X207583Y561222D01*
X207827Y560716D01*
X208012Y560186D01*
X208137Y559639D01*
X208200Y559081D01*
X208200Y558519D01*
X386000Y355319D02*
X385937Y354761D01*
X385812Y354214D01*
X385627Y353684D01*
X385383Y353178D01*
X385084Y352702D01*
X384734Y352263D01*
X384337Y351866D01*
X383898Y351516D01*
X383422Y351217D01*
X382916Y350973D01*
X382386Y350788D01*
X381839Y350663D01*
X381281Y350600D01*
X380719Y350600D01*
X380161Y350663D01*
X379614Y350788D01*
X379084Y350973D01*
X378578Y351217D01*
X378102Y351516D01*
X377663Y351866D01*
X377266Y352263D01*
X376916Y352702D01*
X376617Y353178D01*
X376373Y353684D01*
X376188Y354214D01*
X376063Y354761D01*
X376000Y355319D01*
X376000Y355881D01*
X376063Y356439D01*
X376188Y356986D01*
X376373Y357516D01*
X376617Y358022D01*
X376916Y358498D01*
X377266Y358937D01*
X377663Y359334D01*
X378102Y359684D01*
X378578Y359983D01*
X379084Y360227D01*
X379614Y360412D01*
X380161Y360537D01*
X380719Y360600D01*
X381281Y360600D01*
X381839Y360537D01*
X382386Y360412D01*
X382916Y360227D01*
X383422Y359983D01*
X383898Y359684D01*
X384337Y359334D01*
X384734Y358937D01*
X385084Y358498D01*
X385383Y358022D01*
X385627Y357516D01*
X385812Y356986D01*
X385937Y356439D01*
X386000Y355881D01*
X386000Y355319D01*
M02*
