G04 EAGLE Gerber RS-274X export*
G75*
%MOMM*%
%FSLAX34Y34*%
%LPD*%
%INTop Copper*%
%IPPOS*%
%AMOC8*
5,1,8,0,0,1.08239X$1,22.5*%
G01*
%ADD10P,1.732040X8X202.500000*%
%ADD11C,1.600200*%
%ADD12C,1.676400*%
%ADD13P,1.429621X8X292.500000*%
%ADD14C,1.524000*%
%ADD15C,1.930400*%
%ADD16C,1.308000*%
%ADD17C,1.270000*%
%ADD18C,2.540000*%
%ADD19C,0.706400*%
%ADD20C,4.470000*%

G36*
X354672Y137427D02*
X354672Y137427D01*
X354759Y137430D01*
X354812Y137447D01*
X354867Y137455D01*
X354947Y137490D01*
X355030Y137517D01*
X355069Y137545D01*
X355126Y137571D01*
X355239Y137667D01*
X355303Y137712D01*
X377165Y159574D01*
X377166Y159575D01*
X377167Y159576D01*
X377255Y159694D01*
X377336Y159801D01*
X377336Y159802D01*
X377337Y159804D01*
X377387Y159935D01*
X377437Y160066D01*
X377437Y160068D01*
X377438Y160070D01*
X377449Y160214D01*
X377460Y160350D01*
X377460Y160351D01*
X377460Y160353D01*
X377457Y160369D01*
X377405Y160629D01*
X377390Y160656D01*
X377385Y160680D01*
X376935Y161765D01*
X376935Y219235D01*
X379488Y225396D01*
X383243Y229152D01*
X383261Y229176D01*
X383283Y229195D01*
X383346Y229289D01*
X383414Y229379D01*
X383425Y229407D01*
X383441Y229431D01*
X383475Y229539D01*
X383515Y229645D01*
X383518Y229674D01*
X383527Y229702D01*
X383530Y229816D01*
X383539Y229928D01*
X383533Y229957D01*
X383534Y229986D01*
X383505Y230096D01*
X383483Y230207D01*
X383470Y230233D01*
X383462Y230261D01*
X383404Y230359D01*
X383352Y230459D01*
X383332Y230481D01*
X383317Y230506D01*
X383234Y230583D01*
X383156Y230665D01*
X383131Y230680D01*
X383110Y230700D01*
X383009Y230752D01*
X382911Y230809D01*
X382883Y230816D01*
X382856Y230830D01*
X382779Y230843D01*
X382635Y230879D01*
X382573Y230877D01*
X382525Y230885D01*
X351903Y230885D01*
X351874Y230881D01*
X351845Y230884D01*
X351734Y230861D01*
X351622Y230845D01*
X351595Y230833D01*
X351566Y230828D01*
X351465Y230775D01*
X351362Y230729D01*
X351340Y230710D01*
X351314Y230697D01*
X351232Y230619D01*
X351145Y230546D01*
X351129Y230521D01*
X351108Y230501D01*
X351050Y230403D01*
X350988Y230309D01*
X350979Y230281D01*
X350964Y230256D01*
X350936Y230146D01*
X350902Y230038D01*
X350901Y230008D01*
X350894Y229980D01*
X350897Y229867D01*
X350895Y229754D01*
X350902Y229725D01*
X350903Y229696D01*
X350938Y229588D01*
X350966Y229479D01*
X350981Y229453D01*
X350990Y229425D01*
X351036Y229361D01*
X351112Y229234D01*
X351157Y229191D01*
X351185Y229152D01*
X351890Y228447D01*
X353505Y224549D01*
X353505Y207251D01*
X351890Y203353D01*
X348907Y200370D01*
X345009Y198755D01*
X340791Y198755D01*
X336893Y200370D01*
X333910Y203353D01*
X332295Y207251D01*
X332295Y224549D01*
X333910Y228447D01*
X334615Y229152D01*
X334632Y229176D01*
X334655Y229195D01*
X334718Y229289D01*
X334786Y229379D01*
X334796Y229407D01*
X334812Y229431D01*
X334847Y229539D01*
X334887Y229645D01*
X334889Y229674D01*
X334898Y229702D01*
X334901Y229816D01*
X334910Y229928D01*
X334905Y229957D01*
X334905Y229986D01*
X334877Y230096D01*
X334855Y230207D01*
X334841Y230233D01*
X334834Y230261D01*
X334776Y230359D01*
X334724Y230459D01*
X334703Y230481D01*
X334688Y230506D01*
X334606Y230583D01*
X334528Y230665D01*
X334503Y230680D01*
X334481Y230700D01*
X334380Y230752D01*
X334283Y230809D01*
X334254Y230816D01*
X334228Y230830D01*
X334151Y230843D01*
X334007Y230879D01*
X333945Y230877D01*
X333897Y230885D01*
X326503Y230885D01*
X326474Y230881D01*
X326445Y230884D01*
X326334Y230861D01*
X326222Y230845D01*
X326195Y230833D01*
X326166Y230828D01*
X326065Y230775D01*
X325962Y230729D01*
X325940Y230710D01*
X325914Y230697D01*
X325832Y230619D01*
X325745Y230546D01*
X325729Y230521D01*
X325708Y230501D01*
X325650Y230403D01*
X325588Y230309D01*
X325579Y230281D01*
X325564Y230256D01*
X325536Y230146D01*
X325502Y230038D01*
X325501Y230008D01*
X325494Y229980D01*
X325497Y229867D01*
X325495Y229754D01*
X325502Y229725D01*
X325503Y229696D01*
X325538Y229588D01*
X325566Y229479D01*
X325581Y229453D01*
X325590Y229425D01*
X325636Y229361D01*
X325712Y229234D01*
X325757Y229191D01*
X325785Y229152D01*
X326490Y228447D01*
X328105Y224549D01*
X328105Y207251D01*
X326490Y203353D01*
X323507Y200370D01*
X319609Y198755D01*
X315391Y198755D01*
X311493Y200370D01*
X308510Y203353D01*
X306895Y207251D01*
X306895Y224549D01*
X308510Y228447D01*
X309215Y229152D01*
X309232Y229176D01*
X309255Y229195D01*
X309318Y229289D01*
X309386Y229379D01*
X309396Y229407D01*
X309412Y229431D01*
X309447Y229539D01*
X309487Y229645D01*
X309489Y229674D01*
X309498Y229702D01*
X309501Y229816D01*
X309510Y229928D01*
X309505Y229957D01*
X309505Y229986D01*
X309477Y230096D01*
X309455Y230207D01*
X309441Y230233D01*
X309434Y230261D01*
X309376Y230359D01*
X309324Y230459D01*
X309303Y230481D01*
X309288Y230506D01*
X309206Y230583D01*
X309128Y230665D01*
X309103Y230680D01*
X309081Y230700D01*
X308980Y230752D01*
X308883Y230809D01*
X308854Y230816D01*
X308828Y230830D01*
X308751Y230843D01*
X308607Y230879D01*
X308545Y230877D01*
X308497Y230885D01*
X301103Y230885D01*
X301074Y230881D01*
X301045Y230884D01*
X300934Y230861D01*
X300822Y230845D01*
X300795Y230833D01*
X300766Y230828D01*
X300665Y230775D01*
X300562Y230729D01*
X300540Y230710D01*
X300514Y230697D01*
X300432Y230619D01*
X300345Y230546D01*
X300329Y230521D01*
X300308Y230501D01*
X300250Y230403D01*
X300188Y230309D01*
X300179Y230281D01*
X300164Y230256D01*
X300136Y230146D01*
X300102Y230038D01*
X300101Y230008D01*
X300094Y229980D01*
X300097Y229867D01*
X300095Y229754D01*
X300102Y229725D01*
X300103Y229696D01*
X300138Y229588D01*
X300166Y229479D01*
X300181Y229453D01*
X300190Y229425D01*
X300236Y229361D01*
X300312Y229234D01*
X300357Y229191D01*
X300385Y229152D01*
X301090Y228447D01*
X302705Y224549D01*
X302705Y207251D01*
X301090Y203353D01*
X298107Y200370D01*
X294209Y198755D01*
X289991Y198755D01*
X286093Y200370D01*
X283110Y203353D01*
X281495Y207251D01*
X281495Y224549D01*
X283110Y228447D01*
X283815Y229152D01*
X283832Y229176D01*
X283855Y229195D01*
X283918Y229289D01*
X283986Y229379D01*
X283996Y229407D01*
X284012Y229431D01*
X284047Y229539D01*
X284087Y229645D01*
X284089Y229674D01*
X284098Y229702D01*
X284101Y229816D01*
X284110Y229928D01*
X284105Y229957D01*
X284105Y229986D01*
X284077Y230096D01*
X284055Y230207D01*
X284041Y230233D01*
X284034Y230261D01*
X283976Y230359D01*
X283924Y230459D01*
X283903Y230481D01*
X283888Y230506D01*
X283806Y230583D01*
X283728Y230665D01*
X283703Y230680D01*
X283681Y230700D01*
X283580Y230752D01*
X283483Y230809D01*
X283454Y230816D01*
X283428Y230830D01*
X283351Y230843D01*
X283207Y230879D01*
X283145Y230877D01*
X283097Y230885D01*
X275703Y230885D01*
X275674Y230881D01*
X275645Y230884D01*
X275534Y230861D01*
X275422Y230845D01*
X275395Y230833D01*
X275366Y230828D01*
X275265Y230775D01*
X275162Y230729D01*
X275140Y230710D01*
X275114Y230697D01*
X275032Y230619D01*
X274945Y230546D01*
X274929Y230521D01*
X274908Y230501D01*
X274850Y230403D01*
X274788Y230309D01*
X274779Y230281D01*
X274764Y230256D01*
X274736Y230146D01*
X274702Y230038D01*
X274701Y230008D01*
X274694Y229980D01*
X274697Y229867D01*
X274695Y229754D01*
X274702Y229725D01*
X274703Y229696D01*
X274738Y229588D01*
X274766Y229479D01*
X274781Y229453D01*
X274790Y229425D01*
X274836Y229361D01*
X274912Y229234D01*
X274957Y229191D01*
X274985Y229152D01*
X275690Y228447D01*
X277305Y224549D01*
X277305Y207251D01*
X275690Y203353D01*
X272707Y200370D01*
X268809Y198755D01*
X264591Y198755D01*
X260693Y200370D01*
X257710Y203353D01*
X256095Y207251D01*
X256095Y224549D01*
X257710Y228447D01*
X258415Y229152D01*
X258432Y229176D01*
X258455Y229195D01*
X258518Y229289D01*
X258586Y229379D01*
X258596Y229407D01*
X258612Y229431D01*
X258647Y229539D01*
X258687Y229645D01*
X258689Y229674D01*
X258698Y229702D01*
X258701Y229816D01*
X258710Y229928D01*
X258705Y229957D01*
X258705Y229986D01*
X258677Y230096D01*
X258655Y230207D01*
X258641Y230233D01*
X258634Y230261D01*
X258576Y230359D01*
X258524Y230459D01*
X258503Y230481D01*
X258488Y230506D01*
X258406Y230583D01*
X258328Y230665D01*
X258303Y230680D01*
X258281Y230700D01*
X258180Y230752D01*
X258083Y230809D01*
X258054Y230816D01*
X258028Y230830D01*
X257951Y230843D01*
X257807Y230879D01*
X257745Y230877D01*
X257697Y230885D01*
X250303Y230885D01*
X250274Y230881D01*
X250245Y230884D01*
X250134Y230861D01*
X250022Y230845D01*
X249995Y230833D01*
X249966Y230828D01*
X249865Y230775D01*
X249762Y230729D01*
X249740Y230710D01*
X249714Y230697D01*
X249632Y230619D01*
X249545Y230546D01*
X249529Y230521D01*
X249508Y230501D01*
X249450Y230403D01*
X249388Y230309D01*
X249379Y230281D01*
X249364Y230256D01*
X249336Y230146D01*
X249302Y230038D01*
X249301Y230008D01*
X249294Y229980D01*
X249297Y229867D01*
X249295Y229754D01*
X249302Y229725D01*
X249303Y229696D01*
X249338Y229588D01*
X249366Y229479D01*
X249381Y229453D01*
X249390Y229425D01*
X249436Y229361D01*
X249512Y229234D01*
X249557Y229191D01*
X249585Y229152D01*
X250290Y228447D01*
X251905Y224549D01*
X251905Y207251D01*
X250290Y203353D01*
X247307Y200370D01*
X243409Y198755D01*
X239191Y198755D01*
X235293Y200370D01*
X232310Y203353D01*
X230695Y207251D01*
X230695Y224549D01*
X232310Y228447D01*
X233015Y229152D01*
X233032Y229176D01*
X233055Y229195D01*
X233118Y229289D01*
X233186Y229379D01*
X233196Y229407D01*
X233212Y229431D01*
X233247Y229539D01*
X233287Y229645D01*
X233289Y229674D01*
X233298Y229702D01*
X233301Y229816D01*
X233310Y229928D01*
X233305Y229957D01*
X233305Y229986D01*
X233277Y230096D01*
X233255Y230207D01*
X233241Y230233D01*
X233234Y230261D01*
X233176Y230359D01*
X233124Y230459D01*
X233103Y230481D01*
X233088Y230506D01*
X233006Y230583D01*
X232928Y230665D01*
X232903Y230680D01*
X232881Y230700D01*
X232780Y230752D01*
X232683Y230809D01*
X232654Y230816D01*
X232628Y230830D01*
X232551Y230843D01*
X232407Y230879D01*
X232345Y230877D01*
X232297Y230885D01*
X224903Y230885D01*
X224874Y230881D01*
X224845Y230884D01*
X224734Y230861D01*
X224622Y230845D01*
X224595Y230833D01*
X224566Y230828D01*
X224465Y230775D01*
X224362Y230729D01*
X224340Y230710D01*
X224314Y230697D01*
X224232Y230619D01*
X224145Y230546D01*
X224129Y230521D01*
X224108Y230501D01*
X224050Y230403D01*
X223988Y230309D01*
X223979Y230281D01*
X223964Y230256D01*
X223936Y230146D01*
X223902Y230038D01*
X223901Y230008D01*
X223894Y229980D01*
X223897Y229867D01*
X223895Y229754D01*
X223902Y229725D01*
X223903Y229696D01*
X223938Y229588D01*
X223966Y229479D01*
X223981Y229453D01*
X223990Y229425D01*
X224036Y229361D01*
X224112Y229234D01*
X224157Y229191D01*
X224185Y229152D01*
X224890Y228447D01*
X226505Y224549D01*
X226505Y207251D01*
X224890Y203353D01*
X221907Y200370D01*
X218009Y198755D01*
X213791Y198755D01*
X209893Y200370D01*
X206910Y203353D01*
X205295Y207251D01*
X205295Y224549D01*
X206910Y228447D01*
X207615Y229152D01*
X207632Y229176D01*
X207655Y229195D01*
X207718Y229289D01*
X207786Y229379D01*
X207796Y229407D01*
X207812Y229431D01*
X207847Y229539D01*
X207887Y229645D01*
X207889Y229674D01*
X207898Y229702D01*
X207901Y229816D01*
X207910Y229928D01*
X207905Y229957D01*
X207905Y229986D01*
X207877Y230096D01*
X207855Y230207D01*
X207841Y230233D01*
X207834Y230261D01*
X207776Y230359D01*
X207724Y230459D01*
X207703Y230481D01*
X207688Y230506D01*
X207606Y230583D01*
X207528Y230665D01*
X207503Y230680D01*
X207481Y230700D01*
X207380Y230752D01*
X207283Y230809D01*
X207254Y230816D01*
X207228Y230830D01*
X207151Y230843D01*
X207007Y230879D01*
X206945Y230877D01*
X206897Y230885D01*
X199503Y230885D01*
X199474Y230881D01*
X199445Y230884D01*
X199334Y230861D01*
X199222Y230845D01*
X199195Y230833D01*
X199166Y230828D01*
X199065Y230775D01*
X198962Y230729D01*
X198940Y230710D01*
X198914Y230697D01*
X198832Y230619D01*
X198745Y230546D01*
X198729Y230521D01*
X198708Y230501D01*
X198650Y230403D01*
X198588Y230309D01*
X198579Y230281D01*
X198564Y230256D01*
X198536Y230146D01*
X198502Y230038D01*
X198501Y230008D01*
X198494Y229980D01*
X198497Y229867D01*
X198495Y229754D01*
X198502Y229725D01*
X198503Y229696D01*
X198538Y229588D01*
X198566Y229479D01*
X198581Y229453D01*
X198590Y229425D01*
X198636Y229361D01*
X198712Y229234D01*
X198757Y229191D01*
X198785Y229152D01*
X199490Y228447D01*
X201105Y224549D01*
X201105Y207251D01*
X199490Y203353D01*
X196507Y200370D01*
X192609Y198755D01*
X188391Y198755D01*
X184493Y200370D01*
X181510Y203353D01*
X179895Y207251D01*
X179895Y224549D01*
X181510Y228447D01*
X182215Y229152D01*
X182232Y229176D01*
X182255Y229195D01*
X182318Y229289D01*
X182386Y229379D01*
X182396Y229407D01*
X182412Y229431D01*
X182447Y229539D01*
X182487Y229645D01*
X182489Y229674D01*
X182498Y229702D01*
X182501Y229816D01*
X182510Y229928D01*
X182505Y229957D01*
X182505Y229986D01*
X182477Y230096D01*
X182455Y230207D01*
X182441Y230233D01*
X182434Y230261D01*
X182376Y230359D01*
X182324Y230459D01*
X182303Y230481D01*
X182288Y230506D01*
X182206Y230583D01*
X182128Y230665D01*
X182103Y230680D01*
X182081Y230700D01*
X181980Y230752D01*
X181883Y230809D01*
X181854Y230816D01*
X181828Y230830D01*
X181751Y230843D01*
X181607Y230879D01*
X181545Y230877D01*
X181497Y230885D01*
X174103Y230885D01*
X174074Y230881D01*
X174045Y230884D01*
X173934Y230861D01*
X173822Y230845D01*
X173795Y230833D01*
X173766Y230828D01*
X173665Y230775D01*
X173562Y230729D01*
X173540Y230710D01*
X173514Y230697D01*
X173432Y230619D01*
X173345Y230546D01*
X173329Y230521D01*
X173308Y230501D01*
X173250Y230403D01*
X173188Y230309D01*
X173179Y230281D01*
X173164Y230256D01*
X173136Y230146D01*
X173102Y230038D01*
X173101Y230008D01*
X173094Y229980D01*
X173097Y229867D01*
X173095Y229754D01*
X173102Y229725D01*
X173103Y229696D01*
X173138Y229588D01*
X173166Y229479D01*
X173181Y229453D01*
X173190Y229425D01*
X173236Y229361D01*
X173312Y229234D01*
X173357Y229191D01*
X173385Y229152D01*
X174090Y228447D01*
X175705Y224549D01*
X175705Y207251D01*
X174090Y203353D01*
X171107Y200370D01*
X167209Y198755D01*
X162991Y198755D01*
X159093Y200370D01*
X156110Y203353D01*
X154495Y207251D01*
X154495Y224549D01*
X156110Y228447D01*
X156815Y229152D01*
X156832Y229176D01*
X156855Y229195D01*
X156918Y229289D01*
X156986Y229379D01*
X156996Y229407D01*
X157012Y229431D01*
X157047Y229539D01*
X157087Y229645D01*
X157089Y229674D01*
X157098Y229702D01*
X157101Y229816D01*
X157110Y229928D01*
X157105Y229957D01*
X157105Y229986D01*
X157077Y230096D01*
X157055Y230207D01*
X157041Y230233D01*
X157034Y230261D01*
X156976Y230359D01*
X156924Y230459D01*
X156903Y230481D01*
X156888Y230506D01*
X156806Y230583D01*
X156728Y230665D01*
X156703Y230680D01*
X156681Y230700D01*
X156580Y230752D01*
X156483Y230809D01*
X156454Y230816D01*
X156428Y230830D01*
X156351Y230843D01*
X156207Y230879D01*
X156145Y230877D01*
X156097Y230885D01*
X148703Y230885D01*
X148674Y230881D01*
X148645Y230884D01*
X148534Y230861D01*
X148422Y230845D01*
X148395Y230833D01*
X148366Y230828D01*
X148265Y230775D01*
X148162Y230729D01*
X148140Y230710D01*
X148114Y230697D01*
X148032Y230619D01*
X147945Y230546D01*
X147929Y230521D01*
X147908Y230501D01*
X147850Y230403D01*
X147788Y230309D01*
X147779Y230281D01*
X147764Y230256D01*
X147736Y230146D01*
X147702Y230038D01*
X147701Y230008D01*
X147694Y229980D01*
X147697Y229867D01*
X147695Y229754D01*
X147702Y229725D01*
X147703Y229696D01*
X147738Y229588D01*
X147766Y229479D01*
X147781Y229453D01*
X147790Y229425D01*
X147836Y229361D01*
X147912Y229234D01*
X147957Y229191D01*
X147985Y229152D01*
X148690Y228447D01*
X150305Y224549D01*
X150305Y207251D01*
X148690Y203353D01*
X145707Y200370D01*
X141809Y198755D01*
X137591Y198755D01*
X133693Y200370D01*
X130710Y203353D01*
X129095Y207251D01*
X129095Y224549D01*
X130710Y228447D01*
X131415Y229152D01*
X131432Y229176D01*
X131455Y229195D01*
X131518Y229289D01*
X131586Y229379D01*
X131596Y229407D01*
X131612Y229431D01*
X131647Y229539D01*
X131687Y229645D01*
X131689Y229674D01*
X131698Y229702D01*
X131701Y229816D01*
X131710Y229928D01*
X131705Y229957D01*
X131705Y229986D01*
X131677Y230096D01*
X131655Y230207D01*
X131641Y230233D01*
X131634Y230261D01*
X131576Y230359D01*
X131524Y230459D01*
X131503Y230481D01*
X131488Y230506D01*
X131406Y230583D01*
X131328Y230665D01*
X131303Y230680D01*
X131281Y230700D01*
X131180Y230752D01*
X131083Y230809D01*
X131054Y230816D01*
X131028Y230830D01*
X130951Y230843D01*
X130807Y230879D01*
X130745Y230877D01*
X130697Y230885D01*
X123303Y230885D01*
X123274Y230881D01*
X123245Y230884D01*
X123134Y230861D01*
X123022Y230845D01*
X122995Y230833D01*
X122966Y230828D01*
X122865Y230775D01*
X122762Y230729D01*
X122740Y230710D01*
X122714Y230697D01*
X122632Y230619D01*
X122545Y230546D01*
X122529Y230521D01*
X122508Y230501D01*
X122450Y230403D01*
X122388Y230309D01*
X122379Y230281D01*
X122364Y230256D01*
X122336Y230146D01*
X122302Y230038D01*
X122301Y230008D01*
X122294Y229980D01*
X122297Y229867D01*
X122295Y229754D01*
X122302Y229725D01*
X122303Y229696D01*
X122338Y229588D01*
X122366Y229479D01*
X122381Y229453D01*
X122390Y229425D01*
X122436Y229361D01*
X122512Y229234D01*
X122557Y229191D01*
X122585Y229152D01*
X123290Y228447D01*
X124905Y224549D01*
X124905Y207251D01*
X123290Y203353D01*
X120307Y200370D01*
X116409Y198755D01*
X112191Y198755D01*
X108293Y200370D01*
X105310Y203353D01*
X103695Y207251D01*
X103695Y224549D01*
X105310Y228447D01*
X106015Y229152D01*
X106032Y229176D01*
X106055Y229195D01*
X106118Y229289D01*
X106186Y229379D01*
X106196Y229407D01*
X106212Y229431D01*
X106247Y229539D01*
X106287Y229645D01*
X106289Y229674D01*
X106298Y229702D01*
X106301Y229816D01*
X106310Y229928D01*
X106305Y229957D01*
X106305Y229986D01*
X106277Y230096D01*
X106255Y230207D01*
X106241Y230233D01*
X106234Y230261D01*
X106176Y230359D01*
X106124Y230459D01*
X106103Y230481D01*
X106088Y230506D01*
X106006Y230583D01*
X105928Y230665D01*
X105903Y230680D01*
X105881Y230700D01*
X105780Y230752D01*
X105683Y230809D01*
X105654Y230816D01*
X105628Y230830D01*
X105551Y230843D01*
X105407Y230879D01*
X105345Y230877D01*
X105297Y230885D01*
X97903Y230885D01*
X97874Y230881D01*
X97845Y230884D01*
X97734Y230861D01*
X97622Y230845D01*
X97595Y230833D01*
X97566Y230828D01*
X97465Y230775D01*
X97362Y230729D01*
X97340Y230710D01*
X97314Y230697D01*
X97232Y230619D01*
X97145Y230546D01*
X97129Y230521D01*
X97108Y230501D01*
X97050Y230403D01*
X96988Y230309D01*
X96979Y230281D01*
X96964Y230256D01*
X96936Y230146D01*
X96902Y230038D01*
X96901Y230008D01*
X96894Y229980D01*
X96897Y229867D01*
X96895Y229754D01*
X96902Y229725D01*
X96903Y229696D01*
X96938Y229588D01*
X96966Y229479D01*
X96981Y229453D01*
X96990Y229425D01*
X97036Y229361D01*
X97112Y229234D01*
X97157Y229191D01*
X97185Y229152D01*
X97890Y228447D01*
X99505Y224549D01*
X99505Y207251D01*
X97890Y203353D01*
X94907Y200370D01*
X91009Y198755D01*
X86791Y198755D01*
X82893Y200370D01*
X79910Y203353D01*
X78295Y207251D01*
X78295Y224549D01*
X79910Y228447D01*
X80615Y229152D01*
X80632Y229176D01*
X80655Y229195D01*
X80718Y229289D01*
X80786Y229379D01*
X80796Y229407D01*
X80812Y229431D01*
X80847Y229539D01*
X80887Y229645D01*
X80889Y229674D01*
X80898Y229702D01*
X80901Y229816D01*
X80910Y229928D01*
X80905Y229957D01*
X80905Y229986D01*
X80877Y230096D01*
X80855Y230207D01*
X80841Y230233D01*
X80834Y230261D01*
X80776Y230359D01*
X80724Y230459D01*
X80703Y230481D01*
X80688Y230506D01*
X80606Y230583D01*
X80528Y230665D01*
X80503Y230680D01*
X80481Y230700D01*
X80380Y230752D01*
X80283Y230809D01*
X80254Y230816D01*
X80228Y230830D01*
X80151Y230843D01*
X80007Y230879D01*
X79945Y230877D01*
X79897Y230885D01*
X72503Y230885D01*
X72474Y230881D01*
X72445Y230884D01*
X72334Y230861D01*
X72222Y230845D01*
X72195Y230833D01*
X72166Y230828D01*
X72065Y230775D01*
X71962Y230729D01*
X71940Y230710D01*
X71914Y230697D01*
X71832Y230619D01*
X71745Y230546D01*
X71729Y230521D01*
X71708Y230501D01*
X71650Y230403D01*
X71588Y230309D01*
X71579Y230281D01*
X71564Y230256D01*
X71536Y230146D01*
X71502Y230038D01*
X71501Y230008D01*
X71494Y229980D01*
X71497Y229867D01*
X71495Y229754D01*
X71502Y229725D01*
X71503Y229696D01*
X71538Y229588D01*
X71566Y229479D01*
X71581Y229453D01*
X71590Y229425D01*
X71636Y229361D01*
X71712Y229234D01*
X71757Y229191D01*
X71785Y229152D01*
X72490Y228447D01*
X74105Y224549D01*
X74105Y207251D01*
X72490Y203353D01*
X69507Y200370D01*
X65609Y198755D01*
X61391Y198755D01*
X57493Y200370D01*
X54510Y203353D01*
X52895Y207251D01*
X52895Y224549D01*
X54510Y228447D01*
X57349Y231286D01*
X57384Y231333D01*
X57427Y231373D01*
X57469Y231446D01*
X57520Y231514D01*
X57541Y231568D01*
X57570Y231619D01*
X57591Y231700D01*
X57621Y231779D01*
X57626Y231838D01*
X57640Y231894D01*
X57638Y231979D01*
X57645Y232063D01*
X57633Y232120D01*
X57631Y232178D01*
X57605Y232259D01*
X57589Y232341D01*
X57562Y232393D01*
X57544Y232449D01*
X57504Y232505D01*
X57458Y232594D01*
X57389Y232666D01*
X57349Y232722D01*
X54671Y235401D01*
X53085Y239228D01*
X53085Y358990D01*
X53081Y359020D01*
X53083Y359051D01*
X53066Y359128D01*
X53045Y359271D01*
X53019Y359330D01*
X53008Y359378D01*
X52895Y359651D01*
X52895Y376949D01*
X54510Y380847D01*
X57493Y383830D01*
X61391Y385445D01*
X65609Y385445D01*
X69507Y383830D01*
X72490Y380847D01*
X74105Y376949D01*
X74105Y359651D01*
X73992Y359378D01*
X73984Y359349D01*
X73970Y359321D01*
X73957Y359244D01*
X73921Y359103D01*
X73923Y359039D01*
X73915Y358990D01*
X73915Y252730D01*
X73923Y252672D01*
X73921Y252614D01*
X73943Y252532D01*
X73955Y252448D01*
X73978Y252395D01*
X73993Y252339D01*
X74036Y252266D01*
X74071Y252189D01*
X74109Y252144D01*
X74138Y252094D01*
X74200Y252036D01*
X74254Y251972D01*
X74303Y251940D01*
X74346Y251900D01*
X74421Y251861D01*
X74491Y251814D01*
X74547Y251797D01*
X74599Y251770D01*
X74667Y251759D01*
X74762Y251729D01*
X74862Y251726D01*
X74930Y251715D01*
X423256Y251715D01*
X423285Y251719D01*
X423314Y251716D01*
X423425Y251739D01*
X423537Y251755D01*
X423564Y251767D01*
X423593Y251772D01*
X423693Y251824D01*
X423796Y251871D01*
X423819Y251890D01*
X423845Y251903D01*
X423927Y251981D01*
X424013Y252054D01*
X424030Y252079D01*
X424051Y252099D01*
X424108Y252197D01*
X424171Y252291D01*
X424180Y252319D01*
X424195Y252344D01*
X424223Y252454D01*
X424257Y252562D01*
X424258Y252592D01*
X424265Y252620D01*
X424261Y252733D01*
X424264Y252846D01*
X424257Y252875D01*
X424256Y252904D01*
X424221Y253012D01*
X424192Y253121D01*
X424177Y253147D01*
X424168Y253175D01*
X424123Y253238D01*
X424047Y253366D01*
X424001Y253409D01*
X423973Y253448D01*
X389683Y287738D01*
X389614Y287790D01*
X389550Y287850D01*
X389500Y287876D01*
X389456Y287909D01*
X389375Y287940D01*
X389297Y287980D01*
X389249Y287988D01*
X389191Y288010D01*
X389043Y288022D01*
X388966Y288035D01*
X277328Y288035D01*
X273500Y289621D01*
X210819Y352303D01*
X210794Y352321D01*
X210774Y352345D01*
X210707Y352387D01*
X210592Y352474D01*
X210531Y352496D01*
X210489Y352523D01*
X209893Y352770D01*
X206910Y355753D01*
X205295Y359651D01*
X205295Y376949D01*
X205408Y377222D01*
X205416Y377251D01*
X205430Y377279D01*
X205443Y377356D01*
X205479Y377497D01*
X205477Y377561D01*
X205485Y377610D01*
X205485Y388606D01*
X205473Y388693D01*
X205470Y388780D01*
X205453Y388833D01*
X205445Y388888D01*
X205410Y388968D01*
X205383Y389051D01*
X205355Y389090D01*
X205329Y389147D01*
X205233Y389260D01*
X205231Y389263D01*
X205231Y398119D01*
X211481Y404369D01*
X220319Y404369D01*
X226569Y398119D01*
X226569Y389267D01*
X226560Y389254D01*
X226500Y389191D01*
X226474Y389141D01*
X226441Y389097D01*
X226410Y389015D01*
X226370Y388937D01*
X226362Y388890D01*
X226340Y388831D01*
X226328Y388684D01*
X226315Y388606D01*
X226315Y377610D01*
X226319Y377580D01*
X226317Y377549D01*
X226334Y377472D01*
X226355Y377329D01*
X226381Y377270D01*
X226392Y377222D01*
X226505Y376949D01*
X226505Y366494D01*
X226517Y366408D01*
X226520Y366320D01*
X226537Y366268D01*
X226545Y366213D01*
X226580Y366133D01*
X226607Y366050D01*
X226635Y366011D01*
X226661Y365954D01*
X226757Y365840D01*
X226802Y365777D01*
X228962Y363617D01*
X228986Y363599D01*
X229005Y363577D01*
X229099Y363514D01*
X229189Y363446D01*
X229217Y363435D01*
X229241Y363419D01*
X229349Y363385D01*
X229455Y363344D01*
X229484Y363342D01*
X229512Y363333D01*
X229626Y363330D01*
X229738Y363321D01*
X229767Y363327D01*
X229796Y363326D01*
X229906Y363354D01*
X230017Y363377D01*
X230043Y363390D01*
X230071Y363398D01*
X230169Y363456D01*
X230269Y363508D01*
X230291Y363528D01*
X230316Y363543D01*
X230393Y363625D01*
X230475Y363704D01*
X230490Y363729D01*
X230510Y363750D01*
X230562Y363851D01*
X230619Y363949D01*
X230626Y363977D01*
X230640Y364003D01*
X230653Y364081D01*
X230689Y364224D01*
X230687Y364287D01*
X230695Y364334D01*
X230695Y376949D01*
X230808Y377222D01*
X230816Y377251D01*
X230830Y377279D01*
X230843Y377356D01*
X230879Y377497D01*
X230877Y377561D01*
X230885Y377610D01*
X230885Y388606D01*
X230873Y388693D01*
X230870Y388780D01*
X230853Y388833D01*
X230845Y388888D01*
X230810Y388968D01*
X230783Y389051D01*
X230755Y389090D01*
X230729Y389147D01*
X230633Y389261D01*
X230631Y389263D01*
X230631Y398119D01*
X236891Y404379D01*
X236906Y404381D01*
X236994Y404384D01*
X237046Y404401D01*
X237101Y404409D01*
X237181Y404444D01*
X237264Y404471D01*
X237303Y404499D01*
X237360Y404525D01*
X237474Y404621D01*
X237537Y404666D01*
X254450Y421579D01*
X258278Y423165D01*
X300522Y423165D01*
X304349Y421579D01*
X305352Y420577D01*
X305376Y420559D01*
X305395Y420537D01*
X305489Y420474D01*
X305579Y420406D01*
X305607Y420395D01*
X305631Y420379D01*
X305739Y420345D01*
X305845Y420304D01*
X305874Y420302D01*
X305902Y420293D01*
X306016Y420290D01*
X306128Y420281D01*
X306157Y420287D01*
X306186Y420286D01*
X306296Y420314D01*
X306407Y420337D01*
X306433Y420350D01*
X306461Y420358D01*
X306559Y420415D01*
X306659Y420468D01*
X306681Y420488D01*
X306706Y420503D01*
X306783Y420586D01*
X306865Y420664D01*
X306880Y420689D01*
X306900Y420710D01*
X306952Y420811D01*
X307009Y420909D01*
X307016Y420937D01*
X307030Y420963D01*
X307043Y421041D01*
X307061Y421114D01*
X308671Y425000D01*
X311600Y427929D01*
X315428Y429515D01*
X681066Y429515D01*
X681152Y429527D01*
X681240Y429530D01*
X681292Y429547D01*
X681347Y429555D01*
X681427Y429590D01*
X681510Y429617D01*
X681549Y429645D01*
X681606Y429671D01*
X681720Y429767D01*
X681783Y429812D01*
X690953Y438982D01*
X690954Y438983D01*
X690955Y438984D01*
X691040Y439098D01*
X691124Y439209D01*
X691125Y439210D01*
X691126Y439212D01*
X691175Y439344D01*
X691225Y439475D01*
X691225Y439476D01*
X691226Y439478D01*
X691237Y439619D01*
X691249Y439758D01*
X691249Y439759D01*
X691249Y439761D01*
X691245Y439777D01*
X691193Y440037D01*
X691179Y440064D01*
X691173Y440088D01*
X690371Y442024D01*
X690371Y446976D01*
X692266Y451551D01*
X695767Y455052D01*
X698689Y456262D01*
X698714Y456277D01*
X698742Y456286D01*
X698837Y456349D01*
X698934Y456407D01*
X698954Y456428D01*
X698979Y456444D01*
X699052Y456531D01*
X699129Y456613D01*
X699143Y456639D01*
X699162Y456662D01*
X699208Y456765D01*
X699259Y456866D01*
X699265Y456895D01*
X699277Y456922D01*
X699293Y457034D01*
X699314Y457145D01*
X699312Y457174D01*
X699316Y457203D01*
X699300Y457315D01*
X699290Y457428D01*
X699279Y457455D01*
X699275Y457484D01*
X699229Y457588D01*
X699188Y457693D01*
X699170Y457717D01*
X699158Y457744D01*
X699085Y457830D01*
X699016Y457920D01*
X698993Y457938D01*
X698974Y457960D01*
X698907Y458002D01*
X698789Y458090D01*
X698730Y458112D01*
X698689Y458138D01*
X695767Y459348D01*
X692266Y462849D01*
X690371Y467424D01*
X690371Y472376D01*
X692266Y476951D01*
X695767Y480452D01*
X700342Y482347D01*
X722058Y482347D01*
X726633Y480452D01*
X730134Y476951D01*
X731111Y474591D01*
X731112Y474590D01*
X731112Y474589D01*
X731184Y474468D01*
X731255Y474347D01*
X731257Y474346D01*
X731257Y474344D01*
X731361Y474247D01*
X731462Y474151D01*
X731464Y474151D01*
X731465Y474150D01*
X731590Y474085D01*
X731715Y474021D01*
X731716Y474021D01*
X731718Y474020D01*
X731733Y474018D01*
X731994Y473966D01*
X732024Y473969D01*
X732049Y473965D01*
X789472Y473965D01*
X793300Y472379D01*
X798529Y467150D01*
X798598Y467098D01*
X798662Y467038D01*
X798712Y467012D01*
X798756Y466979D01*
X798837Y466948D01*
X798915Y466908D01*
X798963Y466900D01*
X799021Y466878D01*
X799169Y466866D01*
X799246Y466853D01*
X802132Y466853D01*
X802161Y466857D01*
X802190Y466854D01*
X802301Y466877D01*
X802414Y466893D01*
X802440Y466905D01*
X802469Y466910D01*
X802570Y466962D01*
X802673Y467009D01*
X802695Y467028D01*
X802721Y467041D01*
X802803Y467119D01*
X802890Y467192D01*
X802906Y467217D01*
X802927Y467237D01*
X802985Y467335D01*
X803048Y467429D01*
X803056Y467457D01*
X803071Y467482D01*
X803099Y467592D01*
X803133Y467700D01*
X803134Y467730D01*
X803141Y467758D01*
X803138Y467871D01*
X803141Y467984D01*
X803133Y468013D01*
X803132Y468042D01*
X803097Y468150D01*
X803069Y468259D01*
X803054Y468285D01*
X803045Y468313D01*
X802999Y468376D01*
X802924Y468504D01*
X802915Y468512D01*
X802914Y468514D01*
X802877Y468548D01*
X802850Y468586D01*
X730718Y540718D01*
X730648Y540770D01*
X730584Y540830D01*
X730535Y540856D01*
X730491Y540889D01*
X730409Y540920D01*
X730331Y540960D01*
X730284Y540968D01*
X730225Y540990D01*
X730077Y541002D01*
X730000Y541015D01*
X120000Y541015D01*
X119913Y541003D01*
X119826Y541000D01*
X119773Y540983D01*
X119719Y540975D01*
X119639Y540940D01*
X119555Y540913D01*
X119516Y540885D01*
X119459Y540859D01*
X119346Y540763D01*
X119282Y540718D01*
X9282Y430718D01*
X9230Y430648D01*
X9170Y430584D01*
X9144Y430535D01*
X9111Y430491D01*
X9080Y430409D01*
X9040Y430331D01*
X9032Y430284D01*
X9010Y430225D01*
X8998Y430077D01*
X8985Y430000D01*
X8985Y235714D01*
X8989Y235685D01*
X8986Y235656D01*
X9009Y235545D01*
X9025Y235433D01*
X9037Y235406D01*
X9042Y235377D01*
X9095Y235277D01*
X9141Y235174D01*
X9160Y235151D01*
X9173Y235125D01*
X9251Y235043D01*
X9325Y234957D01*
X9349Y234940D01*
X9369Y234919D01*
X9467Y234862D01*
X9561Y234799D01*
X9589Y234790D01*
X9614Y234775D01*
X9724Y234747D01*
X9832Y234713D01*
X9862Y234712D01*
X9890Y234705D01*
X10003Y234709D01*
X10116Y234706D01*
X10145Y234713D01*
X10174Y234714D01*
X10282Y234749D01*
X10391Y234778D01*
X10417Y234793D01*
X10445Y234802D01*
X10508Y234847D01*
X10636Y234923D01*
X10679Y234969D01*
X10718Y234997D01*
X13293Y237572D01*
X25850Y250129D01*
X27059Y250630D01*
X27060Y250630D01*
X27061Y250631D01*
X27180Y250701D01*
X27303Y250774D01*
X27304Y250775D01*
X27306Y250776D01*
X27403Y250880D01*
X27499Y250981D01*
X27499Y250982D01*
X27500Y250983D01*
X27564Y251107D01*
X27629Y251233D01*
X27629Y251235D01*
X27630Y251236D01*
X27632Y251251D01*
X27684Y251512D01*
X27681Y251543D01*
X27685Y251568D01*
X27685Y358990D01*
X27681Y359020D01*
X27683Y359051D01*
X27666Y359128D01*
X27645Y359271D01*
X27619Y359330D01*
X27608Y359378D01*
X27495Y359651D01*
X27495Y376949D01*
X29110Y380847D01*
X32093Y383830D01*
X35991Y385445D01*
X40209Y385445D01*
X44107Y383830D01*
X47090Y380847D01*
X48705Y376949D01*
X48705Y359651D01*
X48592Y359378D01*
X48584Y359349D01*
X48570Y359321D01*
X48557Y359244D01*
X48521Y359103D01*
X48523Y359039D01*
X48515Y358990D01*
X48515Y239228D01*
X46929Y235401D01*
X44251Y232722D01*
X44216Y232676D01*
X44173Y232635D01*
X44131Y232562D01*
X44080Y232495D01*
X44059Y232440D01*
X44030Y232390D01*
X44009Y232308D01*
X43979Y232229D01*
X43974Y232171D01*
X43960Y232114D01*
X43962Y232030D01*
X43955Y231946D01*
X43967Y231889D01*
X43969Y231830D01*
X43995Y231750D01*
X44011Y231667D01*
X44038Y231615D01*
X44056Y231560D01*
X44096Y231504D01*
X44142Y231415D01*
X44211Y231343D01*
X44251Y231286D01*
X47090Y228447D01*
X48705Y224549D01*
X48705Y207251D01*
X47090Y203353D01*
X44107Y200370D01*
X40209Y198755D01*
X35991Y198755D01*
X32093Y200370D01*
X31198Y201265D01*
X31174Y201282D01*
X31155Y201305D01*
X31061Y201368D01*
X30971Y201436D01*
X30943Y201446D01*
X30919Y201462D01*
X30811Y201497D01*
X30705Y201537D01*
X30676Y201539D01*
X30648Y201548D01*
X30534Y201551D01*
X30422Y201560D01*
X30393Y201555D01*
X30364Y201555D01*
X30254Y201527D01*
X30143Y201505D01*
X30117Y201491D01*
X30089Y201484D01*
X29991Y201426D01*
X29891Y201374D01*
X29869Y201353D01*
X29844Y201338D01*
X29767Y201256D01*
X29685Y201178D01*
X29670Y201153D01*
X29650Y201131D01*
X29598Y201030D01*
X29541Y200933D01*
X29534Y200904D01*
X29520Y200878D01*
X29507Y200801D01*
X29471Y200657D01*
X29473Y200595D01*
X29465Y200547D01*
X29465Y195580D01*
X29473Y195522D01*
X29471Y195464D01*
X29493Y195382D01*
X29505Y195298D01*
X29528Y195245D01*
X29543Y195189D01*
X29586Y195116D01*
X29621Y195039D01*
X29659Y194994D01*
X29688Y194944D01*
X29750Y194886D01*
X29804Y194822D01*
X29853Y194790D01*
X29896Y194750D01*
X29971Y194711D01*
X30041Y194664D01*
X30097Y194647D01*
X30149Y194620D01*
X30217Y194609D01*
X30312Y194579D01*
X30412Y194576D01*
X30480Y194565D01*
X262422Y194565D01*
X266250Y192979D01*
X307279Y151950D01*
X308865Y148122D01*
X308865Y143978D01*
X307279Y140151D01*
X306277Y139148D01*
X306259Y139124D01*
X306237Y139105D01*
X306174Y139011D01*
X306106Y138921D01*
X306095Y138893D01*
X306079Y138869D01*
X306045Y138761D01*
X306004Y138655D01*
X306002Y138626D01*
X305993Y138598D01*
X305990Y138484D01*
X305981Y138372D01*
X305987Y138343D01*
X305986Y138314D01*
X306014Y138204D01*
X306037Y138093D01*
X306050Y138067D01*
X306058Y138039D01*
X306115Y137941D01*
X306168Y137841D01*
X306188Y137819D01*
X306203Y137794D01*
X306286Y137717D01*
X306364Y137635D01*
X306389Y137620D01*
X306410Y137600D01*
X306511Y137548D01*
X306609Y137491D01*
X306637Y137484D01*
X306663Y137470D01*
X306741Y137457D01*
X306884Y137421D01*
X306947Y137423D01*
X306994Y137415D01*
X354585Y137415D01*
X354672Y137427D01*
G37*
G36*
X691517Y80281D02*
X691517Y80281D01*
X691631Y80291D01*
X691657Y80301D01*
X691685Y80305D01*
X691790Y80352D01*
X691897Y80393D01*
X691919Y80409D01*
X691944Y80421D01*
X692032Y80495D01*
X692123Y80564D01*
X692140Y80587D01*
X692161Y80604D01*
X692225Y80700D01*
X692294Y80792D01*
X692303Y80818D01*
X692319Y80841D01*
X692353Y80951D01*
X692394Y81058D01*
X692396Y81086D01*
X692404Y81112D01*
X692407Y81227D01*
X692417Y81341D01*
X692411Y81366D01*
X692412Y81396D01*
X692345Y81653D01*
X692341Y81669D01*
X690371Y86424D01*
X690371Y91376D01*
X692266Y95951D01*
X695767Y99452D01*
X700342Y101347D01*
X708498Y101347D01*
X708584Y101359D01*
X708672Y101362D01*
X708724Y101379D01*
X708779Y101387D01*
X708859Y101422D01*
X708942Y101449D01*
X708981Y101477D01*
X709038Y101503D01*
X709152Y101599D01*
X709215Y101644D01*
X711651Y104079D01*
X715478Y105665D01*
X738216Y105665D01*
X738302Y105677D01*
X738390Y105680D01*
X738442Y105697D01*
X738497Y105705D01*
X738577Y105740D01*
X738660Y105767D01*
X738699Y105795D01*
X738756Y105821D01*
X738870Y105917D01*
X738933Y105962D01*
X773201Y140229D01*
X773202Y140231D01*
X773203Y140232D01*
X773289Y140347D01*
X773372Y140456D01*
X773372Y140458D01*
X773373Y140459D01*
X773423Y140591D01*
X773473Y140722D01*
X773473Y140724D01*
X773473Y140725D01*
X773485Y140870D01*
X773496Y141005D01*
X773496Y141007D01*
X773496Y141009D01*
X773493Y141024D01*
X773483Y141073D01*
X773483Y141084D01*
X773473Y141122D01*
X773440Y141284D01*
X773426Y141311D01*
X773421Y141336D01*
X771651Y145608D01*
X771651Y151064D01*
X773740Y156106D01*
X777598Y159964D01*
X782640Y162053D01*
X807400Y162053D01*
X812442Y159964D01*
X813352Y159054D01*
X813376Y159037D01*
X813395Y159014D01*
X813489Y158951D01*
X813579Y158883D01*
X813607Y158873D01*
X813631Y158857D01*
X813739Y158822D01*
X813845Y158782D01*
X813874Y158780D01*
X813902Y158771D01*
X814016Y158768D01*
X814128Y158759D01*
X814157Y158764D01*
X814186Y158764D01*
X814296Y158792D01*
X814407Y158814D01*
X814433Y158828D01*
X814461Y158835D01*
X814559Y158893D01*
X814659Y158945D01*
X814681Y158966D01*
X814706Y158981D01*
X814783Y159063D01*
X814865Y159141D01*
X814880Y159167D01*
X814900Y159188D01*
X814952Y159289D01*
X815009Y159387D01*
X815016Y159415D01*
X815030Y159441D01*
X815043Y159518D01*
X815079Y159662D01*
X815077Y159725D01*
X815085Y159772D01*
X815085Y179070D01*
X815077Y179128D01*
X815079Y179186D01*
X815057Y179268D01*
X815045Y179352D01*
X815022Y179405D01*
X815007Y179461D01*
X814964Y179534D01*
X814929Y179611D01*
X814891Y179656D01*
X814862Y179706D01*
X814800Y179764D01*
X814746Y179828D01*
X814697Y179860D01*
X814654Y179900D01*
X814579Y179939D01*
X814509Y179986D01*
X814453Y180003D01*
X814401Y180030D01*
X814333Y180041D01*
X814238Y180071D01*
X814138Y180074D01*
X814070Y180085D01*
X803359Y180085D01*
X803343Y180083D01*
X803328Y180085D01*
X803260Y180071D01*
X803077Y180045D01*
X803035Y180026D01*
X802999Y180019D01*
X802928Y179992D01*
X799862Y180085D01*
X799846Y180083D01*
X799832Y180085D01*
X796765Y180085D01*
X796695Y180114D01*
X796680Y180118D01*
X796666Y180126D01*
X796599Y180139D01*
X796420Y180185D01*
X796373Y180184D01*
X796337Y180191D01*
X796261Y180193D01*
X793465Y181452D01*
X793448Y181457D01*
X793437Y181464D01*
X790604Y182638D01*
X790550Y182691D01*
X790537Y182701D01*
X790528Y182713D01*
X790471Y182751D01*
X790323Y182862D01*
X790279Y182879D01*
X790249Y182899D01*
X785018Y185253D01*
X784987Y185277D01*
X784892Y185317D01*
X784801Y185364D01*
X784766Y185370D01*
X784725Y185387D01*
X784535Y185408D01*
X784470Y185419D01*
X782640Y185419D01*
X777598Y187508D01*
X773740Y191366D01*
X771730Y196217D01*
X771672Y196316D01*
X771619Y196417D01*
X771600Y196437D01*
X771586Y196461D01*
X771503Y196540D01*
X771423Y196623D01*
X771399Y196637D01*
X771379Y196656D01*
X771277Y196709D01*
X771178Y196767D01*
X771151Y196774D01*
X771127Y196787D01*
X771014Y196809D01*
X770903Y196837D01*
X770875Y196836D01*
X770848Y196842D01*
X770733Y196832D01*
X770618Y196828D01*
X770592Y196820D01*
X770564Y196817D01*
X770457Y196776D01*
X770348Y196741D01*
X770328Y196726D01*
X770299Y196715D01*
X770087Y196555D01*
X770075Y196546D01*
X761550Y188021D01*
X757722Y186435D01*
X732049Y186435D01*
X732047Y186435D01*
X732046Y186435D01*
X731906Y186415D01*
X731767Y186395D01*
X731766Y186395D01*
X731764Y186395D01*
X731639Y186338D01*
X731508Y186279D01*
X731507Y186278D01*
X731505Y186277D01*
X731398Y186186D01*
X731291Y186096D01*
X731290Y186094D01*
X731289Y186093D01*
X731281Y186080D01*
X731133Y185859D01*
X731124Y185830D01*
X731111Y185809D01*
X730134Y183449D01*
X726633Y179948D01*
X722058Y178053D01*
X700342Y178053D01*
X695767Y179948D01*
X692266Y183449D01*
X690371Y188024D01*
X690371Y192976D01*
X692266Y197551D01*
X695767Y201052D01*
X698689Y202262D01*
X698714Y202277D01*
X698742Y202286D01*
X698837Y202349D01*
X698934Y202407D01*
X698954Y202428D01*
X698979Y202444D01*
X699052Y202531D01*
X699129Y202613D01*
X699143Y202639D01*
X699162Y202662D01*
X699208Y202765D01*
X699259Y202866D01*
X699265Y202895D01*
X699277Y202922D01*
X699293Y203034D01*
X699314Y203145D01*
X699312Y203174D01*
X699316Y203203D01*
X699300Y203315D01*
X699290Y203428D01*
X699279Y203455D01*
X699275Y203484D01*
X699229Y203588D01*
X699188Y203693D01*
X699170Y203717D01*
X699158Y203744D01*
X699085Y203830D01*
X699016Y203920D01*
X698993Y203938D01*
X698974Y203960D01*
X698907Y204002D01*
X698789Y204090D01*
X698730Y204112D01*
X698689Y204138D01*
X695767Y205348D01*
X692266Y208849D01*
X690371Y213424D01*
X690371Y218376D01*
X692266Y222951D01*
X695767Y226452D01*
X700342Y228347D01*
X722058Y228347D01*
X726633Y226452D01*
X730134Y222951D01*
X732029Y218376D01*
X732029Y213424D01*
X730059Y208669D01*
X730030Y208557D01*
X729996Y208448D01*
X729995Y208420D01*
X729988Y208393D01*
X729991Y208279D01*
X729988Y208164D01*
X729995Y208137D01*
X729996Y208109D01*
X730031Y208000D01*
X730060Y207889D01*
X730074Y207865D01*
X730083Y207838D01*
X730147Y207743D01*
X730205Y207644D01*
X730226Y207625D01*
X730241Y207602D01*
X730329Y207528D01*
X730413Y207450D01*
X730437Y207437D01*
X730459Y207419D01*
X730563Y207373D01*
X730666Y207320D01*
X730690Y207316D01*
X730718Y207304D01*
X730982Y207267D01*
X730997Y207265D01*
X750916Y207265D01*
X751002Y207277D01*
X751090Y207280D01*
X751142Y207297D01*
X751197Y207305D01*
X751277Y207340D01*
X751360Y207367D01*
X751399Y207395D01*
X751456Y207421D01*
X751570Y207517D01*
X751633Y207562D01*
X778428Y234357D01*
X779904Y235833D01*
X779973Y235925D01*
X780047Y236013D01*
X780058Y236038D01*
X780075Y236060D01*
X780116Y236167D01*
X780163Y236272D01*
X780166Y236300D01*
X780176Y236326D01*
X780186Y236440D01*
X780202Y236554D01*
X780198Y236581D01*
X780200Y236609D01*
X780177Y236722D01*
X780161Y236835D01*
X780149Y236861D01*
X780144Y236888D01*
X780091Y236990D01*
X780044Y237094D01*
X780026Y237115D01*
X780013Y237140D01*
X779934Y237224D01*
X779859Y237311D01*
X779838Y237324D01*
X779817Y237346D01*
X779587Y237481D01*
X779575Y237489D01*
X777598Y238308D01*
X773740Y242166D01*
X771651Y247208D01*
X771651Y252664D01*
X773740Y257706D01*
X777598Y261564D01*
X782640Y263653D01*
X807400Y263653D01*
X812442Y261564D01*
X813352Y260654D01*
X813376Y260637D01*
X813395Y260614D01*
X813489Y260551D01*
X813579Y260483D01*
X813607Y260473D01*
X813631Y260457D01*
X813739Y260422D01*
X813845Y260382D01*
X813874Y260380D01*
X813902Y260371D01*
X814016Y260368D01*
X814128Y260359D01*
X814157Y260364D01*
X814186Y260364D01*
X814296Y260392D01*
X814407Y260414D01*
X814433Y260428D01*
X814461Y260435D01*
X814559Y260493D01*
X814659Y260545D01*
X814681Y260566D01*
X814706Y260581D01*
X814783Y260663D01*
X814865Y260741D01*
X814880Y260767D01*
X814900Y260788D01*
X814952Y260889D01*
X815009Y260987D01*
X815016Y261015D01*
X815030Y261041D01*
X815043Y261118D01*
X815079Y261262D01*
X815077Y261325D01*
X815085Y261372D01*
X815085Y289300D01*
X815081Y289329D01*
X815084Y289358D01*
X815061Y289469D01*
X815045Y289581D01*
X815033Y289608D01*
X815028Y289637D01*
X814975Y289738D01*
X814929Y289841D01*
X814910Y289863D01*
X814897Y289889D01*
X814819Y289971D01*
X814746Y290058D01*
X814721Y290074D01*
X814701Y290095D01*
X814603Y290153D01*
X814509Y290215D01*
X814481Y290224D01*
X814456Y290239D01*
X814346Y290267D01*
X814238Y290301D01*
X814208Y290302D01*
X814180Y290309D01*
X814067Y290306D01*
X813954Y290308D01*
X813925Y290301D01*
X813896Y290300D01*
X813788Y290265D01*
X813679Y290237D01*
X813653Y290222D01*
X813625Y290213D01*
X813561Y290167D01*
X813434Y290091D01*
X813391Y290046D01*
X813352Y290018D01*
X812442Y289108D01*
X807400Y287019D01*
X782640Y287019D01*
X777598Y289108D01*
X773740Y292966D01*
X771651Y298008D01*
X771651Y303464D01*
X773740Y308506D01*
X777598Y312364D01*
X782640Y314453D01*
X807400Y314453D01*
X812442Y312364D01*
X813352Y311454D01*
X813376Y311437D01*
X813395Y311414D01*
X813489Y311351D01*
X813579Y311283D01*
X813607Y311273D01*
X813631Y311257D01*
X813739Y311222D01*
X813845Y311182D01*
X813874Y311180D01*
X813902Y311171D01*
X814016Y311168D01*
X814128Y311159D01*
X814157Y311164D01*
X814186Y311164D01*
X814296Y311192D01*
X814407Y311214D01*
X814433Y311228D01*
X814461Y311235D01*
X814559Y311293D01*
X814659Y311345D01*
X814681Y311366D01*
X814706Y311381D01*
X814783Y311463D01*
X814865Y311541D01*
X814880Y311567D01*
X814900Y311588D01*
X814952Y311689D01*
X815009Y311787D01*
X815016Y311815D01*
X815030Y311841D01*
X815043Y311918D01*
X815079Y312062D01*
X815077Y312125D01*
X815085Y312172D01*
X815085Y340100D01*
X815081Y340129D01*
X815084Y340158D01*
X815061Y340269D01*
X815045Y340381D01*
X815033Y340408D01*
X815028Y340437D01*
X814975Y340538D01*
X814929Y340641D01*
X814910Y340663D01*
X814897Y340689D01*
X814819Y340771D01*
X814746Y340858D01*
X814721Y340874D01*
X814701Y340895D01*
X814603Y340953D01*
X814509Y341015D01*
X814481Y341024D01*
X814456Y341039D01*
X814346Y341067D01*
X814238Y341101D01*
X814208Y341102D01*
X814180Y341109D01*
X814067Y341106D01*
X813954Y341108D01*
X813925Y341101D01*
X813896Y341100D01*
X813788Y341065D01*
X813679Y341037D01*
X813653Y341022D01*
X813625Y341013D01*
X813561Y340967D01*
X813434Y340891D01*
X813391Y340846D01*
X813352Y340818D01*
X812442Y339908D01*
X807400Y337819D01*
X782640Y337819D01*
X780373Y338758D01*
X780343Y338766D01*
X780316Y338780D01*
X780238Y338793D01*
X780098Y338829D01*
X780034Y338827D01*
X779985Y338835D01*
X732049Y338835D01*
X732047Y338835D01*
X732046Y338835D01*
X731906Y338815D01*
X731767Y338795D01*
X731766Y338795D01*
X731764Y338795D01*
X731639Y338738D01*
X731508Y338679D01*
X731507Y338678D01*
X731505Y338677D01*
X731398Y338586D01*
X731291Y338496D01*
X731290Y338494D01*
X731289Y338493D01*
X731281Y338480D01*
X731133Y338259D01*
X731124Y338230D01*
X731111Y338209D01*
X730134Y335849D01*
X726633Y332348D01*
X723711Y331138D01*
X723686Y331123D01*
X723658Y331114D01*
X723563Y331051D01*
X723466Y330993D01*
X723446Y330972D01*
X723421Y330956D01*
X723348Y330869D01*
X723271Y330787D01*
X723257Y330761D01*
X723238Y330738D01*
X723192Y330635D01*
X723141Y330534D01*
X723135Y330505D01*
X723123Y330478D01*
X723107Y330366D01*
X723086Y330255D01*
X723088Y330226D01*
X723084Y330197D01*
X723100Y330085D01*
X723110Y329972D01*
X723121Y329945D01*
X723125Y329915D01*
X723171Y329812D01*
X723212Y329707D01*
X723230Y329683D01*
X723242Y329656D01*
X723315Y329570D01*
X723384Y329480D01*
X723407Y329462D01*
X723426Y329440D01*
X723493Y329398D01*
X723611Y329310D01*
X723670Y329288D01*
X723711Y329262D01*
X726633Y328052D01*
X730134Y324551D01*
X732029Y319976D01*
X732029Y315024D01*
X730134Y310449D01*
X726633Y306948D01*
X722058Y305053D01*
X700342Y305053D01*
X695623Y307008D01*
X695593Y307016D01*
X695566Y307030D01*
X695488Y307043D01*
X695348Y307079D01*
X695283Y307077D01*
X695235Y307085D01*
X402244Y307085D01*
X402215Y307081D01*
X402186Y307084D01*
X402075Y307061D01*
X401963Y307045D01*
X401936Y307033D01*
X401907Y307028D01*
X401807Y306975D01*
X401704Y306929D01*
X401681Y306910D01*
X401655Y306897D01*
X401573Y306819D01*
X401487Y306746D01*
X401470Y306721D01*
X401449Y306701D01*
X401392Y306603D01*
X401329Y306509D01*
X401320Y306481D01*
X401305Y306456D01*
X401277Y306346D01*
X401243Y306238D01*
X401242Y306208D01*
X401235Y306180D01*
X401239Y306067D01*
X401236Y305954D01*
X401243Y305925D01*
X401244Y305896D01*
X401279Y305788D01*
X401308Y305679D01*
X401323Y305653D01*
X401332Y305625D01*
X401377Y305561D01*
X401453Y305434D01*
X401499Y305391D01*
X401527Y305352D01*
X402672Y304207D01*
X626317Y80562D01*
X626386Y80510D01*
X626450Y80450D01*
X626500Y80424D01*
X626544Y80391D01*
X626625Y80360D01*
X626703Y80320D01*
X626751Y80312D01*
X626809Y80290D01*
X626957Y80278D01*
X627034Y80265D01*
X691403Y80265D01*
X691517Y80281D01*
G37*
G36*
X730087Y8997D02*
X730087Y8997D01*
X730174Y9000D01*
X730227Y9017D01*
X730282Y9025D01*
X730361Y9060D01*
X730445Y9087D01*
X730484Y9115D01*
X730541Y9141D01*
X730654Y9237D01*
X730718Y9282D01*
X801376Y79941D01*
X801394Y79964D01*
X801417Y79984D01*
X801480Y80078D01*
X801547Y80168D01*
X801558Y80196D01*
X801574Y80221D01*
X801608Y80328D01*
X801648Y80433D01*
X801651Y80463D01*
X801660Y80492D01*
X801663Y80604D01*
X801672Y80717D01*
X801666Y80746D01*
X801667Y80776D01*
X801638Y80885D01*
X801616Y80995D01*
X801602Y81022D01*
X801595Y81051D01*
X801537Y81148D01*
X801485Y81248D01*
X801465Y81269D01*
X801449Y81295D01*
X801367Y81372D01*
X801289Y81454D01*
X801264Y81469D01*
X801242Y81489D01*
X801141Y81541D01*
X801044Y81598D01*
X801015Y81605D01*
X800988Y81619D01*
X800878Y81640D01*
X800769Y81668D01*
X800739Y81667D01*
X800709Y81672D01*
X800631Y81663D01*
X800484Y81659D01*
X800424Y81639D01*
X800376Y81634D01*
X798285Y81028D01*
X796483Y80506D01*
X789854Y81242D01*
X785403Y83693D01*
X785322Y83724D01*
X785244Y83764D01*
X785196Y83772D01*
X785137Y83794D01*
X784991Y83806D01*
X784913Y83819D01*
X782640Y83819D01*
X777598Y85908D01*
X773740Y89766D01*
X771651Y94808D01*
X771651Y100264D01*
X773740Y105306D01*
X777598Y109164D01*
X782640Y111253D01*
X784973Y111253D01*
X785004Y111257D01*
X785036Y111255D01*
X785144Y111277D01*
X785255Y111293D01*
X785283Y111305D01*
X785314Y111312D01*
X785383Y111350D01*
X785514Y111409D01*
X785564Y111451D01*
X785607Y111475D01*
X788858Y114076D01*
X788902Y114122D01*
X788942Y114151D01*
X807677Y132886D01*
X807695Y132910D01*
X807717Y132929D01*
X807780Y133023D01*
X807848Y133113D01*
X807859Y133141D01*
X807875Y133165D01*
X807909Y133273D01*
X807949Y133379D01*
X807952Y133408D01*
X807961Y133436D01*
X807964Y133550D01*
X807973Y133662D01*
X807967Y133691D01*
X807968Y133720D01*
X807939Y133830D01*
X807917Y133941D01*
X807904Y133967D01*
X807896Y133995D01*
X807838Y134093D01*
X807786Y134193D01*
X807766Y134215D01*
X807751Y134240D01*
X807668Y134317D01*
X807590Y134399D01*
X807565Y134414D01*
X807544Y134434D01*
X807443Y134486D01*
X807345Y134543D01*
X807317Y134550D01*
X807290Y134564D01*
X807213Y134577D01*
X807069Y134613D01*
X807007Y134611D01*
X806959Y134619D01*
X797468Y134619D01*
X797382Y134607D01*
X797294Y134604D01*
X797242Y134587D01*
X797187Y134579D01*
X797107Y134544D01*
X797024Y134517D01*
X796985Y134489D01*
X796928Y134463D01*
X796814Y134367D01*
X796751Y134322D01*
X748850Y86421D01*
X745022Y84835D01*
X732049Y84835D01*
X732047Y84835D01*
X732046Y84835D01*
X731907Y84815D01*
X731767Y84795D01*
X731766Y84795D01*
X731764Y84795D01*
X731637Y84737D01*
X731508Y84679D01*
X731507Y84678D01*
X731505Y84677D01*
X731398Y84586D01*
X731291Y84496D01*
X731290Y84494D01*
X731289Y84493D01*
X731281Y84480D01*
X731133Y84259D01*
X731124Y84230D01*
X731111Y84209D01*
X730134Y81849D01*
X726633Y78348D01*
X723711Y77138D01*
X723686Y77123D01*
X723658Y77114D01*
X723563Y77051D01*
X723466Y76993D01*
X723446Y76972D01*
X723421Y76956D01*
X723348Y76869D01*
X723271Y76787D01*
X723257Y76761D01*
X723238Y76738D01*
X723192Y76635D01*
X723141Y76534D01*
X723135Y76505D01*
X723123Y76478D01*
X723107Y76366D01*
X723086Y76255D01*
X723088Y76226D01*
X723084Y76197D01*
X723100Y76085D01*
X723110Y75972D01*
X723121Y75945D01*
X723125Y75915D01*
X723171Y75812D01*
X723212Y75707D01*
X723230Y75683D01*
X723242Y75656D01*
X723315Y75570D01*
X723384Y75480D01*
X723407Y75462D01*
X723426Y75440D01*
X723493Y75398D01*
X723611Y75310D01*
X723670Y75288D01*
X723711Y75262D01*
X726633Y74052D01*
X730134Y70551D01*
X732029Y65976D01*
X732029Y61024D01*
X730134Y56449D01*
X726633Y52948D01*
X722058Y51053D01*
X700342Y51053D01*
X695767Y52948D01*
X692266Y56449D01*
X691289Y58809D01*
X691288Y58810D01*
X691288Y58811D01*
X691216Y58932D01*
X691145Y59053D01*
X691143Y59054D01*
X691143Y59056D01*
X691039Y59153D01*
X690938Y59249D01*
X690936Y59249D01*
X690935Y59250D01*
X690810Y59315D01*
X690685Y59379D01*
X690684Y59379D01*
X690682Y59380D01*
X690667Y59382D01*
X690406Y59434D01*
X690376Y59431D01*
X690351Y59435D01*
X620228Y59435D01*
X616400Y61021D01*
X456648Y220773D01*
X456624Y220791D01*
X456605Y220813D01*
X456511Y220876D01*
X456421Y220944D01*
X456393Y220955D01*
X456369Y220971D01*
X456261Y221005D01*
X456155Y221046D01*
X456126Y221048D01*
X456098Y221057D01*
X455984Y221060D01*
X455872Y221069D01*
X455843Y221063D01*
X455814Y221064D01*
X455704Y221036D01*
X455593Y221013D01*
X455567Y221000D01*
X455539Y220992D01*
X455441Y220934D01*
X455341Y220882D01*
X455319Y220862D01*
X455294Y220847D01*
X455217Y220765D01*
X455135Y220686D01*
X455120Y220661D01*
X455100Y220640D01*
X455048Y220539D01*
X454991Y220441D01*
X454984Y220413D01*
X454970Y220387D01*
X454957Y220309D01*
X454921Y220166D01*
X454923Y220103D01*
X454915Y220056D01*
X454915Y42378D01*
X453329Y38550D01*
X450400Y35621D01*
X446572Y34035D01*
X283678Y34035D01*
X279851Y35621D01*
X263290Y52181D01*
X263265Y52200D01*
X263245Y52223D01*
X263179Y52265D01*
X263063Y52352D01*
X263003Y52375D01*
X262961Y52401D01*
X260081Y53594D01*
X256794Y56881D01*
X255015Y61176D01*
X255015Y81064D01*
X256794Y85359D01*
X260081Y88646D01*
X264376Y90425D01*
X269024Y90425D01*
X273319Y88646D01*
X276606Y85359D01*
X278385Y81064D01*
X278385Y66964D01*
X278397Y66878D01*
X278400Y66790D01*
X278417Y66738D01*
X278425Y66683D01*
X278460Y66603D01*
X278487Y66520D01*
X278515Y66481D01*
X278541Y66424D01*
X278637Y66310D01*
X278682Y66247D01*
X278706Y66229D01*
X278724Y66207D01*
X278725Y66207D01*
X278819Y66144D01*
X278909Y66076D01*
X278937Y66065D01*
X278961Y66049D01*
X279069Y66015D01*
X279175Y65974D01*
X279204Y65972D01*
X279232Y65963D01*
X279346Y65960D01*
X279458Y65951D01*
X279487Y65957D01*
X279516Y65956D01*
X279626Y65984D01*
X279737Y66007D01*
X279763Y66020D01*
X279791Y66028D01*
X279889Y66086D01*
X279989Y66138D01*
X280011Y66158D01*
X280036Y66173D01*
X280113Y66255D01*
X280195Y66334D01*
X280210Y66359D01*
X280230Y66380D01*
X280282Y66481D01*
X280339Y66579D01*
X280346Y66607D01*
X280360Y66633D01*
X280373Y66711D01*
X280409Y66854D01*
X280407Y66917D01*
X280415Y66964D01*
X280415Y81064D01*
X282194Y85359D01*
X285481Y88646D01*
X289776Y90425D01*
X294424Y90425D01*
X298719Y88646D01*
X302006Y85359D01*
X303785Y81064D01*
X303785Y61176D01*
X302006Y56881D01*
X301723Y56598D01*
X301705Y56574D01*
X301683Y56555D01*
X301620Y56461D01*
X301552Y56371D01*
X301541Y56343D01*
X301525Y56319D01*
X301491Y56211D01*
X301450Y56105D01*
X301448Y56076D01*
X301439Y56048D01*
X301436Y55935D01*
X301427Y55822D01*
X301433Y55793D01*
X301432Y55764D01*
X301460Y55654D01*
X301483Y55543D01*
X301496Y55517D01*
X301504Y55489D01*
X301562Y55391D01*
X301614Y55291D01*
X301634Y55269D01*
X301649Y55244D01*
X301732Y55167D01*
X301810Y55085D01*
X301835Y55070D01*
X301856Y55050D01*
X301957Y54998D01*
X302055Y54941D01*
X302083Y54934D01*
X302109Y54920D01*
X302187Y54907D01*
X302330Y54871D01*
X302393Y54873D01*
X302440Y54865D01*
X332560Y54865D01*
X332589Y54869D01*
X332618Y54866D01*
X332729Y54889D01*
X332841Y54905D01*
X332868Y54917D01*
X332897Y54922D01*
X332997Y54974D01*
X333100Y55021D01*
X333123Y55040D01*
X333149Y55053D01*
X333231Y55131D01*
X333317Y55204D01*
X333334Y55229D01*
X333355Y55249D01*
X333412Y55347D01*
X333475Y55441D01*
X333484Y55469D01*
X333499Y55494D01*
X333527Y55604D01*
X333561Y55712D01*
X333562Y55741D01*
X333569Y55770D01*
X333565Y55883D01*
X333568Y55996D01*
X333561Y56025D01*
X333560Y56054D01*
X333525Y56162D01*
X333496Y56271D01*
X333481Y56297D01*
X333472Y56325D01*
X333427Y56389D01*
X333351Y56516D01*
X333305Y56559D01*
X333277Y56598D01*
X332994Y56881D01*
X331215Y61176D01*
X331215Y81064D01*
X332994Y85359D01*
X336281Y88646D01*
X340576Y90425D01*
X345224Y90425D01*
X349519Y88646D01*
X352806Y85359D01*
X354585Y81064D01*
X354585Y61176D01*
X352806Y56881D01*
X352523Y56598D01*
X352505Y56574D01*
X352483Y56555D01*
X352420Y56461D01*
X352352Y56371D01*
X352341Y56343D01*
X352325Y56319D01*
X352291Y56211D01*
X352250Y56105D01*
X352248Y56076D01*
X352239Y56048D01*
X352236Y55935D01*
X352227Y55822D01*
X352233Y55793D01*
X352232Y55764D01*
X352260Y55654D01*
X352283Y55543D01*
X352296Y55517D01*
X352304Y55489D01*
X352362Y55391D01*
X352414Y55291D01*
X352434Y55269D01*
X352449Y55244D01*
X352532Y55167D01*
X352610Y55085D01*
X352635Y55070D01*
X352656Y55050D01*
X352757Y54998D01*
X352855Y54941D01*
X352883Y54934D01*
X352909Y54920D01*
X352987Y54907D01*
X353130Y54871D01*
X353193Y54873D01*
X353240Y54865D01*
X433070Y54865D01*
X433128Y54873D01*
X433186Y54871D01*
X433268Y54893D01*
X433352Y54905D01*
X433405Y54928D01*
X433461Y54943D01*
X433534Y54986D01*
X433611Y55021D01*
X433656Y55059D01*
X433706Y55088D01*
X433764Y55150D01*
X433828Y55204D01*
X433860Y55253D01*
X433900Y55296D01*
X433939Y55371D01*
X433986Y55441D01*
X434003Y55497D01*
X434030Y55549D01*
X434041Y55617D01*
X434071Y55712D01*
X434074Y55812D01*
X434085Y55880D01*
X434085Y204725D01*
X434081Y204754D01*
X434084Y204784D01*
X434061Y204895D01*
X434045Y205007D01*
X434033Y205034D01*
X434028Y205062D01*
X433976Y205163D01*
X433929Y205266D01*
X433910Y205289D01*
X433897Y205315D01*
X433819Y205397D01*
X433746Y205483D01*
X433721Y205500D01*
X433701Y205521D01*
X433603Y205578D01*
X433509Y205641D01*
X433481Y205650D01*
X433456Y205665D01*
X433346Y205692D01*
X433238Y205727D01*
X433208Y205727D01*
X433180Y205735D01*
X433067Y205731D01*
X432954Y205734D01*
X432925Y205727D01*
X432896Y205726D01*
X432788Y205691D01*
X432679Y205662D01*
X432653Y205647D01*
X432625Y205638D01*
X432562Y205593D01*
X432434Y205517D01*
X432391Y205471D01*
X432352Y205443D01*
X428596Y201688D01*
X422435Y199135D01*
X411480Y199135D01*
X411422Y199127D01*
X411364Y199129D01*
X411282Y199107D01*
X411198Y199095D01*
X411145Y199072D01*
X411089Y199057D01*
X411016Y199014D01*
X410939Y198979D01*
X410894Y198941D01*
X410844Y198912D01*
X410786Y198850D01*
X410722Y198796D01*
X410690Y198747D01*
X410650Y198704D01*
X410611Y198629D01*
X410564Y198559D01*
X410547Y198503D01*
X410520Y198451D01*
X410509Y198383D01*
X410479Y198288D01*
X410476Y198188D01*
X410465Y198120D01*
X410465Y172465D01*
X410477Y172378D01*
X410480Y172291D01*
X410497Y172238D01*
X410505Y172183D01*
X410540Y172103D01*
X410567Y172020D01*
X410595Y171981D01*
X410621Y171924D01*
X410692Y171839D01*
X410713Y171804D01*
X410737Y171781D01*
X410762Y171747D01*
X414262Y168247D01*
X416815Y162085D01*
X416815Y155415D01*
X414262Y149253D01*
X371447Y106438D01*
X365285Y103885D01*
X66808Y103885D01*
X66722Y103873D01*
X66634Y103870D01*
X66582Y103853D01*
X66527Y103845D01*
X66447Y103810D01*
X66364Y103783D01*
X66324Y103755D01*
X66267Y103729D01*
X66154Y103633D01*
X66090Y103588D01*
X64666Y102164D01*
X60937Y100619D01*
X60911Y100603D01*
X60881Y100594D01*
X60817Y100548D01*
X60692Y100475D01*
X60648Y100428D01*
X60608Y100399D01*
X60297Y100088D01*
X58383Y99295D01*
X58311Y99253D01*
X58254Y99231D01*
X56472Y98175D01*
X55390Y98021D01*
X55212Y97969D01*
X55145Y97954D01*
X54135Y97535D01*
X52064Y97535D01*
X51981Y97524D01*
X51920Y97525D01*
X46314Y96724D01*
X39853Y98379D01*
X37863Y99872D01*
X37849Y99880D01*
X37838Y99890D01*
X37725Y99948D01*
X37613Y100009D01*
X37598Y100013D01*
X37584Y100020D01*
X37517Y100031D01*
X37336Y100072D01*
X37290Y100069D01*
X37253Y100075D01*
X34864Y100075D01*
X29822Y102164D01*
X25964Y106022D01*
X25068Y108184D01*
X25024Y108258D01*
X24989Y108337D01*
X24952Y108380D01*
X24923Y108429D01*
X24861Y108488D01*
X24805Y108554D01*
X24758Y108585D01*
X24717Y108624D01*
X24640Y108664D01*
X24569Y108711D01*
X24515Y108728D01*
X24464Y108754D01*
X24380Y108771D01*
X24298Y108797D01*
X24241Y108798D01*
X24185Y108809D01*
X24100Y108802D01*
X24014Y108804D01*
X23959Y108790D01*
X23902Y108785D01*
X23822Y108754D01*
X23739Y108732D01*
X23690Y108703D01*
X23637Y108683D01*
X23568Y108631D01*
X23494Y108587D01*
X23455Y108546D01*
X23410Y108511D01*
X23358Y108443D01*
X23300Y108380D01*
X23274Y108329D01*
X23240Y108284D01*
X23209Y108203D01*
X23170Y108127D01*
X23162Y108078D01*
X23139Y108018D01*
X23128Y107873D01*
X23115Y107796D01*
X23115Y105870D01*
X23127Y105783D01*
X23130Y105696D01*
X23147Y105643D01*
X23155Y105589D01*
X23190Y105509D01*
X23217Y105425D01*
X23245Y105386D01*
X23271Y105329D01*
X23367Y105216D01*
X23412Y105152D01*
X36104Y92460D01*
X36174Y92408D01*
X36238Y92348D01*
X36287Y92322D01*
X36331Y92289D01*
X36413Y92258D01*
X36491Y92218D01*
X36539Y92210D01*
X36597Y92188D01*
X36745Y92176D01*
X36822Y92163D01*
X45222Y92163D01*
X49050Y90577D01*
X84465Y55162D01*
X84535Y55110D01*
X84599Y55050D01*
X84648Y55024D01*
X84692Y54991D01*
X84774Y54960D01*
X84852Y54920D01*
X84899Y54912D01*
X84958Y54890D01*
X85106Y54878D01*
X85183Y54865D01*
X103960Y54865D01*
X103989Y54869D01*
X104018Y54866D01*
X104129Y54889D01*
X104241Y54905D01*
X104268Y54917D01*
X104297Y54922D01*
X104397Y54974D01*
X104500Y55021D01*
X104523Y55040D01*
X104549Y55053D01*
X104631Y55131D01*
X104717Y55204D01*
X104734Y55229D01*
X104755Y55249D01*
X104812Y55347D01*
X104875Y55441D01*
X104884Y55469D01*
X104899Y55494D01*
X104927Y55604D01*
X104961Y55712D01*
X104962Y55741D01*
X104969Y55770D01*
X104965Y55883D01*
X104968Y55996D01*
X104961Y56025D01*
X104960Y56054D01*
X104925Y56162D01*
X104896Y56271D01*
X104881Y56297D01*
X104872Y56325D01*
X104827Y56389D01*
X104751Y56516D01*
X104705Y56559D01*
X104677Y56598D01*
X104394Y56881D01*
X102615Y61176D01*
X102615Y81064D01*
X104394Y85359D01*
X107681Y88646D01*
X111976Y90425D01*
X116624Y90425D01*
X120919Y88646D01*
X124206Y85359D01*
X125985Y81064D01*
X125985Y61176D01*
X124206Y56881D01*
X123923Y56598D01*
X123905Y56574D01*
X123883Y56555D01*
X123820Y56461D01*
X123752Y56371D01*
X123741Y56343D01*
X123725Y56319D01*
X123691Y56211D01*
X123650Y56105D01*
X123648Y56076D01*
X123639Y56048D01*
X123636Y55935D01*
X123627Y55822D01*
X123633Y55793D01*
X123632Y55764D01*
X123660Y55654D01*
X123683Y55543D01*
X123696Y55517D01*
X123704Y55489D01*
X123762Y55391D01*
X123814Y55291D01*
X123834Y55269D01*
X123849Y55244D01*
X123932Y55167D01*
X124010Y55085D01*
X124035Y55070D01*
X124056Y55050D01*
X124157Y54998D01*
X124255Y54941D01*
X124283Y54934D01*
X124309Y54920D01*
X124387Y54907D01*
X124530Y54871D01*
X124593Y54873D01*
X124640Y54865D01*
X129360Y54865D01*
X129389Y54869D01*
X129418Y54866D01*
X129529Y54889D01*
X129641Y54905D01*
X129668Y54917D01*
X129697Y54922D01*
X129797Y54974D01*
X129900Y55021D01*
X129923Y55040D01*
X129949Y55053D01*
X130031Y55131D01*
X130117Y55204D01*
X130134Y55229D01*
X130155Y55249D01*
X130212Y55347D01*
X130275Y55441D01*
X130284Y55469D01*
X130299Y55494D01*
X130327Y55604D01*
X130361Y55712D01*
X130362Y55741D01*
X130369Y55770D01*
X130365Y55883D01*
X130368Y55996D01*
X130361Y56025D01*
X130360Y56054D01*
X130325Y56162D01*
X130296Y56271D01*
X130281Y56297D01*
X130272Y56325D01*
X130227Y56389D01*
X130151Y56516D01*
X130105Y56559D01*
X130077Y56598D01*
X129794Y56881D01*
X128015Y61176D01*
X128015Y81064D01*
X129794Y85359D01*
X133081Y88646D01*
X137376Y90425D01*
X142024Y90425D01*
X146319Y88646D01*
X149606Y85359D01*
X151385Y81064D01*
X151385Y61176D01*
X149606Y56881D01*
X149323Y56598D01*
X149305Y56574D01*
X149283Y56555D01*
X149220Y56461D01*
X149152Y56371D01*
X149141Y56343D01*
X149125Y56319D01*
X149091Y56211D01*
X149050Y56105D01*
X149048Y56076D01*
X149039Y56048D01*
X149036Y55935D01*
X149027Y55822D01*
X149033Y55793D01*
X149032Y55764D01*
X149060Y55654D01*
X149083Y55543D01*
X149096Y55517D01*
X149104Y55489D01*
X149162Y55391D01*
X149214Y55291D01*
X149234Y55269D01*
X149249Y55244D01*
X149332Y55167D01*
X149410Y55085D01*
X149435Y55070D01*
X149456Y55050D01*
X149557Y54998D01*
X149655Y54941D01*
X149683Y54934D01*
X149709Y54920D01*
X149787Y54907D01*
X149930Y54871D01*
X149993Y54873D01*
X150040Y54865D01*
X154760Y54865D01*
X154789Y54869D01*
X154818Y54866D01*
X154929Y54889D01*
X155041Y54905D01*
X155068Y54917D01*
X155097Y54922D01*
X155197Y54974D01*
X155300Y55021D01*
X155323Y55040D01*
X155349Y55053D01*
X155431Y55131D01*
X155517Y55204D01*
X155534Y55229D01*
X155555Y55249D01*
X155612Y55347D01*
X155675Y55441D01*
X155684Y55469D01*
X155699Y55494D01*
X155727Y55604D01*
X155761Y55712D01*
X155762Y55741D01*
X155769Y55770D01*
X155765Y55883D01*
X155768Y55996D01*
X155761Y56025D01*
X155760Y56054D01*
X155725Y56162D01*
X155696Y56271D01*
X155681Y56297D01*
X155672Y56325D01*
X155627Y56389D01*
X155551Y56516D01*
X155505Y56559D01*
X155477Y56598D01*
X155194Y56881D01*
X153415Y61176D01*
X153415Y81064D01*
X155194Y85359D01*
X158481Y88646D01*
X162776Y90425D01*
X167424Y90425D01*
X171719Y88646D01*
X175006Y85359D01*
X176785Y81064D01*
X176785Y61176D01*
X175006Y56881D01*
X174723Y56598D01*
X174705Y56574D01*
X174683Y56555D01*
X174620Y56461D01*
X174552Y56371D01*
X174541Y56343D01*
X174525Y56319D01*
X174491Y56211D01*
X174450Y56105D01*
X174448Y56076D01*
X174439Y56048D01*
X174436Y55935D01*
X174427Y55822D01*
X174433Y55793D01*
X174432Y55764D01*
X174460Y55654D01*
X174483Y55543D01*
X174496Y55517D01*
X174504Y55489D01*
X174562Y55391D01*
X174614Y55291D01*
X174634Y55269D01*
X174649Y55244D01*
X174732Y55167D01*
X174810Y55085D01*
X174835Y55070D01*
X174856Y55050D01*
X174957Y54998D01*
X175055Y54941D01*
X175083Y54934D01*
X175109Y54920D01*
X175187Y54907D01*
X175330Y54871D01*
X175393Y54873D01*
X175440Y54865D01*
X180160Y54865D01*
X180189Y54869D01*
X180218Y54866D01*
X180329Y54889D01*
X180441Y54905D01*
X180468Y54917D01*
X180497Y54922D01*
X180597Y54974D01*
X180700Y55021D01*
X180723Y55040D01*
X180749Y55053D01*
X180831Y55131D01*
X180917Y55204D01*
X180934Y55229D01*
X180955Y55249D01*
X181012Y55347D01*
X181075Y55441D01*
X181084Y55469D01*
X181099Y55494D01*
X181127Y55604D01*
X181161Y55712D01*
X181162Y55741D01*
X181169Y55770D01*
X181165Y55883D01*
X181168Y55996D01*
X181161Y56025D01*
X181160Y56054D01*
X181125Y56162D01*
X181096Y56271D01*
X181081Y56297D01*
X181072Y56325D01*
X181027Y56389D01*
X180951Y56516D01*
X180905Y56559D01*
X180877Y56598D01*
X180594Y56881D01*
X178815Y61176D01*
X178815Y81064D01*
X180594Y85359D01*
X183881Y88646D01*
X188176Y90425D01*
X192824Y90425D01*
X197119Y88646D01*
X200406Y85359D01*
X202185Y81064D01*
X202185Y61176D01*
X200406Y56881D01*
X200123Y56598D01*
X200105Y56574D01*
X200083Y56555D01*
X200020Y56461D01*
X199952Y56371D01*
X199941Y56343D01*
X199925Y56319D01*
X199891Y56211D01*
X199850Y56105D01*
X199848Y56076D01*
X199839Y56048D01*
X199836Y55935D01*
X199827Y55822D01*
X199833Y55793D01*
X199832Y55764D01*
X199860Y55654D01*
X199883Y55543D01*
X199896Y55517D01*
X199904Y55489D01*
X199962Y55391D01*
X200014Y55291D01*
X200034Y55269D01*
X200049Y55244D01*
X200132Y55167D01*
X200210Y55085D01*
X200235Y55070D01*
X200256Y55050D01*
X200357Y54998D01*
X200455Y54941D01*
X200483Y54934D01*
X200509Y54920D01*
X200587Y54907D01*
X200730Y54871D01*
X200793Y54873D01*
X200840Y54865D01*
X211166Y54865D01*
X211252Y54877D01*
X211340Y54880D01*
X211392Y54897D01*
X211447Y54905D01*
X211527Y54940D01*
X211610Y54967D01*
X211649Y54995D01*
X211706Y55021D01*
X211820Y55117D01*
X211883Y55162D01*
X229318Y72597D01*
X229370Y72666D01*
X229430Y72730D01*
X229456Y72780D01*
X229489Y72824D01*
X229520Y72905D01*
X229560Y72983D01*
X229568Y73031D01*
X229590Y73089D01*
X229602Y73237D01*
X229615Y73314D01*
X229615Y81064D01*
X231394Y85359D01*
X234681Y88646D01*
X238976Y90425D01*
X243624Y90425D01*
X247919Y88646D01*
X251206Y85359D01*
X252985Y81064D01*
X252985Y61176D01*
X251206Y56881D01*
X247919Y53594D01*
X243624Y51815D01*
X238976Y51815D01*
X238908Y51843D01*
X238907Y51844D01*
X238905Y51844D01*
X238770Y51879D01*
X238633Y51914D01*
X238631Y51914D01*
X238630Y51915D01*
X238489Y51910D01*
X238349Y51906D01*
X238347Y51906D01*
X238346Y51905D01*
X238213Y51863D01*
X238078Y51819D01*
X238077Y51819D01*
X238075Y51818D01*
X238063Y51809D01*
X237842Y51661D01*
X237822Y51638D01*
X237802Y51623D01*
X224872Y38693D01*
X221800Y35621D01*
X217972Y34035D01*
X96980Y34035D01*
X96951Y34031D01*
X96922Y34034D01*
X96811Y34011D01*
X96698Y33995D01*
X96672Y33983D01*
X96643Y33978D01*
X96542Y33926D01*
X96439Y33879D01*
X96417Y33860D01*
X96391Y33847D01*
X96309Y33769D01*
X96222Y33696D01*
X96206Y33671D01*
X96185Y33651D01*
X96127Y33553D01*
X96064Y33459D01*
X96056Y33431D01*
X96041Y33406D01*
X96013Y33296D01*
X95979Y33188D01*
X95978Y33158D01*
X95971Y33130D01*
X95974Y33017D01*
X95971Y32904D01*
X95979Y32875D01*
X95980Y32846D01*
X96015Y32738D01*
X96043Y32629D01*
X96058Y32603D01*
X96067Y32575D01*
X96113Y32512D01*
X96188Y32384D01*
X96234Y32341D01*
X96262Y32302D01*
X119282Y9282D01*
X119352Y9230D01*
X119416Y9170D01*
X119465Y9144D01*
X119509Y9111D01*
X119591Y9080D01*
X119669Y9040D01*
X119717Y9032D01*
X119775Y9010D01*
X119923Y8998D01*
X120000Y8985D01*
X730000Y8985D01*
X730087Y8997D01*
G37*
G36*
X519406Y327919D02*
X519406Y327919D01*
X519435Y327916D01*
X519547Y327939D01*
X519659Y327955D01*
X519685Y327967D01*
X519714Y327972D01*
X519815Y328025D01*
X519918Y328071D01*
X519940Y328090D01*
X519967Y328103D01*
X520049Y328181D01*
X520135Y328254D01*
X520151Y328279D01*
X520173Y328299D01*
X520230Y328397D01*
X520293Y328491D01*
X520302Y328519D01*
X520316Y328544D01*
X520344Y328654D01*
X520378Y328762D01*
X520379Y328792D01*
X520386Y328820D01*
X520383Y328933D01*
X520386Y329046D01*
X520378Y329075D01*
X520377Y329104D01*
X520342Y329212D01*
X520314Y329321D01*
X520299Y329347D01*
X520290Y329375D01*
X520244Y329439D01*
X520169Y329566D01*
X520123Y329609D01*
X520095Y329648D01*
X518498Y331245D01*
X515365Y338807D01*
X515365Y346993D01*
X518498Y354555D01*
X524285Y360342D01*
X531847Y363475D01*
X540033Y363475D01*
X547595Y360342D01*
X553382Y354555D01*
X556515Y346993D01*
X556515Y338807D01*
X553382Y331245D01*
X551785Y329648D01*
X551767Y329624D01*
X551745Y329605D01*
X551682Y329511D01*
X551614Y329421D01*
X551604Y329393D01*
X551587Y329369D01*
X551553Y329261D01*
X551513Y329155D01*
X551510Y329126D01*
X551502Y329098D01*
X551499Y328984D01*
X551489Y328872D01*
X551495Y328843D01*
X551494Y328814D01*
X551523Y328704D01*
X551545Y328593D01*
X551559Y328567D01*
X551566Y328539D01*
X551624Y328441D01*
X551676Y328341D01*
X551696Y328319D01*
X551711Y328294D01*
X551794Y328217D01*
X551872Y328135D01*
X551897Y328120D01*
X551919Y328100D01*
X552019Y328048D01*
X552117Y327991D01*
X552146Y327984D01*
X552172Y327970D01*
X552249Y327957D01*
X552393Y327921D01*
X552455Y327923D01*
X552503Y327915D01*
X695235Y327915D01*
X695265Y327919D01*
X695296Y327917D01*
X695373Y327934D01*
X695516Y327955D01*
X695575Y327981D01*
X695623Y327992D01*
X698689Y329262D01*
X698714Y329277D01*
X698742Y329286D01*
X698837Y329349D01*
X698934Y329407D01*
X698954Y329428D01*
X698979Y329444D01*
X699052Y329531D01*
X699129Y329613D01*
X699143Y329639D01*
X699162Y329662D01*
X699208Y329765D01*
X699259Y329866D01*
X699265Y329895D01*
X699277Y329922D01*
X699293Y330034D01*
X699314Y330145D01*
X699312Y330174D01*
X699316Y330203D01*
X699300Y330315D01*
X699290Y330428D01*
X699279Y330455D01*
X699275Y330484D01*
X699229Y330588D01*
X699188Y330693D01*
X699170Y330717D01*
X699158Y330744D01*
X699085Y330830D01*
X699016Y330920D01*
X698993Y330938D01*
X698974Y330960D01*
X698907Y331002D01*
X698789Y331090D01*
X698730Y331112D01*
X698689Y331138D01*
X695767Y332348D01*
X692266Y335849D01*
X690371Y340424D01*
X690371Y345376D01*
X692266Y349951D01*
X695767Y353452D01*
X700342Y355347D01*
X708498Y355347D01*
X708584Y355359D01*
X708672Y355362D01*
X708724Y355379D01*
X708779Y355387D01*
X708859Y355422D01*
X708942Y355449D01*
X708981Y355477D01*
X709038Y355503D01*
X709152Y355599D01*
X709215Y355644D01*
X711650Y358079D01*
X715478Y359665D01*
X773678Y359665D01*
X773764Y359677D01*
X773852Y359680D01*
X773904Y359697D01*
X773959Y359705D01*
X774039Y359740D01*
X774122Y359767D01*
X774162Y359795D01*
X774219Y359821D01*
X774332Y359917D01*
X774396Y359962D01*
X777598Y363164D01*
X782640Y365253D01*
X807400Y365253D01*
X812442Y363164D01*
X813352Y362254D01*
X813376Y362237D01*
X813395Y362214D01*
X813489Y362151D01*
X813579Y362083D01*
X813607Y362073D01*
X813631Y362057D01*
X813739Y362022D01*
X813845Y361982D01*
X813874Y361980D01*
X813902Y361971D01*
X814016Y361968D01*
X814128Y361959D01*
X814157Y361964D01*
X814186Y361964D01*
X814296Y361992D01*
X814407Y362014D01*
X814433Y362028D01*
X814461Y362035D01*
X814559Y362093D01*
X814659Y362145D01*
X814681Y362166D01*
X814706Y362181D01*
X814783Y362263D01*
X814865Y362341D01*
X814880Y362367D01*
X814900Y362388D01*
X814952Y362489D01*
X815009Y362587D01*
X815016Y362615D01*
X815030Y362641D01*
X815043Y362718D01*
X815079Y362862D01*
X815077Y362925D01*
X815085Y362972D01*
X815085Y369570D01*
X815077Y369628D01*
X815079Y369686D01*
X815057Y369768D01*
X815045Y369852D01*
X815022Y369905D01*
X815007Y369961D01*
X814964Y370034D01*
X814929Y370111D01*
X814891Y370156D01*
X814862Y370206D01*
X814800Y370264D01*
X814746Y370328D01*
X814697Y370360D01*
X814654Y370400D01*
X814579Y370439D01*
X814509Y370486D01*
X814453Y370503D01*
X814401Y370530D01*
X814333Y370541D01*
X814238Y370571D01*
X814138Y370574D01*
X814070Y370585D01*
X734528Y370585D01*
X730700Y372171D01*
X713533Y389338D01*
X713464Y389390D01*
X713400Y389450D01*
X713350Y389476D01*
X713306Y389509D01*
X713225Y389540D01*
X713147Y389580D01*
X713099Y389588D01*
X713041Y389610D01*
X712893Y389622D01*
X712816Y389635D01*
X309078Y389635D01*
X305251Y391221D01*
X304502Y391969D01*
X304478Y391987D01*
X304459Y392009D01*
X304365Y392072D01*
X304275Y392140D01*
X304247Y392151D01*
X304223Y392167D01*
X304115Y392201D01*
X304009Y392242D01*
X303980Y392244D01*
X303952Y392253D01*
X303838Y392256D01*
X303726Y392265D01*
X303697Y392259D01*
X303668Y392260D01*
X303558Y392232D01*
X303447Y392209D01*
X303421Y392196D01*
X303393Y392188D01*
X303295Y392131D01*
X303195Y392078D01*
X303173Y392058D01*
X303148Y392043D01*
X303071Y391960D01*
X302989Y391882D01*
X302974Y391857D01*
X302954Y391836D01*
X302902Y391735D01*
X302845Y391637D01*
X302838Y391609D01*
X302824Y391583D01*
X302811Y391505D01*
X302775Y391362D01*
X302777Y391299D01*
X302769Y391252D01*
X302769Y389267D01*
X302760Y389254D01*
X302700Y389191D01*
X302674Y389141D01*
X302641Y389097D01*
X302610Y389015D01*
X302570Y388937D01*
X302562Y388890D01*
X302540Y388831D01*
X302528Y388684D01*
X302515Y388606D01*
X302515Y377610D01*
X302519Y377579D01*
X302517Y377549D01*
X302534Y377472D01*
X302555Y377329D01*
X302581Y377270D01*
X302592Y377221D01*
X302705Y376949D01*
X302705Y359651D01*
X301090Y355753D01*
X298107Y352770D01*
X294209Y351155D01*
X294110Y351097D01*
X294008Y351044D01*
X293988Y351025D01*
X293964Y351011D01*
X293885Y350927D01*
X293802Y350848D01*
X293788Y350824D01*
X293769Y350804D01*
X293716Y350702D01*
X293658Y350603D01*
X293651Y350576D01*
X293639Y350551D01*
X293616Y350438D01*
X293588Y350327D01*
X293589Y350299D01*
X293584Y350272D01*
X293593Y350158D01*
X293597Y350043D01*
X293606Y350017D01*
X293608Y349989D01*
X293649Y349882D01*
X293685Y349773D01*
X293699Y349752D01*
X293710Y349724D01*
X293870Y349512D01*
X293879Y349499D01*
X315167Y328212D01*
X315236Y328160D01*
X315300Y328100D01*
X315350Y328074D01*
X315394Y328041D01*
X315475Y328010D01*
X315553Y327970D01*
X315601Y327962D01*
X315659Y327940D01*
X315807Y327928D01*
X315884Y327915D01*
X519377Y327915D01*
X519406Y327919D01*
G37*
G36*
X22890Y112283D02*
X22890Y112283D01*
X22976Y112281D01*
X23031Y112295D01*
X23088Y112300D01*
X23169Y112331D01*
X23251Y112353D01*
X23300Y112382D01*
X23353Y112402D01*
X23422Y112454D01*
X23496Y112498D01*
X23535Y112540D01*
X23580Y112574D01*
X23632Y112643D01*
X23690Y112705D01*
X23716Y112756D01*
X23750Y112802D01*
X23781Y112882D01*
X23820Y112958D01*
X23828Y113007D01*
X23851Y113068D01*
X23862Y113212D01*
X23875Y113290D01*
X23875Y116520D01*
X25964Y121562D01*
X29822Y125420D01*
X34864Y127509D01*
X37227Y127509D01*
X37329Y127523D01*
X37431Y127529D01*
X37465Y127542D01*
X37509Y127549D01*
X37683Y127626D01*
X37745Y127650D01*
X41572Y129917D01*
X42562Y130058D01*
X42577Y130062D01*
X42592Y130063D01*
X42713Y130102D01*
X42835Y130137D01*
X42848Y130146D01*
X42863Y130150D01*
X42919Y130190D01*
X43075Y130289D01*
X43106Y130324D01*
X43136Y130345D01*
X47653Y134862D01*
X53815Y137415D01*
X289906Y137415D01*
X289935Y137419D01*
X289964Y137416D01*
X290075Y137439D01*
X290187Y137455D01*
X290214Y137467D01*
X290243Y137472D01*
X290343Y137524D01*
X290446Y137571D01*
X290469Y137590D01*
X290495Y137603D01*
X290577Y137681D01*
X290663Y137754D01*
X290680Y137779D01*
X290701Y137799D01*
X290758Y137897D01*
X290821Y137991D01*
X290830Y138019D01*
X290845Y138044D01*
X290873Y138154D01*
X290907Y138262D01*
X290908Y138292D01*
X290915Y138320D01*
X290911Y138433D01*
X290914Y138546D01*
X290907Y138575D01*
X290906Y138604D01*
X290871Y138712D01*
X290842Y138821D01*
X290827Y138847D01*
X290818Y138875D01*
X290773Y138938D01*
X290697Y139066D01*
X290651Y139109D01*
X290623Y139148D01*
X256333Y173438D01*
X256264Y173490D01*
X256200Y173550D01*
X256150Y173576D01*
X256106Y173609D01*
X256025Y173640D01*
X255947Y173680D01*
X255899Y173688D01*
X255841Y173710D01*
X255693Y173722D01*
X255616Y173735D01*
X16978Y173735D01*
X13151Y175321D01*
X10718Y177753D01*
X10694Y177771D01*
X10676Y177793D01*
X10581Y177856D01*
X10491Y177924D01*
X10463Y177935D01*
X10439Y177951D01*
X10331Y177985D01*
X10225Y178026D01*
X10196Y178028D01*
X10168Y178037D01*
X10054Y178040D01*
X9942Y178049D01*
X9913Y178043D01*
X9884Y178044D01*
X9774Y178015D01*
X9663Y177993D01*
X9637Y177980D01*
X9609Y177972D01*
X9511Y177914D01*
X9411Y177862D01*
X9389Y177842D01*
X9364Y177827D01*
X9287Y177744D01*
X9205Y177666D01*
X9190Y177641D01*
X9170Y177620D01*
X9118Y177519D01*
X9061Y177421D01*
X9054Y177393D01*
X9040Y177367D01*
X9027Y177289D01*
X8991Y177146D01*
X8993Y177083D01*
X8985Y177036D01*
X8985Y120000D01*
X8997Y119913D01*
X9000Y119826D01*
X9017Y119773D01*
X9025Y119719D01*
X9060Y119639D01*
X9087Y119555D01*
X9115Y119516D01*
X9141Y119459D01*
X9237Y119346D01*
X9282Y119282D01*
X9902Y118662D01*
X9972Y118610D01*
X10036Y118550D01*
X10085Y118524D01*
X10129Y118491D01*
X10211Y118460D01*
X10289Y118420D01*
X10336Y118412D01*
X10395Y118390D01*
X10543Y118378D01*
X10620Y118365D01*
X14772Y118365D01*
X18600Y116779D01*
X21529Y113850D01*
X21922Y112901D01*
X21966Y112827D01*
X22001Y112749D01*
X22038Y112705D01*
X22067Y112656D01*
X22129Y112597D01*
X22185Y112532D01*
X22232Y112500D01*
X22273Y112461D01*
X22350Y112422D01*
X22421Y112374D01*
X22475Y112357D01*
X22526Y112331D01*
X22610Y112314D01*
X22692Y112288D01*
X22749Y112287D01*
X22805Y112276D01*
X22890Y112283D01*
G37*
%LPC*%
G36*
X531847Y449325D02*
X531847Y449325D01*
X524285Y452458D01*
X518498Y458245D01*
X515365Y465807D01*
X515365Y473993D01*
X518498Y481555D01*
X524285Y487342D01*
X531847Y490475D01*
X540033Y490475D01*
X547595Y487342D01*
X553382Y481555D01*
X556515Y473993D01*
X556515Y465807D01*
X553382Y458245D01*
X547595Y452458D01*
X540033Y449325D01*
X531847Y449325D01*
G37*
%LPD*%
%LPC*%
G36*
X531847Y195325D02*
X531847Y195325D01*
X524285Y198458D01*
X518498Y204245D01*
X515365Y211807D01*
X515365Y219993D01*
X518498Y227555D01*
X524285Y233342D01*
X531847Y236475D01*
X540033Y236475D01*
X547595Y233342D01*
X553382Y227555D01*
X556515Y219993D01*
X556515Y211807D01*
X553382Y204245D01*
X547595Y198458D01*
X540033Y195325D01*
X531847Y195325D01*
G37*
%LPD*%
%LPC*%
G36*
X531847Y68325D02*
X531847Y68325D01*
X524285Y71458D01*
X518498Y77245D01*
X515365Y84807D01*
X515365Y92993D01*
X518498Y100555D01*
X524285Y106342D01*
X531847Y109475D01*
X540033Y109475D01*
X547595Y106342D01*
X553382Y100555D01*
X556515Y92993D01*
X556515Y84807D01*
X553382Y77245D01*
X547595Y71458D01*
X540033Y68325D01*
X531847Y68325D01*
G37*
%LPD*%
%LPC*%
G36*
X416776Y483615D02*
X416776Y483615D01*
X412481Y485394D01*
X409194Y488681D01*
X407415Y492976D01*
X407415Y512864D01*
X409194Y517159D01*
X412481Y520446D01*
X416776Y522225D01*
X421424Y522225D01*
X425719Y520446D01*
X429006Y517159D01*
X430785Y512864D01*
X430785Y492976D01*
X429006Y488681D01*
X425719Y485394D01*
X421424Y483615D01*
X416776Y483615D01*
G37*
%LPD*%
%LPC*%
G36*
X391376Y483615D02*
X391376Y483615D01*
X387081Y485394D01*
X383794Y488681D01*
X382015Y492976D01*
X382015Y512864D01*
X383794Y517159D01*
X387081Y520446D01*
X391376Y522225D01*
X396024Y522225D01*
X400319Y520446D01*
X403606Y517159D01*
X405385Y512864D01*
X405385Y492976D01*
X403606Y488681D01*
X400319Y485394D01*
X396024Y483615D01*
X391376Y483615D01*
G37*
%LPD*%
%LPC*%
G36*
X365976Y483615D02*
X365976Y483615D01*
X361681Y485394D01*
X358394Y488681D01*
X356615Y492976D01*
X356615Y512864D01*
X358394Y517159D01*
X361681Y520446D01*
X365976Y522225D01*
X370624Y522225D01*
X374919Y520446D01*
X378206Y517159D01*
X379985Y512864D01*
X379985Y492976D01*
X378206Y488681D01*
X374919Y485394D01*
X370624Y483615D01*
X365976Y483615D01*
G37*
%LPD*%
%LPC*%
G36*
X391591Y351155D02*
X391591Y351155D01*
X387693Y352770D01*
X384710Y355753D01*
X383095Y359651D01*
X383095Y376949D01*
X384710Y380847D01*
X387693Y383830D01*
X391591Y385445D01*
X395809Y385445D01*
X399707Y383830D01*
X402690Y380847D01*
X404305Y376949D01*
X404305Y359651D01*
X402690Y355753D01*
X399707Y352770D01*
X395809Y351155D01*
X391591Y351155D01*
G37*
%LPD*%
%LPC*%
G36*
X137591Y351155D02*
X137591Y351155D01*
X133693Y352770D01*
X130710Y355753D01*
X129095Y359651D01*
X129095Y376949D01*
X130710Y380847D01*
X133693Y383830D01*
X137591Y385445D01*
X141809Y385445D01*
X145707Y383830D01*
X148690Y380847D01*
X150305Y376949D01*
X150305Y359651D01*
X148690Y355753D01*
X145707Y352770D01*
X141809Y351155D01*
X137591Y351155D01*
G37*
%LPD*%
%LPC*%
G36*
X162991Y351155D02*
X162991Y351155D01*
X159093Y352770D01*
X156110Y355753D01*
X154495Y359651D01*
X154495Y376949D01*
X156110Y380847D01*
X159093Y383830D01*
X162991Y385445D01*
X167209Y385445D01*
X171107Y383830D01*
X174090Y380847D01*
X175705Y376949D01*
X175705Y359651D01*
X174090Y355753D01*
X171107Y352770D01*
X167209Y351155D01*
X162991Y351155D01*
G37*
%LPD*%
%LPC*%
G36*
X366191Y351155D02*
X366191Y351155D01*
X362293Y352770D01*
X359310Y355753D01*
X357695Y359651D01*
X357695Y376949D01*
X359310Y380847D01*
X362293Y383830D01*
X366191Y385445D01*
X370409Y385445D01*
X374307Y383830D01*
X377290Y380847D01*
X378905Y376949D01*
X378905Y359651D01*
X377290Y355753D01*
X374307Y352770D01*
X370409Y351155D01*
X366191Y351155D01*
G37*
%LPD*%
%LPC*%
G36*
X112191Y351155D02*
X112191Y351155D01*
X108293Y352770D01*
X105310Y355753D01*
X103695Y359651D01*
X103695Y376949D01*
X105310Y380847D01*
X108293Y383830D01*
X112191Y385445D01*
X116409Y385445D01*
X120307Y383830D01*
X123290Y380847D01*
X124905Y376949D01*
X124905Y359651D01*
X123290Y355753D01*
X120307Y352770D01*
X116409Y351155D01*
X112191Y351155D01*
G37*
%LPD*%
%LPC*%
G36*
X340791Y351155D02*
X340791Y351155D01*
X336893Y352770D01*
X333910Y355753D01*
X332295Y359651D01*
X332295Y376949D01*
X333910Y380847D01*
X336893Y383830D01*
X340791Y385445D01*
X345009Y385445D01*
X348907Y383830D01*
X351890Y380847D01*
X353505Y376949D01*
X353505Y359651D01*
X351890Y355753D01*
X348907Y352770D01*
X345009Y351155D01*
X340791Y351155D01*
G37*
%LPD*%
%LPC*%
G36*
X86791Y351155D02*
X86791Y351155D01*
X82893Y352770D01*
X79910Y355753D01*
X78295Y359651D01*
X78295Y376949D01*
X79910Y380847D01*
X82893Y383830D01*
X86791Y385445D01*
X91009Y385445D01*
X94907Y383830D01*
X97890Y380847D01*
X99505Y376949D01*
X99505Y359651D01*
X97890Y355753D01*
X94907Y352770D01*
X91009Y351155D01*
X86791Y351155D01*
G37*
%LPD*%
%LPC*%
G36*
X188391Y351155D02*
X188391Y351155D01*
X184493Y352770D01*
X181510Y355753D01*
X179895Y359651D01*
X179895Y376949D01*
X181510Y380847D01*
X184493Y383830D01*
X188391Y385445D01*
X192609Y385445D01*
X196507Y383830D01*
X199490Y380847D01*
X201105Y376949D01*
X201105Y359651D01*
X199490Y355753D01*
X196507Y352770D01*
X192609Y351155D01*
X188391Y351155D01*
G37*
%LPD*%
%LPC*%
G36*
X315391Y351155D02*
X315391Y351155D01*
X311493Y352770D01*
X308510Y355753D01*
X306895Y359651D01*
X306895Y376949D01*
X308510Y380847D01*
X311493Y383830D01*
X315391Y385445D01*
X319609Y385445D01*
X323507Y383830D01*
X326490Y380847D01*
X328105Y376949D01*
X328105Y359651D01*
X326490Y355753D01*
X323507Y352770D01*
X319609Y351155D01*
X315391Y351155D01*
G37*
%LPD*%
D10*
X368300Y165100D03*
D11*
X393700Y165100D03*
D12*
X702818Y444500D02*
X719582Y444500D01*
X719582Y469900D02*
X702818Y469900D01*
X702818Y495300D02*
X719582Y495300D01*
X719582Y190500D02*
X702818Y190500D01*
X702818Y215900D02*
X719582Y215900D01*
X719582Y241300D02*
X702818Y241300D01*
X702818Y317500D02*
X719582Y317500D01*
X719582Y342900D02*
X702818Y342900D01*
X702818Y368300D02*
X719582Y368300D01*
X719582Y63500D02*
X702818Y63500D01*
X702818Y88900D02*
X719582Y88900D01*
X719582Y114300D02*
X702818Y114300D01*
D13*
X292100Y444500D03*
X292100Y393700D03*
X266700Y444500D03*
X266700Y393700D03*
X215900Y444500D03*
X215900Y393700D03*
X241300Y444500D03*
X241300Y393700D03*
D14*
X342900Y78740D02*
X342900Y63500D01*
X317500Y63500D02*
X317500Y78740D01*
X292100Y78740D02*
X292100Y63500D01*
X266700Y63500D02*
X266700Y78740D01*
X241300Y78740D02*
X241300Y63500D01*
X190500Y63500D02*
X190500Y78740D01*
X165100Y78740D02*
X165100Y63500D01*
X139700Y63500D02*
X139700Y78740D01*
X114300Y78740D02*
X114300Y63500D01*
X88900Y63500D02*
X88900Y78740D01*
D15*
X785368Y402336D02*
X804672Y402336D01*
X804672Y453136D02*
X785368Y453136D01*
X785368Y199136D02*
X804672Y199136D01*
X804672Y249936D02*
X785368Y249936D01*
X785368Y300736D02*
X804672Y300736D01*
X804672Y351536D02*
X785368Y351536D01*
X785368Y97536D02*
X804672Y97536D01*
X804672Y148336D02*
X785368Y148336D01*
X56896Y113792D02*
X37592Y113792D01*
X37592Y164592D02*
X56896Y164592D01*
D16*
X393700Y361760D02*
X393700Y374840D01*
X368300Y374840D02*
X368300Y361760D01*
X342900Y361760D02*
X342900Y374840D01*
X317500Y374840D02*
X317500Y361760D01*
X292100Y361760D02*
X292100Y374840D01*
X266700Y374840D02*
X266700Y361760D01*
X241300Y361760D02*
X241300Y374840D01*
X215900Y374840D02*
X215900Y361760D01*
X190500Y361760D02*
X190500Y374840D01*
X165100Y374840D02*
X165100Y361760D01*
X139700Y361760D02*
X139700Y374840D01*
X114300Y374840D02*
X114300Y361760D01*
X393700Y222440D02*
X393700Y209360D01*
X368300Y209360D02*
X368300Y222440D01*
X342900Y222440D02*
X342900Y209360D01*
X190500Y209360D02*
X190500Y222440D01*
X165100Y222440D02*
X165100Y209360D01*
X139700Y209360D02*
X139700Y222440D01*
X114300Y222440D02*
X114300Y209360D01*
X38100Y209360D02*
X38100Y222440D01*
X38100Y361760D02*
X38100Y374840D01*
X63500Y374840D02*
X63500Y361760D01*
X88900Y361760D02*
X88900Y374840D01*
X63500Y222440D02*
X63500Y209360D01*
X88900Y209360D02*
X88900Y222440D01*
X317500Y222440D02*
X317500Y209360D01*
X215900Y209360D02*
X215900Y222440D01*
X241300Y222440D02*
X241300Y209360D01*
X266700Y209360D02*
X266700Y222440D01*
X292100Y222440D02*
X292100Y209360D01*
D14*
X419100Y495300D02*
X419100Y510540D01*
X393700Y510540D02*
X393700Y495300D01*
X368300Y495300D02*
X368300Y510540D01*
X342900Y510540D02*
X342900Y495300D01*
D17*
X711200Y469900D02*
X717550Y463550D01*
X787400Y463550D01*
X793750Y457200D01*
X795020Y453136D01*
X717550Y349250D02*
X711200Y342900D01*
X717550Y349250D02*
X793750Y349250D01*
X795020Y351536D01*
X717550Y95250D02*
X711200Y88900D01*
X717550Y95250D02*
X742950Y95250D01*
X793750Y146050D01*
X795020Y148336D01*
D18*
X241300Y444500D02*
X215900Y444500D01*
X241300Y444500D02*
X266700Y444500D01*
X292100Y444500D01*
X292100Y450850D02*
X330200Y488950D01*
X342900Y501650D01*
X342900Y502920D01*
X292100Y450850D02*
X292100Y444500D01*
X330200Y488950D02*
X349250Y469900D01*
X488950Y469900D01*
X520700Y501650D01*
X704850Y501650D01*
X711200Y495300D01*
D17*
X63500Y368300D02*
X63500Y241300D01*
X425450Y241300D01*
X444500Y222250D01*
X444500Y44450D01*
X285750Y44450D01*
X266700Y63500D01*
X266700Y71120D01*
X38100Y241300D02*
X38100Y368300D01*
X38100Y241300D02*
X31750Y241300D01*
X19050Y228600D01*
X19050Y184150D01*
X260350Y184150D01*
X298450Y146050D01*
D19*
X298450Y146050D03*
D17*
X241300Y69850D02*
X215900Y44450D01*
X241300Y69850D02*
X241300Y71120D01*
D19*
X12700Y107950D03*
D17*
X31282Y81748D02*
X43151Y81748D01*
X31282Y81748D02*
X12700Y100330D01*
X43151Y81748D02*
X80449Y44450D01*
X12700Y100330D02*
X12700Y107950D01*
X80449Y44450D02*
X215900Y44450D01*
D18*
X800100Y101600D02*
X831850Y133350D01*
X831850Y196850D01*
X800100Y196850D01*
X800100Y101600D02*
X795020Y97536D01*
X800100Y196850D02*
X795020Y199136D01*
X393700Y215900D02*
X393700Y165100D01*
X393700Y215900D02*
X419100Y215900D01*
X57150Y120650D02*
X50800Y114300D01*
X57150Y120650D02*
X361950Y120650D01*
X400050Y158750D01*
X50800Y114300D02*
X47244Y113792D01*
X393700Y165100D02*
X400050Y158750D01*
D19*
X419100Y215900D03*
D17*
X266700Y368300D02*
X266700Y393700D01*
X311150Y317500D02*
X711200Y317500D01*
X311150Y317500D02*
X266700Y361950D01*
X266700Y368300D01*
X241300Y368300D02*
X241300Y393700D01*
X711200Y190500D02*
X717550Y196850D01*
X755650Y196850D01*
X787400Y228600D01*
X812800Y228600D01*
X825500Y241300D01*
X825500Y381000D01*
X736600Y381000D01*
X717550Y400050D01*
X311150Y400050D01*
X298450Y412750D01*
X260350Y412750D01*
X241300Y393700D01*
X215900Y393700D02*
X215900Y368300D01*
X704850Y69850D02*
X711200Y63500D01*
X704850Y69850D02*
X622300Y69850D01*
X393700Y298450D01*
X279400Y298450D01*
X215900Y361950D01*
X215900Y368300D01*
X292100Y368300D02*
X292100Y393700D01*
X685800Y419100D02*
X711200Y444500D01*
X685800Y419100D02*
X317500Y419100D01*
D19*
X317500Y419100D03*
D20*
X40000Y510000D03*
X40000Y40000D03*
X810000Y40000D03*
X810000Y510000D03*
M02*
