G04 EAGLE Gerber RS-274X export*
G75*
%MOMM*%
%FSLAX34Y34*%
%LPD*%
%INBottom Copper*%
%IPPOS*%
%AMOC8*
5,1,8,0,0,1.08239X$1,22.5*%
G01*
%ADD10P,1.732040X8X202.500000*%
%ADD11C,1.600200*%
%ADD12C,1.727200*%
%ADD13P,1.539592X8X292.500000*%
%ADD14C,1.625600*%
%ADD15C,1.930400*%
%ADD16C,1.409600*%
%ADD17C,0.304800*%
%ADD18C,0.508000*%

G36*
X845446Y2543D02*
X845446Y2543D01*
X845464Y2541D01*
X845646Y2562D01*
X845829Y2581D01*
X845846Y2586D01*
X845863Y2588D01*
X846038Y2645D01*
X846214Y2699D01*
X846229Y2707D01*
X846246Y2713D01*
X846406Y2803D01*
X846568Y2891D01*
X846581Y2902D01*
X846597Y2911D01*
X846736Y3031D01*
X846877Y3148D01*
X846888Y3162D01*
X846902Y3174D01*
X847014Y3319D01*
X847129Y3462D01*
X847137Y3478D01*
X847148Y3492D01*
X847230Y3657D01*
X847315Y3819D01*
X847320Y3836D01*
X847328Y3852D01*
X847375Y4031D01*
X847426Y4206D01*
X847428Y4224D01*
X847432Y4241D01*
X847459Y4572D01*
X847459Y545428D01*
X847457Y545446D01*
X847459Y545464D01*
X847438Y545646D01*
X847419Y545829D01*
X847414Y545846D01*
X847412Y545863D01*
X847355Y546038D01*
X847301Y546214D01*
X847293Y546229D01*
X847287Y546246D01*
X847197Y546406D01*
X847109Y546568D01*
X847098Y546581D01*
X847089Y546597D01*
X846969Y546736D01*
X846852Y546877D01*
X846838Y546888D01*
X846826Y546902D01*
X846681Y547014D01*
X846538Y547129D01*
X846522Y547137D01*
X846508Y547148D01*
X846343Y547230D01*
X846181Y547315D01*
X846164Y547320D01*
X846148Y547328D01*
X845969Y547375D01*
X845794Y547426D01*
X845776Y547428D01*
X845759Y547432D01*
X845428Y547459D01*
X4572Y547459D01*
X4554Y547457D01*
X4536Y547459D01*
X4354Y547438D01*
X4171Y547419D01*
X4154Y547414D01*
X4137Y547412D01*
X3962Y547355D01*
X3786Y547301D01*
X3771Y547293D01*
X3754Y547287D01*
X3594Y547197D01*
X3432Y547109D01*
X3419Y547098D01*
X3403Y547089D01*
X3264Y546969D01*
X3123Y546852D01*
X3112Y546838D01*
X3098Y546826D01*
X2986Y546681D01*
X2871Y546538D01*
X2863Y546522D01*
X2852Y546508D01*
X2770Y546343D01*
X2685Y546181D01*
X2680Y546164D01*
X2672Y546148D01*
X2625Y545969D01*
X2574Y545794D01*
X2572Y545776D01*
X2568Y545759D01*
X2541Y545428D01*
X2541Y4572D01*
X2543Y4554D01*
X2541Y4536D01*
X2562Y4354D01*
X2581Y4171D01*
X2586Y4154D01*
X2588Y4137D01*
X2645Y3962D01*
X2699Y3786D01*
X2707Y3771D01*
X2713Y3754D01*
X2803Y3594D01*
X2891Y3432D01*
X2902Y3419D01*
X2911Y3403D01*
X3031Y3264D01*
X3148Y3123D01*
X3162Y3112D01*
X3174Y3098D01*
X3319Y2986D01*
X3462Y2871D01*
X3478Y2863D01*
X3492Y2852D01*
X3657Y2770D01*
X3819Y2685D01*
X3836Y2680D01*
X3852Y2672D01*
X4031Y2625D01*
X4206Y2574D01*
X4224Y2572D01*
X4241Y2568D01*
X4572Y2541D01*
X845428Y2541D01*
X845446Y2543D01*
G37*
%LPC*%
G36*
X27654Y11854D02*
X27654Y11854D01*
X19184Y17388D01*
X12970Y25372D01*
X9685Y34941D01*
X9685Y45059D01*
X12970Y54628D01*
X19184Y62612D01*
X27654Y68146D01*
X37462Y70630D01*
X47545Y69794D01*
X56810Y65730D01*
X64254Y58878D01*
X65270Y57001D01*
X65326Y56917D01*
X65375Y56828D01*
X65439Y56751D01*
X65495Y56668D01*
X65568Y56597D01*
X65632Y56519D01*
X65711Y56456D01*
X65782Y56385D01*
X65867Y56330D01*
X65946Y56266D01*
X66035Y56220D01*
X66120Y56165D01*
X66214Y56128D01*
X66303Y56081D01*
X66400Y56053D01*
X66493Y56016D01*
X66593Y55998D01*
X66690Y55970D01*
X66791Y55961D01*
X66889Y55943D01*
X66991Y55945D01*
X67092Y55937D01*
X67191Y55948D01*
X67292Y55950D01*
X67391Y55972D01*
X67491Y55984D01*
X67587Y56015D01*
X67685Y56036D01*
X67778Y56077D01*
X67874Y56108D01*
X67962Y56158D01*
X68054Y56198D01*
X68137Y56257D01*
X68225Y56306D01*
X68301Y56372D01*
X68383Y56430D01*
X68453Y56503D01*
X68530Y56570D01*
X68591Y56649D01*
X68660Y56722D01*
X68714Y56808D01*
X68776Y56888D01*
X68821Y56978D01*
X68875Y57063D01*
X68911Y57158D01*
X68956Y57248D01*
X68982Y57345D01*
X69017Y57439D01*
X69034Y57539D01*
X69060Y57637D01*
X69070Y57758D01*
X69083Y57837D01*
X69081Y57892D01*
X69087Y57968D01*
X69087Y83204D01*
X69085Y83230D01*
X69087Y83257D01*
X69065Y83431D01*
X69047Y83604D01*
X69040Y83630D01*
X69036Y83656D01*
X68981Y83822D01*
X68929Y83989D01*
X68916Y84013D01*
X68908Y84038D01*
X68821Y84190D01*
X68737Y84343D01*
X68720Y84364D01*
X68707Y84387D01*
X68492Y84640D01*
X52636Y100496D01*
X52615Y100513D01*
X52598Y100534D01*
X52460Y100641D01*
X52325Y100751D01*
X52301Y100764D01*
X52280Y100780D01*
X52123Y100858D01*
X51969Y100940D01*
X51943Y100948D01*
X51919Y100960D01*
X51750Y101005D01*
X51583Y101055D01*
X51556Y101057D01*
X51530Y101064D01*
X51200Y101091D01*
X35066Y101091D01*
X30398Y103025D01*
X26825Y106598D01*
X24891Y111266D01*
X24891Y116318D01*
X26825Y120986D01*
X30398Y124559D01*
X35066Y126493D01*
X59422Y126493D01*
X64090Y124559D01*
X67663Y120986D01*
X69597Y116318D01*
X69597Y111266D01*
X67663Y106598D01*
X66439Y105373D01*
X66428Y105360D01*
X66414Y105348D01*
X66300Y105204D01*
X66184Y105062D01*
X66176Y105046D01*
X66164Y105032D01*
X66081Y104868D01*
X65995Y104706D01*
X65990Y104689D01*
X65982Y104673D01*
X65933Y104496D01*
X65880Y104320D01*
X65879Y104302D01*
X65874Y104285D01*
X65861Y104102D01*
X65844Y103919D01*
X65846Y103902D01*
X65845Y103884D01*
X65868Y103702D01*
X65887Y103519D01*
X65893Y103502D01*
X65895Y103484D01*
X65953Y103310D01*
X66009Y103135D01*
X66018Y103119D01*
X66023Y103103D01*
X66115Y102943D01*
X66204Y102783D01*
X66215Y102769D01*
X66224Y102754D01*
X66439Y102501D01*
X77556Y91384D01*
X79414Y89526D01*
X79496Y89328D01*
X79522Y89279D01*
X79541Y89226D01*
X79617Y89102D01*
X79686Y88973D01*
X79722Y88930D01*
X79750Y88882D01*
X79849Y88775D01*
X79943Y88662D01*
X79986Y88627D01*
X80023Y88587D01*
X80142Y88501D01*
X80255Y88409D01*
X80304Y88383D01*
X80349Y88350D01*
X80482Y88290D01*
X80612Y88222D01*
X80665Y88206D01*
X80716Y88183D01*
X80858Y88150D01*
X80998Y88109D01*
X81053Y88104D01*
X81108Y88091D01*
X81254Y88086D01*
X81399Y88074D01*
X81454Y88080D01*
X81510Y88078D01*
X81654Y88103D01*
X81799Y88119D01*
X81852Y88136D01*
X81907Y88145D01*
X82043Y88198D01*
X82183Y88242D01*
X82231Y88269D01*
X82283Y88289D01*
X82466Y88401D01*
X82534Y88439D01*
X82548Y88450D01*
X82567Y88462D01*
X83042Y88807D01*
X84609Y89606D01*
X86283Y90150D01*
X86361Y90162D01*
X86361Y71628D01*
X86362Y71610D01*
X86361Y71593D01*
X86382Y71410D01*
X86401Y71228D01*
X86406Y71211D01*
X86408Y71193D01*
X86433Y71115D01*
X86394Y70978D01*
X86392Y70960D01*
X86388Y70943D01*
X86361Y70612D01*
X86361Y50887D01*
X86360Y50886D01*
X86355Y50879D01*
X86267Y50706D01*
X86179Y50537D01*
X86177Y50528D01*
X86173Y50520D01*
X86121Y50334D01*
X86068Y50150D01*
X86067Y50141D01*
X86065Y50132D01*
X86050Y49940D01*
X86035Y49749D01*
X86036Y49740D01*
X86035Y49731D01*
X86059Y49539D01*
X86082Y49349D01*
X86084Y49340D01*
X86086Y49331D01*
X86147Y49148D01*
X86206Y48966D01*
X86211Y48958D01*
X86214Y48950D01*
X86310Y48782D01*
X86404Y48615D01*
X86410Y48608D01*
X86415Y48601D01*
X86629Y48348D01*
X87391Y47586D01*
X87412Y47569D01*
X87430Y47548D01*
X87567Y47442D01*
X87703Y47331D01*
X87727Y47318D01*
X87748Y47302D01*
X87904Y47224D01*
X88059Y47142D01*
X88084Y47134D01*
X88108Y47122D01*
X88278Y47077D01*
X88445Y47027D01*
X88471Y47025D01*
X88497Y47018D01*
X88828Y46991D01*
X375050Y46991D01*
X375076Y46993D01*
X375103Y46991D01*
X375277Y47013D01*
X375450Y47031D01*
X375476Y47038D01*
X375502Y47042D01*
X375668Y47097D01*
X375835Y47149D01*
X375859Y47162D01*
X375884Y47170D01*
X376036Y47257D01*
X376189Y47341D01*
X376210Y47358D01*
X376233Y47371D01*
X376486Y47586D01*
X387516Y58616D01*
X387533Y58637D01*
X387554Y58654D01*
X387661Y58792D01*
X387771Y58928D01*
X387784Y58951D01*
X387800Y58972D01*
X387878Y59129D01*
X387960Y59283D01*
X387968Y59309D01*
X387980Y59333D01*
X388025Y59502D01*
X388075Y59669D01*
X388077Y59696D01*
X388084Y59722D01*
X388111Y60052D01*
X388111Y154221D01*
X388109Y154247D01*
X388111Y154274D01*
X388089Y154448D01*
X388071Y154621D01*
X388064Y154647D01*
X388060Y154673D01*
X388005Y154839D01*
X387953Y155006D01*
X387940Y155030D01*
X387932Y155055D01*
X387845Y155207D01*
X387761Y155360D01*
X387744Y155381D01*
X387731Y155404D01*
X387516Y155657D01*
X384332Y158841D01*
X383258Y161436D01*
X383256Y161440D01*
X383254Y161444D01*
X383161Y161617D01*
X383067Y161791D01*
X383065Y161794D01*
X383062Y161798D01*
X382938Y161947D01*
X382811Y162101D01*
X382808Y162104D01*
X382805Y162107D01*
X382652Y162230D01*
X382498Y162355D01*
X382494Y162357D01*
X382491Y162360D01*
X382318Y162450D01*
X382142Y162542D01*
X382138Y162543D01*
X382134Y162545D01*
X381945Y162599D01*
X381755Y162655D01*
X381751Y162655D01*
X381747Y162657D01*
X381549Y162673D01*
X381354Y162690D01*
X381350Y162689D01*
X381345Y162689D01*
X381151Y162667D01*
X380954Y162644D01*
X380950Y162643D01*
X380946Y162643D01*
X380760Y162582D01*
X380571Y162521D01*
X380567Y162519D01*
X380563Y162518D01*
X380390Y162420D01*
X380219Y162325D01*
X380216Y162322D01*
X380212Y162320D01*
X380063Y162191D01*
X379914Y162063D01*
X379911Y162060D01*
X379907Y162057D01*
X379787Y161902D01*
X379665Y161746D01*
X379663Y161742D01*
X379661Y161739D01*
X379572Y161560D01*
X379485Y161386D01*
X379483Y161382D01*
X379481Y161378D01*
X379429Y161184D01*
X379378Y160998D01*
X379378Y160994D01*
X379377Y160989D01*
X379350Y160659D01*
X379350Y160523D01*
X372877Y154050D01*
X370331Y154050D01*
X370331Y165100D01*
X370331Y176150D01*
X372877Y176150D01*
X379350Y169677D01*
X379350Y169541D01*
X379350Y169537D01*
X379350Y169533D01*
X379370Y169339D01*
X379390Y169141D01*
X379391Y169137D01*
X379391Y169132D01*
X379450Y168945D01*
X379508Y168756D01*
X379510Y168752D01*
X379511Y168748D01*
X379605Y168576D01*
X379700Y168402D01*
X379702Y168398D01*
X379705Y168395D01*
X379832Y168243D01*
X379957Y168093D01*
X379961Y168090D01*
X379964Y168086D01*
X380118Y167963D01*
X380271Y167840D01*
X380275Y167838D01*
X380278Y167835D01*
X380453Y167746D01*
X380628Y167655D01*
X380633Y167654D01*
X380637Y167652D01*
X380824Y167598D01*
X381015Y167543D01*
X381020Y167543D01*
X381024Y167542D01*
X381217Y167527D01*
X381417Y167511D01*
X381421Y167511D01*
X381425Y167511D01*
X381619Y167534D01*
X381816Y167557D01*
X381821Y167559D01*
X381825Y167559D01*
X382010Y167621D01*
X382199Y167682D01*
X382203Y167685D01*
X382207Y167686D01*
X382379Y167784D01*
X382550Y167880D01*
X382553Y167883D01*
X382557Y167885D01*
X382708Y168017D01*
X382854Y168143D01*
X382857Y168147D01*
X382861Y168150D01*
X382981Y168306D01*
X383101Y168461D01*
X383103Y168465D01*
X383106Y168469D01*
X383258Y168764D01*
X384332Y171359D01*
X387516Y174543D01*
X387533Y174564D01*
X387554Y174581D01*
X387661Y174719D01*
X387771Y174855D01*
X387784Y174878D01*
X387800Y174899D01*
X387878Y175056D01*
X387960Y175210D01*
X387968Y175236D01*
X387980Y175260D01*
X388025Y175429D01*
X388075Y175596D01*
X388077Y175623D01*
X388084Y175649D01*
X388111Y175979D01*
X388111Y199320D01*
X388109Y199347D01*
X388111Y199374D01*
X388089Y199548D01*
X388071Y199721D01*
X388064Y199747D01*
X388060Y199773D01*
X388005Y199939D01*
X387953Y200106D01*
X387940Y200130D01*
X387932Y200155D01*
X387845Y200307D01*
X387761Y200460D01*
X387744Y200480D01*
X387731Y200504D01*
X387516Y200757D01*
X385140Y203133D01*
X383603Y206844D01*
X383603Y224956D01*
X385140Y228667D01*
X387981Y231508D01*
X391692Y233045D01*
X395708Y233045D01*
X399419Y231508D01*
X402260Y228667D01*
X403797Y224956D01*
X403797Y206844D01*
X402260Y203133D01*
X399884Y200757D01*
X399867Y200736D01*
X399846Y200719D01*
X399739Y200581D01*
X399629Y200445D01*
X399616Y200422D01*
X399600Y200400D01*
X399522Y200244D01*
X399440Y200090D01*
X399432Y200064D01*
X399420Y200040D01*
X399375Y199871D01*
X399325Y199704D01*
X399323Y199677D01*
X399316Y199651D01*
X399289Y199320D01*
X399289Y175979D01*
X399291Y175953D01*
X399289Y175926D01*
X399311Y175752D01*
X399329Y175579D01*
X399336Y175553D01*
X399340Y175527D01*
X399395Y175361D01*
X399447Y175194D01*
X399460Y175170D01*
X399468Y175145D01*
X399555Y174993D01*
X399639Y174840D01*
X399656Y174819D01*
X399669Y174796D01*
X399884Y174543D01*
X403068Y171359D01*
X404750Y167298D01*
X404750Y162902D01*
X403068Y158841D01*
X399884Y155657D01*
X399867Y155636D01*
X399846Y155619D01*
X399739Y155481D01*
X399629Y155345D01*
X399616Y155322D01*
X399600Y155301D01*
X399522Y155144D01*
X399440Y154990D01*
X399432Y154964D01*
X399420Y154940D01*
X399375Y154771D01*
X399325Y154604D01*
X399323Y154577D01*
X399316Y154551D01*
X399289Y154221D01*
X399289Y64516D01*
X399291Y64498D01*
X399289Y64480D01*
X399310Y64298D01*
X399329Y64115D01*
X399334Y64098D01*
X399336Y64081D01*
X399393Y63906D01*
X399447Y63730D01*
X399455Y63715D01*
X399461Y63698D01*
X399551Y63538D01*
X399639Y63376D01*
X399650Y63363D01*
X399659Y63347D01*
X399779Y63208D01*
X399896Y63067D01*
X399910Y63056D01*
X399922Y63042D01*
X400067Y62930D01*
X400210Y62815D01*
X400226Y62807D01*
X400240Y62796D01*
X400405Y62714D01*
X400567Y62629D01*
X400584Y62624D01*
X400600Y62616D01*
X400779Y62569D01*
X400954Y62518D01*
X400972Y62516D01*
X400989Y62512D01*
X401320Y62485D01*
X751224Y62485D01*
X751250Y62487D01*
X751277Y62485D01*
X751451Y62507D01*
X751624Y62525D01*
X751650Y62532D01*
X751676Y62536D01*
X751842Y62591D01*
X752009Y62643D01*
X752033Y62656D01*
X752058Y62664D01*
X752210Y62751D01*
X752363Y62835D01*
X752384Y62852D01*
X752407Y62865D01*
X752660Y63080D01*
X775825Y86245D01*
X775836Y86259D01*
X775850Y86270D01*
X775964Y86414D01*
X776080Y86556D01*
X776088Y86572D01*
X776100Y86586D01*
X776183Y86750D01*
X776269Y86912D01*
X776274Y86929D01*
X776282Y86945D01*
X776331Y87123D01*
X776384Y87298D01*
X776385Y87316D01*
X776390Y87333D01*
X776403Y87516D01*
X776420Y87699D01*
X776418Y87717D01*
X776419Y87734D01*
X776396Y87916D01*
X776377Y88099D01*
X776371Y88116D01*
X776369Y88134D01*
X776311Y88307D01*
X776255Y88483D01*
X776246Y88499D01*
X776241Y88515D01*
X776149Y88675D01*
X776060Y88835D01*
X776049Y88849D01*
X776040Y88864D01*
X775825Y89117D01*
X774601Y90342D01*
X772667Y95010D01*
X772667Y100062D01*
X774601Y104730D01*
X778174Y108303D01*
X778223Y108324D01*
X782842Y110237D01*
X807198Y110237D01*
X811866Y108303D01*
X812332Y107838D01*
X812346Y107826D01*
X812357Y107813D01*
X812501Y107699D01*
X812643Y107583D01*
X812659Y107574D01*
X812673Y107563D01*
X812838Y107480D01*
X812999Y107394D01*
X813016Y107389D01*
X813032Y107381D01*
X813210Y107331D01*
X813385Y107279D01*
X813403Y107278D01*
X813420Y107273D01*
X813603Y107260D01*
X813786Y107243D01*
X813804Y107245D01*
X813821Y107244D01*
X814003Y107267D01*
X814186Y107286D01*
X814203Y107292D01*
X814221Y107294D01*
X814395Y107352D01*
X814570Y107408D01*
X814586Y107417D01*
X814603Y107422D01*
X814762Y107514D01*
X814922Y107603D01*
X814936Y107614D01*
X814951Y107623D01*
X815204Y107838D01*
X831508Y124142D01*
X831525Y124162D01*
X831546Y124180D01*
X831653Y124318D01*
X831763Y124453D01*
X831776Y124477D01*
X831792Y124498D01*
X831870Y124655D01*
X831952Y124809D01*
X831960Y124834D01*
X831972Y124859D01*
X832017Y125028D01*
X832067Y125195D01*
X832069Y125221D01*
X832076Y125247D01*
X832103Y125578D01*
X832103Y172618D01*
X832101Y172644D01*
X832103Y172671D01*
X832081Y172845D01*
X832063Y173019D01*
X832056Y173044D01*
X832052Y173071D01*
X831997Y173236D01*
X831945Y173403D01*
X831932Y173427D01*
X831924Y173452D01*
X831837Y173604D01*
X831753Y173757D01*
X831736Y173778D01*
X831723Y173801D01*
X831508Y174054D01*
X815966Y189596D01*
X815953Y189608D01*
X815941Y189621D01*
X815797Y189735D01*
X815655Y189851D01*
X815639Y189860D01*
X815625Y189871D01*
X815461Y189954D01*
X815299Y190040D01*
X815282Y190045D01*
X815266Y190053D01*
X815089Y190102D01*
X814913Y190155D01*
X814896Y190156D01*
X814878Y190161D01*
X814695Y190174D01*
X814512Y190191D01*
X814495Y190189D01*
X814477Y190190D01*
X814295Y190167D01*
X814112Y190148D01*
X814095Y190142D01*
X814077Y190140D01*
X813904Y190082D01*
X813728Y190026D01*
X813713Y190017D01*
X813696Y190012D01*
X813536Y189920D01*
X813376Y189831D01*
X813362Y189820D01*
X813347Y189811D01*
X813094Y189596D01*
X811866Y188369D01*
X809109Y187226D01*
X809108Y187226D01*
X807198Y186435D01*
X782842Y186435D01*
X778174Y188369D01*
X774601Y191942D01*
X772667Y196610D01*
X772667Y201662D01*
X774601Y206330D01*
X778174Y209903D01*
X782842Y211837D01*
X807198Y211837D01*
X811866Y209903D01*
X812713Y209057D01*
X812727Y209046D01*
X812738Y209032D01*
X812883Y208917D01*
X813024Y208802D01*
X813040Y208793D01*
X813054Y208782D01*
X813218Y208699D01*
X813380Y208613D01*
X813397Y208608D01*
X813413Y208600D01*
X813590Y208551D01*
X813766Y208498D01*
X813784Y208497D01*
X813801Y208492D01*
X813984Y208479D01*
X814167Y208462D01*
X814185Y208464D01*
X814202Y208463D01*
X814384Y208486D01*
X814567Y208505D01*
X814584Y208511D01*
X814602Y208513D01*
X814775Y208571D01*
X814951Y208627D01*
X814967Y208636D01*
X814983Y208641D01*
X815142Y208733D01*
X815303Y208822D01*
X815317Y208833D01*
X815332Y208842D01*
X815585Y209057D01*
X831508Y224980D01*
X831525Y225000D01*
X831546Y225018D01*
X831653Y225156D01*
X831763Y225291D01*
X831776Y225315D01*
X831792Y225336D01*
X831870Y225493D01*
X831952Y225647D01*
X831960Y225672D01*
X831972Y225697D01*
X832017Y225866D01*
X832067Y226033D01*
X832069Y226059D01*
X832076Y226085D01*
X832103Y226416D01*
X832103Y270910D01*
X832101Y270936D01*
X832103Y270963D01*
X832081Y271137D01*
X832063Y271310D01*
X832056Y271336D01*
X832052Y271362D01*
X831997Y271528D01*
X831945Y271695D01*
X831932Y271719D01*
X831924Y271744D01*
X831837Y271896D01*
X831753Y272049D01*
X831736Y272070D01*
X831723Y272093D01*
X831508Y272346D01*
X814254Y289601D01*
X814236Y289615D01*
X814222Y289632D01*
X814081Y289742D01*
X813942Y289856D01*
X813923Y289866D01*
X813905Y289880D01*
X813745Y289960D01*
X813587Y290044D01*
X813565Y290051D01*
X813545Y290061D01*
X813372Y290108D01*
X813201Y290159D01*
X813179Y290161D01*
X813157Y290167D01*
X812978Y290179D01*
X812800Y290195D01*
X812778Y290193D01*
X812755Y290195D01*
X812578Y290171D01*
X812399Y290152D01*
X812378Y290145D01*
X812356Y290142D01*
X812040Y290041D01*
X807198Y288035D01*
X782842Y288035D01*
X778174Y289969D01*
X774601Y293542D01*
X772667Y298210D01*
X772667Y303262D01*
X774601Y307930D01*
X778174Y311503D01*
X782842Y313437D01*
X807198Y313437D01*
X811866Y311503D01*
X813094Y310276D01*
X813107Y310265D01*
X813119Y310251D01*
X813264Y310137D01*
X813405Y310021D01*
X813421Y310012D01*
X813435Y310001D01*
X813599Y309918D01*
X813761Y309832D01*
X813778Y309827D01*
X813794Y309819D01*
X813971Y309770D01*
X814147Y309717D01*
X814165Y309716D01*
X814182Y309711D01*
X814365Y309698D01*
X814548Y309681D01*
X814566Y309683D01*
X814583Y309682D01*
X814765Y309705D01*
X814948Y309724D01*
X814965Y309730D01*
X814983Y309732D01*
X815156Y309790D01*
X815332Y309846D01*
X815348Y309855D01*
X815364Y309860D01*
X815523Y309952D01*
X815684Y310041D01*
X815698Y310052D01*
X815713Y310061D01*
X815966Y310276D01*
X831508Y325818D01*
X831525Y325838D01*
X831546Y325856D01*
X831653Y325994D01*
X831763Y326129D01*
X831776Y326153D01*
X831792Y326174D01*
X831870Y326331D01*
X831952Y326485D01*
X831960Y326510D01*
X831972Y326535D01*
X832017Y326704D01*
X832067Y326871D01*
X832069Y326897D01*
X832076Y326923D01*
X832103Y327254D01*
X832103Y373272D01*
X832101Y373298D01*
X832103Y373325D01*
X832081Y373499D01*
X832063Y373672D01*
X832056Y373698D01*
X832052Y373724D01*
X831997Y373890D01*
X831945Y374057D01*
X831932Y374081D01*
X831924Y374106D01*
X831837Y374258D01*
X831753Y374411D01*
X831736Y374432D01*
X831723Y374455D01*
X831508Y374708D01*
X814693Y391523D01*
X814679Y391534D01*
X814668Y391548D01*
X814524Y391662D01*
X814382Y391778D01*
X814366Y391787D01*
X814352Y391798D01*
X814188Y391881D01*
X814026Y391967D01*
X814009Y391972D01*
X813993Y391980D01*
X813816Y392029D01*
X813640Y392082D01*
X813622Y392083D01*
X813605Y392088D01*
X813423Y392101D01*
X813239Y392118D01*
X813221Y392116D01*
X813203Y392117D01*
X813022Y392094D01*
X812839Y392075D01*
X812822Y392069D01*
X812804Y392067D01*
X812630Y392008D01*
X812455Y391953D01*
X812439Y391944D01*
X812422Y391939D01*
X812263Y391847D01*
X812103Y391758D01*
X812089Y391747D01*
X812074Y391738D01*
X811882Y391575D01*
X807198Y389635D01*
X782842Y389635D01*
X778174Y391569D01*
X774601Y395142D01*
X772667Y399810D01*
X772667Y404862D01*
X774601Y409530D01*
X778174Y413103D01*
X782842Y415037D01*
X807198Y415037D01*
X812224Y412955D01*
X812246Y412949D01*
X812265Y412938D01*
X812438Y412890D01*
X812610Y412838D01*
X812632Y412836D01*
X812653Y412830D01*
X812833Y412817D01*
X813010Y412800D01*
X813032Y412803D01*
X813055Y412801D01*
X813234Y412824D01*
X813411Y412842D01*
X813432Y412849D01*
X813454Y412851D01*
X813625Y412909D01*
X813795Y412962D01*
X813815Y412973D01*
X813836Y412980D01*
X813992Y413069D01*
X814148Y413155D01*
X814165Y413169D01*
X814185Y413181D01*
X814438Y413395D01*
X831508Y430466D01*
X831525Y430486D01*
X831546Y430504D01*
X831653Y430642D01*
X831763Y430777D01*
X831776Y430801D01*
X831792Y430822D01*
X831870Y430979D01*
X831952Y431133D01*
X831960Y431158D01*
X831972Y431183D01*
X832017Y431352D01*
X832067Y431519D01*
X832069Y431545D01*
X832076Y431571D01*
X832103Y431902D01*
X832103Y449224D01*
X832101Y449251D01*
X832103Y449277D01*
X832081Y449451D01*
X832063Y449625D01*
X832056Y449650D01*
X832052Y449677D01*
X831997Y449842D01*
X831945Y450009D01*
X831932Y450033D01*
X831924Y450058D01*
X831837Y450210D01*
X831753Y450364D01*
X831736Y450384D01*
X831723Y450407D01*
X831508Y450660D01*
X812102Y470066D01*
X812082Y470083D01*
X812064Y470104D01*
X811926Y470211D01*
X811791Y470321D01*
X811767Y470334D01*
X811746Y470350D01*
X811589Y470428D01*
X811435Y470510D01*
X811410Y470518D01*
X811385Y470530D01*
X811216Y470575D01*
X811049Y470625D01*
X811023Y470627D01*
X810997Y470634D01*
X810666Y470661D01*
X767746Y470661D01*
X765692Y471512D01*
X740468Y496736D01*
X740447Y496753D01*
X740430Y496774D01*
X740292Y496881D01*
X740156Y496991D01*
X740133Y497004D01*
X740112Y497020D01*
X739955Y497098D01*
X739801Y497180D01*
X739775Y497188D01*
X739751Y497200D01*
X739582Y497245D01*
X739415Y497295D01*
X739388Y497297D01*
X739362Y497304D01*
X739032Y497331D01*
X432308Y497331D01*
X432290Y497329D01*
X432272Y497331D01*
X432090Y497310D01*
X431907Y497291D01*
X431890Y497286D01*
X431873Y497284D01*
X431698Y497227D01*
X431522Y497173D01*
X431507Y497165D01*
X431490Y497159D01*
X431330Y497069D01*
X431168Y496981D01*
X431155Y496970D01*
X431139Y496961D01*
X431000Y496841D01*
X430859Y496724D01*
X430848Y496710D01*
X430834Y496698D01*
X430722Y496553D01*
X430607Y496410D01*
X430599Y496394D01*
X430588Y496380D01*
X430506Y496215D01*
X430421Y496053D01*
X430416Y496036D01*
X430408Y496020D01*
X430361Y495841D01*
X430310Y495666D01*
X430308Y495648D01*
X430304Y495631D01*
X430277Y495300D01*
X430277Y492569D01*
X428575Y488461D01*
X425431Y485317D01*
X421323Y483615D01*
X416877Y483615D01*
X412769Y485317D01*
X409625Y488461D01*
X408277Y491716D01*
X408272Y491724D01*
X408270Y491732D01*
X408178Y491900D01*
X408086Y492071D01*
X408081Y492078D01*
X408076Y492085D01*
X407955Y492230D01*
X407830Y492381D01*
X407823Y492387D01*
X407817Y492393D01*
X407667Y492513D01*
X407517Y492635D01*
X407509Y492639D01*
X407503Y492644D01*
X407332Y492732D01*
X407161Y492822D01*
X407152Y492824D01*
X407144Y492828D01*
X406960Y492881D01*
X406774Y492935D01*
X406766Y492936D01*
X406757Y492938D01*
X406566Y492953D01*
X406373Y492969D01*
X406364Y492968D01*
X406356Y492969D01*
X406166Y492946D01*
X405973Y492924D01*
X405965Y492922D01*
X405956Y492920D01*
X405774Y492860D01*
X405590Y492801D01*
X405582Y492797D01*
X405574Y492794D01*
X405406Y492698D01*
X405238Y492605D01*
X405232Y492599D01*
X405224Y492595D01*
X405079Y492468D01*
X404933Y492343D01*
X404927Y492336D01*
X404920Y492330D01*
X404803Y492178D01*
X404684Y492026D01*
X404680Y492018D01*
X404675Y492011D01*
X404523Y491716D01*
X403175Y488461D01*
X400031Y485317D01*
X395923Y483615D01*
X391477Y483615D01*
X391429Y483635D01*
X391416Y483639D01*
X391405Y483645D01*
X391224Y483697D01*
X391044Y483751D01*
X391031Y483753D01*
X391018Y483756D01*
X390829Y483772D01*
X390643Y483790D01*
X390630Y483788D01*
X390616Y483789D01*
X390430Y483767D01*
X390243Y483748D01*
X390230Y483744D01*
X390217Y483742D01*
X390038Y483684D01*
X389858Y483628D01*
X389847Y483622D01*
X389834Y483618D01*
X389670Y483525D01*
X389505Y483435D01*
X389495Y483426D01*
X389483Y483420D01*
X389341Y483297D01*
X389197Y483176D01*
X389189Y483165D01*
X389178Y483156D01*
X389063Y483008D01*
X388946Y482861D01*
X388940Y482849D01*
X388932Y482838D01*
X388847Y482668D01*
X388762Y482503D01*
X388758Y482490D01*
X388752Y482478D01*
X388703Y482295D01*
X388652Y482115D01*
X388651Y482102D01*
X388648Y482089D01*
X388621Y481758D01*
X388621Y387213D01*
X388622Y387199D01*
X388621Y387186D01*
X388642Y386999D01*
X388661Y386812D01*
X388665Y386799D01*
X388666Y386786D01*
X388724Y386607D01*
X388779Y386427D01*
X388785Y386415D01*
X388789Y386403D01*
X388881Y386238D01*
X388971Y386073D01*
X388979Y386063D01*
X388986Y386051D01*
X389108Y385908D01*
X389228Y385764D01*
X389239Y385755D01*
X389248Y385745D01*
X389396Y385629D01*
X389542Y385512D01*
X389554Y385505D01*
X389565Y385497D01*
X389734Y385412D01*
X389899Y385326D01*
X389912Y385322D01*
X389924Y385316D01*
X390106Y385267D01*
X390286Y385215D01*
X390300Y385214D01*
X390313Y385210D01*
X390499Y385197D01*
X390688Y385182D01*
X390701Y385183D01*
X390714Y385182D01*
X390901Y385207D01*
X391087Y385229D01*
X391100Y385233D01*
X391114Y385235D01*
X391429Y385336D01*
X391692Y385445D01*
X395708Y385445D01*
X399419Y383908D01*
X402260Y381067D01*
X403797Y377356D01*
X403797Y359244D01*
X402260Y355533D01*
X399419Y352692D01*
X397163Y351758D01*
X395708Y351155D01*
X391692Y351155D01*
X387981Y352692D01*
X385140Y355533D01*
X383603Y359244D01*
X383603Y371089D01*
X383601Y371115D01*
X383603Y371142D01*
X383581Y371316D01*
X383563Y371489D01*
X383556Y371515D01*
X383552Y371541D01*
X383497Y371707D01*
X383445Y371874D01*
X383432Y371898D01*
X383424Y371923D01*
X383337Y372075D01*
X383253Y372228D01*
X383236Y372249D01*
X383223Y372272D01*
X383008Y372525D01*
X382436Y373097D01*
X382422Y373108D01*
X382411Y373122D01*
X382267Y373236D01*
X382125Y373352D01*
X382109Y373360D01*
X382095Y373371D01*
X381930Y373455D01*
X381769Y373541D01*
X381752Y373546D01*
X381736Y373554D01*
X381558Y373603D01*
X381383Y373655D01*
X381365Y373657D01*
X381348Y373662D01*
X381165Y373675D01*
X380982Y373692D01*
X380964Y373690D01*
X380947Y373691D01*
X380765Y373668D01*
X380582Y373648D01*
X380565Y373643D01*
X380547Y373641D01*
X380374Y373582D01*
X380198Y373527D01*
X380182Y373518D01*
X380166Y373513D01*
X380006Y373421D01*
X379846Y373332D01*
X379832Y373321D01*
X379817Y373312D01*
X379564Y373097D01*
X378992Y372525D01*
X378975Y372504D01*
X378954Y372487D01*
X378847Y372349D01*
X378737Y372213D01*
X378724Y372190D01*
X378708Y372169D01*
X378630Y372012D01*
X378548Y371858D01*
X378540Y371832D01*
X378528Y371808D01*
X378483Y371639D01*
X378433Y371472D01*
X378431Y371445D01*
X378424Y371419D01*
X378397Y371089D01*
X378397Y359244D01*
X376860Y355533D01*
X374019Y352692D01*
X371763Y351758D01*
X370308Y351155D01*
X366292Y351155D01*
X362581Y352692D01*
X359740Y355533D01*
X358203Y359244D01*
X358203Y377356D01*
X359740Y381067D01*
X362581Y383908D01*
X366292Y385445D01*
X370308Y385445D01*
X370571Y385336D01*
X370584Y385332D01*
X370595Y385326D01*
X370775Y385274D01*
X370956Y385220D01*
X370969Y385218D01*
X370982Y385215D01*
X371170Y385199D01*
X371357Y385181D01*
X371370Y385183D01*
X371384Y385182D01*
X371571Y385204D01*
X371757Y385223D01*
X371770Y385227D01*
X371783Y385229D01*
X371962Y385287D01*
X372142Y385343D01*
X372153Y385349D01*
X372166Y385353D01*
X372330Y385446D01*
X372495Y385536D01*
X372505Y385545D01*
X372517Y385551D01*
X372659Y385674D01*
X372803Y385795D01*
X372811Y385806D01*
X372822Y385815D01*
X372937Y385963D01*
X373054Y386110D01*
X373060Y386122D01*
X373068Y386133D01*
X373152Y386301D01*
X373238Y386468D01*
X373242Y386481D01*
X373248Y386493D01*
X373297Y386675D01*
X373348Y386856D01*
X373349Y386869D01*
X373352Y386882D01*
X373379Y387213D01*
X373379Y481758D01*
X373378Y481772D01*
X373379Y481785D01*
X373358Y481970D01*
X373339Y482159D01*
X373335Y482172D01*
X373334Y482185D01*
X373276Y482365D01*
X373221Y482544D01*
X373215Y482556D01*
X373211Y482568D01*
X373119Y482733D01*
X373029Y482898D01*
X373021Y482908D01*
X373014Y482920D01*
X372891Y483063D01*
X372772Y483207D01*
X372761Y483216D01*
X372753Y483226D01*
X372604Y483342D01*
X372458Y483459D01*
X372446Y483466D01*
X372435Y483474D01*
X372267Y483558D01*
X372101Y483645D01*
X372088Y483649D01*
X372076Y483655D01*
X371895Y483704D01*
X371714Y483756D01*
X371700Y483757D01*
X371687Y483761D01*
X371501Y483774D01*
X371312Y483789D01*
X371299Y483788D01*
X371286Y483789D01*
X371100Y483764D01*
X370913Y483742D01*
X370900Y483738D01*
X370887Y483736D01*
X370571Y483635D01*
X370523Y483615D01*
X366077Y483615D01*
X361969Y485317D01*
X358825Y488461D01*
X357441Y491803D01*
X357399Y491881D01*
X357366Y491964D01*
X357304Y492058D01*
X357250Y492158D01*
X357194Y492226D01*
X357145Y492301D01*
X357066Y492381D01*
X356994Y492468D01*
X356925Y492524D01*
X356863Y492587D01*
X356769Y492651D01*
X356681Y492722D01*
X356603Y492763D01*
X356529Y492813D01*
X356425Y492857D01*
X356325Y492909D01*
X356240Y492934D01*
X356158Y492968D01*
X356047Y492990D01*
X355938Y493022D01*
X355850Y493030D01*
X355763Y493047D01*
X355650Y493047D01*
X355537Y493057D01*
X355449Y493047D01*
X355360Y493047D01*
X355249Y493024D01*
X355137Y493011D01*
X355053Y492984D01*
X354966Y492967D01*
X354861Y492923D01*
X354754Y492888D01*
X354676Y492845D01*
X354594Y492811D01*
X354501Y492747D01*
X354402Y492692D01*
X354335Y492634D01*
X354261Y492584D01*
X354182Y492504D01*
X354097Y492430D01*
X354042Y492360D01*
X353980Y492297D01*
X353918Y492202D01*
X353848Y492113D01*
X353808Y492034D01*
X353760Y491959D01*
X353706Y491829D01*
X353668Y491753D01*
X353655Y491709D01*
X353632Y491653D01*
X353258Y490501D01*
X352459Y488934D01*
X351425Y487511D01*
X350181Y486267D01*
X348758Y485233D01*
X347191Y484434D01*
X345517Y483890D01*
X345439Y483878D01*
X345439Y502412D01*
X345437Y502430D01*
X345439Y502447D01*
X345418Y502630D01*
X345399Y502812D01*
X345394Y502829D01*
X345392Y502847D01*
X345367Y502925D01*
X345406Y503062D01*
X345408Y503080D01*
X345412Y503097D01*
X345439Y503428D01*
X345439Y521962D01*
X345517Y521950D01*
X347191Y521406D01*
X348758Y520607D01*
X350181Y519573D01*
X351425Y518329D01*
X352459Y516906D01*
X353258Y515339D01*
X353632Y514187D01*
X353668Y514105D01*
X353694Y514021D01*
X353748Y513922D01*
X353794Y513818D01*
X353845Y513745D01*
X353887Y513668D01*
X353960Y513581D01*
X354025Y513489D01*
X354089Y513427D01*
X354147Y513359D01*
X354235Y513289D01*
X354317Y513211D01*
X354392Y513164D01*
X354461Y513108D01*
X354562Y513057D01*
X354658Y512997D01*
X354741Y512965D01*
X354820Y512924D01*
X354928Y512894D01*
X355034Y512854D01*
X355122Y512839D01*
X355207Y512815D01*
X355319Y512806D01*
X355431Y512788D01*
X355520Y512791D01*
X355608Y512784D01*
X355720Y512797D01*
X355833Y512801D01*
X355920Y512822D01*
X356008Y512832D01*
X356115Y512868D01*
X356225Y512894D01*
X356306Y512931D01*
X356390Y512959D01*
X356488Y513015D01*
X356591Y513062D01*
X356663Y513114D01*
X356740Y513158D01*
X356825Y513233D01*
X356917Y513299D01*
X356976Y513364D01*
X357044Y513423D01*
X357112Y513512D01*
X357189Y513596D01*
X357235Y513672D01*
X357289Y513742D01*
X357353Y513868D01*
X357397Y513940D01*
X357413Y513983D01*
X357441Y514037D01*
X358825Y517379D01*
X361969Y520523D01*
X366077Y522225D01*
X370523Y522225D01*
X374631Y520523D01*
X377775Y517379D01*
X379123Y514124D01*
X379128Y514116D01*
X379130Y514108D01*
X379222Y513940D01*
X379314Y513769D01*
X379319Y513762D01*
X379324Y513755D01*
X379447Y513608D01*
X379570Y513459D01*
X379577Y513453D01*
X379583Y513447D01*
X379733Y513327D01*
X379883Y513205D01*
X379891Y513201D01*
X379897Y513196D01*
X380068Y513108D01*
X380239Y513018D01*
X380248Y513016D01*
X380256Y513012D01*
X380439Y512960D01*
X380625Y512905D01*
X380635Y512904D01*
X380643Y512902D01*
X380834Y512887D01*
X381027Y512871D01*
X381036Y512872D01*
X381044Y512871D01*
X381234Y512894D01*
X381427Y512916D01*
X381435Y512918D01*
X381444Y512919D01*
X381624Y512979D01*
X381810Y513039D01*
X381818Y513043D01*
X381826Y513046D01*
X381992Y513141D01*
X382161Y513235D01*
X382168Y513241D01*
X382176Y513245D01*
X382321Y513372D01*
X382467Y513497D01*
X382473Y513504D01*
X382480Y513510D01*
X382597Y513662D01*
X382716Y513814D01*
X382720Y513822D01*
X382725Y513829D01*
X382877Y514124D01*
X384225Y517379D01*
X387369Y520523D01*
X391477Y522225D01*
X395923Y522225D01*
X400031Y520523D01*
X403175Y517379D01*
X404523Y514124D01*
X404528Y514116D01*
X404530Y514108D01*
X404623Y513938D01*
X404714Y513769D01*
X404719Y513763D01*
X404724Y513755D01*
X404848Y513607D01*
X404970Y513459D01*
X404977Y513453D01*
X404983Y513447D01*
X405133Y513327D01*
X405283Y513205D01*
X405291Y513201D01*
X405298Y513196D01*
X405468Y513108D01*
X405639Y513018D01*
X405648Y513016D01*
X405656Y513012D01*
X405840Y512959D01*
X406026Y512905D01*
X406035Y512904D01*
X406043Y512902D01*
X406234Y512887D01*
X406427Y512871D01*
X406436Y512872D01*
X406444Y512871D01*
X406636Y512894D01*
X406827Y512916D01*
X406835Y512918D01*
X406844Y512920D01*
X407027Y512980D01*
X407210Y513039D01*
X407218Y513043D01*
X407226Y513046D01*
X407394Y513142D01*
X407562Y513235D01*
X407568Y513241D01*
X407576Y513245D01*
X407722Y513373D01*
X407867Y513497D01*
X407873Y513504D01*
X407880Y513510D01*
X407997Y513662D01*
X408116Y513814D01*
X408120Y513822D01*
X408125Y513829D01*
X408277Y514124D01*
X409625Y517379D01*
X412769Y520523D01*
X416877Y522225D01*
X421323Y522225D01*
X425431Y520523D01*
X428575Y517379D01*
X430277Y513271D01*
X430277Y510540D01*
X430279Y510522D01*
X430277Y510504D01*
X430298Y510322D01*
X430317Y510139D01*
X430322Y510122D01*
X430324Y510105D01*
X430381Y509930D01*
X430435Y509754D01*
X430443Y509739D01*
X430449Y509722D01*
X430539Y509562D01*
X430627Y509400D01*
X430638Y509387D01*
X430647Y509371D01*
X430767Y509232D01*
X430884Y509091D01*
X430898Y509080D01*
X430910Y509066D01*
X431055Y508954D01*
X431198Y508839D01*
X431214Y508831D01*
X431228Y508820D01*
X431393Y508738D01*
X431555Y508653D01*
X431572Y508648D01*
X431588Y508640D01*
X431767Y508593D01*
X431942Y508542D01*
X431960Y508540D01*
X431977Y508536D01*
X432308Y508509D01*
X743300Y508509D01*
X745354Y507658D01*
X747211Y505800D01*
X747212Y505800D01*
X770578Y482434D01*
X770599Y482417D01*
X770616Y482396D01*
X770754Y482289D01*
X770890Y482179D01*
X770913Y482166D01*
X770934Y482150D01*
X771091Y482072D01*
X771245Y481990D01*
X771271Y481982D01*
X771295Y481970D01*
X771464Y481925D01*
X771631Y481875D01*
X771658Y481873D01*
X771684Y481866D01*
X772014Y481839D01*
X790876Y481839D01*
X790893Y481840D01*
X790911Y481839D01*
X791094Y481860D01*
X791277Y481879D01*
X791293Y481884D01*
X791311Y481886D01*
X791485Y481942D01*
X791662Y481997D01*
X791677Y482005D01*
X791693Y482010D01*
X791853Y482100D01*
X792016Y482189D01*
X792029Y482200D01*
X792044Y482208D01*
X792184Y482329D01*
X792325Y482446D01*
X792336Y482460D01*
X792349Y482471D01*
X792462Y482617D01*
X792577Y482760D01*
X792585Y482775D01*
X792596Y482789D01*
X792678Y482955D01*
X792763Y483117D01*
X792768Y483134D01*
X792775Y483149D01*
X792823Y483327D01*
X792874Y483504D01*
X792876Y483522D01*
X792880Y483538D01*
X792892Y483722D01*
X792907Y483906D01*
X792905Y483923D01*
X792906Y483940D01*
X792882Y484123D01*
X792860Y484305D01*
X792855Y484322D01*
X792853Y484339D01*
X792793Y484513D01*
X792735Y484688D01*
X792727Y484703D01*
X792721Y484719D01*
X792628Y484878D01*
X792538Y485039D01*
X792526Y485052D01*
X792518Y485067D01*
X792395Y485204D01*
X792274Y485343D01*
X792261Y485354D01*
X792249Y485367D01*
X791987Y485570D01*
X789192Y487397D01*
X782980Y495378D01*
X779696Y504943D01*
X779696Y515057D01*
X782980Y524622D01*
X789192Y532603D01*
X797659Y538135D01*
X807463Y540618D01*
X817542Y539783D01*
X826804Y535720D01*
X834244Y528870D01*
X839058Y519976D01*
X840723Y510000D01*
X839058Y500024D01*
X834244Y491130D01*
X826804Y484280D01*
X820415Y481478D01*
X820246Y481383D01*
X820077Y481289D01*
X820071Y481284D01*
X820064Y481280D01*
X819917Y481153D01*
X819770Y481029D01*
X819765Y481022D01*
X819759Y481017D01*
X819640Y480864D01*
X819520Y480713D01*
X819517Y480706D01*
X819512Y480700D01*
X819425Y480525D01*
X819338Y480354D01*
X819336Y480346D01*
X819332Y480339D01*
X819282Y480153D01*
X819230Y479966D01*
X819229Y479958D01*
X819227Y479951D01*
X819215Y479758D01*
X819200Y479564D01*
X819201Y479557D01*
X819201Y479549D01*
X819227Y479357D01*
X819251Y479165D01*
X819253Y479158D01*
X819254Y479150D01*
X819318Y478966D01*
X819379Y478783D01*
X819383Y478776D01*
X819385Y478769D01*
X819483Y478602D01*
X819580Y478434D01*
X819585Y478428D01*
X819589Y478422D01*
X819621Y478386D01*
X819795Y478181D01*
X840572Y457404D01*
X842430Y455546D01*
X843281Y453492D01*
X843281Y427634D01*
X842430Y425580D01*
X840572Y423722D01*
X820873Y404023D01*
X820862Y404009D01*
X820848Y403998D01*
X820734Y403854D01*
X820618Y403712D01*
X820610Y403696D01*
X820599Y403682D01*
X820515Y403517D01*
X820429Y403356D01*
X820424Y403339D01*
X820416Y403323D01*
X820367Y403145D01*
X820315Y402970D01*
X820313Y402952D01*
X820308Y402935D01*
X820295Y402752D01*
X820278Y402569D01*
X820280Y402551D01*
X820279Y402534D01*
X820302Y402352D01*
X820322Y402169D01*
X820327Y402152D01*
X820329Y402134D01*
X820388Y401961D01*
X820443Y401785D01*
X820452Y401769D01*
X820457Y401752D01*
X820549Y401593D01*
X820638Y401433D01*
X820649Y401419D01*
X820658Y401404D01*
X820873Y401151D01*
X842430Y379594D01*
X843281Y377540D01*
X843281Y322986D01*
X842430Y320932D01*
X822016Y300518D01*
X822005Y300504D01*
X821991Y300493D01*
X821877Y300349D01*
X821761Y300207D01*
X821753Y300191D01*
X821742Y300177D01*
X821658Y300012D01*
X821572Y299851D01*
X821567Y299834D01*
X821559Y299818D01*
X821510Y299640D01*
X821458Y299465D01*
X821456Y299447D01*
X821451Y299430D01*
X821438Y299247D01*
X821421Y299064D01*
X821423Y299046D01*
X821422Y299029D01*
X821445Y298847D01*
X821465Y298664D01*
X821470Y298647D01*
X821472Y298629D01*
X821531Y298455D01*
X821586Y298280D01*
X821595Y298264D01*
X821600Y298247D01*
X821692Y298088D01*
X821781Y297928D01*
X821792Y297914D01*
X821801Y297899D01*
X822016Y297646D01*
X842430Y277232D01*
X843281Y275178D01*
X843281Y222148D01*
X842430Y220094D01*
X823289Y200953D01*
X823278Y200939D01*
X823264Y200928D01*
X823150Y200784D01*
X823034Y200642D01*
X823026Y200626D01*
X823015Y200612D01*
X822931Y200448D01*
X822846Y200286D01*
X822840Y200269D01*
X822832Y200253D01*
X822783Y200076D01*
X822731Y199900D01*
X822729Y199882D01*
X822724Y199865D01*
X822711Y199682D01*
X822694Y199499D01*
X822696Y199481D01*
X822695Y199464D01*
X822718Y199282D01*
X822738Y199099D01*
X822743Y199082D01*
X822745Y199064D01*
X822804Y198890D01*
X822859Y198715D01*
X822868Y198699D01*
X822874Y198683D01*
X822965Y198523D01*
X823054Y198363D01*
X823066Y198349D01*
X823075Y198334D01*
X823289Y198081D01*
X842430Y178940D01*
X843281Y176886D01*
X843281Y121310D01*
X842430Y119256D01*
X817085Y93911D01*
X817065Y93887D01*
X817042Y93866D01*
X816938Y93731D01*
X816830Y93600D01*
X816815Y93572D01*
X816796Y93547D01*
X816645Y93252D01*
X815439Y90342D01*
X811866Y86769D01*
X809199Y85664D01*
X807198Y84835D01*
X791064Y84835D01*
X791038Y84833D01*
X791011Y84835D01*
X790837Y84813D01*
X790664Y84795D01*
X790638Y84788D01*
X790612Y84784D01*
X790446Y84729D01*
X790279Y84677D01*
X790255Y84664D01*
X790230Y84656D01*
X790078Y84569D01*
X789925Y84485D01*
X789904Y84468D01*
X789881Y84455D01*
X789628Y84240D01*
X757546Y52158D01*
X755492Y51307D01*
X396856Y51307D01*
X396830Y51305D01*
X396803Y51307D01*
X396629Y51285D01*
X396456Y51267D01*
X396430Y51260D01*
X396404Y51256D01*
X396238Y51201D01*
X396071Y51149D01*
X396047Y51136D01*
X396022Y51128D01*
X395870Y51041D01*
X395717Y50957D01*
X395696Y50940D01*
X395673Y50927D01*
X395420Y50712D01*
X381372Y36664D01*
X379318Y35813D01*
X84560Y35813D01*
X82506Y36664D01*
X73529Y45641D01*
X73392Y45753D01*
X73258Y45868D01*
X73236Y45880D01*
X73217Y45896D01*
X73061Y45979D01*
X72907Y46065D01*
X72883Y46073D01*
X72861Y46085D01*
X72692Y46135D01*
X72524Y46190D01*
X72499Y46192D01*
X72475Y46200D01*
X72299Y46216D01*
X72124Y46236D01*
X72099Y46234D01*
X72075Y46236D01*
X71898Y46217D01*
X71723Y46202D01*
X71699Y46195D01*
X71674Y46193D01*
X71506Y46139D01*
X71336Y46090D01*
X71314Y46079D01*
X71290Y46071D01*
X71136Y45986D01*
X70979Y45904D01*
X70960Y45888D01*
X70938Y45876D01*
X70804Y45762D01*
X70666Y45651D01*
X70650Y45632D01*
X70631Y45616D01*
X70522Y45477D01*
X70409Y45341D01*
X70397Y45319D01*
X70381Y45300D01*
X70301Y45142D01*
X70218Y44987D01*
X70210Y44963D01*
X70199Y44941D01*
X70152Y44770D01*
X70100Y44602D01*
X70098Y44577D01*
X70091Y44553D01*
X70078Y44376D01*
X70061Y44201D01*
X70063Y44174D01*
X70062Y44152D01*
X70072Y44070D01*
X70089Y43870D01*
X70735Y40000D01*
X69069Y30021D01*
X64254Y21122D01*
X56810Y14270D01*
X47545Y10206D01*
X37462Y9370D01*
X27654Y11854D01*
G37*
%LPD*%
%LPC*%
G36*
X112077Y51815D02*
X112077Y51815D01*
X107969Y53517D01*
X104825Y56661D01*
X103441Y60003D01*
X103399Y60081D01*
X103366Y60164D01*
X103304Y60258D01*
X103250Y60358D01*
X103194Y60426D01*
X103145Y60500D01*
X103066Y60581D01*
X102994Y60668D01*
X102925Y60724D01*
X102863Y60787D01*
X102769Y60851D01*
X102681Y60922D01*
X102603Y60963D01*
X102529Y61013D01*
X102425Y61056D01*
X102325Y61109D01*
X102240Y61134D01*
X102158Y61168D01*
X102047Y61190D01*
X101938Y61222D01*
X101850Y61230D01*
X101763Y61247D01*
X101650Y61247D01*
X101537Y61257D01*
X101449Y61247D01*
X101360Y61247D01*
X101249Y61224D01*
X101137Y61211D01*
X101053Y61184D01*
X100966Y61167D01*
X100861Y61123D01*
X100754Y61088D01*
X100676Y61045D01*
X100595Y61011D01*
X100501Y60947D01*
X100402Y60892D01*
X100335Y60834D01*
X100261Y60784D01*
X100182Y60704D01*
X100097Y60630D01*
X100042Y60560D01*
X99980Y60497D01*
X99918Y60402D01*
X99848Y60313D01*
X99808Y60234D01*
X99760Y60159D01*
X99706Y60029D01*
X99668Y59953D01*
X99655Y59909D01*
X99632Y59853D01*
X99258Y58702D01*
X98459Y57134D01*
X97425Y55711D01*
X96181Y54467D01*
X94758Y53433D01*
X93191Y52634D01*
X91517Y52090D01*
X91439Y52078D01*
X91439Y70612D01*
X91437Y70630D01*
X91439Y70647D01*
X91418Y70830D01*
X91399Y71012D01*
X91394Y71029D01*
X91392Y71047D01*
X91367Y71125D01*
X91406Y71262D01*
X91408Y71280D01*
X91412Y71297D01*
X91439Y71628D01*
X91439Y90162D01*
X91517Y90150D01*
X93191Y89606D01*
X94758Y88807D01*
X96181Y87773D01*
X97425Y86529D01*
X98459Y85106D01*
X99258Y83538D01*
X99632Y82387D01*
X99668Y82305D01*
X99694Y82221D01*
X99748Y82122D01*
X99794Y82018D01*
X99845Y81945D01*
X99887Y81868D01*
X99960Y81781D01*
X100025Y81689D01*
X100089Y81627D01*
X100147Y81559D01*
X100235Y81489D01*
X100317Y81411D01*
X100392Y81364D01*
X100461Y81308D01*
X100562Y81257D01*
X100658Y81197D01*
X100741Y81165D01*
X100820Y81125D01*
X100928Y81094D01*
X101034Y81054D01*
X101122Y81039D01*
X101207Y81015D01*
X101319Y81006D01*
X101431Y80988D01*
X101520Y80991D01*
X101608Y80984D01*
X101720Y80997D01*
X101833Y81001D01*
X101920Y81022D01*
X102008Y81032D01*
X102115Y81068D01*
X102225Y81094D01*
X102306Y81131D01*
X102390Y81159D01*
X102489Y81215D01*
X102591Y81262D01*
X102663Y81314D01*
X102740Y81358D01*
X102825Y81433D01*
X102917Y81499D01*
X102977Y81564D01*
X103044Y81623D01*
X103112Y81712D01*
X103189Y81796D01*
X103235Y81872D01*
X103289Y81942D01*
X103353Y82067D01*
X103397Y82140D01*
X103413Y82184D01*
X103441Y82237D01*
X104825Y85579D01*
X107969Y88723D01*
X108727Y89037D01*
X108747Y89048D01*
X108768Y89055D01*
X108924Y89143D01*
X109082Y89228D01*
X109099Y89242D01*
X109119Y89253D01*
X109254Y89370D01*
X109393Y89484D01*
X109407Y89501D01*
X109424Y89516D01*
X109533Y89657D01*
X109646Y89797D01*
X109657Y89816D01*
X109670Y89834D01*
X109750Y89995D01*
X109833Y90153D01*
X109840Y90174D01*
X109850Y90194D01*
X109896Y90368D01*
X109946Y90540D01*
X109948Y90562D01*
X109954Y90583D01*
X109981Y90914D01*
X109981Y198355D01*
X109979Y198377D01*
X109981Y198399D01*
X109959Y198577D01*
X109941Y198756D01*
X109935Y198777D01*
X109932Y198799D01*
X109876Y198968D01*
X109823Y199141D01*
X109813Y199160D01*
X109806Y199181D01*
X109717Y199337D01*
X109631Y199495D01*
X109617Y199512D01*
X109606Y199531D01*
X109488Y199667D01*
X109374Y199804D01*
X109356Y199818D01*
X109342Y199835D01*
X109200Y199944D01*
X109060Y200056D01*
X109040Y200066D01*
X109022Y200080D01*
X108727Y200232D01*
X108581Y200292D01*
X105740Y203133D01*
X104203Y206844D01*
X104203Y224956D01*
X105740Y228667D01*
X108581Y231508D01*
X112292Y233045D01*
X116308Y233045D01*
X120019Y231508D01*
X122860Y228667D01*
X124397Y224956D01*
X124397Y206844D01*
X122860Y203133D01*
X119757Y200030D01*
X119717Y199998D01*
X119702Y199979D01*
X119684Y199964D01*
X119576Y199823D01*
X119463Y199685D01*
X119452Y199664D01*
X119438Y199645D01*
X119359Y199487D01*
X119276Y199329D01*
X119269Y199306D01*
X119258Y199285D01*
X119212Y199114D01*
X119162Y198943D01*
X119160Y198919D01*
X119154Y198896D01*
X119127Y198565D01*
X119127Y90704D01*
X119129Y90681D01*
X119127Y90659D01*
X119149Y90481D01*
X119167Y90303D01*
X119173Y90282D01*
X119176Y90259D01*
X119233Y90088D01*
X119285Y89918D01*
X119295Y89898D01*
X119302Y89877D01*
X119391Y89721D01*
X119477Y89564D01*
X119491Y89547D01*
X119502Y89527D01*
X119620Y89392D01*
X119734Y89255D01*
X119752Y89241D01*
X119766Y89224D01*
X119909Y89114D01*
X120048Y89002D01*
X120068Y88992D01*
X120086Y88978D01*
X120381Y88827D01*
X120631Y88723D01*
X123775Y85579D01*
X125123Y82324D01*
X125128Y82316D01*
X125130Y82308D01*
X125223Y82138D01*
X125314Y81969D01*
X125319Y81962D01*
X125324Y81955D01*
X125447Y81807D01*
X125570Y81659D01*
X125577Y81653D01*
X125583Y81647D01*
X125734Y81526D01*
X125883Y81405D01*
X125890Y81401D01*
X125898Y81396D01*
X126071Y81306D01*
X126239Y81218D01*
X126248Y81216D01*
X126256Y81212D01*
X126442Y81159D01*
X126626Y81105D01*
X126635Y81104D01*
X126643Y81102D01*
X126834Y81087D01*
X127027Y81071D01*
X127036Y81072D01*
X127044Y81071D01*
X127236Y81094D01*
X127427Y81116D01*
X127435Y81118D01*
X127444Y81119D01*
X127627Y81180D01*
X127810Y81239D01*
X127818Y81243D01*
X127826Y81246D01*
X127993Y81341D01*
X128162Y81435D01*
X128168Y81441D01*
X128176Y81445D01*
X128320Y81571D01*
X128467Y81697D01*
X128473Y81704D01*
X128480Y81710D01*
X128597Y81862D01*
X128716Y82014D01*
X128720Y82022D01*
X128725Y82029D01*
X128877Y82324D01*
X130225Y85579D01*
X133369Y88723D01*
X133873Y88932D01*
X133893Y88943D01*
X133914Y88950D01*
X134071Y89038D01*
X134228Y89122D01*
X134245Y89136D01*
X134265Y89147D01*
X134401Y89265D01*
X134539Y89379D01*
X134553Y89396D01*
X134570Y89411D01*
X134679Y89552D01*
X134792Y89691D01*
X134803Y89711D01*
X134816Y89729D01*
X134896Y89889D01*
X134979Y90048D01*
X134986Y90069D01*
X134996Y90089D01*
X135042Y90263D01*
X135092Y90434D01*
X135094Y90456D01*
X135100Y90478D01*
X135127Y90809D01*
X135127Y198460D01*
X135125Y198483D01*
X135127Y198505D01*
X135105Y198682D01*
X135087Y198861D01*
X135081Y198882D01*
X135078Y198904D01*
X135022Y199075D01*
X134969Y199246D01*
X134959Y199265D01*
X134952Y199287D01*
X134863Y199442D01*
X134777Y199600D01*
X134763Y199617D01*
X134752Y199636D01*
X134635Y199771D01*
X134520Y199909D01*
X134502Y199923D01*
X134488Y199940D01*
X134346Y200049D01*
X134206Y200161D01*
X134186Y200172D01*
X134168Y200185D01*
X134003Y200270D01*
X131140Y203133D01*
X129603Y206844D01*
X129603Y224956D01*
X131140Y228667D01*
X133981Y231508D01*
X137692Y233045D01*
X141708Y233045D01*
X145419Y231508D01*
X148260Y228667D01*
X149797Y224956D01*
X149797Y206844D01*
X148260Y203133D01*
X145395Y200268D01*
X145330Y200231D01*
X145172Y200147D01*
X145155Y200132D01*
X145135Y200122D01*
X145000Y200004D01*
X144861Y199890D01*
X144847Y199873D01*
X144830Y199858D01*
X144721Y199717D01*
X144608Y199578D01*
X144597Y199558D01*
X144584Y199540D01*
X144504Y199380D01*
X144421Y199221D01*
X144414Y199200D01*
X144404Y199180D01*
X144358Y199006D01*
X144308Y198835D01*
X144306Y198813D01*
X144300Y198791D01*
X144273Y198460D01*
X144273Y90809D01*
X144275Y90786D01*
X144273Y90764D01*
X144295Y90587D01*
X144313Y90408D01*
X144319Y90387D01*
X144322Y90365D01*
X144378Y90195D01*
X144431Y90023D01*
X144441Y90004D01*
X144448Y89982D01*
X144537Y89827D01*
X144623Y89669D01*
X144637Y89652D01*
X144648Y89633D01*
X144765Y89498D01*
X144880Y89360D01*
X144898Y89346D01*
X144912Y89329D01*
X145054Y89220D01*
X145194Y89108D01*
X145214Y89097D01*
X145232Y89084D01*
X145527Y88932D01*
X146031Y88723D01*
X149175Y85579D01*
X150523Y82324D01*
X150528Y82316D01*
X150530Y82308D01*
X150623Y82138D01*
X150714Y81969D01*
X150719Y81962D01*
X150724Y81955D01*
X150847Y81807D01*
X150970Y81659D01*
X150977Y81653D01*
X150983Y81647D01*
X151134Y81526D01*
X151283Y81405D01*
X151290Y81401D01*
X151298Y81396D01*
X151471Y81306D01*
X151639Y81218D01*
X151648Y81216D01*
X151656Y81212D01*
X151842Y81159D01*
X152026Y81105D01*
X152035Y81104D01*
X152043Y81102D01*
X152234Y81087D01*
X152427Y81071D01*
X152436Y81072D01*
X152444Y81071D01*
X152636Y81094D01*
X152827Y81116D01*
X152835Y81118D01*
X152844Y81119D01*
X153027Y81180D01*
X153210Y81239D01*
X153218Y81243D01*
X153226Y81246D01*
X153393Y81341D01*
X153562Y81435D01*
X153568Y81441D01*
X153576Y81445D01*
X153720Y81571D01*
X153867Y81697D01*
X153873Y81704D01*
X153880Y81710D01*
X153997Y81862D01*
X154116Y82014D01*
X154120Y82022D01*
X154125Y82029D01*
X154277Y82324D01*
X155625Y85579D01*
X158769Y88723D01*
X159273Y88932D01*
X159293Y88943D01*
X159314Y88950D01*
X159471Y89038D01*
X159628Y89122D01*
X159645Y89136D01*
X159665Y89147D01*
X159801Y89265D01*
X159939Y89379D01*
X159953Y89396D01*
X159970Y89411D01*
X160079Y89552D01*
X160192Y89691D01*
X160203Y89711D01*
X160216Y89729D01*
X160296Y89889D01*
X160379Y90048D01*
X160386Y90069D01*
X160396Y90089D01*
X160442Y90263D01*
X160492Y90434D01*
X160494Y90456D01*
X160500Y90478D01*
X160527Y90809D01*
X160527Y198460D01*
X160525Y198483D01*
X160527Y198505D01*
X160505Y198682D01*
X160487Y198861D01*
X160481Y198882D01*
X160478Y198904D01*
X160422Y199075D01*
X160369Y199246D01*
X160359Y199265D01*
X160352Y199287D01*
X160263Y199442D01*
X160177Y199600D01*
X160163Y199617D01*
X160152Y199636D01*
X160035Y199771D01*
X159920Y199909D01*
X159902Y199923D01*
X159888Y199940D01*
X159746Y200049D01*
X159606Y200161D01*
X159586Y200172D01*
X159568Y200185D01*
X159403Y200270D01*
X156540Y203133D01*
X155003Y206844D01*
X155003Y224956D01*
X156540Y228667D01*
X159381Y231508D01*
X163092Y233045D01*
X167108Y233045D01*
X170819Y231508D01*
X173660Y228667D01*
X175197Y224956D01*
X175197Y206844D01*
X173660Y203133D01*
X170795Y200268D01*
X170730Y200231D01*
X170572Y200147D01*
X170555Y200132D01*
X170535Y200122D01*
X170400Y200004D01*
X170261Y199890D01*
X170247Y199873D01*
X170230Y199858D01*
X170121Y199717D01*
X170008Y199578D01*
X169997Y199558D01*
X169984Y199540D01*
X169904Y199380D01*
X169821Y199221D01*
X169814Y199200D01*
X169804Y199180D01*
X169758Y199006D01*
X169708Y198835D01*
X169706Y198813D01*
X169700Y198791D01*
X169673Y198460D01*
X169673Y90809D01*
X169675Y90786D01*
X169673Y90764D01*
X169695Y90587D01*
X169713Y90408D01*
X169719Y90387D01*
X169722Y90365D01*
X169778Y90195D01*
X169831Y90023D01*
X169841Y90004D01*
X169848Y89982D01*
X169937Y89827D01*
X170023Y89669D01*
X170037Y89652D01*
X170048Y89633D01*
X170165Y89498D01*
X170280Y89360D01*
X170298Y89346D01*
X170312Y89329D01*
X170454Y89220D01*
X170594Y89108D01*
X170614Y89097D01*
X170632Y89084D01*
X170927Y88932D01*
X171431Y88723D01*
X174575Y85579D01*
X175923Y82324D01*
X175928Y82316D01*
X175930Y82308D01*
X176023Y82138D01*
X176114Y81969D01*
X176119Y81962D01*
X176124Y81955D01*
X176247Y81807D01*
X176370Y81659D01*
X176377Y81653D01*
X176383Y81647D01*
X176534Y81526D01*
X176683Y81405D01*
X176690Y81401D01*
X176698Y81396D01*
X176871Y81306D01*
X177039Y81218D01*
X177048Y81216D01*
X177056Y81212D01*
X177242Y81159D01*
X177426Y81105D01*
X177435Y81104D01*
X177443Y81102D01*
X177634Y81087D01*
X177827Y81071D01*
X177836Y81072D01*
X177844Y81071D01*
X178036Y81094D01*
X178227Y81116D01*
X178235Y81118D01*
X178244Y81119D01*
X178427Y81180D01*
X178610Y81239D01*
X178618Y81243D01*
X178626Y81246D01*
X178793Y81341D01*
X178962Y81435D01*
X178968Y81441D01*
X178976Y81445D01*
X179120Y81571D01*
X179267Y81697D01*
X179273Y81704D01*
X179280Y81710D01*
X179397Y81862D01*
X179516Y82014D01*
X179520Y82022D01*
X179525Y82029D01*
X179677Y82324D01*
X181025Y85579D01*
X184169Y88723D01*
X184673Y88932D01*
X184693Y88943D01*
X184714Y88950D01*
X184871Y89038D01*
X185028Y89122D01*
X185045Y89136D01*
X185065Y89147D01*
X185201Y89265D01*
X185339Y89379D01*
X185353Y89396D01*
X185370Y89411D01*
X185479Y89552D01*
X185592Y89691D01*
X185603Y89711D01*
X185616Y89729D01*
X185696Y89889D01*
X185779Y90048D01*
X185786Y90069D01*
X185796Y90089D01*
X185842Y90263D01*
X185892Y90434D01*
X185894Y90456D01*
X185900Y90478D01*
X185927Y90809D01*
X185927Y198460D01*
X185925Y198483D01*
X185927Y198505D01*
X185905Y198682D01*
X185887Y198861D01*
X185881Y198882D01*
X185878Y198904D01*
X185822Y199075D01*
X185769Y199246D01*
X185759Y199265D01*
X185752Y199287D01*
X185663Y199442D01*
X185577Y199600D01*
X185563Y199617D01*
X185552Y199636D01*
X185435Y199771D01*
X185320Y199909D01*
X185302Y199923D01*
X185288Y199940D01*
X185146Y200049D01*
X185006Y200161D01*
X184986Y200172D01*
X184968Y200185D01*
X184803Y200270D01*
X181940Y203133D01*
X180403Y206844D01*
X180403Y224956D01*
X181940Y228667D01*
X184781Y231508D01*
X187301Y232551D01*
X187312Y232558D01*
X187325Y232562D01*
X187490Y232653D01*
X187656Y232742D01*
X187666Y232750D01*
X187678Y232757D01*
X187820Y232878D01*
X187966Y232998D01*
X187974Y233008D01*
X187985Y233017D01*
X188101Y233165D01*
X188220Y233311D01*
X188226Y233323D01*
X188234Y233333D01*
X188320Y233501D01*
X188407Y233667D01*
X188411Y233680D01*
X188417Y233692D01*
X188467Y233874D01*
X188520Y234054D01*
X188521Y234067D01*
X188525Y234080D01*
X188538Y234267D01*
X188555Y234455D01*
X188553Y234468D01*
X188554Y234481D01*
X188530Y234670D01*
X188509Y234855D01*
X188505Y234867D01*
X188504Y234881D01*
X188444Y235059D01*
X188386Y235238D01*
X188380Y235250D01*
X188375Y235263D01*
X188281Y235426D01*
X188190Y235590D01*
X188181Y235600D01*
X188174Y235611D01*
X187960Y235864D01*
X157715Y266109D01*
X156143Y267681D01*
X155447Y269361D01*
X155447Y299653D01*
X155445Y299679D01*
X155447Y299706D01*
X155425Y299880D01*
X155407Y300053D01*
X155400Y300079D01*
X155396Y300105D01*
X155341Y300271D01*
X155289Y300438D01*
X155276Y300462D01*
X155268Y300487D01*
X155181Y300639D01*
X155097Y300792D01*
X155080Y300813D01*
X155067Y300836D01*
X154852Y301089D01*
X117573Y338368D01*
X117552Y338385D01*
X117535Y338406D01*
X117397Y338513D01*
X117261Y338623D01*
X117238Y338636D01*
X117217Y338652D01*
X117060Y338730D01*
X116906Y338812D01*
X116880Y338820D01*
X116856Y338832D01*
X116687Y338877D01*
X116520Y338927D01*
X116493Y338929D01*
X116467Y338936D01*
X116137Y338963D01*
X104895Y338963D01*
X103215Y339659D01*
X101643Y341231D01*
X94279Y348595D01*
X92638Y350236D01*
X92627Y350256D01*
X92613Y350273D01*
X92602Y350293D01*
X92485Y350428D01*
X92371Y350567D01*
X92353Y350581D01*
X92339Y350598D01*
X92197Y350707D01*
X92058Y350820D01*
X92038Y350831D01*
X92021Y350844D01*
X91860Y350924D01*
X91701Y351007D01*
X91680Y351014D01*
X91660Y351024D01*
X91486Y351070D01*
X91315Y351120D01*
X91293Y351122D01*
X91271Y351128D01*
X90941Y351155D01*
X86892Y351155D01*
X83181Y352692D01*
X80340Y355533D01*
X78803Y359244D01*
X78803Y377356D01*
X79727Y379587D01*
X79729Y379594D01*
X79733Y379601D01*
X79734Y379606D01*
X79737Y379611D01*
X79789Y379791D01*
X79844Y379972D01*
X79845Y379985D01*
X79849Y379998D01*
X79864Y380186D01*
X79882Y380373D01*
X79880Y380386D01*
X79881Y380400D01*
X79860Y380586D01*
X79840Y380773D01*
X79836Y380786D01*
X79835Y380799D01*
X79776Y380979D01*
X79720Y381158D01*
X79714Y381169D01*
X79710Y381182D01*
X79617Y381346D01*
X79527Y381511D01*
X79518Y381521D01*
X79512Y381533D01*
X79389Y381675D01*
X79268Y381819D01*
X79257Y381827D01*
X79249Y381838D01*
X79101Y381952D01*
X78953Y382070D01*
X78941Y382076D01*
X78931Y382084D01*
X78762Y382168D01*
X78595Y382254D01*
X78582Y382258D01*
X78570Y382264D01*
X78387Y382313D01*
X78207Y382364D01*
X78194Y382365D01*
X78181Y382368D01*
X77850Y382395D01*
X74550Y382395D01*
X74536Y382394D01*
X74523Y382395D01*
X74337Y382374D01*
X74149Y382355D01*
X74136Y382351D01*
X74123Y382350D01*
X73945Y382293D01*
X73764Y382237D01*
X73752Y382231D01*
X73739Y382227D01*
X73576Y382135D01*
X73410Y382045D01*
X73400Y382037D01*
X73388Y382030D01*
X73245Y381908D01*
X73101Y381788D01*
X73092Y381777D01*
X73082Y381769D01*
X72966Y381620D01*
X72848Y381474D01*
X72842Y381462D01*
X72834Y381452D01*
X72749Y381282D01*
X72663Y381117D01*
X72659Y381104D01*
X72653Y381092D01*
X72603Y380909D01*
X72551Y380730D01*
X72550Y380716D01*
X72547Y380703D01*
X72534Y380515D01*
X72519Y380328D01*
X72520Y380315D01*
X72519Y380302D01*
X72544Y380114D01*
X72565Y379929D01*
X72570Y379916D01*
X72571Y379903D01*
X72673Y379587D01*
X73597Y377356D01*
X73597Y359244D01*
X72060Y355533D01*
X69219Y352692D01*
X66963Y351758D01*
X65508Y351155D01*
X61492Y351155D01*
X57781Y352692D01*
X54940Y355533D01*
X53403Y359244D01*
X53403Y370314D01*
X53402Y370323D01*
X53403Y370332D01*
X53382Y370525D01*
X53363Y370714D01*
X53361Y370723D01*
X53360Y370732D01*
X53301Y370916D01*
X53245Y371099D01*
X53241Y371107D01*
X53238Y371116D01*
X53145Y371284D01*
X53053Y371453D01*
X53048Y371460D01*
X53043Y371468D01*
X52919Y371615D01*
X52796Y371763D01*
X52789Y371768D01*
X52783Y371775D01*
X52631Y371895D01*
X52482Y372015D01*
X52474Y372019D01*
X52467Y372025D01*
X52294Y372112D01*
X52125Y372200D01*
X52116Y372203D01*
X52108Y372207D01*
X51922Y372259D01*
X51738Y372312D01*
X51729Y372313D01*
X51720Y372315D01*
X51527Y372329D01*
X51336Y372345D01*
X51328Y372344D01*
X51319Y372344D01*
X51126Y372320D01*
X50937Y372298D01*
X50928Y372295D01*
X50919Y372294D01*
X50737Y372233D01*
X50554Y372173D01*
X50546Y372169D01*
X50538Y372166D01*
X50371Y372070D01*
X50203Y371975D01*
X50196Y371969D01*
X50189Y371965D01*
X49936Y371750D01*
X48792Y370606D01*
X48775Y370585D01*
X48754Y370568D01*
X48647Y370430D01*
X48537Y370295D01*
X48524Y370271D01*
X48508Y370250D01*
X48430Y370093D01*
X48348Y369939D01*
X48340Y369913D01*
X48328Y369889D01*
X48283Y369720D01*
X48233Y369553D01*
X48231Y369526D01*
X48224Y369500D01*
X48197Y369170D01*
X48197Y359244D01*
X46660Y355533D01*
X43819Y352692D01*
X41563Y351758D01*
X40108Y351155D01*
X36092Y351155D01*
X32381Y352692D01*
X29540Y355533D01*
X28003Y359244D01*
X28003Y377356D01*
X29540Y381067D01*
X32381Y383908D01*
X36092Y385445D01*
X40108Y385445D01*
X43819Y383908D01*
X45053Y382674D01*
X45067Y382662D01*
X45079Y382649D01*
X45223Y382535D01*
X45365Y382419D01*
X45380Y382410D01*
X45394Y382399D01*
X45559Y382316D01*
X45720Y382230D01*
X45737Y382225D01*
X45753Y382217D01*
X45931Y382167D01*
X46106Y382115D01*
X46124Y382114D01*
X46141Y382109D01*
X46324Y382095D01*
X46507Y382079D01*
X46525Y382081D01*
X46543Y382080D01*
X46725Y382102D01*
X46908Y382122D01*
X46925Y382128D01*
X46942Y382130D01*
X47116Y382188D01*
X47291Y382244D01*
X47307Y382252D01*
X47324Y382258D01*
X47483Y382350D01*
X47644Y382439D01*
X47657Y382450D01*
X47673Y382459D01*
X47926Y382674D01*
X60621Y395369D01*
X62193Y396941D01*
X63873Y397637D01*
X97148Y397637D01*
X98828Y396941D01*
X103633Y392136D01*
X103654Y392119D01*
X103672Y392098D01*
X103810Y391991D01*
X103945Y391881D01*
X103969Y391868D01*
X103990Y391852D01*
X104147Y391774D01*
X104301Y391692D01*
X104326Y391684D01*
X104350Y391672D01*
X104520Y391627D01*
X104687Y391577D01*
X104713Y391575D01*
X104739Y391568D01*
X105070Y391541D01*
X120023Y391541D01*
X121703Y390845D01*
X129874Y382674D01*
X129888Y382662D01*
X129900Y382649D01*
X130044Y382535D01*
X130186Y382419D01*
X130201Y382410D01*
X130216Y382399D01*
X130380Y382316D01*
X130541Y382230D01*
X130559Y382225D01*
X130574Y382217D01*
X130752Y382168D01*
X130927Y382115D01*
X130945Y382114D01*
X130962Y382109D01*
X131145Y382095D01*
X131328Y382079D01*
X131346Y382081D01*
X131364Y382080D01*
X131546Y382102D01*
X131729Y382122D01*
X131746Y382128D01*
X131763Y382130D01*
X131937Y382188D01*
X132112Y382244D01*
X132128Y382252D01*
X132145Y382258D01*
X132304Y382350D01*
X132465Y382439D01*
X132478Y382450D01*
X132494Y382459D01*
X132747Y382674D01*
X133981Y383908D01*
X137692Y385445D01*
X141708Y385445D01*
X145419Y383908D01*
X148260Y381067D01*
X149797Y377356D01*
X149797Y359244D01*
X148260Y355533D01*
X145419Y352692D01*
X143163Y351758D01*
X141708Y351155D01*
X140897Y351155D01*
X140888Y351154D01*
X140879Y351155D01*
X140685Y351134D01*
X140496Y351115D01*
X140488Y351113D01*
X140479Y351112D01*
X140294Y351053D01*
X140111Y350997D01*
X140103Y350993D01*
X140095Y350990D01*
X139926Y350897D01*
X139757Y350805D01*
X139750Y350800D01*
X139742Y350795D01*
X139595Y350671D01*
X139448Y350548D01*
X139442Y350541D01*
X139435Y350535D01*
X139316Y350383D01*
X139195Y350234D01*
X139191Y350226D01*
X139186Y350219D01*
X139098Y350046D01*
X139010Y349877D01*
X139007Y349868D01*
X139003Y349860D01*
X138951Y349674D01*
X138899Y349490D01*
X138898Y349481D01*
X138895Y349472D01*
X138881Y349279D01*
X138866Y349088D01*
X138867Y349080D01*
X138866Y349071D01*
X138890Y348878D01*
X138913Y348689D01*
X138915Y348680D01*
X138916Y348671D01*
X138978Y348489D01*
X139037Y348306D01*
X139042Y348298D01*
X139045Y348290D01*
X139141Y348123D01*
X139235Y347955D01*
X139241Y347948D01*
X139246Y347941D01*
X139460Y347688D01*
X174517Y312631D01*
X176089Y311059D01*
X176785Y309379D01*
X176785Y278057D01*
X176787Y278030D01*
X176785Y278003D01*
X176807Y277829D01*
X176825Y277656D01*
X176832Y277630D01*
X176836Y277604D01*
X176891Y277438D01*
X176943Y277271D01*
X176956Y277247D01*
X176964Y277222D01*
X177051Y277070D01*
X177135Y276917D01*
X177152Y276896D01*
X177165Y276873D01*
X177380Y276620D01*
X208168Y245832D01*
X208189Y245815D01*
X208206Y245794D01*
X208344Y245687D01*
X208480Y245577D01*
X208503Y245564D01*
X208524Y245548D01*
X208681Y245470D01*
X208835Y245388D01*
X208861Y245380D01*
X208885Y245368D01*
X209054Y245323D01*
X209221Y245273D01*
X209248Y245271D01*
X209274Y245264D01*
X209605Y245237D01*
X224148Y245237D01*
X225828Y244541D01*
X231542Y238827D01*
X231560Y238813D01*
X231574Y238796D01*
X231715Y238685D01*
X231854Y238572D01*
X231874Y238561D01*
X231891Y238547D01*
X232052Y238467D01*
X232210Y238383D01*
X232231Y238377D01*
X232251Y238367D01*
X232424Y238319D01*
X232596Y238268D01*
X232618Y238266D01*
X232639Y238260D01*
X232818Y238248D01*
X232996Y238232D01*
X233019Y238234D01*
X233041Y238233D01*
X233219Y238256D01*
X233397Y238275D01*
X233418Y238282D01*
X233440Y238285D01*
X233756Y238386D01*
X235577Y239141D01*
X247023Y239141D01*
X248703Y238445D01*
X256874Y230274D01*
X256888Y230262D01*
X256900Y230249D01*
X257044Y230135D01*
X257186Y230019D01*
X257201Y230010D01*
X257215Y229999D01*
X257380Y229916D01*
X257541Y229830D01*
X257558Y229825D01*
X257574Y229817D01*
X257752Y229768D01*
X257927Y229715D01*
X257945Y229714D01*
X257962Y229709D01*
X258145Y229695D01*
X258328Y229679D01*
X258346Y229681D01*
X258364Y229680D01*
X258546Y229702D01*
X258729Y229722D01*
X258746Y229728D01*
X258763Y229730D01*
X258937Y229788D01*
X259112Y229844D01*
X259128Y229852D01*
X259145Y229858D01*
X259304Y229950D01*
X259465Y230039D01*
X259478Y230050D01*
X259494Y230059D01*
X259747Y230274D01*
X260981Y231508D01*
X264692Y233045D01*
X268708Y233045D01*
X272419Y231508D01*
X275260Y228667D01*
X276797Y224956D01*
X276797Y206844D01*
X275260Y203133D01*
X272419Y200292D01*
X270299Y199414D01*
X269730Y199179D01*
X269718Y199172D01*
X269706Y199168D01*
X269541Y199077D01*
X269375Y198988D01*
X269365Y198980D01*
X269353Y198973D01*
X269210Y198852D01*
X269065Y198732D01*
X269057Y198722D01*
X269046Y198713D01*
X268930Y198565D01*
X268811Y198419D01*
X268805Y198407D01*
X268797Y198397D01*
X268712Y198230D01*
X268624Y198063D01*
X268620Y198050D01*
X268614Y198038D01*
X268564Y197857D01*
X268511Y197676D01*
X268510Y197663D01*
X268506Y197650D01*
X268493Y197461D01*
X268476Y197275D01*
X268478Y197262D01*
X268477Y197249D01*
X268501Y197060D01*
X268522Y196875D01*
X268526Y196863D01*
X268527Y196849D01*
X268588Y196669D01*
X268645Y196492D01*
X268651Y196480D01*
X268656Y196467D01*
X268750Y196304D01*
X268841Y196140D01*
X268850Y196130D01*
X268857Y196119D01*
X269071Y195866D01*
X276927Y188010D01*
X277623Y186330D01*
X277623Y94429D01*
X277625Y94403D01*
X277623Y94376D01*
X277645Y94202D01*
X277663Y94029D01*
X277670Y94003D01*
X277674Y93977D01*
X277729Y93811D01*
X277781Y93644D01*
X277794Y93620D01*
X277802Y93595D01*
X277889Y93443D01*
X277973Y93290D01*
X277990Y93269D01*
X278003Y93246D01*
X278218Y92993D01*
X282692Y88519D01*
X282706Y88508D01*
X282717Y88494D01*
X282861Y88380D01*
X283003Y88264D01*
X283019Y88255D01*
X283033Y88244D01*
X283198Y88161D01*
X283359Y88075D01*
X283376Y88070D01*
X283392Y88062D01*
X283570Y88013D01*
X283745Y87960D01*
X283763Y87959D01*
X283780Y87954D01*
X283963Y87941D01*
X284146Y87924D01*
X284164Y87926D01*
X284182Y87925D01*
X284363Y87948D01*
X284546Y87967D01*
X284563Y87973D01*
X284581Y87975D01*
X284754Y88033D01*
X284930Y88089D01*
X284946Y88098D01*
X284963Y88103D01*
X285121Y88194D01*
X285282Y88284D01*
X285296Y88295D01*
X285312Y88304D01*
X285565Y88519D01*
X285769Y88723D01*
X289877Y90425D01*
X294323Y90425D01*
X298431Y88723D01*
X301575Y85579D01*
X302959Y82237D01*
X303001Y82159D01*
X303034Y82076D01*
X303096Y81982D01*
X303150Y81882D01*
X303206Y81814D01*
X303255Y81739D01*
X303334Y81659D01*
X303406Y81572D01*
X303475Y81516D01*
X303537Y81453D01*
X303631Y81389D01*
X303719Y81318D01*
X303797Y81277D01*
X303871Y81227D01*
X303975Y81183D01*
X304075Y81131D01*
X304160Y81106D01*
X304242Y81072D01*
X304353Y81050D01*
X304462Y81018D01*
X304550Y81010D01*
X304637Y80993D01*
X304750Y80993D01*
X304863Y80983D01*
X304951Y80993D01*
X305040Y80993D01*
X305151Y81016D01*
X305263Y81029D01*
X305347Y81056D01*
X305434Y81073D01*
X305539Y81117D01*
X305646Y81152D01*
X305724Y81195D01*
X305806Y81229D01*
X305899Y81293D01*
X305998Y81348D01*
X306065Y81406D01*
X306139Y81456D01*
X306218Y81536D01*
X306303Y81610D01*
X306358Y81680D01*
X306420Y81743D01*
X306482Y81838D01*
X306552Y81927D01*
X306592Y82006D01*
X306640Y82081D01*
X306694Y82211D01*
X306732Y82287D01*
X306745Y82331D01*
X306768Y82387D01*
X307142Y83539D01*
X307941Y85106D01*
X308975Y86529D01*
X310219Y87773D01*
X311642Y88807D01*
X313209Y89606D01*
X314883Y90150D01*
X314961Y90162D01*
X314961Y71628D01*
X314962Y71610D01*
X314961Y71593D01*
X314982Y71410D01*
X315001Y71228D01*
X315006Y71211D01*
X315008Y71193D01*
X315033Y71115D01*
X314994Y70978D01*
X314992Y70960D01*
X314988Y70943D01*
X314961Y70612D01*
X314961Y52078D01*
X314883Y52090D01*
X313209Y52634D01*
X311642Y53433D01*
X310219Y54467D01*
X308975Y55711D01*
X307941Y57134D01*
X307142Y58701D01*
X306768Y59853D01*
X306732Y59935D01*
X306706Y60019D01*
X306652Y60118D01*
X306606Y60222D01*
X306555Y60295D01*
X306513Y60372D01*
X306440Y60459D01*
X306375Y60551D01*
X306311Y60613D01*
X306253Y60681D01*
X306165Y60751D01*
X306083Y60829D01*
X306008Y60876D01*
X305939Y60932D01*
X305838Y60983D01*
X305742Y61043D01*
X305659Y61075D01*
X305580Y61116D01*
X305472Y61146D01*
X305366Y61186D01*
X305278Y61201D01*
X305193Y61225D01*
X305081Y61234D01*
X304969Y61252D01*
X304880Y61249D01*
X304792Y61256D01*
X304680Y61243D01*
X304567Y61239D01*
X304480Y61218D01*
X304392Y61208D01*
X304285Y61172D01*
X304175Y61146D01*
X304094Y61109D01*
X304010Y61081D01*
X303912Y61025D01*
X303809Y60978D01*
X303737Y60926D01*
X303660Y60882D01*
X303575Y60807D01*
X303483Y60741D01*
X303424Y60676D01*
X303356Y60617D01*
X303288Y60528D01*
X303211Y60444D01*
X303165Y60368D01*
X303111Y60298D01*
X303047Y60172D01*
X303003Y60100D01*
X302987Y60057D01*
X302959Y60003D01*
X301575Y56661D01*
X298431Y53517D01*
X294323Y51815D01*
X289877Y51815D01*
X285769Y53517D01*
X282625Y56661D01*
X281277Y59916D01*
X281272Y59924D01*
X281270Y59932D01*
X281178Y60100D01*
X281086Y60271D01*
X281081Y60278D01*
X281076Y60285D01*
X280953Y60432D01*
X280830Y60581D01*
X280823Y60587D01*
X280817Y60593D01*
X280667Y60713D01*
X280517Y60835D01*
X280509Y60839D01*
X280503Y60844D01*
X280333Y60932D01*
X280161Y61022D01*
X280152Y61024D01*
X280144Y61028D01*
X279961Y61080D01*
X279775Y61135D01*
X279765Y61136D01*
X279757Y61138D01*
X279566Y61153D01*
X279373Y61169D01*
X279364Y61168D01*
X279356Y61169D01*
X279166Y61146D01*
X278973Y61124D01*
X278965Y61122D01*
X278956Y61121D01*
X278776Y61061D01*
X278590Y61001D01*
X278582Y60997D01*
X278574Y60994D01*
X278408Y60899D01*
X278239Y60805D01*
X278232Y60799D01*
X278224Y60795D01*
X278079Y60668D01*
X277933Y60543D01*
X277927Y60536D01*
X277920Y60530D01*
X277803Y60378D01*
X277684Y60226D01*
X277680Y60218D01*
X277675Y60211D01*
X277523Y59916D01*
X276175Y56661D01*
X273031Y53517D01*
X268923Y51815D01*
X264477Y51815D01*
X260369Y53517D01*
X257225Y56661D01*
X255877Y59916D01*
X255872Y59924D01*
X255870Y59932D01*
X255778Y60100D01*
X255686Y60271D01*
X255681Y60278D01*
X255676Y60285D01*
X255553Y60432D01*
X255430Y60581D01*
X255423Y60587D01*
X255417Y60593D01*
X255267Y60713D01*
X255117Y60835D01*
X255109Y60839D01*
X255103Y60844D01*
X254933Y60932D01*
X254761Y61022D01*
X254752Y61024D01*
X254744Y61028D01*
X254561Y61080D01*
X254375Y61135D01*
X254365Y61136D01*
X254357Y61138D01*
X254166Y61153D01*
X253973Y61169D01*
X253964Y61168D01*
X253956Y61169D01*
X253766Y61146D01*
X253573Y61124D01*
X253565Y61122D01*
X253556Y61121D01*
X253376Y61061D01*
X253190Y61001D01*
X253182Y60997D01*
X253174Y60994D01*
X253008Y60899D01*
X252839Y60805D01*
X252832Y60799D01*
X252824Y60795D01*
X252679Y60668D01*
X252533Y60543D01*
X252527Y60536D01*
X252520Y60530D01*
X252403Y60378D01*
X252284Y60226D01*
X252280Y60218D01*
X252275Y60211D01*
X252123Y59916D01*
X250775Y56661D01*
X247631Y53517D01*
X243523Y51815D01*
X239077Y51815D01*
X234969Y53517D01*
X231825Y56661D01*
X230123Y60769D01*
X230123Y81471D01*
X231825Y85579D01*
X234969Y88723D01*
X239077Y90425D01*
X243523Y90425D01*
X247710Y88691D01*
X247766Y88645D01*
X247782Y88637D01*
X247796Y88625D01*
X247959Y88542D01*
X248121Y88456D01*
X248139Y88451D01*
X248155Y88443D01*
X248332Y88394D01*
X248507Y88341D01*
X248525Y88340D01*
X248543Y88335D01*
X248726Y88322D01*
X248908Y88305D01*
X248926Y88307D01*
X248944Y88306D01*
X249127Y88329D01*
X249308Y88348D01*
X249326Y88354D01*
X249343Y88356D01*
X249518Y88415D01*
X249692Y88470D01*
X249708Y88479D01*
X249725Y88484D01*
X249884Y88576D01*
X250045Y88665D01*
X250058Y88676D01*
X250074Y88685D01*
X250327Y88900D01*
X255436Y94009D01*
X255453Y94030D01*
X255474Y94047D01*
X255581Y94185D01*
X255691Y94321D01*
X255704Y94344D01*
X255720Y94365D01*
X255798Y94522D01*
X255880Y94676D01*
X255888Y94702D01*
X255900Y94726D01*
X255945Y94895D01*
X255995Y95062D01*
X255997Y95089D01*
X256004Y95115D01*
X256031Y95445D01*
X256031Y177888D01*
X256029Y177915D01*
X256031Y177942D01*
X256009Y178116D01*
X255991Y178289D01*
X255984Y178315D01*
X255980Y178341D01*
X255925Y178507D01*
X255873Y178674D01*
X255860Y178698D01*
X255852Y178723D01*
X255765Y178875D01*
X255681Y179028D01*
X255664Y179048D01*
X255651Y179072D01*
X255436Y179325D01*
X248793Y185968D01*
X248772Y185985D01*
X248755Y186006D01*
X248617Y186113D01*
X248481Y186223D01*
X248458Y186236D01*
X248436Y186252D01*
X248280Y186330D01*
X248126Y186412D01*
X248100Y186420D01*
X248076Y186432D01*
X247907Y186477D01*
X247740Y186527D01*
X247713Y186529D01*
X247687Y186536D01*
X247356Y186563D01*
X233052Y186563D01*
X231372Y187259D01*
X227203Y191428D01*
X227182Y191445D01*
X227164Y191466D01*
X227026Y191573D01*
X226891Y191683D01*
X226867Y191696D01*
X226846Y191712D01*
X226689Y191790D01*
X226535Y191872D01*
X226510Y191880D01*
X226486Y191892D01*
X226316Y191937D01*
X226149Y191987D01*
X226123Y191989D01*
X226097Y191996D01*
X225766Y192023D01*
X210813Y192023D01*
X209133Y192719D01*
X200326Y201526D01*
X200312Y201538D01*
X200300Y201551D01*
X200156Y201665D01*
X200014Y201781D01*
X199999Y201790D01*
X199984Y201801D01*
X199820Y201884D01*
X199659Y201970D01*
X199641Y201975D01*
X199626Y201983D01*
X199448Y202032D01*
X199273Y202085D01*
X199255Y202086D01*
X199238Y202091D01*
X199055Y202105D01*
X198872Y202121D01*
X198854Y202119D01*
X198836Y202120D01*
X198654Y202098D01*
X198471Y202078D01*
X198454Y202072D01*
X198437Y202070D01*
X198263Y202012D01*
X198088Y201956D01*
X198072Y201948D01*
X198055Y201942D01*
X197896Y201850D01*
X197735Y201761D01*
X197722Y201750D01*
X197706Y201741D01*
X197453Y201526D01*
X196195Y200268D01*
X196130Y200231D01*
X195972Y200147D01*
X195955Y200132D01*
X195935Y200122D01*
X195800Y200004D01*
X195661Y199890D01*
X195647Y199873D01*
X195630Y199858D01*
X195521Y199717D01*
X195408Y199578D01*
X195397Y199558D01*
X195384Y199540D01*
X195304Y199380D01*
X195221Y199221D01*
X195214Y199200D01*
X195204Y199180D01*
X195158Y199006D01*
X195108Y198835D01*
X195106Y198813D01*
X195100Y198791D01*
X195073Y198460D01*
X195073Y90809D01*
X195075Y90786D01*
X195073Y90764D01*
X195095Y90587D01*
X195113Y90408D01*
X195119Y90387D01*
X195122Y90365D01*
X195178Y90195D01*
X195231Y90023D01*
X195241Y90004D01*
X195248Y89982D01*
X195337Y89827D01*
X195423Y89669D01*
X195437Y89652D01*
X195448Y89633D01*
X195565Y89498D01*
X195680Y89360D01*
X195698Y89346D01*
X195712Y89329D01*
X195854Y89220D01*
X195994Y89108D01*
X196014Y89097D01*
X196032Y89084D01*
X196327Y88932D01*
X196831Y88723D01*
X199975Y85579D01*
X201677Y81471D01*
X201677Y60769D01*
X199975Y56661D01*
X196831Y53517D01*
X192723Y51815D01*
X188277Y51815D01*
X184169Y53517D01*
X181025Y56661D01*
X179677Y59916D01*
X179672Y59924D01*
X179670Y59932D01*
X179578Y60100D01*
X179486Y60271D01*
X179481Y60278D01*
X179476Y60285D01*
X179353Y60432D01*
X179230Y60581D01*
X179223Y60587D01*
X179217Y60593D01*
X179067Y60713D01*
X178917Y60835D01*
X178909Y60839D01*
X178903Y60844D01*
X178733Y60932D01*
X178561Y61022D01*
X178552Y61024D01*
X178544Y61028D01*
X178361Y61080D01*
X178175Y61135D01*
X178165Y61136D01*
X178157Y61138D01*
X177966Y61153D01*
X177773Y61169D01*
X177764Y61168D01*
X177756Y61169D01*
X177566Y61146D01*
X177373Y61124D01*
X177365Y61122D01*
X177356Y61121D01*
X177176Y61061D01*
X176990Y61001D01*
X176982Y60997D01*
X176974Y60994D01*
X176808Y60899D01*
X176639Y60805D01*
X176632Y60799D01*
X176624Y60795D01*
X176479Y60668D01*
X176333Y60543D01*
X176327Y60536D01*
X176320Y60530D01*
X176203Y60378D01*
X176084Y60226D01*
X176080Y60218D01*
X176075Y60211D01*
X175923Y59916D01*
X174575Y56661D01*
X171431Y53517D01*
X167323Y51815D01*
X162877Y51815D01*
X158769Y53517D01*
X155625Y56661D01*
X154277Y59916D01*
X154272Y59924D01*
X154270Y59932D01*
X154178Y60100D01*
X154086Y60271D01*
X154081Y60278D01*
X154076Y60285D01*
X153953Y60432D01*
X153830Y60581D01*
X153823Y60587D01*
X153817Y60593D01*
X153667Y60713D01*
X153517Y60835D01*
X153509Y60839D01*
X153503Y60844D01*
X153333Y60932D01*
X153161Y61022D01*
X153152Y61024D01*
X153144Y61028D01*
X152961Y61080D01*
X152775Y61135D01*
X152765Y61136D01*
X152757Y61138D01*
X152566Y61153D01*
X152373Y61169D01*
X152364Y61168D01*
X152356Y61169D01*
X152166Y61146D01*
X151973Y61124D01*
X151965Y61122D01*
X151956Y61121D01*
X151776Y61061D01*
X151590Y61001D01*
X151582Y60997D01*
X151574Y60994D01*
X151408Y60899D01*
X151239Y60805D01*
X151232Y60799D01*
X151224Y60795D01*
X151079Y60668D01*
X150933Y60543D01*
X150927Y60536D01*
X150920Y60530D01*
X150803Y60378D01*
X150684Y60226D01*
X150680Y60218D01*
X150675Y60211D01*
X150523Y59916D01*
X149175Y56661D01*
X146031Y53517D01*
X141923Y51815D01*
X137477Y51815D01*
X133369Y53517D01*
X130225Y56661D01*
X128877Y59916D01*
X128872Y59924D01*
X128870Y59932D01*
X128778Y60100D01*
X128686Y60271D01*
X128681Y60278D01*
X128676Y60285D01*
X128553Y60432D01*
X128430Y60581D01*
X128423Y60587D01*
X128417Y60593D01*
X128267Y60713D01*
X128117Y60835D01*
X128109Y60839D01*
X128103Y60844D01*
X127933Y60932D01*
X127761Y61022D01*
X127752Y61024D01*
X127744Y61028D01*
X127561Y61080D01*
X127375Y61135D01*
X127365Y61136D01*
X127357Y61138D01*
X127166Y61153D01*
X126973Y61169D01*
X126964Y61168D01*
X126956Y61169D01*
X126766Y61146D01*
X126573Y61124D01*
X126565Y61122D01*
X126556Y61121D01*
X126376Y61061D01*
X126190Y61001D01*
X126182Y60997D01*
X126174Y60994D01*
X126008Y60899D01*
X125839Y60805D01*
X125832Y60799D01*
X125824Y60795D01*
X125679Y60668D01*
X125533Y60543D01*
X125527Y60536D01*
X125520Y60530D01*
X125403Y60378D01*
X125284Y60226D01*
X125280Y60218D01*
X125275Y60211D01*
X125123Y59916D01*
X123775Y56661D01*
X120631Y53517D01*
X116523Y51815D01*
X112077Y51815D01*
G37*
%LPD*%
%LPC*%
G36*
X720560Y85851D02*
X720560Y85851D01*
X716265Y87630D01*
X712978Y90917D01*
X711199Y95212D01*
X711199Y99860D01*
X712941Y104065D01*
X712947Y104086D01*
X712957Y104106D01*
X713006Y104279D01*
X713057Y104450D01*
X713060Y104473D01*
X713065Y104494D01*
X713079Y104673D01*
X713096Y104851D01*
X713093Y104873D01*
X713095Y104896D01*
X713072Y105075D01*
X713054Y105252D01*
X713047Y105273D01*
X713044Y105295D01*
X712987Y105466D01*
X712934Y105636D01*
X712923Y105656D01*
X712916Y105677D01*
X712827Y105832D01*
X712741Y105989D01*
X712726Y106006D01*
X712715Y106026D01*
X712501Y106279D01*
X691829Y126950D01*
X691133Y128630D01*
X691133Y155761D01*
X691131Y155787D01*
X691133Y155814D01*
X691111Y155988D01*
X691093Y156161D01*
X691086Y156187D01*
X691082Y156213D01*
X691027Y156379D01*
X690975Y156546D01*
X690962Y156570D01*
X690954Y156595D01*
X690867Y156747D01*
X690783Y156900D01*
X690766Y156921D01*
X690753Y156944D01*
X690538Y157197D01*
X679167Y168568D01*
X679146Y168585D01*
X679129Y168606D01*
X678991Y168713D01*
X678855Y168823D01*
X678832Y168836D01*
X678811Y168852D01*
X678654Y168930D01*
X678500Y169012D01*
X678474Y169020D01*
X678450Y169032D01*
X678281Y169077D01*
X678114Y169127D01*
X678087Y169129D01*
X678061Y169136D01*
X677731Y169163D01*
X535398Y169163D01*
X533717Y169859D01*
X437600Y265976D01*
X437579Y265993D01*
X437562Y266014D01*
X437424Y266121D01*
X437289Y266231D01*
X437265Y266244D01*
X437244Y266260D01*
X437087Y266338D01*
X436933Y266420D01*
X436907Y266428D01*
X436883Y266440D01*
X436714Y266485D01*
X436547Y266535D01*
X436520Y266537D01*
X436494Y266544D01*
X436164Y266571D01*
X312146Y266571D01*
X310466Y267267D01*
X224766Y352967D01*
X224752Y352978D01*
X224741Y352992D01*
X224597Y353105D01*
X224455Y353222D01*
X224439Y353230D01*
X224425Y353241D01*
X224260Y353325D01*
X224099Y353411D01*
X224082Y353416D01*
X224066Y353424D01*
X223888Y353473D01*
X223713Y353525D01*
X223695Y353527D01*
X223678Y353532D01*
X223495Y353545D01*
X223312Y353562D01*
X223294Y353560D01*
X223277Y353561D01*
X223095Y353538D01*
X222912Y353518D01*
X222895Y353513D01*
X222877Y353511D01*
X222704Y353452D01*
X222528Y353397D01*
X222513Y353388D01*
X222496Y353382D01*
X222336Y353290D01*
X222176Y353202D01*
X222162Y353190D01*
X222147Y353181D01*
X221894Y352967D01*
X221619Y352692D01*
X219363Y351758D01*
X217908Y351155D01*
X213892Y351155D01*
X210181Y352692D01*
X207340Y355533D01*
X205803Y359244D01*
X205803Y377356D01*
X207340Y381067D01*
X209316Y383042D01*
X209327Y383056D01*
X209340Y383068D01*
X209454Y383212D01*
X209571Y383354D01*
X209579Y383370D01*
X209590Y383384D01*
X209673Y383548D01*
X209759Y383710D01*
X209764Y383727D01*
X209772Y383743D01*
X209822Y383920D01*
X209874Y384096D01*
X209876Y384113D01*
X209880Y384131D01*
X209894Y384314D01*
X209910Y384496D01*
X209908Y384514D01*
X209910Y384532D01*
X209887Y384714D01*
X209867Y384897D01*
X209862Y384914D01*
X209859Y384931D01*
X209801Y385105D01*
X209745Y385281D01*
X209737Y385296D01*
X209731Y385313D01*
X209639Y385473D01*
X209551Y385633D01*
X209539Y385646D01*
X209530Y385662D01*
X209316Y385915D01*
X205739Y389491D01*
X205739Y397909D01*
X211691Y403861D01*
X220109Y403861D01*
X226061Y397909D01*
X226061Y389491D01*
X222484Y385915D01*
X222473Y385901D01*
X222460Y385890D01*
X222345Y385745D01*
X222229Y385604D01*
X222221Y385588D01*
X222210Y385574D01*
X222127Y385410D01*
X222041Y385248D01*
X222036Y385231D01*
X222028Y385215D01*
X221978Y385038D01*
X221926Y384862D01*
X221924Y384844D01*
X221920Y384827D01*
X221906Y384644D01*
X221890Y384461D01*
X221892Y384443D01*
X221890Y384425D01*
X221913Y384243D01*
X221933Y384061D01*
X221938Y384044D01*
X221941Y384026D01*
X221999Y383852D01*
X222055Y383677D01*
X222063Y383661D01*
X222069Y383644D01*
X222160Y383485D01*
X222249Y383325D01*
X222261Y383311D01*
X222270Y383295D01*
X222484Y383042D01*
X224460Y381067D01*
X225997Y377356D01*
X225997Y365511D01*
X225999Y365485D01*
X225997Y365458D01*
X226019Y365284D01*
X226037Y365111D01*
X226044Y365085D01*
X226048Y365059D01*
X226104Y364893D01*
X226155Y364726D01*
X226167Y364702D01*
X226176Y364677D01*
X226263Y364525D01*
X226347Y364372D01*
X226364Y364351D01*
X226377Y364328D01*
X226592Y364075D01*
X227736Y362931D01*
X227743Y362925D01*
X227748Y362919D01*
X227898Y362798D01*
X228047Y362676D01*
X228055Y362672D01*
X228062Y362666D01*
X228232Y362578D01*
X228403Y362487D01*
X228412Y362485D01*
X228419Y362481D01*
X228604Y362428D01*
X228789Y362373D01*
X228798Y362372D01*
X228806Y362369D01*
X228997Y362354D01*
X229190Y362336D01*
X229199Y362337D01*
X229208Y362336D01*
X229397Y362359D01*
X229590Y362380D01*
X229599Y362382D01*
X229607Y362383D01*
X229789Y362443D01*
X229974Y362501D01*
X229982Y362505D01*
X229990Y362508D01*
X230157Y362602D01*
X230326Y362696D01*
X230333Y362702D01*
X230341Y362706D01*
X230486Y362831D01*
X230633Y362956D01*
X230639Y362963D01*
X230646Y362969D01*
X230763Y363121D01*
X230883Y363272D01*
X230887Y363280D01*
X230892Y363287D01*
X230978Y363459D01*
X231065Y363631D01*
X231068Y363640D01*
X231072Y363648D01*
X231121Y363833D01*
X231173Y364019D01*
X231174Y364028D01*
X231176Y364037D01*
X231203Y364367D01*
X231203Y377356D01*
X232740Y381067D01*
X234716Y383042D01*
X234727Y383056D01*
X234740Y383068D01*
X234854Y383212D01*
X234971Y383354D01*
X234979Y383370D01*
X234990Y383384D01*
X235074Y383548D01*
X235159Y383710D01*
X235164Y383727D01*
X235172Y383743D01*
X235222Y383920D01*
X235274Y384096D01*
X235276Y384113D01*
X235280Y384131D01*
X235294Y384314D01*
X235310Y384497D01*
X235308Y384514D01*
X235310Y384532D01*
X235287Y384714D01*
X235267Y384897D01*
X235262Y384914D01*
X235259Y384932D01*
X235201Y385105D01*
X235145Y385281D01*
X235137Y385296D01*
X235131Y385313D01*
X235040Y385472D01*
X234951Y385633D01*
X234939Y385646D01*
X234930Y385662D01*
X234716Y385915D01*
X231139Y389491D01*
X231139Y397909D01*
X237091Y403861D01*
X245509Y403861D01*
X251461Y397909D01*
X251461Y389491D01*
X247884Y385915D01*
X247873Y385901D01*
X247860Y385890D01*
X247745Y385745D01*
X247629Y385604D01*
X247621Y385588D01*
X247610Y385574D01*
X247527Y385410D01*
X247441Y385248D01*
X247436Y385231D01*
X247428Y385215D01*
X247378Y385038D01*
X247326Y384862D01*
X247324Y384844D01*
X247320Y384827D01*
X247306Y384644D01*
X247290Y384461D01*
X247292Y384443D01*
X247290Y384425D01*
X247313Y384244D01*
X247333Y384061D01*
X247338Y384044D01*
X247341Y384026D01*
X247399Y383852D01*
X247455Y383677D01*
X247463Y383661D01*
X247469Y383644D01*
X247561Y383485D01*
X247649Y383325D01*
X247661Y383311D01*
X247670Y383295D01*
X247884Y383042D01*
X249860Y381067D01*
X251397Y377356D01*
X251397Y359244D01*
X249860Y355533D01*
X248251Y353924D01*
X248240Y353910D01*
X248226Y353899D01*
X248112Y353755D01*
X247996Y353613D01*
X247988Y353597D01*
X247977Y353583D01*
X247893Y353419D01*
X247807Y353257D01*
X247802Y353240D01*
X247794Y353224D01*
X247745Y353047D01*
X247693Y352871D01*
X247691Y352853D01*
X247686Y352836D01*
X247673Y352653D01*
X247656Y352470D01*
X247658Y352452D01*
X247657Y352435D01*
X247680Y352253D01*
X247700Y352070D01*
X247705Y352053D01*
X247707Y352035D01*
X247766Y351862D01*
X247821Y351686D01*
X247830Y351670D01*
X247836Y351654D01*
X247927Y351495D01*
X248016Y351334D01*
X248028Y351320D01*
X248036Y351305D01*
X248251Y351052D01*
X316895Y282408D01*
X316916Y282391D01*
X316933Y282370D01*
X317071Y282263D01*
X317207Y282153D01*
X317230Y282140D01*
X317251Y282124D01*
X317408Y282046D01*
X317562Y281964D01*
X317588Y281956D01*
X317612Y281944D01*
X317781Y281899D01*
X317948Y281849D01*
X317975Y281847D01*
X318001Y281840D01*
X318331Y281813D01*
X443041Y281813D01*
X444721Y281117D01*
X511745Y214093D01*
X511802Y214046D01*
X511852Y213993D01*
X511957Y213919D01*
X512056Y213838D01*
X512121Y213803D01*
X512181Y213761D01*
X512299Y213709D01*
X512412Y213649D01*
X512482Y213628D01*
X512549Y213599D01*
X512675Y213571D01*
X512798Y213534D01*
X512871Y213528D01*
X512943Y213512D01*
X513071Y213510D01*
X513199Y213498D01*
X513272Y213506D01*
X513345Y213504D01*
X513471Y213527D01*
X513599Y213541D01*
X513669Y213563D01*
X513741Y213577D01*
X513860Y213624D01*
X513983Y213663D01*
X514047Y213698D01*
X514115Y213725D01*
X514223Y213795D01*
X514336Y213858D01*
X514391Y213905D01*
X514453Y213945D01*
X514545Y214035D01*
X514643Y214118D01*
X514688Y214176D01*
X514740Y214227D01*
X514812Y214333D01*
X514892Y214434D01*
X514925Y214499D01*
X514966Y214560D01*
X515016Y214678D01*
X515074Y214793D01*
X515094Y214864D01*
X515123Y214931D01*
X515148Y215057D01*
X515182Y215181D01*
X515188Y215254D01*
X515202Y215326D01*
X515202Y215454D01*
X515212Y215582D01*
X515203Y215655D01*
X515203Y215728D01*
X515172Y215895D01*
X515161Y215982D01*
X515151Y216013D01*
X515143Y216055D01*
X514349Y219018D01*
X514349Y230054D01*
X517205Y240713D01*
X522723Y250270D01*
X530526Y258073D01*
X540083Y263591D01*
X550742Y266447D01*
X561778Y266447D01*
X572437Y263591D01*
X581994Y258073D01*
X589797Y250270D01*
X595315Y240713D01*
X598171Y230054D01*
X598171Y219018D01*
X595315Y208359D01*
X589797Y198802D01*
X581994Y190999D01*
X578017Y188703D01*
X577957Y188660D01*
X577893Y188625D01*
X577794Y188543D01*
X577690Y188468D01*
X577640Y188415D01*
X577584Y188368D01*
X577503Y188268D01*
X577416Y188173D01*
X577377Y188111D01*
X577331Y188054D01*
X577272Y187940D01*
X577205Y187830D01*
X577180Y187762D01*
X577146Y187697D01*
X577110Y187573D01*
X577066Y187453D01*
X577055Y187380D01*
X577035Y187310D01*
X577024Y187181D01*
X577004Y187055D01*
X577008Y186982D01*
X577002Y186908D01*
X577017Y186781D01*
X577022Y186652D01*
X577040Y186581D01*
X577049Y186509D01*
X577088Y186386D01*
X577119Y186262D01*
X577151Y186196D01*
X577173Y186126D01*
X577237Y186014D01*
X577292Y185898D01*
X577335Y185839D01*
X577371Y185775D01*
X577455Y185678D01*
X577532Y185575D01*
X577587Y185526D01*
X577635Y185470D01*
X577736Y185392D01*
X577832Y185306D01*
X577895Y185269D01*
X577953Y185224D01*
X578068Y185166D01*
X578178Y185101D01*
X578247Y185077D01*
X578313Y185044D01*
X578437Y185011D01*
X578559Y184969D01*
X578631Y184959D01*
X578702Y184940D01*
X578871Y184926D01*
X578957Y184914D01*
X578990Y184916D01*
X579033Y184913D01*
X678958Y184913D01*
X678984Y184915D01*
X679011Y184913D01*
X679185Y184935D01*
X679358Y184953D01*
X679384Y184960D01*
X679410Y184964D01*
X679576Y185019D01*
X679743Y185071D01*
X679767Y185084D01*
X679792Y185092D01*
X679944Y185179D01*
X680097Y185263D01*
X680118Y185280D01*
X680141Y185293D01*
X680394Y185508D01*
X697899Y203013D01*
X699579Y203709D01*
X710773Y203709D01*
X710796Y203711D01*
X710818Y203709D01*
X710995Y203731D01*
X711174Y203749D01*
X711195Y203755D01*
X711218Y203758D01*
X711387Y203814D01*
X711559Y203867D01*
X711579Y203877D01*
X711600Y203884D01*
X711755Y203973D01*
X711913Y204059D01*
X711930Y204073D01*
X711949Y204084D01*
X712084Y204201D01*
X712222Y204316D01*
X712236Y204334D01*
X712253Y204348D01*
X712362Y204490D01*
X712475Y204630D01*
X712485Y204650D01*
X712498Y204668D01*
X712650Y204963D01*
X712978Y205755D01*
X716265Y209042D01*
X718480Y209959D01*
X718488Y209964D01*
X718497Y209966D01*
X718665Y210058D01*
X718835Y210150D01*
X718842Y210155D01*
X718850Y210160D01*
X718996Y210283D01*
X719145Y210406D01*
X719151Y210413D01*
X719158Y210419D01*
X719278Y210569D01*
X719399Y210719D01*
X719403Y210727D01*
X719409Y210733D01*
X719497Y210904D01*
X719586Y211075D01*
X719589Y211084D01*
X719593Y211092D01*
X719645Y211276D01*
X719699Y211462D01*
X719700Y211470D01*
X719703Y211479D01*
X719717Y211670D01*
X719734Y211863D01*
X719733Y211872D01*
X719734Y211880D01*
X719711Y212069D01*
X719689Y212263D01*
X719686Y212271D01*
X719685Y212280D01*
X719625Y212462D01*
X719566Y212646D01*
X719561Y212654D01*
X719559Y212662D01*
X719463Y212830D01*
X719369Y212998D01*
X719364Y213004D01*
X719359Y213012D01*
X719233Y213157D01*
X719107Y213303D01*
X719100Y213309D01*
X719095Y213316D01*
X718942Y213433D01*
X718790Y213552D01*
X718783Y213556D01*
X718775Y213561D01*
X718480Y213713D01*
X716265Y214630D01*
X712978Y217917D01*
X711199Y222212D01*
X711199Y226860D01*
X712978Y231155D01*
X716265Y234442D01*
X718428Y235338D01*
X718507Y235380D01*
X718590Y235413D01*
X718684Y235475D01*
X718783Y235528D01*
X718852Y235585D01*
X718926Y235634D01*
X719007Y235713D01*
X719094Y235784D01*
X719150Y235854D01*
X719213Y235916D01*
X719276Y236010D01*
X719347Y236097D01*
X719389Y236176D01*
X719439Y236250D01*
X719482Y236354D01*
X719534Y236454D01*
X719559Y236539D01*
X719594Y236621D01*
X719616Y236732D01*
X719647Y236840D01*
X719655Y236929D01*
X719672Y237016D01*
X719672Y237129D01*
X719682Y237241D01*
X719672Y237330D01*
X719672Y237419D01*
X719649Y237529D01*
X719637Y237641D01*
X719610Y237726D01*
X719592Y237813D01*
X719548Y237917D01*
X719514Y238025D01*
X719470Y238102D01*
X719436Y238184D01*
X719372Y238278D01*
X719317Y238376D01*
X719259Y238444D01*
X719209Y238517D01*
X719129Y238596D01*
X719056Y238682D01*
X718985Y238737D01*
X718922Y238799D01*
X718827Y238860D01*
X718738Y238930D01*
X718659Y238970D01*
X718584Y239019D01*
X718520Y239045D01*
X716760Y239942D01*
X715272Y241023D01*
X713971Y242324D01*
X712890Y243812D01*
X712055Y245450D01*
X711506Y247143D01*
X730758Y247143D01*
X730776Y247144D01*
X730793Y247143D01*
X730976Y247164D01*
X731158Y247183D01*
X731175Y247188D01*
X731193Y247190D01*
X731368Y247247D01*
X731518Y247293D01*
X731530Y247287D01*
X731547Y247282D01*
X731563Y247274D01*
X731741Y247226D01*
X731916Y247176D01*
X731934Y247174D01*
X731951Y247170D01*
X732282Y247143D01*
X751534Y247143D01*
X750985Y245450D01*
X750150Y243812D01*
X749069Y242324D01*
X747768Y241023D01*
X746280Y239942D01*
X744597Y239085D01*
X744595Y239084D01*
X744585Y239079D01*
X744499Y239035D01*
X744482Y239024D01*
X744393Y238985D01*
X744320Y238934D01*
X744242Y238891D01*
X744156Y238818D01*
X744064Y238754D01*
X744002Y238689D01*
X743934Y238632D01*
X743864Y238544D01*
X743786Y238462D01*
X743739Y238387D01*
X743683Y238317D01*
X743632Y238217D01*
X743571Y238121D01*
X743540Y238038D01*
X743499Y237959D01*
X743468Y237850D01*
X743428Y237745D01*
X743414Y237657D01*
X743389Y237571D01*
X743381Y237459D01*
X743362Y237348D01*
X743365Y237259D01*
X743358Y237170D01*
X743372Y237058D01*
X743376Y236946D01*
X743396Y236859D01*
X743407Y236770D01*
X743442Y236664D01*
X743468Y236554D01*
X743505Y236473D01*
X743533Y236388D01*
X743589Y236290D01*
X743636Y236188D01*
X743689Y236116D01*
X743733Y236038D01*
X743807Y235953D01*
X743873Y235862D01*
X743939Y235802D01*
X743997Y235735D01*
X744087Y235666D01*
X744170Y235590D01*
X744246Y235544D01*
X744317Y235489D01*
X744442Y235425D01*
X744514Y235381D01*
X744558Y235366D01*
X744612Y235338D01*
X746775Y234442D01*
X750062Y231155D01*
X750390Y230363D01*
X750400Y230343D01*
X750407Y230322D01*
X750496Y230166D01*
X750580Y230008D01*
X750594Y229991D01*
X750605Y229971D01*
X750722Y229836D01*
X750837Y229697D01*
X750854Y229683D01*
X750868Y229666D01*
X751010Y229556D01*
X751149Y229444D01*
X751169Y229433D01*
X751187Y229420D01*
X751347Y229340D01*
X751506Y229257D01*
X751527Y229250D01*
X751547Y229240D01*
X751720Y229194D01*
X751892Y229144D01*
X751914Y229142D01*
X751936Y229136D01*
X752267Y229109D01*
X766885Y229109D01*
X766911Y229111D01*
X766938Y229109D01*
X767112Y229131D01*
X767285Y229149D01*
X767311Y229156D01*
X767337Y229160D01*
X767503Y229215D01*
X767670Y229267D01*
X767694Y229280D01*
X767719Y229288D01*
X767870Y229375D01*
X768024Y229459D01*
X768045Y229476D01*
X768068Y229489D01*
X768321Y229704D01*
X776544Y237926D01*
X776555Y237940D01*
X776568Y237952D01*
X776682Y238096D01*
X776799Y238238D01*
X776807Y238254D01*
X776818Y238268D01*
X776901Y238432D01*
X776987Y238593D01*
X776992Y238611D01*
X777000Y238627D01*
X777050Y238804D01*
X777102Y238979D01*
X777104Y238997D01*
X777108Y239014D01*
X777122Y239198D01*
X777138Y239380D01*
X777136Y239398D01*
X777138Y239416D01*
X777115Y239598D01*
X777095Y239781D01*
X777090Y239798D01*
X777087Y239815D01*
X777029Y239989D01*
X776973Y240164D01*
X776965Y240180D01*
X776959Y240197D01*
X776867Y240357D01*
X776779Y240517D01*
X776767Y240530D01*
X776758Y240546D01*
X776544Y240799D01*
X774601Y242742D01*
X772667Y247410D01*
X772667Y252462D01*
X774601Y257130D01*
X778174Y260703D01*
X782842Y262637D01*
X807198Y262637D01*
X811866Y260703D01*
X815439Y257130D01*
X817373Y252462D01*
X817373Y247410D01*
X815439Y242742D01*
X811866Y239169D01*
X807198Y237235D01*
X789627Y237235D01*
X789601Y237233D01*
X789574Y237235D01*
X789400Y237213D01*
X789227Y237195D01*
X789201Y237188D01*
X789175Y237184D01*
X789009Y237128D01*
X788842Y237077D01*
X788818Y237064D01*
X788793Y237056D01*
X788641Y236969D01*
X788488Y236885D01*
X788467Y236868D01*
X788444Y236855D01*
X788191Y236640D01*
X772210Y220659D01*
X770530Y219963D01*
X752267Y219963D01*
X752244Y219961D01*
X752222Y219963D01*
X752045Y219941D01*
X751866Y219923D01*
X751845Y219917D01*
X751822Y219914D01*
X751653Y219858D01*
X751481Y219805D01*
X751461Y219795D01*
X751440Y219788D01*
X751285Y219699D01*
X751127Y219613D01*
X751110Y219599D01*
X751091Y219588D01*
X750956Y219471D01*
X750818Y219356D01*
X750804Y219338D01*
X750787Y219324D01*
X750678Y219182D01*
X750565Y219042D01*
X750555Y219022D01*
X750542Y219004D01*
X750390Y218709D01*
X750062Y217917D01*
X746775Y214630D01*
X744560Y213713D01*
X744552Y213708D01*
X744543Y213706D01*
X744373Y213613D01*
X744205Y213522D01*
X744198Y213517D01*
X744190Y213512D01*
X744042Y213388D01*
X743894Y213266D01*
X743889Y213259D01*
X743882Y213253D01*
X743762Y213103D01*
X743641Y212953D01*
X743637Y212945D01*
X743631Y212938D01*
X743544Y212769D01*
X743454Y212597D01*
X743451Y212588D01*
X743447Y212580D01*
X743395Y212398D01*
X743341Y212210D01*
X743340Y212201D01*
X743337Y212193D01*
X743322Y212000D01*
X743306Y211809D01*
X743307Y211800D01*
X743306Y211792D01*
X743330Y211601D01*
X743351Y211409D01*
X743354Y211401D01*
X743355Y211392D01*
X743415Y211210D01*
X743474Y211026D01*
X743479Y211018D01*
X743482Y211010D01*
X743577Y210842D01*
X743671Y210674D01*
X743676Y210668D01*
X743681Y210660D01*
X743808Y210514D01*
X743933Y210369D01*
X743940Y210363D01*
X743945Y210356D01*
X744098Y210239D01*
X744250Y210120D01*
X744258Y210116D01*
X744265Y210111D01*
X744560Y209959D01*
X746775Y209042D01*
X750062Y205755D01*
X751841Y201460D01*
X751841Y196812D01*
X750062Y192517D01*
X746775Y189230D01*
X742480Y187451D01*
X720560Y187451D01*
X716265Y189230D01*
X712978Y192517D01*
X712650Y193309D01*
X712640Y193329D01*
X712633Y193350D01*
X712544Y193506D01*
X712460Y193664D01*
X712446Y193681D01*
X712435Y193701D01*
X712318Y193836D01*
X712203Y193975D01*
X712186Y193989D01*
X712172Y194006D01*
X712030Y194115D01*
X711891Y194228D01*
X711871Y194239D01*
X711853Y194252D01*
X711693Y194332D01*
X711534Y194415D01*
X711513Y194422D01*
X711493Y194432D01*
X711320Y194478D01*
X711148Y194528D01*
X711126Y194530D01*
X711104Y194536D01*
X710773Y194563D01*
X703224Y194563D01*
X703198Y194561D01*
X703171Y194563D01*
X702997Y194541D01*
X702824Y194523D01*
X702798Y194516D01*
X702772Y194512D01*
X702606Y194457D01*
X702439Y194405D01*
X702415Y194392D01*
X702390Y194384D01*
X702238Y194297D01*
X702085Y194213D01*
X702064Y194196D01*
X702041Y194183D01*
X701788Y193968D01*
X685681Y177861D01*
X685669Y177847D01*
X685656Y177835D01*
X685541Y177691D01*
X685426Y177549D01*
X685417Y177534D01*
X685406Y177520D01*
X685323Y177355D01*
X685237Y177194D01*
X685232Y177177D01*
X685224Y177161D01*
X685174Y176983D01*
X685122Y176808D01*
X685121Y176790D01*
X685116Y176773D01*
X685102Y176590D01*
X685086Y176407D01*
X685088Y176389D01*
X685086Y176371D01*
X685109Y176189D01*
X685129Y176006D01*
X685135Y175989D01*
X685137Y175972D01*
X685195Y175798D01*
X685251Y175623D01*
X685259Y175607D01*
X685265Y175590D01*
X685357Y175431D01*
X685445Y175270D01*
X685457Y175257D01*
X685466Y175241D01*
X685681Y174988D01*
X698011Y162658D01*
X699583Y161086D01*
X700279Y159406D01*
X700279Y132275D01*
X700281Y132249D01*
X700279Y132222D01*
X700301Y132048D01*
X700319Y131875D01*
X700326Y131849D01*
X700330Y131823D01*
X700385Y131657D01*
X700437Y131490D01*
X700450Y131466D01*
X700458Y131441D01*
X700545Y131290D01*
X700629Y131136D01*
X700646Y131115D01*
X700659Y131092D01*
X700874Y130839D01*
X707732Y123981D01*
X707739Y123975D01*
X707744Y123969D01*
X707894Y123848D01*
X708043Y123726D01*
X708051Y123722D01*
X708058Y123716D01*
X708228Y123628D01*
X708399Y123537D01*
X708408Y123535D01*
X708415Y123531D01*
X708600Y123478D01*
X708785Y123423D01*
X708794Y123422D01*
X708802Y123419D01*
X708994Y123404D01*
X709186Y123386D01*
X709195Y123387D01*
X709204Y123386D01*
X709393Y123409D01*
X709586Y123430D01*
X709595Y123432D01*
X709603Y123433D01*
X709785Y123493D01*
X709970Y123551D01*
X709978Y123555D01*
X709986Y123558D01*
X710155Y123653D01*
X710322Y123746D01*
X710329Y123752D01*
X710337Y123756D01*
X710483Y123882D01*
X710629Y124006D01*
X710635Y124013D01*
X710642Y124019D01*
X710759Y124171D01*
X710879Y124322D01*
X710883Y124330D01*
X710888Y124337D01*
X710974Y124509D01*
X711061Y124681D01*
X711064Y124690D01*
X711068Y124698D01*
X711118Y124884D01*
X711169Y125069D01*
X711170Y125078D01*
X711172Y125087D01*
X711183Y125222D01*
X712978Y129555D01*
X716265Y132842D01*
X718428Y133738D01*
X718507Y133780D01*
X718590Y133813D01*
X718684Y133875D01*
X718783Y133928D01*
X718852Y133985D01*
X718927Y134034D01*
X719007Y134113D01*
X719094Y134184D01*
X719150Y134254D01*
X719214Y134317D01*
X719276Y134410D01*
X719347Y134497D01*
X719389Y134576D01*
X719439Y134650D01*
X719482Y134754D01*
X719534Y134854D01*
X719559Y134939D01*
X719594Y135022D01*
X719616Y135132D01*
X719647Y135240D01*
X719655Y135329D01*
X719673Y135417D01*
X719672Y135529D01*
X719682Y135641D01*
X719672Y135730D01*
X719672Y135819D01*
X719649Y135930D01*
X719637Y136041D01*
X719610Y136126D01*
X719592Y136214D01*
X719548Y136317D01*
X719514Y136425D01*
X719470Y136503D01*
X719435Y136585D01*
X719372Y136678D01*
X719317Y136776D01*
X719259Y136844D01*
X719209Y136918D01*
X719129Y136996D01*
X719056Y137082D01*
X718985Y137137D01*
X718921Y137200D01*
X718827Y137261D01*
X718739Y137330D01*
X718659Y137370D01*
X718584Y137419D01*
X718520Y137446D01*
X716760Y138342D01*
X715272Y139423D01*
X713971Y140724D01*
X712890Y142212D01*
X712055Y143850D01*
X711506Y145543D01*
X730758Y145543D01*
X730776Y145544D01*
X730793Y145543D01*
X730976Y145564D01*
X731158Y145583D01*
X731175Y145588D01*
X731193Y145590D01*
X731368Y145647D01*
X731518Y145693D01*
X731530Y145687D01*
X731547Y145682D01*
X731563Y145674D01*
X731741Y145626D01*
X731916Y145576D01*
X731934Y145574D01*
X731951Y145570D01*
X732282Y145543D01*
X751534Y145543D01*
X750985Y143850D01*
X750150Y142212D01*
X749069Y140724D01*
X747768Y139423D01*
X746280Y138342D01*
X744597Y137485D01*
X744595Y137484D01*
X744584Y137478D01*
X744499Y137435D01*
X744482Y137424D01*
X744394Y137385D01*
X744320Y137334D01*
X744242Y137291D01*
X744156Y137219D01*
X744064Y137154D01*
X744002Y137089D01*
X743934Y137032D01*
X743864Y136944D01*
X743786Y136863D01*
X743739Y136787D01*
X743683Y136717D01*
X743632Y136617D01*
X743572Y136522D01*
X743540Y136438D01*
X743499Y136359D01*
X743468Y136251D01*
X743428Y136146D01*
X743414Y136057D01*
X743389Y135971D01*
X743381Y135859D01*
X743362Y135748D01*
X743365Y135659D01*
X743358Y135570D01*
X743372Y135459D01*
X743376Y135346D01*
X743396Y135259D01*
X743407Y135170D01*
X743442Y135064D01*
X743468Y134954D01*
X743505Y134873D01*
X743533Y134788D01*
X743589Y134691D01*
X743636Y134588D01*
X743689Y134516D01*
X743733Y134438D01*
X743807Y134354D01*
X743873Y134263D01*
X743939Y134202D01*
X743997Y134135D01*
X744086Y134066D01*
X744169Y133990D01*
X744246Y133944D01*
X744317Y133889D01*
X744441Y133825D01*
X744514Y133782D01*
X744557Y133766D01*
X744612Y133738D01*
X746775Y132842D01*
X750062Y129555D01*
X750390Y128763D01*
X750400Y128743D01*
X750407Y128722D01*
X750496Y128566D01*
X750580Y128408D01*
X750594Y128391D01*
X750605Y128371D01*
X750722Y128236D01*
X750837Y128097D01*
X750854Y128083D01*
X750868Y128066D01*
X751010Y127957D01*
X751149Y127844D01*
X751169Y127833D01*
X751187Y127820D01*
X751347Y127740D01*
X751506Y127657D01*
X751527Y127650D01*
X751547Y127640D01*
X751720Y127594D01*
X751892Y127544D01*
X751914Y127542D01*
X751936Y127536D01*
X752267Y127509D01*
X766885Y127509D01*
X766911Y127511D01*
X766938Y127509D01*
X767112Y127531D01*
X767285Y127549D01*
X767311Y127556D01*
X767337Y127560D01*
X767503Y127615D01*
X767670Y127667D01*
X767694Y127680D01*
X767719Y127688D01*
X767870Y127775D01*
X768024Y127859D01*
X768045Y127876D01*
X768068Y127889D01*
X768321Y128104D01*
X776544Y136326D01*
X776555Y136340D01*
X776568Y136352D01*
X776682Y136496D01*
X776799Y136638D01*
X776807Y136654D01*
X776818Y136668D01*
X776901Y136832D01*
X776987Y136993D01*
X776992Y137011D01*
X777000Y137027D01*
X777050Y137204D01*
X777102Y137379D01*
X777104Y137397D01*
X777108Y137414D01*
X777122Y137598D01*
X777138Y137780D01*
X777136Y137798D01*
X777138Y137816D01*
X777115Y137998D01*
X777095Y138181D01*
X777090Y138198D01*
X777087Y138215D01*
X777029Y138389D01*
X776973Y138564D01*
X776965Y138580D01*
X776959Y138597D01*
X776867Y138757D01*
X776779Y138917D01*
X776767Y138930D01*
X776758Y138946D01*
X776544Y139199D01*
X774601Y141142D01*
X772667Y145810D01*
X772667Y150862D01*
X774601Y155530D01*
X778174Y159103D01*
X782842Y161037D01*
X807198Y161037D01*
X811866Y159103D01*
X815439Y155530D01*
X817373Y150862D01*
X817373Y145810D01*
X815439Y141142D01*
X811866Y137569D01*
X807198Y135635D01*
X789627Y135635D01*
X789601Y135633D01*
X789574Y135635D01*
X789400Y135613D01*
X789227Y135595D01*
X789201Y135588D01*
X789175Y135584D01*
X789009Y135528D01*
X788842Y135477D01*
X788818Y135464D01*
X788793Y135456D01*
X788641Y135369D01*
X788488Y135285D01*
X788467Y135268D01*
X788444Y135255D01*
X788191Y135040D01*
X772210Y119059D01*
X770530Y118363D01*
X752267Y118363D01*
X752244Y118361D01*
X752222Y118363D01*
X752045Y118341D01*
X751866Y118323D01*
X751845Y118317D01*
X751822Y118314D01*
X751653Y118258D01*
X751481Y118205D01*
X751461Y118195D01*
X751440Y118188D01*
X751285Y118099D01*
X751127Y118013D01*
X751110Y117999D01*
X751091Y117988D01*
X750956Y117871D01*
X750818Y117756D01*
X750804Y117738D01*
X750787Y117724D01*
X750678Y117582D01*
X750565Y117442D01*
X750555Y117422D01*
X750542Y117404D01*
X750390Y117109D01*
X750062Y116317D01*
X746775Y113030D01*
X744560Y112113D01*
X744552Y112108D01*
X744543Y112106D01*
X744374Y112013D01*
X744205Y111922D01*
X744198Y111917D01*
X744190Y111912D01*
X744043Y111789D01*
X743894Y111666D01*
X743889Y111659D01*
X743882Y111653D01*
X743761Y111502D01*
X743641Y111353D01*
X743637Y111346D01*
X743631Y111338D01*
X743542Y111165D01*
X743454Y110997D01*
X743451Y110988D01*
X743447Y110980D01*
X743394Y110794D01*
X743341Y110610D01*
X743340Y110601D01*
X743337Y110593D01*
X743323Y110402D01*
X743306Y110209D01*
X743307Y110200D01*
X743306Y110192D01*
X743330Y110000D01*
X743351Y109809D01*
X743354Y109801D01*
X743355Y109792D01*
X743415Y109609D01*
X743474Y109426D01*
X743479Y109418D01*
X743481Y109410D01*
X743577Y109243D01*
X743671Y109074D01*
X743677Y109068D01*
X743681Y109060D01*
X743807Y108916D01*
X743932Y108769D01*
X743940Y108763D01*
X743945Y108756D01*
X744098Y108639D01*
X744250Y108520D01*
X744257Y108516D01*
X744265Y108511D01*
X744560Y108359D01*
X746775Y107442D01*
X750062Y104155D01*
X751841Y99860D01*
X751841Y95212D01*
X750062Y90917D01*
X746775Y87630D01*
X742480Y85851D01*
X720560Y85851D01*
G37*
%LPD*%
%LPC*%
G36*
X550742Y284225D02*
X550742Y284225D01*
X540083Y287081D01*
X530526Y292599D01*
X522723Y300402D01*
X517205Y309959D01*
X514349Y320618D01*
X514349Y331654D01*
X517205Y342313D01*
X522723Y351870D01*
X530526Y359673D01*
X534296Y361849D01*
X534356Y361892D01*
X534420Y361927D01*
X534518Y362009D01*
X534623Y362084D01*
X534673Y362138D01*
X534729Y362185D01*
X534809Y362285D01*
X534897Y362379D01*
X534936Y362442D01*
X534981Y362499D01*
X535041Y362612D01*
X535108Y362722D01*
X535133Y362791D01*
X535167Y362856D01*
X535202Y362979D01*
X535247Y363100D01*
X535258Y363172D01*
X535278Y363243D01*
X535289Y363371D01*
X535309Y363498D01*
X535305Y363571D01*
X535311Y363644D01*
X535296Y363772D01*
X535291Y363900D01*
X535273Y363971D01*
X535264Y364044D01*
X535224Y364166D01*
X535194Y364291D01*
X535162Y364357D01*
X535139Y364427D01*
X535076Y364539D01*
X535021Y364655D01*
X534978Y364713D01*
X534942Y364777D01*
X534857Y364875D01*
X534781Y364978D01*
X534726Y365026D01*
X534678Y365082D01*
X534577Y365161D01*
X534481Y365247D01*
X534418Y365284D01*
X534360Y365329D01*
X534245Y365386D01*
X534135Y365451D01*
X534065Y365475D01*
X534000Y365508D01*
X533876Y365541D01*
X533754Y365584D01*
X533682Y365594D01*
X533611Y365613D01*
X533442Y365627D01*
X533355Y365638D01*
X533323Y365636D01*
X533280Y365640D01*
X481391Y365640D01*
X481364Y365637D01*
X481338Y365639D01*
X481164Y365617D01*
X480990Y365600D01*
X480965Y365592D01*
X480938Y365589D01*
X480773Y365533D01*
X480605Y365482D01*
X480582Y365469D01*
X480557Y365460D01*
X480405Y365373D01*
X480251Y365290D01*
X480231Y365273D01*
X480208Y365259D01*
X479955Y365045D01*
X444663Y329753D01*
X442983Y329057D01*
X302379Y329057D01*
X300699Y329753D01*
X276526Y353926D01*
X276512Y353938D01*
X276500Y353951D01*
X276356Y354065D01*
X276214Y354181D01*
X276199Y354190D01*
X276184Y354201D01*
X276020Y354284D01*
X275859Y354370D01*
X275841Y354375D01*
X275826Y354383D01*
X275648Y354432D01*
X275473Y354485D01*
X275455Y354486D01*
X275438Y354491D01*
X275255Y354505D01*
X275072Y354521D01*
X275054Y354519D01*
X275036Y354520D01*
X274854Y354498D01*
X274671Y354478D01*
X274654Y354472D01*
X274637Y354470D01*
X274463Y354412D01*
X274288Y354356D01*
X274272Y354348D01*
X274255Y354342D01*
X274096Y354250D01*
X273935Y354161D01*
X273922Y354150D01*
X273906Y354141D01*
X273653Y353926D01*
X272419Y352692D01*
X270163Y351758D01*
X268708Y351155D01*
X264692Y351155D01*
X260981Y352692D01*
X258140Y355533D01*
X256603Y359244D01*
X256603Y377356D01*
X258140Y381067D01*
X260116Y383042D01*
X260127Y383056D01*
X260140Y383068D01*
X260254Y383212D01*
X260371Y383354D01*
X260379Y383370D01*
X260390Y383384D01*
X260473Y383548D01*
X260559Y383710D01*
X260564Y383727D01*
X260572Y383743D01*
X260622Y383920D01*
X260674Y384096D01*
X260676Y384113D01*
X260680Y384131D01*
X260694Y384314D01*
X260710Y384496D01*
X260708Y384514D01*
X260710Y384532D01*
X260687Y384714D01*
X260667Y384897D01*
X260662Y384914D01*
X260659Y384931D01*
X260601Y385105D01*
X260545Y385281D01*
X260537Y385296D01*
X260531Y385313D01*
X260439Y385473D01*
X260351Y385633D01*
X260339Y385646D01*
X260330Y385662D01*
X260116Y385915D01*
X256539Y389491D01*
X256539Y397909D01*
X262491Y403861D01*
X270909Y403861D01*
X276861Y397909D01*
X276861Y389491D01*
X273284Y385915D01*
X273273Y385901D01*
X273260Y385890D01*
X273145Y385745D01*
X273029Y385604D01*
X273021Y385588D01*
X273010Y385574D01*
X272927Y385410D01*
X272841Y385248D01*
X272836Y385231D01*
X272828Y385215D01*
X272778Y385038D01*
X272726Y384862D01*
X272724Y384844D01*
X272720Y384827D01*
X272706Y384644D01*
X272690Y384461D01*
X272692Y384443D01*
X272690Y384425D01*
X272713Y384243D01*
X272733Y384061D01*
X272738Y384044D01*
X272741Y384026D01*
X272799Y383852D01*
X272855Y383677D01*
X272863Y383661D01*
X272869Y383644D01*
X272960Y383485D01*
X273049Y383325D01*
X273061Y383311D01*
X273070Y383295D01*
X273284Y383042D01*
X275260Y381067D01*
X276797Y377356D01*
X276797Y367430D01*
X276799Y367404D01*
X276797Y367377D01*
X276819Y367203D01*
X276837Y367030D01*
X276844Y367004D01*
X276848Y366978D01*
X276904Y366812D01*
X276955Y366645D01*
X276967Y366621D01*
X276976Y366596D01*
X277063Y366444D01*
X277147Y366291D01*
X277164Y366270D01*
X277177Y366247D01*
X277392Y365994D01*
X278536Y364850D01*
X278543Y364844D01*
X278548Y364837D01*
X278698Y364717D01*
X278847Y364595D01*
X278855Y364591D01*
X278862Y364585D01*
X279032Y364497D01*
X279203Y364406D01*
X279212Y364404D01*
X279219Y364400D01*
X279404Y364347D01*
X279589Y364291D01*
X279598Y364291D01*
X279606Y364288D01*
X279797Y364272D01*
X279990Y364255D01*
X279999Y364256D01*
X280008Y364255D01*
X280197Y364277D01*
X280390Y364298D01*
X280399Y364301D01*
X280407Y364302D01*
X280589Y364362D01*
X280774Y364420D01*
X280782Y364424D01*
X280790Y364427D01*
X280957Y364521D01*
X281126Y364615D01*
X281133Y364621D01*
X281141Y364625D01*
X281286Y364750D01*
X281433Y364875D01*
X281439Y364882D01*
X281446Y364888D01*
X281563Y365040D01*
X281683Y365191D01*
X281687Y365199D01*
X281692Y365206D01*
X281778Y365378D01*
X281865Y365550D01*
X281868Y365559D01*
X281872Y365567D01*
X281921Y365752D01*
X281973Y365938D01*
X281974Y365947D01*
X281976Y365955D01*
X282003Y366286D01*
X282003Y377356D01*
X283540Y381067D01*
X285516Y383042D01*
X285527Y383056D01*
X285540Y383068D01*
X285654Y383212D01*
X285771Y383354D01*
X285779Y383370D01*
X285790Y383384D01*
X285873Y383548D01*
X285959Y383710D01*
X285964Y383727D01*
X285972Y383743D01*
X286022Y383920D01*
X286074Y384096D01*
X286076Y384113D01*
X286080Y384131D01*
X286094Y384314D01*
X286110Y384496D01*
X286108Y384514D01*
X286110Y384532D01*
X286087Y384714D01*
X286067Y384897D01*
X286062Y384914D01*
X286059Y384931D01*
X286001Y385105D01*
X285945Y385281D01*
X285937Y385296D01*
X285931Y385313D01*
X285839Y385473D01*
X285751Y385633D01*
X285739Y385646D01*
X285730Y385662D01*
X285516Y385915D01*
X281939Y389491D01*
X281939Y397909D01*
X287891Y403861D01*
X296309Y403861D01*
X302261Y397909D01*
X302261Y389491D01*
X298684Y385915D01*
X298673Y385901D01*
X298660Y385890D01*
X298545Y385745D01*
X298429Y385604D01*
X298421Y385588D01*
X298410Y385574D01*
X298327Y385410D01*
X298241Y385248D01*
X298236Y385231D01*
X298228Y385215D01*
X298178Y385038D01*
X298126Y384862D01*
X298124Y384844D01*
X298120Y384827D01*
X298106Y384644D01*
X298090Y384461D01*
X298092Y384443D01*
X298090Y384425D01*
X298113Y384243D01*
X298133Y384061D01*
X298138Y384044D01*
X298141Y384026D01*
X298199Y383852D01*
X298255Y383677D01*
X298263Y383661D01*
X298269Y383644D01*
X298360Y383485D01*
X298449Y383325D01*
X298461Y383311D01*
X298470Y383295D01*
X298684Y383042D01*
X300660Y381067D01*
X302197Y377356D01*
X302197Y359244D01*
X300660Y355533D01*
X300194Y355067D01*
X300183Y355053D01*
X300169Y355042D01*
X300056Y354898D01*
X299939Y354756D01*
X299931Y354740D01*
X299920Y354726D01*
X299837Y354563D01*
X299750Y354400D01*
X299745Y354383D01*
X299737Y354367D01*
X299688Y354190D01*
X299636Y354014D01*
X299634Y353996D01*
X299629Y353979D01*
X299616Y353796D01*
X299599Y353613D01*
X299601Y353595D01*
X299600Y353578D01*
X299623Y353395D01*
X299643Y353213D01*
X299648Y353196D01*
X299650Y353178D01*
X299709Y353004D01*
X299764Y352829D01*
X299773Y352813D01*
X299779Y352797D01*
X299870Y352637D01*
X299959Y352477D01*
X299971Y352463D01*
X299979Y352448D01*
X300194Y352195D01*
X307495Y344894D01*
X307516Y344877D01*
X307533Y344856D01*
X307671Y344749D01*
X307807Y344639D01*
X307830Y344626D01*
X307851Y344610D01*
X308008Y344532D01*
X308162Y344450D01*
X308188Y344442D01*
X308212Y344430D01*
X308381Y344385D01*
X308548Y344335D01*
X308575Y344333D01*
X308601Y344326D01*
X308931Y344299D01*
X436813Y344299D01*
X436839Y344301D01*
X436866Y344299D01*
X437040Y344321D01*
X437213Y344339D01*
X437239Y344346D01*
X437265Y344350D01*
X437431Y344405D01*
X437598Y344457D01*
X437622Y344470D01*
X437647Y344478D01*
X437799Y344565D01*
X437952Y344649D01*
X437973Y344666D01*
X437996Y344679D01*
X438249Y344894D01*
X473914Y380559D01*
X475594Y381255D01*
X671127Y381255D01*
X671153Y381257D01*
X671180Y381255D01*
X671354Y381277D01*
X671527Y381295D01*
X671553Y381302D01*
X671579Y381306D01*
X671745Y381361D01*
X671912Y381413D01*
X671936Y381426D01*
X671961Y381434D01*
X672113Y381521D01*
X672266Y381605D01*
X672287Y381622D01*
X672310Y381635D01*
X672563Y381850D01*
X696926Y406213D01*
X698606Y406909D01*
X710773Y406909D01*
X710796Y406911D01*
X710818Y406909D01*
X710995Y406931D01*
X711174Y406949D01*
X711195Y406955D01*
X711218Y406958D01*
X711387Y407014D01*
X711559Y407067D01*
X711579Y407077D01*
X711600Y407084D01*
X711755Y407173D01*
X711913Y407259D01*
X711930Y407273D01*
X711949Y407284D01*
X712084Y407401D01*
X712222Y407516D01*
X712236Y407534D01*
X712253Y407548D01*
X712362Y407690D01*
X712475Y407830D01*
X712485Y407850D01*
X712498Y407868D01*
X712650Y408163D01*
X712978Y408955D01*
X716265Y412242D01*
X718480Y413159D01*
X718488Y413164D01*
X718497Y413166D01*
X718665Y413258D01*
X718835Y413350D01*
X718842Y413355D01*
X718850Y413360D01*
X718996Y413483D01*
X719145Y413606D01*
X719151Y413613D01*
X719158Y413619D01*
X719278Y413769D01*
X719399Y413919D01*
X719403Y413927D01*
X719409Y413933D01*
X719497Y414104D01*
X719586Y414275D01*
X719589Y414284D01*
X719593Y414292D01*
X719645Y414475D01*
X719699Y414662D01*
X719700Y414670D01*
X719703Y414679D01*
X719717Y414870D01*
X719734Y415063D01*
X719733Y415072D01*
X719734Y415080D01*
X719711Y415270D01*
X719689Y415463D01*
X719686Y415471D01*
X719685Y415480D01*
X719625Y415662D01*
X719566Y415846D01*
X719561Y415854D01*
X719559Y415862D01*
X719463Y416030D01*
X719369Y416198D01*
X719364Y416204D01*
X719359Y416212D01*
X719233Y416357D01*
X719107Y416503D01*
X719100Y416509D01*
X719095Y416516D01*
X718942Y416633D01*
X718790Y416752D01*
X718783Y416756D01*
X718775Y416761D01*
X718480Y416913D01*
X716265Y417830D01*
X712978Y421117D01*
X711199Y425412D01*
X711199Y430060D01*
X712978Y434355D01*
X716265Y437642D01*
X718428Y438538D01*
X718507Y438580D01*
X718590Y438613D01*
X718684Y438675D01*
X718783Y438728D01*
X718852Y438785D01*
X718927Y438834D01*
X719007Y438913D01*
X719094Y438984D01*
X719150Y439054D01*
X719214Y439117D01*
X719276Y439210D01*
X719347Y439297D01*
X719389Y439376D01*
X719439Y439450D01*
X719482Y439554D01*
X719534Y439654D01*
X719559Y439739D01*
X719594Y439822D01*
X719616Y439932D01*
X719647Y440040D01*
X719655Y440129D01*
X719673Y440217D01*
X719672Y440329D01*
X719682Y440441D01*
X719672Y440530D01*
X719672Y440619D01*
X719649Y440730D01*
X719637Y440841D01*
X719610Y440926D01*
X719592Y441014D01*
X719548Y441117D01*
X719514Y441225D01*
X719470Y441303D01*
X719435Y441385D01*
X719372Y441478D01*
X719317Y441576D01*
X719259Y441644D01*
X719209Y441718D01*
X719129Y441796D01*
X719056Y441882D01*
X718985Y441937D01*
X718921Y442000D01*
X718827Y442061D01*
X718739Y442130D01*
X718659Y442170D01*
X718584Y442219D01*
X718520Y442246D01*
X716760Y443142D01*
X715272Y444223D01*
X713971Y445524D01*
X712890Y447012D01*
X712055Y448650D01*
X711506Y450343D01*
X730758Y450343D01*
X730776Y450344D01*
X730793Y450343D01*
X730976Y450364D01*
X731158Y450383D01*
X731175Y450388D01*
X731193Y450390D01*
X731368Y450447D01*
X731518Y450493D01*
X731530Y450487D01*
X731547Y450482D01*
X731563Y450474D01*
X731741Y450426D01*
X731916Y450376D01*
X731934Y450374D01*
X731951Y450370D01*
X732282Y450343D01*
X751534Y450343D01*
X750985Y448650D01*
X750150Y447012D01*
X749069Y445524D01*
X747768Y444223D01*
X746280Y443142D01*
X744597Y442285D01*
X744595Y442284D01*
X744584Y442278D01*
X744499Y442235D01*
X744482Y442224D01*
X744394Y442185D01*
X744320Y442134D01*
X744242Y442091D01*
X744156Y442019D01*
X744064Y441954D01*
X744002Y441889D01*
X743934Y441832D01*
X743864Y441744D01*
X743786Y441663D01*
X743739Y441587D01*
X743683Y441517D01*
X743632Y441417D01*
X743572Y441322D01*
X743540Y441238D01*
X743499Y441159D01*
X743468Y441051D01*
X743428Y440946D01*
X743414Y440857D01*
X743389Y440771D01*
X743381Y440659D01*
X743362Y440548D01*
X743365Y440459D01*
X743358Y440370D01*
X743372Y440259D01*
X743376Y440146D01*
X743396Y440059D01*
X743407Y439970D01*
X743442Y439864D01*
X743468Y439754D01*
X743505Y439673D01*
X743533Y439588D01*
X743589Y439491D01*
X743636Y439388D01*
X743689Y439316D01*
X743733Y439238D01*
X743807Y439154D01*
X743873Y439063D01*
X743939Y439002D01*
X743997Y438935D01*
X744086Y438866D01*
X744169Y438790D01*
X744246Y438744D01*
X744317Y438689D01*
X744441Y438625D01*
X744514Y438582D01*
X744557Y438566D01*
X744612Y438538D01*
X746775Y437642D01*
X750062Y434355D01*
X750390Y433563D01*
X750400Y433543D01*
X750407Y433522D01*
X750496Y433366D01*
X750580Y433208D01*
X750594Y433191D01*
X750605Y433171D01*
X750722Y433036D01*
X750837Y432897D01*
X750854Y432883D01*
X750868Y432866D01*
X751010Y432757D01*
X751149Y432644D01*
X751169Y432633D01*
X751187Y432620D01*
X751347Y432540D01*
X751506Y432457D01*
X751527Y432450D01*
X751547Y432440D01*
X751720Y432394D01*
X751892Y432344D01*
X751914Y432342D01*
X751936Y432336D01*
X752267Y432309D01*
X766885Y432309D01*
X766911Y432311D01*
X766938Y432309D01*
X767112Y432331D01*
X767285Y432349D01*
X767311Y432356D01*
X767337Y432360D01*
X767503Y432415D01*
X767670Y432467D01*
X767694Y432480D01*
X767719Y432488D01*
X767870Y432575D01*
X768024Y432659D01*
X768045Y432676D01*
X768068Y432689D01*
X768321Y432904D01*
X776544Y441126D01*
X776555Y441140D01*
X776568Y441152D01*
X776682Y441296D01*
X776799Y441438D01*
X776807Y441454D01*
X776818Y441468D01*
X776901Y441632D01*
X776987Y441793D01*
X776992Y441811D01*
X777000Y441827D01*
X777050Y442004D01*
X777102Y442179D01*
X777104Y442197D01*
X777108Y442214D01*
X777122Y442398D01*
X777138Y442580D01*
X777136Y442598D01*
X777138Y442616D01*
X777115Y442798D01*
X777095Y442981D01*
X777090Y442998D01*
X777087Y443015D01*
X777029Y443189D01*
X776973Y443364D01*
X776965Y443380D01*
X776959Y443397D01*
X776867Y443557D01*
X776779Y443717D01*
X776767Y443730D01*
X776758Y443746D01*
X776544Y443999D01*
X774601Y445942D01*
X772667Y450610D01*
X772667Y455662D01*
X774601Y460330D01*
X778174Y463903D01*
X782842Y465837D01*
X807198Y465837D01*
X811866Y463903D01*
X815439Y460330D01*
X817373Y455662D01*
X817373Y450610D01*
X815439Y445942D01*
X811866Y442369D01*
X807198Y440435D01*
X789627Y440435D01*
X789601Y440433D01*
X789574Y440435D01*
X789400Y440413D01*
X789227Y440395D01*
X789201Y440388D01*
X789175Y440384D01*
X789009Y440328D01*
X788842Y440277D01*
X788818Y440264D01*
X788793Y440256D01*
X788641Y440169D01*
X788488Y440085D01*
X788467Y440068D01*
X788444Y440055D01*
X788191Y439840D01*
X772210Y423859D01*
X770530Y423163D01*
X752267Y423163D01*
X752244Y423161D01*
X752222Y423163D01*
X752045Y423141D01*
X751866Y423123D01*
X751845Y423117D01*
X751822Y423114D01*
X751653Y423058D01*
X751481Y423005D01*
X751461Y422995D01*
X751440Y422988D01*
X751285Y422899D01*
X751127Y422813D01*
X751110Y422799D01*
X751091Y422788D01*
X750956Y422671D01*
X750818Y422556D01*
X750804Y422538D01*
X750787Y422524D01*
X750678Y422382D01*
X750565Y422242D01*
X750555Y422222D01*
X750542Y422204D01*
X750390Y421909D01*
X750062Y421117D01*
X746775Y417830D01*
X744560Y416913D01*
X744552Y416908D01*
X744543Y416906D01*
X744373Y416813D01*
X744205Y416722D01*
X744198Y416717D01*
X744190Y416712D01*
X744042Y416588D01*
X743894Y416466D01*
X743889Y416459D01*
X743882Y416453D01*
X743762Y416303D01*
X743641Y416153D01*
X743637Y416145D01*
X743631Y416138D01*
X743544Y415969D01*
X743454Y415797D01*
X743451Y415788D01*
X743447Y415780D01*
X743395Y415598D01*
X743341Y415410D01*
X743340Y415401D01*
X743337Y415393D01*
X743322Y415200D01*
X743306Y415009D01*
X743307Y415000D01*
X743306Y414992D01*
X743330Y414801D01*
X743351Y414609D01*
X743354Y414601D01*
X743355Y414592D01*
X743415Y414410D01*
X743474Y414226D01*
X743479Y414218D01*
X743482Y414210D01*
X743577Y414042D01*
X743671Y413874D01*
X743676Y413868D01*
X743681Y413860D01*
X743808Y413714D01*
X743933Y413569D01*
X743940Y413563D01*
X743945Y413556D01*
X744098Y413439D01*
X744250Y413320D01*
X744258Y413316D01*
X744265Y413311D01*
X744560Y413159D01*
X746775Y412242D01*
X750062Y408955D01*
X751841Y404660D01*
X751841Y400012D01*
X750062Y395717D01*
X746775Y392430D01*
X746660Y392383D01*
X742480Y390651D01*
X720560Y390651D01*
X716265Y392430D01*
X712978Y395717D01*
X712650Y396509D01*
X712640Y396529D01*
X712633Y396550D01*
X712544Y396706D01*
X712460Y396864D01*
X712446Y396881D01*
X712435Y396901D01*
X712318Y397036D01*
X712203Y397175D01*
X712186Y397189D01*
X712172Y397206D01*
X712030Y397315D01*
X711891Y397428D01*
X711871Y397439D01*
X711853Y397452D01*
X711693Y397532D01*
X711534Y397615D01*
X711513Y397622D01*
X711493Y397632D01*
X711320Y397678D01*
X711148Y397728D01*
X711126Y397730D01*
X711104Y397736D01*
X710773Y397763D01*
X702251Y397763D01*
X702225Y397761D01*
X702198Y397763D01*
X702024Y397741D01*
X701851Y397723D01*
X701825Y397716D01*
X701799Y397712D01*
X701633Y397657D01*
X701466Y397605D01*
X701442Y397592D01*
X701417Y397584D01*
X701265Y397497D01*
X701112Y397413D01*
X701091Y397396D01*
X701068Y397383D01*
X700815Y397168D01*
X681900Y378253D01*
X681894Y378246D01*
X681887Y378240D01*
X681767Y378091D01*
X681644Y377941D01*
X681640Y377933D01*
X681635Y377926D01*
X681546Y377756D01*
X681456Y377586D01*
X681453Y377577D01*
X681449Y377569D01*
X681396Y377384D01*
X681341Y377200D01*
X681340Y377191D01*
X681338Y377182D01*
X681322Y376991D01*
X681305Y376799D01*
X681306Y376790D01*
X681305Y376781D01*
X681327Y376592D01*
X681348Y376398D01*
X681351Y376390D01*
X681352Y376381D01*
X681411Y376199D01*
X681470Y376015D01*
X681474Y376007D01*
X681477Y375998D01*
X681572Y375830D01*
X681664Y375662D01*
X681670Y375655D01*
X681675Y375648D01*
X681801Y375502D01*
X681925Y375355D01*
X681932Y375350D01*
X681938Y375343D01*
X682089Y375225D01*
X682241Y375106D01*
X682249Y375102D01*
X682256Y375096D01*
X682428Y375011D01*
X682600Y374923D01*
X682608Y374921D01*
X682616Y374917D01*
X682803Y374867D01*
X682988Y374815D01*
X682997Y374815D01*
X683005Y374812D01*
X683336Y374785D01*
X687337Y374785D01*
X689018Y374089D01*
X700345Y362762D01*
X701041Y361082D01*
X701041Y336237D01*
X701043Y336211D01*
X701041Y336184D01*
X701063Y336010D01*
X701081Y335837D01*
X701088Y335811D01*
X701092Y335785D01*
X701147Y335619D01*
X701199Y335452D01*
X701212Y335428D01*
X701220Y335403D01*
X701307Y335252D01*
X701391Y335098D01*
X701408Y335077D01*
X701421Y335054D01*
X701636Y334801D01*
X708106Y328331D01*
X708116Y328323D01*
X708125Y328312D01*
X708272Y328195D01*
X708417Y328076D01*
X708429Y328070D01*
X708440Y328061D01*
X708607Y327975D01*
X708773Y327887D01*
X708786Y327884D01*
X708798Y327877D01*
X708978Y327826D01*
X709159Y327773D01*
X709172Y327771D01*
X709185Y327768D01*
X709371Y327753D01*
X709560Y327736D01*
X709573Y327738D01*
X709587Y327737D01*
X709771Y327759D01*
X709960Y327780D01*
X709973Y327784D01*
X709986Y327785D01*
X710163Y327844D01*
X710344Y327901D01*
X710356Y327908D01*
X710368Y327912D01*
X710531Y328005D01*
X710696Y328096D01*
X710706Y328105D01*
X710718Y328111D01*
X710860Y328235D01*
X711003Y328356D01*
X711012Y328367D01*
X711022Y328376D01*
X711136Y328524D01*
X711253Y328672D01*
X711259Y328684D01*
X711267Y328695D01*
X711419Y328990D01*
X712978Y332755D01*
X716265Y336042D01*
X718428Y336938D01*
X718507Y336980D01*
X718590Y337013D01*
X718684Y337075D01*
X718783Y337128D01*
X718852Y337185D01*
X718927Y337234D01*
X719007Y337313D01*
X719094Y337384D01*
X719150Y337454D01*
X719214Y337517D01*
X719276Y337610D01*
X719347Y337697D01*
X719389Y337776D01*
X719439Y337850D01*
X719482Y337954D01*
X719534Y338054D01*
X719559Y338139D01*
X719594Y338222D01*
X719616Y338332D01*
X719647Y338440D01*
X719655Y338529D01*
X719673Y338617D01*
X719672Y338729D01*
X719682Y338841D01*
X719672Y338930D01*
X719672Y339019D01*
X719649Y339130D01*
X719637Y339241D01*
X719610Y339326D01*
X719592Y339414D01*
X719548Y339517D01*
X719514Y339625D01*
X719470Y339703D01*
X719435Y339785D01*
X719372Y339878D01*
X719317Y339976D01*
X719259Y340044D01*
X719209Y340118D01*
X719129Y340196D01*
X719056Y340282D01*
X718985Y340337D01*
X718921Y340400D01*
X718827Y340461D01*
X718739Y340530D01*
X718659Y340570D01*
X718584Y340619D01*
X718520Y340646D01*
X716760Y341542D01*
X715272Y342623D01*
X713971Y343924D01*
X712890Y345412D01*
X712055Y347050D01*
X711506Y348743D01*
X730758Y348743D01*
X730776Y348744D01*
X730793Y348743D01*
X730976Y348764D01*
X731158Y348783D01*
X731175Y348788D01*
X731193Y348790D01*
X731368Y348847D01*
X731518Y348893D01*
X731530Y348887D01*
X731547Y348882D01*
X731563Y348874D01*
X731741Y348826D01*
X731916Y348776D01*
X731934Y348774D01*
X731951Y348770D01*
X732282Y348743D01*
X751534Y348743D01*
X750985Y347050D01*
X750150Y345412D01*
X749069Y343924D01*
X747768Y342623D01*
X746280Y341542D01*
X744597Y340685D01*
X744595Y340684D01*
X744584Y340678D01*
X744499Y340635D01*
X744482Y340624D01*
X744394Y340585D01*
X744320Y340534D01*
X744242Y340491D01*
X744156Y340419D01*
X744064Y340354D01*
X744002Y340289D01*
X743934Y340232D01*
X743864Y340144D01*
X743786Y340063D01*
X743739Y339987D01*
X743683Y339917D01*
X743632Y339817D01*
X743572Y339722D01*
X743540Y339638D01*
X743499Y339559D01*
X743468Y339451D01*
X743428Y339346D01*
X743414Y339257D01*
X743389Y339171D01*
X743381Y339059D01*
X743362Y338948D01*
X743365Y338859D01*
X743358Y338770D01*
X743372Y338659D01*
X743376Y338546D01*
X743396Y338459D01*
X743407Y338370D01*
X743442Y338264D01*
X743468Y338154D01*
X743505Y338073D01*
X743533Y337988D01*
X743589Y337891D01*
X743636Y337788D01*
X743689Y337716D01*
X743733Y337638D01*
X743807Y337554D01*
X743873Y337463D01*
X743939Y337402D01*
X743997Y337335D01*
X744086Y337266D01*
X744169Y337190D01*
X744246Y337144D01*
X744317Y337089D01*
X744441Y337025D01*
X744514Y336982D01*
X744557Y336966D01*
X744612Y336938D01*
X746775Y336042D01*
X748575Y334242D01*
X748588Y334231D01*
X748600Y334217D01*
X748744Y334103D01*
X748886Y333987D01*
X748902Y333979D01*
X748916Y333968D01*
X749080Y333884D01*
X749242Y333798D01*
X749259Y333793D01*
X749275Y333785D01*
X749452Y333736D01*
X749628Y333684D01*
X749646Y333682D01*
X749663Y333677D01*
X749846Y333664D01*
X750029Y333647D01*
X750046Y333649D01*
X750064Y333648D01*
X750246Y333671D01*
X750429Y333691D01*
X750446Y333696D01*
X750464Y333698D01*
X750638Y333757D01*
X750813Y333812D01*
X750829Y333821D01*
X750845Y333826D01*
X751004Y333918D01*
X751165Y334007D01*
X751179Y334018D01*
X751194Y334027D01*
X751447Y334242D01*
X764998Y347793D01*
X766678Y348489D01*
X770636Y348489D01*
X770654Y348491D01*
X770672Y348489D01*
X770854Y348510D01*
X771037Y348529D01*
X771054Y348534D01*
X771071Y348536D01*
X771246Y348593D01*
X771422Y348647D01*
X771437Y348655D01*
X771454Y348661D01*
X771614Y348751D01*
X771776Y348839D01*
X771789Y348850D01*
X771805Y348859D01*
X771944Y348979D01*
X772085Y349096D01*
X772096Y349110D01*
X772110Y349122D01*
X772222Y349267D01*
X772337Y349410D01*
X772345Y349426D01*
X772356Y349440D01*
X772438Y349605D01*
X772523Y349767D01*
X772528Y349784D01*
X772536Y349800D01*
X772583Y349979D01*
X772634Y350154D01*
X772636Y350172D01*
X772640Y350189D01*
X772667Y350520D01*
X772667Y354062D01*
X774601Y358730D01*
X778174Y362303D01*
X782842Y364237D01*
X807198Y364237D01*
X811866Y362303D01*
X815439Y358730D01*
X817373Y354062D01*
X817373Y349010D01*
X815439Y344342D01*
X811866Y340769D01*
X807198Y338835D01*
X782842Y338835D01*
X781989Y339189D01*
X781959Y339198D01*
X781931Y339212D01*
X781766Y339256D01*
X781603Y339305D01*
X781572Y339308D01*
X781542Y339316D01*
X781211Y339343D01*
X770323Y339343D01*
X770297Y339341D01*
X770270Y339343D01*
X770096Y339321D01*
X769923Y339303D01*
X769897Y339296D01*
X769871Y339292D01*
X769705Y339237D01*
X769538Y339185D01*
X769514Y339172D01*
X769489Y339164D01*
X769337Y339077D01*
X769184Y338993D01*
X769163Y338976D01*
X769140Y338963D01*
X768887Y338748D01*
X752398Y322259D01*
X751726Y321981D01*
X751703Y321969D01*
X751677Y321960D01*
X751525Y321873D01*
X751372Y321791D01*
X751351Y321774D01*
X751328Y321761D01*
X751196Y321646D01*
X751061Y321535D01*
X751044Y321514D01*
X751024Y321496D01*
X750918Y321358D01*
X750807Y321222D01*
X750795Y321198D01*
X750779Y321177D01*
X750627Y320882D01*
X750062Y319517D01*
X746775Y316230D01*
X744560Y315313D01*
X744552Y315308D01*
X744543Y315306D01*
X744375Y315214D01*
X744205Y315122D01*
X744198Y315117D01*
X744190Y315112D01*
X744044Y314989D01*
X743895Y314866D01*
X743889Y314859D01*
X743882Y314853D01*
X743762Y314703D01*
X743641Y314553D01*
X743637Y314545D01*
X743631Y314539D01*
X743543Y314368D01*
X743454Y314197D01*
X743451Y314188D01*
X743447Y314180D01*
X743395Y313996D01*
X743341Y313810D01*
X743340Y313802D01*
X743337Y313793D01*
X743322Y313600D01*
X743306Y313409D01*
X743307Y313400D01*
X743306Y313392D01*
X743329Y313202D01*
X743351Y313009D01*
X743354Y313001D01*
X743355Y312992D01*
X743416Y312808D01*
X743474Y312626D01*
X743479Y312618D01*
X743481Y312610D01*
X743577Y312442D01*
X743671Y312274D01*
X743676Y312268D01*
X743681Y312260D01*
X743807Y312115D01*
X743933Y311969D01*
X743940Y311963D01*
X743945Y311956D01*
X744099Y311839D01*
X744250Y311720D01*
X744257Y311716D01*
X744265Y311711D01*
X744560Y311559D01*
X746775Y310642D01*
X750062Y307355D01*
X751841Y303060D01*
X751841Y298412D01*
X750062Y294117D01*
X746775Y290830D01*
X746751Y290820D01*
X742480Y289051D01*
X720560Y289051D01*
X716265Y290830D01*
X712978Y294117D01*
X711199Y298412D01*
X711199Y303060D01*
X712978Y307355D01*
X713127Y307504D01*
X713138Y307517D01*
X713152Y307529D01*
X713266Y307673D01*
X713382Y307815D01*
X713390Y307831D01*
X713401Y307845D01*
X713484Y308008D01*
X713571Y308171D01*
X713576Y308188D01*
X713584Y308204D01*
X713633Y308381D01*
X713685Y308557D01*
X713687Y308574D01*
X713692Y308592D01*
X713705Y308775D01*
X713722Y308958D01*
X713720Y308975D01*
X713721Y308993D01*
X713698Y309176D01*
X713678Y309358D01*
X713673Y309375D01*
X713671Y309393D01*
X713612Y309568D01*
X713557Y309742D01*
X713548Y309757D01*
X713543Y309774D01*
X713451Y309934D01*
X713362Y310094D01*
X713351Y310108D01*
X713342Y310123D01*
X713127Y310376D01*
X692591Y330912D01*
X691895Y332592D01*
X691895Y357437D01*
X691893Y357463D01*
X691895Y357490D01*
X691873Y357664D01*
X691855Y357837D01*
X691848Y357863D01*
X691844Y357889D01*
X691789Y358055D01*
X691737Y358222D01*
X691724Y358246D01*
X691716Y358271D01*
X691629Y358423D01*
X691545Y358576D01*
X691528Y358597D01*
X691515Y358620D01*
X691300Y358873D01*
X685128Y365045D01*
X685108Y365062D01*
X685090Y365082D01*
X684952Y365189D01*
X684817Y365300D01*
X684793Y365312D01*
X684772Y365329D01*
X684615Y365407D01*
X684461Y365488D01*
X684436Y365496D01*
X684412Y365508D01*
X684242Y365554D01*
X684075Y365603D01*
X684049Y365606D01*
X684023Y365613D01*
X683692Y365640D01*
X579240Y365640D01*
X579167Y365632D01*
X579094Y365634D01*
X578967Y365613D01*
X578839Y365600D01*
X578769Y365578D01*
X578697Y365566D01*
X578577Y365519D01*
X578454Y365482D01*
X578390Y365447D01*
X578321Y365420D01*
X578213Y365351D01*
X578100Y365290D01*
X578044Y365243D01*
X577982Y365204D01*
X577890Y365114D01*
X577791Y365032D01*
X577745Y364975D01*
X577692Y364924D01*
X577619Y364819D01*
X577539Y364718D01*
X577505Y364653D01*
X577463Y364593D01*
X577412Y364475D01*
X577353Y364361D01*
X577333Y364291D01*
X577304Y364223D01*
X577277Y364098D01*
X577242Y363974D01*
X577236Y363901D01*
X577221Y363830D01*
X577219Y363701D01*
X577209Y363573D01*
X577217Y363500D01*
X577217Y363427D01*
X577241Y363301D01*
X577256Y363173D01*
X577278Y363103D01*
X577292Y363031D01*
X577341Y362912D01*
X577381Y362790D01*
X577417Y362727D01*
X577444Y362659D01*
X577515Y362552D01*
X577578Y362440D01*
X577626Y362384D01*
X577667Y362323D01*
X577758Y362232D01*
X577842Y362135D01*
X577899Y362090D01*
X577951Y362038D01*
X578091Y361942D01*
X578160Y361888D01*
X578189Y361873D01*
X578224Y361849D01*
X581994Y359673D01*
X589797Y351870D01*
X595315Y342313D01*
X598171Y331654D01*
X598171Y320618D01*
X595315Y309959D01*
X589797Y300402D01*
X581994Y292599D01*
X572437Y287081D01*
X561778Y284225D01*
X550742Y284225D01*
G37*
%LPD*%
%LPC*%
G36*
X550742Y385825D02*
X550742Y385825D01*
X540083Y388681D01*
X530526Y394199D01*
X522723Y402002D01*
X517205Y411559D01*
X514349Y422218D01*
X514349Y433254D01*
X517205Y443913D01*
X522723Y453470D01*
X530526Y461273D01*
X540083Y466791D01*
X550742Y469647D01*
X561778Y469647D01*
X572437Y466791D01*
X581994Y461273D01*
X589797Y453470D01*
X595315Y443913D01*
X598171Y433254D01*
X598171Y422218D01*
X595315Y411559D01*
X589797Y402002D01*
X581994Y394199D01*
X572437Y388681D01*
X561778Y385825D01*
X550742Y385825D01*
G37*
%LPD*%
%LPC*%
G36*
X550742Y81025D02*
X550742Y81025D01*
X540083Y83881D01*
X530526Y89399D01*
X522723Y97202D01*
X517205Y106759D01*
X514349Y117418D01*
X514349Y128454D01*
X517205Y139113D01*
X522723Y148670D01*
X530526Y156473D01*
X540083Y161991D01*
X550742Y164847D01*
X561778Y164847D01*
X572437Y161991D01*
X581994Y156473D01*
X589797Y148670D01*
X595315Y139113D01*
X598171Y128454D01*
X598171Y117418D01*
X595315Y106759D01*
X589797Y97202D01*
X581994Y89399D01*
X572437Y83881D01*
X561778Y81025D01*
X550742Y81025D01*
G37*
%LPD*%
%LPC*%
G36*
X340677Y51815D02*
X340677Y51815D01*
X336569Y53517D01*
X333425Y56661D01*
X332041Y60003D01*
X331999Y60081D01*
X331966Y60164D01*
X331904Y60258D01*
X331850Y60358D01*
X331794Y60426D01*
X331745Y60501D01*
X331666Y60581D01*
X331594Y60668D01*
X331525Y60724D01*
X331463Y60787D01*
X331369Y60851D01*
X331281Y60922D01*
X331203Y60963D01*
X331129Y61013D01*
X331025Y61057D01*
X330925Y61109D01*
X330840Y61134D01*
X330758Y61168D01*
X330647Y61190D01*
X330538Y61222D01*
X330450Y61230D01*
X330363Y61247D01*
X330250Y61247D01*
X330137Y61257D01*
X330049Y61247D01*
X329960Y61247D01*
X329849Y61224D01*
X329737Y61211D01*
X329653Y61184D01*
X329566Y61167D01*
X329461Y61123D01*
X329354Y61088D01*
X329276Y61045D01*
X329194Y61011D01*
X329101Y60947D01*
X329002Y60892D01*
X328935Y60834D01*
X328861Y60784D01*
X328782Y60704D01*
X328697Y60630D01*
X328642Y60560D01*
X328580Y60497D01*
X328518Y60402D01*
X328448Y60313D01*
X328408Y60234D01*
X328360Y60159D01*
X328306Y60029D01*
X328268Y59953D01*
X328255Y59909D01*
X328232Y59853D01*
X327858Y58701D01*
X327059Y57134D01*
X326025Y55711D01*
X324781Y54467D01*
X323358Y53433D01*
X321791Y52634D01*
X320117Y52090D01*
X320039Y52078D01*
X320039Y70612D01*
X320037Y70630D01*
X320039Y70647D01*
X320018Y70830D01*
X319999Y71012D01*
X319994Y71029D01*
X319992Y71047D01*
X319967Y71125D01*
X320006Y71262D01*
X320008Y71280D01*
X320012Y71297D01*
X320039Y71628D01*
X320039Y90162D01*
X320117Y90150D01*
X321791Y89606D01*
X323358Y88807D01*
X324781Y87773D01*
X326025Y86529D01*
X327059Y85106D01*
X327858Y83539D01*
X328232Y82387D01*
X328268Y82305D01*
X328294Y82221D01*
X328348Y82122D01*
X328394Y82018D01*
X328445Y81945D01*
X328487Y81868D01*
X328560Y81781D01*
X328625Y81689D01*
X328689Y81627D01*
X328747Y81559D01*
X328835Y81489D01*
X328917Y81411D01*
X328992Y81364D01*
X329061Y81308D01*
X329162Y81257D01*
X329258Y81197D01*
X329341Y81165D01*
X329420Y81124D01*
X329528Y81094D01*
X329634Y81054D01*
X329722Y81039D01*
X329807Y81015D01*
X329919Y81006D01*
X330031Y80988D01*
X330120Y80991D01*
X330208Y80984D01*
X330320Y80997D01*
X330433Y81001D01*
X330520Y81022D01*
X330608Y81032D01*
X330715Y81068D01*
X330825Y81094D01*
X330906Y81131D01*
X330990Y81159D01*
X331088Y81215D01*
X331191Y81262D01*
X331263Y81314D01*
X331340Y81358D01*
X331425Y81433D01*
X331517Y81499D01*
X331577Y81564D01*
X331644Y81623D01*
X331713Y81712D01*
X331789Y81796D01*
X331835Y81871D01*
X331889Y81942D01*
X331954Y82068D01*
X331997Y82140D01*
X332013Y82183D01*
X332041Y82237D01*
X332850Y84193D01*
X332857Y84214D01*
X332867Y84234D01*
X332915Y84407D01*
X332967Y84578D01*
X332969Y84600D01*
X332975Y84622D01*
X332988Y84801D01*
X333005Y84979D01*
X333003Y85001D01*
X333004Y85023D01*
X332982Y85202D01*
X332963Y85379D01*
X332957Y85400D01*
X332954Y85423D01*
X332897Y85593D01*
X332844Y85764D01*
X332833Y85783D01*
X332826Y85804D01*
X332737Y85959D01*
X332650Y86117D01*
X332636Y86134D01*
X332625Y86153D01*
X332410Y86406D01*
X314620Y104196D01*
X312762Y106054D01*
X311911Y108108D01*
X311911Y199320D01*
X311909Y199347D01*
X311911Y199374D01*
X311889Y199548D01*
X311871Y199721D01*
X311864Y199747D01*
X311860Y199773D01*
X311805Y199939D01*
X311753Y200106D01*
X311740Y200130D01*
X311732Y200155D01*
X311645Y200307D01*
X311561Y200460D01*
X311544Y200480D01*
X311531Y200504D01*
X311316Y200757D01*
X308940Y203133D01*
X307403Y206844D01*
X307403Y224956D01*
X308940Y228667D01*
X311781Y231508D01*
X315492Y233045D01*
X319508Y233045D01*
X323219Y231508D01*
X326060Y228667D01*
X327597Y224956D01*
X327597Y206844D01*
X326060Y203133D01*
X323684Y200757D01*
X323667Y200736D01*
X323646Y200719D01*
X323539Y200581D01*
X323429Y200445D01*
X323416Y200422D01*
X323400Y200400D01*
X323322Y200244D01*
X323240Y200090D01*
X323232Y200064D01*
X323220Y200040D01*
X323175Y199871D01*
X323125Y199704D01*
X323123Y199677D01*
X323116Y199651D01*
X323089Y199320D01*
X323089Y112376D01*
X323091Y112350D01*
X323089Y112323D01*
X323111Y112149D01*
X323129Y111976D01*
X323136Y111950D01*
X323140Y111924D01*
X323195Y111758D01*
X323247Y111591D01*
X323260Y111567D01*
X323268Y111542D01*
X323355Y111390D01*
X323439Y111237D01*
X323456Y111216D01*
X323469Y111193D01*
X323684Y110940D01*
X343604Y91020D01*
X343625Y91003D01*
X343642Y90982D01*
X343780Y90875D01*
X343916Y90765D01*
X343939Y90752D01*
X343960Y90736D01*
X344117Y90658D01*
X344271Y90576D01*
X344297Y90568D01*
X344321Y90556D01*
X344490Y90511D01*
X344657Y90461D01*
X344684Y90459D01*
X344710Y90452D01*
X345040Y90425D01*
X345123Y90425D01*
X349231Y88723D01*
X352375Y85579D01*
X354077Y81471D01*
X354077Y60769D01*
X352375Y56661D01*
X349231Y53517D01*
X345123Y51815D01*
X340677Y51815D01*
G37*
%LPD*%
%LPC*%
G36*
X797654Y11854D02*
X797654Y11854D01*
X789184Y17388D01*
X782970Y25372D01*
X779685Y34941D01*
X779685Y45059D01*
X782970Y54628D01*
X789184Y62612D01*
X797654Y68146D01*
X807462Y70630D01*
X817545Y69794D01*
X826810Y65730D01*
X834254Y58878D01*
X839069Y49979D01*
X840735Y40000D01*
X839069Y30021D01*
X834254Y21122D01*
X826810Y14270D01*
X817545Y10206D01*
X807462Y9370D01*
X797654Y11854D01*
G37*
%LPD*%
%LPC*%
G36*
X34961Y481425D02*
X34961Y481425D01*
X25492Y484872D01*
X17773Y491349D01*
X12734Y500076D01*
X10984Y510000D01*
X12734Y519924D01*
X17773Y528651D01*
X25492Y535128D01*
X34961Y538575D01*
X45039Y538575D01*
X54508Y535128D01*
X62227Y528651D01*
X67266Y519924D01*
X69016Y510000D01*
X67266Y500076D01*
X62227Y491349D01*
X54508Y484872D01*
X45039Y481425D01*
X34961Y481425D01*
G37*
%LPD*%
%LPC*%
G36*
X290092Y198755D02*
X290092Y198755D01*
X286381Y200292D01*
X283540Y203133D01*
X282003Y206844D01*
X282003Y224956D01*
X283540Y228667D01*
X286381Y231508D01*
X290092Y233045D01*
X294108Y233045D01*
X297819Y231508D01*
X300660Y228667D01*
X302197Y224956D01*
X302197Y206844D01*
X300660Y203133D01*
X297819Y200292D01*
X294108Y198755D01*
X290092Y198755D01*
G37*
%LPD*%
%LPC*%
G36*
X86892Y198755D02*
X86892Y198755D01*
X83181Y200292D01*
X80340Y203133D01*
X78803Y206844D01*
X78803Y224956D01*
X80340Y228667D01*
X83181Y231508D01*
X86892Y233045D01*
X90908Y233045D01*
X94619Y231508D01*
X97460Y228667D01*
X98997Y224956D01*
X98997Y206844D01*
X97460Y203133D01*
X94619Y200292D01*
X90908Y198755D01*
X86892Y198755D01*
G37*
%LPD*%
%LPC*%
G36*
X36092Y198755D02*
X36092Y198755D01*
X32381Y200292D01*
X29540Y203133D01*
X28003Y206844D01*
X28003Y224956D01*
X29540Y228667D01*
X32381Y231508D01*
X36092Y233045D01*
X40108Y233045D01*
X43819Y231508D01*
X46660Y228667D01*
X48197Y224956D01*
X48197Y206844D01*
X46660Y203133D01*
X43819Y200292D01*
X40108Y198755D01*
X36092Y198755D01*
G37*
%LPD*%
%LPC*%
G36*
X61492Y198755D02*
X61492Y198755D01*
X57781Y200292D01*
X54940Y203133D01*
X53403Y206844D01*
X53403Y224956D01*
X54940Y228667D01*
X57781Y231508D01*
X61492Y233045D01*
X65508Y233045D01*
X69219Y231508D01*
X72060Y228667D01*
X73597Y224956D01*
X73597Y206844D01*
X72060Y203133D01*
X69219Y200292D01*
X65508Y198755D01*
X61492Y198755D01*
G37*
%LPD*%
%LPC*%
G36*
X340892Y198755D02*
X340892Y198755D01*
X337181Y200292D01*
X334340Y203133D01*
X332803Y206844D01*
X332803Y224956D01*
X334340Y228667D01*
X337181Y231508D01*
X340892Y233045D01*
X344908Y233045D01*
X348619Y231508D01*
X351460Y228667D01*
X352997Y224956D01*
X352997Y206844D01*
X351460Y203133D01*
X348619Y200292D01*
X344908Y198755D01*
X340892Y198755D01*
G37*
%LPD*%
%LPC*%
G36*
X188492Y351155D02*
X188492Y351155D01*
X184781Y352692D01*
X181940Y355533D01*
X180403Y359244D01*
X180403Y377356D01*
X181940Y381067D01*
X184781Y383908D01*
X188492Y385445D01*
X192508Y385445D01*
X196219Y383908D01*
X199060Y381067D01*
X200597Y377356D01*
X200597Y359244D01*
X199060Y355533D01*
X196219Y352692D01*
X193963Y351758D01*
X192508Y351155D01*
X188492Y351155D01*
G37*
%LPD*%
%LPC*%
G36*
X340892Y351155D02*
X340892Y351155D01*
X337181Y352692D01*
X334340Y355533D01*
X332803Y359244D01*
X332803Y377356D01*
X334340Y381067D01*
X337181Y383908D01*
X340892Y385445D01*
X344908Y385445D01*
X348619Y383908D01*
X351460Y381067D01*
X352997Y377356D01*
X352997Y359244D01*
X351460Y355533D01*
X348619Y352692D01*
X346363Y351758D01*
X344908Y351155D01*
X340892Y351155D01*
G37*
%LPD*%
%LPC*%
G36*
X163092Y351155D02*
X163092Y351155D01*
X159381Y352692D01*
X156540Y355533D01*
X155003Y359244D01*
X155003Y377356D01*
X156540Y381067D01*
X159381Y383908D01*
X163092Y385445D01*
X167108Y385445D01*
X170819Y383908D01*
X173660Y381067D01*
X175197Y377356D01*
X175197Y359244D01*
X173660Y355533D01*
X170819Y352692D01*
X168563Y351758D01*
X167108Y351155D01*
X163092Y351155D01*
G37*
%LPD*%
%LPC*%
G36*
X315492Y351155D02*
X315492Y351155D01*
X311781Y352692D01*
X308940Y355533D01*
X307403Y359244D01*
X307403Y377356D01*
X308940Y381067D01*
X311781Y383908D01*
X315492Y385445D01*
X319508Y385445D01*
X323219Y383908D01*
X326060Y381067D01*
X327597Y377356D01*
X327597Y359244D01*
X326060Y355533D01*
X323219Y352692D01*
X320963Y351758D01*
X319508Y351155D01*
X315492Y351155D01*
G37*
%LPD*%
%LPC*%
G36*
X49993Y167341D02*
X49993Y167341D01*
X49993Y177293D01*
X57896Y177293D01*
X59870Y176980D01*
X61771Y176362D01*
X63553Y175455D01*
X65170Y174280D01*
X66584Y172866D01*
X67759Y171249D01*
X68666Y169467D01*
X69284Y167566D01*
X69320Y167341D01*
X49993Y167341D01*
G37*
%LPD*%
%LPC*%
G36*
X25168Y167341D02*
X25168Y167341D01*
X25204Y167566D01*
X25822Y169467D01*
X26729Y171249D01*
X27904Y172866D01*
X29318Y174280D01*
X30935Y175455D01*
X32717Y176362D01*
X34618Y176980D01*
X36592Y177293D01*
X44495Y177293D01*
X44495Y167341D01*
X25168Y167341D01*
G37*
%LPD*%
%LPC*%
G36*
X49993Y151891D02*
X49993Y151891D01*
X49993Y161843D01*
X69320Y161843D01*
X69284Y161618D01*
X68666Y159717D01*
X67759Y157935D01*
X66584Y156318D01*
X65170Y154904D01*
X63553Y153729D01*
X61771Y152822D01*
X59870Y152204D01*
X57896Y151891D01*
X49993Y151891D01*
G37*
%LPD*%
%LPC*%
G36*
X36592Y151891D02*
X36592Y151891D01*
X34618Y152204D01*
X32717Y152822D01*
X30935Y153729D01*
X29318Y154904D01*
X27904Y156318D01*
X26729Y157935D01*
X25822Y159717D01*
X25204Y161618D01*
X25168Y161843D01*
X44495Y161843D01*
X44495Y151891D01*
X36592Y151891D01*
G37*
%LPD*%
%LPC*%
G36*
X734313Y455929D02*
X734313Y455929D01*
X734313Y464821D01*
X741076Y464821D01*
X742892Y464533D01*
X744642Y463965D01*
X746280Y463130D01*
X747768Y462049D01*
X749069Y460748D01*
X750150Y459260D01*
X750985Y457622D01*
X751534Y455929D01*
X734313Y455929D01*
G37*
%LPD*%
%LPC*%
G36*
X734313Y354329D02*
X734313Y354329D01*
X734313Y363221D01*
X741076Y363221D01*
X742892Y362933D01*
X744642Y362365D01*
X746280Y361530D01*
X747768Y360449D01*
X749069Y359148D01*
X750150Y357660D01*
X750985Y356022D01*
X751534Y354329D01*
X734313Y354329D01*
G37*
%LPD*%
%LPC*%
G36*
X734313Y252729D02*
X734313Y252729D01*
X734313Y261621D01*
X741076Y261621D01*
X742892Y261333D01*
X744642Y260765D01*
X746280Y259930D01*
X747768Y258849D01*
X749069Y257548D01*
X750150Y256060D01*
X750985Y254422D01*
X751534Y252729D01*
X734313Y252729D01*
G37*
%LPD*%
%LPC*%
G36*
X734313Y151129D02*
X734313Y151129D01*
X734313Y160021D01*
X741076Y160021D01*
X742892Y159733D01*
X744642Y159165D01*
X746280Y158330D01*
X747768Y157249D01*
X749069Y155948D01*
X750150Y154460D01*
X750985Y152822D01*
X751534Y151129D01*
X734313Y151129D01*
G37*
%LPD*%
%LPC*%
G36*
X711506Y455929D02*
X711506Y455929D01*
X712055Y457622D01*
X712890Y459260D01*
X713971Y460748D01*
X715272Y462049D01*
X716760Y463130D01*
X718398Y463965D01*
X720148Y464533D01*
X721964Y464821D01*
X728727Y464821D01*
X728727Y455929D01*
X711506Y455929D01*
G37*
%LPD*%
%LPC*%
G36*
X711506Y354329D02*
X711506Y354329D01*
X712055Y356022D01*
X712890Y357660D01*
X713971Y359148D01*
X715272Y360449D01*
X716760Y361530D01*
X718398Y362365D01*
X720148Y362933D01*
X721964Y363221D01*
X728727Y363221D01*
X728727Y354329D01*
X711506Y354329D01*
G37*
%LPD*%
%LPC*%
G36*
X711506Y252729D02*
X711506Y252729D01*
X712055Y254422D01*
X712890Y256060D01*
X713971Y257548D01*
X715272Y258849D01*
X716760Y259930D01*
X718398Y260765D01*
X720148Y261333D01*
X721964Y261621D01*
X728727Y261621D01*
X728727Y252729D01*
X711506Y252729D01*
G37*
%LPD*%
%LPC*%
G36*
X711506Y151129D02*
X711506Y151129D01*
X712055Y152822D01*
X712890Y154460D01*
X713971Y155948D01*
X715272Y157249D01*
X716760Y158330D01*
X718398Y159165D01*
X720148Y159733D01*
X721964Y160021D01*
X728727Y160021D01*
X728727Y151129D01*
X711506Y151129D01*
G37*
%LPD*%
%LPC*%
G36*
X331723Y505459D02*
X331723Y505459D01*
X331723Y511928D01*
X331998Y513665D01*
X332542Y515339D01*
X333341Y516906D01*
X334375Y518329D01*
X335619Y519573D01*
X337042Y520607D01*
X338609Y521406D01*
X340283Y521950D01*
X340361Y521962D01*
X340361Y505459D01*
X331723Y505459D01*
G37*
%LPD*%
%LPC*%
G36*
X340283Y483890D02*
X340283Y483890D01*
X338609Y484434D01*
X337042Y485233D01*
X335619Y486267D01*
X334375Y487511D01*
X333341Y488934D01*
X332542Y490501D01*
X331998Y492175D01*
X331723Y493912D01*
X331723Y500381D01*
X340361Y500381D01*
X340361Y483878D01*
X340283Y483890D01*
G37*
%LPD*%
%LPC*%
G36*
X370331Y217931D02*
X370331Y217931D01*
X370331Y232849D01*
X370664Y232796D01*
X372176Y232305D01*
X373592Y231584D01*
X374878Y230649D01*
X376001Y229526D01*
X376936Y228240D01*
X377657Y226824D01*
X378148Y225312D01*
X378397Y223743D01*
X378397Y217931D01*
X370331Y217931D01*
G37*
%LPD*%
%LPC*%
G36*
X370331Y213869D02*
X370331Y213869D01*
X378397Y213869D01*
X378397Y208057D01*
X378148Y206488D01*
X377657Y204976D01*
X376936Y203560D01*
X376001Y202274D01*
X374878Y201151D01*
X373592Y200216D01*
X372176Y199495D01*
X370664Y199004D01*
X370331Y198951D01*
X370331Y213869D01*
G37*
%LPD*%
%LPC*%
G36*
X358203Y217931D02*
X358203Y217931D01*
X358203Y223743D01*
X358452Y225312D01*
X358943Y226824D01*
X359664Y228240D01*
X360599Y229526D01*
X361722Y230649D01*
X363008Y231584D01*
X364424Y232305D01*
X365936Y232796D01*
X366269Y232849D01*
X366269Y217931D01*
X358203Y217931D01*
G37*
%LPD*%
%LPC*%
G36*
X365936Y199004D02*
X365936Y199004D01*
X364424Y199495D01*
X363008Y200216D01*
X361722Y201151D01*
X360599Y202274D01*
X359664Y203560D01*
X358943Y204976D01*
X358452Y206488D01*
X358203Y208057D01*
X358203Y213869D01*
X366269Y213869D01*
X366269Y198951D01*
X365936Y199004D01*
G37*
%LPD*%
%LPC*%
G36*
X357250Y167131D02*
X357250Y167131D01*
X357250Y169677D01*
X363723Y176150D01*
X366269Y176150D01*
X366269Y167131D01*
X357250Y167131D01*
G37*
%LPD*%
%LPC*%
G36*
X363723Y154050D02*
X363723Y154050D01*
X357250Y160523D01*
X357250Y163069D01*
X366269Y163069D01*
X366269Y154050D01*
X363723Y154050D01*
G37*
%LPD*%
%LPC*%
G36*
X294131Y446531D02*
X294131Y446531D01*
X294131Y454661D01*
X296309Y454661D01*
X302261Y448709D01*
X302261Y446531D01*
X294131Y446531D01*
G37*
%LPD*%
%LPC*%
G36*
X268731Y446531D02*
X268731Y446531D01*
X268731Y454661D01*
X270909Y454661D01*
X276861Y448709D01*
X276861Y446531D01*
X268731Y446531D01*
G37*
%LPD*%
%LPC*%
G36*
X243331Y446531D02*
X243331Y446531D01*
X243331Y454661D01*
X245509Y454661D01*
X251461Y448709D01*
X251461Y446531D01*
X243331Y446531D01*
G37*
%LPD*%
%LPC*%
G36*
X217931Y446531D02*
X217931Y446531D01*
X217931Y454661D01*
X220109Y454661D01*
X226061Y448709D01*
X226061Y446531D01*
X217931Y446531D01*
G37*
%LPD*%
%LPC*%
G36*
X281939Y446531D02*
X281939Y446531D01*
X281939Y448709D01*
X287891Y454661D01*
X290069Y454661D01*
X290069Y446531D01*
X281939Y446531D01*
G37*
%LPD*%
%LPC*%
G36*
X231139Y446531D02*
X231139Y446531D01*
X231139Y448709D01*
X237091Y454661D01*
X239269Y454661D01*
X239269Y446531D01*
X231139Y446531D01*
G37*
%LPD*%
%LPC*%
G36*
X256539Y446531D02*
X256539Y446531D01*
X256539Y448709D01*
X262491Y454661D01*
X264669Y454661D01*
X264669Y446531D01*
X256539Y446531D01*
G37*
%LPD*%
%LPC*%
G36*
X205739Y446531D02*
X205739Y446531D01*
X205739Y448709D01*
X211691Y454661D01*
X213869Y454661D01*
X213869Y446531D01*
X205739Y446531D01*
G37*
%LPD*%
%LPC*%
G36*
X294131Y434339D02*
X294131Y434339D01*
X294131Y442469D01*
X302261Y442469D01*
X302261Y440291D01*
X296309Y434339D01*
X294131Y434339D01*
G37*
%LPD*%
%LPC*%
G36*
X243331Y434339D02*
X243331Y434339D01*
X243331Y442469D01*
X251461Y442469D01*
X251461Y440291D01*
X245509Y434339D01*
X243331Y434339D01*
G37*
%LPD*%
%LPC*%
G36*
X217931Y434339D02*
X217931Y434339D01*
X217931Y442469D01*
X226061Y442469D01*
X226061Y440291D01*
X220109Y434339D01*
X217931Y434339D01*
G37*
%LPD*%
%LPC*%
G36*
X268731Y434339D02*
X268731Y434339D01*
X268731Y442469D01*
X276861Y442469D01*
X276861Y440291D01*
X270909Y434339D01*
X268731Y434339D01*
G37*
%LPD*%
%LPC*%
G36*
X211691Y434339D02*
X211691Y434339D01*
X205739Y440291D01*
X205739Y442469D01*
X213869Y442469D01*
X213869Y434339D01*
X211691Y434339D01*
G37*
%LPD*%
%LPC*%
G36*
X262491Y434339D02*
X262491Y434339D01*
X256539Y440291D01*
X256539Y442469D01*
X264669Y442469D01*
X264669Y434339D01*
X262491Y434339D01*
G37*
%LPD*%
%LPC*%
G36*
X237091Y434339D02*
X237091Y434339D01*
X231139Y440291D01*
X231139Y442469D01*
X239269Y442469D01*
X239269Y434339D01*
X237091Y434339D01*
G37*
%LPD*%
%LPC*%
G36*
X287891Y434339D02*
X287891Y434339D01*
X281939Y440291D01*
X281939Y442469D01*
X290069Y442469D01*
X290069Y434339D01*
X287891Y434339D01*
G37*
%LPD*%
D10*
X368300Y165100D03*
D11*
X393700Y165100D03*
D12*
X722884Y402336D02*
X740156Y402336D01*
X740156Y427736D02*
X722884Y427736D01*
X722884Y453136D02*
X740156Y453136D01*
X740156Y199136D02*
X722884Y199136D01*
X722884Y224536D02*
X740156Y224536D01*
X740156Y249936D02*
X722884Y249936D01*
X722884Y300736D02*
X740156Y300736D01*
X740156Y326136D02*
X722884Y326136D01*
X722884Y351536D02*
X740156Y351536D01*
X740156Y97536D02*
X722884Y97536D01*
X722884Y122936D02*
X740156Y122936D01*
X740156Y148336D02*
X722884Y148336D01*
D13*
X292100Y444500D03*
X292100Y393700D03*
X266700Y444500D03*
X266700Y393700D03*
X215900Y444500D03*
X215900Y393700D03*
X241300Y444500D03*
X241300Y393700D03*
D14*
X342900Y79248D02*
X342900Y62992D01*
X317500Y62992D02*
X317500Y79248D01*
X292100Y79248D02*
X292100Y62992D01*
X266700Y62992D02*
X266700Y79248D01*
X241300Y79248D02*
X241300Y62992D01*
X190500Y62992D02*
X190500Y79248D01*
X165100Y79248D02*
X165100Y62992D01*
X139700Y62992D02*
X139700Y79248D01*
X114300Y79248D02*
X114300Y62992D01*
X88900Y62992D02*
X88900Y79248D01*
D15*
X785368Y402336D02*
X804672Y402336D01*
X804672Y453136D02*
X785368Y453136D01*
X785368Y199136D02*
X804672Y199136D01*
X804672Y249936D02*
X785368Y249936D01*
X785368Y300736D02*
X804672Y300736D01*
X804672Y351536D02*
X785368Y351536D01*
X785368Y97536D02*
X804672Y97536D01*
X804672Y148336D02*
X785368Y148336D01*
X56896Y113792D02*
X37592Y113792D01*
X37592Y164592D02*
X56896Y164592D01*
D16*
X393700Y361252D02*
X393700Y375348D01*
X368300Y375348D02*
X368300Y361252D01*
X342900Y361252D02*
X342900Y375348D01*
X317500Y375348D02*
X317500Y361252D01*
X292100Y361252D02*
X292100Y375348D01*
X266700Y375348D02*
X266700Y361252D01*
X241300Y361252D02*
X241300Y375348D01*
X215900Y375348D02*
X215900Y361252D01*
X190500Y361252D02*
X190500Y375348D01*
X165100Y375348D02*
X165100Y361252D01*
X139700Y361252D02*
X139700Y375348D01*
X114300Y375348D02*
X114300Y361252D01*
X393700Y222948D02*
X393700Y208852D01*
X368300Y208852D02*
X368300Y222948D01*
X342900Y222948D02*
X342900Y208852D01*
X190500Y208852D02*
X190500Y222948D01*
X165100Y222948D02*
X165100Y208852D01*
X139700Y208852D02*
X139700Y222948D01*
X114300Y222948D02*
X114300Y208852D01*
X38100Y208852D02*
X38100Y222948D01*
X38100Y361252D02*
X38100Y375348D01*
X63500Y375348D02*
X63500Y361252D01*
X88900Y361252D02*
X88900Y375348D01*
X63500Y222948D02*
X63500Y208852D01*
X88900Y208852D02*
X88900Y222948D01*
X317500Y222948D02*
X317500Y208852D01*
X215900Y208852D02*
X215900Y222948D01*
X241300Y222948D02*
X241300Y208852D01*
X266700Y208852D02*
X266700Y222948D01*
X292100Y222948D02*
X292100Y208852D01*
D14*
X419100Y494792D02*
X419100Y511048D01*
X393700Y511048D02*
X393700Y494792D01*
X368300Y494792D02*
X368300Y511048D01*
X342900Y511048D02*
X342900Y494792D01*
D17*
X731520Y427736D02*
X769620Y427736D01*
X795020Y453136D01*
X749808Y326136D02*
X731520Y326136D01*
X787400Y343916D02*
X795020Y351536D01*
X787400Y343916D02*
X767588Y343916D01*
X749808Y326136D01*
X731520Y122936D02*
X769620Y122936D01*
X795020Y148336D01*
X769620Y224536D02*
X731520Y224536D01*
X769620Y224536D02*
X795020Y249936D01*
D18*
X342900Y83820D02*
X342900Y71120D01*
X342900Y83820D02*
X317500Y109220D01*
X317500Y215900D01*
D17*
X67323Y386968D02*
X63500Y383145D01*
X63500Y368300D01*
X67323Y386968D02*
X93713Y386968D01*
X102680Y378001D01*
X102680Y355282D01*
X166116Y272796D02*
X204344Y234568D01*
X220713Y234568D01*
X228890Y226391D01*
X228918Y226391D01*
X108330Y349632D02*
X102680Y355282D01*
X108330Y349632D02*
X122428Y349632D01*
X166116Y305944D01*
X166116Y272796D01*
X229680Y204039D02*
X236487Y197232D01*
X229680Y225629D02*
X228918Y226391D01*
X229680Y225629D02*
X229680Y204039D01*
X236487Y197232D02*
X252617Y197232D01*
X266700Y183149D02*
X266700Y71120D01*
X266700Y183149D02*
X252617Y197232D01*
X114554Y215646D02*
X114300Y215900D01*
X114554Y215646D02*
X114554Y71374D01*
X114300Y71120D01*
X139700Y71120D02*
X139700Y215900D01*
X165100Y215900D02*
X165100Y71120D01*
X190500Y71120D02*
X190500Y215900D01*
X40019Y368300D02*
X38100Y368300D01*
X40019Y368300D02*
X64783Y393064D01*
X126556Y379525D02*
X126556Y354125D01*
X253682Y226999D02*
X253682Y204788D01*
X273050Y185420D02*
X273050Y91694D01*
X292100Y72644D02*
X292100Y71120D01*
X292100Y72644D02*
X273050Y91694D01*
X273050Y185420D02*
X253682Y204788D01*
X126697Y354125D02*
X126556Y354125D01*
X172212Y308469D01*
X172212Y275321D02*
X206869Y240664D01*
X223238Y240664D01*
X231415Y232487D01*
X236487Y234568D02*
X246113Y234568D01*
X236487Y234568D02*
X234406Y232487D01*
X231415Y232487D01*
X246113Y234568D02*
X253682Y226999D01*
X172212Y275321D02*
X172212Y308469D01*
X96238Y393064D02*
X64783Y393064D01*
X102334Y386968D02*
X119113Y386968D01*
X102334Y386968D02*
X96238Y393064D01*
X119113Y386968D02*
X126556Y379525D01*
X202756Y205563D02*
X211723Y196596D01*
X260604Y180624D02*
X260604Y92710D01*
X241300Y73406D01*
X241300Y71120D01*
X96584Y360616D02*
X88900Y368300D01*
X96584Y360616D02*
X96584Y352757D01*
X160020Y270271D02*
X202756Y227535D01*
X202756Y205563D01*
X105805Y343536D02*
X96584Y352757D01*
X105805Y343536D02*
X118872Y343536D01*
X160020Y302388D01*
X160020Y270271D01*
X228502Y196596D02*
X233962Y191136D01*
X250092Y191136D01*
X228502Y196596D02*
X211723Y196596D01*
X250092Y191136D02*
X260604Y180624D01*
D18*
X85671Y41402D02*
X74676Y52397D01*
X74676Y86360D02*
X47244Y113792D01*
X74676Y86360D02*
X74676Y52397D01*
X85671Y41402D02*
X378206Y41402D01*
X393700Y56896D01*
X395986Y162814D02*
X393700Y165100D01*
X393700Y215900D01*
X393700Y56896D02*
X395224Y56896D01*
X754380Y56896D01*
X795020Y97536D01*
X837692Y122422D02*
X837692Y175774D01*
X837692Y122422D02*
X812806Y97536D01*
X795020Y97536D01*
X795020Y199136D02*
X814330Y199136D01*
X837692Y175774D01*
X837692Y223260D02*
X837692Y274066D01*
X837692Y223260D02*
X813568Y199136D01*
X795020Y199136D01*
X795020Y300736D02*
X811022Y300736D01*
X837692Y274066D01*
X814330Y300736D02*
X837692Y324098D01*
X814330Y300736D02*
X795020Y300736D01*
X837692Y324098D02*
X837692Y376428D01*
X811784Y402336D01*
X795020Y402336D01*
X837692Y428746D02*
X837692Y452380D01*
X813822Y476250D01*
X768858Y476250D01*
X742188Y502920D01*
X419100Y502920D01*
X795020Y402336D02*
X811282Y402336D01*
X837692Y428746D01*
X395224Y56896D02*
X393700Y58420D01*
X393700Y165100D01*
D17*
X266700Y368300D02*
X266700Y393700D01*
X442073Y333630D02*
X478656Y370212D01*
X268619Y368300D02*
X266700Y368300D01*
X268619Y368300D02*
X303289Y333630D01*
X442073Y333630D01*
X478656Y370212D02*
X686428Y370212D01*
X696468Y360172D01*
X696468Y333502D01*
X729234Y300736D01*
X731520Y300736D01*
X241300Y368300D02*
X241300Y393700D01*
X241300Y368300D02*
X241300Y365252D01*
X731266Y199136D02*
X731520Y199136D01*
X315596Y277240D02*
X241300Y351536D01*
X241300Y368300D01*
X539031Y180340D02*
X681693Y180340D01*
X700489Y199136D01*
X731520Y199136D01*
X442131Y277240D02*
X315596Y277240D01*
X442131Y277240D02*
X539031Y180340D01*
X215900Y368300D02*
X215900Y393700D01*
X215900Y368300D02*
X215900Y364236D01*
X215900Y368300D02*
X313056Y271144D01*
X438899Y271144D02*
X536307Y173736D01*
X438899Y271144D02*
X313056Y271144D01*
X695706Y158496D02*
X695706Y129540D01*
X727710Y97536D02*
X731520Y97536D01*
X727710Y97536D02*
X695706Y129540D01*
X695706Y158496D02*
X680466Y173736D01*
X536307Y173736D01*
X292100Y368300D02*
X292100Y393700D01*
X306196Y339726D02*
X439548Y339726D01*
X292100Y353822D02*
X292100Y368300D01*
X292100Y353822D02*
X306196Y339726D01*
X476504Y376682D02*
X673862Y376682D01*
X699516Y402336D01*
X731520Y402336D01*
X476504Y376682D02*
X439548Y339726D01*
X377952Y493268D02*
X368300Y502920D01*
X377952Y377952D02*
X368300Y368300D01*
X377952Y377952D02*
X377952Y493268D01*
X384048Y493268D02*
X384048Y377952D01*
X393700Y368300D01*
X384048Y493268D02*
X393700Y502920D01*
M02*
