G04 EAGLE Gerber RS-274X export*
G75*
%MOMM*%
%FSLAX34Y34*%
%LPD*%
%INBottom Copper*%
%IPPOS*%
%AMOC8*
5,1,8,0,0,1.08239X$1,22.5*%
G01*
%ADD10P,1.732040X8X202.500000*%
%ADD11C,1.600200*%
%ADD12C,1.676400*%
%ADD13P,1.429621X8X292.500000*%
%ADD14C,1.524000*%
%ADD15C,1.930400*%
%ADD16C,1.308000*%
%ADD17C,0.152400*%
%ADD18C,0.609600*%
%ADD19C,0.406400*%

G36*
X845446Y2543D02*
X845446Y2543D01*
X845464Y2541D01*
X845646Y2562D01*
X845829Y2581D01*
X845846Y2586D01*
X845863Y2588D01*
X846038Y2645D01*
X846214Y2699D01*
X846229Y2707D01*
X846246Y2713D01*
X846406Y2803D01*
X846568Y2891D01*
X846581Y2902D01*
X846597Y2911D01*
X846736Y3031D01*
X846877Y3148D01*
X846888Y3162D01*
X846902Y3174D01*
X847014Y3319D01*
X847129Y3462D01*
X847137Y3478D01*
X847148Y3492D01*
X847230Y3657D01*
X847315Y3819D01*
X847320Y3836D01*
X847328Y3852D01*
X847375Y4031D01*
X847426Y4206D01*
X847428Y4224D01*
X847432Y4241D01*
X847459Y4572D01*
X847459Y545428D01*
X847457Y545446D01*
X847459Y545464D01*
X847438Y545646D01*
X847419Y545829D01*
X847414Y545846D01*
X847412Y545863D01*
X847355Y546038D01*
X847301Y546214D01*
X847293Y546229D01*
X847287Y546246D01*
X847197Y546406D01*
X847109Y546568D01*
X847098Y546581D01*
X847089Y546597D01*
X846969Y546736D01*
X846852Y546877D01*
X846838Y546888D01*
X846826Y546902D01*
X846681Y547014D01*
X846538Y547129D01*
X846522Y547137D01*
X846508Y547148D01*
X846343Y547230D01*
X846181Y547315D01*
X846164Y547320D01*
X846148Y547328D01*
X845969Y547375D01*
X845794Y547426D01*
X845776Y547428D01*
X845759Y547432D01*
X845428Y547459D01*
X4572Y547459D01*
X4554Y547457D01*
X4536Y547459D01*
X4354Y547438D01*
X4171Y547419D01*
X4154Y547414D01*
X4137Y547412D01*
X3962Y547355D01*
X3786Y547301D01*
X3771Y547293D01*
X3754Y547287D01*
X3594Y547197D01*
X3432Y547109D01*
X3419Y547098D01*
X3403Y547089D01*
X3264Y546969D01*
X3123Y546852D01*
X3112Y546838D01*
X3098Y546826D01*
X2986Y546681D01*
X2871Y546538D01*
X2863Y546522D01*
X2852Y546508D01*
X2770Y546343D01*
X2685Y546181D01*
X2680Y546164D01*
X2672Y546148D01*
X2625Y545969D01*
X2574Y545794D01*
X2572Y545776D01*
X2568Y545759D01*
X2541Y545428D01*
X2541Y4572D01*
X2543Y4554D01*
X2541Y4536D01*
X2562Y4354D01*
X2581Y4171D01*
X2586Y4154D01*
X2588Y4137D01*
X2645Y3962D01*
X2699Y3786D01*
X2707Y3771D01*
X2713Y3754D01*
X2803Y3594D01*
X2891Y3432D01*
X2902Y3419D01*
X2911Y3403D01*
X3031Y3264D01*
X3148Y3123D01*
X3162Y3112D01*
X3174Y3098D01*
X3319Y2986D01*
X3462Y2871D01*
X3478Y2863D01*
X3492Y2852D01*
X3657Y2770D01*
X3819Y2685D01*
X3836Y2680D01*
X3852Y2672D01*
X4031Y2625D01*
X4206Y2574D01*
X4224Y2572D01*
X4241Y2568D01*
X4572Y2541D01*
X845428Y2541D01*
X845446Y2543D01*
G37*
%LPC*%
G36*
X117427Y36321D02*
X117427Y36321D01*
X115559Y37095D01*
X97912Y54742D01*
X97865Y54780D01*
X97825Y54824D01*
X97710Y54908D01*
X97600Y54997D01*
X97547Y55025D01*
X97499Y55061D01*
X97370Y55120D01*
X97245Y55186D01*
X97187Y55203D01*
X97133Y55228D01*
X96995Y55260D01*
X96859Y55301D01*
X96799Y55306D01*
X96741Y55320D01*
X96599Y55324D01*
X96458Y55337D01*
X96398Y55331D01*
X96338Y55333D01*
X96199Y55309D01*
X96058Y55294D01*
X96000Y55276D01*
X95941Y55266D01*
X95809Y55215D01*
X95674Y55172D01*
X95621Y55143D01*
X95565Y55122D01*
X95393Y55017D01*
X95321Y54977D01*
X95305Y54963D01*
X95282Y54949D01*
X94492Y54375D01*
X92995Y53613D01*
X91439Y53107D01*
X91439Y70612D01*
X91437Y70630D01*
X91439Y70647D01*
X91418Y70830D01*
X91399Y71012D01*
X91394Y71029D01*
X91392Y71047D01*
X91335Y71222D01*
X91281Y71397D01*
X91273Y71413D01*
X91267Y71430D01*
X91177Y71590D01*
X91089Y71751D01*
X91078Y71765D01*
X91069Y71781D01*
X90949Y71920D01*
X90832Y72061D01*
X90818Y72072D01*
X90806Y72085D01*
X90661Y72198D01*
X90518Y72313D01*
X90502Y72321D01*
X90488Y72332D01*
X90323Y72414D01*
X90247Y72454D01*
X90161Y72606D01*
X90073Y72768D01*
X90062Y72781D01*
X90053Y72797D01*
X89933Y72936D01*
X89815Y73077D01*
X89802Y73088D01*
X89790Y73102D01*
X89645Y73214D01*
X89502Y73329D01*
X89486Y73337D01*
X89472Y73348D01*
X89307Y73430D01*
X89144Y73515D01*
X89127Y73520D01*
X89111Y73528D01*
X88933Y73575D01*
X88758Y73626D01*
X88740Y73628D01*
X88723Y73632D01*
X88392Y73659D01*
X78231Y73659D01*
X78231Y79580D01*
X78494Y81238D01*
X79013Y82835D01*
X79775Y84332D01*
X80762Y85690D01*
X81950Y86878D01*
X83308Y87865D01*
X84805Y88627D01*
X85414Y88825D01*
X85499Y88862D01*
X85588Y88891D01*
X85683Y88943D01*
X85782Y88987D01*
X85859Y89040D01*
X85940Y89085D01*
X86023Y89156D01*
X86112Y89218D01*
X86176Y89285D01*
X86247Y89346D01*
X86314Y89431D01*
X86389Y89510D01*
X86439Y89588D01*
X86497Y89662D01*
X86546Y89759D01*
X86604Y89850D01*
X86637Y89938D01*
X86679Y90021D01*
X86708Y90125D01*
X86747Y90227D01*
X86762Y90319D01*
X86787Y90409D01*
X86795Y90517D01*
X86813Y90624D01*
X86810Y90717D01*
X86816Y90810D01*
X86803Y90918D01*
X86799Y91026D01*
X86778Y91117D01*
X86766Y91210D01*
X86731Y91313D01*
X86706Y91418D01*
X86668Y91503D01*
X86638Y91591D01*
X86584Y91685D01*
X86538Y91784D01*
X86484Y91859D01*
X86437Y91940D01*
X86350Y92043D01*
X86301Y92109D01*
X86265Y92143D01*
X86222Y92193D01*
X71030Y107386D01*
X71019Y107394D01*
X71011Y107405D01*
X70863Y107522D01*
X70718Y107641D01*
X70706Y107647D01*
X70696Y107655D01*
X70528Y107742D01*
X70362Y107829D01*
X70350Y107833D01*
X70338Y107839D01*
X70156Y107891D01*
X69976Y107944D01*
X69963Y107945D01*
X69950Y107949D01*
X69764Y107964D01*
X69575Y107981D01*
X69562Y107979D01*
X69549Y107980D01*
X69364Y107958D01*
X69175Y107937D01*
X69162Y107933D01*
X69149Y107932D01*
X68970Y107872D01*
X68791Y107816D01*
X68780Y107809D01*
X68767Y107805D01*
X68603Y107712D01*
X68439Y107621D01*
X68429Y107612D01*
X68417Y107606D01*
X68276Y107483D01*
X68132Y107360D01*
X68124Y107350D01*
X68114Y107341D01*
X68000Y107193D01*
X67882Y107044D01*
X67876Y107032D01*
X67868Y107022D01*
X67717Y106727D01*
X67663Y106598D01*
X64090Y103025D01*
X59422Y101091D01*
X35066Y101091D01*
X30398Y103025D01*
X26825Y106598D01*
X24891Y111266D01*
X24891Y116318D01*
X26825Y120986D01*
X30398Y124559D01*
X35066Y126493D01*
X59422Y126493D01*
X64090Y124559D01*
X67663Y120986D01*
X68019Y120127D01*
X68030Y120107D01*
X68037Y120086D01*
X68125Y119930D01*
X68209Y119772D01*
X68224Y119755D01*
X68235Y119735D01*
X68352Y119599D01*
X68466Y119461D01*
X68483Y119447D01*
X68498Y119430D01*
X68639Y119321D01*
X68778Y119208D01*
X68798Y119197D01*
X68816Y119184D01*
X68976Y119104D01*
X69135Y119021D01*
X69156Y119014D01*
X69176Y119004D01*
X69350Y118958D01*
X69521Y118908D01*
X69544Y118906D01*
X69565Y118900D01*
X69896Y118873D01*
X72819Y118873D01*
X74687Y118099D01*
X105193Y87593D01*
X105206Y87582D01*
X105218Y87568D01*
X105362Y87454D01*
X105504Y87338D01*
X105520Y87330D01*
X105534Y87319D01*
X105698Y87235D01*
X105860Y87149D01*
X105877Y87144D01*
X105893Y87136D01*
X106070Y87087D01*
X106246Y87035D01*
X106264Y87033D01*
X106281Y87028D01*
X106464Y87015D01*
X106647Y86998D01*
X106665Y87000D01*
X106682Y86999D01*
X106864Y87022D01*
X107047Y87042D01*
X107064Y87047D01*
X107082Y87049D01*
X107255Y87108D01*
X107431Y87163D01*
X107447Y87172D01*
X107463Y87178D01*
X107622Y87269D01*
X107783Y87358D01*
X107797Y87370D01*
X107812Y87379D01*
X108065Y87593D01*
X108257Y87785D01*
X108804Y88011D01*
X109489Y88295D01*
X109509Y88306D01*
X109530Y88313D01*
X109686Y88401D01*
X109844Y88485D01*
X109861Y88500D01*
X109881Y88510D01*
X110016Y88627D01*
X110155Y88742D01*
X110169Y88759D01*
X110186Y88774D01*
X110295Y88915D01*
X110408Y89054D01*
X110419Y89074D01*
X110432Y89092D01*
X110512Y89253D01*
X110595Y89411D01*
X110602Y89432D01*
X110612Y89452D01*
X110658Y89626D01*
X110708Y89797D01*
X110710Y89819D01*
X110716Y89841D01*
X110743Y90172D01*
X110743Y199097D01*
X110741Y199120D01*
X110743Y199142D01*
X110721Y199319D01*
X110703Y199498D01*
X110697Y199519D01*
X110694Y199541D01*
X110638Y199711D01*
X110585Y199883D01*
X110575Y199903D01*
X110568Y199924D01*
X110479Y200079D01*
X110393Y200237D01*
X110379Y200254D01*
X110368Y200273D01*
X110250Y200409D01*
X110136Y200546D01*
X110118Y200560D01*
X110104Y200577D01*
X109962Y200686D01*
X109822Y200798D01*
X109802Y200809D01*
X109784Y200822D01*
X109489Y200974D01*
X108868Y201231D01*
X106171Y203928D01*
X104711Y207453D01*
X104711Y224347D01*
X106171Y227872D01*
X108868Y230569D01*
X112393Y232029D01*
X116207Y232029D01*
X119732Y230569D01*
X122429Y227872D01*
X123889Y224347D01*
X123889Y207453D01*
X122429Y203928D01*
X119732Y201231D01*
X119619Y201184D01*
X119599Y201174D01*
X119578Y201167D01*
X119422Y201079D01*
X119264Y200994D01*
X119247Y200980D01*
X119227Y200969D01*
X119092Y200852D01*
X118953Y200738D01*
X118939Y200720D01*
X118922Y200706D01*
X118813Y200565D01*
X118700Y200425D01*
X118689Y200405D01*
X118676Y200388D01*
X118596Y200227D01*
X118513Y200069D01*
X118506Y200047D01*
X118496Y200027D01*
X118450Y199853D01*
X118400Y199682D01*
X118398Y199660D01*
X118392Y199638D01*
X118365Y199308D01*
X118365Y89961D01*
X118367Y89939D01*
X118365Y89917D01*
X118387Y89739D01*
X118405Y89561D01*
X118411Y89539D01*
X118414Y89517D01*
X118470Y89347D01*
X118523Y89176D01*
X118533Y89156D01*
X118540Y89135D01*
X118629Y88979D01*
X118715Y88822D01*
X118729Y88805D01*
X118740Y88785D01*
X118858Y88650D01*
X118972Y88512D01*
X118990Y88499D01*
X119004Y88482D01*
X119147Y88372D01*
X119286Y88260D01*
X119306Y88250D01*
X119324Y88236D01*
X119619Y88085D01*
X120343Y87784D01*
X123345Y84783D01*
X124969Y80862D01*
X124969Y61378D01*
X123345Y57457D01*
X120343Y54455D01*
X117655Y53342D01*
X117643Y53336D01*
X117630Y53331D01*
X117465Y53240D01*
X117300Y53152D01*
X117290Y53143D01*
X117278Y53137D01*
X117134Y53015D01*
X116989Y52895D01*
X116981Y52885D01*
X116971Y52876D01*
X116855Y52729D01*
X116736Y52583D01*
X116730Y52571D01*
X116721Y52560D01*
X116636Y52393D01*
X116549Y52226D01*
X116545Y52213D01*
X116539Y52201D01*
X116488Y52019D01*
X116436Y51840D01*
X116434Y51826D01*
X116431Y51813D01*
X116417Y51625D01*
X116401Y51439D01*
X116403Y51425D01*
X116402Y51412D01*
X116425Y51224D01*
X116446Y51038D01*
X116450Y51026D01*
X116452Y51012D01*
X116512Y50834D01*
X116569Y50655D01*
X116576Y50643D01*
X116580Y50631D01*
X116674Y50468D01*
X116766Y50304D01*
X116774Y50293D01*
X116781Y50282D01*
X116996Y50029D01*
X119947Y47078D01*
X119968Y47061D01*
X119985Y47040D01*
X120123Y46934D01*
X120259Y46823D01*
X120282Y46810D01*
X120303Y46794D01*
X120460Y46716D01*
X120614Y46634D01*
X120640Y46626D01*
X120664Y46614D01*
X120833Y46569D01*
X121000Y46519D01*
X121027Y46517D01*
X121053Y46510D01*
X121383Y46483D01*
X225394Y46483D01*
X225403Y46484D01*
X225412Y46483D01*
X225604Y46504D01*
X225795Y46523D01*
X225803Y46525D01*
X225812Y46526D01*
X225994Y46584D01*
X226179Y46641D01*
X226187Y46645D01*
X226196Y46648D01*
X226364Y46741D01*
X226533Y46833D01*
X226540Y46838D01*
X226548Y46843D01*
X226695Y46967D01*
X226843Y47090D01*
X226848Y47097D01*
X226855Y47103D01*
X226974Y47254D01*
X227095Y47404D01*
X227099Y47412D01*
X227105Y47419D01*
X227193Y47592D01*
X227281Y47761D01*
X227283Y47770D01*
X227287Y47778D01*
X227339Y47964D01*
X227392Y48148D01*
X227393Y48157D01*
X227395Y48166D01*
X227409Y48359D01*
X227425Y48550D01*
X227424Y48558D01*
X227424Y48567D01*
X227400Y48760D01*
X227378Y48949D01*
X227375Y48958D01*
X227374Y48967D01*
X227313Y49150D01*
X227253Y49332D01*
X227249Y49340D01*
X227246Y49348D01*
X227150Y49514D01*
X227055Y49683D01*
X227049Y49690D01*
X227045Y49697D01*
X226830Y49950D01*
X224314Y52466D01*
X221487Y55293D01*
X221487Y83455D01*
X221485Y83481D01*
X221487Y83508D01*
X221465Y83682D01*
X221447Y83855D01*
X221440Y83881D01*
X221436Y83907D01*
X221381Y84073D01*
X221329Y84240D01*
X221316Y84264D01*
X221308Y84289D01*
X221221Y84441D01*
X221137Y84594D01*
X221120Y84615D01*
X221107Y84638D01*
X220892Y84891D01*
X216712Y89071D01*
X216699Y89082D01*
X216687Y89096D01*
X216543Y89210D01*
X216401Y89326D01*
X216385Y89334D01*
X216371Y89345D01*
X216207Y89429D01*
X216045Y89514D01*
X216028Y89519D01*
X216012Y89528D01*
X215835Y89577D01*
X215659Y89629D01*
X215642Y89631D01*
X215624Y89636D01*
X215441Y89649D01*
X215258Y89666D01*
X215241Y89664D01*
X215223Y89665D01*
X215041Y89642D01*
X214858Y89622D01*
X214841Y89617D01*
X214823Y89615D01*
X214650Y89556D01*
X214474Y89501D01*
X214459Y89492D01*
X214442Y89486D01*
X214282Y89394D01*
X214122Y89306D01*
X214108Y89294D01*
X214093Y89285D01*
X213840Y89071D01*
X201764Y76995D01*
X201747Y76974D01*
X201726Y76956D01*
X201619Y76818D01*
X201509Y76683D01*
X201496Y76659D01*
X201480Y76638D01*
X201402Y76481D01*
X201320Y76327D01*
X201312Y76302D01*
X201300Y76278D01*
X201255Y76108D01*
X201205Y75941D01*
X201203Y75915D01*
X201196Y75889D01*
X201169Y75558D01*
X201169Y61378D01*
X199545Y57457D01*
X196543Y54455D01*
X192622Y52831D01*
X188378Y52831D01*
X184457Y54455D01*
X181455Y57457D01*
X179831Y61378D01*
X179831Y80862D01*
X181455Y84783D01*
X184457Y87785D01*
X188378Y89409D01*
X192622Y89409D01*
X196543Y87785D01*
X197723Y86605D01*
X197737Y86594D01*
X197748Y86580D01*
X197893Y86466D01*
X198035Y86350D01*
X198050Y86341D01*
X198064Y86330D01*
X198229Y86247D01*
X198390Y86161D01*
X198407Y86156D01*
X198423Y86148D01*
X198601Y86099D01*
X198776Y86046D01*
X198794Y86045D01*
X198811Y86040D01*
X198994Y86027D01*
X199177Y86010D01*
X199195Y86012D01*
X199213Y86011D01*
X199395Y86034D01*
X199577Y86053D01*
X199594Y86059D01*
X199612Y86061D01*
X199786Y86119D01*
X199961Y86175D01*
X199977Y86184D01*
X199994Y86189D01*
X200153Y86281D01*
X200314Y86370D01*
X200327Y86381D01*
X200343Y86390D01*
X200596Y86605D01*
X209970Y95980D01*
X209987Y96000D01*
X210008Y96018D01*
X210115Y96156D01*
X210225Y96291D01*
X210238Y96315D01*
X210254Y96336D01*
X210332Y96493D01*
X210414Y96647D01*
X210422Y96672D01*
X210434Y96696D01*
X210479Y96866D01*
X210529Y97033D01*
X210531Y97059D01*
X210538Y97085D01*
X210565Y97416D01*
X210565Y180460D01*
X210563Y180487D01*
X210565Y180513D01*
X210543Y180687D01*
X210525Y180861D01*
X210518Y180886D01*
X210514Y180913D01*
X210459Y181079D01*
X210407Y181246D01*
X210394Y181269D01*
X210386Y181295D01*
X210299Y181446D01*
X210215Y181600D01*
X210198Y181620D01*
X210185Y181643D01*
X209970Y181896D01*
X192690Y199176D01*
X192670Y199193D01*
X192652Y199214D01*
X192514Y199321D01*
X192379Y199431D01*
X192355Y199444D01*
X192334Y199460D01*
X192177Y199538D01*
X192023Y199620D01*
X191998Y199628D01*
X191974Y199640D01*
X191804Y199685D01*
X191637Y199735D01*
X191611Y199737D01*
X191585Y199744D01*
X191254Y199771D01*
X188593Y199771D01*
X185068Y201231D01*
X182371Y203928D01*
X180911Y207453D01*
X180911Y224347D01*
X182371Y227872D01*
X185068Y230569D01*
X187543Y231594D01*
X187555Y231600D01*
X187568Y231604D01*
X187732Y231695D01*
X187898Y231784D01*
X187908Y231793D01*
X187920Y231799D01*
X188063Y231920D01*
X188208Y232041D01*
X188217Y232051D01*
X188227Y232060D01*
X188344Y232207D01*
X188462Y232353D01*
X188468Y232365D01*
X188476Y232376D01*
X188562Y232543D01*
X188649Y232710D01*
X188653Y232722D01*
X188659Y232734D01*
X188709Y232916D01*
X188762Y233096D01*
X188763Y233109D01*
X188767Y233122D01*
X188781Y233311D01*
X188797Y233497D01*
X188795Y233510D01*
X188796Y233524D01*
X188773Y233711D01*
X188752Y233897D01*
X188747Y233910D01*
X188746Y233923D01*
X188686Y234101D01*
X188628Y234281D01*
X188622Y234292D01*
X188618Y234305D01*
X188524Y234468D01*
X188432Y234632D01*
X188423Y234642D01*
X188417Y234654D01*
X188202Y234907D01*
X76232Y346876D01*
X76212Y346893D01*
X76194Y346914D01*
X76056Y347021D01*
X75921Y347131D01*
X75897Y347144D01*
X75876Y347160D01*
X75719Y347238D01*
X75565Y347320D01*
X75540Y347328D01*
X75516Y347340D01*
X75346Y347385D01*
X75179Y347435D01*
X75153Y347437D01*
X75127Y347444D01*
X74796Y347471D01*
X53540Y347471D01*
X50712Y350298D01*
X46892Y354119D01*
X46878Y354130D01*
X46867Y354144D01*
X46722Y354258D01*
X46580Y354374D01*
X46565Y354382D01*
X46551Y354393D01*
X46387Y354477D01*
X46225Y354563D01*
X46208Y354568D01*
X46192Y354576D01*
X46015Y354625D01*
X45839Y354677D01*
X45821Y354679D01*
X45804Y354684D01*
X45621Y354697D01*
X45438Y354714D01*
X45420Y354712D01*
X45402Y354713D01*
X45221Y354690D01*
X45038Y354670D01*
X45020Y354665D01*
X45003Y354663D01*
X44829Y354604D01*
X44654Y354549D01*
X44638Y354540D01*
X44621Y354534D01*
X44462Y354443D01*
X44301Y354354D01*
X44288Y354342D01*
X44272Y354334D01*
X44019Y354119D01*
X43532Y353631D01*
X40007Y352171D01*
X36193Y352171D01*
X32668Y353631D01*
X29971Y356328D01*
X28511Y359853D01*
X28511Y376747D01*
X29971Y380272D01*
X32668Y382969D01*
X36193Y384429D01*
X40007Y384429D01*
X43532Y382969D01*
X46229Y380272D01*
X47689Y376747D01*
X47689Y364942D01*
X47691Y364915D01*
X47689Y364888D01*
X47711Y364715D01*
X47729Y364541D01*
X47736Y364516D01*
X47740Y364489D01*
X47795Y364323D01*
X47847Y364156D01*
X47860Y364133D01*
X47868Y364107D01*
X47955Y363956D01*
X48039Y363802D01*
X48056Y363782D01*
X48069Y363758D01*
X48284Y363505D01*
X50444Y361345D01*
X50451Y361340D01*
X50456Y361333D01*
X50606Y361213D01*
X50755Y361090D01*
X50763Y361086D01*
X50770Y361081D01*
X50941Y360992D01*
X51111Y360902D01*
X51119Y360899D01*
X51127Y360895D01*
X51313Y360842D01*
X51497Y360787D01*
X51506Y360786D01*
X51514Y360784D01*
X51706Y360768D01*
X51898Y360751D01*
X51907Y360752D01*
X51916Y360751D01*
X52105Y360773D01*
X52298Y360794D01*
X52307Y360797D01*
X52315Y360798D01*
X52497Y360857D01*
X52682Y360915D01*
X52690Y360920D01*
X52698Y360923D01*
X52867Y361018D01*
X53034Y361110D01*
X53041Y361116D01*
X53049Y361120D01*
X53195Y361246D01*
X53341Y361371D01*
X53347Y361378D01*
X53354Y361384D01*
X53471Y361535D01*
X53591Y361687D01*
X53595Y361695D01*
X53600Y361702D01*
X53686Y361874D01*
X53773Y362046D01*
X53776Y362054D01*
X53780Y362062D01*
X53830Y362248D01*
X53881Y362434D01*
X53882Y362442D01*
X53884Y362451D01*
X53911Y362782D01*
X53911Y376747D01*
X55371Y380272D01*
X58068Y382969D01*
X61593Y384429D01*
X65407Y384429D01*
X68932Y382969D01*
X71629Y380272D01*
X73089Y376747D01*
X73089Y368106D01*
X73091Y368079D01*
X73089Y368052D01*
X73111Y367878D01*
X73129Y367705D01*
X73136Y367680D01*
X73140Y367653D01*
X73196Y367487D01*
X73247Y367320D01*
X73259Y367297D01*
X73268Y367271D01*
X73355Y367120D01*
X73439Y366966D01*
X73456Y366946D01*
X73469Y366922D01*
X73684Y366669D01*
X75844Y364509D01*
X75851Y364504D01*
X75856Y364497D01*
X76006Y364376D01*
X76155Y364254D01*
X76163Y364250D01*
X76170Y364244D01*
X76340Y364156D01*
X76511Y364066D01*
X76520Y364063D01*
X76527Y364059D01*
X76712Y364006D01*
X76897Y363951D01*
X76906Y363950D01*
X76914Y363948D01*
X77105Y363932D01*
X77298Y363914D01*
X77307Y363915D01*
X77316Y363915D01*
X77505Y363937D01*
X77698Y363958D01*
X77707Y363961D01*
X77715Y363962D01*
X77897Y364021D01*
X78082Y364079D01*
X78090Y364084D01*
X78098Y364086D01*
X78265Y364181D01*
X78434Y364274D01*
X78441Y364280D01*
X78449Y364284D01*
X78594Y364409D01*
X78741Y364535D01*
X78747Y364542D01*
X78754Y364547D01*
X78871Y364699D01*
X78991Y364851D01*
X78995Y364859D01*
X79000Y364866D01*
X79086Y365038D01*
X79173Y365209D01*
X79176Y365218D01*
X79180Y365226D01*
X79230Y365412D01*
X79281Y365597D01*
X79282Y365606D01*
X79284Y365615D01*
X79311Y365946D01*
X79311Y376747D01*
X80771Y380272D01*
X83468Y382969D01*
X86993Y384429D01*
X90807Y384429D01*
X94332Y382969D01*
X97029Y380272D01*
X98489Y376747D01*
X98489Y359853D01*
X97029Y356328D01*
X95334Y354634D01*
X95323Y354620D01*
X95309Y354608D01*
X95195Y354464D01*
X95079Y354322D01*
X95071Y354306D01*
X95060Y354292D01*
X94976Y354128D01*
X94890Y353966D01*
X94885Y353949D01*
X94877Y353933D01*
X94828Y353756D01*
X94776Y353581D01*
X94774Y353563D01*
X94769Y353546D01*
X94756Y353362D01*
X94739Y353180D01*
X94741Y353162D01*
X94740Y353144D01*
X94763Y352962D01*
X94783Y352779D01*
X94788Y352762D01*
X94790Y352745D01*
X94849Y352571D01*
X94904Y352395D01*
X94913Y352380D01*
X94919Y352363D01*
X95010Y352204D01*
X95099Y352043D01*
X95111Y352029D01*
X95119Y352014D01*
X95334Y351761D01*
X209772Y237324D01*
X209792Y237307D01*
X209810Y237286D01*
X209948Y237179D01*
X210083Y237069D01*
X210107Y237056D01*
X210128Y237040D01*
X210285Y236962D01*
X210439Y236880D01*
X210464Y236872D01*
X210488Y236860D01*
X210658Y236815D01*
X210825Y236765D01*
X210851Y236763D01*
X210877Y236756D01*
X211208Y236729D01*
X222050Y236729D01*
X229584Y229196D01*
X230603Y228176D01*
X230617Y228165D01*
X230628Y228151D01*
X230772Y228038D01*
X230914Y227921D01*
X230930Y227913D01*
X230944Y227902D01*
X231108Y227818D01*
X231270Y227732D01*
X231287Y227727D01*
X231303Y227719D01*
X231480Y227670D01*
X231656Y227618D01*
X231674Y227616D01*
X231691Y227611D01*
X231874Y227598D01*
X232057Y227581D01*
X232075Y227583D01*
X232093Y227582D01*
X232275Y227605D01*
X232457Y227625D01*
X232474Y227630D01*
X232492Y227632D01*
X232666Y227691D01*
X232841Y227746D01*
X232857Y227755D01*
X232874Y227761D01*
X233032Y227852D01*
X233194Y227941D01*
X233207Y227953D01*
X233223Y227961D01*
X233476Y228176D01*
X235868Y230569D01*
X239393Y232029D01*
X243207Y232029D01*
X246732Y230569D01*
X249429Y227872D01*
X250889Y224347D01*
X250889Y207453D01*
X249429Y203928D01*
X246732Y201231D01*
X243207Y199771D01*
X239393Y199771D01*
X235868Y201231D01*
X235866Y201234D01*
X235716Y201354D01*
X235567Y201476D01*
X235559Y201480D01*
X235552Y201486D01*
X235382Y201574D01*
X235211Y201665D01*
X235203Y201667D01*
X235195Y201672D01*
X235010Y201725D01*
X234825Y201780D01*
X234816Y201780D01*
X234808Y201783D01*
X234616Y201799D01*
X234424Y201816D01*
X234415Y201815D01*
X234406Y201816D01*
X234216Y201793D01*
X234024Y201773D01*
X234016Y201770D01*
X234007Y201769D01*
X233823Y201709D01*
X233640Y201651D01*
X233632Y201647D01*
X233624Y201644D01*
X233455Y201549D01*
X233288Y201456D01*
X233281Y201451D01*
X233273Y201446D01*
X233127Y201320D01*
X232981Y201196D01*
X232975Y201189D01*
X232968Y201183D01*
X232851Y201032D01*
X232731Y200880D01*
X232727Y200872D01*
X232722Y200865D01*
X232636Y200693D01*
X232549Y200521D01*
X232546Y200512D01*
X232542Y200504D01*
X232492Y200318D01*
X232441Y200133D01*
X232440Y200124D01*
X232438Y200116D01*
X232411Y199785D01*
X232411Y97924D01*
X232413Y97897D01*
X232411Y97871D01*
X232433Y97697D01*
X232451Y97523D01*
X232458Y97498D01*
X232462Y97471D01*
X232517Y97305D01*
X232569Y97138D01*
X232582Y97115D01*
X232590Y97089D01*
X232677Y96938D01*
X232761Y96784D01*
X232778Y96764D01*
X232791Y96741D01*
X233006Y96488D01*
X239490Y90004D01*
X239510Y89987D01*
X239528Y89966D01*
X239666Y89859D01*
X239801Y89749D01*
X239825Y89736D01*
X239846Y89720D01*
X240003Y89642D01*
X240157Y89560D01*
X240182Y89552D01*
X240206Y89540D01*
X240376Y89495D01*
X240543Y89445D01*
X240569Y89443D01*
X240595Y89436D01*
X240926Y89409D01*
X243422Y89409D01*
X247343Y87785D01*
X250345Y84783D01*
X251969Y80862D01*
X251969Y61378D01*
X250750Y58435D01*
X250746Y58422D01*
X250740Y58411D01*
X250688Y58231D01*
X250633Y58050D01*
X250632Y58037D01*
X250628Y58024D01*
X250613Y57836D01*
X250595Y57649D01*
X250597Y57636D01*
X250596Y57622D01*
X250618Y57435D01*
X250637Y57249D01*
X250641Y57236D01*
X250642Y57223D01*
X250701Y57043D01*
X250757Y56864D01*
X250763Y56853D01*
X250767Y56840D01*
X250860Y56675D01*
X250950Y56511D01*
X250959Y56501D01*
X250965Y56489D01*
X251088Y56347D01*
X251209Y56203D01*
X251220Y56195D01*
X251228Y56184D01*
X251377Y56069D01*
X251524Y55952D01*
X251536Y55946D01*
X251546Y55938D01*
X251715Y55854D01*
X251882Y55768D01*
X251895Y55764D01*
X251907Y55758D01*
X252090Y55709D01*
X252270Y55658D01*
X252283Y55657D01*
X252296Y55654D01*
X252627Y55627D01*
X255373Y55627D01*
X255387Y55628D01*
X255400Y55627D01*
X255586Y55648D01*
X255774Y55667D01*
X255787Y55671D01*
X255800Y55672D01*
X255979Y55730D01*
X256159Y55785D01*
X256171Y55791D01*
X256184Y55795D01*
X256348Y55887D01*
X256513Y55977D01*
X256523Y55985D01*
X256535Y55992D01*
X256678Y56114D01*
X256822Y56234D01*
X256831Y56245D01*
X256841Y56253D01*
X256957Y56401D01*
X257075Y56548D01*
X257081Y56560D01*
X257089Y56570D01*
X257174Y56739D01*
X257260Y56905D01*
X257264Y56918D01*
X257270Y56930D01*
X257319Y57111D01*
X257372Y57292D01*
X257373Y57306D01*
X257376Y57319D01*
X257389Y57507D01*
X257404Y57694D01*
X257403Y57707D01*
X257404Y57720D01*
X257379Y57908D01*
X257358Y58093D01*
X257353Y58106D01*
X257352Y58119D01*
X257250Y58435D01*
X256031Y61378D01*
X256031Y80862D01*
X257655Y84783D01*
X260657Y87785D01*
X264578Y89409D01*
X268822Y89409D01*
X272743Y87785D01*
X275745Y84783D01*
X277369Y80862D01*
X277369Y66682D01*
X277370Y66673D01*
X277369Y66664D01*
X277390Y66471D01*
X277409Y66281D01*
X277411Y66273D01*
X277412Y66264D01*
X277471Y66079D01*
X277527Y65896D01*
X277531Y65888D01*
X277534Y65880D01*
X277627Y65712D01*
X277719Y65542D01*
X277724Y65535D01*
X277729Y65528D01*
X277853Y65380D01*
X277976Y65233D01*
X277983Y65227D01*
X277989Y65221D01*
X278141Y65101D01*
X278290Y64981D01*
X278298Y64976D01*
X278305Y64971D01*
X278478Y64883D01*
X278647Y64795D01*
X278656Y64793D01*
X278664Y64789D01*
X278850Y64737D01*
X279034Y64684D01*
X279043Y64683D01*
X279052Y64681D01*
X279245Y64666D01*
X279436Y64651D01*
X279444Y64652D01*
X279453Y64651D01*
X279646Y64675D01*
X279835Y64698D01*
X279844Y64700D01*
X279853Y64702D01*
X280035Y64763D01*
X280218Y64823D01*
X280226Y64827D01*
X280234Y64830D01*
X280401Y64926D01*
X280569Y65020D01*
X280576Y65026D01*
X280583Y65031D01*
X280836Y65245D01*
X280853Y65266D01*
X280874Y65284D01*
X280981Y65422D01*
X281091Y65557D01*
X281104Y65581D01*
X281120Y65602D01*
X281198Y65759D01*
X281280Y65913D01*
X281288Y65938D01*
X281300Y65962D01*
X281345Y66132D01*
X281395Y66299D01*
X281397Y66325D01*
X281404Y66351D01*
X281431Y66682D01*
X281431Y80862D01*
X283055Y84783D01*
X286057Y87785D01*
X289978Y89409D01*
X294222Y89409D01*
X298143Y87785D01*
X301145Y84783D01*
X302769Y80862D01*
X302769Y61378D01*
X301145Y57457D01*
X298143Y54455D01*
X294222Y52831D01*
X289978Y52831D01*
X286057Y54455D01*
X284877Y55635D01*
X284863Y55646D01*
X284852Y55660D01*
X284707Y55774D01*
X284565Y55890D01*
X284550Y55899D01*
X284536Y55910D01*
X284371Y55993D01*
X284210Y56079D01*
X284193Y56084D01*
X284177Y56092D01*
X283999Y56141D01*
X283824Y56194D01*
X283806Y56195D01*
X283789Y56200D01*
X283606Y56213D01*
X283423Y56230D01*
X283405Y56228D01*
X283387Y56229D01*
X283205Y56206D01*
X283023Y56187D01*
X283006Y56181D01*
X282988Y56179D01*
X282814Y56121D01*
X282639Y56065D01*
X282623Y56056D01*
X282606Y56051D01*
X282447Y55959D01*
X282286Y55870D01*
X282273Y55859D01*
X282257Y55850D01*
X282004Y55635D01*
X276319Y49950D01*
X276314Y49943D01*
X276307Y49938D01*
X276187Y49788D01*
X276064Y49639D01*
X276060Y49631D01*
X276055Y49624D01*
X275966Y49453D01*
X275876Y49283D01*
X275873Y49275D01*
X275869Y49267D01*
X275815Y49080D01*
X275761Y48897D01*
X275760Y48888D01*
X275758Y48880D01*
X275742Y48688D01*
X275725Y48496D01*
X275726Y48487D01*
X275725Y48478D01*
X275747Y48289D01*
X275768Y48096D01*
X275771Y48087D01*
X275772Y48079D01*
X275831Y47897D01*
X275889Y47712D01*
X275894Y47704D01*
X275897Y47696D01*
X275992Y47527D01*
X276084Y47360D01*
X276090Y47353D01*
X276094Y47345D01*
X276220Y47199D01*
X276345Y47053D01*
X276352Y47047D01*
X276358Y47040D01*
X276509Y46923D01*
X276661Y46803D01*
X276669Y46799D01*
X276676Y46794D01*
X276848Y46708D01*
X277020Y46621D01*
X277028Y46618D01*
X277036Y46614D01*
X277223Y46564D01*
X277408Y46513D01*
X277416Y46512D01*
X277425Y46510D01*
X277756Y46483D01*
X375260Y46483D01*
X375287Y46485D01*
X375313Y46483D01*
X375487Y46505D01*
X375661Y46523D01*
X375686Y46530D01*
X375713Y46534D01*
X375879Y46589D01*
X376046Y46641D01*
X376069Y46654D01*
X376095Y46662D01*
X376246Y46749D01*
X376400Y46833D01*
X376420Y46850D01*
X376443Y46863D01*
X376696Y47078D01*
X388024Y58406D01*
X388041Y58426D01*
X388062Y58444D01*
X388169Y58582D01*
X388279Y58717D01*
X388292Y58741D01*
X388308Y58762D01*
X388386Y58919D01*
X388468Y59073D01*
X388476Y59098D01*
X388488Y59122D01*
X388533Y59292D01*
X388583Y59459D01*
X388585Y59485D01*
X388592Y59511D01*
X388619Y59842D01*
X388619Y153887D01*
X388617Y153909D01*
X388619Y153932D01*
X388597Y154109D01*
X388579Y154288D01*
X388573Y154309D01*
X388570Y154331D01*
X388514Y154502D01*
X388461Y154673D01*
X388451Y154692D01*
X388444Y154714D01*
X388355Y154869D01*
X388269Y155027D01*
X388255Y155044D01*
X388244Y155063D01*
X388126Y155198D01*
X388012Y155336D01*
X387994Y155350D01*
X387980Y155367D01*
X387837Y155476D01*
X387698Y155588D01*
X387678Y155599D01*
X387660Y155612D01*
X387456Y155717D01*
X384332Y158841D01*
X383258Y161436D01*
X383256Y161440D01*
X383254Y161444D01*
X383161Y161617D01*
X383067Y161791D01*
X383065Y161794D01*
X383062Y161798D01*
X382938Y161947D01*
X382811Y162101D01*
X382808Y162104D01*
X382805Y162107D01*
X382652Y162230D01*
X382498Y162355D01*
X382494Y162357D01*
X382491Y162360D01*
X382318Y162450D01*
X382142Y162542D01*
X382138Y162543D01*
X382134Y162545D01*
X381945Y162599D01*
X381755Y162655D01*
X381751Y162655D01*
X381747Y162657D01*
X381549Y162673D01*
X381354Y162690D01*
X381350Y162689D01*
X381345Y162689D01*
X381151Y162667D01*
X380954Y162644D01*
X380950Y162643D01*
X380946Y162643D01*
X380759Y162582D01*
X380571Y162521D01*
X380567Y162519D01*
X380563Y162518D01*
X380390Y162420D01*
X380219Y162325D01*
X380216Y162322D01*
X380212Y162320D01*
X380063Y162191D01*
X379914Y162063D01*
X379911Y162060D01*
X379907Y162057D01*
X379787Y161902D01*
X379665Y161746D01*
X379663Y161742D01*
X379661Y161739D01*
X379572Y161561D01*
X379485Y161386D01*
X379483Y161382D01*
X379481Y161378D01*
X379430Y161186D01*
X379378Y160998D01*
X379378Y160994D01*
X379377Y160989D01*
X379350Y160659D01*
X379350Y160523D01*
X372877Y154050D01*
X370331Y154050D01*
X370331Y165100D01*
X370331Y176150D01*
X372877Y176150D01*
X379350Y169677D01*
X379350Y169541D01*
X379350Y169537D01*
X379350Y169533D01*
X379370Y169339D01*
X379390Y169141D01*
X379391Y169137D01*
X379391Y169132D01*
X379450Y168945D01*
X379508Y168756D01*
X379510Y168752D01*
X379511Y168748D01*
X379605Y168576D01*
X379700Y168402D01*
X379702Y168398D01*
X379705Y168395D01*
X379832Y168243D01*
X379957Y168093D01*
X379961Y168090D01*
X379964Y168086D01*
X380118Y167963D01*
X380271Y167840D01*
X380275Y167838D01*
X380278Y167835D01*
X380453Y167746D01*
X380628Y167655D01*
X380633Y167654D01*
X380637Y167652D01*
X380824Y167598D01*
X381015Y167543D01*
X381020Y167543D01*
X381024Y167542D01*
X381217Y167527D01*
X381417Y167511D01*
X381421Y167511D01*
X381425Y167511D01*
X381619Y167534D01*
X381816Y167557D01*
X381821Y167559D01*
X381825Y167559D01*
X382010Y167621D01*
X382199Y167682D01*
X382203Y167685D01*
X382207Y167686D01*
X382379Y167784D01*
X382550Y167880D01*
X382553Y167883D01*
X382557Y167885D01*
X382708Y168017D01*
X382854Y168143D01*
X382857Y168147D01*
X382861Y168150D01*
X382981Y168306D01*
X383101Y168461D01*
X383103Y168465D01*
X383106Y168469D01*
X383258Y168764D01*
X384332Y171359D01*
X387454Y174481D01*
X387562Y174542D01*
X387720Y174626D01*
X387737Y174641D01*
X387757Y174652D01*
X387892Y174769D01*
X388031Y174883D01*
X388045Y174900D01*
X388062Y174915D01*
X388171Y175056D01*
X388284Y175195D01*
X388295Y175215D01*
X388308Y175233D01*
X388388Y175393D01*
X388471Y175552D01*
X388478Y175573D01*
X388488Y175593D01*
X388534Y175767D01*
X388584Y175938D01*
X388586Y175960D01*
X388592Y175982D01*
X388619Y176313D01*
X388619Y200039D01*
X388617Y200065D01*
X388619Y200092D01*
X388597Y200266D01*
X388579Y200439D01*
X388572Y200465D01*
X388568Y200492D01*
X388512Y200657D01*
X388461Y200824D01*
X388448Y200848D01*
X388440Y200873D01*
X388353Y201025D01*
X388269Y201178D01*
X388252Y201199D01*
X388239Y201222D01*
X388024Y201475D01*
X385571Y203928D01*
X384111Y207453D01*
X384111Y224347D01*
X385571Y227872D01*
X388268Y230569D01*
X391793Y232029D01*
X395607Y232029D01*
X399132Y230569D01*
X401829Y227872D01*
X403289Y224347D01*
X403289Y207453D01*
X401829Y203928D01*
X399376Y201475D01*
X399359Y201454D01*
X399338Y201437D01*
X399231Y201299D01*
X399121Y201164D01*
X399108Y201140D01*
X399092Y201119D01*
X399014Y200962D01*
X398932Y200808D01*
X398924Y200782D01*
X398912Y200758D01*
X398867Y200589D01*
X398817Y200422D01*
X398815Y200395D01*
X398808Y200370D01*
X398781Y200039D01*
X398781Y176313D01*
X398783Y176291D01*
X398781Y176268D01*
X398803Y176091D01*
X398821Y175912D01*
X398827Y175891D01*
X398830Y175869D01*
X398886Y175698D01*
X398939Y175527D01*
X398949Y175508D01*
X398956Y175486D01*
X399045Y175331D01*
X399131Y175173D01*
X399145Y175156D01*
X399156Y175137D01*
X399274Y175002D01*
X399388Y174864D01*
X399406Y174850D01*
X399420Y174833D01*
X399563Y174724D01*
X399702Y174612D01*
X399722Y174601D01*
X399740Y174588D01*
X399944Y174483D01*
X403068Y171359D01*
X404750Y167298D01*
X404750Y162902D01*
X403068Y158841D01*
X399946Y155719D01*
X399838Y155658D01*
X399680Y155574D01*
X399663Y155559D01*
X399643Y155548D01*
X399508Y155431D01*
X399369Y155317D01*
X399355Y155300D01*
X399338Y155285D01*
X399229Y155144D01*
X399116Y155005D01*
X399105Y154985D01*
X399092Y154967D01*
X399012Y154807D01*
X398929Y154648D01*
X398922Y154627D01*
X398912Y154607D01*
X398866Y154433D01*
X398816Y154262D01*
X398814Y154240D01*
X398808Y154218D01*
X398781Y153887D01*
X398781Y64008D01*
X398783Y63990D01*
X398781Y63972D01*
X398802Y63790D01*
X398821Y63607D01*
X398826Y63590D01*
X398828Y63573D01*
X398885Y63398D01*
X398939Y63222D01*
X398947Y63207D01*
X398953Y63190D01*
X399043Y63030D01*
X399131Y62868D01*
X399142Y62855D01*
X399151Y62839D01*
X399271Y62700D01*
X399388Y62559D01*
X399402Y62548D01*
X399414Y62534D01*
X399559Y62422D01*
X399702Y62307D01*
X399718Y62299D01*
X399732Y62288D01*
X399897Y62206D01*
X400059Y62121D01*
X400076Y62116D01*
X400092Y62108D01*
X400271Y62061D01*
X400446Y62010D01*
X400464Y62008D01*
X400481Y62004D01*
X400812Y61977D01*
X751434Y61977D01*
X751461Y61979D01*
X751487Y61977D01*
X751661Y61999D01*
X751835Y62017D01*
X751860Y62024D01*
X751887Y62028D01*
X752053Y62083D01*
X752220Y62135D01*
X752243Y62148D01*
X752269Y62156D01*
X752420Y62243D01*
X752574Y62327D01*
X752594Y62344D01*
X752617Y62357D01*
X752870Y62572D01*
X776184Y85886D01*
X776196Y85899D01*
X776209Y85911D01*
X776323Y86055D01*
X776439Y86197D01*
X776448Y86213D01*
X776459Y86227D01*
X776542Y86390D01*
X776628Y86553D01*
X776633Y86570D01*
X776641Y86586D01*
X776691Y86763D01*
X776743Y86939D01*
X776744Y86956D01*
X776749Y86974D01*
X776763Y87157D01*
X776779Y87340D01*
X776777Y87357D01*
X776779Y87375D01*
X776756Y87557D01*
X776736Y87740D01*
X776730Y87757D01*
X776728Y87775D01*
X776670Y87948D01*
X776614Y88124D01*
X776606Y88139D01*
X776600Y88156D01*
X776508Y88315D01*
X776419Y88476D01*
X776408Y88490D01*
X776399Y88505D01*
X776184Y88758D01*
X774601Y90342D01*
X772667Y95010D01*
X772667Y100062D01*
X774601Y104730D01*
X778174Y108303D01*
X778223Y108324D01*
X782842Y110237D01*
X807198Y110237D01*
X811866Y108303D01*
X812691Y107479D01*
X812705Y107467D01*
X812716Y107454D01*
X812860Y107340D01*
X813002Y107224D01*
X813018Y107215D01*
X813032Y107204D01*
X813196Y107121D01*
X813358Y107035D01*
X813375Y107030D01*
X813391Y107022D01*
X813568Y106972D01*
X813744Y106920D01*
X813762Y106918D01*
X813779Y106914D01*
X813962Y106900D01*
X814145Y106884D01*
X814163Y106886D01*
X814181Y106884D01*
X814363Y106907D01*
X814545Y106927D01*
X814562Y106932D01*
X814580Y106935D01*
X814754Y106993D01*
X814929Y107049D01*
X814945Y107057D01*
X814962Y107063D01*
X815120Y107154D01*
X815281Y107243D01*
X815295Y107255D01*
X815311Y107264D01*
X815564Y107479D01*
X832016Y123931D01*
X832033Y123952D01*
X832054Y123970D01*
X832161Y124107D01*
X832271Y124243D01*
X832284Y124266D01*
X832300Y124288D01*
X832378Y124445D01*
X832460Y124599D01*
X832468Y124624D01*
X832480Y124648D01*
X832525Y124818D01*
X832575Y124984D01*
X832577Y125011D01*
X832584Y125037D01*
X832611Y125368D01*
X832611Y172828D01*
X832609Y172855D01*
X832611Y172882D01*
X832589Y173056D01*
X832571Y173229D01*
X832564Y173254D01*
X832560Y173281D01*
X832505Y173447D01*
X832453Y173614D01*
X832440Y173637D01*
X832432Y173663D01*
X832345Y173814D01*
X832261Y173968D01*
X832244Y173988D01*
X832231Y174012D01*
X832016Y174265D01*
X816326Y189955D01*
X816312Y189967D01*
X816300Y189980D01*
X816156Y190094D01*
X816014Y190210D01*
X815998Y190219D01*
X815984Y190230D01*
X815820Y190313D01*
X815658Y190399D01*
X815641Y190404D01*
X815625Y190412D01*
X815448Y190462D01*
X815272Y190514D01*
X815255Y190516D01*
X815237Y190520D01*
X815054Y190534D01*
X814871Y190550D01*
X814854Y190548D01*
X814836Y190550D01*
X814654Y190527D01*
X814471Y190507D01*
X814454Y190502D01*
X814436Y190499D01*
X814263Y190441D01*
X814087Y190385D01*
X814072Y190377D01*
X814055Y190371D01*
X813896Y190280D01*
X813735Y190191D01*
X813721Y190179D01*
X813706Y190170D01*
X813453Y189955D01*
X811866Y188369D01*
X809109Y187226D01*
X809108Y187226D01*
X807198Y186435D01*
X782842Y186435D01*
X778174Y188369D01*
X774601Y191942D01*
X772667Y196610D01*
X772667Y201662D01*
X774601Y206330D01*
X778174Y209903D01*
X782842Y211837D01*
X807198Y211837D01*
X811866Y209903D01*
X813072Y208698D01*
X813086Y208686D01*
X813097Y208673D01*
X813242Y208559D01*
X813383Y208443D01*
X813399Y208434D01*
X813413Y208423D01*
X813578Y208340D01*
X813739Y208254D01*
X813756Y208249D01*
X813772Y208241D01*
X813950Y208191D01*
X814125Y208139D01*
X814143Y208137D01*
X814160Y208133D01*
X814343Y208119D01*
X814526Y208103D01*
X814544Y208105D01*
X814562Y208103D01*
X814744Y208126D01*
X814926Y208146D01*
X814943Y208151D01*
X814961Y208154D01*
X815135Y208212D01*
X815310Y208268D01*
X815326Y208276D01*
X815343Y208282D01*
X815502Y208374D01*
X815663Y208462D01*
X815676Y208474D01*
X815692Y208483D01*
X815945Y208698D01*
X832016Y224769D01*
X832033Y224790D01*
X832054Y224808D01*
X832161Y224945D01*
X832271Y225081D01*
X832284Y225104D01*
X832300Y225126D01*
X832378Y225283D01*
X832460Y225437D01*
X832468Y225462D01*
X832480Y225486D01*
X832525Y225656D01*
X832575Y225822D01*
X832577Y225849D01*
X832584Y225875D01*
X832611Y226206D01*
X832611Y271120D01*
X832609Y271147D01*
X832611Y271173D01*
X832589Y271347D01*
X832571Y271521D01*
X832564Y271546D01*
X832560Y271573D01*
X832505Y271739D01*
X832453Y271906D01*
X832440Y271929D01*
X832432Y271955D01*
X832345Y272106D01*
X832261Y272260D01*
X832244Y272280D01*
X832231Y272303D01*
X832016Y272556D01*
X814671Y289901D01*
X814658Y289913D01*
X814646Y289926D01*
X814502Y290040D01*
X814360Y290156D01*
X814344Y290165D01*
X814330Y290176D01*
X814166Y290259D01*
X814004Y290345D01*
X813987Y290350D01*
X813971Y290358D01*
X813794Y290408D01*
X813618Y290460D01*
X813601Y290461D01*
X813583Y290466D01*
X813400Y290480D01*
X813217Y290496D01*
X813200Y290494D01*
X813182Y290496D01*
X813000Y290473D01*
X812817Y290453D01*
X812800Y290447D01*
X812782Y290445D01*
X812609Y290387D01*
X812433Y290331D01*
X812418Y290323D01*
X812401Y290317D01*
X812241Y290225D01*
X812081Y290136D01*
X812067Y290125D01*
X812052Y290116D01*
X811890Y289979D01*
X807198Y288035D01*
X782842Y288035D01*
X778174Y289969D01*
X774601Y293542D01*
X772667Y298210D01*
X772667Y303262D01*
X774601Y307930D01*
X778174Y311503D01*
X782842Y313437D01*
X807198Y313437D01*
X811866Y311503D01*
X813453Y309917D01*
X813467Y309905D01*
X813478Y309892D01*
X813623Y309778D01*
X813764Y309662D01*
X813780Y309653D01*
X813794Y309642D01*
X813959Y309559D01*
X814120Y309473D01*
X814137Y309468D01*
X814153Y309460D01*
X814331Y309410D01*
X814506Y309358D01*
X814524Y309356D01*
X814541Y309352D01*
X814724Y309338D01*
X814907Y309322D01*
X814925Y309324D01*
X814943Y309322D01*
X815125Y309345D01*
X815307Y309365D01*
X815324Y309370D01*
X815342Y309373D01*
X815516Y309431D01*
X815691Y309487D01*
X815707Y309495D01*
X815724Y309501D01*
X815883Y309593D01*
X816044Y309681D01*
X816057Y309693D01*
X816073Y309702D01*
X816326Y309917D01*
X832016Y325607D01*
X832033Y325628D01*
X832054Y325646D01*
X832161Y325783D01*
X832271Y325919D01*
X832284Y325942D01*
X832300Y325964D01*
X832378Y326121D01*
X832460Y326275D01*
X832468Y326300D01*
X832480Y326324D01*
X832525Y326494D01*
X832575Y326660D01*
X832577Y326687D01*
X832584Y326713D01*
X832611Y327044D01*
X832611Y373482D01*
X832609Y373509D01*
X832611Y373535D01*
X832589Y373709D01*
X832571Y373883D01*
X832564Y373908D01*
X832560Y373935D01*
X832505Y374101D01*
X832453Y374268D01*
X832440Y374291D01*
X832432Y374317D01*
X832345Y374468D01*
X832261Y374622D01*
X832244Y374642D01*
X832231Y374665D01*
X832016Y374918D01*
X815052Y391882D01*
X815039Y391894D01*
X815027Y391907D01*
X814883Y392021D01*
X814741Y392137D01*
X814725Y392146D01*
X814711Y392157D01*
X814547Y392240D01*
X814385Y392326D01*
X814368Y392331D01*
X814352Y392339D01*
X814175Y392389D01*
X813999Y392441D01*
X813982Y392442D01*
X813964Y392447D01*
X813781Y392461D01*
X813598Y392477D01*
X813581Y392475D01*
X813563Y392477D01*
X813381Y392454D01*
X813198Y392434D01*
X813181Y392428D01*
X813163Y392426D01*
X812990Y392368D01*
X812814Y392312D01*
X812799Y392304D01*
X812782Y392298D01*
X812622Y392206D01*
X812462Y392117D01*
X812448Y392106D01*
X812433Y392097D01*
X812180Y391882D01*
X811866Y391569D01*
X807198Y389635D01*
X782842Y389635D01*
X778174Y391569D01*
X774601Y395142D01*
X772667Y399810D01*
X772667Y404862D01*
X774601Y409530D01*
X778174Y413103D01*
X782842Y415037D01*
X807198Y415037D01*
X811866Y413103D01*
X811929Y413041D01*
X811943Y413029D01*
X811954Y413016D01*
X812099Y412902D01*
X812240Y412786D01*
X812256Y412777D01*
X812270Y412766D01*
X812435Y412683D01*
X812596Y412597D01*
X812613Y412592D01*
X812629Y412584D01*
X812807Y412534D01*
X812982Y412482D01*
X813000Y412480D01*
X813017Y412476D01*
X813200Y412462D01*
X813383Y412446D01*
X813401Y412448D01*
X813419Y412446D01*
X813601Y412469D01*
X813783Y412489D01*
X813800Y412494D01*
X813818Y412497D01*
X813992Y412555D01*
X814167Y412611D01*
X814183Y412619D01*
X814200Y412625D01*
X814359Y412717D01*
X814520Y412805D01*
X814533Y412817D01*
X814549Y412826D01*
X814802Y413041D01*
X832016Y430255D01*
X832033Y430276D01*
X832054Y430294D01*
X832161Y430431D01*
X832271Y430567D01*
X832284Y430590D01*
X832300Y430612D01*
X832378Y430769D01*
X832460Y430923D01*
X832468Y430948D01*
X832480Y430972D01*
X832525Y431142D01*
X832575Y431308D01*
X832577Y431335D01*
X832584Y431361D01*
X832611Y431692D01*
X832611Y449434D01*
X832610Y449444D01*
X832611Y449451D01*
X832609Y449467D01*
X832611Y449488D01*
X832589Y449662D01*
X832571Y449835D01*
X832564Y449860D01*
X832560Y449887D01*
X832505Y450053D01*
X832453Y450220D01*
X832440Y450243D01*
X832432Y450269D01*
X832345Y450420D01*
X832261Y450574D01*
X832244Y450594D01*
X832231Y450618D01*
X832016Y450871D01*
X812313Y470574D01*
X812292Y470591D01*
X812274Y470612D01*
X812137Y470719D01*
X812001Y470829D01*
X811978Y470842D01*
X811956Y470858D01*
X811799Y470936D01*
X811645Y471018D01*
X811620Y471026D01*
X811596Y471038D01*
X811426Y471083D01*
X811260Y471133D01*
X811233Y471135D01*
X811207Y471142D01*
X810876Y471169D01*
X767847Y471169D01*
X765980Y471943D01*
X740678Y497244D01*
X740658Y497261D01*
X740640Y497282D01*
X740502Y497389D01*
X740367Y497499D01*
X740343Y497512D01*
X740322Y497528D01*
X740165Y497606D01*
X740011Y497688D01*
X739986Y497696D01*
X739962Y497708D01*
X739792Y497753D01*
X739625Y497803D01*
X739599Y497805D01*
X739573Y497812D01*
X739242Y497839D01*
X431800Y497839D01*
X431782Y497837D01*
X431764Y497839D01*
X431582Y497818D01*
X431399Y497799D01*
X431382Y497794D01*
X431365Y497792D01*
X431190Y497735D01*
X431014Y497681D01*
X430999Y497673D01*
X430982Y497667D01*
X430822Y497577D01*
X430660Y497489D01*
X430647Y497478D01*
X430631Y497469D01*
X430492Y497349D01*
X430351Y497232D01*
X430340Y497218D01*
X430326Y497206D01*
X430214Y497061D01*
X430099Y496918D01*
X430091Y496902D01*
X430080Y496888D01*
X429998Y496723D01*
X429913Y496561D01*
X429908Y496544D01*
X429900Y496528D01*
X429853Y496349D01*
X429802Y496174D01*
X429800Y496156D01*
X429796Y496139D01*
X429769Y495808D01*
X429769Y493178D01*
X428145Y489257D01*
X425143Y486255D01*
X421222Y484631D01*
X416978Y484631D01*
X413057Y486255D01*
X410055Y489257D01*
X408431Y493178D01*
X408431Y512662D01*
X410055Y516583D01*
X413057Y519585D01*
X416978Y521209D01*
X421222Y521209D01*
X425143Y519585D01*
X428145Y516583D01*
X429769Y512662D01*
X429769Y510032D01*
X429771Y510014D01*
X429769Y509996D01*
X429790Y509814D01*
X429809Y509631D01*
X429814Y509614D01*
X429816Y509597D01*
X429873Y509422D01*
X429927Y509246D01*
X429935Y509231D01*
X429941Y509214D01*
X430031Y509054D01*
X430119Y508892D01*
X430130Y508879D01*
X430139Y508863D01*
X430259Y508724D01*
X430376Y508583D01*
X430390Y508572D01*
X430402Y508558D01*
X430547Y508446D01*
X430690Y508331D01*
X430706Y508323D01*
X430720Y508312D01*
X430885Y508230D01*
X431047Y508145D01*
X431064Y508140D01*
X431080Y508132D01*
X431259Y508085D01*
X431434Y508034D01*
X431452Y508032D01*
X431469Y508028D01*
X431800Y508001D01*
X743199Y508001D01*
X745066Y507227D01*
X770368Y481926D01*
X770388Y481909D01*
X770406Y481888D01*
X770544Y481781D01*
X770679Y481671D01*
X770703Y481658D01*
X770724Y481642D01*
X770881Y481564D01*
X771035Y481482D01*
X771060Y481474D01*
X771084Y481462D01*
X771254Y481417D01*
X771421Y481367D01*
X771447Y481365D01*
X771473Y481358D01*
X771804Y481331D01*
X791654Y481331D01*
X791671Y481332D01*
X791688Y481331D01*
X791871Y481352D01*
X792054Y481371D01*
X792071Y481376D01*
X792088Y481378D01*
X792262Y481434D01*
X792439Y481489D01*
X792455Y481497D01*
X792471Y481502D01*
X792631Y481593D01*
X792793Y481681D01*
X792807Y481691D01*
X792822Y481700D01*
X792962Y481821D01*
X793103Y481938D01*
X793113Y481952D01*
X793127Y481963D01*
X793240Y482109D01*
X793355Y482252D01*
X793363Y482267D01*
X793374Y482281D01*
X793456Y482447D01*
X793540Y482609D01*
X793545Y482626D01*
X793553Y482641D01*
X793601Y482819D01*
X793652Y482996D01*
X793653Y483014D01*
X793658Y483030D01*
X793670Y483214D01*
X793685Y483398D01*
X793683Y483415D01*
X793684Y483432D01*
X793659Y483615D01*
X793638Y483797D01*
X793633Y483814D01*
X793630Y483831D01*
X793570Y484006D01*
X793513Y484180D01*
X793505Y484195D01*
X793499Y484211D01*
X793406Y484370D01*
X793315Y484531D01*
X793304Y484544D01*
X793295Y484559D01*
X793172Y484696D01*
X793052Y484835D01*
X793038Y484846D01*
X793027Y484859D01*
X792765Y485062D01*
X789192Y487397D01*
X782980Y495378D01*
X779696Y504943D01*
X779696Y515057D01*
X782980Y524622D01*
X789192Y532603D01*
X797659Y538135D01*
X807463Y540618D01*
X817542Y539783D01*
X826804Y535720D01*
X834244Y528870D01*
X839058Y519976D01*
X840723Y510000D01*
X839058Y500024D01*
X834244Y491130D01*
X826804Y484280D01*
X819916Y481259D01*
X819746Y481163D01*
X819577Y481070D01*
X819572Y481065D01*
X819565Y481061D01*
X819418Y480934D01*
X819270Y480809D01*
X819266Y480803D01*
X819260Y480798D01*
X819141Y480646D01*
X819021Y480494D01*
X819017Y480487D01*
X819013Y480481D01*
X818926Y480307D01*
X818838Y480135D01*
X818836Y480127D01*
X818833Y480120D01*
X818782Y479934D01*
X818730Y479747D01*
X818730Y479739D01*
X818728Y479732D01*
X818715Y479539D01*
X818701Y479345D01*
X818702Y479338D01*
X818702Y479330D01*
X818727Y479138D01*
X818751Y478946D01*
X818754Y478938D01*
X818755Y478931D01*
X818818Y478747D01*
X818880Y478564D01*
X818884Y478557D01*
X818886Y478550D01*
X818984Y478383D01*
X819081Y478215D01*
X819086Y478209D01*
X819090Y478203D01*
X819121Y478167D01*
X819295Y477962D01*
X841999Y455258D01*
X842773Y453391D01*
X842773Y427735D01*
X841999Y425868D01*
X820155Y404023D01*
X820143Y404009D01*
X820130Y403998D01*
X820016Y403854D01*
X819900Y403712D01*
X819891Y403696D01*
X819880Y403682D01*
X819797Y403517D01*
X819711Y403356D01*
X819706Y403339D01*
X819698Y403323D01*
X819648Y403145D01*
X819596Y402970D01*
X819595Y402952D01*
X819590Y402935D01*
X819576Y402752D01*
X819560Y402569D01*
X819562Y402551D01*
X819560Y402534D01*
X819583Y402352D01*
X819603Y402169D01*
X819609Y402152D01*
X819611Y402134D01*
X819669Y401961D01*
X819725Y401785D01*
X819733Y401769D01*
X819739Y401752D01*
X819831Y401593D01*
X819920Y401433D01*
X819931Y401419D01*
X819940Y401404D01*
X820155Y401151D01*
X841999Y379306D01*
X842773Y377439D01*
X842773Y323087D01*
X841999Y321220D01*
X840284Y319505D01*
X821298Y300518D01*
X821286Y300504D01*
X821273Y300493D01*
X821159Y300349D01*
X821043Y300207D01*
X821034Y300191D01*
X821023Y300177D01*
X820940Y300012D01*
X820854Y299851D01*
X820849Y299834D01*
X820841Y299818D01*
X820791Y299640D01*
X820739Y299465D01*
X820738Y299447D01*
X820733Y299430D01*
X820719Y299247D01*
X820703Y299064D01*
X820705Y299046D01*
X820703Y299029D01*
X820726Y298847D01*
X820746Y298664D01*
X820752Y298647D01*
X820754Y298629D01*
X820812Y298456D01*
X820868Y298280D01*
X820876Y298264D01*
X820882Y298247D01*
X820974Y298088D01*
X821063Y297928D01*
X821074Y297914D01*
X821083Y297899D01*
X821298Y297646D01*
X841999Y276944D01*
X842773Y275077D01*
X842773Y222249D01*
X841999Y220382D01*
X822571Y200953D01*
X822559Y200940D01*
X822546Y200928D01*
X822432Y200784D01*
X822316Y200642D01*
X822307Y200626D01*
X822296Y200612D01*
X822213Y200447D01*
X822127Y200286D01*
X822122Y200269D01*
X822114Y200253D01*
X822065Y200076D01*
X822012Y199900D01*
X822011Y199882D01*
X822006Y199865D01*
X821993Y199682D01*
X821976Y199499D01*
X821978Y199481D01*
X821977Y199464D01*
X822000Y199281D01*
X822019Y199099D01*
X822025Y199082D01*
X822027Y199064D01*
X822085Y198891D01*
X822141Y198715D01*
X822150Y198699D01*
X822155Y198683D01*
X822247Y198523D01*
X822336Y198363D01*
X822347Y198349D01*
X822356Y198334D01*
X822571Y198081D01*
X841999Y178652D01*
X842773Y176785D01*
X842773Y121411D01*
X841999Y119544D01*
X817593Y95138D01*
X817573Y95113D01*
X817550Y95093D01*
X817446Y94958D01*
X817338Y94826D01*
X817323Y94799D01*
X817304Y94774D01*
X817153Y94479D01*
X815439Y90342D01*
X811866Y86769D01*
X809199Y85664D01*
X807198Y84835D01*
X790346Y84835D01*
X790319Y84833D01*
X790293Y84835D01*
X790119Y84813D01*
X789945Y84795D01*
X789920Y84788D01*
X789893Y84784D01*
X789727Y84729D01*
X789560Y84677D01*
X789537Y84664D01*
X789511Y84656D01*
X789360Y84569D01*
X789206Y84485D01*
X789186Y84468D01*
X789163Y84455D01*
X788910Y84240D01*
X757258Y52589D01*
X755391Y51815D01*
X396646Y51815D01*
X396619Y51813D01*
X396593Y51815D01*
X396419Y51793D01*
X396245Y51775D01*
X396220Y51768D01*
X396193Y51764D01*
X396027Y51709D01*
X395860Y51657D01*
X395837Y51644D01*
X395811Y51636D01*
X395660Y51549D01*
X395506Y51465D01*
X395486Y51448D01*
X395463Y51435D01*
X395210Y51220D01*
X381084Y37095D01*
X379217Y36321D01*
X117427Y36321D01*
G37*
%LPD*%
%LPC*%
G36*
X720864Y86105D02*
X720864Y86105D01*
X716663Y87845D01*
X713447Y91061D01*
X711707Y95262D01*
X711707Y99810D01*
X713447Y104011D01*
X714988Y105552D01*
X715000Y105566D01*
X715013Y105577D01*
X715127Y105721D01*
X715243Y105863D01*
X715252Y105879D01*
X715263Y105893D01*
X715346Y106058D01*
X715432Y106219D01*
X715437Y106236D01*
X715445Y106252D01*
X715495Y106430D01*
X715547Y106605D01*
X715548Y106623D01*
X715553Y106640D01*
X715567Y106823D01*
X715583Y107006D01*
X715581Y107024D01*
X715583Y107041D01*
X715560Y107223D01*
X715540Y107406D01*
X715534Y107423D01*
X715532Y107441D01*
X715474Y107614D01*
X715418Y107790D01*
X715410Y107806D01*
X715404Y107823D01*
X715312Y107982D01*
X715223Y108142D01*
X715212Y108156D01*
X715203Y108171D01*
X714988Y108424D01*
X708246Y115167D01*
X708241Y115171D01*
X708237Y115176D01*
X708084Y115299D01*
X707935Y115422D01*
X707934Y115422D01*
X706570Y116842D01*
X706556Y116854D01*
X706542Y116871D01*
X705436Y117977D01*
X705467Y119541D01*
X705466Y119559D01*
X705467Y119582D01*
X705467Y121568D01*
X705479Y121608D01*
X705480Y121615D01*
X705482Y121621D01*
X705515Y121951D01*
X707285Y209987D01*
X707281Y210034D01*
X707285Y210081D01*
X707265Y210235D01*
X707253Y210389D01*
X707240Y210434D01*
X707234Y210481D01*
X707185Y210627D01*
X707143Y210776D01*
X707121Y210818D01*
X707106Y210863D01*
X707029Y210997D01*
X706958Y211134D01*
X706929Y211170D01*
X706905Y211211D01*
X706744Y211401D01*
X706707Y211448D01*
X706699Y211455D01*
X706690Y211464D01*
X654336Y263818D01*
X654316Y263835D01*
X654298Y263856D01*
X654160Y263963D01*
X654025Y264073D01*
X654001Y264086D01*
X653980Y264102D01*
X653823Y264180D01*
X653669Y264262D01*
X653644Y264270D01*
X653620Y264282D01*
X653450Y264327D01*
X653283Y264377D01*
X653257Y264379D01*
X653231Y264386D01*
X652900Y264413D01*
X578593Y264413D01*
X578520Y264406D01*
X578447Y264408D01*
X578320Y264386D01*
X578192Y264373D01*
X578122Y264352D01*
X578050Y264339D01*
X577930Y264293D01*
X577807Y264255D01*
X577743Y264220D01*
X577674Y264194D01*
X577566Y264125D01*
X577453Y264063D01*
X577397Y264017D01*
X577335Y263977D01*
X577243Y263888D01*
X577144Y263806D01*
X577098Y263749D01*
X577045Y263698D01*
X576972Y263592D01*
X576892Y263492D01*
X576858Y263427D01*
X576816Y263367D01*
X576765Y263248D01*
X576706Y263135D01*
X576686Y263064D01*
X576657Y262997D01*
X576630Y262871D01*
X576595Y262748D01*
X576589Y262675D01*
X576574Y262603D01*
X576572Y262475D01*
X576562Y262346D01*
X576570Y262274D01*
X576570Y262200D01*
X576594Y262074D01*
X576609Y261947D01*
X576631Y261877D01*
X576645Y261805D01*
X576694Y261686D01*
X576734Y261564D01*
X576770Y261500D01*
X576797Y261432D01*
X576868Y261325D01*
X576931Y261213D01*
X576979Y261158D01*
X577020Y261097D01*
X577111Y261006D01*
X577195Y260909D01*
X577252Y260864D01*
X577304Y260812D01*
X577444Y260715D01*
X577513Y260662D01*
X577542Y260647D01*
X577577Y260623D01*
X581994Y258073D01*
X589797Y250270D01*
X595315Y240713D01*
X598171Y230054D01*
X598171Y219018D01*
X595315Y208359D01*
X589797Y198802D01*
X581994Y190999D01*
X572437Y185481D01*
X561778Y182625D01*
X550742Y182625D01*
X540083Y185481D01*
X530526Y190999D01*
X522723Y198802D01*
X517205Y208359D01*
X514349Y219018D01*
X514349Y230054D01*
X517205Y240713D01*
X522723Y250270D01*
X530526Y258073D01*
X534943Y260623D01*
X535003Y260666D01*
X535067Y260701D01*
X535165Y260783D01*
X535270Y260858D01*
X535320Y260911D01*
X535376Y260958D01*
X535457Y261058D01*
X535544Y261153D01*
X535583Y261215D01*
X535628Y261272D01*
X535688Y261386D01*
X535755Y261496D01*
X535780Y261564D01*
X535814Y261629D01*
X535849Y261753D01*
X535894Y261873D01*
X535905Y261946D01*
X535925Y262016D01*
X535936Y262145D01*
X535956Y262271D01*
X535952Y262344D01*
X535958Y262418D01*
X535943Y262545D01*
X535938Y262674D01*
X535920Y262745D01*
X535911Y262817D01*
X535871Y262940D01*
X535841Y263064D01*
X535809Y263130D01*
X535786Y263200D01*
X535723Y263312D01*
X535668Y263428D01*
X535625Y263487D01*
X535589Y263551D01*
X535505Y263648D01*
X535428Y263751D01*
X535373Y263800D01*
X535325Y263856D01*
X535224Y263934D01*
X535128Y264020D01*
X535065Y264057D01*
X535007Y264102D01*
X534892Y264160D01*
X534782Y264225D01*
X534713Y264249D01*
X534647Y264282D01*
X534523Y264315D01*
X534401Y264357D01*
X534329Y264367D01*
X534258Y264386D01*
X534089Y264400D01*
X534002Y264412D01*
X533970Y264410D01*
X533927Y264413D01*
X353006Y264413D01*
X275114Y342304D01*
X275094Y342321D01*
X275076Y342342D01*
X274938Y342449D01*
X274803Y342559D01*
X274779Y342572D01*
X274758Y342588D01*
X274601Y342666D01*
X274447Y342748D01*
X274422Y342756D01*
X274398Y342768D01*
X274228Y342813D01*
X274061Y342863D01*
X274035Y342865D01*
X274009Y342872D01*
X273678Y342899D01*
X251798Y342899D01*
X247821Y346876D01*
X247800Y346893D01*
X247782Y346914D01*
X247645Y347021D01*
X247509Y347131D01*
X247486Y347144D01*
X247464Y347160D01*
X247307Y347238D01*
X247153Y347320D01*
X247128Y347328D01*
X247104Y347340D01*
X246934Y347385D01*
X246768Y347435D01*
X246741Y347437D01*
X246715Y347444D01*
X246384Y347471D01*
X231340Y347471D01*
X228512Y350298D01*
X224692Y354119D01*
X224678Y354130D01*
X224667Y354144D01*
X224522Y354258D01*
X224380Y354374D01*
X224365Y354382D01*
X224351Y354393D01*
X224187Y354477D01*
X224025Y354563D01*
X224008Y354568D01*
X223992Y354576D01*
X223815Y354625D01*
X223639Y354677D01*
X223621Y354679D01*
X223604Y354684D01*
X223421Y354697D01*
X223238Y354714D01*
X223220Y354712D01*
X223202Y354713D01*
X223021Y354690D01*
X222838Y354670D01*
X222820Y354665D01*
X222803Y354663D01*
X222629Y354604D01*
X222454Y354549D01*
X222438Y354540D01*
X222421Y354534D01*
X222262Y354443D01*
X222101Y354354D01*
X222088Y354342D01*
X222072Y354334D01*
X221819Y354119D01*
X221332Y353631D01*
X217807Y352171D01*
X213993Y352171D01*
X210468Y353631D01*
X207771Y356328D01*
X206311Y359853D01*
X206311Y376747D01*
X207771Y380272D01*
X210288Y382788D01*
X210299Y382802D01*
X210313Y382814D01*
X210427Y382958D01*
X210543Y383100D01*
X210551Y383116D01*
X210562Y383130D01*
X210646Y383294D01*
X210732Y383456D01*
X210737Y383473D01*
X210745Y383489D01*
X210794Y383666D01*
X210846Y383842D01*
X210848Y383859D01*
X210853Y383877D01*
X210866Y384060D01*
X210883Y384242D01*
X210881Y384260D01*
X210882Y384278D01*
X210859Y384460D01*
X210839Y384643D01*
X210834Y384660D01*
X210832Y384677D01*
X210773Y384851D01*
X210718Y385027D01*
X210709Y385042D01*
X210704Y385059D01*
X210612Y385219D01*
X210523Y385379D01*
X210512Y385392D01*
X210503Y385408D01*
X210288Y385661D01*
X206247Y389702D01*
X206247Y397698D01*
X211902Y403353D01*
X219898Y403353D01*
X225553Y397698D01*
X225553Y389702D01*
X221512Y385661D01*
X221501Y385647D01*
X221487Y385636D01*
X221374Y385492D01*
X221257Y385350D01*
X221249Y385334D01*
X221238Y385320D01*
X221154Y385155D01*
X221068Y384994D01*
X221063Y384977D01*
X221055Y384961D01*
X221006Y384783D01*
X220954Y384608D01*
X220952Y384590D01*
X220947Y384573D01*
X220934Y384390D01*
X220917Y384207D01*
X220919Y384189D01*
X220918Y384171D01*
X220941Y383989D01*
X220961Y383807D01*
X220966Y383790D01*
X220968Y383772D01*
X221027Y383598D01*
X221082Y383423D01*
X221091Y383407D01*
X221096Y383390D01*
X221188Y383231D01*
X221277Y383071D01*
X221289Y383057D01*
X221297Y383041D01*
X221512Y382788D01*
X224029Y380272D01*
X225489Y376747D01*
X225489Y364942D01*
X225491Y364915D01*
X225489Y364888D01*
X225511Y364715D01*
X225529Y364541D01*
X225536Y364516D01*
X225540Y364489D01*
X225595Y364323D01*
X225647Y364156D01*
X225660Y364133D01*
X225668Y364107D01*
X225755Y363956D01*
X225839Y363802D01*
X225856Y363782D01*
X225869Y363758D01*
X226084Y363505D01*
X228244Y361345D01*
X228251Y361340D01*
X228256Y361333D01*
X228406Y361213D01*
X228555Y361090D01*
X228563Y361086D01*
X228570Y361081D01*
X228741Y360992D01*
X228911Y360902D01*
X228919Y360899D01*
X228927Y360895D01*
X229113Y360842D01*
X229297Y360787D01*
X229306Y360786D01*
X229314Y360784D01*
X229506Y360768D01*
X229698Y360751D01*
X229707Y360752D01*
X229716Y360751D01*
X229905Y360773D01*
X230098Y360794D01*
X230107Y360797D01*
X230115Y360798D01*
X230297Y360857D01*
X230482Y360915D01*
X230490Y360920D01*
X230498Y360923D01*
X230667Y361018D01*
X230834Y361110D01*
X230841Y361116D01*
X230849Y361120D01*
X230995Y361246D01*
X231141Y361371D01*
X231147Y361378D01*
X231154Y361384D01*
X231271Y361535D01*
X231391Y361687D01*
X231395Y361695D01*
X231400Y361702D01*
X231486Y361874D01*
X231573Y362046D01*
X231576Y362054D01*
X231580Y362062D01*
X231630Y362248D01*
X231681Y362434D01*
X231682Y362442D01*
X231684Y362451D01*
X231711Y362782D01*
X231711Y376747D01*
X233171Y380272D01*
X235688Y382788D01*
X235699Y382802D01*
X235713Y382814D01*
X235826Y382958D01*
X235943Y383100D01*
X235951Y383116D01*
X235962Y383130D01*
X236046Y383294D01*
X236132Y383456D01*
X236137Y383473D01*
X236145Y383489D01*
X236194Y383666D01*
X236246Y383842D01*
X236248Y383859D01*
X236253Y383877D01*
X236266Y384060D01*
X236283Y384243D01*
X236281Y384260D01*
X236282Y384278D01*
X236259Y384460D01*
X236239Y384643D01*
X236234Y384660D01*
X236232Y384678D01*
X236173Y384851D01*
X236118Y385027D01*
X236109Y385042D01*
X236104Y385059D01*
X236012Y385219D01*
X235923Y385379D01*
X235912Y385392D01*
X235903Y385408D01*
X235688Y385661D01*
X231647Y389702D01*
X231647Y397698D01*
X237302Y403353D01*
X245298Y403353D01*
X250953Y397698D01*
X250953Y389702D01*
X246912Y385661D01*
X246901Y385647D01*
X246887Y385636D01*
X246773Y385492D01*
X246657Y385350D01*
X246649Y385334D01*
X246638Y385320D01*
X246554Y385156D01*
X246468Y384994D01*
X246463Y384977D01*
X246455Y384961D01*
X246406Y384784D01*
X246354Y384608D01*
X246352Y384590D01*
X246347Y384573D01*
X246334Y384389D01*
X246317Y384207D01*
X246319Y384189D01*
X246318Y384171D01*
X246341Y383990D01*
X246361Y383807D01*
X246366Y383790D01*
X246368Y383772D01*
X246427Y383598D01*
X246482Y383423D01*
X246491Y383407D01*
X246496Y383390D01*
X246588Y383231D01*
X246677Y383071D01*
X246688Y383057D01*
X246697Y383041D01*
X246912Y382788D01*
X249429Y380272D01*
X250889Y376747D01*
X250889Y361894D01*
X250891Y361867D01*
X250889Y361841D01*
X250911Y361667D01*
X250929Y361493D01*
X250936Y361468D01*
X250940Y361441D01*
X250996Y361275D01*
X251047Y361108D01*
X251059Y361085D01*
X251068Y361059D01*
X251155Y360908D01*
X251239Y360754D01*
X251256Y360734D01*
X251269Y360711D01*
X251484Y360458D01*
X253644Y358297D01*
X253651Y358292D01*
X253656Y358285D01*
X253806Y358165D01*
X253955Y358042D01*
X253963Y358038D01*
X253970Y358033D01*
X254140Y357944D01*
X254311Y357854D01*
X254320Y357851D01*
X254327Y357847D01*
X254512Y357794D01*
X254697Y357739D01*
X254706Y357738D01*
X254714Y357736D01*
X254905Y357720D01*
X255098Y357703D01*
X255107Y357704D01*
X255116Y357703D01*
X255305Y357725D01*
X255498Y357746D01*
X255507Y357749D01*
X255515Y357750D01*
X255697Y357809D01*
X255882Y357867D01*
X255890Y357872D01*
X255898Y357875D01*
X256065Y357969D01*
X256234Y358062D01*
X256241Y358068D01*
X256249Y358072D01*
X256394Y358198D01*
X256541Y358323D01*
X256547Y358330D01*
X256554Y358336D01*
X256671Y358487D01*
X256791Y358639D01*
X256795Y358647D01*
X256800Y358654D01*
X256886Y358826D01*
X256973Y358998D01*
X256976Y359006D01*
X256980Y359014D01*
X257030Y359200D01*
X257081Y359386D01*
X257082Y359394D01*
X257084Y359403D01*
X257111Y359734D01*
X257111Y376747D01*
X258571Y380272D01*
X261088Y382788D01*
X261099Y382802D01*
X261113Y382814D01*
X261227Y382958D01*
X261343Y383100D01*
X261351Y383116D01*
X261362Y383130D01*
X261446Y383294D01*
X261532Y383456D01*
X261537Y383473D01*
X261545Y383489D01*
X261594Y383666D01*
X261646Y383842D01*
X261648Y383859D01*
X261653Y383877D01*
X261666Y384060D01*
X261683Y384242D01*
X261681Y384260D01*
X261682Y384278D01*
X261659Y384460D01*
X261639Y384643D01*
X261634Y384660D01*
X261632Y384677D01*
X261573Y384851D01*
X261518Y385027D01*
X261509Y385042D01*
X261504Y385059D01*
X261412Y385219D01*
X261323Y385379D01*
X261312Y385392D01*
X261303Y385408D01*
X261088Y385661D01*
X257047Y389702D01*
X257047Y397698D01*
X262702Y403353D01*
X270698Y403353D01*
X276353Y397698D01*
X276353Y389702D01*
X272312Y385661D01*
X272301Y385647D01*
X272287Y385636D01*
X272174Y385492D01*
X272057Y385350D01*
X272049Y385334D01*
X272038Y385320D01*
X271954Y385155D01*
X271868Y384994D01*
X271863Y384977D01*
X271855Y384961D01*
X271806Y384783D01*
X271754Y384608D01*
X271752Y384590D01*
X271747Y384573D01*
X271734Y384390D01*
X271717Y384207D01*
X271719Y384189D01*
X271718Y384171D01*
X271741Y383989D01*
X271761Y383807D01*
X271766Y383790D01*
X271768Y383772D01*
X271827Y383598D01*
X271882Y383423D01*
X271891Y383407D01*
X271896Y383390D01*
X271988Y383231D01*
X272077Y383071D01*
X272089Y383057D01*
X272097Y383041D01*
X272312Y382788D01*
X274829Y380272D01*
X276289Y376747D01*
X276289Y366720D01*
X276291Y366693D01*
X276289Y366667D01*
X276311Y366493D01*
X276329Y366319D01*
X276336Y366294D01*
X276340Y366267D01*
X276396Y366101D01*
X276447Y365934D01*
X276459Y365911D01*
X276468Y365885D01*
X276555Y365734D01*
X276639Y365580D01*
X276656Y365560D01*
X276669Y365537D01*
X276884Y365284D01*
X279044Y363123D01*
X279051Y363118D01*
X279056Y363111D01*
X279206Y362991D01*
X279355Y362868D01*
X279363Y362864D01*
X279370Y362859D01*
X279540Y362770D01*
X279711Y362680D01*
X279720Y362677D01*
X279727Y362673D01*
X279912Y362620D01*
X280097Y362565D01*
X280106Y362564D01*
X280114Y362562D01*
X280305Y362546D01*
X280498Y362529D01*
X280507Y362530D01*
X280516Y362529D01*
X280705Y362551D01*
X280898Y362572D01*
X280907Y362575D01*
X280915Y362576D01*
X281097Y362635D01*
X281282Y362693D01*
X281290Y362698D01*
X281298Y362701D01*
X281465Y362795D01*
X281634Y362888D01*
X281641Y362894D01*
X281649Y362898D01*
X281794Y363024D01*
X281941Y363149D01*
X281947Y363156D01*
X281954Y363162D01*
X282071Y363313D01*
X282191Y363465D01*
X282195Y363473D01*
X282200Y363480D01*
X282286Y363652D01*
X282373Y363824D01*
X282376Y363832D01*
X282380Y363840D01*
X282430Y364026D01*
X282481Y364212D01*
X282482Y364220D01*
X282484Y364229D01*
X282511Y364560D01*
X282511Y376747D01*
X283971Y380272D01*
X286488Y382788D01*
X286499Y382802D01*
X286513Y382814D01*
X286627Y382958D01*
X286743Y383100D01*
X286751Y383116D01*
X286762Y383130D01*
X286846Y383294D01*
X286932Y383456D01*
X286937Y383473D01*
X286945Y383489D01*
X286994Y383666D01*
X287046Y383842D01*
X287048Y383859D01*
X287053Y383877D01*
X287066Y384060D01*
X287083Y384242D01*
X287081Y384260D01*
X287082Y384278D01*
X287059Y384460D01*
X287039Y384643D01*
X287034Y384660D01*
X287032Y384677D01*
X286973Y384851D01*
X286918Y385027D01*
X286909Y385042D01*
X286904Y385059D01*
X286812Y385219D01*
X286723Y385379D01*
X286712Y385392D01*
X286703Y385408D01*
X286488Y385661D01*
X282447Y389702D01*
X282447Y397698D01*
X288102Y403353D01*
X296098Y403353D01*
X301753Y397698D01*
X301753Y389702D01*
X297712Y385661D01*
X297701Y385647D01*
X297687Y385636D01*
X297574Y385492D01*
X297457Y385350D01*
X297449Y385334D01*
X297438Y385320D01*
X297354Y385155D01*
X297268Y384994D01*
X297263Y384977D01*
X297255Y384961D01*
X297206Y384783D01*
X297154Y384608D01*
X297152Y384590D01*
X297147Y384573D01*
X297134Y384390D01*
X297117Y384207D01*
X297119Y384189D01*
X297118Y384171D01*
X297141Y383989D01*
X297161Y383807D01*
X297166Y383790D01*
X297168Y383772D01*
X297227Y383598D01*
X297282Y383423D01*
X297291Y383407D01*
X297296Y383390D01*
X297388Y383231D01*
X297477Y383071D01*
X297489Y383057D01*
X297497Y383041D01*
X297712Y382788D01*
X300229Y380272D01*
X301689Y376747D01*
X301689Y359853D01*
X300229Y356328D01*
X298026Y354126D01*
X298015Y354112D01*
X298001Y354100D01*
X297887Y353956D01*
X297771Y353814D01*
X297763Y353798D01*
X297752Y353784D01*
X297668Y353620D01*
X297582Y353458D01*
X297577Y353441D01*
X297569Y353425D01*
X297520Y353248D01*
X297468Y353073D01*
X297466Y353055D01*
X297461Y353038D01*
X297448Y352855D01*
X297431Y352672D01*
X297433Y352654D01*
X297432Y352636D01*
X297455Y352454D01*
X297475Y352271D01*
X297480Y352254D01*
X297482Y352237D01*
X297541Y352063D01*
X297596Y351887D01*
X297605Y351872D01*
X297611Y351855D01*
X297702Y351695D01*
X297791Y351535D01*
X297802Y351522D01*
X297811Y351506D01*
X298026Y351253D01*
X362933Y286346D01*
X362954Y286329D01*
X362972Y286308D01*
X363110Y286201D01*
X363245Y286091D01*
X363269Y286078D01*
X363290Y286062D01*
X363447Y285984D01*
X363601Y285902D01*
X363626Y285894D01*
X363650Y285882D01*
X363820Y285837D01*
X363987Y285787D01*
X364013Y285785D01*
X364039Y285778D01*
X364370Y285751D01*
X534807Y285751D01*
X534880Y285758D01*
X534953Y285756D01*
X535080Y285778D01*
X535208Y285791D01*
X535278Y285812D01*
X535350Y285825D01*
X535470Y285871D01*
X535593Y285909D01*
X535657Y285944D01*
X535725Y285970D01*
X535834Y286039D01*
X535947Y286101D01*
X536003Y286147D01*
X536065Y286187D01*
X536157Y286276D01*
X536256Y286358D01*
X536302Y286415D01*
X536355Y286466D01*
X536428Y286572D01*
X536508Y286672D01*
X536542Y286737D01*
X536584Y286797D01*
X536635Y286916D01*
X536694Y287029D01*
X536714Y287100D01*
X536743Y287167D01*
X536770Y287293D01*
X536805Y287416D01*
X536811Y287489D01*
X536826Y287561D01*
X536828Y287689D01*
X536838Y287818D01*
X536830Y287890D01*
X536830Y287964D01*
X536806Y288090D01*
X536791Y288217D01*
X536769Y288287D01*
X536755Y288359D01*
X536706Y288478D01*
X536666Y288600D01*
X536630Y288664D01*
X536603Y288732D01*
X536532Y288839D01*
X536468Y288951D01*
X536421Y289006D01*
X536380Y289067D01*
X536289Y289158D01*
X536205Y289255D01*
X536147Y289300D01*
X536096Y289352D01*
X535956Y289449D01*
X535887Y289502D01*
X535858Y289517D01*
X535823Y289541D01*
X530526Y292599D01*
X522723Y300402D01*
X517205Y309959D01*
X514349Y320618D01*
X514349Y331654D01*
X517205Y342313D01*
X522723Y351870D01*
X530526Y359673D01*
X540083Y365191D01*
X550742Y368047D01*
X561778Y368047D01*
X572437Y365191D01*
X581994Y359673D01*
X589797Y351870D01*
X595315Y342313D01*
X598171Y331654D01*
X598171Y320618D01*
X595315Y309959D01*
X589797Y300402D01*
X581994Y292599D01*
X576697Y289541D01*
X576638Y289498D01*
X576573Y289463D01*
X576475Y289381D01*
X576370Y289306D01*
X576320Y289253D01*
X576264Y289206D01*
X576184Y289106D01*
X576096Y289011D01*
X576057Y288949D01*
X576012Y288892D01*
X575953Y288778D01*
X575885Y288668D01*
X575860Y288600D01*
X575826Y288535D01*
X575791Y288411D01*
X575746Y288291D01*
X575735Y288218D01*
X575715Y288148D01*
X575704Y288019D01*
X575685Y287893D01*
X575688Y287820D01*
X575682Y287746D01*
X575697Y287619D01*
X575703Y287490D01*
X575720Y287419D01*
X575729Y287347D01*
X575769Y287224D01*
X575800Y287100D01*
X575831Y287034D01*
X575854Y286964D01*
X575917Y286852D01*
X575972Y286736D01*
X576015Y286677D01*
X576052Y286613D01*
X576136Y286516D01*
X576212Y286413D01*
X576267Y286364D01*
X576315Y286308D01*
X576416Y286230D01*
X576512Y286144D01*
X576575Y286107D01*
X576633Y286062D01*
X576748Y286005D01*
X576859Y285939D01*
X576928Y285915D01*
X576993Y285882D01*
X577117Y285849D01*
X577239Y285807D01*
X577311Y285797D01*
X577382Y285778D01*
X577552Y285764D01*
X577638Y285752D01*
X577671Y285754D01*
X577713Y285751D01*
X653546Y285751D01*
X653573Y285753D01*
X653600Y285751D01*
X653774Y285773D01*
X653947Y285791D01*
X653972Y285798D01*
X653999Y285802D01*
X654165Y285857D01*
X654332Y285909D01*
X654355Y285922D01*
X654381Y285930D01*
X654532Y286017D01*
X654686Y286101D01*
X654706Y286118D01*
X654730Y286131D01*
X654983Y286346D01*
X677756Y309119D01*
X694556Y309119D01*
X694583Y309121D01*
X694609Y309119D01*
X694783Y309141D01*
X694957Y309159D01*
X694982Y309166D01*
X695009Y309170D01*
X695175Y309225D01*
X695342Y309277D01*
X695365Y309290D01*
X695391Y309298D01*
X695542Y309385D01*
X695696Y309469D01*
X695716Y309486D01*
X695739Y309499D01*
X695992Y309714D01*
X706540Y320262D01*
X706557Y320282D01*
X706578Y320300D01*
X706685Y320438D01*
X706795Y320573D01*
X706808Y320597D01*
X706824Y320618D01*
X706902Y320775D01*
X706984Y320929D01*
X706992Y320954D01*
X707004Y320978D01*
X707049Y321148D01*
X707099Y321315D01*
X707101Y321341D01*
X707108Y321367D01*
X707135Y321698D01*
X707135Y332765D01*
X715003Y340633D01*
X715015Y340646D01*
X715028Y340658D01*
X715142Y340802D01*
X715258Y340944D01*
X715267Y340960D01*
X715278Y340974D01*
X715361Y341138D01*
X715447Y341300D01*
X715452Y341317D01*
X715460Y341333D01*
X715509Y341510D01*
X715562Y341686D01*
X715563Y341704D01*
X715568Y341721D01*
X715582Y341904D01*
X715598Y342087D01*
X715596Y342104D01*
X715598Y342122D01*
X715575Y342304D01*
X715555Y342487D01*
X715549Y342504D01*
X715547Y342522D01*
X715489Y342695D01*
X715433Y342871D01*
X715425Y342886D01*
X715419Y342903D01*
X715327Y343063D01*
X715238Y343223D01*
X715227Y343237D01*
X715218Y343252D01*
X715003Y343505D01*
X714419Y344089D01*
X713362Y345545D01*
X712545Y347148D01*
X712027Y348743D01*
X730758Y348743D01*
X730776Y348744D01*
X730793Y348743D01*
X730976Y348764D01*
X731158Y348783D01*
X731175Y348788D01*
X731193Y348790D01*
X731368Y348847D01*
X731518Y348893D01*
X731530Y348887D01*
X731547Y348882D01*
X731563Y348874D01*
X731741Y348826D01*
X731916Y348776D01*
X731934Y348774D01*
X731951Y348770D01*
X732282Y348743D01*
X752799Y348743D01*
X752814Y348739D01*
X752998Y348686D01*
X753007Y348685D01*
X753016Y348682D01*
X753209Y348668D01*
X753400Y348653D01*
X753408Y348654D01*
X753417Y348653D01*
X753610Y348677D01*
X753799Y348700D01*
X753808Y348702D01*
X753817Y348703D01*
X754000Y348765D01*
X754182Y348824D01*
X754190Y348829D01*
X754198Y348832D01*
X754365Y348928D01*
X754533Y349022D01*
X754540Y349028D01*
X754547Y349033D01*
X754800Y349247D01*
X758356Y352803D01*
X758373Y352824D01*
X758394Y352842D01*
X758500Y352979D01*
X758611Y353115D01*
X758624Y353139D01*
X758640Y353160D01*
X758718Y353316D01*
X758800Y353471D01*
X758808Y353496D01*
X758820Y353520D01*
X758865Y353689D01*
X758915Y353857D01*
X758917Y353883D01*
X758924Y353909D01*
X758951Y354240D01*
X758951Y374008D01*
X758949Y374035D01*
X758951Y374062D01*
X758929Y374235D01*
X758911Y374409D01*
X758904Y374434D01*
X758900Y374461D01*
X758845Y374627D01*
X758793Y374794D01*
X758780Y374817D01*
X758772Y374843D01*
X758685Y374994D01*
X758601Y375148D01*
X758584Y375168D01*
X758571Y375192D01*
X758356Y375445D01*
X743491Y390310D01*
X743470Y390327D01*
X743452Y390348D01*
X743314Y390455D01*
X743179Y390565D01*
X743155Y390578D01*
X743134Y390594D01*
X742977Y390672D01*
X742823Y390754D01*
X742798Y390762D01*
X742774Y390774D01*
X742604Y390819D01*
X742437Y390869D01*
X742411Y390871D01*
X742385Y390878D01*
X742054Y390905D01*
X720864Y390905D01*
X716663Y392645D01*
X713447Y395861D01*
X711707Y400062D01*
X711707Y404610D01*
X713447Y408811D01*
X716663Y412027D01*
X719398Y413159D01*
X719406Y413164D01*
X719414Y413166D01*
X719582Y413258D01*
X719753Y413350D01*
X719760Y413355D01*
X719768Y413360D01*
X719914Y413483D01*
X720063Y413606D01*
X720069Y413613D01*
X720076Y413619D01*
X720195Y413769D01*
X720317Y413919D01*
X720321Y413927D01*
X720327Y413933D01*
X720415Y414105D01*
X720504Y414275D01*
X720507Y414284D01*
X720511Y414292D01*
X720563Y414477D01*
X720617Y414662D01*
X720618Y414670D01*
X720620Y414679D01*
X720635Y414870D01*
X720652Y415063D01*
X720651Y415072D01*
X720651Y415080D01*
X720628Y415273D01*
X720607Y415463D01*
X720604Y415471D01*
X720603Y415480D01*
X720542Y415665D01*
X720483Y415846D01*
X720479Y415854D01*
X720476Y415862D01*
X720381Y416030D01*
X720287Y416198D01*
X720281Y416204D01*
X720277Y416212D01*
X720150Y416357D01*
X720025Y416503D01*
X720018Y416509D01*
X720012Y416516D01*
X719860Y416633D01*
X719708Y416752D01*
X719700Y416756D01*
X719693Y416761D01*
X719398Y416913D01*
X716663Y418045D01*
X713447Y421261D01*
X711707Y425462D01*
X711707Y430010D01*
X713447Y434211D01*
X716663Y437427D01*
X719416Y438567D01*
X719494Y438609D01*
X719576Y438642D01*
X719671Y438703D01*
X719770Y438757D01*
X719839Y438813D01*
X719913Y438862D01*
X719994Y438941D01*
X720081Y439013D01*
X720137Y439082D01*
X720200Y439145D01*
X720263Y439238D01*
X720335Y439326D01*
X720376Y439404D01*
X720426Y439478D01*
X720469Y439583D01*
X720522Y439682D01*
X720547Y439768D01*
X720581Y439850D01*
X720603Y439960D01*
X720635Y440069D01*
X720642Y440157D01*
X720660Y440244D01*
X720660Y440357D01*
X720669Y440470D01*
X720659Y440558D01*
X720659Y440647D01*
X720637Y440758D01*
X720624Y440870D01*
X720597Y440954D01*
X720579Y441042D01*
X720536Y441146D01*
X720501Y441253D01*
X720458Y441331D01*
X720423Y441413D01*
X720360Y441506D01*
X720305Y441605D01*
X720247Y441672D01*
X720197Y441746D01*
X720116Y441825D01*
X720043Y441911D01*
X719973Y441965D01*
X719910Y442028D01*
X719815Y442089D01*
X719726Y442159D01*
X719646Y442199D01*
X719572Y442247D01*
X719442Y442302D01*
X719366Y442340D01*
X719322Y442352D01*
X719266Y442375D01*
X718750Y442543D01*
X717147Y443360D01*
X715691Y444417D01*
X714419Y445689D01*
X713362Y447145D01*
X712545Y448748D01*
X712027Y450343D01*
X730758Y450343D01*
X730776Y450344D01*
X730793Y450343D01*
X730976Y450364D01*
X731158Y450383D01*
X731175Y450388D01*
X731193Y450390D01*
X731368Y450447D01*
X731518Y450493D01*
X731530Y450487D01*
X731547Y450482D01*
X731563Y450474D01*
X731741Y450426D01*
X731916Y450376D01*
X731934Y450374D01*
X731951Y450370D01*
X732282Y450343D01*
X751013Y450343D01*
X750495Y448748D01*
X749678Y447145D01*
X748621Y445689D01*
X747349Y444417D01*
X745893Y443360D01*
X744290Y442543D01*
X743774Y442375D01*
X743693Y442339D01*
X743608Y442313D01*
X743509Y442259D01*
X743405Y442213D01*
X743333Y442162D01*
X743255Y442120D01*
X743168Y442047D01*
X743076Y441982D01*
X743015Y441918D01*
X742947Y441861D01*
X742876Y441772D01*
X742798Y441690D01*
X742751Y441615D01*
X742696Y441546D01*
X742644Y441445D01*
X742584Y441350D01*
X742552Y441267D01*
X742512Y441188D01*
X742481Y441079D01*
X742441Y440973D01*
X742426Y440886D01*
X742402Y440800D01*
X742393Y440688D01*
X742375Y440576D01*
X742378Y440487D01*
X742371Y440399D01*
X742385Y440287D01*
X742388Y440174D01*
X742409Y440087D01*
X742420Y439999D01*
X742455Y439892D01*
X742481Y439782D01*
X742518Y439701D01*
X742546Y439617D01*
X742602Y439519D01*
X742649Y439416D01*
X742702Y439344D01*
X742746Y439267D01*
X742820Y439182D01*
X742886Y439091D01*
X742952Y439031D01*
X743010Y438964D01*
X743100Y438895D01*
X743183Y438818D01*
X743259Y438772D01*
X743329Y438718D01*
X743455Y438654D01*
X743527Y438610D01*
X743571Y438594D01*
X743624Y438567D01*
X746377Y437427D01*
X749593Y434211D01*
X750177Y432801D01*
X750187Y432781D01*
X750194Y432760D01*
X750282Y432604D01*
X750367Y432446D01*
X750381Y432429D01*
X750392Y432409D01*
X750509Y432274D01*
X750623Y432135D01*
X750641Y432121D01*
X750655Y432104D01*
X750797Y431995D01*
X750936Y431882D01*
X750956Y431871D01*
X750973Y431858D01*
X751134Y431778D01*
X751292Y431695D01*
X751314Y431688D01*
X751334Y431678D01*
X751507Y431632D01*
X751679Y431582D01*
X751701Y431580D01*
X751723Y431574D01*
X752053Y431547D01*
X767200Y431547D01*
X767227Y431549D01*
X767253Y431547D01*
X767427Y431569D01*
X767601Y431587D01*
X767626Y431594D01*
X767653Y431598D01*
X767818Y431653D01*
X767986Y431705D01*
X768009Y431718D01*
X768035Y431726D01*
X768186Y431813D01*
X768340Y431897D01*
X768360Y431914D01*
X768383Y431927D01*
X768636Y432142D01*
X777082Y440587D01*
X777094Y440601D01*
X777107Y440613D01*
X777221Y440757D01*
X777337Y440899D01*
X777346Y440915D01*
X777357Y440929D01*
X777440Y441093D01*
X777526Y441255D01*
X777531Y441272D01*
X777539Y441288D01*
X777589Y441465D01*
X777641Y441641D01*
X777642Y441658D01*
X777647Y441676D01*
X777661Y441859D01*
X777677Y442042D01*
X777675Y442059D01*
X777677Y442077D01*
X777654Y442259D01*
X777634Y442442D01*
X777628Y442459D01*
X777626Y442477D01*
X777568Y442650D01*
X777512Y442826D01*
X777504Y442841D01*
X777498Y442858D01*
X777406Y443018D01*
X777317Y443178D01*
X777306Y443192D01*
X777297Y443207D01*
X777082Y443460D01*
X774601Y445942D01*
X772667Y450610D01*
X772667Y455662D01*
X774601Y460330D01*
X778174Y463903D01*
X782842Y465837D01*
X807198Y465837D01*
X811866Y463903D01*
X815439Y460330D01*
X817373Y455662D01*
X817373Y450610D01*
X815439Y445942D01*
X811866Y442369D01*
X807198Y440435D01*
X788550Y440435D01*
X788523Y440433D01*
X788496Y440435D01*
X788323Y440413D01*
X788149Y440395D01*
X788124Y440388D01*
X788097Y440384D01*
X787931Y440328D01*
X787764Y440277D01*
X787741Y440264D01*
X787715Y440256D01*
X787564Y440169D01*
X787410Y440085D01*
X787390Y440068D01*
X787366Y440055D01*
X787113Y439840D01*
X771198Y423925D01*
X752053Y423925D01*
X752031Y423923D01*
X752009Y423925D01*
X751831Y423903D01*
X751653Y423885D01*
X751631Y423879D01*
X751609Y423876D01*
X751439Y423820D01*
X751268Y423767D01*
X751248Y423757D01*
X751227Y423750D01*
X751071Y423661D01*
X750914Y423575D01*
X750897Y423561D01*
X750877Y423550D01*
X750742Y423432D01*
X750604Y423318D01*
X750591Y423300D01*
X750574Y423286D01*
X750464Y423143D01*
X750352Y423004D01*
X750342Y422984D01*
X750328Y422966D01*
X750177Y422671D01*
X749593Y421261D01*
X746377Y418045D01*
X743642Y416913D01*
X743634Y416908D01*
X743626Y416906D01*
X743457Y416813D01*
X743287Y416722D01*
X743280Y416717D01*
X743272Y416712D01*
X743125Y416588D01*
X742977Y416466D01*
X742971Y416459D01*
X742964Y416453D01*
X742844Y416302D01*
X742723Y416153D01*
X742719Y416146D01*
X742713Y416138D01*
X742626Y415968D01*
X742536Y415797D01*
X742533Y415788D01*
X742529Y415780D01*
X742478Y415598D01*
X742423Y415410D01*
X742422Y415401D01*
X742420Y415393D01*
X742405Y415200D01*
X742388Y415009D01*
X742389Y415000D01*
X742389Y414992D01*
X742412Y414801D01*
X742433Y414609D01*
X742436Y414601D01*
X742437Y414592D01*
X742497Y414411D01*
X742557Y414226D01*
X742561Y414218D01*
X742564Y414210D01*
X742659Y414043D01*
X742753Y413874D01*
X742759Y413868D01*
X742763Y413860D01*
X742891Y413713D01*
X743015Y413569D01*
X743022Y413563D01*
X743028Y413556D01*
X743181Y413439D01*
X743332Y413320D01*
X743340Y413316D01*
X743347Y413311D01*
X743642Y413159D01*
X746377Y412027D01*
X749593Y408811D01*
X751333Y404610D01*
X751333Y400062D01*
X749856Y396497D01*
X749849Y396475D01*
X749839Y396455D01*
X749791Y396283D01*
X749739Y396111D01*
X749737Y396089D01*
X749731Y396068D01*
X749718Y395888D01*
X749701Y395710D01*
X749703Y395688D01*
X749702Y395666D01*
X749724Y395488D01*
X749743Y395310D01*
X749749Y395289D01*
X749752Y395267D01*
X749809Y395097D01*
X749863Y394926D01*
X749873Y394906D01*
X749880Y394885D01*
X749970Y394730D01*
X750056Y394572D01*
X750070Y394555D01*
X750081Y394536D01*
X750296Y394283D01*
X763745Y380834D01*
X763746Y380834D01*
X766573Y378006D01*
X766573Y357378D01*
X766575Y357360D01*
X766573Y357342D01*
X766594Y357160D01*
X766613Y356977D01*
X766618Y356960D01*
X766620Y356943D01*
X766677Y356768D01*
X766731Y356592D01*
X766739Y356577D01*
X766745Y356560D01*
X766835Y356400D01*
X766923Y356238D01*
X766934Y356225D01*
X766943Y356209D01*
X767063Y356070D01*
X767180Y355929D01*
X767194Y355918D01*
X767206Y355904D01*
X767351Y355792D01*
X767494Y355677D01*
X767510Y355669D01*
X767524Y355658D01*
X767689Y355576D01*
X767851Y355491D01*
X767868Y355486D01*
X767884Y355478D01*
X768063Y355431D01*
X768238Y355380D01*
X768256Y355378D01*
X768273Y355374D01*
X768604Y355347D01*
X771842Y355347D01*
X771864Y355349D01*
X771886Y355347D01*
X772064Y355369D01*
X772243Y355387D01*
X772264Y355393D01*
X772286Y355396D01*
X772456Y355452D01*
X772628Y355505D01*
X772647Y355515D01*
X772668Y355522D01*
X772824Y355611D01*
X772982Y355697D01*
X772999Y355711D01*
X773018Y355722D01*
X773154Y355840D01*
X773291Y355954D01*
X773305Y355972D01*
X773322Y355986D01*
X773430Y356128D01*
X773543Y356268D01*
X773554Y356288D01*
X773567Y356306D01*
X773719Y356601D01*
X774601Y358730D01*
X778174Y362303D01*
X782842Y364237D01*
X807198Y364237D01*
X811866Y362303D01*
X815439Y358730D01*
X817373Y354062D01*
X817373Y349010D01*
X815439Y344342D01*
X811866Y340769D01*
X807198Y338835D01*
X782842Y338835D01*
X778174Y340769D01*
X774601Y344342D01*
X773719Y346471D01*
X773708Y346491D01*
X773701Y346512D01*
X773613Y346668D01*
X773529Y346826D01*
X773514Y346843D01*
X773503Y346863D01*
X773386Y346998D01*
X773272Y347137D01*
X773255Y347151D01*
X773240Y347168D01*
X773099Y347277D01*
X772959Y347390D01*
X772940Y347401D01*
X772922Y347414D01*
X772761Y347494D01*
X772603Y347577D01*
X772582Y347584D01*
X772562Y347594D01*
X772388Y347640D01*
X772217Y347690D01*
X772194Y347692D01*
X772173Y347698D01*
X771842Y347725D01*
X771532Y347725D01*
X771505Y347723D01*
X771479Y347725D01*
X771305Y347703D01*
X771131Y347685D01*
X771106Y347678D01*
X771079Y347674D01*
X770913Y347619D01*
X770746Y347567D01*
X770723Y347554D01*
X770697Y347546D01*
X770546Y347459D01*
X770392Y347375D01*
X770372Y347358D01*
X770349Y347345D01*
X770096Y347130D01*
X751928Y328962D01*
X751911Y328942D01*
X751890Y328924D01*
X751783Y328786D01*
X751673Y328651D01*
X751660Y328627D01*
X751644Y328606D01*
X751566Y328449D01*
X751484Y328295D01*
X751476Y328270D01*
X751464Y328246D01*
X751419Y328076D01*
X751369Y327909D01*
X751367Y327883D01*
X751360Y327857D01*
X751333Y327526D01*
X751333Y323862D01*
X749593Y319661D01*
X746377Y316445D01*
X743642Y315313D01*
X743634Y315308D01*
X743626Y315306D01*
X743458Y315214D01*
X743287Y315122D01*
X743280Y315117D01*
X743272Y315112D01*
X743126Y314989D01*
X742977Y314866D01*
X742971Y314859D01*
X742964Y314853D01*
X742845Y314703D01*
X742723Y314553D01*
X742719Y314545D01*
X742713Y314539D01*
X742625Y314367D01*
X742536Y314197D01*
X742533Y314188D01*
X742529Y314180D01*
X742477Y313995D01*
X742423Y313810D01*
X742422Y313802D01*
X742420Y313793D01*
X742405Y313600D01*
X742388Y313409D01*
X742389Y313400D01*
X742389Y313392D01*
X742412Y313199D01*
X742433Y313009D01*
X742436Y313001D01*
X742437Y312992D01*
X742498Y312807D01*
X742557Y312626D01*
X742561Y312618D01*
X742564Y312610D01*
X742659Y312442D01*
X742753Y312274D01*
X742759Y312268D01*
X742763Y312260D01*
X742890Y312115D01*
X743015Y311969D01*
X743022Y311963D01*
X743028Y311956D01*
X743180Y311839D01*
X743332Y311720D01*
X743340Y311716D01*
X743347Y311711D01*
X743642Y311559D01*
X746377Y310427D01*
X749593Y307211D01*
X751333Y303010D01*
X751333Y298462D01*
X749593Y294261D01*
X746377Y291045D01*
X742176Y289305D01*
X720864Y289305D01*
X716663Y291045D01*
X713447Y294261D01*
X712863Y295671D01*
X712853Y295691D01*
X712846Y295712D01*
X712758Y295869D01*
X712673Y296026D01*
X712659Y296043D01*
X712648Y296063D01*
X712531Y296199D01*
X712417Y296337D01*
X712399Y296351D01*
X712385Y296368D01*
X712244Y296477D01*
X712104Y296590D01*
X712084Y296601D01*
X712067Y296614D01*
X711907Y296694D01*
X711748Y296777D01*
X711726Y296784D01*
X711706Y296794D01*
X711533Y296840D01*
X711361Y296890D01*
X711339Y296892D01*
X711317Y296898D01*
X710987Y296925D01*
X683648Y296925D01*
X683621Y296923D01*
X683595Y296925D01*
X683421Y296903D01*
X683247Y296885D01*
X683222Y296878D01*
X683195Y296874D01*
X683029Y296819D01*
X682862Y296767D01*
X682839Y296754D01*
X682813Y296746D01*
X682662Y296659D01*
X682508Y296575D01*
X682488Y296558D01*
X682465Y296545D01*
X682212Y296330D01*
X662272Y276391D01*
X662261Y276378D01*
X662248Y276366D01*
X662134Y276222D01*
X662017Y276080D01*
X662009Y276064D01*
X661998Y276050D01*
X661914Y275886D01*
X661829Y275724D01*
X661824Y275707D01*
X661816Y275691D01*
X661766Y275514D01*
X661714Y275338D01*
X661712Y275320D01*
X661708Y275303D01*
X661694Y275120D01*
X661678Y274937D01*
X661680Y274919D01*
X661678Y274902D01*
X661701Y274720D01*
X661721Y274537D01*
X661726Y274520D01*
X661729Y274502D01*
X661787Y274329D01*
X661843Y274153D01*
X661851Y274137D01*
X661857Y274121D01*
X661949Y273961D01*
X662037Y273801D01*
X662049Y273787D01*
X662058Y273772D01*
X662272Y273519D01*
X708759Y227032D01*
X708770Y227023D01*
X708778Y227013D01*
X708925Y226896D01*
X709071Y226777D01*
X709083Y226771D01*
X709093Y226762D01*
X709261Y226676D01*
X709427Y226588D01*
X709439Y226584D01*
X709451Y226578D01*
X709632Y226527D01*
X709812Y226473D01*
X709826Y226472D01*
X709839Y226469D01*
X710024Y226454D01*
X710213Y226437D01*
X710227Y226438D01*
X710240Y226437D01*
X710425Y226460D01*
X710614Y226480D01*
X710627Y226484D01*
X710640Y226486D01*
X710817Y226545D01*
X710997Y226602D01*
X711009Y226608D01*
X711022Y226613D01*
X711186Y226706D01*
X711350Y226797D01*
X711360Y226805D01*
X711372Y226812D01*
X711514Y226936D01*
X711657Y227057D01*
X711665Y227068D01*
X711675Y227077D01*
X711790Y227226D01*
X711906Y227373D01*
X711912Y227385D01*
X711921Y227396D01*
X712072Y227691D01*
X713447Y231011D01*
X716663Y234227D01*
X719416Y235367D01*
X719494Y235409D01*
X719576Y235442D01*
X719671Y235504D01*
X719770Y235557D01*
X719839Y235613D01*
X719913Y235662D01*
X719994Y235741D01*
X720081Y235813D01*
X720137Y235882D01*
X720200Y235945D01*
X720263Y236038D01*
X720335Y236126D01*
X720376Y236205D01*
X720426Y236278D01*
X720469Y236382D01*
X720522Y236482D01*
X720547Y236568D01*
X720581Y236650D01*
X720603Y236760D01*
X720635Y236869D01*
X720642Y236957D01*
X720660Y237044D01*
X720660Y237157D01*
X720669Y237270D01*
X720659Y237358D01*
X720659Y237447D01*
X720637Y237558D01*
X720624Y237670D01*
X720597Y237754D01*
X720579Y237842D01*
X720536Y237946D01*
X720501Y238053D01*
X720458Y238131D01*
X720423Y238213D01*
X720360Y238306D01*
X720305Y238405D01*
X720247Y238472D01*
X720197Y238546D01*
X720116Y238625D01*
X720043Y238711D01*
X719973Y238765D01*
X719910Y238828D01*
X719815Y238889D01*
X719726Y238959D01*
X719646Y238999D01*
X719572Y239047D01*
X719442Y239102D01*
X719366Y239140D01*
X719322Y239152D01*
X719266Y239175D01*
X718750Y239343D01*
X717147Y240160D01*
X715691Y241217D01*
X714419Y242489D01*
X713362Y243945D01*
X712545Y245548D01*
X712027Y247143D01*
X730758Y247143D01*
X730776Y247144D01*
X730793Y247143D01*
X730976Y247164D01*
X731158Y247183D01*
X731175Y247188D01*
X731193Y247190D01*
X731368Y247247D01*
X731518Y247293D01*
X731530Y247287D01*
X731547Y247282D01*
X731563Y247274D01*
X731741Y247226D01*
X731916Y247176D01*
X731934Y247174D01*
X731951Y247170D01*
X732282Y247143D01*
X751013Y247143D01*
X750495Y245548D01*
X749678Y243945D01*
X748621Y242489D01*
X747349Y241217D01*
X745893Y240160D01*
X744290Y239343D01*
X743774Y239175D01*
X743693Y239139D01*
X743608Y239113D01*
X743509Y239059D01*
X743405Y239013D01*
X743333Y238962D01*
X743255Y238920D01*
X743169Y238847D01*
X743076Y238782D01*
X743015Y238718D01*
X742947Y238661D01*
X742876Y238572D01*
X742798Y238490D01*
X742751Y238415D01*
X742696Y238346D01*
X742644Y238245D01*
X742584Y238150D01*
X742552Y238067D01*
X742512Y237988D01*
X742481Y237879D01*
X742441Y237773D01*
X742426Y237686D01*
X742402Y237600D01*
X742393Y237488D01*
X742375Y237376D01*
X742378Y237287D01*
X742371Y237199D01*
X742385Y237087D01*
X742388Y236974D01*
X742409Y236887D01*
X742420Y236799D01*
X742455Y236692D01*
X742481Y236582D01*
X742518Y236501D01*
X742546Y236417D01*
X742602Y236319D01*
X742649Y236216D01*
X742702Y236144D01*
X742746Y236067D01*
X742820Y235982D01*
X742886Y235891D01*
X742952Y235831D01*
X743010Y235764D01*
X743100Y235695D01*
X743183Y235618D01*
X743259Y235572D01*
X743329Y235518D01*
X743455Y235454D01*
X743527Y235410D01*
X743571Y235394D01*
X743624Y235367D01*
X746377Y234227D01*
X749593Y231011D01*
X750177Y229601D01*
X750187Y229581D01*
X750194Y229560D01*
X750282Y229404D01*
X750367Y229246D01*
X750381Y229229D01*
X750392Y229209D01*
X750509Y229074D01*
X750623Y228935D01*
X750641Y228921D01*
X750655Y228904D01*
X750797Y228795D01*
X750936Y228682D01*
X750956Y228671D01*
X750973Y228658D01*
X751134Y228578D01*
X751292Y228495D01*
X751314Y228488D01*
X751334Y228478D01*
X751507Y228432D01*
X751679Y228382D01*
X751701Y228380D01*
X751723Y228374D01*
X752053Y228347D01*
X767200Y228347D01*
X767227Y228349D01*
X767253Y228347D01*
X767427Y228369D01*
X767601Y228387D01*
X767626Y228394D01*
X767653Y228398D01*
X767818Y228453D01*
X767986Y228505D01*
X768009Y228518D01*
X768035Y228526D01*
X768186Y228613D01*
X768340Y228697D01*
X768360Y228714D01*
X768383Y228727D01*
X768636Y228942D01*
X777082Y237387D01*
X777094Y237401D01*
X777107Y237413D01*
X777221Y237557D01*
X777337Y237699D01*
X777346Y237715D01*
X777357Y237729D01*
X777440Y237893D01*
X777526Y238055D01*
X777531Y238072D01*
X777539Y238088D01*
X777589Y238265D01*
X777641Y238441D01*
X777642Y238458D01*
X777647Y238476D01*
X777661Y238659D01*
X777677Y238842D01*
X777675Y238859D01*
X777677Y238877D01*
X777654Y239059D01*
X777634Y239242D01*
X777628Y239259D01*
X777626Y239277D01*
X777568Y239450D01*
X777512Y239626D01*
X777504Y239641D01*
X777498Y239658D01*
X777406Y239818D01*
X777317Y239978D01*
X777306Y239992D01*
X777297Y240007D01*
X777082Y240260D01*
X774601Y242742D01*
X772667Y247410D01*
X772667Y252462D01*
X774601Y257130D01*
X778174Y260703D01*
X782842Y262637D01*
X807198Y262637D01*
X811866Y260703D01*
X815439Y257130D01*
X817373Y252462D01*
X817373Y247410D01*
X815439Y242742D01*
X811866Y239169D01*
X807198Y237235D01*
X788550Y237235D01*
X788523Y237233D01*
X788496Y237235D01*
X788323Y237213D01*
X788149Y237195D01*
X788124Y237188D01*
X788097Y237184D01*
X787931Y237128D01*
X787764Y237077D01*
X787741Y237064D01*
X787715Y237056D01*
X787564Y236969D01*
X787410Y236885D01*
X787390Y236868D01*
X787366Y236855D01*
X787113Y236640D01*
X771198Y220725D01*
X752053Y220725D01*
X752031Y220723D01*
X752009Y220725D01*
X751831Y220703D01*
X751653Y220685D01*
X751631Y220679D01*
X751609Y220676D01*
X751439Y220620D01*
X751268Y220567D01*
X751248Y220557D01*
X751227Y220550D01*
X751071Y220461D01*
X750914Y220375D01*
X750897Y220361D01*
X750877Y220350D01*
X750742Y220232D01*
X750604Y220118D01*
X750591Y220100D01*
X750574Y220086D01*
X750464Y219943D01*
X750352Y219804D01*
X750342Y219784D01*
X750328Y219766D01*
X750177Y219471D01*
X749593Y218061D01*
X746377Y214845D01*
X743642Y213713D01*
X743634Y213708D01*
X743626Y213706D01*
X743457Y213613D01*
X743287Y213522D01*
X743280Y213517D01*
X743272Y213512D01*
X743125Y213388D01*
X742977Y213266D01*
X742971Y213259D01*
X742964Y213253D01*
X742844Y213102D01*
X742723Y212953D01*
X742719Y212946D01*
X742713Y212938D01*
X742626Y212768D01*
X742536Y212597D01*
X742533Y212588D01*
X742529Y212580D01*
X742478Y212398D01*
X742423Y212210D01*
X742422Y212201D01*
X742420Y212193D01*
X742405Y212000D01*
X742388Y211809D01*
X742389Y211800D01*
X742389Y211792D01*
X742412Y211601D01*
X742433Y211409D01*
X742436Y211401D01*
X742437Y211392D01*
X742497Y211211D01*
X742557Y211026D01*
X742561Y211018D01*
X742564Y211010D01*
X742659Y210843D01*
X742753Y210674D01*
X742759Y210668D01*
X742763Y210660D01*
X742891Y210513D01*
X743015Y210369D01*
X743022Y210363D01*
X743028Y210356D01*
X743181Y210239D01*
X743332Y210120D01*
X743340Y210116D01*
X743347Y210111D01*
X743642Y209959D01*
X746377Y208827D01*
X749593Y205611D01*
X751333Y201410D01*
X751333Y196862D01*
X749593Y192661D01*
X746377Y189445D01*
X745924Y189258D01*
X742176Y187705D01*
X720864Y187705D01*
X717261Y189198D01*
X717075Y189254D01*
X716890Y189311D01*
X716883Y189312D01*
X716876Y189314D01*
X716684Y189332D01*
X716489Y189352D01*
X716482Y189352D01*
X716475Y189352D01*
X716284Y189332D01*
X716089Y189313D01*
X716082Y189311D01*
X716075Y189311D01*
X715890Y189253D01*
X715703Y189196D01*
X715697Y189193D01*
X715690Y189191D01*
X715521Y189098D01*
X715349Y189005D01*
X715343Y189001D01*
X715337Y188998D01*
X715189Y188873D01*
X715039Y188748D01*
X715034Y188743D01*
X715029Y188738D01*
X714908Y188587D01*
X714786Y188435D01*
X714782Y188429D01*
X714778Y188424D01*
X714690Y188252D01*
X714599Y188079D01*
X714597Y188072D01*
X714594Y188065D01*
X714541Y187879D01*
X714487Y187692D01*
X714486Y187684D01*
X714484Y187678D01*
X714481Y187633D01*
X714453Y187362D01*
X713899Y159780D01*
X713904Y159708D01*
X713901Y159637D01*
X713920Y159508D01*
X713931Y159378D01*
X713950Y159309D01*
X713961Y159239D01*
X714005Y159116D01*
X714041Y158991D01*
X714074Y158927D01*
X714098Y158860D01*
X714166Y158749D01*
X714226Y158633D01*
X714270Y158577D01*
X714307Y158516D01*
X714396Y158420D01*
X714477Y158319D01*
X714532Y158273D01*
X714580Y158220D01*
X714686Y158144D01*
X714786Y158060D01*
X714848Y158026D01*
X714906Y157984D01*
X715025Y157930D01*
X715139Y157868D01*
X715207Y157846D01*
X715273Y157817D01*
X715399Y157787D01*
X715524Y157748D01*
X715595Y157741D01*
X715665Y157725D01*
X715795Y157721D01*
X715924Y157707D01*
X715996Y157714D01*
X716067Y157712D01*
X716195Y157734D01*
X716325Y157746D01*
X716394Y157767D01*
X716464Y157779D01*
X716586Y157826D01*
X716710Y157863D01*
X716773Y157897D01*
X716840Y157923D01*
X716988Y158013D01*
X717065Y158054D01*
X717089Y158075D01*
X717124Y158095D01*
X717147Y158112D01*
X718750Y158929D01*
X720461Y159485D01*
X722238Y159767D01*
X728727Y159767D01*
X728727Y149098D01*
X728728Y149080D01*
X728727Y149063D01*
X728748Y148880D01*
X728767Y148698D01*
X728772Y148681D01*
X728774Y148663D01*
X728831Y148488D01*
X728885Y148313D01*
X728893Y148297D01*
X728899Y148280D01*
X728989Y148120D01*
X729076Y147959D01*
X729088Y147945D01*
X729097Y147929D01*
X729217Y147790D01*
X729334Y147649D01*
X729348Y147638D01*
X729360Y147625D01*
X729505Y147512D01*
X729648Y147397D01*
X729664Y147389D01*
X729678Y147378D01*
X729843Y147296D01*
X730005Y147212D01*
X730022Y147207D01*
X730038Y147199D01*
X730217Y147151D01*
X730302Y147126D01*
X730355Y146964D01*
X730409Y146788D01*
X730417Y146773D01*
X730423Y146756D01*
X730513Y146596D01*
X730601Y146434D01*
X730612Y146421D01*
X730621Y146405D01*
X730741Y146266D01*
X730859Y146125D01*
X730872Y146114D01*
X730884Y146100D01*
X731029Y145988D01*
X731172Y145873D01*
X731188Y145865D01*
X731202Y145854D01*
X731367Y145772D01*
X731530Y145687D01*
X731547Y145682D01*
X731563Y145674D01*
X731741Y145626D01*
X731916Y145576D01*
X731934Y145574D01*
X731951Y145570D01*
X732282Y145543D01*
X751013Y145543D01*
X750495Y143948D01*
X749678Y142345D01*
X748621Y140889D01*
X747349Y139617D01*
X745893Y138560D01*
X744290Y137743D01*
X743774Y137575D01*
X743693Y137539D01*
X743608Y137513D01*
X743509Y137459D01*
X743405Y137413D01*
X743333Y137362D01*
X743255Y137320D01*
X743168Y137247D01*
X743076Y137182D01*
X743015Y137118D01*
X742947Y137061D01*
X742876Y136972D01*
X742798Y136890D01*
X742751Y136815D01*
X742696Y136746D01*
X742644Y136645D01*
X742584Y136550D01*
X742552Y136467D01*
X742512Y136388D01*
X742481Y136279D01*
X742441Y136173D01*
X742426Y136086D01*
X742402Y136000D01*
X742393Y135888D01*
X742375Y135776D01*
X742378Y135687D01*
X742371Y135599D01*
X742385Y135487D01*
X742388Y135374D01*
X742409Y135287D01*
X742420Y135199D01*
X742455Y135092D01*
X742481Y134982D01*
X742518Y134901D01*
X742546Y134817D01*
X742602Y134719D01*
X742649Y134616D01*
X742702Y134544D01*
X742746Y134467D01*
X742820Y134382D01*
X742886Y134291D01*
X742952Y134231D01*
X743010Y134164D01*
X743100Y134095D01*
X743183Y134018D01*
X743259Y133972D01*
X743329Y133918D01*
X743455Y133854D01*
X743527Y133810D01*
X743571Y133794D01*
X743624Y133767D01*
X746377Y132627D01*
X749593Y129411D01*
X750177Y128001D01*
X750187Y127981D01*
X750194Y127960D01*
X750282Y127804D01*
X750367Y127646D01*
X750381Y127629D01*
X750392Y127609D01*
X750509Y127474D01*
X750623Y127335D01*
X750641Y127321D01*
X750655Y127304D01*
X750797Y127195D01*
X750936Y127082D01*
X750956Y127071D01*
X750973Y127058D01*
X751134Y126978D01*
X751292Y126895D01*
X751314Y126888D01*
X751334Y126878D01*
X751507Y126832D01*
X751679Y126782D01*
X751701Y126780D01*
X751723Y126774D01*
X752053Y126747D01*
X767200Y126747D01*
X767227Y126749D01*
X767253Y126747D01*
X767427Y126769D01*
X767601Y126787D01*
X767626Y126794D01*
X767653Y126798D01*
X767818Y126853D01*
X767986Y126905D01*
X768009Y126918D01*
X768035Y126926D01*
X768186Y127013D01*
X768340Y127097D01*
X768360Y127114D01*
X768383Y127127D01*
X768636Y127342D01*
X777082Y135787D01*
X777094Y135801D01*
X777107Y135813D01*
X777221Y135957D01*
X777337Y136099D01*
X777346Y136115D01*
X777357Y136129D01*
X777440Y136292D01*
X777526Y136455D01*
X777531Y136472D01*
X777539Y136488D01*
X777589Y136665D01*
X777641Y136841D01*
X777642Y136858D01*
X777647Y136876D01*
X777661Y137059D01*
X777677Y137242D01*
X777675Y137259D01*
X777677Y137277D01*
X777654Y137459D01*
X777634Y137642D01*
X777628Y137659D01*
X777626Y137677D01*
X777568Y137850D01*
X777512Y138026D01*
X777504Y138041D01*
X777498Y138058D01*
X777406Y138218D01*
X777317Y138378D01*
X777306Y138392D01*
X777297Y138407D01*
X777082Y138660D01*
X774601Y141142D01*
X772667Y145810D01*
X772667Y150862D01*
X774601Y155530D01*
X778174Y159103D01*
X782842Y161037D01*
X807198Y161037D01*
X811866Y159103D01*
X815439Y155530D01*
X817373Y150862D01*
X817373Y145810D01*
X815439Y141142D01*
X811866Y137569D01*
X807198Y135635D01*
X788550Y135635D01*
X788523Y135633D01*
X788496Y135635D01*
X788323Y135613D01*
X788149Y135595D01*
X788124Y135588D01*
X788097Y135584D01*
X787931Y135528D01*
X787764Y135477D01*
X787741Y135464D01*
X787715Y135456D01*
X787564Y135369D01*
X787410Y135285D01*
X787390Y135268D01*
X787366Y135255D01*
X787113Y135040D01*
X771198Y119125D01*
X752053Y119125D01*
X752031Y119123D01*
X752009Y119125D01*
X751831Y119103D01*
X751653Y119085D01*
X751631Y119079D01*
X751609Y119076D01*
X751439Y119020D01*
X751268Y118967D01*
X751248Y118957D01*
X751227Y118950D01*
X751071Y118861D01*
X750914Y118775D01*
X750897Y118761D01*
X750877Y118750D01*
X750742Y118632D01*
X750604Y118518D01*
X750591Y118500D01*
X750574Y118486D01*
X750464Y118343D01*
X750352Y118204D01*
X750342Y118184D01*
X750328Y118166D01*
X750177Y117871D01*
X749593Y116461D01*
X746377Y113245D01*
X743642Y112113D01*
X743634Y112108D01*
X743626Y112106D01*
X743455Y112012D01*
X743287Y111922D01*
X743280Y111917D01*
X743272Y111912D01*
X743124Y111788D01*
X742977Y111666D01*
X742971Y111659D01*
X742964Y111653D01*
X742844Y111503D01*
X742723Y111353D01*
X742719Y111345D01*
X742713Y111338D01*
X742625Y111166D01*
X742536Y110997D01*
X742533Y110988D01*
X742529Y110980D01*
X742477Y110794D01*
X742423Y110610D01*
X742422Y110601D01*
X742420Y110593D01*
X742405Y110402D01*
X742388Y110209D01*
X742389Y110200D01*
X742389Y110192D01*
X742412Y110000D01*
X742433Y109809D01*
X742436Y109801D01*
X742437Y109792D01*
X742498Y109609D01*
X742557Y109426D01*
X742561Y109418D01*
X742564Y109410D01*
X742659Y109243D01*
X742753Y109074D01*
X742759Y109068D01*
X742763Y109060D01*
X742890Y108915D01*
X743015Y108769D01*
X743022Y108763D01*
X743028Y108756D01*
X743181Y108639D01*
X743332Y108520D01*
X743340Y108516D01*
X743347Y108511D01*
X743642Y108359D01*
X746377Y107227D01*
X749593Y104011D01*
X751333Y99810D01*
X751333Y95262D01*
X749593Y91061D01*
X746377Y87845D01*
X746014Y87695D01*
X742176Y86105D01*
X720864Y86105D01*
G37*
%LPD*%
%LPC*%
G36*
X550742Y81025D02*
X550742Y81025D01*
X540083Y83881D01*
X530526Y89399D01*
X522723Y97202D01*
X517205Y106759D01*
X514349Y117418D01*
X514349Y128454D01*
X517205Y139113D01*
X522723Y148670D01*
X530526Y156473D01*
X540083Y161991D01*
X550742Y164847D01*
X561778Y164847D01*
X572437Y161991D01*
X581994Y156473D01*
X589797Y148670D01*
X595315Y139113D01*
X598171Y128454D01*
X598171Y117418D01*
X595315Y106759D01*
X589797Y97202D01*
X581994Y89399D01*
X572437Y83881D01*
X561778Y81025D01*
X550742Y81025D01*
G37*
%LPD*%
%LPC*%
G36*
X550742Y385825D02*
X550742Y385825D01*
X540083Y388681D01*
X530526Y394199D01*
X522723Y402002D01*
X517205Y411559D01*
X514349Y422218D01*
X514349Y433254D01*
X517205Y443913D01*
X522723Y453470D01*
X530526Y461273D01*
X540083Y466791D01*
X550742Y469647D01*
X561778Y469647D01*
X572437Y466791D01*
X581994Y461273D01*
X589797Y453470D01*
X595315Y443913D01*
X598171Y433254D01*
X598171Y422218D01*
X595315Y411559D01*
X589797Y402002D01*
X581994Y394199D01*
X572437Y388681D01*
X561778Y385825D01*
X550742Y385825D01*
G37*
%LPD*%
%LPC*%
G36*
X366393Y352171D02*
X366393Y352171D01*
X362868Y353631D01*
X360171Y356328D01*
X358711Y359853D01*
X358711Y376747D01*
X360171Y380272D01*
X362868Y382969D01*
X366393Y384429D01*
X370207Y384429D01*
X372095Y383647D01*
X372108Y383643D01*
X372119Y383637D01*
X372299Y383585D01*
X372480Y383530D01*
X372493Y383529D01*
X372506Y383526D01*
X372694Y383510D01*
X372881Y383492D01*
X372894Y383494D01*
X372908Y383493D01*
X373094Y383514D01*
X373281Y383534D01*
X373294Y383538D01*
X373307Y383540D01*
X373486Y383598D01*
X373666Y383654D01*
X373677Y383660D01*
X373690Y383664D01*
X373855Y383757D01*
X374019Y383847D01*
X374029Y383856D01*
X374041Y383862D01*
X374183Y383985D01*
X374327Y384106D01*
X374335Y384117D01*
X374346Y384125D01*
X374460Y384273D01*
X374578Y384421D01*
X374584Y384433D01*
X374592Y384444D01*
X374676Y384612D01*
X374762Y384779D01*
X374766Y384792D01*
X374772Y384804D01*
X374821Y384986D01*
X374872Y385167D01*
X374873Y385180D01*
X374876Y385193D01*
X374903Y385524D01*
X374903Y483447D01*
X374902Y483461D01*
X374903Y483474D01*
X374882Y483660D01*
X374863Y483848D01*
X374859Y483861D01*
X374858Y483874D01*
X374801Y484050D01*
X374745Y484233D01*
X374739Y484245D01*
X374735Y484258D01*
X374643Y484422D01*
X374553Y484587D01*
X374545Y484597D01*
X374538Y484609D01*
X374416Y484752D01*
X374296Y484896D01*
X374285Y484905D01*
X374277Y484915D01*
X374128Y485031D01*
X373982Y485149D01*
X373970Y485155D01*
X373960Y485163D01*
X373791Y485248D01*
X373625Y485334D01*
X373612Y485338D01*
X373600Y485344D01*
X373418Y485394D01*
X373238Y485446D01*
X373224Y485447D01*
X373211Y485450D01*
X373025Y485463D01*
X372836Y485478D01*
X372823Y485477D01*
X372810Y485478D01*
X372624Y485454D01*
X372437Y485431D01*
X372424Y485427D01*
X372411Y485426D01*
X372095Y485324D01*
X370422Y484631D01*
X366178Y484631D01*
X362257Y486255D01*
X359255Y489257D01*
X357631Y493178D01*
X357631Y512662D01*
X359255Y516583D01*
X362257Y519585D01*
X366178Y521209D01*
X370422Y521209D01*
X374343Y519585D01*
X377345Y516583D01*
X378969Y512662D01*
X378969Y498482D01*
X378970Y498473D01*
X378969Y498464D01*
X378990Y498271D01*
X379009Y498081D01*
X379011Y498073D01*
X379012Y498064D01*
X379071Y497879D01*
X379127Y497696D01*
X379131Y497688D01*
X379134Y497680D01*
X379227Y497511D01*
X379319Y497342D01*
X379324Y497335D01*
X379329Y497328D01*
X379453Y497181D01*
X379576Y497033D01*
X379583Y497027D01*
X379589Y497021D01*
X379741Y496901D01*
X379890Y496781D01*
X379898Y496777D01*
X379905Y496771D01*
X380078Y496683D01*
X380247Y496595D01*
X380256Y496593D01*
X380264Y496589D01*
X380450Y496537D01*
X380634Y496484D01*
X380643Y496483D01*
X380652Y496481D01*
X380845Y496467D01*
X381036Y496451D01*
X381044Y496452D01*
X381053Y496451D01*
X381246Y496476D01*
X381435Y496498D01*
X381444Y496501D01*
X381453Y496502D01*
X381635Y496563D01*
X381818Y496623D01*
X381826Y496627D01*
X381834Y496630D01*
X382001Y496726D01*
X382169Y496821D01*
X382175Y496826D01*
X382183Y496831D01*
X382436Y497045D01*
X382436Y497046D01*
X382453Y497066D01*
X382474Y497084D01*
X382581Y497222D01*
X382691Y497357D01*
X382704Y497381D01*
X382720Y497402D01*
X382798Y497559D01*
X382880Y497713D01*
X382888Y497738D01*
X382900Y497762D01*
X382945Y497932D01*
X382995Y498099D01*
X382997Y498125D01*
X383004Y498151D01*
X383031Y498482D01*
X383031Y512662D01*
X384655Y516583D01*
X387657Y519585D01*
X391578Y521209D01*
X395822Y521209D01*
X399743Y519585D01*
X402745Y516583D01*
X404369Y512662D01*
X404369Y493178D01*
X402745Y489257D01*
X399743Y486255D01*
X395822Y484631D01*
X391578Y484631D01*
X389905Y485324D01*
X389892Y485328D01*
X389881Y485334D01*
X389700Y485386D01*
X389520Y485441D01*
X389507Y485442D01*
X389494Y485445D01*
X389306Y485461D01*
X389119Y485479D01*
X389106Y485477D01*
X389092Y485478D01*
X388905Y485456D01*
X388719Y485437D01*
X388706Y485433D01*
X388693Y485431D01*
X388513Y485373D01*
X388334Y485317D01*
X388323Y485311D01*
X388310Y485307D01*
X388145Y485214D01*
X387981Y485124D01*
X387971Y485115D01*
X387959Y485109D01*
X387816Y484985D01*
X387673Y484865D01*
X387665Y484854D01*
X387654Y484846D01*
X387539Y484697D01*
X387422Y484550D01*
X387416Y484538D01*
X387408Y484527D01*
X387324Y484359D01*
X387238Y484192D01*
X387234Y484179D01*
X387228Y484167D01*
X387179Y483983D01*
X387128Y483804D01*
X387127Y483791D01*
X387124Y483778D01*
X387097Y483447D01*
X387097Y385524D01*
X387098Y385510D01*
X387097Y385497D01*
X387118Y385311D01*
X387137Y385123D01*
X387141Y385110D01*
X387142Y385097D01*
X387200Y384918D01*
X387255Y384738D01*
X387261Y384726D01*
X387265Y384714D01*
X387357Y384549D01*
X387447Y384384D01*
X387455Y384374D01*
X387462Y384362D01*
X387584Y384219D01*
X387704Y384075D01*
X387715Y384066D01*
X387723Y384056D01*
X387872Y383940D01*
X388018Y383822D01*
X388030Y383816D01*
X388040Y383808D01*
X388209Y383723D01*
X388375Y383637D01*
X388388Y383633D01*
X388400Y383627D01*
X388581Y383578D01*
X388762Y383526D01*
X388776Y383524D01*
X388789Y383521D01*
X388977Y383508D01*
X389164Y383493D01*
X389177Y383494D01*
X389190Y383493D01*
X389378Y383518D01*
X389563Y383540D01*
X389576Y383544D01*
X389589Y383545D01*
X389905Y383647D01*
X391793Y384429D01*
X395607Y384429D01*
X399132Y382969D01*
X401829Y380272D01*
X403289Y376747D01*
X403289Y359853D01*
X401829Y356328D01*
X399132Y353631D01*
X395607Y352171D01*
X391793Y352171D01*
X388268Y353631D01*
X385571Y356328D01*
X384111Y359853D01*
X384111Y370896D01*
X384109Y370923D01*
X384111Y370949D01*
X384089Y371123D01*
X384071Y371297D01*
X384064Y371322D01*
X384060Y371349D01*
X384005Y371515D01*
X383953Y371682D01*
X383940Y371705D01*
X383932Y371731D01*
X383845Y371882D01*
X383761Y372036D01*
X383744Y372056D01*
X383731Y372079D01*
X383516Y372332D01*
X382436Y373413D01*
X382422Y373424D01*
X382411Y373437D01*
X382267Y373551D01*
X382125Y373668D01*
X382109Y373676D01*
X382095Y373687D01*
X381931Y373770D01*
X381769Y373856D01*
X381752Y373861D01*
X381736Y373869D01*
X381559Y373919D01*
X381383Y373971D01*
X381365Y373973D01*
X381348Y373977D01*
X381165Y373991D01*
X380982Y374007D01*
X380964Y374005D01*
X380947Y374007D01*
X380765Y373984D01*
X380582Y373964D01*
X380565Y373959D01*
X380547Y373956D01*
X380374Y373898D01*
X380198Y373842D01*
X380182Y373834D01*
X380166Y373828D01*
X380007Y373737D01*
X379846Y373648D01*
X379832Y373636D01*
X379817Y373627D01*
X379564Y373412D01*
X378484Y372332D01*
X378467Y372312D01*
X378446Y372294D01*
X378340Y372156D01*
X378229Y372021D01*
X378216Y371997D01*
X378200Y371976D01*
X378122Y371820D01*
X378040Y371665D01*
X378032Y371640D01*
X378020Y371616D01*
X377975Y371447D01*
X377925Y371279D01*
X377923Y371253D01*
X377916Y371227D01*
X377889Y370896D01*
X377889Y359853D01*
X376429Y356328D01*
X373732Y353631D01*
X370207Y352171D01*
X366393Y352171D01*
G37*
%LPD*%
%LPC*%
G36*
X27654Y11854D02*
X27654Y11854D01*
X19184Y17388D01*
X12970Y25372D01*
X9685Y34941D01*
X9685Y45059D01*
X12970Y54628D01*
X19184Y62612D01*
X27654Y68146D01*
X37462Y70630D01*
X47545Y69794D01*
X56810Y65730D01*
X64254Y58878D01*
X69069Y49979D01*
X70735Y40000D01*
X69069Y30021D01*
X64254Y21122D01*
X56810Y14270D01*
X47545Y10206D01*
X37462Y9370D01*
X27654Y11854D01*
G37*
%LPD*%
%LPC*%
G36*
X797654Y11854D02*
X797654Y11854D01*
X789184Y17388D01*
X782970Y25372D01*
X779685Y34941D01*
X779685Y45059D01*
X782970Y54628D01*
X789184Y62612D01*
X797654Y68146D01*
X807462Y70630D01*
X817545Y69794D01*
X826810Y65730D01*
X834254Y58878D01*
X839069Y49979D01*
X840735Y40000D01*
X839069Y30021D01*
X834254Y21122D01*
X826810Y14270D01*
X817545Y10206D01*
X807462Y9370D01*
X797654Y11854D01*
G37*
%LPD*%
%LPC*%
G36*
X340778Y52831D02*
X340778Y52831D01*
X336857Y54455D01*
X333855Y57457D01*
X332231Y61378D01*
X332231Y80862D01*
X333178Y83147D01*
X333184Y83168D01*
X333194Y83188D01*
X333242Y83360D01*
X333294Y83532D01*
X333296Y83555D01*
X333302Y83576D01*
X333315Y83755D01*
X333332Y83933D01*
X333330Y83955D01*
X333332Y83978D01*
X333309Y84156D01*
X333291Y84334D01*
X333284Y84355D01*
X333281Y84377D01*
X333224Y84547D01*
X333171Y84718D01*
X333160Y84737D01*
X333153Y84759D01*
X333063Y84914D01*
X332978Y85071D01*
X332963Y85088D01*
X332952Y85108D01*
X332737Y85361D01*
X314332Y103766D01*
X312331Y105766D01*
X311403Y108007D01*
X311403Y201055D01*
X311401Y201081D01*
X311403Y201108D01*
X311381Y201282D01*
X311363Y201455D01*
X311356Y201481D01*
X311352Y201508D01*
X311297Y201673D01*
X311245Y201840D01*
X311232Y201864D01*
X311224Y201889D01*
X311137Y202041D01*
X311053Y202194D01*
X311036Y202215D01*
X311023Y202238D01*
X310808Y202491D01*
X309371Y203928D01*
X307911Y207453D01*
X307911Y224347D01*
X309371Y227872D01*
X312068Y230569D01*
X315593Y232029D01*
X319407Y232029D01*
X322932Y230569D01*
X325629Y227872D01*
X327089Y224347D01*
X327089Y207453D01*
X325629Y203928D01*
X324192Y202491D01*
X324175Y202470D01*
X324154Y202453D01*
X324047Y202315D01*
X323937Y202180D01*
X323924Y202156D01*
X323908Y202135D01*
X323830Y201978D01*
X323748Y201824D01*
X323740Y201798D01*
X323728Y201774D01*
X323683Y201605D01*
X323633Y201438D01*
X323631Y201411D01*
X323624Y201386D01*
X323597Y201055D01*
X323597Y112587D01*
X323599Y112560D01*
X323597Y112533D01*
X323619Y112360D01*
X323637Y112186D01*
X323644Y112161D01*
X323648Y112134D01*
X323703Y111968D01*
X323755Y111801D01*
X323768Y111778D01*
X323776Y111752D01*
X323863Y111601D01*
X323947Y111447D01*
X323964Y111427D01*
X323977Y111403D01*
X324192Y111150D01*
X346292Y89050D01*
X346316Y89030D01*
X346337Y89007D01*
X346472Y88903D01*
X346603Y88795D01*
X346631Y88780D01*
X346656Y88761D01*
X346951Y88610D01*
X348943Y87785D01*
X351945Y84783D01*
X353569Y80862D01*
X353569Y61378D01*
X351945Y57457D01*
X348943Y54455D01*
X345022Y52831D01*
X340778Y52831D01*
G37*
%LPD*%
%LPC*%
G36*
X34961Y481425D02*
X34961Y481425D01*
X25492Y484872D01*
X17773Y491349D01*
X12734Y500076D01*
X10984Y510000D01*
X12734Y519924D01*
X17773Y528651D01*
X25492Y535128D01*
X34961Y538575D01*
X45039Y538575D01*
X54508Y535128D01*
X62227Y528651D01*
X67266Y519924D01*
X69016Y510000D01*
X67266Y500076D01*
X62227Y491349D01*
X54508Y484872D01*
X45039Y481425D01*
X34961Y481425D01*
G37*
%LPD*%
%LPC*%
G36*
X137578Y52831D02*
X137578Y52831D01*
X133657Y54455D01*
X130655Y57457D01*
X129031Y61378D01*
X129031Y80862D01*
X130655Y84783D01*
X133657Y87785D01*
X134635Y88190D01*
X134655Y88200D01*
X134676Y88207D01*
X134832Y88295D01*
X134990Y88380D01*
X135007Y88394D01*
X135027Y88405D01*
X135162Y88522D01*
X135301Y88636D01*
X135315Y88654D01*
X135332Y88668D01*
X135441Y88810D01*
X135554Y88949D01*
X135565Y88969D01*
X135578Y88986D01*
X135658Y89147D01*
X135741Y89306D01*
X135748Y89327D01*
X135758Y89347D01*
X135804Y89520D01*
X135854Y89692D01*
X135856Y89714D01*
X135862Y89736D01*
X135889Y90067D01*
X135889Y199202D01*
X135887Y199225D01*
X135889Y199247D01*
X135867Y199424D01*
X135849Y199603D01*
X135843Y199624D01*
X135840Y199647D01*
X135784Y199816D01*
X135731Y199988D01*
X135721Y200008D01*
X135714Y200029D01*
X135625Y200184D01*
X135539Y200342D01*
X135525Y200359D01*
X135514Y200379D01*
X135396Y200514D01*
X135282Y200651D01*
X135264Y200665D01*
X135250Y200682D01*
X135107Y200792D01*
X134968Y200904D01*
X134948Y200914D01*
X134930Y200928D01*
X134635Y201079D01*
X134268Y201231D01*
X131571Y203928D01*
X130111Y207453D01*
X130111Y224347D01*
X131571Y227872D01*
X134268Y230569D01*
X137793Y232029D01*
X141607Y232029D01*
X145132Y230569D01*
X147829Y227872D01*
X149289Y224347D01*
X149289Y207453D01*
X147829Y203928D01*
X145132Y201231D01*
X144765Y201079D01*
X144745Y201069D01*
X144724Y201062D01*
X144568Y200973D01*
X144410Y200889D01*
X144393Y200875D01*
X144373Y200864D01*
X144237Y200747D01*
X144099Y200632D01*
X144085Y200615D01*
X144068Y200601D01*
X143959Y200460D01*
X143846Y200320D01*
X143835Y200300D01*
X143822Y200282D01*
X143742Y200122D01*
X143659Y199963D01*
X143652Y199942D01*
X143642Y199922D01*
X143596Y199749D01*
X143546Y199577D01*
X143544Y199555D01*
X143538Y199533D01*
X143511Y199202D01*
X143511Y90067D01*
X143513Y90044D01*
X143511Y90022D01*
X143533Y89845D01*
X143551Y89666D01*
X143557Y89645D01*
X143560Y89622D01*
X143616Y89453D01*
X143669Y89281D01*
X143679Y89261D01*
X143686Y89240D01*
X143775Y89085D01*
X143861Y88927D01*
X143875Y88910D01*
X143886Y88890D01*
X144003Y88755D01*
X144118Y88618D01*
X144136Y88604D01*
X144150Y88587D01*
X144292Y88478D01*
X144432Y88365D01*
X144452Y88355D01*
X144470Y88341D01*
X144765Y88190D01*
X145743Y87785D01*
X148745Y84783D01*
X150369Y80862D01*
X150369Y61378D01*
X148745Y57457D01*
X145743Y54455D01*
X141822Y52831D01*
X137578Y52831D01*
G37*
%LPD*%
%LPC*%
G36*
X162978Y52831D02*
X162978Y52831D01*
X159057Y54455D01*
X156055Y57457D01*
X154431Y61378D01*
X154431Y80862D01*
X156055Y84783D01*
X159057Y87785D01*
X160035Y88190D01*
X160055Y88200D01*
X160076Y88207D01*
X160232Y88295D01*
X160390Y88380D01*
X160407Y88394D01*
X160427Y88405D01*
X160562Y88522D01*
X160701Y88636D01*
X160715Y88654D01*
X160732Y88668D01*
X160841Y88810D01*
X160954Y88949D01*
X160965Y88969D01*
X160978Y88986D01*
X161058Y89147D01*
X161141Y89306D01*
X161148Y89327D01*
X161158Y89347D01*
X161204Y89520D01*
X161254Y89692D01*
X161256Y89714D01*
X161262Y89736D01*
X161289Y90067D01*
X161289Y199202D01*
X161287Y199225D01*
X161289Y199247D01*
X161267Y199424D01*
X161249Y199603D01*
X161243Y199624D01*
X161240Y199647D01*
X161184Y199816D01*
X161131Y199988D01*
X161121Y200008D01*
X161114Y200029D01*
X161025Y200184D01*
X160939Y200342D01*
X160925Y200359D01*
X160914Y200379D01*
X160796Y200514D01*
X160682Y200651D01*
X160664Y200665D01*
X160650Y200682D01*
X160507Y200792D01*
X160368Y200904D01*
X160348Y200914D01*
X160330Y200928D01*
X160035Y201079D01*
X159668Y201231D01*
X156971Y203928D01*
X155511Y207453D01*
X155511Y224347D01*
X156971Y227872D01*
X159668Y230569D01*
X163193Y232029D01*
X167007Y232029D01*
X170532Y230569D01*
X173229Y227872D01*
X174689Y224347D01*
X174689Y207453D01*
X173229Y203928D01*
X170532Y201231D01*
X170165Y201079D01*
X170145Y201069D01*
X170124Y201062D01*
X169968Y200973D01*
X169810Y200889D01*
X169793Y200875D01*
X169773Y200864D01*
X169637Y200747D01*
X169499Y200632D01*
X169485Y200615D01*
X169468Y200601D01*
X169359Y200460D01*
X169246Y200320D01*
X169235Y200300D01*
X169222Y200282D01*
X169142Y200122D01*
X169059Y199963D01*
X169052Y199942D01*
X169042Y199922D01*
X168996Y199749D01*
X168946Y199577D01*
X168944Y199555D01*
X168938Y199533D01*
X168911Y199202D01*
X168911Y90067D01*
X168913Y90044D01*
X168911Y90022D01*
X168933Y89845D01*
X168951Y89666D01*
X168957Y89645D01*
X168960Y89622D01*
X169016Y89453D01*
X169069Y89281D01*
X169079Y89261D01*
X169086Y89240D01*
X169175Y89085D01*
X169261Y88927D01*
X169275Y88910D01*
X169286Y88890D01*
X169403Y88755D01*
X169518Y88618D01*
X169536Y88604D01*
X169550Y88587D01*
X169692Y88478D01*
X169832Y88365D01*
X169852Y88355D01*
X169870Y88341D01*
X170165Y88190D01*
X171143Y87785D01*
X174145Y84783D01*
X175769Y80862D01*
X175769Y61378D01*
X174145Y57457D01*
X171143Y54455D01*
X167222Y52831D01*
X162978Y52831D01*
G37*
%LPD*%
%LPC*%
G36*
X264793Y199771D02*
X264793Y199771D01*
X261268Y201231D01*
X258571Y203928D01*
X257111Y207453D01*
X257111Y224347D01*
X258571Y227872D01*
X261268Y230569D01*
X264793Y232029D01*
X268607Y232029D01*
X272132Y230569D01*
X274829Y227872D01*
X276289Y224347D01*
X276289Y207453D01*
X274829Y203928D01*
X272132Y201231D01*
X268607Y199771D01*
X264793Y199771D01*
G37*
%LPD*%
%LPC*%
G36*
X86993Y199771D02*
X86993Y199771D01*
X83468Y201231D01*
X80771Y203928D01*
X79311Y207453D01*
X79311Y224347D01*
X80771Y227872D01*
X83468Y230569D01*
X86993Y232029D01*
X90807Y232029D01*
X94332Y230569D01*
X97029Y227872D01*
X98489Y224347D01*
X98489Y207453D01*
X97029Y203928D01*
X94332Y201231D01*
X90807Y199771D01*
X86993Y199771D01*
G37*
%LPD*%
%LPC*%
G36*
X61593Y199771D02*
X61593Y199771D01*
X58068Y201231D01*
X55371Y203928D01*
X53911Y207453D01*
X53911Y224347D01*
X55371Y227872D01*
X58068Y230569D01*
X61593Y232029D01*
X65407Y232029D01*
X68932Y230569D01*
X71629Y227872D01*
X73089Y224347D01*
X73089Y207453D01*
X71629Y203928D01*
X68932Y201231D01*
X65407Y199771D01*
X61593Y199771D01*
G37*
%LPD*%
%LPC*%
G36*
X36193Y199771D02*
X36193Y199771D01*
X32668Y201231D01*
X29971Y203928D01*
X28511Y207453D01*
X28511Y224347D01*
X29971Y227872D01*
X32668Y230569D01*
X36193Y232029D01*
X40007Y232029D01*
X43532Y230569D01*
X46229Y227872D01*
X47689Y224347D01*
X47689Y207453D01*
X46229Y203928D01*
X43532Y201231D01*
X40007Y199771D01*
X36193Y199771D01*
G37*
%LPD*%
%LPC*%
G36*
X340993Y352171D02*
X340993Y352171D01*
X337468Y353631D01*
X334771Y356328D01*
X333311Y359853D01*
X333311Y376747D01*
X334771Y380272D01*
X337468Y382969D01*
X340993Y384429D01*
X344807Y384429D01*
X348332Y382969D01*
X351029Y380272D01*
X352489Y376747D01*
X352489Y359853D01*
X351029Y356328D01*
X348332Y353631D01*
X344807Y352171D01*
X340993Y352171D01*
G37*
%LPD*%
%LPC*%
G36*
X315593Y352171D02*
X315593Y352171D01*
X312068Y353631D01*
X309371Y356328D01*
X307911Y359853D01*
X307911Y376747D01*
X309371Y380272D01*
X312068Y382969D01*
X315593Y384429D01*
X319407Y384429D01*
X322932Y382969D01*
X325629Y380272D01*
X327089Y376747D01*
X327089Y359853D01*
X325629Y356328D01*
X322932Y353631D01*
X319407Y352171D01*
X315593Y352171D01*
G37*
%LPD*%
%LPC*%
G36*
X188593Y352171D02*
X188593Y352171D01*
X185068Y353631D01*
X182371Y356328D01*
X180911Y359853D01*
X180911Y376747D01*
X182371Y380272D01*
X185068Y382969D01*
X188593Y384429D01*
X192407Y384429D01*
X195932Y382969D01*
X198629Y380272D01*
X200089Y376747D01*
X200089Y359853D01*
X198629Y356328D01*
X195932Y353631D01*
X192407Y352171D01*
X188593Y352171D01*
G37*
%LPD*%
%LPC*%
G36*
X163193Y352171D02*
X163193Y352171D01*
X159668Y353631D01*
X156971Y356328D01*
X155511Y359853D01*
X155511Y376747D01*
X156971Y380272D01*
X159668Y382969D01*
X163193Y384429D01*
X167007Y384429D01*
X170532Y382969D01*
X173229Y380272D01*
X174689Y376747D01*
X174689Y359853D01*
X173229Y356328D01*
X170532Y353631D01*
X167007Y352171D01*
X163193Y352171D01*
G37*
%LPD*%
%LPC*%
G36*
X137793Y352171D02*
X137793Y352171D01*
X134268Y353631D01*
X131571Y356328D01*
X130111Y359853D01*
X130111Y376747D01*
X131571Y380272D01*
X134268Y382969D01*
X137793Y384429D01*
X141607Y384429D01*
X145132Y382969D01*
X147829Y380272D01*
X149289Y376747D01*
X149289Y359853D01*
X147829Y356328D01*
X145132Y353631D01*
X141607Y352171D01*
X137793Y352171D01*
G37*
%LPD*%
%LPC*%
G36*
X112393Y352171D02*
X112393Y352171D01*
X108868Y353631D01*
X106171Y356328D01*
X104711Y359853D01*
X104711Y376747D01*
X106171Y380272D01*
X108868Y382969D01*
X112393Y384429D01*
X116207Y384429D01*
X119732Y382969D01*
X122429Y380272D01*
X123889Y376747D01*
X123889Y359853D01*
X122429Y356328D01*
X119732Y353631D01*
X116207Y352171D01*
X112393Y352171D01*
G37*
%LPD*%
%LPC*%
G36*
X340993Y199771D02*
X340993Y199771D01*
X337468Y201231D01*
X334771Y203928D01*
X333311Y207453D01*
X333311Y224347D01*
X334771Y227872D01*
X337468Y230569D01*
X340993Y232029D01*
X344807Y232029D01*
X348332Y230569D01*
X351029Y227872D01*
X352489Y224347D01*
X352489Y207453D01*
X351029Y203928D01*
X348332Y201231D01*
X344807Y199771D01*
X340993Y199771D01*
G37*
%LPD*%
%LPC*%
G36*
X290193Y199771D02*
X290193Y199771D01*
X286668Y201231D01*
X283971Y203928D01*
X282511Y207453D01*
X282511Y224347D01*
X283971Y227872D01*
X286668Y230569D01*
X290193Y232029D01*
X294007Y232029D01*
X297532Y230569D01*
X300229Y227872D01*
X301689Y224347D01*
X301689Y207453D01*
X300229Y203928D01*
X297532Y201231D01*
X294007Y199771D01*
X290193Y199771D01*
G37*
%LPD*%
%LPC*%
G36*
X49993Y167341D02*
X49993Y167341D01*
X49993Y177293D01*
X57896Y177293D01*
X59870Y176980D01*
X61771Y176362D01*
X63553Y175455D01*
X65170Y174280D01*
X66584Y172866D01*
X67759Y171249D01*
X68666Y169467D01*
X69284Y167566D01*
X69320Y167341D01*
X49993Y167341D01*
G37*
%LPD*%
%LPC*%
G36*
X25168Y167341D02*
X25168Y167341D01*
X25204Y167566D01*
X25822Y169467D01*
X26729Y171249D01*
X27904Y172866D01*
X29318Y174280D01*
X30935Y175455D01*
X32717Y176362D01*
X34618Y176980D01*
X36592Y177293D01*
X44495Y177293D01*
X44495Y167341D01*
X25168Y167341D01*
G37*
%LPD*%
%LPC*%
G36*
X49993Y151891D02*
X49993Y151891D01*
X49993Y161843D01*
X69320Y161843D01*
X69284Y161618D01*
X68666Y159717D01*
X67759Y157935D01*
X66584Y156318D01*
X65170Y154904D01*
X63553Y153729D01*
X61771Y152822D01*
X59870Y152204D01*
X57896Y151891D01*
X49993Y151891D01*
G37*
%LPD*%
%LPC*%
G36*
X36592Y151891D02*
X36592Y151891D01*
X34618Y152204D01*
X32717Y152822D01*
X30935Y153729D01*
X29318Y154904D01*
X27904Y156318D01*
X26729Y157935D01*
X25822Y159717D01*
X25204Y161618D01*
X25168Y161843D01*
X44495Y161843D01*
X44495Y151891D01*
X36592Y151891D01*
G37*
%LPD*%
%LPC*%
G36*
X734313Y455929D02*
X734313Y455929D01*
X734313Y464567D01*
X740802Y464567D01*
X742579Y464285D01*
X744290Y463729D01*
X745893Y462912D01*
X747349Y461855D01*
X748621Y460583D01*
X749678Y459127D01*
X750495Y457524D01*
X751013Y455929D01*
X734313Y455929D01*
G37*
%LPD*%
%LPC*%
G36*
X734313Y151129D02*
X734313Y151129D01*
X734313Y159767D01*
X740802Y159767D01*
X742579Y159485D01*
X744290Y158929D01*
X745893Y158112D01*
X747349Y157055D01*
X748621Y155783D01*
X749678Y154327D01*
X750495Y152724D01*
X751013Y151129D01*
X734313Y151129D01*
G37*
%LPD*%
%LPC*%
G36*
X734313Y354329D02*
X734313Y354329D01*
X734313Y362967D01*
X740802Y362967D01*
X742579Y362685D01*
X744290Y362129D01*
X745893Y361312D01*
X747349Y360255D01*
X748621Y358983D01*
X749678Y357527D01*
X750495Y355924D01*
X751013Y354329D01*
X734313Y354329D01*
G37*
%LPD*%
%LPC*%
G36*
X734313Y252729D02*
X734313Y252729D01*
X734313Y261367D01*
X740802Y261367D01*
X742579Y261085D01*
X744290Y260529D01*
X745893Y259712D01*
X747349Y258655D01*
X748621Y257383D01*
X749678Y255927D01*
X750495Y254324D01*
X751013Y252729D01*
X734313Y252729D01*
G37*
%LPD*%
%LPC*%
G36*
X712027Y455929D02*
X712027Y455929D01*
X712545Y457524D01*
X713362Y459127D01*
X714419Y460583D01*
X715691Y461855D01*
X717147Y462912D01*
X718750Y463729D01*
X720461Y464285D01*
X722238Y464567D01*
X728727Y464567D01*
X728727Y455929D01*
X712027Y455929D01*
G37*
%LPD*%
%LPC*%
G36*
X712027Y354329D02*
X712027Y354329D01*
X712545Y355924D01*
X713362Y357527D01*
X714419Y358983D01*
X715691Y360255D01*
X717147Y361312D01*
X718750Y362129D01*
X720461Y362685D01*
X722238Y362967D01*
X728727Y362967D01*
X728727Y354329D01*
X712027Y354329D01*
G37*
%LPD*%
%LPC*%
G36*
X712027Y252729D02*
X712027Y252729D01*
X712545Y254324D01*
X713362Y255927D01*
X714419Y257383D01*
X715691Y258655D01*
X717147Y259712D01*
X718750Y260529D01*
X720461Y261085D01*
X722238Y261367D01*
X728727Y261367D01*
X728727Y252729D01*
X712027Y252729D01*
G37*
%LPD*%
%LPC*%
G36*
X345439Y505459D02*
X345439Y505459D01*
X345439Y520933D01*
X346995Y520427D01*
X348492Y519665D01*
X349850Y518678D01*
X351038Y517490D01*
X352025Y516132D01*
X352787Y514635D01*
X353306Y513038D01*
X353569Y511380D01*
X353569Y505459D01*
X345439Y505459D01*
G37*
%LPD*%
%LPC*%
G36*
X320039Y73659D02*
X320039Y73659D01*
X320039Y89133D01*
X321595Y88627D01*
X323092Y87865D01*
X324450Y86878D01*
X325638Y85690D01*
X326625Y84332D01*
X327387Y82835D01*
X327906Y81238D01*
X328169Y79580D01*
X328169Y73659D01*
X320039Y73659D01*
G37*
%LPD*%
%LPC*%
G36*
X345439Y500381D02*
X345439Y500381D01*
X353569Y500381D01*
X353569Y494460D01*
X353306Y492802D01*
X352787Y491205D01*
X352025Y489708D01*
X351038Y488350D01*
X349850Y487162D01*
X348492Y486175D01*
X346995Y485413D01*
X345439Y484907D01*
X345439Y500381D01*
G37*
%LPD*%
%LPC*%
G36*
X320039Y68581D02*
X320039Y68581D01*
X328169Y68581D01*
X328169Y62660D01*
X327906Y61002D01*
X327387Y59405D01*
X326625Y57908D01*
X325638Y56550D01*
X324450Y55362D01*
X323092Y54375D01*
X321595Y53613D01*
X320039Y53107D01*
X320039Y68581D01*
G37*
%LPD*%
%LPC*%
G36*
X332231Y505459D02*
X332231Y505459D01*
X332231Y511380D01*
X332494Y513038D01*
X333013Y514635D01*
X333775Y516132D01*
X334762Y517490D01*
X335950Y518678D01*
X337308Y519665D01*
X338805Y520427D01*
X340361Y520933D01*
X340361Y505459D01*
X332231Y505459D01*
G37*
%LPD*%
%LPC*%
G36*
X306831Y73659D02*
X306831Y73659D01*
X306831Y79580D01*
X307094Y81238D01*
X307613Y82835D01*
X308375Y84332D01*
X309362Y85690D01*
X310550Y86878D01*
X311908Y87865D01*
X313405Y88627D01*
X314961Y89133D01*
X314961Y73659D01*
X306831Y73659D01*
G37*
%LPD*%
%LPC*%
G36*
X313405Y53613D02*
X313405Y53613D01*
X311908Y54375D01*
X310550Y55362D01*
X309362Y56550D01*
X308375Y57908D01*
X307613Y59405D01*
X307094Y61002D01*
X306831Y62660D01*
X306831Y66619D01*
X306831Y68581D01*
X314961Y68581D01*
X314961Y53107D01*
X313405Y53613D01*
G37*
%LPD*%
%LPC*%
G36*
X338805Y485413D02*
X338805Y485413D01*
X337308Y486175D01*
X335950Y487162D01*
X334762Y488350D01*
X333775Y489708D01*
X333013Y491205D01*
X332494Y492802D01*
X332231Y494460D01*
X332231Y500381D01*
X340361Y500381D01*
X340361Y484907D01*
X338805Y485413D01*
G37*
%LPD*%
%LPC*%
G36*
X84805Y53613D02*
X84805Y53613D01*
X83308Y54375D01*
X81950Y55362D01*
X80762Y56550D01*
X79775Y57908D01*
X79013Y59405D01*
X78494Y61002D01*
X78231Y62660D01*
X78231Y68581D01*
X86361Y68581D01*
X86361Y53107D01*
X84805Y53613D01*
G37*
%LPD*%
%LPC*%
G36*
X370331Y217931D02*
X370331Y217931D01*
X370331Y231827D01*
X370545Y231793D01*
X371981Y231326D01*
X373326Y230641D01*
X374547Y229754D01*
X375614Y228687D01*
X376501Y227466D01*
X377186Y226121D01*
X377653Y224685D01*
X377889Y223195D01*
X377889Y217931D01*
X370331Y217931D01*
G37*
%LPD*%
%LPC*%
G36*
X370331Y213869D02*
X370331Y213869D01*
X377889Y213869D01*
X377889Y208605D01*
X377653Y207115D01*
X377186Y205679D01*
X376501Y204334D01*
X375614Y203113D01*
X374547Y202046D01*
X373326Y201159D01*
X371981Y200474D01*
X370545Y200007D01*
X370331Y199973D01*
X370331Y213869D01*
G37*
%LPD*%
%LPC*%
G36*
X358711Y217931D02*
X358711Y217931D01*
X358711Y223195D01*
X358947Y224685D01*
X359414Y226121D01*
X360099Y227466D01*
X360986Y228687D01*
X362053Y229754D01*
X363274Y230641D01*
X364619Y231326D01*
X366055Y231793D01*
X366269Y231827D01*
X366269Y217931D01*
X358711Y217931D01*
G37*
%LPD*%
%LPC*%
G36*
X366055Y200007D02*
X366055Y200007D01*
X364619Y200474D01*
X363274Y201159D01*
X362053Y202046D01*
X360986Y203113D01*
X360099Y204334D01*
X359414Y205679D01*
X358947Y207115D01*
X358711Y208605D01*
X358711Y213869D01*
X366269Y213869D01*
X366269Y199973D01*
X366055Y200007D01*
G37*
%LPD*%
%LPC*%
G36*
X357250Y167131D02*
X357250Y167131D01*
X357250Y169677D01*
X363723Y176150D01*
X366269Y176150D01*
X366269Y167131D01*
X357250Y167131D01*
G37*
%LPD*%
%LPC*%
G36*
X363723Y154050D02*
X363723Y154050D01*
X357250Y160523D01*
X357250Y163069D01*
X366269Y163069D01*
X366269Y154050D01*
X363723Y154050D01*
G37*
%LPD*%
%LPC*%
G36*
X243331Y446531D02*
X243331Y446531D01*
X243331Y454153D01*
X245298Y454153D01*
X250953Y448498D01*
X250953Y446531D01*
X243331Y446531D01*
G37*
%LPD*%
%LPC*%
G36*
X268731Y446531D02*
X268731Y446531D01*
X268731Y454153D01*
X270698Y454153D01*
X276353Y448498D01*
X276353Y446531D01*
X268731Y446531D01*
G37*
%LPD*%
%LPC*%
G36*
X294131Y446531D02*
X294131Y446531D01*
X294131Y454153D01*
X296098Y454153D01*
X301753Y448498D01*
X301753Y446531D01*
X294131Y446531D01*
G37*
%LPD*%
%LPC*%
G36*
X217931Y446531D02*
X217931Y446531D01*
X217931Y454153D01*
X219898Y454153D01*
X225553Y448498D01*
X225553Y446531D01*
X217931Y446531D01*
G37*
%LPD*%
%LPC*%
G36*
X217931Y434847D02*
X217931Y434847D01*
X217931Y442469D01*
X225553Y442469D01*
X225553Y440502D01*
X219898Y434847D01*
X217931Y434847D01*
G37*
%LPD*%
%LPC*%
G36*
X243331Y434847D02*
X243331Y434847D01*
X243331Y442469D01*
X250953Y442469D01*
X250953Y440502D01*
X245298Y434847D01*
X243331Y434847D01*
G37*
%LPD*%
%LPC*%
G36*
X294131Y434847D02*
X294131Y434847D01*
X294131Y442469D01*
X301753Y442469D01*
X301753Y440502D01*
X296098Y434847D01*
X294131Y434847D01*
G37*
%LPD*%
%LPC*%
G36*
X257047Y446531D02*
X257047Y446531D01*
X257047Y448498D01*
X262702Y454153D01*
X264669Y454153D01*
X264669Y446531D01*
X257047Y446531D01*
G37*
%LPD*%
%LPC*%
G36*
X282447Y446531D02*
X282447Y446531D01*
X282447Y448498D01*
X288102Y454153D01*
X290069Y454153D01*
X290069Y446531D01*
X282447Y446531D01*
G37*
%LPD*%
%LPC*%
G36*
X206247Y446531D02*
X206247Y446531D01*
X206247Y448498D01*
X211902Y454153D01*
X213869Y454153D01*
X213869Y446531D01*
X206247Y446531D01*
G37*
%LPD*%
%LPC*%
G36*
X268731Y434847D02*
X268731Y434847D01*
X268731Y442469D01*
X276353Y442469D01*
X276353Y440502D01*
X270698Y434847D01*
X268731Y434847D01*
G37*
%LPD*%
%LPC*%
G36*
X231647Y446531D02*
X231647Y446531D01*
X231647Y448498D01*
X237302Y454153D01*
X239269Y454153D01*
X239269Y446531D01*
X231647Y446531D01*
G37*
%LPD*%
%LPC*%
G36*
X237302Y434847D02*
X237302Y434847D01*
X231647Y440502D01*
X231647Y442469D01*
X239269Y442469D01*
X239269Y434847D01*
X237302Y434847D01*
G37*
%LPD*%
%LPC*%
G36*
X288102Y434847D02*
X288102Y434847D01*
X282447Y440502D01*
X282447Y442469D01*
X290069Y442469D01*
X290069Y434847D01*
X288102Y434847D01*
G37*
%LPD*%
%LPC*%
G36*
X211902Y434847D02*
X211902Y434847D01*
X206247Y440502D01*
X206247Y442469D01*
X213869Y442469D01*
X213869Y434847D01*
X211902Y434847D01*
G37*
%LPD*%
%LPC*%
G36*
X262702Y434847D02*
X262702Y434847D01*
X257047Y440502D01*
X257047Y442469D01*
X264669Y442469D01*
X264669Y434847D01*
X262702Y434847D01*
G37*
%LPD*%
D10*
X368300Y165100D03*
D11*
X393700Y165100D03*
D12*
X723138Y402336D02*
X739902Y402336D01*
X739902Y427736D02*
X723138Y427736D01*
X723138Y453136D02*
X739902Y453136D01*
X739902Y199136D02*
X723138Y199136D01*
X723138Y224536D02*
X739902Y224536D01*
X739902Y249936D02*
X723138Y249936D01*
X723138Y300736D02*
X739902Y300736D01*
X739902Y326136D02*
X723138Y326136D01*
X723138Y351536D02*
X739902Y351536D01*
X739902Y97536D02*
X723138Y97536D01*
X723138Y122936D02*
X739902Y122936D01*
X739902Y148336D02*
X723138Y148336D01*
D13*
X292100Y444500D03*
X292100Y393700D03*
X266700Y444500D03*
X266700Y393700D03*
X215900Y444500D03*
X215900Y393700D03*
X241300Y444500D03*
X241300Y393700D03*
D14*
X342900Y78740D02*
X342900Y63500D01*
X317500Y63500D02*
X317500Y78740D01*
X292100Y78740D02*
X292100Y63500D01*
X266700Y63500D02*
X266700Y78740D01*
X241300Y78740D02*
X241300Y63500D01*
X190500Y63500D02*
X190500Y78740D01*
X165100Y78740D02*
X165100Y63500D01*
X139700Y63500D02*
X139700Y78740D01*
X114300Y78740D02*
X114300Y63500D01*
X88900Y63500D02*
X88900Y78740D01*
D15*
X785368Y402336D02*
X804672Y402336D01*
X804672Y453136D02*
X785368Y453136D01*
X785368Y199136D02*
X804672Y199136D01*
X804672Y249936D02*
X785368Y249936D01*
X785368Y300736D02*
X804672Y300736D01*
X804672Y351536D02*
X785368Y351536D01*
X785368Y97536D02*
X804672Y97536D01*
X804672Y148336D02*
X785368Y148336D01*
X56896Y113792D02*
X37592Y113792D01*
X37592Y164592D02*
X56896Y164592D01*
D16*
X393700Y361760D02*
X393700Y374840D01*
X368300Y374840D02*
X368300Y361760D01*
X342900Y361760D02*
X342900Y374840D01*
X317500Y374840D02*
X317500Y361760D01*
X292100Y361760D02*
X292100Y374840D01*
X266700Y374840D02*
X266700Y361760D01*
X241300Y361760D02*
X241300Y374840D01*
X215900Y374840D02*
X215900Y361760D01*
X190500Y361760D02*
X190500Y374840D01*
X165100Y374840D02*
X165100Y361760D01*
X139700Y361760D02*
X139700Y374840D01*
X114300Y374840D02*
X114300Y361760D01*
X393700Y222440D02*
X393700Y209360D01*
X368300Y209360D02*
X368300Y222440D01*
X342900Y222440D02*
X342900Y209360D01*
X190500Y209360D02*
X190500Y222440D01*
X165100Y222440D02*
X165100Y209360D01*
X139700Y209360D02*
X139700Y222440D01*
X114300Y222440D02*
X114300Y209360D01*
X38100Y209360D02*
X38100Y222440D01*
X38100Y361760D02*
X38100Y374840D01*
X63500Y374840D02*
X63500Y361760D01*
X88900Y361760D02*
X88900Y374840D01*
X63500Y222440D02*
X63500Y209360D01*
X88900Y209360D02*
X88900Y222440D01*
X317500Y222440D02*
X317500Y209360D01*
X215900Y209360D02*
X215900Y222440D01*
X241300Y222440D02*
X241300Y209360D01*
X266700Y209360D02*
X266700Y222440D01*
X292100Y222440D02*
X292100Y209360D01*
D14*
X419100Y495300D02*
X419100Y510540D01*
X393700Y510540D02*
X393700Y495300D01*
X368300Y495300D02*
X368300Y510540D01*
X342900Y510540D02*
X342900Y495300D01*
D17*
X731520Y427736D02*
X769620Y427736D01*
X795020Y453136D01*
X743712Y326136D02*
X731520Y326136D01*
X769112Y351536D02*
X795020Y351536D01*
X769112Y351536D02*
X743712Y326136D01*
X731520Y122936D02*
X769620Y122936D01*
X795020Y148336D01*
X769620Y224536D02*
X731520Y224536D01*
X769620Y224536D02*
X795020Y249936D01*
D18*
X342900Y83820D02*
X342900Y71120D01*
X342900Y83820D02*
X317500Y109220D01*
X317500Y215900D01*
D17*
X266700Y71120D02*
X266700Y55880D01*
X262636Y51816D01*
X224028Y186595D02*
X205550Y205073D01*
X224028Y186595D02*
X224028Y93610D01*
X229870Y87768D02*
X229870Y58766D01*
X236820Y51816D01*
X229870Y87768D02*
X224028Y93610D01*
X236820Y51816D02*
X262636Y51816D01*
X66664Y368300D02*
X63500Y368300D01*
X66664Y368300D02*
X205550Y229414D01*
X205550Y205073D01*
X114554Y215646D02*
X114300Y215900D01*
X114554Y215646D02*
X114554Y71374D01*
X114300Y71120D01*
X139700Y71120D02*
X139700Y215900D01*
X165100Y215900D02*
X165100Y71120D01*
X214376Y182880D02*
X190500Y206756D01*
X190500Y215900D01*
X214376Y182880D02*
X214376Y94996D01*
X190500Y71120D01*
X55118Y351282D02*
X38100Y368300D01*
X55118Y351282D02*
X77216Y351282D01*
X292100Y71120D02*
X268224Y47244D01*
X234926Y47244D01*
X219456Y91716D02*
X219456Y184701D01*
X200978Y203179D01*
X225298Y56872D02*
X234926Y47244D01*
X225298Y56872D02*
X225298Y85874D01*
X219456Y91716D01*
X200978Y227520D02*
X77216Y351282D01*
X200978Y227520D02*
X200978Y203179D01*
X88900Y352806D02*
X88900Y368300D01*
X88900Y352806D02*
X208788Y232918D01*
X241300Y82804D02*
X241300Y71120D01*
X241300Y82804D02*
X228600Y95504D01*
X220472Y232918D02*
X208788Y232918D01*
X220472Y232918D02*
X228600Y224790D01*
X228600Y95504D01*
D19*
X71809Y113792D02*
X47244Y113792D01*
X71809Y113792D02*
X101600Y84001D01*
X101600Y58239D01*
X118437Y41402D01*
X378206Y41402D01*
X393700Y56896D01*
X395986Y162814D02*
X393700Y165100D01*
X393700Y215900D01*
X393700Y56896D02*
X395224Y56896D01*
X754380Y56896D01*
X795020Y97536D01*
X837692Y122422D02*
X837692Y175774D01*
X837692Y122422D02*
X812806Y97536D01*
X795020Y97536D01*
X795020Y199136D02*
X814330Y199136D01*
X837692Y175774D01*
X837692Y223260D02*
X837692Y274066D01*
X837692Y223260D02*
X813568Y199136D01*
X795020Y199136D01*
X795020Y300736D02*
X811022Y300736D01*
X837692Y274066D01*
X814330Y300736D02*
X837692Y324098D01*
X814330Y300736D02*
X795020Y300736D01*
X837692Y324098D02*
X837692Y376428D01*
X811784Y402336D01*
X795020Y402336D01*
X837692Y428746D02*
X837692Y452380D01*
X813822Y476250D01*
X768858Y476250D01*
X742188Y502920D01*
X419100Y502920D01*
X795020Y402336D02*
X811282Y402336D01*
X837692Y428746D01*
X395224Y56896D02*
X393700Y58420D01*
X393700Y165100D01*
D17*
X266700Y368300D02*
X266700Y393700D01*
X268478Y368300D02*
X359410Y277368D01*
X268478Y368300D02*
X266700Y368300D01*
X359410Y277368D02*
X657860Y277368D01*
X681228Y300736D02*
X731520Y300736D01*
X681228Y300736D02*
X657860Y277368D01*
X241300Y368300D02*
X241300Y393700D01*
X278638Y351282D02*
X357124Y272796D01*
X278638Y351282D02*
X255270Y351282D01*
X241300Y365252D01*
X241300Y368300D01*
X731266Y199136D02*
X731520Y199136D01*
X657606Y272796D02*
X357124Y272796D01*
X657606Y272796D02*
X731266Y199136D01*
X215900Y368300D02*
X215900Y393700D01*
X276098Y346710D02*
X354584Y268224D01*
X215900Y364236D02*
X215900Y368300D01*
X711145Y212399D02*
X709278Y119524D01*
X731266Y97536D02*
X731520Y97536D01*
X731266Y97536D02*
X709278Y119524D01*
X655320Y268224D02*
X354584Y268224D01*
X655320Y268224D02*
X711145Y212399D01*
X232918Y351282D02*
X215900Y368300D01*
X232918Y351282D02*
X248804Y351282D01*
X253376Y346710D02*
X276098Y346710D01*
X253376Y346710D02*
X248804Y351282D01*
X292100Y368300D02*
X292100Y393700D01*
X736854Y402336D02*
X762762Y376428D01*
X736854Y402336D02*
X731520Y402336D01*
X361950Y281940D02*
X292100Y351790D01*
X292100Y368300D01*
X750286Y339344D02*
X762762Y351820D01*
X762762Y376428D01*
X679334Y305308D02*
X655966Y281940D01*
X679334Y305308D02*
X696976Y305308D01*
X710946Y319278D02*
X710946Y331186D01*
X719104Y339344D01*
X750286Y339344D01*
X655966Y281940D02*
X361950Y281940D01*
X696976Y305308D02*
X710946Y319278D01*
X378714Y492506D02*
X368300Y502920D01*
X378714Y492506D02*
X378714Y377952D01*
X369062Y368300D01*
X368300Y368300D01*
X383286Y492506D02*
X393700Y502920D01*
X383286Y492506D02*
X383286Y377952D01*
X392938Y368300D02*
X393700Y368300D01*
X392938Y368300D02*
X383286Y377952D01*
M02*
