G04 EAGLE Gerber RS-274X export*
G75*
%MOMM*%
%FSLAX34Y34*%
%LPD*%
%IN*%
%IPPOS*%
%AMOC8*
5,1,8,0,0,1.08239X$1,22.5*%
G01*
%ADD10C,0.254000*%


D10*
X0Y0D02*
X850000Y0D01*
X850000Y550000D01*
X0Y550000D01*
X0Y0D01*
X56000Y509476D02*
X55932Y508431D01*
X55795Y507392D01*
X55590Y506365D01*
X55319Y505353D01*
X54983Y504361D01*
X54582Y503393D01*
X54118Y502454D01*
X53595Y501546D01*
X53013Y500675D01*
X52375Y499844D01*
X51684Y499057D01*
X50943Y498316D01*
X50156Y497625D01*
X49325Y496988D01*
X48454Y496406D01*
X47546Y495882D01*
X46607Y495418D01*
X45639Y495017D01*
X44647Y494681D01*
X43635Y494410D01*
X42608Y494205D01*
X41569Y494069D01*
X40524Y494000D01*
X39476Y494000D01*
X38431Y494069D01*
X37392Y494205D01*
X36365Y494410D01*
X35353Y494681D01*
X34361Y495017D01*
X33393Y495418D01*
X32454Y495882D01*
X31546Y496406D01*
X30675Y496988D01*
X29844Y497625D01*
X29057Y498316D01*
X28316Y499057D01*
X27625Y499844D01*
X26988Y500675D01*
X26406Y501546D01*
X25882Y502454D01*
X25418Y503393D01*
X25017Y504361D01*
X24681Y505353D01*
X24410Y506365D01*
X24205Y507392D01*
X24069Y508431D01*
X24000Y509476D01*
X24000Y510524D01*
X24069Y511569D01*
X24205Y512608D01*
X24410Y513635D01*
X24681Y514647D01*
X25017Y515639D01*
X25418Y516607D01*
X25882Y517546D01*
X26406Y518454D01*
X26988Y519325D01*
X27625Y520156D01*
X28316Y520943D01*
X29057Y521684D01*
X29844Y522375D01*
X30675Y523013D01*
X31546Y523595D01*
X32454Y524118D01*
X33393Y524582D01*
X34361Y524983D01*
X35353Y525319D01*
X36365Y525590D01*
X37392Y525795D01*
X38431Y525932D01*
X39476Y526000D01*
X40524Y526000D01*
X41569Y525932D01*
X42608Y525795D01*
X43635Y525590D01*
X44647Y525319D01*
X45639Y524983D01*
X46607Y524582D01*
X47546Y524118D01*
X48454Y523595D01*
X49325Y523013D01*
X50156Y522375D01*
X50943Y521684D01*
X51684Y520943D01*
X52375Y520156D01*
X53013Y519325D01*
X53595Y518454D01*
X54118Y517546D01*
X54582Y516607D01*
X54983Y515639D01*
X55319Y514647D01*
X55590Y513635D01*
X55795Y512608D01*
X55932Y511569D01*
X56000Y510524D01*
X56000Y509476D01*
X56000Y39476D02*
X55932Y38431D01*
X55795Y37392D01*
X55590Y36365D01*
X55319Y35353D01*
X54983Y34361D01*
X54582Y33393D01*
X54118Y32454D01*
X53595Y31546D01*
X53013Y30675D01*
X52375Y29844D01*
X51684Y29057D01*
X50943Y28316D01*
X50156Y27625D01*
X49325Y26988D01*
X48454Y26406D01*
X47546Y25882D01*
X46607Y25418D01*
X45639Y25017D01*
X44647Y24681D01*
X43635Y24410D01*
X42608Y24205D01*
X41569Y24069D01*
X40524Y24000D01*
X39476Y24000D01*
X38431Y24069D01*
X37392Y24205D01*
X36365Y24410D01*
X35353Y24681D01*
X34361Y25017D01*
X33393Y25418D01*
X32454Y25882D01*
X31546Y26406D01*
X30675Y26988D01*
X29844Y27625D01*
X29057Y28316D01*
X28316Y29057D01*
X27625Y29844D01*
X26988Y30675D01*
X26406Y31546D01*
X25882Y32454D01*
X25418Y33393D01*
X25017Y34361D01*
X24681Y35353D01*
X24410Y36365D01*
X24205Y37392D01*
X24069Y38431D01*
X24000Y39476D01*
X24000Y40524D01*
X24069Y41569D01*
X24205Y42608D01*
X24410Y43635D01*
X24681Y44647D01*
X25017Y45639D01*
X25418Y46607D01*
X25882Y47546D01*
X26406Y48454D01*
X26988Y49325D01*
X27625Y50156D01*
X28316Y50943D01*
X29057Y51684D01*
X29844Y52375D01*
X30675Y53013D01*
X31546Y53595D01*
X32454Y54118D01*
X33393Y54582D01*
X34361Y54983D01*
X35353Y55319D01*
X36365Y55590D01*
X37392Y55795D01*
X38431Y55932D01*
X39476Y56000D01*
X40524Y56000D01*
X41569Y55932D01*
X42608Y55795D01*
X43635Y55590D01*
X44647Y55319D01*
X45639Y54983D01*
X46607Y54582D01*
X47546Y54118D01*
X48454Y53595D01*
X49325Y53013D01*
X50156Y52375D01*
X50943Y51684D01*
X51684Y50943D01*
X52375Y50156D01*
X53013Y49325D01*
X53595Y48454D01*
X54118Y47546D01*
X54582Y46607D01*
X54983Y45639D01*
X55319Y44647D01*
X55590Y43635D01*
X55795Y42608D01*
X55932Y41569D01*
X56000Y40524D01*
X56000Y39476D01*
X826000Y39476D02*
X825932Y38431D01*
X825795Y37392D01*
X825590Y36365D01*
X825319Y35353D01*
X824983Y34361D01*
X824582Y33393D01*
X824118Y32454D01*
X823595Y31546D01*
X823013Y30675D01*
X822375Y29844D01*
X821684Y29057D01*
X820943Y28316D01*
X820156Y27625D01*
X819325Y26988D01*
X818454Y26406D01*
X817546Y25882D01*
X816607Y25418D01*
X815639Y25017D01*
X814647Y24681D01*
X813635Y24410D01*
X812608Y24205D01*
X811569Y24069D01*
X810524Y24000D01*
X809476Y24000D01*
X808431Y24069D01*
X807392Y24205D01*
X806365Y24410D01*
X805353Y24681D01*
X804361Y25017D01*
X803393Y25418D01*
X802454Y25882D01*
X801546Y26406D01*
X800675Y26988D01*
X799844Y27625D01*
X799057Y28316D01*
X798316Y29057D01*
X797625Y29844D01*
X796988Y30675D01*
X796406Y31546D01*
X795882Y32454D01*
X795418Y33393D01*
X795017Y34361D01*
X794681Y35353D01*
X794410Y36365D01*
X794205Y37392D01*
X794069Y38431D01*
X794000Y39476D01*
X794000Y40524D01*
X794069Y41569D01*
X794205Y42608D01*
X794410Y43635D01*
X794681Y44647D01*
X795017Y45639D01*
X795418Y46607D01*
X795882Y47546D01*
X796406Y48454D01*
X796988Y49325D01*
X797625Y50156D01*
X798316Y50943D01*
X799057Y51684D01*
X799844Y52375D01*
X800675Y53013D01*
X801546Y53595D01*
X802454Y54118D01*
X803393Y54582D01*
X804361Y54983D01*
X805353Y55319D01*
X806365Y55590D01*
X807392Y55795D01*
X808431Y55932D01*
X809476Y56000D01*
X810524Y56000D01*
X811569Y55932D01*
X812608Y55795D01*
X813635Y55590D01*
X814647Y55319D01*
X815639Y54983D01*
X816607Y54582D01*
X817546Y54118D01*
X818454Y53595D01*
X819325Y53013D01*
X820156Y52375D01*
X820943Y51684D01*
X821684Y50943D01*
X822375Y50156D01*
X823013Y49325D01*
X823595Y48454D01*
X824118Y47546D01*
X824582Y46607D01*
X824983Y45639D01*
X825319Y44647D01*
X825590Y43635D01*
X825795Y42608D01*
X825932Y41569D01*
X826000Y40524D01*
X826000Y39476D01*
X826000Y509476D02*
X825932Y508431D01*
X825795Y507392D01*
X825590Y506365D01*
X825319Y505353D01*
X824983Y504361D01*
X824582Y503393D01*
X824118Y502454D01*
X823595Y501546D01*
X823013Y500675D01*
X822375Y499844D01*
X821684Y499057D01*
X820943Y498316D01*
X820156Y497625D01*
X819325Y496988D01*
X818454Y496406D01*
X817546Y495882D01*
X816607Y495418D01*
X815639Y495017D01*
X814647Y494681D01*
X813635Y494410D01*
X812608Y494205D01*
X811569Y494069D01*
X810524Y494000D01*
X809476Y494000D01*
X808431Y494069D01*
X807392Y494205D01*
X806365Y494410D01*
X805353Y494681D01*
X804361Y495017D01*
X803393Y495418D01*
X802454Y495882D01*
X801546Y496406D01*
X800675Y496988D01*
X799844Y497625D01*
X799057Y498316D01*
X798316Y499057D01*
X797625Y499844D01*
X796988Y500675D01*
X796406Y501546D01*
X795882Y502454D01*
X795418Y503393D01*
X795017Y504361D01*
X794681Y505353D01*
X794410Y506365D01*
X794205Y507392D01*
X794069Y508431D01*
X794000Y509476D01*
X794000Y510524D01*
X794069Y511569D01*
X794205Y512608D01*
X794410Y513635D01*
X794681Y514647D01*
X795017Y515639D01*
X795418Y516607D01*
X795882Y517546D01*
X796406Y518454D01*
X796988Y519325D01*
X797625Y520156D01*
X798316Y520943D01*
X799057Y521684D01*
X799844Y522375D01*
X800675Y523013D01*
X801546Y523595D01*
X802454Y524118D01*
X803393Y524582D01*
X804361Y524983D01*
X805353Y525319D01*
X806365Y525590D01*
X807392Y525795D01*
X808431Y525932D01*
X809476Y526000D01*
X810524Y526000D01*
X811569Y525932D01*
X812608Y525795D01*
X813635Y525590D01*
X814647Y525319D01*
X815639Y524983D01*
X816607Y524582D01*
X817546Y524118D01*
X818454Y523595D01*
X819325Y523013D01*
X820156Y522375D01*
X820943Y521684D01*
X821684Y520943D01*
X822375Y520156D01*
X823013Y519325D01*
X823595Y518454D01*
X824118Y517546D01*
X824582Y516607D01*
X824983Y515639D01*
X825319Y514647D01*
X825590Y513635D01*
X825795Y512608D01*
X825932Y511569D01*
X826000Y510524D01*
X826000Y509476D01*
X556800Y444246D02*
X557879Y444175D01*
X558951Y444034D01*
X560011Y443823D01*
X561055Y443544D01*
X562079Y443196D01*
X563077Y442782D01*
X564047Y442304D01*
X564983Y441764D01*
X565882Y441163D01*
X566739Y440505D01*
X567552Y439793D01*
X568317Y439028D01*
X569029Y438215D01*
X569687Y437358D01*
X570288Y436459D01*
X570828Y435523D01*
X571306Y434553D01*
X571720Y433555D01*
X572068Y432531D01*
X572347Y431487D01*
X572558Y430427D01*
X572699Y429355D01*
X572770Y428276D01*
X572770Y427196D01*
X572699Y426117D01*
X572558Y425045D01*
X572347Y423985D01*
X572068Y422941D01*
X571720Y421917D01*
X571306Y420919D01*
X570828Y419949D01*
X570288Y419013D01*
X569687Y418114D01*
X569029Y417257D01*
X568317Y416444D01*
X567552Y415680D01*
X566739Y414967D01*
X565882Y414309D01*
X564983Y413708D01*
X564047Y413168D01*
X563077Y412690D01*
X562079Y412276D01*
X561055Y411928D01*
X560011Y411649D01*
X558951Y411438D01*
X557879Y411297D01*
X556800Y411226D01*
X555720Y411226D01*
X554641Y411297D01*
X553569Y411438D01*
X552509Y411649D01*
X551465Y411928D01*
X550441Y412276D01*
X549443Y412690D01*
X548473Y413168D01*
X547537Y413708D01*
X546638Y414309D01*
X545781Y414967D01*
X544968Y415680D01*
X544204Y416444D01*
X543491Y417257D01*
X542833Y418114D01*
X542232Y419013D01*
X541692Y419949D01*
X541214Y420919D01*
X540800Y421917D01*
X540452Y422941D01*
X540173Y423985D01*
X539962Y425045D01*
X539821Y426117D01*
X539750Y427196D01*
X539750Y428276D01*
X539821Y429355D01*
X539962Y430427D01*
X540173Y431487D01*
X540452Y432531D01*
X540800Y433555D01*
X541214Y434553D01*
X541692Y435523D01*
X542232Y436459D01*
X542833Y437358D01*
X543491Y438215D01*
X544204Y439028D01*
X544968Y439793D01*
X545781Y440505D01*
X546638Y441163D01*
X547537Y441764D01*
X548473Y442304D01*
X549443Y442782D01*
X550441Y443196D01*
X551465Y443544D01*
X552509Y443823D01*
X553569Y444034D01*
X554641Y444175D01*
X555720Y444246D01*
X556800Y444246D01*
X556800Y241046D02*
X557879Y240975D01*
X558951Y240834D01*
X560011Y240623D01*
X561055Y240344D01*
X562079Y239996D01*
X563077Y239582D01*
X564047Y239104D01*
X564983Y238564D01*
X565882Y237963D01*
X566739Y237305D01*
X567552Y236593D01*
X568317Y235828D01*
X569029Y235015D01*
X569687Y234158D01*
X570288Y233259D01*
X570828Y232323D01*
X571306Y231353D01*
X571720Y230355D01*
X572068Y229331D01*
X572347Y228287D01*
X572558Y227227D01*
X572699Y226155D01*
X572770Y225076D01*
X572770Y223996D01*
X572699Y222917D01*
X572558Y221845D01*
X572347Y220785D01*
X572068Y219741D01*
X571720Y218717D01*
X571306Y217719D01*
X570828Y216749D01*
X570288Y215813D01*
X569687Y214914D01*
X569029Y214057D01*
X568317Y213244D01*
X567552Y212480D01*
X566739Y211767D01*
X565882Y211109D01*
X564983Y210508D01*
X564047Y209968D01*
X563077Y209490D01*
X562079Y209076D01*
X561055Y208728D01*
X560011Y208449D01*
X558951Y208238D01*
X557879Y208097D01*
X556800Y208026D01*
X555720Y208026D01*
X554641Y208097D01*
X553569Y208238D01*
X552509Y208449D01*
X551465Y208728D01*
X550441Y209076D01*
X549443Y209490D01*
X548473Y209968D01*
X547537Y210508D01*
X546638Y211109D01*
X545781Y211767D01*
X544968Y212480D01*
X544204Y213244D01*
X543491Y214057D01*
X542833Y214914D01*
X542232Y215813D01*
X541692Y216749D01*
X541214Y217719D01*
X540800Y218717D01*
X540452Y219741D01*
X540173Y220785D01*
X539962Y221845D01*
X539821Y222917D01*
X539750Y223996D01*
X539750Y225076D01*
X539821Y226155D01*
X539962Y227227D01*
X540173Y228287D01*
X540452Y229331D01*
X540800Y230355D01*
X541214Y231353D01*
X541692Y232323D01*
X542232Y233259D01*
X542833Y234158D01*
X543491Y235015D01*
X544204Y235828D01*
X544968Y236593D01*
X545781Y237305D01*
X546638Y237963D01*
X547537Y238564D01*
X548473Y239104D01*
X549443Y239582D01*
X550441Y239996D01*
X551465Y240344D01*
X552509Y240623D01*
X553569Y240834D01*
X554641Y240975D01*
X555720Y241046D01*
X556800Y241046D01*
X556800Y342646D02*
X557879Y342575D01*
X558951Y342434D01*
X560011Y342223D01*
X561055Y341944D01*
X562079Y341596D01*
X563077Y341182D01*
X564047Y340704D01*
X564983Y340164D01*
X565882Y339563D01*
X566739Y338905D01*
X567552Y338193D01*
X568317Y337428D01*
X569029Y336615D01*
X569687Y335758D01*
X570288Y334859D01*
X570828Y333923D01*
X571306Y332953D01*
X571720Y331955D01*
X572068Y330931D01*
X572347Y329887D01*
X572558Y328827D01*
X572699Y327755D01*
X572770Y326676D01*
X572770Y325596D01*
X572699Y324517D01*
X572558Y323445D01*
X572347Y322385D01*
X572068Y321341D01*
X571720Y320317D01*
X571306Y319319D01*
X570828Y318349D01*
X570288Y317413D01*
X569687Y316514D01*
X569029Y315657D01*
X568317Y314844D01*
X567552Y314080D01*
X566739Y313367D01*
X565882Y312709D01*
X564983Y312108D01*
X564047Y311568D01*
X563077Y311090D01*
X562079Y310676D01*
X561055Y310328D01*
X560011Y310049D01*
X558951Y309838D01*
X557879Y309697D01*
X556800Y309626D01*
X555720Y309626D01*
X554641Y309697D01*
X553569Y309838D01*
X552509Y310049D01*
X551465Y310328D01*
X550441Y310676D01*
X549443Y311090D01*
X548473Y311568D01*
X547537Y312108D01*
X546638Y312709D01*
X545781Y313367D01*
X544968Y314080D01*
X544204Y314844D01*
X543491Y315657D01*
X542833Y316514D01*
X542232Y317413D01*
X541692Y318349D01*
X541214Y319319D01*
X540800Y320317D01*
X540452Y321341D01*
X540173Y322385D01*
X539962Y323445D01*
X539821Y324517D01*
X539750Y325596D01*
X539750Y326676D01*
X539821Y327755D01*
X539962Y328827D01*
X540173Y329887D01*
X540452Y330931D01*
X540800Y331955D01*
X541214Y332953D01*
X541692Y333923D01*
X542232Y334859D01*
X542833Y335758D01*
X543491Y336615D01*
X544204Y337428D01*
X544968Y338193D01*
X545781Y338905D01*
X546638Y339563D01*
X547537Y340164D01*
X548473Y340704D01*
X549443Y341182D01*
X550441Y341596D01*
X551465Y341944D01*
X552509Y342223D01*
X553569Y342434D01*
X554641Y342575D01*
X555720Y342646D01*
X556800Y342646D01*
X556800Y139446D02*
X557879Y139375D01*
X558951Y139234D01*
X560011Y139023D01*
X561055Y138744D01*
X562079Y138396D01*
X563077Y137982D01*
X564047Y137504D01*
X564983Y136964D01*
X565882Y136363D01*
X566739Y135705D01*
X567552Y134993D01*
X568317Y134228D01*
X569029Y133415D01*
X569687Y132558D01*
X570288Y131659D01*
X570828Y130723D01*
X571306Y129753D01*
X571720Y128755D01*
X572068Y127731D01*
X572347Y126687D01*
X572558Y125627D01*
X572699Y124555D01*
X572770Y123476D01*
X572770Y122396D01*
X572699Y121317D01*
X572558Y120245D01*
X572347Y119185D01*
X572068Y118141D01*
X571720Y117117D01*
X571306Y116119D01*
X570828Y115149D01*
X570288Y114213D01*
X569687Y113314D01*
X569029Y112457D01*
X568317Y111644D01*
X567552Y110880D01*
X566739Y110167D01*
X565882Y109509D01*
X564983Y108908D01*
X564047Y108368D01*
X563077Y107890D01*
X562079Y107476D01*
X561055Y107128D01*
X560011Y106849D01*
X558951Y106638D01*
X557879Y106497D01*
X556800Y106426D01*
X555720Y106426D01*
X554641Y106497D01*
X553569Y106638D01*
X552509Y106849D01*
X551465Y107128D01*
X550441Y107476D01*
X549443Y107890D01*
X548473Y108368D01*
X547537Y108908D01*
X546638Y109509D01*
X545781Y110167D01*
X544968Y110880D01*
X544204Y111644D01*
X543491Y112457D01*
X542833Y113314D01*
X542232Y114213D01*
X541692Y115149D01*
X541214Y116119D01*
X540800Y117117D01*
X540452Y118141D01*
X540173Y119185D01*
X539962Y120245D01*
X539821Y121317D01*
X539750Y122396D01*
X539750Y123476D01*
X539821Y124555D01*
X539962Y125627D01*
X540173Y126687D01*
X540452Y127731D01*
X540800Y128755D01*
X541214Y129753D01*
X541692Y130723D01*
X542232Y131659D01*
X542833Y132558D01*
X543491Y133415D01*
X544204Y134228D01*
X544968Y134993D01*
X545781Y135705D01*
X546638Y136363D01*
X547537Y136964D01*
X548473Y137504D01*
X549443Y137982D01*
X550441Y138396D01*
X551465Y138744D01*
X552509Y139023D01*
X553569Y139234D01*
X554641Y139375D01*
X555720Y139446D01*
X556800Y139446D01*
M02*
