G04 EAGLE Gerber RS-274X export*
G75*
%MOMM*%
%FSLAX34Y34*%
%LPD*%
%IN*%
%IPPOS*%
%AMOC8*
5,1,8,0,0,1.08239X$1,22.5*%
G01*
%ADD10C,0.254000*%


D10*
X0Y25000D02*
X95Y22821D01*
X380Y20659D01*
X852Y18530D01*
X1508Y16450D01*
X2342Y14435D01*
X3349Y12500D01*
X4521Y10661D01*
X5849Y8930D01*
X7322Y7322D01*
X8930Y5849D01*
X10661Y4521D01*
X12500Y3349D01*
X14435Y2342D01*
X16450Y1508D01*
X18530Y852D01*
X20659Y380D01*
X22821Y95D01*
X25000Y0D01*
X825000Y0D01*
X827179Y95D01*
X829341Y380D01*
X831470Y852D01*
X833551Y1508D01*
X835565Y2342D01*
X837500Y3349D01*
X839339Y4521D01*
X841070Y5849D01*
X842678Y7322D01*
X844151Y8930D01*
X845479Y10661D01*
X846651Y12500D01*
X847658Y14435D01*
X848492Y16450D01*
X849148Y18530D01*
X849620Y20659D01*
X849905Y22821D01*
X850000Y25000D01*
X850000Y525000D01*
X849905Y527179D01*
X849620Y529341D01*
X849148Y531470D01*
X848492Y533551D01*
X847658Y535565D01*
X846651Y537500D01*
X845479Y539339D01*
X844151Y541070D01*
X842678Y542678D01*
X841070Y544151D01*
X839339Y545479D01*
X837500Y546651D01*
X835565Y547658D01*
X833551Y548492D01*
X831470Y549148D01*
X829341Y549620D01*
X827179Y549905D01*
X825000Y550000D01*
X25000Y550000D01*
X22821Y549905D01*
X20659Y549620D01*
X18530Y549148D01*
X16450Y548492D01*
X14435Y547658D01*
X12500Y546651D01*
X10661Y545479D01*
X8930Y544151D01*
X7322Y542678D01*
X5849Y541070D01*
X4521Y539339D01*
X3349Y537500D01*
X2342Y535565D01*
X1508Y533551D01*
X852Y531470D01*
X380Y529341D01*
X95Y527179D01*
X0Y525000D01*
X0Y25000D01*
X536480Y486410D02*
X537559Y486339D01*
X538631Y486198D01*
X539691Y485987D01*
X540735Y485708D01*
X541759Y485360D01*
X542757Y484946D01*
X543727Y484468D01*
X544663Y483928D01*
X545562Y483327D01*
X546419Y482669D01*
X547232Y481957D01*
X547997Y481192D01*
X548709Y480379D01*
X549367Y479522D01*
X549968Y478623D01*
X550508Y477687D01*
X550986Y476717D01*
X551400Y475719D01*
X551748Y474695D01*
X552027Y473651D01*
X552238Y472591D01*
X552379Y471519D01*
X552450Y470440D01*
X552450Y469360D01*
X552379Y468281D01*
X552238Y467209D01*
X552027Y466149D01*
X551748Y465105D01*
X551400Y464081D01*
X550986Y463083D01*
X550508Y462113D01*
X549968Y461177D01*
X549367Y460278D01*
X548709Y459421D01*
X547997Y458608D01*
X547232Y457844D01*
X546419Y457131D01*
X545562Y456473D01*
X544663Y455872D01*
X543727Y455332D01*
X542757Y454854D01*
X541759Y454440D01*
X540735Y454092D01*
X539691Y453813D01*
X538631Y453602D01*
X537559Y453461D01*
X536480Y453390D01*
X535400Y453390D01*
X534321Y453461D01*
X533249Y453602D01*
X532189Y453813D01*
X531145Y454092D01*
X530121Y454440D01*
X529123Y454854D01*
X528153Y455332D01*
X527217Y455872D01*
X526318Y456473D01*
X525461Y457131D01*
X524648Y457844D01*
X523884Y458608D01*
X523171Y459421D01*
X522513Y460278D01*
X521912Y461177D01*
X521372Y462113D01*
X520894Y463083D01*
X520480Y464081D01*
X520132Y465105D01*
X519853Y466149D01*
X519642Y467209D01*
X519501Y468281D01*
X519430Y469360D01*
X519430Y470440D01*
X519501Y471519D01*
X519642Y472591D01*
X519853Y473651D01*
X520132Y474695D01*
X520480Y475719D01*
X520894Y476717D01*
X521372Y477687D01*
X521912Y478623D01*
X522513Y479522D01*
X523171Y480379D01*
X523884Y481192D01*
X524648Y481957D01*
X525461Y482669D01*
X526318Y483327D01*
X527217Y483928D01*
X528153Y484468D01*
X529123Y484946D01*
X530121Y485360D01*
X531145Y485708D01*
X532189Y485987D01*
X533249Y486198D01*
X534321Y486339D01*
X535400Y486410D01*
X536480Y486410D01*
X536480Y232410D02*
X537559Y232339D01*
X538631Y232198D01*
X539691Y231987D01*
X540735Y231708D01*
X541759Y231360D01*
X542757Y230946D01*
X543727Y230468D01*
X544663Y229928D01*
X545562Y229327D01*
X546419Y228669D01*
X547232Y227957D01*
X547997Y227192D01*
X548709Y226379D01*
X549367Y225522D01*
X549968Y224623D01*
X550508Y223687D01*
X550986Y222717D01*
X551400Y221719D01*
X551748Y220695D01*
X552027Y219651D01*
X552238Y218591D01*
X552379Y217519D01*
X552450Y216440D01*
X552450Y215360D01*
X552379Y214281D01*
X552238Y213209D01*
X552027Y212149D01*
X551748Y211105D01*
X551400Y210081D01*
X550986Y209083D01*
X550508Y208113D01*
X549968Y207177D01*
X549367Y206278D01*
X548709Y205421D01*
X547997Y204608D01*
X547232Y203844D01*
X546419Y203131D01*
X545562Y202473D01*
X544663Y201872D01*
X543727Y201332D01*
X542757Y200854D01*
X541759Y200440D01*
X540735Y200092D01*
X539691Y199813D01*
X538631Y199602D01*
X537559Y199461D01*
X536480Y199390D01*
X535400Y199390D01*
X534321Y199461D01*
X533249Y199602D01*
X532189Y199813D01*
X531145Y200092D01*
X530121Y200440D01*
X529123Y200854D01*
X528153Y201332D01*
X527217Y201872D01*
X526318Y202473D01*
X525461Y203131D01*
X524648Y203844D01*
X523884Y204608D01*
X523171Y205421D01*
X522513Y206278D01*
X521912Y207177D01*
X521372Y208113D01*
X520894Y209083D01*
X520480Y210081D01*
X520132Y211105D01*
X519853Y212149D01*
X519642Y213209D01*
X519501Y214281D01*
X519430Y215360D01*
X519430Y216440D01*
X519501Y217519D01*
X519642Y218591D01*
X519853Y219651D01*
X520132Y220695D01*
X520480Y221719D01*
X520894Y222717D01*
X521372Y223687D01*
X521912Y224623D01*
X522513Y225522D01*
X523171Y226379D01*
X523884Y227192D01*
X524648Y227957D01*
X525461Y228669D01*
X526318Y229327D01*
X527217Y229928D01*
X528153Y230468D01*
X529123Y230946D01*
X530121Y231360D01*
X531145Y231708D01*
X532189Y231987D01*
X533249Y232198D01*
X534321Y232339D01*
X535400Y232410D01*
X536480Y232410D01*
X536480Y359410D02*
X537559Y359339D01*
X538631Y359198D01*
X539691Y358987D01*
X540735Y358708D01*
X541759Y358360D01*
X542757Y357946D01*
X543727Y357468D01*
X544663Y356928D01*
X545562Y356327D01*
X546419Y355669D01*
X547232Y354957D01*
X547997Y354192D01*
X548709Y353379D01*
X549367Y352522D01*
X549968Y351623D01*
X550508Y350687D01*
X550986Y349717D01*
X551400Y348719D01*
X551748Y347695D01*
X552027Y346651D01*
X552238Y345591D01*
X552379Y344519D01*
X552450Y343440D01*
X552450Y342360D01*
X552379Y341281D01*
X552238Y340209D01*
X552027Y339149D01*
X551748Y338105D01*
X551400Y337081D01*
X550986Y336083D01*
X550508Y335113D01*
X549968Y334177D01*
X549367Y333278D01*
X548709Y332421D01*
X547997Y331608D01*
X547232Y330844D01*
X546419Y330131D01*
X545562Y329473D01*
X544663Y328872D01*
X543727Y328332D01*
X542757Y327854D01*
X541759Y327440D01*
X540735Y327092D01*
X539691Y326813D01*
X538631Y326602D01*
X537559Y326461D01*
X536480Y326390D01*
X535400Y326390D01*
X534321Y326461D01*
X533249Y326602D01*
X532189Y326813D01*
X531145Y327092D01*
X530121Y327440D01*
X529123Y327854D01*
X528153Y328332D01*
X527217Y328872D01*
X526318Y329473D01*
X525461Y330131D01*
X524648Y330844D01*
X523884Y331608D01*
X523171Y332421D01*
X522513Y333278D01*
X521912Y334177D01*
X521372Y335113D01*
X520894Y336083D01*
X520480Y337081D01*
X520132Y338105D01*
X519853Y339149D01*
X519642Y340209D01*
X519501Y341281D01*
X519430Y342360D01*
X519430Y343440D01*
X519501Y344519D01*
X519642Y345591D01*
X519853Y346651D01*
X520132Y347695D01*
X520480Y348719D01*
X520894Y349717D01*
X521372Y350687D01*
X521912Y351623D01*
X522513Y352522D01*
X523171Y353379D01*
X523884Y354192D01*
X524648Y354957D01*
X525461Y355669D01*
X526318Y356327D01*
X527217Y356928D01*
X528153Y357468D01*
X529123Y357946D01*
X530121Y358360D01*
X531145Y358708D01*
X532189Y358987D01*
X533249Y359198D01*
X534321Y359339D01*
X535400Y359410D01*
X536480Y359410D01*
X536480Y105410D02*
X537559Y105339D01*
X538631Y105198D01*
X539691Y104987D01*
X540735Y104708D01*
X541759Y104360D01*
X542757Y103946D01*
X543727Y103468D01*
X544663Y102928D01*
X545562Y102327D01*
X546419Y101669D01*
X547232Y100957D01*
X547997Y100192D01*
X548709Y99379D01*
X549367Y98522D01*
X549968Y97623D01*
X550508Y96687D01*
X550986Y95717D01*
X551400Y94719D01*
X551748Y93695D01*
X552027Y92651D01*
X552238Y91591D01*
X552379Y90519D01*
X552450Y89440D01*
X552450Y88360D01*
X552379Y87281D01*
X552238Y86209D01*
X552027Y85149D01*
X551748Y84105D01*
X551400Y83081D01*
X550986Y82083D01*
X550508Y81113D01*
X549968Y80177D01*
X549367Y79278D01*
X548709Y78421D01*
X547997Y77608D01*
X547232Y76844D01*
X546419Y76131D01*
X545562Y75473D01*
X544663Y74872D01*
X543727Y74332D01*
X542757Y73854D01*
X541759Y73440D01*
X540735Y73092D01*
X539691Y72813D01*
X538631Y72602D01*
X537559Y72461D01*
X536480Y72390D01*
X535400Y72390D01*
X534321Y72461D01*
X533249Y72602D01*
X532189Y72813D01*
X531145Y73092D01*
X530121Y73440D01*
X529123Y73854D01*
X528153Y74332D01*
X527217Y74872D01*
X526318Y75473D01*
X525461Y76131D01*
X524648Y76844D01*
X523884Y77608D01*
X523171Y78421D01*
X522513Y79278D01*
X521912Y80177D01*
X521372Y81113D01*
X520894Y82083D01*
X520480Y83081D01*
X520132Y84105D01*
X519853Y85149D01*
X519642Y86209D01*
X519501Y87281D01*
X519430Y88360D01*
X519430Y89440D01*
X519501Y90519D01*
X519642Y91591D01*
X519853Y92651D01*
X520132Y93695D01*
X520480Y94719D01*
X520894Y95717D01*
X521372Y96687D01*
X521912Y97623D01*
X522513Y98522D01*
X523171Y99379D01*
X523884Y100192D01*
X524648Y100957D01*
X525461Y101669D01*
X526318Y102327D01*
X527217Y102928D01*
X528153Y103468D01*
X529123Y103946D01*
X530121Y104360D01*
X531145Y104708D01*
X532189Y104987D01*
X533249Y105198D01*
X534321Y105339D01*
X535400Y105410D01*
X536480Y105410D01*
M02*
