G04 EAGLE Gerber RS-274X export*
G75*
%MOMM*%
%FSLAX34Y34*%
%LPD*%
%INSilkscreen Top*%
%IPPOS*%
%AMOC8*
5,1,8,0,0,1.08239X$1,22.5*%
G01*
%ADD10C,0.152400*%
%ADD11C,0.127000*%
%ADD12C,0.050800*%
%ADD13R,0.635000X0.762000*%
%ADD14R,2.794000X1.270000*%
%ADD15R,3.810000X3.810000*%
%ADD16R,8.890000X7.620000*%


D10*
X397510Y152400D02*
X394970Y152400D01*
X394970Y154940D01*
X394970Y152400D02*
X392430Y152400D01*
X394970Y152400D02*
X394970Y149860D01*
X355600Y165100D02*
X355608Y165723D01*
X355631Y166346D01*
X355669Y166969D01*
X355722Y167590D01*
X355791Y168209D01*
X355875Y168827D01*
X355974Y169442D01*
X356088Y170055D01*
X356217Y170665D01*
X356361Y171272D01*
X356520Y171875D01*
X356694Y172473D01*
X356882Y173068D01*
X357085Y173657D01*
X357302Y174241D01*
X357533Y174820D01*
X357779Y175393D01*
X358039Y175960D01*
X358312Y176520D01*
X358599Y177073D01*
X358900Y177620D01*
X359214Y178158D01*
X359541Y178689D01*
X359881Y179211D01*
X360233Y179726D01*
X360599Y180231D01*
X360976Y180727D01*
X361366Y181214D01*
X361767Y181691D01*
X362180Y182158D01*
X362604Y182614D01*
X363039Y183061D01*
X363486Y183496D01*
X363942Y183920D01*
X364409Y184333D01*
X364886Y184734D01*
X365373Y185124D01*
X365869Y185501D01*
X366374Y185867D01*
X366889Y186219D01*
X367411Y186559D01*
X367942Y186886D01*
X368480Y187200D01*
X369027Y187501D01*
X369580Y187788D01*
X370140Y188061D01*
X370707Y188321D01*
X371280Y188567D01*
X371859Y188798D01*
X372443Y189015D01*
X373032Y189218D01*
X373627Y189406D01*
X374225Y189580D01*
X374828Y189739D01*
X375435Y189883D01*
X376045Y190012D01*
X376658Y190126D01*
X377273Y190225D01*
X377891Y190309D01*
X378510Y190378D01*
X379131Y190431D01*
X379754Y190469D01*
X380377Y190492D01*
X381000Y190500D01*
X381623Y190492D01*
X382246Y190469D01*
X382869Y190431D01*
X383490Y190378D01*
X384109Y190309D01*
X384727Y190225D01*
X385342Y190126D01*
X385955Y190012D01*
X386565Y189883D01*
X387172Y189739D01*
X387775Y189580D01*
X388373Y189406D01*
X388968Y189218D01*
X389557Y189015D01*
X390141Y188798D01*
X390720Y188567D01*
X391293Y188321D01*
X391860Y188061D01*
X392420Y187788D01*
X392973Y187501D01*
X393520Y187200D01*
X394058Y186886D01*
X394589Y186559D01*
X395111Y186219D01*
X395626Y185867D01*
X396131Y185501D01*
X396627Y185124D01*
X397114Y184734D01*
X397591Y184333D01*
X398058Y183920D01*
X398514Y183496D01*
X398961Y183061D01*
X399396Y182614D01*
X399820Y182158D01*
X400233Y181691D01*
X400634Y181214D01*
X401024Y180727D01*
X401401Y180231D01*
X401767Y179726D01*
X402119Y179211D01*
X402459Y178689D01*
X402786Y178158D01*
X403100Y177620D01*
X403401Y177073D01*
X403688Y176520D01*
X403961Y175960D01*
X404221Y175393D01*
X404467Y174820D01*
X404698Y174241D01*
X404915Y173657D01*
X405118Y173068D01*
X405306Y172473D01*
X405480Y171875D01*
X405639Y171272D01*
X405783Y170665D01*
X405912Y170055D01*
X406026Y169442D01*
X406125Y168827D01*
X406209Y168209D01*
X406278Y167590D01*
X406331Y166969D01*
X406369Y166346D01*
X406392Y165723D01*
X406400Y165100D01*
X406392Y164477D01*
X406369Y163854D01*
X406331Y163231D01*
X406278Y162610D01*
X406209Y161991D01*
X406125Y161373D01*
X406026Y160758D01*
X405912Y160145D01*
X405783Y159535D01*
X405639Y158928D01*
X405480Y158325D01*
X405306Y157727D01*
X405118Y157132D01*
X404915Y156543D01*
X404698Y155959D01*
X404467Y155380D01*
X404221Y154807D01*
X403961Y154240D01*
X403688Y153680D01*
X403401Y153127D01*
X403100Y152580D01*
X402786Y152042D01*
X402459Y151511D01*
X402119Y150989D01*
X401767Y150474D01*
X401401Y149969D01*
X401024Y149473D01*
X400634Y148986D01*
X400233Y148509D01*
X399820Y148042D01*
X399396Y147586D01*
X398961Y147139D01*
X398514Y146704D01*
X398058Y146280D01*
X397591Y145867D01*
X397114Y145466D01*
X396627Y145076D01*
X396131Y144699D01*
X395626Y144333D01*
X395111Y143981D01*
X394589Y143641D01*
X394058Y143314D01*
X393520Y143000D01*
X392973Y142699D01*
X392420Y142412D01*
X391860Y142139D01*
X391293Y141879D01*
X390720Y141633D01*
X390141Y141402D01*
X389557Y141185D01*
X388968Y140982D01*
X388373Y140794D01*
X387775Y140620D01*
X387172Y140461D01*
X386565Y140317D01*
X385955Y140188D01*
X385342Y140074D01*
X384727Y139975D01*
X384109Y139891D01*
X383490Y139822D01*
X382869Y139769D01*
X382246Y139731D01*
X381623Y139708D01*
X381000Y139700D01*
X380377Y139708D01*
X379754Y139731D01*
X379131Y139769D01*
X378510Y139822D01*
X377891Y139891D01*
X377273Y139975D01*
X376658Y140074D01*
X376045Y140188D01*
X375435Y140317D01*
X374828Y140461D01*
X374225Y140620D01*
X373627Y140794D01*
X373032Y140982D01*
X372443Y141185D01*
X371859Y141402D01*
X371280Y141633D01*
X370707Y141879D01*
X370140Y142139D01*
X369580Y142412D01*
X369027Y142699D01*
X368480Y143000D01*
X367942Y143314D01*
X367411Y143641D01*
X366889Y143981D01*
X366374Y144333D01*
X365869Y144699D01*
X365373Y145076D01*
X364886Y145466D01*
X364409Y145867D01*
X363942Y146280D01*
X363486Y146704D01*
X363039Y147139D01*
X362604Y147586D01*
X362180Y148042D01*
X361767Y148509D01*
X361366Y148986D01*
X360976Y149473D01*
X360599Y149969D01*
X360233Y150474D01*
X359881Y150989D01*
X359541Y151511D01*
X359214Y152042D01*
X358900Y152580D01*
X358599Y153127D01*
X358312Y153680D01*
X358039Y154240D01*
X357779Y154807D01*
X357533Y155380D01*
X357302Y155959D01*
X357085Y156543D01*
X356882Y157132D01*
X356694Y157727D01*
X356520Y158325D01*
X356361Y158928D01*
X356217Y159535D01*
X356088Y160145D01*
X355974Y160758D01*
X355875Y161373D01*
X355791Y161991D01*
X355722Y162610D01*
X355669Y163231D01*
X355631Y163854D01*
X355608Y164477D01*
X355600Y165100D01*
D11*
X345403Y140335D02*
X342863Y140335D01*
X342763Y140337D01*
X342664Y140343D01*
X342564Y140353D01*
X342466Y140366D01*
X342367Y140384D01*
X342270Y140405D01*
X342174Y140430D01*
X342078Y140459D01*
X341984Y140492D01*
X341891Y140528D01*
X341800Y140568D01*
X341710Y140612D01*
X341622Y140659D01*
X341536Y140709D01*
X341452Y140763D01*
X341370Y140820D01*
X341291Y140880D01*
X341213Y140944D01*
X341139Y141010D01*
X341067Y141079D01*
X340998Y141151D01*
X340932Y141225D01*
X340868Y141303D01*
X340808Y141382D01*
X340751Y141464D01*
X340697Y141548D01*
X340647Y141634D01*
X340600Y141722D01*
X340556Y141812D01*
X340516Y141903D01*
X340480Y141996D01*
X340447Y142090D01*
X340418Y142186D01*
X340393Y142282D01*
X340372Y142379D01*
X340354Y142478D01*
X340341Y142576D01*
X340331Y142676D01*
X340325Y142775D01*
X340323Y142875D01*
X340323Y149225D01*
X340325Y149325D01*
X340331Y149424D01*
X340341Y149524D01*
X340354Y149622D01*
X340372Y149721D01*
X340393Y149818D01*
X340418Y149914D01*
X340447Y150010D01*
X340480Y150104D01*
X340516Y150197D01*
X340556Y150288D01*
X340600Y150378D01*
X340647Y150466D01*
X340697Y150552D01*
X340751Y150636D01*
X340808Y150718D01*
X340868Y150797D01*
X340932Y150875D01*
X340998Y150949D01*
X341067Y151021D01*
X341139Y151090D01*
X341213Y151156D01*
X341291Y151220D01*
X341370Y151280D01*
X341452Y151337D01*
X341536Y151391D01*
X341622Y151441D01*
X341710Y151488D01*
X341800Y151532D01*
X341891Y151572D01*
X341984Y151608D01*
X342078Y151641D01*
X342174Y151670D01*
X342270Y151695D01*
X342367Y151716D01*
X342466Y151734D01*
X342564Y151747D01*
X342664Y151757D01*
X342763Y151763D01*
X342863Y151765D01*
X345403Y151765D01*
X349885Y149225D02*
X353060Y151765D01*
X353060Y140335D01*
X349885Y140335D02*
X356235Y140335D01*
X680720Y375666D02*
X680720Y479806D01*
X521970Y479806D02*
X521970Y375666D01*
X556260Y479806D02*
X680720Y479806D01*
X556260Y479806D02*
X556260Y470916D01*
X541020Y470916D01*
X541020Y479806D01*
X521970Y479806D01*
X556260Y375666D02*
X680720Y375666D01*
X556260Y375666D02*
X556260Y384556D01*
X541020Y384556D01*
X541020Y375666D01*
X521970Y375666D01*
D12*
X674370Y382016D02*
X674370Y473456D01*
X591820Y473456D01*
X591820Y382016D01*
X674370Y382016D01*
D11*
X538226Y427736D02*
X538231Y428179D01*
X538248Y428621D01*
X538275Y429063D01*
X538313Y429504D01*
X538362Y429944D01*
X538421Y430382D01*
X538492Y430819D01*
X538573Y431254D01*
X538664Y431687D01*
X538766Y432118D01*
X538879Y432546D01*
X539003Y432971D01*
X539136Y433393D01*
X539280Y433811D01*
X539434Y434226D01*
X539599Y434637D01*
X539773Y435044D01*
X539957Y435447D01*
X540152Y435844D01*
X540355Y436237D01*
X540569Y436625D01*
X540792Y437007D01*
X541024Y437384D01*
X541265Y437755D01*
X541516Y438120D01*
X541775Y438479D01*
X542043Y438831D01*
X542320Y439177D01*
X542604Y439515D01*
X542898Y439847D01*
X543199Y440171D01*
X543508Y440488D01*
X543825Y440797D01*
X544149Y441098D01*
X544481Y441392D01*
X544819Y441676D01*
X545165Y441953D01*
X545517Y442221D01*
X545876Y442480D01*
X546241Y442731D01*
X546612Y442972D01*
X546989Y443204D01*
X547371Y443427D01*
X547759Y443641D01*
X548152Y443844D01*
X548549Y444039D01*
X548952Y444223D01*
X549359Y444397D01*
X549770Y444562D01*
X550185Y444716D01*
X550603Y444860D01*
X551025Y444993D01*
X551450Y445117D01*
X551878Y445230D01*
X552309Y445332D01*
X552742Y445423D01*
X553177Y445504D01*
X553614Y445575D01*
X554052Y445634D01*
X554492Y445683D01*
X554933Y445721D01*
X555375Y445748D01*
X555817Y445765D01*
X556260Y445770D01*
X556703Y445765D01*
X557145Y445748D01*
X557587Y445721D01*
X558028Y445683D01*
X558468Y445634D01*
X558906Y445575D01*
X559343Y445504D01*
X559778Y445423D01*
X560211Y445332D01*
X560642Y445230D01*
X561070Y445117D01*
X561495Y444993D01*
X561917Y444860D01*
X562335Y444716D01*
X562750Y444562D01*
X563161Y444397D01*
X563568Y444223D01*
X563971Y444039D01*
X564368Y443844D01*
X564761Y443641D01*
X565149Y443427D01*
X565531Y443204D01*
X565908Y442972D01*
X566279Y442731D01*
X566644Y442480D01*
X567003Y442221D01*
X567355Y441953D01*
X567701Y441676D01*
X568039Y441392D01*
X568371Y441098D01*
X568695Y440797D01*
X569012Y440488D01*
X569321Y440171D01*
X569622Y439847D01*
X569916Y439515D01*
X570200Y439177D01*
X570477Y438831D01*
X570745Y438479D01*
X571004Y438120D01*
X571255Y437755D01*
X571496Y437384D01*
X571728Y437007D01*
X571951Y436625D01*
X572165Y436237D01*
X572368Y435844D01*
X572563Y435447D01*
X572747Y435044D01*
X572921Y434637D01*
X573086Y434226D01*
X573240Y433811D01*
X573384Y433393D01*
X573517Y432971D01*
X573641Y432546D01*
X573754Y432118D01*
X573856Y431687D01*
X573947Y431254D01*
X574028Y430819D01*
X574099Y430382D01*
X574158Y429944D01*
X574207Y429504D01*
X574245Y429063D01*
X574272Y428621D01*
X574289Y428179D01*
X574294Y427736D01*
X574289Y427293D01*
X574272Y426851D01*
X574245Y426409D01*
X574207Y425968D01*
X574158Y425528D01*
X574099Y425090D01*
X574028Y424653D01*
X573947Y424218D01*
X573856Y423785D01*
X573754Y423354D01*
X573641Y422926D01*
X573517Y422501D01*
X573384Y422079D01*
X573240Y421661D01*
X573086Y421246D01*
X572921Y420835D01*
X572747Y420428D01*
X572563Y420025D01*
X572368Y419628D01*
X572165Y419235D01*
X571951Y418847D01*
X571728Y418465D01*
X571496Y418088D01*
X571255Y417717D01*
X571004Y417352D01*
X570745Y416993D01*
X570477Y416641D01*
X570200Y416295D01*
X569916Y415957D01*
X569622Y415625D01*
X569321Y415301D01*
X569012Y414984D01*
X568695Y414675D01*
X568371Y414374D01*
X568039Y414080D01*
X567701Y413796D01*
X567355Y413519D01*
X567003Y413251D01*
X566644Y412992D01*
X566279Y412741D01*
X565908Y412500D01*
X565531Y412268D01*
X565149Y412045D01*
X564761Y411831D01*
X564368Y411628D01*
X563971Y411433D01*
X563568Y411249D01*
X563161Y411075D01*
X562750Y410910D01*
X562335Y410756D01*
X561917Y410612D01*
X561495Y410479D01*
X561070Y410355D01*
X560642Y410242D01*
X560211Y410140D01*
X559778Y410049D01*
X559343Y409968D01*
X558906Y409897D01*
X558468Y409838D01*
X558028Y409789D01*
X557587Y409751D01*
X557145Y409724D01*
X556703Y409707D01*
X556260Y409702D01*
X555817Y409707D01*
X555375Y409724D01*
X554933Y409751D01*
X554492Y409789D01*
X554052Y409838D01*
X553614Y409897D01*
X553177Y409968D01*
X552742Y410049D01*
X552309Y410140D01*
X551878Y410242D01*
X551450Y410355D01*
X551025Y410479D01*
X550603Y410612D01*
X550185Y410756D01*
X549770Y410910D01*
X549359Y411075D01*
X548952Y411249D01*
X548549Y411433D01*
X548152Y411628D01*
X547759Y411831D01*
X547371Y412045D01*
X546989Y412268D01*
X546612Y412500D01*
X546241Y412741D01*
X545876Y412992D01*
X545517Y413251D01*
X545165Y413519D01*
X544819Y413796D01*
X544481Y414080D01*
X544149Y414374D01*
X543825Y414675D01*
X543508Y414984D01*
X543199Y415301D01*
X542898Y415625D01*
X542604Y415957D01*
X542320Y416295D01*
X542043Y416641D01*
X541775Y416993D01*
X541516Y417352D01*
X541265Y417717D01*
X541024Y418088D01*
X540792Y418465D01*
X540569Y418847D01*
X540355Y419235D01*
X540152Y419628D01*
X539957Y420025D01*
X539773Y420428D01*
X539599Y420835D01*
X539434Y421246D01*
X539280Y421661D01*
X539136Y422079D01*
X539003Y422501D01*
X538879Y422926D01*
X538766Y423354D01*
X538664Y423785D01*
X538573Y424218D01*
X538492Y424653D01*
X538421Y425090D01*
X538362Y425528D01*
X538313Y425968D01*
X538275Y426409D01*
X538248Y426851D01*
X538231Y427293D01*
X538226Y427736D01*
X580009Y386800D02*
X588645Y383921D01*
X588645Y389678D02*
X580009Y386800D01*
X586486Y388959D02*
X586486Y384641D01*
X581928Y393316D02*
X580009Y395715D01*
X588645Y395715D01*
X588645Y393316D02*
X588645Y398114D01*
X580969Y402232D02*
X580009Y402232D01*
X580009Y407029D01*
X588645Y404630D01*
X588645Y410587D02*
X588645Y411067D01*
X588645Y410587D02*
X588165Y410587D01*
X588165Y411067D01*
X588645Y411067D01*
X590564Y410348D01*
X588645Y414713D02*
X588645Y417592D01*
X588643Y417678D01*
X588637Y417764D01*
X588628Y417850D01*
X588614Y417935D01*
X588597Y418019D01*
X588576Y418103D01*
X588551Y418185D01*
X588523Y418266D01*
X588491Y418346D01*
X588455Y418425D01*
X588416Y418501D01*
X588373Y418576D01*
X588328Y418649D01*
X588279Y418720D01*
X588226Y418788D01*
X588171Y418855D01*
X588113Y418918D01*
X588052Y418979D01*
X587989Y419037D01*
X587922Y419092D01*
X587854Y419145D01*
X587783Y419194D01*
X587710Y419239D01*
X587635Y419282D01*
X587559Y419321D01*
X587480Y419357D01*
X587400Y419389D01*
X587319Y419417D01*
X587237Y419442D01*
X587153Y419463D01*
X587069Y419480D01*
X586984Y419494D01*
X586898Y419503D01*
X586812Y419509D01*
X586726Y419511D01*
X585766Y419511D01*
X585680Y419509D01*
X585594Y419503D01*
X585508Y419494D01*
X585423Y419480D01*
X585339Y419463D01*
X585255Y419442D01*
X585173Y419417D01*
X585092Y419389D01*
X585012Y419357D01*
X584933Y419321D01*
X584857Y419282D01*
X584782Y419239D01*
X584709Y419194D01*
X584638Y419145D01*
X584570Y419092D01*
X584503Y419037D01*
X584440Y418979D01*
X584379Y418918D01*
X584321Y418855D01*
X584266Y418788D01*
X584214Y418720D01*
X584164Y418649D01*
X584119Y418576D01*
X584076Y418501D01*
X584037Y418425D01*
X584001Y418346D01*
X583969Y418266D01*
X583941Y418185D01*
X583916Y418103D01*
X583895Y418019D01*
X583878Y417935D01*
X583864Y417850D01*
X583855Y417764D01*
X583849Y417678D01*
X583847Y417592D01*
X583847Y414713D01*
X580009Y414713D01*
X580009Y419511D01*
X582888Y424040D02*
X588645Y424040D01*
X582888Y424040D02*
X582888Y428358D01*
X582890Y428433D01*
X582896Y428508D01*
X582906Y428583D01*
X582919Y428657D01*
X582937Y428730D01*
X582958Y428803D01*
X582984Y428874D01*
X583012Y428943D01*
X583045Y429011D01*
X583081Y429078D01*
X583120Y429142D01*
X583163Y429204D01*
X583209Y429264D01*
X583258Y429321D01*
X583309Y429376D01*
X583364Y429427D01*
X583421Y429476D01*
X583481Y429522D01*
X583543Y429565D01*
X583608Y429604D01*
X583674Y429640D01*
X583742Y429673D01*
X583811Y429701D01*
X583882Y429727D01*
X583955Y429748D01*
X584028Y429766D01*
X584102Y429779D01*
X584177Y429789D01*
X584252Y429795D01*
X584327Y429797D01*
X588645Y429797D01*
X588645Y426919D02*
X582888Y426919D01*
X582888Y434739D02*
X588645Y434739D01*
X582888Y434739D02*
X582888Y439057D01*
X582890Y439132D01*
X582896Y439207D01*
X582906Y439282D01*
X582919Y439356D01*
X582937Y439429D01*
X582958Y439502D01*
X582984Y439573D01*
X583012Y439642D01*
X583045Y439710D01*
X583081Y439777D01*
X583120Y439841D01*
X583163Y439903D01*
X583209Y439963D01*
X583258Y440020D01*
X583309Y440075D01*
X583364Y440126D01*
X583421Y440175D01*
X583481Y440221D01*
X583543Y440264D01*
X583608Y440303D01*
X583674Y440339D01*
X583742Y440372D01*
X583811Y440400D01*
X583882Y440426D01*
X583955Y440447D01*
X584028Y440465D01*
X584102Y440478D01*
X584177Y440488D01*
X584252Y440494D01*
X584327Y440496D01*
X588645Y440496D01*
X588645Y437617D02*
X582888Y437617D01*
D13*
X711835Y453136D03*
X711835Y427736D03*
X711835Y402336D03*
D14*
X694690Y402336D03*
X694690Y427736D03*
X694690Y453136D03*
D11*
X716407Y377571D02*
X727837Y377571D01*
X716407Y377571D02*
X716407Y382651D01*
X721487Y382651D02*
X721487Y377571D01*
X727837Y387477D02*
X727837Y392557D01*
X727837Y387477D02*
X716407Y387477D01*
X716407Y392557D01*
X721487Y391287D02*
X721487Y387477D01*
X716407Y399390D02*
X727837Y399390D01*
X716407Y396215D02*
X716407Y402565D01*
X729107Y406375D02*
X729107Y411455D01*
X727837Y415392D02*
X716407Y419202D01*
X727837Y423012D01*
X724980Y422059D02*
X724980Y416344D01*
X727837Y428346D02*
X716407Y428346D01*
X727837Y427076D02*
X727837Y429616D01*
X716407Y429616D02*
X716407Y427076D01*
X716407Y434778D02*
X727837Y434778D01*
X716407Y434778D02*
X716407Y437953D01*
X716409Y438064D01*
X716415Y438174D01*
X716424Y438285D01*
X716438Y438395D01*
X716455Y438504D01*
X716476Y438613D01*
X716501Y438721D01*
X716530Y438828D01*
X716562Y438934D01*
X716598Y439039D01*
X716638Y439142D01*
X716681Y439244D01*
X716728Y439345D01*
X716779Y439444D01*
X716832Y439541D01*
X716889Y439635D01*
X716950Y439728D01*
X717013Y439819D01*
X717080Y439908D01*
X717150Y439994D01*
X717223Y440077D01*
X717298Y440159D01*
X717376Y440237D01*
X717458Y440312D01*
X717541Y440385D01*
X717627Y440455D01*
X717716Y440522D01*
X717807Y440585D01*
X717900Y440646D01*
X717995Y440703D01*
X718091Y440756D01*
X718190Y440807D01*
X718291Y440854D01*
X718393Y440897D01*
X718496Y440937D01*
X718601Y440973D01*
X718707Y441005D01*
X718814Y441034D01*
X718922Y441059D01*
X719031Y441080D01*
X719140Y441097D01*
X719250Y441111D01*
X719361Y441120D01*
X719471Y441126D01*
X719582Y441128D01*
X719693Y441126D01*
X719803Y441120D01*
X719914Y441111D01*
X720024Y441097D01*
X720133Y441080D01*
X720242Y441059D01*
X720350Y441034D01*
X720457Y441005D01*
X720563Y440973D01*
X720668Y440937D01*
X720771Y440897D01*
X720873Y440854D01*
X720974Y440807D01*
X721073Y440756D01*
X721170Y440703D01*
X721264Y440646D01*
X721357Y440585D01*
X721448Y440522D01*
X721537Y440455D01*
X721623Y440385D01*
X721706Y440312D01*
X721788Y440237D01*
X721866Y440159D01*
X721941Y440077D01*
X722014Y439994D01*
X722084Y439908D01*
X722151Y439819D01*
X722214Y439728D01*
X722275Y439635D01*
X722332Y439541D01*
X722385Y439444D01*
X722436Y439345D01*
X722483Y439244D01*
X722526Y439142D01*
X722566Y439039D01*
X722602Y438934D01*
X722634Y438828D01*
X722663Y438721D01*
X722688Y438613D01*
X722709Y438504D01*
X722726Y438395D01*
X722740Y438285D01*
X722749Y438174D01*
X722755Y438064D01*
X722757Y437953D01*
X722757Y434778D01*
X722757Y438588D02*
X727837Y441128D01*
X727837Y446697D02*
X716407Y446697D01*
X716407Y449872D01*
X716409Y449983D01*
X716415Y450093D01*
X716424Y450204D01*
X716438Y450314D01*
X716455Y450423D01*
X716476Y450532D01*
X716501Y450640D01*
X716530Y450747D01*
X716562Y450853D01*
X716598Y450958D01*
X716638Y451061D01*
X716681Y451163D01*
X716728Y451264D01*
X716779Y451363D01*
X716832Y451460D01*
X716889Y451554D01*
X716950Y451647D01*
X717013Y451738D01*
X717080Y451827D01*
X717150Y451913D01*
X717223Y451996D01*
X717298Y452078D01*
X717376Y452156D01*
X717458Y452231D01*
X717541Y452304D01*
X717627Y452374D01*
X717716Y452441D01*
X717807Y452504D01*
X717900Y452565D01*
X717995Y452622D01*
X718091Y452675D01*
X718190Y452726D01*
X718291Y452773D01*
X718393Y452816D01*
X718496Y452856D01*
X718601Y452892D01*
X718707Y452924D01*
X718814Y452953D01*
X718922Y452978D01*
X719031Y452999D01*
X719140Y453016D01*
X719250Y453030D01*
X719361Y453039D01*
X719471Y453045D01*
X719582Y453047D01*
X719693Y453045D01*
X719803Y453039D01*
X719914Y453030D01*
X720024Y453016D01*
X720133Y452999D01*
X720242Y452978D01*
X720350Y452953D01*
X720457Y452924D01*
X720563Y452892D01*
X720668Y452856D01*
X720771Y452816D01*
X720873Y452773D01*
X720974Y452726D01*
X721073Y452675D01*
X721170Y452622D01*
X721264Y452565D01*
X721357Y452504D01*
X721448Y452441D01*
X721537Y452374D01*
X721623Y452304D01*
X721706Y452231D01*
X721788Y452156D01*
X721866Y452078D01*
X721941Y451996D01*
X722014Y451913D01*
X722084Y451827D01*
X722151Y451738D01*
X722214Y451647D01*
X722275Y451554D01*
X722332Y451460D01*
X722385Y451363D01*
X722436Y451264D01*
X722483Y451163D01*
X722526Y451061D01*
X722566Y450958D01*
X722602Y450853D01*
X722634Y450747D01*
X722663Y450640D01*
X722688Y450532D01*
X722709Y450423D01*
X722726Y450314D01*
X722740Y450204D01*
X722749Y450093D01*
X722755Y449983D01*
X722757Y449872D01*
X722757Y446697D01*
X724662Y457937D02*
X716407Y457937D01*
X724662Y457937D02*
X724773Y457939D01*
X724883Y457945D01*
X724994Y457954D01*
X725104Y457968D01*
X725213Y457985D01*
X725322Y458006D01*
X725430Y458031D01*
X725537Y458060D01*
X725643Y458092D01*
X725748Y458128D01*
X725851Y458168D01*
X725953Y458211D01*
X726054Y458258D01*
X726153Y458309D01*
X726250Y458362D01*
X726344Y458419D01*
X726437Y458480D01*
X726528Y458543D01*
X726617Y458610D01*
X726703Y458680D01*
X726786Y458753D01*
X726868Y458828D01*
X726946Y458906D01*
X727021Y458988D01*
X727094Y459071D01*
X727164Y459157D01*
X727231Y459246D01*
X727294Y459337D01*
X727355Y459430D01*
X727412Y459524D01*
X727465Y459621D01*
X727516Y459720D01*
X727563Y459821D01*
X727606Y459923D01*
X727646Y460026D01*
X727682Y460131D01*
X727714Y460237D01*
X727743Y460344D01*
X727768Y460452D01*
X727789Y460561D01*
X727806Y460670D01*
X727820Y460780D01*
X727829Y460891D01*
X727835Y461001D01*
X727837Y461112D01*
X727835Y461223D01*
X727829Y461333D01*
X727820Y461444D01*
X727806Y461554D01*
X727789Y461663D01*
X727768Y461772D01*
X727743Y461880D01*
X727714Y461987D01*
X727682Y462093D01*
X727646Y462198D01*
X727606Y462301D01*
X727563Y462403D01*
X727516Y462504D01*
X727465Y462603D01*
X727412Y462699D01*
X727355Y462794D01*
X727294Y462887D01*
X727231Y462978D01*
X727164Y463067D01*
X727094Y463153D01*
X727021Y463236D01*
X726946Y463318D01*
X726868Y463396D01*
X726786Y463471D01*
X726703Y463544D01*
X726617Y463614D01*
X726528Y463681D01*
X726437Y463744D01*
X726344Y463805D01*
X726250Y463862D01*
X726153Y463915D01*
X726054Y463966D01*
X725953Y464013D01*
X725851Y464056D01*
X725748Y464096D01*
X725643Y464132D01*
X725537Y464164D01*
X725430Y464193D01*
X725322Y464218D01*
X725213Y464239D01*
X725104Y464256D01*
X724994Y464270D01*
X724883Y464279D01*
X724773Y464285D01*
X724662Y464287D01*
X716407Y464287D01*
X716407Y470256D02*
X727837Y470256D01*
X722757Y474066D02*
X716407Y470256D01*
X722757Y474066D02*
X716407Y477876D01*
X727837Y477876D01*
X727837Y484035D02*
X716407Y484035D01*
X716407Y487210D01*
X716409Y487321D01*
X716415Y487431D01*
X716424Y487542D01*
X716438Y487652D01*
X716455Y487761D01*
X716476Y487870D01*
X716501Y487978D01*
X716530Y488085D01*
X716562Y488191D01*
X716598Y488296D01*
X716638Y488399D01*
X716681Y488501D01*
X716728Y488602D01*
X716779Y488701D01*
X716832Y488798D01*
X716889Y488892D01*
X716950Y488985D01*
X717013Y489076D01*
X717080Y489165D01*
X717150Y489251D01*
X717223Y489334D01*
X717298Y489416D01*
X717376Y489494D01*
X717458Y489569D01*
X717541Y489642D01*
X717627Y489712D01*
X717716Y489779D01*
X717807Y489842D01*
X717900Y489903D01*
X717995Y489960D01*
X718091Y490013D01*
X718190Y490064D01*
X718291Y490111D01*
X718393Y490154D01*
X718496Y490194D01*
X718601Y490230D01*
X718707Y490262D01*
X718814Y490291D01*
X718922Y490316D01*
X719031Y490337D01*
X719140Y490354D01*
X719250Y490368D01*
X719361Y490377D01*
X719471Y490383D01*
X719582Y490385D01*
X719693Y490383D01*
X719803Y490377D01*
X719914Y490368D01*
X720024Y490354D01*
X720133Y490337D01*
X720242Y490316D01*
X720350Y490291D01*
X720457Y490262D01*
X720563Y490230D01*
X720668Y490194D01*
X720771Y490154D01*
X720873Y490111D01*
X720974Y490064D01*
X721073Y490013D01*
X721170Y489960D01*
X721264Y489903D01*
X721357Y489842D01*
X721448Y489779D01*
X721537Y489712D01*
X721623Y489642D01*
X721706Y489569D01*
X721788Y489494D01*
X721866Y489416D01*
X721941Y489334D01*
X722014Y489251D01*
X722084Y489165D01*
X722151Y489076D01*
X722214Y488985D01*
X722275Y488892D01*
X722332Y488798D01*
X722385Y488701D01*
X722436Y488602D01*
X722483Y488501D01*
X722526Y488399D01*
X722566Y488296D01*
X722602Y488191D01*
X722634Y488085D01*
X722663Y487978D01*
X722688Y487870D01*
X722709Y487761D01*
X722726Y487652D01*
X722740Y487542D01*
X722749Y487431D01*
X722755Y487321D01*
X722757Y487210D01*
X722757Y484035D01*
X680720Y276606D02*
X680720Y172466D01*
X521970Y172466D02*
X521970Y276606D01*
X556260Y276606D02*
X680720Y276606D01*
X556260Y276606D02*
X556260Y267716D01*
X541020Y267716D01*
X541020Y276606D01*
X521970Y276606D01*
X556260Y172466D02*
X680720Y172466D01*
X556260Y172466D02*
X556260Y181356D01*
X541020Y181356D01*
X541020Y172466D01*
X521970Y172466D01*
D12*
X674370Y178816D02*
X674370Y270256D01*
X591820Y270256D01*
X591820Y178816D01*
X674370Y178816D01*
D11*
X538226Y224536D02*
X538231Y224979D01*
X538248Y225421D01*
X538275Y225863D01*
X538313Y226304D01*
X538362Y226744D01*
X538421Y227182D01*
X538492Y227619D01*
X538573Y228054D01*
X538664Y228487D01*
X538766Y228918D01*
X538879Y229346D01*
X539003Y229771D01*
X539136Y230193D01*
X539280Y230611D01*
X539434Y231026D01*
X539599Y231437D01*
X539773Y231844D01*
X539957Y232247D01*
X540152Y232644D01*
X540355Y233037D01*
X540569Y233425D01*
X540792Y233807D01*
X541024Y234184D01*
X541265Y234555D01*
X541516Y234920D01*
X541775Y235279D01*
X542043Y235631D01*
X542320Y235977D01*
X542604Y236315D01*
X542898Y236647D01*
X543199Y236971D01*
X543508Y237288D01*
X543825Y237597D01*
X544149Y237898D01*
X544481Y238192D01*
X544819Y238476D01*
X545165Y238753D01*
X545517Y239021D01*
X545876Y239280D01*
X546241Y239531D01*
X546612Y239772D01*
X546989Y240004D01*
X547371Y240227D01*
X547759Y240441D01*
X548152Y240644D01*
X548549Y240839D01*
X548952Y241023D01*
X549359Y241197D01*
X549770Y241362D01*
X550185Y241516D01*
X550603Y241660D01*
X551025Y241793D01*
X551450Y241917D01*
X551878Y242030D01*
X552309Y242132D01*
X552742Y242223D01*
X553177Y242304D01*
X553614Y242375D01*
X554052Y242434D01*
X554492Y242483D01*
X554933Y242521D01*
X555375Y242548D01*
X555817Y242565D01*
X556260Y242570D01*
X556703Y242565D01*
X557145Y242548D01*
X557587Y242521D01*
X558028Y242483D01*
X558468Y242434D01*
X558906Y242375D01*
X559343Y242304D01*
X559778Y242223D01*
X560211Y242132D01*
X560642Y242030D01*
X561070Y241917D01*
X561495Y241793D01*
X561917Y241660D01*
X562335Y241516D01*
X562750Y241362D01*
X563161Y241197D01*
X563568Y241023D01*
X563971Y240839D01*
X564368Y240644D01*
X564761Y240441D01*
X565149Y240227D01*
X565531Y240004D01*
X565908Y239772D01*
X566279Y239531D01*
X566644Y239280D01*
X567003Y239021D01*
X567355Y238753D01*
X567701Y238476D01*
X568039Y238192D01*
X568371Y237898D01*
X568695Y237597D01*
X569012Y237288D01*
X569321Y236971D01*
X569622Y236647D01*
X569916Y236315D01*
X570200Y235977D01*
X570477Y235631D01*
X570745Y235279D01*
X571004Y234920D01*
X571255Y234555D01*
X571496Y234184D01*
X571728Y233807D01*
X571951Y233425D01*
X572165Y233037D01*
X572368Y232644D01*
X572563Y232247D01*
X572747Y231844D01*
X572921Y231437D01*
X573086Y231026D01*
X573240Y230611D01*
X573384Y230193D01*
X573517Y229771D01*
X573641Y229346D01*
X573754Y228918D01*
X573856Y228487D01*
X573947Y228054D01*
X574028Y227619D01*
X574099Y227182D01*
X574158Y226744D01*
X574207Y226304D01*
X574245Y225863D01*
X574272Y225421D01*
X574289Y224979D01*
X574294Y224536D01*
X574289Y224093D01*
X574272Y223651D01*
X574245Y223209D01*
X574207Y222768D01*
X574158Y222328D01*
X574099Y221890D01*
X574028Y221453D01*
X573947Y221018D01*
X573856Y220585D01*
X573754Y220154D01*
X573641Y219726D01*
X573517Y219301D01*
X573384Y218879D01*
X573240Y218461D01*
X573086Y218046D01*
X572921Y217635D01*
X572747Y217228D01*
X572563Y216825D01*
X572368Y216428D01*
X572165Y216035D01*
X571951Y215647D01*
X571728Y215265D01*
X571496Y214888D01*
X571255Y214517D01*
X571004Y214152D01*
X570745Y213793D01*
X570477Y213441D01*
X570200Y213095D01*
X569916Y212757D01*
X569622Y212425D01*
X569321Y212101D01*
X569012Y211784D01*
X568695Y211475D01*
X568371Y211174D01*
X568039Y210880D01*
X567701Y210596D01*
X567355Y210319D01*
X567003Y210051D01*
X566644Y209792D01*
X566279Y209541D01*
X565908Y209300D01*
X565531Y209068D01*
X565149Y208845D01*
X564761Y208631D01*
X564368Y208428D01*
X563971Y208233D01*
X563568Y208049D01*
X563161Y207875D01*
X562750Y207710D01*
X562335Y207556D01*
X561917Y207412D01*
X561495Y207279D01*
X561070Y207155D01*
X560642Y207042D01*
X560211Y206940D01*
X559778Y206849D01*
X559343Y206768D01*
X558906Y206697D01*
X558468Y206638D01*
X558028Y206589D01*
X557587Y206551D01*
X557145Y206524D01*
X556703Y206507D01*
X556260Y206502D01*
X555817Y206507D01*
X555375Y206524D01*
X554933Y206551D01*
X554492Y206589D01*
X554052Y206638D01*
X553614Y206697D01*
X553177Y206768D01*
X552742Y206849D01*
X552309Y206940D01*
X551878Y207042D01*
X551450Y207155D01*
X551025Y207279D01*
X550603Y207412D01*
X550185Y207556D01*
X549770Y207710D01*
X549359Y207875D01*
X548952Y208049D01*
X548549Y208233D01*
X548152Y208428D01*
X547759Y208631D01*
X547371Y208845D01*
X546989Y209068D01*
X546612Y209300D01*
X546241Y209541D01*
X545876Y209792D01*
X545517Y210051D01*
X545165Y210319D01*
X544819Y210596D01*
X544481Y210880D01*
X544149Y211174D01*
X543825Y211475D01*
X543508Y211784D01*
X543199Y212101D01*
X542898Y212425D01*
X542604Y212757D01*
X542320Y213095D01*
X542043Y213441D01*
X541775Y213793D01*
X541516Y214152D01*
X541265Y214517D01*
X541024Y214888D01*
X540792Y215265D01*
X540569Y215647D01*
X540355Y216035D01*
X540152Y216428D01*
X539957Y216825D01*
X539773Y217228D01*
X539599Y217635D01*
X539434Y218046D01*
X539280Y218461D01*
X539136Y218879D01*
X539003Y219301D01*
X538879Y219726D01*
X538766Y220154D01*
X538664Y220585D01*
X538573Y221018D01*
X538492Y221453D01*
X538421Y221890D01*
X538362Y222328D01*
X538313Y222768D01*
X538275Y223209D01*
X538248Y223651D01*
X538231Y224093D01*
X538226Y224536D01*
X580009Y183600D02*
X588645Y180721D01*
X588645Y186478D02*
X580009Y183600D01*
X586486Y185759D02*
X586486Y181441D01*
X581928Y190116D02*
X580009Y192515D01*
X588645Y192515D01*
X588645Y190116D02*
X588645Y194914D01*
X580969Y199032D02*
X580009Y199032D01*
X580009Y203829D01*
X588645Y201430D01*
X588645Y207387D02*
X588645Y207867D01*
X588645Y207387D02*
X588165Y207387D01*
X588165Y207867D01*
X588645Y207867D01*
X590564Y207148D01*
X588645Y211513D02*
X588645Y214392D01*
X588643Y214478D01*
X588637Y214564D01*
X588628Y214650D01*
X588614Y214735D01*
X588597Y214819D01*
X588576Y214903D01*
X588551Y214985D01*
X588523Y215066D01*
X588491Y215146D01*
X588455Y215225D01*
X588416Y215301D01*
X588373Y215376D01*
X588328Y215449D01*
X588279Y215520D01*
X588226Y215588D01*
X588171Y215655D01*
X588113Y215718D01*
X588052Y215779D01*
X587989Y215837D01*
X587922Y215892D01*
X587854Y215945D01*
X587783Y215994D01*
X587710Y216039D01*
X587635Y216082D01*
X587559Y216121D01*
X587480Y216157D01*
X587400Y216189D01*
X587319Y216217D01*
X587237Y216242D01*
X587153Y216263D01*
X587069Y216280D01*
X586984Y216294D01*
X586898Y216303D01*
X586812Y216309D01*
X586726Y216311D01*
X585766Y216311D01*
X585680Y216309D01*
X585594Y216303D01*
X585508Y216294D01*
X585423Y216280D01*
X585339Y216263D01*
X585255Y216242D01*
X585173Y216217D01*
X585092Y216189D01*
X585012Y216157D01*
X584933Y216121D01*
X584857Y216082D01*
X584782Y216039D01*
X584709Y215994D01*
X584638Y215945D01*
X584570Y215892D01*
X584503Y215837D01*
X584440Y215779D01*
X584379Y215718D01*
X584321Y215655D01*
X584266Y215588D01*
X584214Y215520D01*
X584164Y215449D01*
X584119Y215376D01*
X584076Y215301D01*
X584037Y215225D01*
X584001Y215146D01*
X583969Y215066D01*
X583941Y214985D01*
X583916Y214903D01*
X583895Y214819D01*
X583878Y214735D01*
X583864Y214650D01*
X583855Y214564D01*
X583849Y214478D01*
X583847Y214392D01*
X583847Y211513D01*
X580009Y211513D01*
X580009Y216311D01*
X582888Y220840D02*
X588645Y220840D01*
X582888Y220840D02*
X582888Y225158D01*
X582890Y225233D01*
X582896Y225308D01*
X582906Y225383D01*
X582919Y225457D01*
X582937Y225530D01*
X582958Y225603D01*
X582984Y225674D01*
X583012Y225743D01*
X583045Y225811D01*
X583081Y225878D01*
X583120Y225942D01*
X583163Y226004D01*
X583209Y226064D01*
X583258Y226121D01*
X583309Y226176D01*
X583364Y226227D01*
X583421Y226276D01*
X583481Y226322D01*
X583543Y226365D01*
X583608Y226404D01*
X583674Y226440D01*
X583742Y226473D01*
X583811Y226501D01*
X583882Y226527D01*
X583955Y226548D01*
X584028Y226566D01*
X584102Y226579D01*
X584177Y226589D01*
X584252Y226595D01*
X584327Y226597D01*
X588645Y226597D01*
X588645Y223719D02*
X582888Y223719D01*
X582888Y231539D02*
X588645Y231539D01*
X582888Y231539D02*
X582888Y235857D01*
X582890Y235932D01*
X582896Y236007D01*
X582906Y236082D01*
X582919Y236156D01*
X582937Y236229D01*
X582958Y236302D01*
X582984Y236373D01*
X583012Y236442D01*
X583045Y236510D01*
X583081Y236577D01*
X583120Y236641D01*
X583163Y236703D01*
X583209Y236763D01*
X583258Y236820D01*
X583309Y236875D01*
X583364Y236926D01*
X583421Y236975D01*
X583481Y237021D01*
X583543Y237064D01*
X583608Y237103D01*
X583674Y237139D01*
X583742Y237172D01*
X583811Y237200D01*
X583882Y237226D01*
X583955Y237247D01*
X584028Y237265D01*
X584102Y237278D01*
X584177Y237288D01*
X584252Y237294D01*
X584327Y237296D01*
X588645Y237296D01*
X588645Y234417D02*
X582888Y234417D01*
D13*
X711835Y249936D03*
X711835Y224536D03*
X711835Y199136D03*
D14*
X694690Y199136D03*
X694690Y224536D03*
X694690Y249936D03*
D11*
X716407Y174371D02*
X727837Y174371D01*
X716407Y174371D02*
X716407Y179451D01*
X721487Y179451D02*
X721487Y174371D01*
X727837Y184277D02*
X727837Y189357D01*
X727837Y184277D02*
X716407Y184277D01*
X716407Y189357D01*
X721487Y188087D02*
X721487Y184277D01*
X716407Y196190D02*
X727837Y196190D01*
X716407Y193015D02*
X716407Y199365D01*
X729107Y203175D02*
X729107Y208255D01*
X727837Y215329D02*
X727837Y217869D01*
X727837Y215329D02*
X727835Y215229D01*
X727829Y215130D01*
X727819Y215030D01*
X727806Y214932D01*
X727788Y214833D01*
X727767Y214736D01*
X727742Y214640D01*
X727713Y214544D01*
X727680Y214450D01*
X727644Y214357D01*
X727604Y214266D01*
X727560Y214176D01*
X727513Y214088D01*
X727463Y214002D01*
X727409Y213918D01*
X727352Y213836D01*
X727292Y213757D01*
X727228Y213679D01*
X727162Y213605D01*
X727093Y213533D01*
X727021Y213464D01*
X726947Y213398D01*
X726869Y213334D01*
X726790Y213274D01*
X726708Y213217D01*
X726624Y213163D01*
X726538Y213113D01*
X726450Y213066D01*
X726360Y213022D01*
X726269Y212982D01*
X726176Y212946D01*
X726082Y212913D01*
X725986Y212884D01*
X725890Y212859D01*
X725793Y212838D01*
X725694Y212820D01*
X725596Y212807D01*
X725496Y212797D01*
X725397Y212791D01*
X725297Y212789D01*
X718947Y212789D01*
X718847Y212791D01*
X718748Y212797D01*
X718648Y212807D01*
X718550Y212820D01*
X718451Y212838D01*
X718354Y212859D01*
X718258Y212884D01*
X718162Y212913D01*
X718068Y212946D01*
X717975Y212982D01*
X717884Y213022D01*
X717794Y213066D01*
X717706Y213113D01*
X717620Y213163D01*
X717536Y213217D01*
X717454Y213274D01*
X717375Y213334D01*
X717297Y213398D01*
X717223Y213464D01*
X717151Y213533D01*
X717082Y213605D01*
X717016Y213679D01*
X716952Y213757D01*
X716892Y213836D01*
X716835Y213918D01*
X716781Y214002D01*
X716731Y214088D01*
X716684Y214176D01*
X716640Y214266D01*
X716600Y214357D01*
X716564Y214450D01*
X716531Y214544D01*
X716502Y214640D01*
X716477Y214736D01*
X716456Y214833D01*
X716438Y214932D01*
X716425Y215030D01*
X716415Y215130D01*
X716409Y215229D01*
X716407Y215329D01*
X716407Y217869D01*
X719582Y222352D02*
X724662Y222352D01*
X719582Y222352D02*
X719471Y222354D01*
X719361Y222360D01*
X719250Y222369D01*
X719140Y222383D01*
X719031Y222400D01*
X718922Y222421D01*
X718814Y222446D01*
X718707Y222475D01*
X718601Y222507D01*
X718496Y222543D01*
X718393Y222583D01*
X718291Y222626D01*
X718190Y222673D01*
X718091Y222724D01*
X717995Y222777D01*
X717900Y222834D01*
X717807Y222895D01*
X717716Y222958D01*
X717627Y223025D01*
X717541Y223095D01*
X717458Y223168D01*
X717376Y223243D01*
X717298Y223321D01*
X717223Y223403D01*
X717150Y223486D01*
X717080Y223572D01*
X717013Y223661D01*
X716950Y223752D01*
X716889Y223845D01*
X716832Y223940D01*
X716779Y224036D01*
X716728Y224135D01*
X716681Y224236D01*
X716638Y224338D01*
X716598Y224441D01*
X716562Y224546D01*
X716530Y224652D01*
X716501Y224759D01*
X716476Y224867D01*
X716455Y224976D01*
X716438Y225085D01*
X716424Y225195D01*
X716415Y225306D01*
X716409Y225416D01*
X716407Y225527D01*
X716409Y225638D01*
X716415Y225748D01*
X716424Y225859D01*
X716438Y225969D01*
X716455Y226078D01*
X716476Y226187D01*
X716501Y226295D01*
X716530Y226402D01*
X716562Y226508D01*
X716598Y226613D01*
X716638Y226716D01*
X716681Y226818D01*
X716728Y226919D01*
X716779Y227018D01*
X716832Y227115D01*
X716889Y227209D01*
X716950Y227302D01*
X717013Y227393D01*
X717080Y227482D01*
X717150Y227568D01*
X717223Y227651D01*
X717298Y227733D01*
X717376Y227811D01*
X717458Y227886D01*
X717541Y227959D01*
X717627Y228029D01*
X717716Y228096D01*
X717807Y228159D01*
X717900Y228220D01*
X717995Y228277D01*
X718091Y228330D01*
X718190Y228381D01*
X718291Y228428D01*
X718393Y228471D01*
X718496Y228511D01*
X718601Y228547D01*
X718707Y228579D01*
X718814Y228608D01*
X718922Y228633D01*
X719031Y228654D01*
X719140Y228671D01*
X719250Y228685D01*
X719361Y228694D01*
X719471Y228700D01*
X719582Y228702D01*
X724662Y228702D01*
X724773Y228700D01*
X724883Y228694D01*
X724994Y228685D01*
X725104Y228671D01*
X725213Y228654D01*
X725322Y228633D01*
X725430Y228608D01*
X725537Y228579D01*
X725643Y228547D01*
X725748Y228511D01*
X725851Y228471D01*
X725953Y228428D01*
X726054Y228381D01*
X726153Y228330D01*
X726250Y228277D01*
X726344Y228220D01*
X726437Y228159D01*
X726528Y228096D01*
X726617Y228029D01*
X726703Y227959D01*
X726786Y227886D01*
X726868Y227811D01*
X726946Y227733D01*
X727021Y227651D01*
X727094Y227568D01*
X727164Y227482D01*
X727231Y227393D01*
X727294Y227302D01*
X727355Y227209D01*
X727412Y227114D01*
X727465Y227018D01*
X727516Y226919D01*
X727563Y226818D01*
X727606Y226716D01*
X727646Y226613D01*
X727682Y226508D01*
X727714Y226402D01*
X727743Y226295D01*
X727768Y226187D01*
X727789Y226078D01*
X727806Y225969D01*
X727820Y225859D01*
X727829Y225748D01*
X727835Y225638D01*
X727837Y225527D01*
X727835Y225416D01*
X727829Y225306D01*
X727820Y225195D01*
X727806Y225085D01*
X727789Y224976D01*
X727768Y224867D01*
X727743Y224759D01*
X727714Y224652D01*
X727682Y224546D01*
X727646Y224441D01*
X727606Y224338D01*
X727563Y224236D01*
X727516Y224135D01*
X727465Y224036D01*
X727412Y223939D01*
X727355Y223845D01*
X727294Y223752D01*
X727231Y223661D01*
X727164Y223572D01*
X727094Y223486D01*
X727021Y223403D01*
X726946Y223321D01*
X726868Y223243D01*
X726786Y223168D01*
X726703Y223095D01*
X726617Y223025D01*
X726528Y222958D01*
X726437Y222895D01*
X726344Y222834D01*
X726250Y222777D01*
X726153Y222724D01*
X726054Y222673D01*
X725953Y222626D01*
X725851Y222583D01*
X725748Y222543D01*
X725643Y222507D01*
X725537Y222475D01*
X725430Y222446D01*
X725322Y222421D01*
X725213Y222400D01*
X725104Y222383D01*
X724994Y222369D01*
X724883Y222360D01*
X724773Y222354D01*
X724662Y222352D01*
X727837Y234188D02*
X716407Y234188D01*
X727837Y234188D02*
X727837Y239268D01*
X727837Y244094D02*
X716407Y244094D01*
X727837Y244094D02*
X727837Y249174D01*
X727837Y254000D02*
X727837Y259080D01*
X727837Y254000D02*
X716407Y254000D01*
X716407Y259080D01*
X721487Y257810D02*
X721487Y254000D01*
X727837Y266002D02*
X727837Y268542D01*
X727837Y266002D02*
X727835Y265902D01*
X727829Y265803D01*
X727819Y265703D01*
X727806Y265605D01*
X727788Y265506D01*
X727767Y265409D01*
X727742Y265313D01*
X727713Y265217D01*
X727680Y265123D01*
X727644Y265030D01*
X727604Y264939D01*
X727560Y264849D01*
X727513Y264761D01*
X727463Y264675D01*
X727409Y264591D01*
X727352Y264509D01*
X727292Y264430D01*
X727228Y264352D01*
X727162Y264278D01*
X727093Y264206D01*
X727021Y264137D01*
X726947Y264071D01*
X726869Y264007D01*
X726790Y263947D01*
X726708Y263890D01*
X726624Y263836D01*
X726538Y263786D01*
X726450Y263739D01*
X726360Y263695D01*
X726269Y263655D01*
X726176Y263619D01*
X726082Y263586D01*
X725986Y263557D01*
X725890Y263532D01*
X725793Y263511D01*
X725694Y263493D01*
X725596Y263480D01*
X725496Y263470D01*
X725397Y263464D01*
X725297Y263462D01*
X718947Y263462D01*
X718847Y263464D01*
X718748Y263470D01*
X718648Y263480D01*
X718550Y263493D01*
X718451Y263511D01*
X718354Y263532D01*
X718258Y263557D01*
X718162Y263586D01*
X718068Y263619D01*
X717975Y263655D01*
X717884Y263695D01*
X717794Y263739D01*
X717706Y263786D01*
X717620Y263836D01*
X717536Y263890D01*
X717454Y263947D01*
X717375Y264007D01*
X717297Y264071D01*
X717223Y264137D01*
X717151Y264206D01*
X717082Y264278D01*
X717016Y264352D01*
X716952Y264430D01*
X716892Y264509D01*
X716835Y264591D01*
X716781Y264675D01*
X716731Y264761D01*
X716684Y264849D01*
X716640Y264939D01*
X716600Y265030D01*
X716564Y265123D01*
X716531Y265217D01*
X716502Y265313D01*
X716477Y265409D01*
X716456Y265506D01*
X716438Y265605D01*
X716425Y265703D01*
X716415Y265803D01*
X716409Y265902D01*
X716407Y266002D01*
X716407Y268542D01*
X716407Y275437D02*
X727837Y275437D01*
X716407Y272262D02*
X716407Y278612D01*
X716407Y283502D02*
X727837Y283502D01*
X716407Y283502D02*
X716407Y286677D01*
X716409Y286788D01*
X716415Y286898D01*
X716424Y287009D01*
X716438Y287119D01*
X716455Y287228D01*
X716476Y287337D01*
X716501Y287445D01*
X716530Y287552D01*
X716562Y287658D01*
X716598Y287763D01*
X716638Y287866D01*
X716681Y287968D01*
X716728Y288069D01*
X716779Y288168D01*
X716832Y288265D01*
X716889Y288359D01*
X716950Y288452D01*
X717013Y288543D01*
X717080Y288632D01*
X717150Y288718D01*
X717223Y288801D01*
X717298Y288883D01*
X717376Y288961D01*
X717458Y289036D01*
X717541Y289109D01*
X717627Y289179D01*
X717716Y289246D01*
X717807Y289309D01*
X717900Y289370D01*
X717995Y289427D01*
X718091Y289480D01*
X718190Y289531D01*
X718291Y289578D01*
X718393Y289621D01*
X718496Y289661D01*
X718601Y289697D01*
X718707Y289729D01*
X718814Y289758D01*
X718922Y289783D01*
X719031Y289804D01*
X719140Y289821D01*
X719250Y289835D01*
X719361Y289844D01*
X719471Y289850D01*
X719582Y289852D01*
X719693Y289850D01*
X719803Y289844D01*
X719914Y289835D01*
X720024Y289821D01*
X720133Y289804D01*
X720242Y289783D01*
X720350Y289758D01*
X720457Y289729D01*
X720563Y289697D01*
X720668Y289661D01*
X720771Y289621D01*
X720873Y289578D01*
X720974Y289531D01*
X721073Y289480D01*
X721170Y289427D01*
X721264Y289370D01*
X721357Y289309D01*
X721448Y289246D01*
X721537Y289179D01*
X721623Y289109D01*
X721706Y289036D01*
X721788Y288961D01*
X721866Y288883D01*
X721941Y288801D01*
X722014Y288718D01*
X722084Y288632D01*
X722151Y288543D01*
X722214Y288452D01*
X722275Y288359D01*
X722332Y288265D01*
X722385Y288168D01*
X722436Y288069D01*
X722483Y287968D01*
X722526Y287866D01*
X722566Y287763D01*
X722602Y287658D01*
X722634Y287552D01*
X722663Y287445D01*
X722688Y287337D01*
X722709Y287228D01*
X722726Y287119D01*
X722740Y287009D01*
X722749Y286898D01*
X722755Y286788D01*
X722757Y286677D01*
X722757Y283502D01*
X724662Y294741D02*
X716407Y294741D01*
X724662Y294741D02*
X724773Y294743D01*
X724883Y294749D01*
X724994Y294758D01*
X725104Y294772D01*
X725213Y294789D01*
X725322Y294810D01*
X725430Y294835D01*
X725537Y294864D01*
X725643Y294896D01*
X725748Y294932D01*
X725851Y294972D01*
X725953Y295015D01*
X726054Y295062D01*
X726153Y295113D01*
X726250Y295166D01*
X726344Y295223D01*
X726437Y295284D01*
X726528Y295347D01*
X726617Y295414D01*
X726703Y295484D01*
X726786Y295557D01*
X726868Y295632D01*
X726946Y295710D01*
X727021Y295792D01*
X727094Y295875D01*
X727164Y295961D01*
X727231Y296050D01*
X727294Y296141D01*
X727355Y296234D01*
X727412Y296328D01*
X727465Y296425D01*
X727516Y296524D01*
X727563Y296625D01*
X727606Y296727D01*
X727646Y296830D01*
X727682Y296935D01*
X727714Y297041D01*
X727743Y297148D01*
X727768Y297256D01*
X727789Y297365D01*
X727806Y297474D01*
X727820Y297584D01*
X727829Y297695D01*
X727835Y297805D01*
X727837Y297916D01*
X727835Y298027D01*
X727829Y298137D01*
X727820Y298248D01*
X727806Y298358D01*
X727789Y298467D01*
X727768Y298576D01*
X727743Y298684D01*
X727714Y298791D01*
X727682Y298897D01*
X727646Y299002D01*
X727606Y299105D01*
X727563Y299207D01*
X727516Y299308D01*
X727465Y299407D01*
X727412Y299503D01*
X727355Y299598D01*
X727294Y299691D01*
X727231Y299782D01*
X727164Y299871D01*
X727094Y299957D01*
X727021Y300040D01*
X726946Y300122D01*
X726868Y300200D01*
X726786Y300275D01*
X726703Y300348D01*
X726617Y300418D01*
X726528Y300485D01*
X726437Y300548D01*
X726344Y300609D01*
X726250Y300666D01*
X726153Y300719D01*
X726054Y300770D01*
X725953Y300817D01*
X725851Y300860D01*
X725748Y300900D01*
X725643Y300936D01*
X725537Y300968D01*
X725430Y300997D01*
X725322Y301022D01*
X725213Y301043D01*
X725104Y301060D01*
X724994Y301074D01*
X724883Y301083D01*
X724773Y301089D01*
X724662Y301091D01*
X716407Y301091D01*
X716407Y307060D02*
X727837Y307060D01*
X722757Y310870D02*
X716407Y307060D01*
X722757Y310870D02*
X716407Y314680D01*
X727837Y314680D01*
X727837Y320840D02*
X716407Y320840D01*
X716407Y324015D01*
X716409Y324126D01*
X716415Y324236D01*
X716424Y324347D01*
X716438Y324457D01*
X716455Y324566D01*
X716476Y324675D01*
X716501Y324783D01*
X716530Y324890D01*
X716562Y324996D01*
X716598Y325101D01*
X716638Y325204D01*
X716681Y325306D01*
X716728Y325407D01*
X716779Y325506D01*
X716832Y325603D01*
X716889Y325697D01*
X716950Y325790D01*
X717013Y325881D01*
X717080Y325970D01*
X717150Y326056D01*
X717223Y326139D01*
X717298Y326221D01*
X717376Y326299D01*
X717458Y326374D01*
X717541Y326447D01*
X717627Y326517D01*
X717716Y326584D01*
X717807Y326647D01*
X717900Y326708D01*
X717995Y326765D01*
X718091Y326818D01*
X718190Y326869D01*
X718291Y326916D01*
X718393Y326959D01*
X718496Y326999D01*
X718601Y327035D01*
X718707Y327067D01*
X718814Y327096D01*
X718922Y327121D01*
X719031Y327142D01*
X719140Y327159D01*
X719250Y327173D01*
X719361Y327182D01*
X719471Y327188D01*
X719582Y327190D01*
X719693Y327188D01*
X719803Y327182D01*
X719914Y327173D01*
X720024Y327159D01*
X720133Y327142D01*
X720242Y327121D01*
X720350Y327096D01*
X720457Y327067D01*
X720563Y327035D01*
X720668Y326999D01*
X720771Y326959D01*
X720873Y326916D01*
X720974Y326869D01*
X721073Y326818D01*
X721170Y326765D01*
X721264Y326708D01*
X721357Y326647D01*
X721448Y326584D01*
X721537Y326517D01*
X721623Y326447D01*
X721706Y326374D01*
X721788Y326299D01*
X721866Y326221D01*
X721941Y326139D01*
X722014Y326056D01*
X722084Y325970D01*
X722151Y325881D01*
X722214Y325790D01*
X722275Y325697D01*
X722332Y325603D01*
X722385Y325506D01*
X722436Y325407D01*
X722483Y325306D01*
X722526Y325204D01*
X722566Y325101D01*
X722602Y324996D01*
X722634Y324890D01*
X722663Y324783D01*
X722688Y324675D01*
X722709Y324566D01*
X722726Y324457D01*
X722740Y324347D01*
X722749Y324236D01*
X722755Y324126D01*
X722757Y324015D01*
X722757Y320840D01*
X680720Y274066D02*
X680720Y378206D01*
X521970Y378206D02*
X521970Y274066D01*
X556260Y378206D02*
X680720Y378206D01*
X556260Y378206D02*
X556260Y369316D01*
X541020Y369316D01*
X541020Y378206D01*
X521970Y378206D01*
X556260Y274066D02*
X680720Y274066D01*
X556260Y274066D02*
X556260Y282956D01*
X541020Y282956D01*
X541020Y274066D01*
X521970Y274066D01*
D12*
X674370Y280416D02*
X674370Y371856D01*
X591820Y371856D01*
X591820Y280416D01*
X674370Y280416D01*
D11*
X538226Y326136D02*
X538231Y326579D01*
X538248Y327021D01*
X538275Y327463D01*
X538313Y327904D01*
X538362Y328344D01*
X538421Y328782D01*
X538492Y329219D01*
X538573Y329654D01*
X538664Y330087D01*
X538766Y330518D01*
X538879Y330946D01*
X539003Y331371D01*
X539136Y331793D01*
X539280Y332211D01*
X539434Y332626D01*
X539599Y333037D01*
X539773Y333444D01*
X539957Y333847D01*
X540152Y334244D01*
X540355Y334637D01*
X540569Y335025D01*
X540792Y335407D01*
X541024Y335784D01*
X541265Y336155D01*
X541516Y336520D01*
X541775Y336879D01*
X542043Y337231D01*
X542320Y337577D01*
X542604Y337915D01*
X542898Y338247D01*
X543199Y338571D01*
X543508Y338888D01*
X543825Y339197D01*
X544149Y339498D01*
X544481Y339792D01*
X544819Y340076D01*
X545165Y340353D01*
X545517Y340621D01*
X545876Y340880D01*
X546241Y341131D01*
X546612Y341372D01*
X546989Y341604D01*
X547371Y341827D01*
X547759Y342041D01*
X548152Y342244D01*
X548549Y342439D01*
X548952Y342623D01*
X549359Y342797D01*
X549770Y342962D01*
X550185Y343116D01*
X550603Y343260D01*
X551025Y343393D01*
X551450Y343517D01*
X551878Y343630D01*
X552309Y343732D01*
X552742Y343823D01*
X553177Y343904D01*
X553614Y343975D01*
X554052Y344034D01*
X554492Y344083D01*
X554933Y344121D01*
X555375Y344148D01*
X555817Y344165D01*
X556260Y344170D01*
X556703Y344165D01*
X557145Y344148D01*
X557587Y344121D01*
X558028Y344083D01*
X558468Y344034D01*
X558906Y343975D01*
X559343Y343904D01*
X559778Y343823D01*
X560211Y343732D01*
X560642Y343630D01*
X561070Y343517D01*
X561495Y343393D01*
X561917Y343260D01*
X562335Y343116D01*
X562750Y342962D01*
X563161Y342797D01*
X563568Y342623D01*
X563971Y342439D01*
X564368Y342244D01*
X564761Y342041D01*
X565149Y341827D01*
X565531Y341604D01*
X565908Y341372D01*
X566279Y341131D01*
X566644Y340880D01*
X567003Y340621D01*
X567355Y340353D01*
X567701Y340076D01*
X568039Y339792D01*
X568371Y339498D01*
X568695Y339197D01*
X569012Y338888D01*
X569321Y338571D01*
X569622Y338247D01*
X569916Y337915D01*
X570200Y337577D01*
X570477Y337231D01*
X570745Y336879D01*
X571004Y336520D01*
X571255Y336155D01*
X571496Y335784D01*
X571728Y335407D01*
X571951Y335025D01*
X572165Y334637D01*
X572368Y334244D01*
X572563Y333847D01*
X572747Y333444D01*
X572921Y333037D01*
X573086Y332626D01*
X573240Y332211D01*
X573384Y331793D01*
X573517Y331371D01*
X573641Y330946D01*
X573754Y330518D01*
X573856Y330087D01*
X573947Y329654D01*
X574028Y329219D01*
X574099Y328782D01*
X574158Y328344D01*
X574207Y327904D01*
X574245Y327463D01*
X574272Y327021D01*
X574289Y326579D01*
X574294Y326136D01*
X574289Y325693D01*
X574272Y325251D01*
X574245Y324809D01*
X574207Y324368D01*
X574158Y323928D01*
X574099Y323490D01*
X574028Y323053D01*
X573947Y322618D01*
X573856Y322185D01*
X573754Y321754D01*
X573641Y321326D01*
X573517Y320901D01*
X573384Y320479D01*
X573240Y320061D01*
X573086Y319646D01*
X572921Y319235D01*
X572747Y318828D01*
X572563Y318425D01*
X572368Y318028D01*
X572165Y317635D01*
X571951Y317247D01*
X571728Y316865D01*
X571496Y316488D01*
X571255Y316117D01*
X571004Y315752D01*
X570745Y315393D01*
X570477Y315041D01*
X570200Y314695D01*
X569916Y314357D01*
X569622Y314025D01*
X569321Y313701D01*
X569012Y313384D01*
X568695Y313075D01*
X568371Y312774D01*
X568039Y312480D01*
X567701Y312196D01*
X567355Y311919D01*
X567003Y311651D01*
X566644Y311392D01*
X566279Y311141D01*
X565908Y310900D01*
X565531Y310668D01*
X565149Y310445D01*
X564761Y310231D01*
X564368Y310028D01*
X563971Y309833D01*
X563568Y309649D01*
X563161Y309475D01*
X562750Y309310D01*
X562335Y309156D01*
X561917Y309012D01*
X561495Y308879D01*
X561070Y308755D01*
X560642Y308642D01*
X560211Y308540D01*
X559778Y308449D01*
X559343Y308368D01*
X558906Y308297D01*
X558468Y308238D01*
X558028Y308189D01*
X557587Y308151D01*
X557145Y308124D01*
X556703Y308107D01*
X556260Y308102D01*
X555817Y308107D01*
X555375Y308124D01*
X554933Y308151D01*
X554492Y308189D01*
X554052Y308238D01*
X553614Y308297D01*
X553177Y308368D01*
X552742Y308449D01*
X552309Y308540D01*
X551878Y308642D01*
X551450Y308755D01*
X551025Y308879D01*
X550603Y309012D01*
X550185Y309156D01*
X549770Y309310D01*
X549359Y309475D01*
X548952Y309649D01*
X548549Y309833D01*
X548152Y310028D01*
X547759Y310231D01*
X547371Y310445D01*
X546989Y310668D01*
X546612Y310900D01*
X546241Y311141D01*
X545876Y311392D01*
X545517Y311651D01*
X545165Y311919D01*
X544819Y312196D01*
X544481Y312480D01*
X544149Y312774D01*
X543825Y313075D01*
X543508Y313384D01*
X543199Y313701D01*
X542898Y314025D01*
X542604Y314357D01*
X542320Y314695D01*
X542043Y315041D01*
X541775Y315393D01*
X541516Y315752D01*
X541265Y316117D01*
X541024Y316488D01*
X540792Y316865D01*
X540569Y317247D01*
X540355Y317635D01*
X540152Y318028D01*
X539957Y318425D01*
X539773Y318828D01*
X539599Y319235D01*
X539434Y319646D01*
X539280Y320061D01*
X539136Y320479D01*
X539003Y320901D01*
X538879Y321326D01*
X538766Y321754D01*
X538664Y322185D01*
X538573Y322618D01*
X538492Y323053D01*
X538421Y323490D01*
X538362Y323928D01*
X538313Y324368D01*
X538275Y324809D01*
X538248Y325251D01*
X538231Y325693D01*
X538226Y326136D01*
X580009Y285200D02*
X588645Y282321D01*
X588645Y288078D02*
X580009Y285200D01*
X586486Y287359D02*
X586486Y283041D01*
X581928Y291716D02*
X580009Y294115D01*
X588645Y294115D01*
X588645Y291716D02*
X588645Y296514D01*
X580969Y300632D02*
X580009Y300632D01*
X580009Y305429D01*
X588645Y303030D01*
X588645Y308987D02*
X588645Y309467D01*
X588645Y308987D02*
X588165Y308987D01*
X588165Y309467D01*
X588645Y309467D01*
X590564Y308748D01*
X588645Y313113D02*
X588645Y315992D01*
X588643Y316078D01*
X588637Y316164D01*
X588628Y316250D01*
X588614Y316335D01*
X588597Y316419D01*
X588576Y316503D01*
X588551Y316585D01*
X588523Y316666D01*
X588491Y316746D01*
X588455Y316825D01*
X588416Y316901D01*
X588373Y316976D01*
X588328Y317049D01*
X588279Y317120D01*
X588226Y317188D01*
X588171Y317255D01*
X588113Y317318D01*
X588052Y317379D01*
X587989Y317437D01*
X587922Y317492D01*
X587854Y317545D01*
X587783Y317594D01*
X587710Y317639D01*
X587635Y317682D01*
X587559Y317721D01*
X587480Y317757D01*
X587400Y317789D01*
X587319Y317817D01*
X587237Y317842D01*
X587153Y317863D01*
X587069Y317880D01*
X586984Y317894D01*
X586898Y317903D01*
X586812Y317909D01*
X586726Y317911D01*
X585766Y317911D01*
X585680Y317909D01*
X585594Y317903D01*
X585508Y317894D01*
X585423Y317880D01*
X585339Y317863D01*
X585255Y317842D01*
X585173Y317817D01*
X585092Y317789D01*
X585012Y317757D01*
X584933Y317721D01*
X584857Y317682D01*
X584782Y317639D01*
X584709Y317594D01*
X584638Y317545D01*
X584570Y317492D01*
X584503Y317437D01*
X584440Y317379D01*
X584379Y317318D01*
X584321Y317255D01*
X584266Y317188D01*
X584214Y317120D01*
X584164Y317049D01*
X584119Y316976D01*
X584076Y316901D01*
X584037Y316825D01*
X584001Y316746D01*
X583969Y316666D01*
X583941Y316585D01*
X583916Y316503D01*
X583895Y316419D01*
X583878Y316335D01*
X583864Y316250D01*
X583855Y316164D01*
X583849Y316078D01*
X583847Y315992D01*
X583847Y313113D01*
X580009Y313113D01*
X580009Y317911D01*
X582888Y322440D02*
X588645Y322440D01*
X582888Y322440D02*
X582888Y326758D01*
X582890Y326833D01*
X582896Y326908D01*
X582906Y326983D01*
X582919Y327057D01*
X582937Y327130D01*
X582958Y327203D01*
X582984Y327274D01*
X583012Y327343D01*
X583045Y327411D01*
X583081Y327478D01*
X583120Y327542D01*
X583163Y327604D01*
X583209Y327664D01*
X583258Y327721D01*
X583309Y327776D01*
X583364Y327827D01*
X583421Y327876D01*
X583481Y327922D01*
X583543Y327965D01*
X583608Y328004D01*
X583674Y328040D01*
X583742Y328073D01*
X583811Y328101D01*
X583882Y328127D01*
X583955Y328148D01*
X584028Y328166D01*
X584102Y328179D01*
X584177Y328189D01*
X584252Y328195D01*
X584327Y328197D01*
X588645Y328197D01*
X588645Y325319D02*
X582888Y325319D01*
X582888Y333139D02*
X588645Y333139D01*
X582888Y333139D02*
X582888Y337457D01*
X582890Y337532D01*
X582896Y337607D01*
X582906Y337682D01*
X582919Y337756D01*
X582937Y337829D01*
X582958Y337902D01*
X582984Y337973D01*
X583012Y338042D01*
X583045Y338110D01*
X583081Y338177D01*
X583120Y338241D01*
X583163Y338303D01*
X583209Y338363D01*
X583258Y338420D01*
X583309Y338475D01*
X583364Y338526D01*
X583421Y338575D01*
X583481Y338621D01*
X583543Y338664D01*
X583608Y338703D01*
X583674Y338739D01*
X583742Y338772D01*
X583811Y338800D01*
X583882Y338826D01*
X583955Y338847D01*
X584028Y338865D01*
X584102Y338878D01*
X584177Y338888D01*
X584252Y338894D01*
X584327Y338896D01*
X588645Y338896D01*
X588645Y336017D02*
X582888Y336017D01*
D13*
X711835Y351536D03*
X711835Y326136D03*
X711835Y300736D03*
D14*
X694690Y300736D03*
X694690Y326136D03*
X694690Y351536D03*
D11*
X716407Y275971D02*
X727837Y275971D01*
X716407Y275971D02*
X716407Y281051D01*
X721487Y281051D02*
X721487Y275971D01*
X727837Y285877D02*
X727837Y290957D01*
X727837Y285877D02*
X716407Y285877D01*
X716407Y290957D01*
X721487Y289687D02*
X721487Y285877D01*
X716407Y297790D02*
X727837Y297790D01*
X716407Y294615D02*
X716407Y300965D01*
X729107Y304775D02*
X729107Y309855D01*
X727837Y317602D02*
X716407Y313792D01*
X716407Y321412D02*
X727837Y317602D01*
X727837Y325222D02*
X716407Y329032D01*
X727837Y332842D01*
X724980Y331889D02*
X724980Y326174D01*
X727837Y337693D02*
X716407Y337693D01*
X727837Y337693D02*
X727837Y342773D01*
X727837Y350368D02*
X716407Y346558D01*
X716407Y354178D02*
X727837Y350368D01*
X727837Y359029D02*
X727837Y364109D01*
X727837Y359029D02*
X716407Y359029D01*
X716407Y364109D01*
X721487Y362839D02*
X721487Y359029D01*
X680720Y175006D02*
X680720Y70866D01*
X521970Y70866D02*
X521970Y175006D01*
X556260Y175006D02*
X680720Y175006D01*
X556260Y175006D02*
X556260Y166116D01*
X541020Y166116D01*
X541020Y175006D01*
X521970Y175006D01*
X556260Y70866D02*
X680720Y70866D01*
X556260Y70866D02*
X556260Y79756D01*
X541020Y79756D01*
X541020Y70866D01*
X521970Y70866D01*
D12*
X674370Y77216D02*
X674370Y168656D01*
X591820Y168656D01*
X591820Y77216D01*
X674370Y77216D01*
D11*
X538226Y122936D02*
X538231Y123379D01*
X538248Y123821D01*
X538275Y124263D01*
X538313Y124704D01*
X538362Y125144D01*
X538421Y125582D01*
X538492Y126019D01*
X538573Y126454D01*
X538664Y126887D01*
X538766Y127318D01*
X538879Y127746D01*
X539003Y128171D01*
X539136Y128593D01*
X539280Y129011D01*
X539434Y129426D01*
X539599Y129837D01*
X539773Y130244D01*
X539957Y130647D01*
X540152Y131044D01*
X540355Y131437D01*
X540569Y131825D01*
X540792Y132207D01*
X541024Y132584D01*
X541265Y132955D01*
X541516Y133320D01*
X541775Y133679D01*
X542043Y134031D01*
X542320Y134377D01*
X542604Y134715D01*
X542898Y135047D01*
X543199Y135371D01*
X543508Y135688D01*
X543825Y135997D01*
X544149Y136298D01*
X544481Y136592D01*
X544819Y136876D01*
X545165Y137153D01*
X545517Y137421D01*
X545876Y137680D01*
X546241Y137931D01*
X546612Y138172D01*
X546989Y138404D01*
X547371Y138627D01*
X547759Y138841D01*
X548152Y139044D01*
X548549Y139239D01*
X548952Y139423D01*
X549359Y139597D01*
X549770Y139762D01*
X550185Y139916D01*
X550603Y140060D01*
X551025Y140193D01*
X551450Y140317D01*
X551878Y140430D01*
X552309Y140532D01*
X552742Y140623D01*
X553177Y140704D01*
X553614Y140775D01*
X554052Y140834D01*
X554492Y140883D01*
X554933Y140921D01*
X555375Y140948D01*
X555817Y140965D01*
X556260Y140970D01*
X556703Y140965D01*
X557145Y140948D01*
X557587Y140921D01*
X558028Y140883D01*
X558468Y140834D01*
X558906Y140775D01*
X559343Y140704D01*
X559778Y140623D01*
X560211Y140532D01*
X560642Y140430D01*
X561070Y140317D01*
X561495Y140193D01*
X561917Y140060D01*
X562335Y139916D01*
X562750Y139762D01*
X563161Y139597D01*
X563568Y139423D01*
X563971Y139239D01*
X564368Y139044D01*
X564761Y138841D01*
X565149Y138627D01*
X565531Y138404D01*
X565908Y138172D01*
X566279Y137931D01*
X566644Y137680D01*
X567003Y137421D01*
X567355Y137153D01*
X567701Y136876D01*
X568039Y136592D01*
X568371Y136298D01*
X568695Y135997D01*
X569012Y135688D01*
X569321Y135371D01*
X569622Y135047D01*
X569916Y134715D01*
X570200Y134377D01*
X570477Y134031D01*
X570745Y133679D01*
X571004Y133320D01*
X571255Y132955D01*
X571496Y132584D01*
X571728Y132207D01*
X571951Y131825D01*
X572165Y131437D01*
X572368Y131044D01*
X572563Y130647D01*
X572747Y130244D01*
X572921Y129837D01*
X573086Y129426D01*
X573240Y129011D01*
X573384Y128593D01*
X573517Y128171D01*
X573641Y127746D01*
X573754Y127318D01*
X573856Y126887D01*
X573947Y126454D01*
X574028Y126019D01*
X574099Y125582D01*
X574158Y125144D01*
X574207Y124704D01*
X574245Y124263D01*
X574272Y123821D01*
X574289Y123379D01*
X574294Y122936D01*
X574289Y122493D01*
X574272Y122051D01*
X574245Y121609D01*
X574207Y121168D01*
X574158Y120728D01*
X574099Y120290D01*
X574028Y119853D01*
X573947Y119418D01*
X573856Y118985D01*
X573754Y118554D01*
X573641Y118126D01*
X573517Y117701D01*
X573384Y117279D01*
X573240Y116861D01*
X573086Y116446D01*
X572921Y116035D01*
X572747Y115628D01*
X572563Y115225D01*
X572368Y114828D01*
X572165Y114435D01*
X571951Y114047D01*
X571728Y113665D01*
X571496Y113288D01*
X571255Y112917D01*
X571004Y112552D01*
X570745Y112193D01*
X570477Y111841D01*
X570200Y111495D01*
X569916Y111157D01*
X569622Y110825D01*
X569321Y110501D01*
X569012Y110184D01*
X568695Y109875D01*
X568371Y109574D01*
X568039Y109280D01*
X567701Y108996D01*
X567355Y108719D01*
X567003Y108451D01*
X566644Y108192D01*
X566279Y107941D01*
X565908Y107700D01*
X565531Y107468D01*
X565149Y107245D01*
X564761Y107031D01*
X564368Y106828D01*
X563971Y106633D01*
X563568Y106449D01*
X563161Y106275D01*
X562750Y106110D01*
X562335Y105956D01*
X561917Y105812D01*
X561495Y105679D01*
X561070Y105555D01*
X560642Y105442D01*
X560211Y105340D01*
X559778Y105249D01*
X559343Y105168D01*
X558906Y105097D01*
X558468Y105038D01*
X558028Y104989D01*
X557587Y104951D01*
X557145Y104924D01*
X556703Y104907D01*
X556260Y104902D01*
X555817Y104907D01*
X555375Y104924D01*
X554933Y104951D01*
X554492Y104989D01*
X554052Y105038D01*
X553614Y105097D01*
X553177Y105168D01*
X552742Y105249D01*
X552309Y105340D01*
X551878Y105442D01*
X551450Y105555D01*
X551025Y105679D01*
X550603Y105812D01*
X550185Y105956D01*
X549770Y106110D01*
X549359Y106275D01*
X548952Y106449D01*
X548549Y106633D01*
X548152Y106828D01*
X547759Y107031D01*
X547371Y107245D01*
X546989Y107468D01*
X546612Y107700D01*
X546241Y107941D01*
X545876Y108192D01*
X545517Y108451D01*
X545165Y108719D01*
X544819Y108996D01*
X544481Y109280D01*
X544149Y109574D01*
X543825Y109875D01*
X543508Y110184D01*
X543199Y110501D01*
X542898Y110825D01*
X542604Y111157D01*
X542320Y111495D01*
X542043Y111841D01*
X541775Y112193D01*
X541516Y112552D01*
X541265Y112917D01*
X541024Y113288D01*
X540792Y113665D01*
X540569Y114047D01*
X540355Y114435D01*
X540152Y114828D01*
X539957Y115225D01*
X539773Y115628D01*
X539599Y116035D01*
X539434Y116446D01*
X539280Y116861D01*
X539136Y117279D01*
X539003Y117701D01*
X538879Y118126D01*
X538766Y118554D01*
X538664Y118985D01*
X538573Y119418D01*
X538492Y119853D01*
X538421Y120290D01*
X538362Y120728D01*
X538313Y121168D01*
X538275Y121609D01*
X538248Y122051D01*
X538231Y122493D01*
X538226Y122936D01*
X580009Y82000D02*
X588645Y79121D01*
X588645Y84878D02*
X580009Y82000D01*
X586486Y84159D02*
X586486Y79841D01*
X581928Y88516D02*
X580009Y90915D01*
X588645Y90915D01*
X588645Y88516D02*
X588645Y93314D01*
X580969Y97432D02*
X580009Y97432D01*
X580009Y102229D01*
X588645Y99830D01*
X588645Y105787D02*
X588645Y106267D01*
X588645Y105787D02*
X588165Y105787D01*
X588165Y106267D01*
X588645Y106267D01*
X590564Y105548D01*
X588645Y109913D02*
X588645Y112792D01*
X588643Y112878D01*
X588637Y112964D01*
X588628Y113050D01*
X588614Y113135D01*
X588597Y113219D01*
X588576Y113303D01*
X588551Y113385D01*
X588523Y113466D01*
X588491Y113546D01*
X588455Y113625D01*
X588416Y113701D01*
X588373Y113776D01*
X588328Y113849D01*
X588279Y113920D01*
X588226Y113988D01*
X588171Y114055D01*
X588113Y114118D01*
X588052Y114179D01*
X587989Y114237D01*
X587922Y114292D01*
X587854Y114345D01*
X587783Y114394D01*
X587710Y114439D01*
X587635Y114482D01*
X587559Y114521D01*
X587480Y114557D01*
X587400Y114589D01*
X587319Y114617D01*
X587237Y114642D01*
X587153Y114663D01*
X587069Y114680D01*
X586984Y114694D01*
X586898Y114703D01*
X586812Y114709D01*
X586726Y114711D01*
X585766Y114711D01*
X585680Y114709D01*
X585594Y114703D01*
X585508Y114694D01*
X585423Y114680D01*
X585339Y114663D01*
X585255Y114642D01*
X585173Y114617D01*
X585092Y114589D01*
X585012Y114557D01*
X584933Y114521D01*
X584857Y114482D01*
X584782Y114439D01*
X584709Y114394D01*
X584638Y114345D01*
X584570Y114292D01*
X584503Y114237D01*
X584440Y114179D01*
X584379Y114118D01*
X584321Y114055D01*
X584266Y113988D01*
X584214Y113920D01*
X584164Y113849D01*
X584119Y113776D01*
X584076Y113701D01*
X584037Y113625D01*
X584001Y113546D01*
X583969Y113466D01*
X583941Y113385D01*
X583916Y113303D01*
X583895Y113219D01*
X583878Y113135D01*
X583864Y113050D01*
X583855Y112964D01*
X583849Y112878D01*
X583847Y112792D01*
X583847Y109913D01*
X580009Y109913D01*
X580009Y114711D01*
X582888Y119240D02*
X588645Y119240D01*
X582888Y119240D02*
X582888Y123558D01*
X582890Y123633D01*
X582896Y123708D01*
X582906Y123783D01*
X582919Y123857D01*
X582937Y123930D01*
X582958Y124003D01*
X582984Y124074D01*
X583012Y124143D01*
X583045Y124211D01*
X583081Y124278D01*
X583120Y124342D01*
X583163Y124404D01*
X583209Y124464D01*
X583258Y124521D01*
X583309Y124576D01*
X583364Y124627D01*
X583421Y124676D01*
X583481Y124722D01*
X583543Y124765D01*
X583608Y124804D01*
X583674Y124840D01*
X583742Y124873D01*
X583811Y124901D01*
X583882Y124927D01*
X583955Y124948D01*
X584028Y124966D01*
X584102Y124979D01*
X584177Y124989D01*
X584252Y124995D01*
X584327Y124997D01*
X588645Y124997D01*
X588645Y122119D02*
X582888Y122119D01*
X582888Y129939D02*
X588645Y129939D01*
X582888Y129939D02*
X582888Y134257D01*
X582890Y134332D01*
X582896Y134407D01*
X582906Y134482D01*
X582919Y134556D01*
X582937Y134629D01*
X582958Y134702D01*
X582984Y134773D01*
X583012Y134842D01*
X583045Y134910D01*
X583081Y134977D01*
X583120Y135041D01*
X583163Y135103D01*
X583209Y135163D01*
X583258Y135220D01*
X583309Y135275D01*
X583364Y135326D01*
X583421Y135375D01*
X583481Y135421D01*
X583543Y135464D01*
X583608Y135503D01*
X583674Y135539D01*
X583742Y135572D01*
X583811Y135600D01*
X583882Y135626D01*
X583955Y135647D01*
X584028Y135665D01*
X584102Y135678D01*
X584177Y135688D01*
X584252Y135694D01*
X584327Y135696D01*
X588645Y135696D01*
X588645Y132817D02*
X582888Y132817D01*
D13*
X711835Y148336D03*
X711835Y122936D03*
X711835Y97536D03*
D14*
X694690Y97536D03*
X694690Y122936D03*
X694690Y148336D03*
D11*
X716407Y72771D02*
X727837Y72771D01*
X716407Y72771D02*
X716407Y77851D01*
X721487Y77851D02*
X721487Y72771D01*
X727837Y82677D02*
X727837Y87757D01*
X727837Y82677D02*
X716407Y82677D01*
X716407Y87757D01*
X721487Y86487D02*
X721487Y82677D01*
X716407Y94590D02*
X727837Y94590D01*
X716407Y91415D02*
X716407Y97765D01*
X729107Y101575D02*
X729107Y106655D01*
X727837Y113386D02*
X716407Y110846D01*
X720217Y115926D02*
X727837Y113386D01*
X727837Y118466D02*
X720217Y115926D01*
X716407Y121006D02*
X727837Y118466D01*
X727837Y125070D02*
X716407Y128880D01*
X727837Y132690D01*
X724980Y131737D02*
X724980Y126022D01*
X727837Y139548D02*
X716407Y139548D01*
X716407Y136373D02*
X716407Y142723D01*
X727837Y147447D02*
X727837Y152527D01*
X727837Y147447D02*
X716407Y147447D01*
X716407Y152527D01*
X721487Y151257D02*
X721487Y147447D01*
X716407Y157410D02*
X727837Y157410D01*
X716407Y157410D02*
X716407Y160585D01*
X716409Y160696D01*
X716415Y160806D01*
X716424Y160917D01*
X716438Y161027D01*
X716455Y161136D01*
X716476Y161245D01*
X716501Y161353D01*
X716530Y161460D01*
X716562Y161566D01*
X716598Y161671D01*
X716638Y161774D01*
X716681Y161876D01*
X716728Y161977D01*
X716779Y162076D01*
X716832Y162173D01*
X716889Y162267D01*
X716950Y162360D01*
X717013Y162451D01*
X717080Y162540D01*
X717150Y162626D01*
X717223Y162709D01*
X717298Y162791D01*
X717376Y162869D01*
X717458Y162944D01*
X717541Y163017D01*
X717627Y163087D01*
X717716Y163154D01*
X717807Y163217D01*
X717900Y163278D01*
X717995Y163335D01*
X718091Y163388D01*
X718190Y163439D01*
X718291Y163486D01*
X718393Y163529D01*
X718496Y163569D01*
X718601Y163605D01*
X718707Y163637D01*
X718814Y163666D01*
X718922Y163691D01*
X719031Y163712D01*
X719140Y163729D01*
X719250Y163743D01*
X719361Y163752D01*
X719471Y163758D01*
X719582Y163760D01*
X719693Y163758D01*
X719803Y163752D01*
X719914Y163743D01*
X720024Y163729D01*
X720133Y163712D01*
X720242Y163691D01*
X720350Y163666D01*
X720457Y163637D01*
X720563Y163605D01*
X720668Y163569D01*
X720771Y163529D01*
X720873Y163486D01*
X720974Y163439D01*
X721073Y163388D01*
X721170Y163335D01*
X721264Y163278D01*
X721357Y163217D01*
X721448Y163154D01*
X721537Y163087D01*
X721623Y163017D01*
X721706Y162944D01*
X721788Y162869D01*
X721866Y162791D01*
X721941Y162709D01*
X722014Y162626D01*
X722084Y162540D01*
X722151Y162451D01*
X722214Y162360D01*
X722275Y162267D01*
X722332Y162173D01*
X722385Y162076D01*
X722436Y161977D01*
X722483Y161876D01*
X722526Y161774D01*
X722566Y161671D01*
X722602Y161566D01*
X722634Y161460D01*
X722663Y161353D01*
X722688Y161245D01*
X722709Y161136D01*
X722726Y161027D01*
X722740Y160917D01*
X722749Y160806D01*
X722755Y160696D01*
X722757Y160585D01*
X722757Y157410D01*
X722757Y161220D02*
X727837Y163760D01*
X727837Y169329D02*
X716407Y169329D01*
X716407Y172504D01*
X716409Y172615D01*
X716415Y172725D01*
X716424Y172836D01*
X716438Y172946D01*
X716455Y173055D01*
X716476Y173164D01*
X716501Y173272D01*
X716530Y173379D01*
X716562Y173485D01*
X716598Y173590D01*
X716638Y173693D01*
X716681Y173795D01*
X716728Y173896D01*
X716779Y173995D01*
X716832Y174092D01*
X716889Y174186D01*
X716950Y174279D01*
X717013Y174370D01*
X717080Y174459D01*
X717150Y174545D01*
X717223Y174628D01*
X717298Y174710D01*
X717376Y174788D01*
X717458Y174863D01*
X717541Y174936D01*
X717627Y175006D01*
X717716Y175073D01*
X717807Y175136D01*
X717900Y175197D01*
X717995Y175254D01*
X718091Y175307D01*
X718190Y175358D01*
X718291Y175405D01*
X718393Y175448D01*
X718496Y175488D01*
X718601Y175524D01*
X718707Y175556D01*
X718814Y175585D01*
X718922Y175610D01*
X719031Y175631D01*
X719140Y175648D01*
X719250Y175662D01*
X719361Y175671D01*
X719471Y175677D01*
X719582Y175679D01*
X719693Y175677D01*
X719803Y175671D01*
X719914Y175662D01*
X720024Y175648D01*
X720133Y175631D01*
X720242Y175610D01*
X720350Y175585D01*
X720457Y175556D01*
X720563Y175524D01*
X720668Y175488D01*
X720771Y175448D01*
X720873Y175405D01*
X720974Y175358D01*
X721073Y175307D01*
X721170Y175254D01*
X721264Y175197D01*
X721357Y175136D01*
X721448Y175073D01*
X721537Y175006D01*
X721623Y174936D01*
X721706Y174863D01*
X721788Y174788D01*
X721866Y174710D01*
X721941Y174628D01*
X722014Y174545D01*
X722084Y174459D01*
X722151Y174370D01*
X722214Y174279D01*
X722275Y174186D01*
X722332Y174092D01*
X722385Y173995D01*
X722436Y173896D01*
X722483Y173795D01*
X722526Y173693D01*
X722566Y173590D01*
X722602Y173485D01*
X722634Y173379D01*
X722663Y173272D01*
X722688Y173164D01*
X722709Y173055D01*
X722726Y172946D01*
X722740Y172836D01*
X722749Y172725D01*
X722755Y172615D01*
X722757Y172504D01*
X722757Y169329D01*
X724662Y180569D02*
X716407Y180569D01*
X724662Y180569D02*
X724773Y180571D01*
X724883Y180577D01*
X724994Y180586D01*
X725104Y180600D01*
X725213Y180617D01*
X725322Y180638D01*
X725430Y180663D01*
X725537Y180692D01*
X725643Y180724D01*
X725748Y180760D01*
X725851Y180800D01*
X725953Y180843D01*
X726054Y180890D01*
X726153Y180941D01*
X726250Y180994D01*
X726344Y181051D01*
X726437Y181112D01*
X726528Y181175D01*
X726617Y181242D01*
X726703Y181312D01*
X726786Y181385D01*
X726868Y181460D01*
X726946Y181538D01*
X727021Y181620D01*
X727094Y181703D01*
X727164Y181789D01*
X727231Y181878D01*
X727294Y181969D01*
X727355Y182062D01*
X727412Y182156D01*
X727465Y182253D01*
X727516Y182352D01*
X727563Y182453D01*
X727606Y182555D01*
X727646Y182658D01*
X727682Y182763D01*
X727714Y182869D01*
X727743Y182976D01*
X727768Y183084D01*
X727789Y183193D01*
X727806Y183302D01*
X727820Y183412D01*
X727829Y183523D01*
X727835Y183633D01*
X727837Y183744D01*
X727835Y183855D01*
X727829Y183965D01*
X727820Y184076D01*
X727806Y184186D01*
X727789Y184295D01*
X727768Y184404D01*
X727743Y184512D01*
X727714Y184619D01*
X727682Y184725D01*
X727646Y184830D01*
X727606Y184933D01*
X727563Y185035D01*
X727516Y185136D01*
X727465Y185235D01*
X727412Y185331D01*
X727355Y185426D01*
X727294Y185519D01*
X727231Y185610D01*
X727164Y185699D01*
X727094Y185785D01*
X727021Y185868D01*
X726946Y185950D01*
X726868Y186028D01*
X726786Y186103D01*
X726703Y186176D01*
X726617Y186246D01*
X726528Y186313D01*
X726437Y186376D01*
X726344Y186437D01*
X726250Y186494D01*
X726153Y186547D01*
X726054Y186598D01*
X725953Y186645D01*
X725851Y186688D01*
X725748Y186728D01*
X725643Y186764D01*
X725537Y186796D01*
X725430Y186825D01*
X725322Y186850D01*
X725213Y186871D01*
X725104Y186888D01*
X724994Y186902D01*
X724883Y186911D01*
X724773Y186917D01*
X724662Y186919D01*
X716407Y186919D01*
X716407Y192888D02*
X727837Y192888D01*
X722757Y196698D02*
X716407Y192888D01*
X722757Y196698D02*
X716407Y200508D01*
X727837Y200508D01*
X727837Y206667D02*
X716407Y206667D01*
X716407Y209842D01*
X716409Y209953D01*
X716415Y210063D01*
X716424Y210174D01*
X716438Y210284D01*
X716455Y210393D01*
X716476Y210502D01*
X716501Y210610D01*
X716530Y210717D01*
X716562Y210823D01*
X716598Y210928D01*
X716638Y211031D01*
X716681Y211133D01*
X716728Y211234D01*
X716779Y211333D01*
X716832Y211430D01*
X716889Y211524D01*
X716950Y211617D01*
X717013Y211708D01*
X717080Y211797D01*
X717150Y211883D01*
X717223Y211966D01*
X717298Y212048D01*
X717376Y212126D01*
X717458Y212201D01*
X717541Y212274D01*
X717627Y212344D01*
X717716Y212411D01*
X717807Y212474D01*
X717900Y212535D01*
X717995Y212592D01*
X718091Y212645D01*
X718190Y212696D01*
X718291Y212743D01*
X718393Y212786D01*
X718496Y212826D01*
X718601Y212862D01*
X718707Y212894D01*
X718814Y212923D01*
X718922Y212948D01*
X719031Y212969D01*
X719140Y212986D01*
X719250Y213000D01*
X719361Y213009D01*
X719471Y213015D01*
X719582Y213017D01*
X719693Y213015D01*
X719803Y213009D01*
X719914Y213000D01*
X720024Y212986D01*
X720133Y212969D01*
X720242Y212948D01*
X720350Y212923D01*
X720457Y212894D01*
X720563Y212862D01*
X720668Y212826D01*
X720771Y212786D01*
X720873Y212743D01*
X720974Y212696D01*
X721073Y212645D01*
X721170Y212592D01*
X721264Y212535D01*
X721357Y212474D01*
X721448Y212411D01*
X721537Y212344D01*
X721623Y212274D01*
X721706Y212201D01*
X721788Y212126D01*
X721866Y212048D01*
X721941Y211966D01*
X722014Y211883D01*
X722084Y211797D01*
X722151Y211708D01*
X722214Y211617D01*
X722275Y211524D01*
X722332Y211430D01*
X722385Y211333D01*
X722436Y211234D01*
X722483Y211133D01*
X722526Y211031D01*
X722566Y210928D01*
X722602Y210823D01*
X722634Y210717D01*
X722663Y210610D01*
X722688Y210502D01*
X722709Y210393D01*
X722726Y210284D01*
X722740Y210174D01*
X722749Y210063D01*
X722755Y209953D01*
X722757Y209842D01*
X722757Y206667D01*
D10*
X300990Y434340D02*
X300988Y434440D01*
X300982Y434539D01*
X300972Y434639D01*
X300959Y434737D01*
X300941Y434836D01*
X300920Y434933D01*
X300895Y435029D01*
X300866Y435125D01*
X300833Y435219D01*
X300797Y435312D01*
X300757Y435403D01*
X300713Y435493D01*
X300666Y435581D01*
X300616Y435667D01*
X300562Y435751D01*
X300505Y435833D01*
X300445Y435912D01*
X300381Y435990D01*
X300315Y436064D01*
X300246Y436136D01*
X300174Y436205D01*
X300100Y436271D01*
X300022Y436335D01*
X299943Y436395D01*
X299861Y436452D01*
X299777Y436506D01*
X299691Y436556D01*
X299603Y436603D01*
X299513Y436647D01*
X299422Y436687D01*
X299329Y436723D01*
X299235Y436756D01*
X299139Y436785D01*
X299043Y436810D01*
X298946Y436831D01*
X298847Y436849D01*
X298749Y436862D01*
X298649Y436872D01*
X298550Y436878D01*
X298450Y436880D01*
X285750Y436880D02*
X285650Y436878D01*
X285551Y436872D01*
X285451Y436862D01*
X285353Y436849D01*
X285254Y436831D01*
X285157Y436810D01*
X285061Y436785D01*
X284965Y436756D01*
X284871Y436723D01*
X284778Y436687D01*
X284687Y436647D01*
X284597Y436603D01*
X284509Y436556D01*
X284423Y436506D01*
X284339Y436452D01*
X284257Y436395D01*
X284178Y436335D01*
X284100Y436271D01*
X284026Y436205D01*
X283954Y436136D01*
X283885Y436064D01*
X283819Y435990D01*
X283755Y435912D01*
X283695Y435833D01*
X283638Y435751D01*
X283584Y435667D01*
X283534Y435581D01*
X283487Y435493D01*
X283443Y435403D01*
X283403Y435312D01*
X283367Y435219D01*
X283334Y435125D01*
X283305Y435029D01*
X283280Y434933D01*
X283259Y434836D01*
X283241Y434737D01*
X283228Y434639D01*
X283218Y434539D01*
X283212Y434440D01*
X283210Y434340D01*
X283210Y403860D02*
X283212Y403760D01*
X283218Y403661D01*
X283228Y403561D01*
X283241Y403463D01*
X283259Y403364D01*
X283280Y403267D01*
X283305Y403171D01*
X283334Y403075D01*
X283367Y402981D01*
X283403Y402888D01*
X283443Y402797D01*
X283487Y402707D01*
X283534Y402619D01*
X283584Y402533D01*
X283638Y402449D01*
X283695Y402367D01*
X283755Y402288D01*
X283819Y402210D01*
X283885Y402136D01*
X283954Y402064D01*
X284026Y401995D01*
X284100Y401929D01*
X284178Y401865D01*
X284257Y401805D01*
X284339Y401748D01*
X284423Y401694D01*
X284509Y401644D01*
X284597Y401597D01*
X284687Y401553D01*
X284778Y401513D01*
X284871Y401477D01*
X284965Y401444D01*
X285061Y401415D01*
X285157Y401390D01*
X285254Y401369D01*
X285353Y401351D01*
X285451Y401338D01*
X285551Y401328D01*
X285650Y401322D01*
X285750Y401320D01*
X298450Y401320D02*
X298550Y401322D01*
X298649Y401328D01*
X298749Y401338D01*
X298847Y401351D01*
X298946Y401369D01*
X299043Y401390D01*
X299139Y401415D01*
X299235Y401444D01*
X299329Y401477D01*
X299422Y401513D01*
X299513Y401553D01*
X299603Y401597D01*
X299691Y401644D01*
X299777Y401694D01*
X299861Y401748D01*
X299943Y401805D01*
X300022Y401865D01*
X300100Y401929D01*
X300174Y401995D01*
X300246Y402064D01*
X300315Y402136D01*
X300381Y402210D01*
X300445Y402288D01*
X300505Y402367D01*
X300562Y402449D01*
X300616Y402533D01*
X300666Y402619D01*
X300713Y402707D01*
X300757Y402797D01*
X300797Y402888D01*
X300833Y402981D01*
X300866Y403075D01*
X300895Y403171D01*
X300920Y403267D01*
X300941Y403364D01*
X300959Y403463D01*
X300972Y403561D01*
X300982Y403661D01*
X300988Y403760D01*
X300990Y403860D01*
X300990Y431800D02*
X300990Y434340D01*
X300990Y431800D02*
X299720Y430530D01*
X283210Y431800D02*
X283210Y434340D01*
X283210Y431800D02*
X284480Y430530D01*
X299720Y407670D02*
X300990Y406400D01*
X299720Y407670D02*
X299720Y430530D01*
X284480Y407670D02*
X283210Y406400D01*
X284480Y407670D02*
X284480Y430530D01*
X300990Y406400D02*
X300990Y403860D01*
X283210Y403860D02*
X283210Y406400D01*
D11*
X307975Y431248D02*
X319405Y431248D01*
X307975Y431248D02*
X307975Y434423D01*
X307977Y434534D01*
X307983Y434644D01*
X307992Y434755D01*
X308006Y434865D01*
X308023Y434974D01*
X308044Y435083D01*
X308069Y435191D01*
X308098Y435298D01*
X308130Y435404D01*
X308166Y435509D01*
X308206Y435612D01*
X308249Y435714D01*
X308296Y435815D01*
X308347Y435914D01*
X308400Y436011D01*
X308457Y436105D01*
X308518Y436198D01*
X308581Y436289D01*
X308648Y436378D01*
X308718Y436464D01*
X308791Y436547D01*
X308866Y436629D01*
X308944Y436707D01*
X309026Y436782D01*
X309109Y436855D01*
X309195Y436925D01*
X309284Y436992D01*
X309375Y437055D01*
X309468Y437116D01*
X309563Y437173D01*
X309659Y437226D01*
X309758Y437277D01*
X309859Y437324D01*
X309961Y437367D01*
X310064Y437407D01*
X310169Y437443D01*
X310275Y437475D01*
X310382Y437504D01*
X310490Y437529D01*
X310599Y437550D01*
X310708Y437567D01*
X310818Y437581D01*
X310929Y437590D01*
X311039Y437596D01*
X311150Y437598D01*
X311261Y437596D01*
X311371Y437590D01*
X311482Y437581D01*
X311592Y437567D01*
X311701Y437550D01*
X311810Y437529D01*
X311918Y437504D01*
X312025Y437475D01*
X312131Y437443D01*
X312236Y437407D01*
X312339Y437367D01*
X312441Y437324D01*
X312542Y437277D01*
X312641Y437226D01*
X312738Y437173D01*
X312832Y437116D01*
X312925Y437055D01*
X313016Y436992D01*
X313105Y436925D01*
X313191Y436855D01*
X313274Y436782D01*
X313356Y436707D01*
X313434Y436629D01*
X313509Y436547D01*
X313582Y436464D01*
X313652Y436378D01*
X313719Y436289D01*
X313782Y436198D01*
X313843Y436105D01*
X313900Y436011D01*
X313953Y435914D01*
X314004Y435815D01*
X314051Y435714D01*
X314094Y435612D01*
X314134Y435509D01*
X314170Y435404D01*
X314202Y435298D01*
X314231Y435191D01*
X314256Y435083D01*
X314277Y434974D01*
X314294Y434865D01*
X314308Y434755D01*
X314317Y434644D01*
X314323Y434534D01*
X314325Y434423D01*
X314325Y431248D01*
X314325Y435058D02*
X319405Y437598D01*
X310515Y442595D02*
X307975Y445770D01*
X319405Y445770D01*
X319405Y442595D02*
X319405Y448945D01*
D10*
X275590Y434340D02*
X275588Y434440D01*
X275582Y434539D01*
X275572Y434639D01*
X275559Y434737D01*
X275541Y434836D01*
X275520Y434933D01*
X275495Y435029D01*
X275466Y435125D01*
X275433Y435219D01*
X275397Y435312D01*
X275357Y435403D01*
X275313Y435493D01*
X275266Y435581D01*
X275216Y435667D01*
X275162Y435751D01*
X275105Y435833D01*
X275045Y435912D01*
X274981Y435990D01*
X274915Y436064D01*
X274846Y436136D01*
X274774Y436205D01*
X274700Y436271D01*
X274622Y436335D01*
X274543Y436395D01*
X274461Y436452D01*
X274377Y436506D01*
X274291Y436556D01*
X274203Y436603D01*
X274113Y436647D01*
X274022Y436687D01*
X273929Y436723D01*
X273835Y436756D01*
X273739Y436785D01*
X273643Y436810D01*
X273546Y436831D01*
X273447Y436849D01*
X273349Y436862D01*
X273249Y436872D01*
X273150Y436878D01*
X273050Y436880D01*
X260350Y436880D02*
X260250Y436878D01*
X260151Y436872D01*
X260051Y436862D01*
X259953Y436849D01*
X259854Y436831D01*
X259757Y436810D01*
X259661Y436785D01*
X259565Y436756D01*
X259471Y436723D01*
X259378Y436687D01*
X259287Y436647D01*
X259197Y436603D01*
X259109Y436556D01*
X259023Y436506D01*
X258939Y436452D01*
X258857Y436395D01*
X258778Y436335D01*
X258700Y436271D01*
X258626Y436205D01*
X258554Y436136D01*
X258485Y436064D01*
X258419Y435990D01*
X258355Y435912D01*
X258295Y435833D01*
X258238Y435751D01*
X258184Y435667D01*
X258134Y435581D01*
X258087Y435493D01*
X258043Y435403D01*
X258003Y435312D01*
X257967Y435219D01*
X257934Y435125D01*
X257905Y435029D01*
X257880Y434933D01*
X257859Y434836D01*
X257841Y434737D01*
X257828Y434639D01*
X257818Y434539D01*
X257812Y434440D01*
X257810Y434340D01*
X257810Y403860D02*
X257812Y403760D01*
X257818Y403661D01*
X257828Y403561D01*
X257841Y403463D01*
X257859Y403364D01*
X257880Y403267D01*
X257905Y403171D01*
X257934Y403075D01*
X257967Y402981D01*
X258003Y402888D01*
X258043Y402797D01*
X258087Y402707D01*
X258134Y402619D01*
X258184Y402533D01*
X258238Y402449D01*
X258295Y402367D01*
X258355Y402288D01*
X258419Y402210D01*
X258485Y402136D01*
X258554Y402064D01*
X258626Y401995D01*
X258700Y401929D01*
X258778Y401865D01*
X258857Y401805D01*
X258939Y401748D01*
X259023Y401694D01*
X259109Y401644D01*
X259197Y401597D01*
X259287Y401553D01*
X259378Y401513D01*
X259471Y401477D01*
X259565Y401444D01*
X259661Y401415D01*
X259757Y401390D01*
X259854Y401369D01*
X259953Y401351D01*
X260051Y401338D01*
X260151Y401328D01*
X260250Y401322D01*
X260350Y401320D01*
X273050Y401320D02*
X273150Y401322D01*
X273249Y401328D01*
X273349Y401338D01*
X273447Y401351D01*
X273546Y401369D01*
X273643Y401390D01*
X273739Y401415D01*
X273835Y401444D01*
X273929Y401477D01*
X274022Y401513D01*
X274113Y401553D01*
X274203Y401597D01*
X274291Y401644D01*
X274377Y401694D01*
X274461Y401748D01*
X274543Y401805D01*
X274622Y401865D01*
X274700Y401929D01*
X274774Y401995D01*
X274846Y402064D01*
X274915Y402136D01*
X274981Y402210D01*
X275045Y402288D01*
X275105Y402367D01*
X275162Y402449D01*
X275216Y402533D01*
X275266Y402619D01*
X275313Y402707D01*
X275357Y402797D01*
X275397Y402888D01*
X275433Y402981D01*
X275466Y403075D01*
X275495Y403171D01*
X275520Y403267D01*
X275541Y403364D01*
X275559Y403463D01*
X275572Y403561D01*
X275582Y403661D01*
X275588Y403760D01*
X275590Y403860D01*
X275590Y431800D02*
X275590Y434340D01*
X275590Y431800D02*
X274320Y430530D01*
X257810Y431800D02*
X257810Y434340D01*
X257810Y431800D02*
X259080Y430530D01*
X274320Y407670D02*
X275590Y406400D01*
X274320Y407670D02*
X274320Y430530D01*
X259080Y407670D02*
X257810Y406400D01*
X259080Y407670D02*
X259080Y430530D01*
X275590Y406400D02*
X275590Y403860D01*
X257810Y403860D02*
X257810Y406400D01*
D11*
X282575Y431248D02*
X294005Y431248D01*
X282575Y431248D02*
X282575Y434423D01*
X282577Y434534D01*
X282583Y434644D01*
X282592Y434755D01*
X282606Y434865D01*
X282623Y434974D01*
X282644Y435083D01*
X282669Y435191D01*
X282698Y435298D01*
X282730Y435404D01*
X282766Y435509D01*
X282806Y435612D01*
X282849Y435714D01*
X282896Y435815D01*
X282947Y435914D01*
X283000Y436011D01*
X283057Y436105D01*
X283118Y436198D01*
X283181Y436289D01*
X283248Y436378D01*
X283318Y436464D01*
X283391Y436547D01*
X283466Y436629D01*
X283544Y436707D01*
X283626Y436782D01*
X283709Y436855D01*
X283795Y436925D01*
X283884Y436992D01*
X283975Y437055D01*
X284068Y437116D01*
X284163Y437173D01*
X284259Y437226D01*
X284358Y437277D01*
X284459Y437324D01*
X284561Y437367D01*
X284664Y437407D01*
X284769Y437443D01*
X284875Y437475D01*
X284982Y437504D01*
X285090Y437529D01*
X285199Y437550D01*
X285308Y437567D01*
X285418Y437581D01*
X285529Y437590D01*
X285639Y437596D01*
X285750Y437598D01*
X285861Y437596D01*
X285971Y437590D01*
X286082Y437581D01*
X286192Y437567D01*
X286301Y437550D01*
X286410Y437529D01*
X286518Y437504D01*
X286625Y437475D01*
X286731Y437443D01*
X286836Y437407D01*
X286939Y437367D01*
X287041Y437324D01*
X287142Y437277D01*
X287241Y437226D01*
X287338Y437173D01*
X287432Y437116D01*
X287525Y437055D01*
X287616Y436992D01*
X287705Y436925D01*
X287791Y436855D01*
X287874Y436782D01*
X287956Y436707D01*
X288034Y436629D01*
X288109Y436547D01*
X288182Y436464D01*
X288252Y436378D01*
X288319Y436289D01*
X288382Y436198D01*
X288443Y436105D01*
X288500Y436011D01*
X288553Y435914D01*
X288604Y435815D01*
X288651Y435714D01*
X288694Y435612D01*
X288734Y435509D01*
X288770Y435404D01*
X288802Y435298D01*
X288831Y435191D01*
X288856Y435083D01*
X288877Y434974D01*
X288894Y434865D01*
X288908Y434755D01*
X288917Y434644D01*
X288923Y434534D01*
X288925Y434423D01*
X288925Y431248D01*
X288925Y435058D02*
X294005Y437598D01*
X285433Y448946D02*
X285329Y448944D01*
X285224Y448938D01*
X285120Y448929D01*
X285017Y448916D01*
X284914Y448898D01*
X284812Y448878D01*
X284710Y448853D01*
X284610Y448825D01*
X284510Y448793D01*
X284412Y448757D01*
X284315Y448718D01*
X284220Y448676D01*
X284126Y448630D01*
X284034Y448580D01*
X283944Y448528D01*
X283856Y448472D01*
X283770Y448412D01*
X283686Y448350D01*
X283605Y448285D01*
X283526Y448217D01*
X283449Y448145D01*
X283376Y448072D01*
X283304Y447995D01*
X283236Y447916D01*
X283171Y447835D01*
X283109Y447751D01*
X283049Y447665D01*
X282993Y447577D01*
X282941Y447487D01*
X282891Y447395D01*
X282845Y447301D01*
X282803Y447206D01*
X282764Y447109D01*
X282728Y447011D01*
X282696Y446911D01*
X282668Y446811D01*
X282643Y446709D01*
X282623Y446607D01*
X282605Y446504D01*
X282592Y446401D01*
X282583Y446297D01*
X282577Y446192D01*
X282575Y446088D01*
X282577Y445970D01*
X282583Y445851D01*
X282592Y445733D01*
X282605Y445616D01*
X282623Y445499D01*
X282643Y445382D01*
X282668Y445266D01*
X282696Y445151D01*
X282729Y445038D01*
X282764Y444925D01*
X282804Y444813D01*
X282846Y444703D01*
X282893Y444594D01*
X282943Y444486D01*
X282996Y444381D01*
X283053Y444277D01*
X283113Y444175D01*
X283176Y444075D01*
X283243Y443977D01*
X283312Y443881D01*
X283385Y443788D01*
X283461Y443697D01*
X283539Y443608D01*
X283621Y443522D01*
X283705Y443439D01*
X283791Y443358D01*
X283881Y443281D01*
X283972Y443206D01*
X284066Y443134D01*
X284163Y443065D01*
X284261Y443000D01*
X284362Y442937D01*
X284465Y442878D01*
X284569Y442822D01*
X284675Y442770D01*
X284783Y442721D01*
X284892Y442676D01*
X285003Y442634D01*
X285115Y442596D01*
X287655Y447993D02*
X287580Y448069D01*
X287501Y448144D01*
X287420Y448215D01*
X287336Y448284D01*
X287250Y448349D01*
X287162Y448411D01*
X287072Y448471D01*
X286980Y448527D01*
X286885Y448580D01*
X286789Y448629D01*
X286691Y448675D01*
X286592Y448718D01*
X286491Y448757D01*
X286389Y448792D01*
X286286Y448824D01*
X286182Y448852D01*
X286077Y448877D01*
X285970Y448898D01*
X285864Y448915D01*
X285757Y448928D01*
X285649Y448937D01*
X285541Y448943D01*
X285433Y448945D01*
X287655Y447993D02*
X294005Y442595D01*
X294005Y448945D01*
D10*
X224790Y434340D02*
X224788Y434440D01*
X224782Y434539D01*
X224772Y434639D01*
X224759Y434737D01*
X224741Y434836D01*
X224720Y434933D01*
X224695Y435029D01*
X224666Y435125D01*
X224633Y435219D01*
X224597Y435312D01*
X224557Y435403D01*
X224513Y435493D01*
X224466Y435581D01*
X224416Y435667D01*
X224362Y435751D01*
X224305Y435833D01*
X224245Y435912D01*
X224181Y435990D01*
X224115Y436064D01*
X224046Y436136D01*
X223974Y436205D01*
X223900Y436271D01*
X223822Y436335D01*
X223743Y436395D01*
X223661Y436452D01*
X223577Y436506D01*
X223491Y436556D01*
X223403Y436603D01*
X223313Y436647D01*
X223222Y436687D01*
X223129Y436723D01*
X223035Y436756D01*
X222939Y436785D01*
X222843Y436810D01*
X222746Y436831D01*
X222647Y436849D01*
X222549Y436862D01*
X222449Y436872D01*
X222350Y436878D01*
X222250Y436880D01*
X209550Y436880D02*
X209450Y436878D01*
X209351Y436872D01*
X209251Y436862D01*
X209153Y436849D01*
X209054Y436831D01*
X208957Y436810D01*
X208861Y436785D01*
X208765Y436756D01*
X208671Y436723D01*
X208578Y436687D01*
X208487Y436647D01*
X208397Y436603D01*
X208309Y436556D01*
X208223Y436506D01*
X208139Y436452D01*
X208057Y436395D01*
X207978Y436335D01*
X207900Y436271D01*
X207826Y436205D01*
X207754Y436136D01*
X207685Y436064D01*
X207619Y435990D01*
X207555Y435912D01*
X207495Y435833D01*
X207438Y435751D01*
X207384Y435667D01*
X207334Y435581D01*
X207287Y435493D01*
X207243Y435403D01*
X207203Y435312D01*
X207167Y435219D01*
X207134Y435125D01*
X207105Y435029D01*
X207080Y434933D01*
X207059Y434836D01*
X207041Y434737D01*
X207028Y434639D01*
X207018Y434539D01*
X207012Y434440D01*
X207010Y434340D01*
X207010Y403860D02*
X207012Y403760D01*
X207018Y403661D01*
X207028Y403561D01*
X207041Y403463D01*
X207059Y403364D01*
X207080Y403267D01*
X207105Y403171D01*
X207134Y403075D01*
X207167Y402981D01*
X207203Y402888D01*
X207243Y402797D01*
X207287Y402707D01*
X207334Y402619D01*
X207384Y402533D01*
X207438Y402449D01*
X207495Y402367D01*
X207555Y402288D01*
X207619Y402210D01*
X207685Y402136D01*
X207754Y402064D01*
X207826Y401995D01*
X207900Y401929D01*
X207978Y401865D01*
X208057Y401805D01*
X208139Y401748D01*
X208223Y401694D01*
X208309Y401644D01*
X208397Y401597D01*
X208487Y401553D01*
X208578Y401513D01*
X208671Y401477D01*
X208765Y401444D01*
X208861Y401415D01*
X208957Y401390D01*
X209054Y401369D01*
X209153Y401351D01*
X209251Y401338D01*
X209351Y401328D01*
X209450Y401322D01*
X209550Y401320D01*
X222250Y401320D02*
X222350Y401322D01*
X222449Y401328D01*
X222549Y401338D01*
X222647Y401351D01*
X222746Y401369D01*
X222843Y401390D01*
X222939Y401415D01*
X223035Y401444D01*
X223129Y401477D01*
X223222Y401513D01*
X223313Y401553D01*
X223403Y401597D01*
X223491Y401644D01*
X223577Y401694D01*
X223661Y401748D01*
X223743Y401805D01*
X223822Y401865D01*
X223900Y401929D01*
X223974Y401995D01*
X224046Y402064D01*
X224115Y402136D01*
X224181Y402210D01*
X224245Y402288D01*
X224305Y402367D01*
X224362Y402449D01*
X224416Y402533D01*
X224466Y402619D01*
X224513Y402707D01*
X224557Y402797D01*
X224597Y402888D01*
X224633Y402981D01*
X224666Y403075D01*
X224695Y403171D01*
X224720Y403267D01*
X224741Y403364D01*
X224759Y403463D01*
X224772Y403561D01*
X224782Y403661D01*
X224788Y403760D01*
X224790Y403860D01*
X224790Y431800D02*
X224790Y434340D01*
X224790Y431800D02*
X223520Y430530D01*
X207010Y431800D02*
X207010Y434340D01*
X207010Y431800D02*
X208280Y430530D01*
X223520Y407670D02*
X224790Y406400D01*
X223520Y407670D02*
X223520Y430530D01*
X208280Y407670D02*
X207010Y406400D01*
X208280Y407670D02*
X208280Y430530D01*
X224790Y406400D02*
X224790Y403860D01*
X207010Y403860D02*
X207010Y406400D01*
D11*
X231775Y431248D02*
X243205Y431248D01*
X231775Y431248D02*
X231775Y434423D01*
X231777Y434534D01*
X231783Y434644D01*
X231792Y434755D01*
X231806Y434865D01*
X231823Y434974D01*
X231844Y435083D01*
X231869Y435191D01*
X231898Y435298D01*
X231930Y435404D01*
X231966Y435509D01*
X232006Y435612D01*
X232049Y435714D01*
X232096Y435815D01*
X232147Y435914D01*
X232200Y436011D01*
X232257Y436105D01*
X232318Y436198D01*
X232381Y436289D01*
X232448Y436378D01*
X232518Y436464D01*
X232591Y436547D01*
X232666Y436629D01*
X232744Y436707D01*
X232826Y436782D01*
X232909Y436855D01*
X232995Y436925D01*
X233084Y436992D01*
X233175Y437055D01*
X233268Y437116D01*
X233363Y437173D01*
X233459Y437226D01*
X233558Y437277D01*
X233659Y437324D01*
X233761Y437367D01*
X233864Y437407D01*
X233969Y437443D01*
X234075Y437475D01*
X234182Y437504D01*
X234290Y437529D01*
X234399Y437550D01*
X234508Y437567D01*
X234618Y437581D01*
X234729Y437590D01*
X234839Y437596D01*
X234950Y437598D01*
X235061Y437596D01*
X235171Y437590D01*
X235282Y437581D01*
X235392Y437567D01*
X235501Y437550D01*
X235610Y437529D01*
X235718Y437504D01*
X235825Y437475D01*
X235931Y437443D01*
X236036Y437407D01*
X236139Y437367D01*
X236241Y437324D01*
X236342Y437277D01*
X236441Y437226D01*
X236538Y437173D01*
X236632Y437116D01*
X236725Y437055D01*
X236816Y436992D01*
X236905Y436925D01*
X236991Y436855D01*
X237074Y436782D01*
X237156Y436707D01*
X237234Y436629D01*
X237309Y436547D01*
X237382Y436464D01*
X237452Y436378D01*
X237519Y436289D01*
X237582Y436198D01*
X237643Y436105D01*
X237700Y436011D01*
X237753Y435914D01*
X237804Y435815D01*
X237851Y435714D01*
X237894Y435612D01*
X237934Y435509D01*
X237970Y435404D01*
X238002Y435298D01*
X238031Y435191D01*
X238056Y435083D01*
X238077Y434974D01*
X238094Y434865D01*
X238108Y434755D01*
X238117Y434644D01*
X238123Y434534D01*
X238125Y434423D01*
X238125Y431248D01*
X238125Y435058D02*
X243205Y437598D01*
X243205Y442595D02*
X243205Y445770D01*
X243203Y445881D01*
X243197Y445991D01*
X243188Y446102D01*
X243174Y446212D01*
X243157Y446321D01*
X243136Y446430D01*
X243111Y446538D01*
X243082Y446645D01*
X243050Y446751D01*
X243014Y446856D01*
X242974Y446959D01*
X242931Y447061D01*
X242884Y447162D01*
X242833Y447261D01*
X242780Y447358D01*
X242723Y447452D01*
X242662Y447545D01*
X242599Y447636D01*
X242532Y447725D01*
X242462Y447811D01*
X242389Y447894D01*
X242314Y447976D01*
X242236Y448054D01*
X242154Y448129D01*
X242071Y448202D01*
X241985Y448272D01*
X241896Y448339D01*
X241805Y448402D01*
X241712Y448463D01*
X241618Y448520D01*
X241521Y448573D01*
X241422Y448624D01*
X241321Y448671D01*
X241219Y448714D01*
X241116Y448754D01*
X241011Y448790D01*
X240905Y448822D01*
X240798Y448851D01*
X240690Y448876D01*
X240581Y448897D01*
X240472Y448914D01*
X240362Y448928D01*
X240251Y448937D01*
X240141Y448943D01*
X240030Y448945D01*
X239919Y448943D01*
X239809Y448937D01*
X239698Y448928D01*
X239588Y448914D01*
X239479Y448897D01*
X239370Y448876D01*
X239262Y448851D01*
X239155Y448822D01*
X239049Y448790D01*
X238944Y448754D01*
X238841Y448714D01*
X238739Y448671D01*
X238638Y448624D01*
X238539Y448573D01*
X238443Y448520D01*
X238348Y448463D01*
X238255Y448402D01*
X238164Y448339D01*
X238075Y448272D01*
X237989Y448202D01*
X237906Y448129D01*
X237824Y448054D01*
X237746Y447976D01*
X237671Y447894D01*
X237598Y447811D01*
X237528Y447725D01*
X237461Y447636D01*
X237398Y447545D01*
X237337Y447452D01*
X237280Y447358D01*
X237227Y447261D01*
X237176Y447162D01*
X237129Y447061D01*
X237086Y446959D01*
X237046Y446856D01*
X237010Y446751D01*
X236978Y446645D01*
X236949Y446538D01*
X236924Y446430D01*
X236903Y446321D01*
X236886Y446212D01*
X236872Y446102D01*
X236863Y445991D01*
X236857Y445881D01*
X236855Y445770D01*
X231775Y446405D02*
X231775Y442595D01*
X231775Y446405D02*
X231777Y446505D01*
X231783Y446604D01*
X231793Y446704D01*
X231806Y446802D01*
X231824Y446901D01*
X231845Y446998D01*
X231870Y447094D01*
X231899Y447190D01*
X231932Y447284D01*
X231968Y447377D01*
X232008Y447468D01*
X232052Y447558D01*
X232099Y447646D01*
X232149Y447732D01*
X232203Y447816D01*
X232260Y447898D01*
X232320Y447977D01*
X232384Y448055D01*
X232450Y448129D01*
X232519Y448201D01*
X232591Y448270D01*
X232665Y448336D01*
X232743Y448400D01*
X232822Y448460D01*
X232904Y448517D01*
X232988Y448571D01*
X233074Y448621D01*
X233162Y448668D01*
X233252Y448712D01*
X233343Y448752D01*
X233436Y448788D01*
X233530Y448821D01*
X233626Y448850D01*
X233722Y448875D01*
X233819Y448896D01*
X233918Y448914D01*
X234016Y448927D01*
X234116Y448937D01*
X234215Y448943D01*
X234315Y448945D01*
X234415Y448943D01*
X234514Y448937D01*
X234614Y448927D01*
X234712Y448914D01*
X234811Y448896D01*
X234908Y448875D01*
X235004Y448850D01*
X235100Y448821D01*
X235194Y448788D01*
X235287Y448752D01*
X235378Y448712D01*
X235468Y448668D01*
X235556Y448621D01*
X235642Y448571D01*
X235726Y448517D01*
X235808Y448460D01*
X235887Y448400D01*
X235965Y448336D01*
X236039Y448270D01*
X236111Y448201D01*
X236180Y448129D01*
X236246Y448055D01*
X236310Y447977D01*
X236370Y447898D01*
X236427Y447816D01*
X236481Y447732D01*
X236531Y447646D01*
X236578Y447558D01*
X236622Y447468D01*
X236662Y447377D01*
X236698Y447284D01*
X236731Y447190D01*
X236760Y447094D01*
X236785Y446998D01*
X236806Y446901D01*
X236824Y446802D01*
X236837Y446704D01*
X236847Y446604D01*
X236853Y446505D01*
X236855Y446405D01*
X236855Y443865D01*
D10*
X247650Y436880D02*
X247750Y436878D01*
X247849Y436872D01*
X247949Y436862D01*
X248047Y436849D01*
X248146Y436831D01*
X248243Y436810D01*
X248339Y436785D01*
X248435Y436756D01*
X248529Y436723D01*
X248622Y436687D01*
X248713Y436647D01*
X248803Y436603D01*
X248891Y436556D01*
X248977Y436506D01*
X249061Y436452D01*
X249143Y436395D01*
X249222Y436335D01*
X249300Y436271D01*
X249374Y436205D01*
X249446Y436136D01*
X249515Y436064D01*
X249581Y435990D01*
X249645Y435912D01*
X249705Y435833D01*
X249762Y435751D01*
X249816Y435667D01*
X249866Y435581D01*
X249913Y435493D01*
X249957Y435403D01*
X249997Y435312D01*
X250033Y435219D01*
X250066Y435125D01*
X250095Y435029D01*
X250120Y434933D01*
X250141Y434836D01*
X250159Y434737D01*
X250172Y434639D01*
X250182Y434539D01*
X250188Y434440D01*
X250190Y434340D01*
X234950Y436880D02*
X234850Y436878D01*
X234751Y436872D01*
X234651Y436862D01*
X234553Y436849D01*
X234454Y436831D01*
X234357Y436810D01*
X234261Y436785D01*
X234165Y436756D01*
X234071Y436723D01*
X233978Y436687D01*
X233887Y436647D01*
X233797Y436603D01*
X233709Y436556D01*
X233623Y436506D01*
X233539Y436452D01*
X233457Y436395D01*
X233378Y436335D01*
X233300Y436271D01*
X233226Y436205D01*
X233154Y436136D01*
X233085Y436064D01*
X233019Y435990D01*
X232955Y435912D01*
X232895Y435833D01*
X232838Y435751D01*
X232784Y435667D01*
X232734Y435581D01*
X232687Y435493D01*
X232643Y435403D01*
X232603Y435312D01*
X232567Y435219D01*
X232534Y435125D01*
X232505Y435029D01*
X232480Y434933D01*
X232459Y434836D01*
X232441Y434737D01*
X232428Y434639D01*
X232418Y434539D01*
X232412Y434440D01*
X232410Y434340D01*
X232410Y403860D02*
X232412Y403760D01*
X232418Y403661D01*
X232428Y403561D01*
X232441Y403463D01*
X232459Y403364D01*
X232480Y403267D01*
X232505Y403171D01*
X232534Y403075D01*
X232567Y402981D01*
X232603Y402888D01*
X232643Y402797D01*
X232687Y402707D01*
X232734Y402619D01*
X232784Y402533D01*
X232838Y402449D01*
X232895Y402367D01*
X232955Y402288D01*
X233019Y402210D01*
X233085Y402136D01*
X233154Y402064D01*
X233226Y401995D01*
X233300Y401929D01*
X233378Y401865D01*
X233457Y401805D01*
X233539Y401748D01*
X233623Y401694D01*
X233709Y401644D01*
X233797Y401597D01*
X233887Y401553D01*
X233978Y401513D01*
X234071Y401477D01*
X234165Y401444D01*
X234261Y401415D01*
X234357Y401390D01*
X234454Y401369D01*
X234553Y401351D01*
X234651Y401338D01*
X234751Y401328D01*
X234850Y401322D01*
X234950Y401320D01*
X247650Y401320D02*
X247750Y401322D01*
X247849Y401328D01*
X247949Y401338D01*
X248047Y401351D01*
X248146Y401369D01*
X248243Y401390D01*
X248339Y401415D01*
X248435Y401444D01*
X248529Y401477D01*
X248622Y401513D01*
X248713Y401553D01*
X248803Y401597D01*
X248891Y401644D01*
X248977Y401694D01*
X249061Y401748D01*
X249143Y401805D01*
X249222Y401865D01*
X249300Y401929D01*
X249374Y401995D01*
X249446Y402064D01*
X249515Y402136D01*
X249581Y402210D01*
X249645Y402288D01*
X249705Y402367D01*
X249762Y402449D01*
X249816Y402533D01*
X249866Y402619D01*
X249913Y402707D01*
X249957Y402797D01*
X249997Y402888D01*
X250033Y402981D01*
X250066Y403075D01*
X250095Y403171D01*
X250120Y403267D01*
X250141Y403364D01*
X250159Y403463D01*
X250172Y403561D01*
X250182Y403661D01*
X250188Y403760D01*
X250190Y403860D01*
X250190Y431800D02*
X250190Y434340D01*
X250190Y431800D02*
X248920Y430530D01*
X232410Y431800D02*
X232410Y434340D01*
X232410Y431800D02*
X233680Y430530D01*
X248920Y407670D02*
X250190Y406400D01*
X248920Y407670D02*
X248920Y430530D01*
X233680Y407670D02*
X232410Y406400D01*
X233680Y407670D02*
X233680Y430530D01*
X250190Y406400D02*
X250190Y403860D01*
X232410Y403860D02*
X232410Y406400D01*
D11*
X257175Y431248D02*
X268605Y431248D01*
X257175Y431248D02*
X257175Y434423D01*
X257177Y434534D01*
X257183Y434644D01*
X257192Y434755D01*
X257206Y434865D01*
X257223Y434974D01*
X257244Y435083D01*
X257269Y435191D01*
X257298Y435298D01*
X257330Y435404D01*
X257366Y435509D01*
X257406Y435612D01*
X257449Y435714D01*
X257496Y435815D01*
X257547Y435914D01*
X257600Y436011D01*
X257657Y436105D01*
X257718Y436198D01*
X257781Y436289D01*
X257848Y436378D01*
X257918Y436464D01*
X257991Y436547D01*
X258066Y436629D01*
X258144Y436707D01*
X258226Y436782D01*
X258309Y436855D01*
X258395Y436925D01*
X258484Y436992D01*
X258575Y437055D01*
X258668Y437116D01*
X258763Y437173D01*
X258859Y437226D01*
X258958Y437277D01*
X259059Y437324D01*
X259161Y437367D01*
X259264Y437407D01*
X259369Y437443D01*
X259475Y437475D01*
X259582Y437504D01*
X259690Y437529D01*
X259799Y437550D01*
X259908Y437567D01*
X260018Y437581D01*
X260129Y437590D01*
X260239Y437596D01*
X260350Y437598D01*
X260461Y437596D01*
X260571Y437590D01*
X260682Y437581D01*
X260792Y437567D01*
X260901Y437550D01*
X261010Y437529D01*
X261118Y437504D01*
X261225Y437475D01*
X261331Y437443D01*
X261436Y437407D01*
X261539Y437367D01*
X261641Y437324D01*
X261742Y437277D01*
X261841Y437226D01*
X261938Y437173D01*
X262032Y437116D01*
X262125Y437055D01*
X262216Y436992D01*
X262305Y436925D01*
X262391Y436855D01*
X262474Y436782D01*
X262556Y436707D01*
X262634Y436629D01*
X262709Y436547D01*
X262782Y436464D01*
X262852Y436378D01*
X262919Y436289D01*
X262982Y436198D01*
X263043Y436105D01*
X263100Y436011D01*
X263153Y435914D01*
X263204Y435815D01*
X263251Y435714D01*
X263294Y435612D01*
X263334Y435509D01*
X263370Y435404D01*
X263402Y435298D01*
X263431Y435191D01*
X263456Y435083D01*
X263477Y434974D01*
X263494Y434865D01*
X263508Y434755D01*
X263517Y434644D01*
X263523Y434534D01*
X263525Y434423D01*
X263525Y431248D01*
X263525Y435058D02*
X268605Y437598D01*
X266065Y442595D02*
X257175Y445135D01*
X266065Y442595D02*
X266065Y448945D01*
X263525Y447040D02*
X268605Y447040D01*
D10*
X273050Y58420D02*
X260350Y58420D01*
X254000Y64770D01*
X254000Y77470D01*
X260350Y83820D01*
X298450Y58420D02*
X304800Y64770D01*
X298450Y58420D02*
X285750Y58420D01*
X279400Y64770D01*
X279400Y77470D01*
X285750Y83820D01*
X298450Y83820D01*
X304800Y77470D01*
X279400Y64770D02*
X273050Y58420D01*
X279400Y77470D02*
X273050Y83820D01*
X260350Y83820D01*
X336550Y58420D02*
X349250Y58420D01*
X336550Y58420D02*
X330200Y64770D01*
X330200Y77470D01*
X336550Y83820D01*
X330200Y64770D02*
X323850Y58420D01*
X311150Y58420D01*
X304800Y64770D01*
X304800Y77470D01*
X311150Y83820D01*
X323850Y83820D01*
X330200Y77470D01*
X355600Y77470D02*
X355600Y64770D01*
X349250Y58420D01*
X355600Y77470D02*
X349250Y83820D01*
X336550Y83820D01*
X247650Y58420D02*
X234950Y58420D01*
X228600Y64770D01*
X228600Y77470D01*
X234950Y83820D01*
X254000Y64770D02*
X247650Y58420D01*
X254000Y77470D02*
X247650Y83820D01*
X234950Y83820D01*
D11*
X338709Y40767D02*
X338809Y40769D01*
X338908Y40775D01*
X339008Y40785D01*
X339106Y40798D01*
X339205Y40816D01*
X339302Y40837D01*
X339398Y40862D01*
X339494Y40891D01*
X339588Y40924D01*
X339681Y40960D01*
X339772Y41000D01*
X339862Y41044D01*
X339950Y41091D01*
X340036Y41141D01*
X340120Y41195D01*
X340202Y41252D01*
X340281Y41312D01*
X340359Y41376D01*
X340433Y41442D01*
X340505Y41511D01*
X340574Y41583D01*
X340640Y41657D01*
X340704Y41735D01*
X340764Y41814D01*
X340821Y41896D01*
X340875Y41980D01*
X340925Y42066D01*
X340972Y42154D01*
X341016Y42244D01*
X341056Y42335D01*
X341092Y42428D01*
X341125Y42522D01*
X341154Y42618D01*
X341179Y42714D01*
X341200Y42811D01*
X341218Y42910D01*
X341231Y43008D01*
X341241Y43108D01*
X341247Y43207D01*
X341249Y43307D01*
X338709Y40767D02*
X338568Y40769D01*
X338427Y40774D01*
X338286Y40784D01*
X338145Y40797D01*
X338005Y40813D01*
X337865Y40834D01*
X337726Y40858D01*
X337587Y40886D01*
X337450Y40917D01*
X337313Y40952D01*
X337177Y40990D01*
X337042Y41032D01*
X336909Y41078D01*
X336776Y41127D01*
X336645Y41180D01*
X336516Y41236D01*
X336387Y41295D01*
X336261Y41358D01*
X336136Y41424D01*
X336013Y41493D01*
X335892Y41566D01*
X335773Y41642D01*
X335655Y41721D01*
X335540Y41802D01*
X335428Y41887D01*
X335317Y41975D01*
X335209Y42066D01*
X335103Y42159D01*
X335000Y42256D01*
X334899Y42355D01*
X335217Y49657D02*
X335219Y49757D01*
X335225Y49856D01*
X335235Y49956D01*
X335248Y50054D01*
X335266Y50153D01*
X335287Y50250D01*
X335312Y50346D01*
X335341Y50442D01*
X335374Y50536D01*
X335410Y50629D01*
X335450Y50720D01*
X335494Y50810D01*
X335541Y50898D01*
X335591Y50984D01*
X335645Y51068D01*
X335702Y51150D01*
X335762Y51229D01*
X335826Y51307D01*
X335892Y51381D01*
X335961Y51453D01*
X336033Y51522D01*
X336107Y51588D01*
X336185Y51652D01*
X336264Y51712D01*
X336346Y51769D01*
X336430Y51823D01*
X336516Y51873D01*
X336604Y51920D01*
X336694Y51964D01*
X336785Y52004D01*
X336878Y52040D01*
X336972Y52073D01*
X337068Y52102D01*
X337164Y52127D01*
X337261Y52148D01*
X337360Y52166D01*
X337458Y52179D01*
X337558Y52189D01*
X337657Y52195D01*
X337757Y52197D01*
X337757Y52198D02*
X337890Y52196D01*
X338023Y52191D01*
X338156Y52181D01*
X338289Y52168D01*
X338421Y52151D01*
X338553Y52131D01*
X338684Y52107D01*
X338814Y52079D01*
X338944Y52048D01*
X339072Y52013D01*
X339200Y51974D01*
X339326Y51932D01*
X339451Y51886D01*
X339575Y51837D01*
X339698Y51785D01*
X339819Y51729D01*
X339938Y51669D01*
X340056Y51607D01*
X340171Y51541D01*
X340285Y51472D01*
X340397Y51399D01*
X340507Y51324D01*
X340615Y51245D01*
X336486Y47434D02*
X336402Y47486D01*
X336319Y47541D01*
X336239Y47600D01*
X336161Y47661D01*
X336086Y47725D01*
X336013Y47793D01*
X335942Y47863D01*
X335875Y47935D01*
X335810Y48010D01*
X335748Y48088D01*
X335689Y48168D01*
X335633Y48250D01*
X335581Y48334D01*
X335532Y48420D01*
X335486Y48508D01*
X335443Y48598D01*
X335404Y48689D01*
X335369Y48782D01*
X335337Y48876D01*
X335309Y48971D01*
X335284Y49067D01*
X335264Y49164D01*
X335246Y49262D01*
X335233Y49360D01*
X335224Y49459D01*
X335218Y49558D01*
X335216Y49657D01*
X339979Y45530D02*
X340063Y45478D01*
X340146Y45423D01*
X340226Y45364D01*
X340304Y45303D01*
X340379Y45239D01*
X340452Y45171D01*
X340523Y45101D01*
X340590Y45029D01*
X340655Y44954D01*
X340717Y44876D01*
X340776Y44796D01*
X340832Y44714D01*
X340884Y44630D01*
X340933Y44544D01*
X340979Y44456D01*
X341022Y44366D01*
X341061Y44275D01*
X341096Y44182D01*
X341128Y44088D01*
X341156Y43993D01*
X341181Y43897D01*
X341201Y43800D01*
X341219Y43702D01*
X341232Y43604D01*
X341241Y43505D01*
X341247Y43406D01*
X341249Y43307D01*
X339979Y45530D02*
X336487Y47435D01*
X345567Y52197D02*
X348107Y40767D01*
X350647Y48387D01*
X353187Y40767D01*
X355727Y52197D01*
D10*
X120650Y58420D02*
X107950Y58420D01*
X101600Y64770D01*
X101600Y77470D01*
X107950Y83820D01*
X146050Y58420D02*
X152400Y64770D01*
X146050Y58420D02*
X133350Y58420D01*
X127000Y64770D01*
X127000Y77470D01*
X133350Y83820D01*
X146050Y83820D01*
X152400Y77470D01*
X127000Y64770D02*
X120650Y58420D01*
X127000Y77470D02*
X120650Y83820D01*
X107950Y83820D01*
X184150Y58420D02*
X196850Y58420D01*
X184150Y58420D02*
X177800Y64770D01*
X177800Y77470D01*
X184150Y83820D01*
X177800Y64770D02*
X171450Y58420D01*
X158750Y58420D01*
X152400Y64770D01*
X152400Y77470D01*
X158750Y83820D01*
X171450Y83820D01*
X177800Y77470D01*
X203200Y77470D02*
X203200Y64770D01*
X196850Y58420D01*
X203200Y77470D02*
X196850Y83820D01*
X184150Y83820D01*
X95250Y58420D02*
X82550Y58420D01*
X76200Y64770D01*
X76200Y77470D01*
X82550Y83820D01*
X101600Y64770D02*
X95250Y58420D01*
X101600Y77470D02*
X95250Y83820D01*
X82550Y83820D01*
D11*
X145923Y40767D02*
X146023Y40769D01*
X146122Y40775D01*
X146222Y40785D01*
X146320Y40798D01*
X146419Y40816D01*
X146516Y40837D01*
X146612Y40862D01*
X146708Y40891D01*
X146802Y40924D01*
X146895Y40960D01*
X146986Y41000D01*
X147076Y41044D01*
X147164Y41091D01*
X147250Y41141D01*
X147334Y41195D01*
X147416Y41252D01*
X147495Y41312D01*
X147573Y41376D01*
X147647Y41442D01*
X147719Y41511D01*
X147788Y41583D01*
X147854Y41657D01*
X147918Y41735D01*
X147978Y41814D01*
X148035Y41896D01*
X148089Y41980D01*
X148139Y42066D01*
X148186Y42154D01*
X148230Y42244D01*
X148270Y42335D01*
X148306Y42428D01*
X148339Y42522D01*
X148368Y42618D01*
X148393Y42714D01*
X148414Y42811D01*
X148432Y42910D01*
X148445Y43008D01*
X148455Y43108D01*
X148461Y43207D01*
X148463Y43307D01*
X145923Y40767D02*
X145782Y40769D01*
X145641Y40774D01*
X145500Y40784D01*
X145359Y40797D01*
X145219Y40813D01*
X145079Y40834D01*
X144940Y40858D01*
X144801Y40886D01*
X144664Y40917D01*
X144527Y40952D01*
X144391Y40990D01*
X144256Y41032D01*
X144123Y41078D01*
X143990Y41127D01*
X143859Y41180D01*
X143730Y41236D01*
X143601Y41295D01*
X143475Y41358D01*
X143350Y41424D01*
X143227Y41493D01*
X143106Y41566D01*
X142987Y41642D01*
X142869Y41721D01*
X142754Y41802D01*
X142642Y41887D01*
X142531Y41975D01*
X142423Y42066D01*
X142317Y42159D01*
X142214Y42256D01*
X142113Y42355D01*
X142431Y49657D02*
X142433Y49757D01*
X142439Y49856D01*
X142449Y49956D01*
X142462Y50054D01*
X142480Y50153D01*
X142501Y50250D01*
X142526Y50346D01*
X142555Y50442D01*
X142588Y50536D01*
X142624Y50629D01*
X142664Y50720D01*
X142708Y50810D01*
X142755Y50898D01*
X142805Y50984D01*
X142859Y51068D01*
X142916Y51150D01*
X142976Y51229D01*
X143040Y51307D01*
X143106Y51381D01*
X143175Y51453D01*
X143247Y51522D01*
X143321Y51588D01*
X143399Y51652D01*
X143478Y51712D01*
X143560Y51769D01*
X143644Y51823D01*
X143730Y51873D01*
X143818Y51920D01*
X143908Y51964D01*
X143999Y52004D01*
X144092Y52040D01*
X144186Y52073D01*
X144282Y52102D01*
X144378Y52127D01*
X144475Y52148D01*
X144574Y52166D01*
X144672Y52179D01*
X144772Y52189D01*
X144871Y52195D01*
X144971Y52197D01*
X144971Y52198D02*
X145104Y52196D01*
X145237Y52191D01*
X145370Y52181D01*
X145503Y52168D01*
X145635Y52151D01*
X145767Y52131D01*
X145898Y52107D01*
X146028Y52079D01*
X146158Y52048D01*
X146286Y52013D01*
X146414Y51974D01*
X146540Y51932D01*
X146665Y51886D01*
X146789Y51837D01*
X146912Y51785D01*
X147033Y51729D01*
X147152Y51669D01*
X147270Y51607D01*
X147385Y51541D01*
X147499Y51472D01*
X147611Y51399D01*
X147721Y51324D01*
X147829Y51245D01*
X143700Y47434D02*
X143616Y47486D01*
X143533Y47541D01*
X143453Y47600D01*
X143375Y47661D01*
X143300Y47725D01*
X143227Y47793D01*
X143156Y47863D01*
X143089Y47935D01*
X143024Y48010D01*
X142962Y48088D01*
X142903Y48168D01*
X142847Y48250D01*
X142795Y48334D01*
X142746Y48420D01*
X142700Y48508D01*
X142657Y48598D01*
X142618Y48689D01*
X142583Y48782D01*
X142551Y48876D01*
X142523Y48971D01*
X142498Y49067D01*
X142478Y49164D01*
X142460Y49262D01*
X142447Y49360D01*
X142438Y49459D01*
X142432Y49558D01*
X142430Y49657D01*
X147193Y45530D02*
X147277Y45478D01*
X147360Y45423D01*
X147440Y45364D01*
X147518Y45303D01*
X147593Y45239D01*
X147666Y45171D01*
X147737Y45101D01*
X147804Y45029D01*
X147869Y44954D01*
X147931Y44876D01*
X147990Y44796D01*
X148046Y44714D01*
X148098Y44630D01*
X148147Y44544D01*
X148193Y44456D01*
X148236Y44366D01*
X148275Y44275D01*
X148310Y44182D01*
X148342Y44088D01*
X148370Y43993D01*
X148395Y43897D01*
X148415Y43800D01*
X148433Y43702D01*
X148446Y43604D01*
X148455Y43505D01*
X148461Y43406D01*
X148463Y43307D01*
X147193Y45530D02*
X143701Y47435D01*
X152781Y52197D02*
X155321Y40767D01*
X157861Y48387D01*
X160401Y40767D01*
X162941Y52197D01*
X167132Y39497D02*
X172212Y39497D01*
X177190Y40767D02*
X177190Y52197D01*
X177190Y40767D02*
X182270Y40767D01*
X187096Y40767D02*
X192176Y40767D01*
X187096Y40767D02*
X187096Y52197D01*
X192176Y52197D01*
X190906Y47117D02*
X187096Y47117D01*
X196977Y52197D02*
X196977Y40767D01*
X196977Y52197D02*
X200152Y52197D01*
X200263Y52195D01*
X200373Y52189D01*
X200484Y52180D01*
X200594Y52166D01*
X200703Y52149D01*
X200812Y52128D01*
X200920Y52103D01*
X201027Y52074D01*
X201133Y52042D01*
X201238Y52006D01*
X201341Y51966D01*
X201443Y51923D01*
X201544Y51876D01*
X201643Y51825D01*
X201740Y51772D01*
X201834Y51715D01*
X201927Y51654D01*
X202018Y51591D01*
X202107Y51524D01*
X202193Y51454D01*
X202276Y51381D01*
X202358Y51306D01*
X202436Y51228D01*
X202511Y51146D01*
X202584Y51063D01*
X202654Y50977D01*
X202721Y50888D01*
X202784Y50797D01*
X202845Y50704D01*
X202902Y50610D01*
X202955Y50513D01*
X203006Y50414D01*
X203053Y50313D01*
X203096Y50211D01*
X203136Y50108D01*
X203172Y50003D01*
X203204Y49897D01*
X203233Y49790D01*
X203258Y49682D01*
X203279Y49573D01*
X203296Y49464D01*
X203310Y49354D01*
X203319Y49243D01*
X203325Y49133D01*
X203327Y49022D01*
X203327Y43942D01*
X203325Y43831D01*
X203319Y43721D01*
X203310Y43610D01*
X203296Y43500D01*
X203279Y43391D01*
X203258Y43282D01*
X203233Y43174D01*
X203204Y43067D01*
X203172Y42961D01*
X203136Y42856D01*
X203096Y42753D01*
X203053Y42651D01*
X203006Y42550D01*
X202955Y42451D01*
X202902Y42354D01*
X202845Y42260D01*
X202784Y42167D01*
X202721Y42076D01*
X202654Y41987D01*
X202584Y41901D01*
X202511Y41818D01*
X202436Y41736D01*
X202358Y41658D01*
X202276Y41583D01*
X202193Y41510D01*
X202107Y41440D01*
X202018Y41373D01*
X201927Y41310D01*
X201834Y41249D01*
X201739Y41192D01*
X201643Y41139D01*
X201544Y41088D01*
X201443Y41041D01*
X201341Y40998D01*
X201238Y40958D01*
X201133Y40922D01*
X201027Y40890D01*
X200920Y40861D01*
X200812Y40836D01*
X200703Y40815D01*
X200594Y40798D01*
X200484Y40784D01*
X200373Y40775D01*
X200263Y40769D01*
X200152Y40767D01*
X196977Y40767D01*
X750900Y376936D02*
X750900Y478536D01*
X840900Y478536D01*
X840900Y376936D01*
X750900Y376936D01*
X750900Y275336D02*
X750900Y173736D01*
X750900Y275336D02*
X840900Y275336D01*
X840900Y173736D01*
X750900Y173736D01*
X750900Y275336D02*
X750900Y376936D01*
X840900Y376936D01*
X840900Y275336D01*
X750900Y275336D01*
X750900Y173736D02*
X750900Y72136D01*
X750900Y173736D02*
X840900Y173736D01*
X840900Y72136D01*
X750900Y72136D01*
X3124Y88392D02*
X3124Y189992D01*
X93124Y189992D01*
X93124Y88392D01*
X3124Y88392D01*
X412750Y215900D02*
X412752Y216059D01*
X412758Y216218D01*
X412768Y216376D01*
X412782Y216535D01*
X412800Y216693D01*
X412821Y216850D01*
X412847Y217007D01*
X412877Y217163D01*
X412910Y217319D01*
X412948Y217473D01*
X412989Y217627D01*
X413034Y217779D01*
X413083Y217930D01*
X413136Y218080D01*
X413192Y218229D01*
X413253Y218376D01*
X413316Y218521D01*
X413384Y218665D01*
X413455Y218808D01*
X413529Y218948D01*
X413607Y219086D01*
X413689Y219223D01*
X413774Y219357D01*
X413862Y219490D01*
X413953Y219620D01*
X414048Y219747D01*
X414146Y219872D01*
X414247Y219995D01*
X414351Y220115D01*
X414458Y220233D01*
X414568Y220348D01*
X414681Y220460D01*
X414796Y220569D01*
X414914Y220675D01*
X415035Y220779D01*
X415159Y220879D01*
X415284Y220976D01*
X415413Y221070D01*
X415543Y221160D01*
X415676Y221248D01*
X415811Y221332D01*
X415948Y221412D01*
X416087Y221490D01*
X416228Y221563D01*
X416370Y221633D01*
X416515Y221700D01*
X416661Y221763D01*
X416808Y221822D01*
X416957Y221878D01*
X417108Y221929D01*
X417259Y221977D01*
X417412Y222021D01*
X417566Y222062D01*
X417720Y222098D01*
X417876Y222131D01*
X418032Y222160D01*
X418189Y222184D01*
X418347Y222205D01*
X418505Y222222D01*
X418663Y222235D01*
X418822Y222244D01*
X418981Y222249D01*
X419140Y222250D01*
X419299Y222247D01*
X419457Y222240D01*
X419616Y222229D01*
X419774Y222214D01*
X419932Y222195D01*
X420089Y222172D01*
X420246Y222146D01*
X420402Y222115D01*
X420557Y222081D01*
X420711Y222042D01*
X420865Y222000D01*
X421017Y221954D01*
X421168Y221904D01*
X421317Y221850D01*
X421466Y221793D01*
X421612Y221732D01*
X421758Y221667D01*
X421901Y221599D01*
X422043Y221527D01*
X422183Y221451D01*
X422321Y221373D01*
X422457Y221290D01*
X422591Y221205D01*
X422722Y221116D01*
X422852Y221023D01*
X422979Y220928D01*
X423103Y220829D01*
X423226Y220727D01*
X423345Y220623D01*
X423462Y220515D01*
X423576Y220404D01*
X423687Y220291D01*
X423796Y220175D01*
X423901Y220056D01*
X424004Y219934D01*
X424103Y219810D01*
X424200Y219684D01*
X424293Y219555D01*
X424383Y219424D01*
X424469Y219290D01*
X424552Y219155D01*
X424632Y219017D01*
X424708Y218878D01*
X424781Y218737D01*
X424850Y218594D01*
X424916Y218449D01*
X424978Y218302D01*
X425036Y218155D01*
X425091Y218005D01*
X425142Y217855D01*
X425189Y217703D01*
X425232Y217550D01*
X425271Y217396D01*
X425307Y217241D01*
X425338Y217085D01*
X425366Y216929D01*
X425390Y216772D01*
X425410Y216614D01*
X425426Y216456D01*
X425438Y216297D01*
X425446Y216138D01*
X425450Y215979D01*
X425450Y215821D01*
X425446Y215662D01*
X425438Y215503D01*
X425426Y215344D01*
X425410Y215186D01*
X425390Y215028D01*
X425366Y214871D01*
X425338Y214715D01*
X425307Y214559D01*
X425271Y214404D01*
X425232Y214250D01*
X425189Y214097D01*
X425142Y213945D01*
X425091Y213795D01*
X425036Y213645D01*
X424978Y213498D01*
X424916Y213351D01*
X424850Y213206D01*
X424781Y213063D01*
X424708Y212922D01*
X424632Y212783D01*
X424552Y212645D01*
X424469Y212510D01*
X424383Y212376D01*
X424293Y212245D01*
X424200Y212116D01*
X424103Y211990D01*
X424004Y211866D01*
X423901Y211744D01*
X423796Y211625D01*
X423687Y211509D01*
X423576Y211396D01*
X423462Y211285D01*
X423345Y211177D01*
X423226Y211073D01*
X423103Y210971D01*
X422979Y210872D01*
X422852Y210777D01*
X422722Y210684D01*
X422591Y210595D01*
X422457Y210510D01*
X422321Y210427D01*
X422183Y210349D01*
X422043Y210273D01*
X421901Y210201D01*
X421758Y210133D01*
X421612Y210068D01*
X421466Y210007D01*
X421317Y209950D01*
X421168Y209896D01*
X421017Y209846D01*
X420865Y209800D01*
X420711Y209758D01*
X420557Y209719D01*
X420402Y209685D01*
X420246Y209654D01*
X420089Y209628D01*
X419932Y209605D01*
X419774Y209586D01*
X419616Y209571D01*
X419457Y209560D01*
X419299Y209553D01*
X419140Y209550D01*
X418981Y209551D01*
X418822Y209556D01*
X418663Y209565D01*
X418505Y209578D01*
X418347Y209595D01*
X418189Y209616D01*
X418032Y209640D01*
X417876Y209669D01*
X417720Y209702D01*
X417566Y209738D01*
X417412Y209779D01*
X417259Y209823D01*
X417108Y209871D01*
X416957Y209922D01*
X416808Y209978D01*
X416661Y210037D01*
X416515Y210100D01*
X416370Y210167D01*
X416228Y210237D01*
X416087Y210310D01*
X415948Y210388D01*
X415811Y210468D01*
X415676Y210552D01*
X415543Y210640D01*
X415413Y210730D01*
X415284Y210824D01*
X415159Y210921D01*
X415035Y211021D01*
X414914Y211125D01*
X414796Y211231D01*
X414681Y211340D01*
X414568Y211452D01*
X414458Y211567D01*
X414351Y211685D01*
X414247Y211805D01*
X414146Y211928D01*
X414048Y212053D01*
X413953Y212180D01*
X413862Y212310D01*
X413774Y212443D01*
X413689Y212577D01*
X413607Y212714D01*
X413529Y212852D01*
X413455Y212992D01*
X413384Y213135D01*
X413316Y213279D01*
X413253Y213424D01*
X413192Y213571D01*
X413136Y213720D01*
X413083Y213870D01*
X413034Y214021D01*
X412989Y214173D01*
X412948Y214327D01*
X412910Y214481D01*
X412877Y214637D01*
X412847Y214793D01*
X412821Y214950D01*
X412800Y215107D01*
X412782Y215265D01*
X412768Y215424D01*
X412758Y215582D01*
X412752Y215741D01*
X412750Y215900D01*
X412750Y368300D02*
X412752Y368459D01*
X412758Y368618D01*
X412768Y368776D01*
X412782Y368935D01*
X412800Y369093D01*
X412821Y369250D01*
X412847Y369407D01*
X412877Y369563D01*
X412910Y369719D01*
X412948Y369873D01*
X412989Y370027D01*
X413034Y370179D01*
X413083Y370330D01*
X413136Y370480D01*
X413192Y370629D01*
X413253Y370776D01*
X413316Y370921D01*
X413384Y371065D01*
X413455Y371208D01*
X413529Y371348D01*
X413607Y371486D01*
X413689Y371623D01*
X413774Y371757D01*
X413862Y371890D01*
X413953Y372020D01*
X414048Y372147D01*
X414146Y372272D01*
X414247Y372395D01*
X414351Y372515D01*
X414458Y372633D01*
X414568Y372748D01*
X414681Y372860D01*
X414796Y372969D01*
X414914Y373075D01*
X415035Y373179D01*
X415159Y373279D01*
X415284Y373376D01*
X415413Y373470D01*
X415543Y373560D01*
X415676Y373648D01*
X415811Y373732D01*
X415948Y373812D01*
X416087Y373890D01*
X416228Y373963D01*
X416370Y374033D01*
X416515Y374100D01*
X416661Y374163D01*
X416808Y374222D01*
X416957Y374278D01*
X417108Y374329D01*
X417259Y374377D01*
X417412Y374421D01*
X417566Y374462D01*
X417720Y374498D01*
X417876Y374531D01*
X418032Y374560D01*
X418189Y374584D01*
X418347Y374605D01*
X418505Y374622D01*
X418663Y374635D01*
X418822Y374644D01*
X418981Y374649D01*
X419140Y374650D01*
X419299Y374647D01*
X419457Y374640D01*
X419616Y374629D01*
X419774Y374614D01*
X419932Y374595D01*
X420089Y374572D01*
X420246Y374546D01*
X420402Y374515D01*
X420557Y374481D01*
X420711Y374442D01*
X420865Y374400D01*
X421017Y374354D01*
X421168Y374304D01*
X421317Y374250D01*
X421466Y374193D01*
X421612Y374132D01*
X421758Y374067D01*
X421901Y373999D01*
X422043Y373927D01*
X422183Y373851D01*
X422321Y373773D01*
X422457Y373690D01*
X422591Y373605D01*
X422722Y373516D01*
X422852Y373423D01*
X422979Y373328D01*
X423103Y373229D01*
X423226Y373127D01*
X423345Y373023D01*
X423462Y372915D01*
X423576Y372804D01*
X423687Y372691D01*
X423796Y372575D01*
X423901Y372456D01*
X424004Y372334D01*
X424103Y372210D01*
X424200Y372084D01*
X424293Y371955D01*
X424383Y371824D01*
X424469Y371690D01*
X424552Y371555D01*
X424632Y371417D01*
X424708Y371278D01*
X424781Y371137D01*
X424850Y370994D01*
X424916Y370849D01*
X424978Y370702D01*
X425036Y370555D01*
X425091Y370405D01*
X425142Y370255D01*
X425189Y370103D01*
X425232Y369950D01*
X425271Y369796D01*
X425307Y369641D01*
X425338Y369485D01*
X425366Y369329D01*
X425390Y369172D01*
X425410Y369014D01*
X425426Y368856D01*
X425438Y368697D01*
X425446Y368538D01*
X425450Y368379D01*
X425450Y368221D01*
X425446Y368062D01*
X425438Y367903D01*
X425426Y367744D01*
X425410Y367586D01*
X425390Y367428D01*
X425366Y367271D01*
X425338Y367115D01*
X425307Y366959D01*
X425271Y366804D01*
X425232Y366650D01*
X425189Y366497D01*
X425142Y366345D01*
X425091Y366195D01*
X425036Y366045D01*
X424978Y365898D01*
X424916Y365751D01*
X424850Y365606D01*
X424781Y365463D01*
X424708Y365322D01*
X424632Y365183D01*
X424552Y365045D01*
X424469Y364910D01*
X424383Y364776D01*
X424293Y364645D01*
X424200Y364516D01*
X424103Y364390D01*
X424004Y364266D01*
X423901Y364144D01*
X423796Y364025D01*
X423687Y363909D01*
X423576Y363796D01*
X423462Y363685D01*
X423345Y363577D01*
X423226Y363473D01*
X423103Y363371D01*
X422979Y363272D01*
X422852Y363177D01*
X422722Y363084D01*
X422591Y362995D01*
X422457Y362910D01*
X422321Y362827D01*
X422183Y362749D01*
X422043Y362673D01*
X421901Y362601D01*
X421758Y362533D01*
X421612Y362468D01*
X421466Y362407D01*
X421317Y362350D01*
X421168Y362296D01*
X421017Y362246D01*
X420865Y362200D01*
X420711Y362158D01*
X420557Y362119D01*
X420402Y362085D01*
X420246Y362054D01*
X420089Y362028D01*
X419932Y362005D01*
X419774Y361986D01*
X419616Y361971D01*
X419457Y361960D01*
X419299Y361953D01*
X419140Y361950D01*
X418981Y361951D01*
X418822Y361956D01*
X418663Y361965D01*
X418505Y361978D01*
X418347Y361995D01*
X418189Y362016D01*
X418032Y362040D01*
X417876Y362069D01*
X417720Y362102D01*
X417566Y362138D01*
X417412Y362179D01*
X417259Y362223D01*
X417108Y362271D01*
X416957Y362322D01*
X416808Y362378D01*
X416661Y362437D01*
X416515Y362500D01*
X416370Y362567D01*
X416228Y362637D01*
X416087Y362710D01*
X415948Y362788D01*
X415811Y362868D01*
X415676Y362952D01*
X415543Y363040D01*
X415413Y363130D01*
X415284Y363224D01*
X415159Y363321D01*
X415035Y363421D01*
X414914Y363525D01*
X414796Y363631D01*
X414681Y363740D01*
X414568Y363852D01*
X414458Y363967D01*
X414351Y364085D01*
X414247Y364205D01*
X414146Y364328D01*
X414048Y364453D01*
X413953Y364580D01*
X413862Y364710D01*
X413774Y364843D01*
X413689Y364977D01*
X413607Y365114D01*
X413529Y365252D01*
X413455Y365392D01*
X413384Y365535D01*
X413316Y365679D01*
X413253Y365824D01*
X413192Y365971D01*
X413136Y366120D01*
X413083Y366270D01*
X413034Y366421D01*
X412989Y366573D01*
X412948Y366727D01*
X412910Y366881D01*
X412877Y367037D01*
X412847Y367193D01*
X412821Y367350D01*
X412800Y367507D01*
X412782Y367665D01*
X412768Y367824D01*
X412758Y367982D01*
X412752Y368141D01*
X412750Y368300D01*
X387350Y266700D02*
X387352Y266859D01*
X387358Y267018D01*
X387368Y267176D01*
X387382Y267335D01*
X387400Y267493D01*
X387421Y267650D01*
X387447Y267807D01*
X387477Y267963D01*
X387510Y268119D01*
X387548Y268273D01*
X387589Y268427D01*
X387634Y268579D01*
X387683Y268730D01*
X387736Y268880D01*
X387792Y269029D01*
X387853Y269176D01*
X387916Y269321D01*
X387984Y269465D01*
X388055Y269608D01*
X388129Y269748D01*
X388207Y269886D01*
X388289Y270023D01*
X388374Y270157D01*
X388462Y270290D01*
X388553Y270420D01*
X388648Y270547D01*
X388746Y270672D01*
X388847Y270795D01*
X388951Y270915D01*
X389058Y271033D01*
X389168Y271148D01*
X389281Y271260D01*
X389396Y271369D01*
X389514Y271475D01*
X389635Y271579D01*
X389759Y271679D01*
X389884Y271776D01*
X390013Y271870D01*
X390143Y271960D01*
X390276Y272048D01*
X390411Y272132D01*
X390548Y272212D01*
X390687Y272290D01*
X390828Y272363D01*
X390970Y272433D01*
X391115Y272500D01*
X391261Y272563D01*
X391408Y272622D01*
X391557Y272678D01*
X391708Y272729D01*
X391859Y272777D01*
X392012Y272821D01*
X392166Y272862D01*
X392320Y272898D01*
X392476Y272931D01*
X392632Y272960D01*
X392789Y272984D01*
X392947Y273005D01*
X393105Y273022D01*
X393263Y273035D01*
X393422Y273044D01*
X393581Y273049D01*
X393740Y273050D01*
X393899Y273047D01*
X394057Y273040D01*
X394216Y273029D01*
X394374Y273014D01*
X394532Y272995D01*
X394689Y272972D01*
X394846Y272946D01*
X395002Y272915D01*
X395157Y272881D01*
X395311Y272842D01*
X395465Y272800D01*
X395617Y272754D01*
X395768Y272704D01*
X395917Y272650D01*
X396066Y272593D01*
X396212Y272532D01*
X396358Y272467D01*
X396501Y272399D01*
X396643Y272327D01*
X396783Y272251D01*
X396921Y272173D01*
X397057Y272090D01*
X397191Y272005D01*
X397322Y271916D01*
X397452Y271823D01*
X397579Y271728D01*
X397703Y271629D01*
X397826Y271527D01*
X397945Y271423D01*
X398062Y271315D01*
X398176Y271204D01*
X398287Y271091D01*
X398396Y270975D01*
X398501Y270856D01*
X398604Y270734D01*
X398703Y270610D01*
X398800Y270484D01*
X398893Y270355D01*
X398983Y270224D01*
X399069Y270090D01*
X399152Y269955D01*
X399232Y269817D01*
X399308Y269678D01*
X399381Y269537D01*
X399450Y269394D01*
X399516Y269249D01*
X399578Y269102D01*
X399636Y268955D01*
X399691Y268805D01*
X399742Y268655D01*
X399789Y268503D01*
X399832Y268350D01*
X399871Y268196D01*
X399907Y268041D01*
X399938Y267885D01*
X399966Y267729D01*
X399990Y267572D01*
X400010Y267414D01*
X400026Y267256D01*
X400038Y267097D01*
X400046Y266938D01*
X400050Y266779D01*
X400050Y266621D01*
X400046Y266462D01*
X400038Y266303D01*
X400026Y266144D01*
X400010Y265986D01*
X399990Y265828D01*
X399966Y265671D01*
X399938Y265515D01*
X399907Y265359D01*
X399871Y265204D01*
X399832Y265050D01*
X399789Y264897D01*
X399742Y264745D01*
X399691Y264595D01*
X399636Y264445D01*
X399578Y264298D01*
X399516Y264151D01*
X399450Y264006D01*
X399381Y263863D01*
X399308Y263722D01*
X399232Y263583D01*
X399152Y263445D01*
X399069Y263310D01*
X398983Y263176D01*
X398893Y263045D01*
X398800Y262916D01*
X398703Y262790D01*
X398604Y262666D01*
X398501Y262544D01*
X398396Y262425D01*
X398287Y262309D01*
X398176Y262196D01*
X398062Y262085D01*
X397945Y261977D01*
X397826Y261873D01*
X397703Y261771D01*
X397579Y261672D01*
X397452Y261577D01*
X397322Y261484D01*
X397191Y261395D01*
X397057Y261310D01*
X396921Y261227D01*
X396783Y261149D01*
X396643Y261073D01*
X396501Y261001D01*
X396358Y260933D01*
X396212Y260868D01*
X396066Y260807D01*
X395917Y260750D01*
X395768Y260696D01*
X395617Y260646D01*
X395465Y260600D01*
X395311Y260558D01*
X395157Y260519D01*
X395002Y260485D01*
X394846Y260454D01*
X394689Y260428D01*
X394532Y260405D01*
X394374Y260386D01*
X394216Y260371D01*
X394057Y260360D01*
X393899Y260353D01*
X393740Y260350D01*
X393581Y260351D01*
X393422Y260356D01*
X393263Y260365D01*
X393105Y260378D01*
X392947Y260395D01*
X392789Y260416D01*
X392632Y260440D01*
X392476Y260469D01*
X392320Y260502D01*
X392166Y260538D01*
X392012Y260579D01*
X391859Y260623D01*
X391708Y260671D01*
X391557Y260722D01*
X391408Y260778D01*
X391261Y260837D01*
X391115Y260900D01*
X390970Y260967D01*
X390828Y261037D01*
X390687Y261110D01*
X390548Y261188D01*
X390411Y261268D01*
X390276Y261352D01*
X390143Y261440D01*
X390013Y261530D01*
X389884Y261624D01*
X389759Y261721D01*
X389635Y261821D01*
X389514Y261925D01*
X389396Y262031D01*
X389281Y262140D01*
X389168Y262252D01*
X389058Y262367D01*
X388951Y262485D01*
X388847Y262605D01*
X388746Y262728D01*
X388648Y262853D01*
X388553Y262980D01*
X388462Y263110D01*
X388374Y263243D01*
X388289Y263377D01*
X388207Y263514D01*
X388129Y263652D01*
X388055Y263792D01*
X387984Y263935D01*
X387916Y264079D01*
X387853Y264224D01*
X387792Y264371D01*
X387736Y264520D01*
X387683Y264670D01*
X387634Y264821D01*
X387589Y264973D01*
X387548Y265127D01*
X387510Y265281D01*
X387477Y265437D01*
X387447Y265593D01*
X387421Y265750D01*
X387400Y265907D01*
X387382Y266065D01*
X387368Y266224D01*
X387358Y266382D01*
X387352Y266541D01*
X387350Y266700D01*
X387350Y292100D02*
X387352Y292259D01*
X387358Y292418D01*
X387368Y292576D01*
X387382Y292735D01*
X387400Y292893D01*
X387421Y293050D01*
X387447Y293207D01*
X387477Y293363D01*
X387510Y293519D01*
X387548Y293673D01*
X387589Y293827D01*
X387634Y293979D01*
X387683Y294130D01*
X387736Y294280D01*
X387792Y294429D01*
X387853Y294576D01*
X387916Y294721D01*
X387984Y294865D01*
X388055Y295008D01*
X388129Y295148D01*
X388207Y295286D01*
X388289Y295423D01*
X388374Y295557D01*
X388462Y295690D01*
X388553Y295820D01*
X388648Y295947D01*
X388746Y296072D01*
X388847Y296195D01*
X388951Y296315D01*
X389058Y296433D01*
X389168Y296548D01*
X389281Y296660D01*
X389396Y296769D01*
X389514Y296875D01*
X389635Y296979D01*
X389759Y297079D01*
X389884Y297176D01*
X390013Y297270D01*
X390143Y297360D01*
X390276Y297448D01*
X390411Y297532D01*
X390548Y297612D01*
X390687Y297690D01*
X390828Y297763D01*
X390970Y297833D01*
X391115Y297900D01*
X391261Y297963D01*
X391408Y298022D01*
X391557Y298078D01*
X391708Y298129D01*
X391859Y298177D01*
X392012Y298221D01*
X392166Y298262D01*
X392320Y298298D01*
X392476Y298331D01*
X392632Y298360D01*
X392789Y298384D01*
X392947Y298405D01*
X393105Y298422D01*
X393263Y298435D01*
X393422Y298444D01*
X393581Y298449D01*
X393740Y298450D01*
X393899Y298447D01*
X394057Y298440D01*
X394216Y298429D01*
X394374Y298414D01*
X394532Y298395D01*
X394689Y298372D01*
X394846Y298346D01*
X395002Y298315D01*
X395157Y298281D01*
X395311Y298242D01*
X395465Y298200D01*
X395617Y298154D01*
X395768Y298104D01*
X395917Y298050D01*
X396066Y297993D01*
X396212Y297932D01*
X396358Y297867D01*
X396501Y297799D01*
X396643Y297727D01*
X396783Y297651D01*
X396921Y297573D01*
X397057Y297490D01*
X397191Y297405D01*
X397322Y297316D01*
X397452Y297223D01*
X397579Y297128D01*
X397703Y297029D01*
X397826Y296927D01*
X397945Y296823D01*
X398062Y296715D01*
X398176Y296604D01*
X398287Y296491D01*
X398396Y296375D01*
X398501Y296256D01*
X398604Y296134D01*
X398703Y296010D01*
X398800Y295884D01*
X398893Y295755D01*
X398983Y295624D01*
X399069Y295490D01*
X399152Y295355D01*
X399232Y295217D01*
X399308Y295078D01*
X399381Y294937D01*
X399450Y294794D01*
X399516Y294649D01*
X399578Y294502D01*
X399636Y294355D01*
X399691Y294205D01*
X399742Y294055D01*
X399789Y293903D01*
X399832Y293750D01*
X399871Y293596D01*
X399907Y293441D01*
X399938Y293285D01*
X399966Y293129D01*
X399990Y292972D01*
X400010Y292814D01*
X400026Y292656D01*
X400038Y292497D01*
X400046Y292338D01*
X400050Y292179D01*
X400050Y292021D01*
X400046Y291862D01*
X400038Y291703D01*
X400026Y291544D01*
X400010Y291386D01*
X399990Y291228D01*
X399966Y291071D01*
X399938Y290915D01*
X399907Y290759D01*
X399871Y290604D01*
X399832Y290450D01*
X399789Y290297D01*
X399742Y290145D01*
X399691Y289995D01*
X399636Y289845D01*
X399578Y289698D01*
X399516Y289551D01*
X399450Y289406D01*
X399381Y289263D01*
X399308Y289122D01*
X399232Y288983D01*
X399152Y288845D01*
X399069Y288710D01*
X398983Y288576D01*
X398893Y288445D01*
X398800Y288316D01*
X398703Y288190D01*
X398604Y288066D01*
X398501Y287944D01*
X398396Y287825D01*
X398287Y287709D01*
X398176Y287596D01*
X398062Y287485D01*
X397945Y287377D01*
X397826Y287273D01*
X397703Y287171D01*
X397579Y287072D01*
X397452Y286977D01*
X397322Y286884D01*
X397191Y286795D01*
X397057Y286710D01*
X396921Y286627D01*
X396783Y286549D01*
X396643Y286473D01*
X396501Y286401D01*
X396358Y286333D01*
X396212Y286268D01*
X396066Y286207D01*
X395917Y286150D01*
X395768Y286096D01*
X395617Y286046D01*
X395465Y286000D01*
X395311Y285958D01*
X395157Y285919D01*
X395002Y285885D01*
X394846Y285854D01*
X394689Y285828D01*
X394532Y285805D01*
X394374Y285786D01*
X394216Y285771D01*
X394057Y285760D01*
X393899Y285753D01*
X393740Y285750D01*
X393581Y285751D01*
X393422Y285756D01*
X393263Y285765D01*
X393105Y285778D01*
X392947Y285795D01*
X392789Y285816D01*
X392632Y285840D01*
X392476Y285869D01*
X392320Y285902D01*
X392166Y285938D01*
X392012Y285979D01*
X391859Y286023D01*
X391708Y286071D01*
X391557Y286122D01*
X391408Y286178D01*
X391261Y286237D01*
X391115Y286300D01*
X390970Y286367D01*
X390828Y286437D01*
X390687Y286510D01*
X390548Y286588D01*
X390411Y286668D01*
X390276Y286752D01*
X390143Y286840D01*
X390013Y286930D01*
X389884Y287024D01*
X389759Y287121D01*
X389635Y287221D01*
X389514Y287325D01*
X389396Y287431D01*
X389281Y287540D01*
X389168Y287652D01*
X389058Y287767D01*
X388951Y287885D01*
X388847Y288005D01*
X388746Y288128D01*
X388648Y288253D01*
X388553Y288380D01*
X388462Y288510D01*
X388374Y288643D01*
X388289Y288777D01*
X388207Y288914D01*
X388129Y289052D01*
X388055Y289192D01*
X387984Y289335D01*
X387916Y289479D01*
X387853Y289624D01*
X387792Y289771D01*
X387736Y289920D01*
X387683Y290070D01*
X387634Y290221D01*
X387589Y290373D01*
X387548Y290527D01*
X387510Y290681D01*
X387477Y290837D01*
X387447Y290993D01*
X387421Y291150D01*
X387400Y291307D01*
X387382Y291465D01*
X387368Y291624D01*
X387358Y291782D01*
X387352Y291941D01*
X387350Y292100D01*
X387350Y317500D02*
X387352Y317659D01*
X387358Y317818D01*
X387368Y317976D01*
X387382Y318135D01*
X387400Y318293D01*
X387421Y318450D01*
X387447Y318607D01*
X387477Y318763D01*
X387510Y318919D01*
X387548Y319073D01*
X387589Y319227D01*
X387634Y319379D01*
X387683Y319530D01*
X387736Y319680D01*
X387792Y319829D01*
X387853Y319976D01*
X387916Y320121D01*
X387984Y320265D01*
X388055Y320408D01*
X388129Y320548D01*
X388207Y320686D01*
X388289Y320823D01*
X388374Y320957D01*
X388462Y321090D01*
X388553Y321220D01*
X388648Y321347D01*
X388746Y321472D01*
X388847Y321595D01*
X388951Y321715D01*
X389058Y321833D01*
X389168Y321948D01*
X389281Y322060D01*
X389396Y322169D01*
X389514Y322275D01*
X389635Y322379D01*
X389759Y322479D01*
X389884Y322576D01*
X390013Y322670D01*
X390143Y322760D01*
X390276Y322848D01*
X390411Y322932D01*
X390548Y323012D01*
X390687Y323090D01*
X390828Y323163D01*
X390970Y323233D01*
X391115Y323300D01*
X391261Y323363D01*
X391408Y323422D01*
X391557Y323478D01*
X391708Y323529D01*
X391859Y323577D01*
X392012Y323621D01*
X392166Y323662D01*
X392320Y323698D01*
X392476Y323731D01*
X392632Y323760D01*
X392789Y323784D01*
X392947Y323805D01*
X393105Y323822D01*
X393263Y323835D01*
X393422Y323844D01*
X393581Y323849D01*
X393740Y323850D01*
X393899Y323847D01*
X394057Y323840D01*
X394216Y323829D01*
X394374Y323814D01*
X394532Y323795D01*
X394689Y323772D01*
X394846Y323746D01*
X395002Y323715D01*
X395157Y323681D01*
X395311Y323642D01*
X395465Y323600D01*
X395617Y323554D01*
X395768Y323504D01*
X395917Y323450D01*
X396066Y323393D01*
X396212Y323332D01*
X396358Y323267D01*
X396501Y323199D01*
X396643Y323127D01*
X396783Y323051D01*
X396921Y322973D01*
X397057Y322890D01*
X397191Y322805D01*
X397322Y322716D01*
X397452Y322623D01*
X397579Y322528D01*
X397703Y322429D01*
X397826Y322327D01*
X397945Y322223D01*
X398062Y322115D01*
X398176Y322004D01*
X398287Y321891D01*
X398396Y321775D01*
X398501Y321656D01*
X398604Y321534D01*
X398703Y321410D01*
X398800Y321284D01*
X398893Y321155D01*
X398983Y321024D01*
X399069Y320890D01*
X399152Y320755D01*
X399232Y320617D01*
X399308Y320478D01*
X399381Y320337D01*
X399450Y320194D01*
X399516Y320049D01*
X399578Y319902D01*
X399636Y319755D01*
X399691Y319605D01*
X399742Y319455D01*
X399789Y319303D01*
X399832Y319150D01*
X399871Y318996D01*
X399907Y318841D01*
X399938Y318685D01*
X399966Y318529D01*
X399990Y318372D01*
X400010Y318214D01*
X400026Y318056D01*
X400038Y317897D01*
X400046Y317738D01*
X400050Y317579D01*
X400050Y317421D01*
X400046Y317262D01*
X400038Y317103D01*
X400026Y316944D01*
X400010Y316786D01*
X399990Y316628D01*
X399966Y316471D01*
X399938Y316315D01*
X399907Y316159D01*
X399871Y316004D01*
X399832Y315850D01*
X399789Y315697D01*
X399742Y315545D01*
X399691Y315395D01*
X399636Y315245D01*
X399578Y315098D01*
X399516Y314951D01*
X399450Y314806D01*
X399381Y314663D01*
X399308Y314522D01*
X399232Y314383D01*
X399152Y314245D01*
X399069Y314110D01*
X398983Y313976D01*
X398893Y313845D01*
X398800Y313716D01*
X398703Y313590D01*
X398604Y313466D01*
X398501Y313344D01*
X398396Y313225D01*
X398287Y313109D01*
X398176Y312996D01*
X398062Y312885D01*
X397945Y312777D01*
X397826Y312673D01*
X397703Y312571D01*
X397579Y312472D01*
X397452Y312377D01*
X397322Y312284D01*
X397191Y312195D01*
X397057Y312110D01*
X396921Y312027D01*
X396783Y311949D01*
X396643Y311873D01*
X396501Y311801D01*
X396358Y311733D01*
X396212Y311668D01*
X396066Y311607D01*
X395917Y311550D01*
X395768Y311496D01*
X395617Y311446D01*
X395465Y311400D01*
X395311Y311358D01*
X395157Y311319D01*
X395002Y311285D01*
X394846Y311254D01*
X394689Y311228D01*
X394532Y311205D01*
X394374Y311186D01*
X394216Y311171D01*
X394057Y311160D01*
X393899Y311153D01*
X393740Y311150D01*
X393581Y311151D01*
X393422Y311156D01*
X393263Y311165D01*
X393105Y311178D01*
X392947Y311195D01*
X392789Y311216D01*
X392632Y311240D01*
X392476Y311269D01*
X392320Y311302D01*
X392166Y311338D01*
X392012Y311379D01*
X391859Y311423D01*
X391708Y311471D01*
X391557Y311522D01*
X391408Y311578D01*
X391261Y311637D01*
X391115Y311700D01*
X390970Y311767D01*
X390828Y311837D01*
X390687Y311910D01*
X390548Y311988D01*
X390411Y312068D01*
X390276Y312152D01*
X390143Y312240D01*
X390013Y312330D01*
X389884Y312424D01*
X389759Y312521D01*
X389635Y312621D01*
X389514Y312725D01*
X389396Y312831D01*
X389281Y312940D01*
X389168Y313052D01*
X389058Y313167D01*
X388951Y313285D01*
X388847Y313405D01*
X388746Y313528D01*
X388648Y313653D01*
X388553Y313780D01*
X388462Y313910D01*
X388374Y314043D01*
X388289Y314177D01*
X388207Y314314D01*
X388129Y314452D01*
X388055Y314592D01*
X387984Y314735D01*
X387916Y314879D01*
X387853Y315024D01*
X387792Y315171D01*
X387736Y315320D01*
X387683Y315470D01*
X387634Y315621D01*
X387589Y315773D01*
X387548Y315927D01*
X387510Y316081D01*
X387477Y316237D01*
X387447Y316393D01*
X387421Y316550D01*
X387400Y316707D01*
X387382Y316865D01*
X387368Y317024D01*
X387358Y317182D01*
X387352Y317341D01*
X387350Y317500D01*
X412750Y317500D02*
X412752Y317659D01*
X412758Y317818D01*
X412768Y317976D01*
X412782Y318135D01*
X412800Y318293D01*
X412821Y318450D01*
X412847Y318607D01*
X412877Y318763D01*
X412910Y318919D01*
X412948Y319073D01*
X412989Y319227D01*
X413034Y319379D01*
X413083Y319530D01*
X413136Y319680D01*
X413192Y319829D01*
X413253Y319976D01*
X413316Y320121D01*
X413384Y320265D01*
X413455Y320408D01*
X413529Y320548D01*
X413607Y320686D01*
X413689Y320823D01*
X413774Y320957D01*
X413862Y321090D01*
X413953Y321220D01*
X414048Y321347D01*
X414146Y321472D01*
X414247Y321595D01*
X414351Y321715D01*
X414458Y321833D01*
X414568Y321948D01*
X414681Y322060D01*
X414796Y322169D01*
X414914Y322275D01*
X415035Y322379D01*
X415159Y322479D01*
X415284Y322576D01*
X415413Y322670D01*
X415543Y322760D01*
X415676Y322848D01*
X415811Y322932D01*
X415948Y323012D01*
X416087Y323090D01*
X416228Y323163D01*
X416370Y323233D01*
X416515Y323300D01*
X416661Y323363D01*
X416808Y323422D01*
X416957Y323478D01*
X417108Y323529D01*
X417259Y323577D01*
X417412Y323621D01*
X417566Y323662D01*
X417720Y323698D01*
X417876Y323731D01*
X418032Y323760D01*
X418189Y323784D01*
X418347Y323805D01*
X418505Y323822D01*
X418663Y323835D01*
X418822Y323844D01*
X418981Y323849D01*
X419140Y323850D01*
X419299Y323847D01*
X419457Y323840D01*
X419616Y323829D01*
X419774Y323814D01*
X419932Y323795D01*
X420089Y323772D01*
X420246Y323746D01*
X420402Y323715D01*
X420557Y323681D01*
X420711Y323642D01*
X420865Y323600D01*
X421017Y323554D01*
X421168Y323504D01*
X421317Y323450D01*
X421466Y323393D01*
X421612Y323332D01*
X421758Y323267D01*
X421901Y323199D01*
X422043Y323127D01*
X422183Y323051D01*
X422321Y322973D01*
X422457Y322890D01*
X422591Y322805D01*
X422722Y322716D01*
X422852Y322623D01*
X422979Y322528D01*
X423103Y322429D01*
X423226Y322327D01*
X423345Y322223D01*
X423462Y322115D01*
X423576Y322004D01*
X423687Y321891D01*
X423796Y321775D01*
X423901Y321656D01*
X424004Y321534D01*
X424103Y321410D01*
X424200Y321284D01*
X424293Y321155D01*
X424383Y321024D01*
X424469Y320890D01*
X424552Y320755D01*
X424632Y320617D01*
X424708Y320478D01*
X424781Y320337D01*
X424850Y320194D01*
X424916Y320049D01*
X424978Y319902D01*
X425036Y319755D01*
X425091Y319605D01*
X425142Y319455D01*
X425189Y319303D01*
X425232Y319150D01*
X425271Y318996D01*
X425307Y318841D01*
X425338Y318685D01*
X425366Y318529D01*
X425390Y318372D01*
X425410Y318214D01*
X425426Y318056D01*
X425438Y317897D01*
X425446Y317738D01*
X425450Y317579D01*
X425450Y317421D01*
X425446Y317262D01*
X425438Y317103D01*
X425426Y316944D01*
X425410Y316786D01*
X425390Y316628D01*
X425366Y316471D01*
X425338Y316315D01*
X425307Y316159D01*
X425271Y316004D01*
X425232Y315850D01*
X425189Y315697D01*
X425142Y315545D01*
X425091Y315395D01*
X425036Y315245D01*
X424978Y315098D01*
X424916Y314951D01*
X424850Y314806D01*
X424781Y314663D01*
X424708Y314522D01*
X424632Y314383D01*
X424552Y314245D01*
X424469Y314110D01*
X424383Y313976D01*
X424293Y313845D01*
X424200Y313716D01*
X424103Y313590D01*
X424004Y313466D01*
X423901Y313344D01*
X423796Y313225D01*
X423687Y313109D01*
X423576Y312996D01*
X423462Y312885D01*
X423345Y312777D01*
X423226Y312673D01*
X423103Y312571D01*
X422979Y312472D01*
X422852Y312377D01*
X422722Y312284D01*
X422591Y312195D01*
X422457Y312110D01*
X422321Y312027D01*
X422183Y311949D01*
X422043Y311873D01*
X421901Y311801D01*
X421758Y311733D01*
X421612Y311668D01*
X421466Y311607D01*
X421317Y311550D01*
X421168Y311496D01*
X421017Y311446D01*
X420865Y311400D01*
X420711Y311358D01*
X420557Y311319D01*
X420402Y311285D01*
X420246Y311254D01*
X420089Y311228D01*
X419932Y311205D01*
X419774Y311186D01*
X419616Y311171D01*
X419457Y311160D01*
X419299Y311153D01*
X419140Y311150D01*
X418981Y311151D01*
X418822Y311156D01*
X418663Y311165D01*
X418505Y311178D01*
X418347Y311195D01*
X418189Y311216D01*
X418032Y311240D01*
X417876Y311269D01*
X417720Y311302D01*
X417566Y311338D01*
X417412Y311379D01*
X417259Y311423D01*
X417108Y311471D01*
X416957Y311522D01*
X416808Y311578D01*
X416661Y311637D01*
X416515Y311700D01*
X416370Y311767D01*
X416228Y311837D01*
X416087Y311910D01*
X415948Y311988D01*
X415811Y312068D01*
X415676Y312152D01*
X415543Y312240D01*
X415413Y312330D01*
X415284Y312424D01*
X415159Y312521D01*
X415035Y312621D01*
X414914Y312725D01*
X414796Y312831D01*
X414681Y312940D01*
X414568Y313052D01*
X414458Y313167D01*
X414351Y313285D01*
X414247Y313405D01*
X414146Y313528D01*
X414048Y313653D01*
X413953Y313780D01*
X413862Y313910D01*
X413774Y314043D01*
X413689Y314177D01*
X413607Y314314D01*
X413529Y314452D01*
X413455Y314592D01*
X413384Y314735D01*
X413316Y314879D01*
X413253Y315024D01*
X413192Y315171D01*
X413136Y315320D01*
X413083Y315470D01*
X413034Y315621D01*
X412989Y315773D01*
X412948Y315927D01*
X412910Y316081D01*
X412877Y316237D01*
X412847Y316393D01*
X412821Y316550D01*
X412800Y316707D01*
X412782Y316865D01*
X412768Y317024D01*
X412758Y317182D01*
X412752Y317341D01*
X412750Y317500D01*
X412750Y292100D02*
X412752Y292259D01*
X412758Y292418D01*
X412768Y292576D01*
X412782Y292735D01*
X412800Y292893D01*
X412821Y293050D01*
X412847Y293207D01*
X412877Y293363D01*
X412910Y293519D01*
X412948Y293673D01*
X412989Y293827D01*
X413034Y293979D01*
X413083Y294130D01*
X413136Y294280D01*
X413192Y294429D01*
X413253Y294576D01*
X413316Y294721D01*
X413384Y294865D01*
X413455Y295008D01*
X413529Y295148D01*
X413607Y295286D01*
X413689Y295423D01*
X413774Y295557D01*
X413862Y295690D01*
X413953Y295820D01*
X414048Y295947D01*
X414146Y296072D01*
X414247Y296195D01*
X414351Y296315D01*
X414458Y296433D01*
X414568Y296548D01*
X414681Y296660D01*
X414796Y296769D01*
X414914Y296875D01*
X415035Y296979D01*
X415159Y297079D01*
X415284Y297176D01*
X415413Y297270D01*
X415543Y297360D01*
X415676Y297448D01*
X415811Y297532D01*
X415948Y297612D01*
X416087Y297690D01*
X416228Y297763D01*
X416370Y297833D01*
X416515Y297900D01*
X416661Y297963D01*
X416808Y298022D01*
X416957Y298078D01*
X417108Y298129D01*
X417259Y298177D01*
X417412Y298221D01*
X417566Y298262D01*
X417720Y298298D01*
X417876Y298331D01*
X418032Y298360D01*
X418189Y298384D01*
X418347Y298405D01*
X418505Y298422D01*
X418663Y298435D01*
X418822Y298444D01*
X418981Y298449D01*
X419140Y298450D01*
X419299Y298447D01*
X419457Y298440D01*
X419616Y298429D01*
X419774Y298414D01*
X419932Y298395D01*
X420089Y298372D01*
X420246Y298346D01*
X420402Y298315D01*
X420557Y298281D01*
X420711Y298242D01*
X420865Y298200D01*
X421017Y298154D01*
X421168Y298104D01*
X421317Y298050D01*
X421466Y297993D01*
X421612Y297932D01*
X421758Y297867D01*
X421901Y297799D01*
X422043Y297727D01*
X422183Y297651D01*
X422321Y297573D01*
X422457Y297490D01*
X422591Y297405D01*
X422722Y297316D01*
X422852Y297223D01*
X422979Y297128D01*
X423103Y297029D01*
X423226Y296927D01*
X423345Y296823D01*
X423462Y296715D01*
X423576Y296604D01*
X423687Y296491D01*
X423796Y296375D01*
X423901Y296256D01*
X424004Y296134D01*
X424103Y296010D01*
X424200Y295884D01*
X424293Y295755D01*
X424383Y295624D01*
X424469Y295490D01*
X424552Y295355D01*
X424632Y295217D01*
X424708Y295078D01*
X424781Y294937D01*
X424850Y294794D01*
X424916Y294649D01*
X424978Y294502D01*
X425036Y294355D01*
X425091Y294205D01*
X425142Y294055D01*
X425189Y293903D01*
X425232Y293750D01*
X425271Y293596D01*
X425307Y293441D01*
X425338Y293285D01*
X425366Y293129D01*
X425390Y292972D01*
X425410Y292814D01*
X425426Y292656D01*
X425438Y292497D01*
X425446Y292338D01*
X425450Y292179D01*
X425450Y292021D01*
X425446Y291862D01*
X425438Y291703D01*
X425426Y291544D01*
X425410Y291386D01*
X425390Y291228D01*
X425366Y291071D01*
X425338Y290915D01*
X425307Y290759D01*
X425271Y290604D01*
X425232Y290450D01*
X425189Y290297D01*
X425142Y290145D01*
X425091Y289995D01*
X425036Y289845D01*
X424978Y289698D01*
X424916Y289551D01*
X424850Y289406D01*
X424781Y289263D01*
X424708Y289122D01*
X424632Y288983D01*
X424552Y288845D01*
X424469Y288710D01*
X424383Y288576D01*
X424293Y288445D01*
X424200Y288316D01*
X424103Y288190D01*
X424004Y288066D01*
X423901Y287944D01*
X423796Y287825D01*
X423687Y287709D01*
X423576Y287596D01*
X423462Y287485D01*
X423345Y287377D01*
X423226Y287273D01*
X423103Y287171D01*
X422979Y287072D01*
X422852Y286977D01*
X422722Y286884D01*
X422591Y286795D01*
X422457Y286710D01*
X422321Y286627D01*
X422183Y286549D01*
X422043Y286473D01*
X421901Y286401D01*
X421758Y286333D01*
X421612Y286268D01*
X421466Y286207D01*
X421317Y286150D01*
X421168Y286096D01*
X421017Y286046D01*
X420865Y286000D01*
X420711Y285958D01*
X420557Y285919D01*
X420402Y285885D01*
X420246Y285854D01*
X420089Y285828D01*
X419932Y285805D01*
X419774Y285786D01*
X419616Y285771D01*
X419457Y285760D01*
X419299Y285753D01*
X419140Y285750D01*
X418981Y285751D01*
X418822Y285756D01*
X418663Y285765D01*
X418505Y285778D01*
X418347Y285795D01*
X418189Y285816D01*
X418032Y285840D01*
X417876Y285869D01*
X417720Y285902D01*
X417566Y285938D01*
X417412Y285979D01*
X417259Y286023D01*
X417108Y286071D01*
X416957Y286122D01*
X416808Y286178D01*
X416661Y286237D01*
X416515Y286300D01*
X416370Y286367D01*
X416228Y286437D01*
X416087Y286510D01*
X415948Y286588D01*
X415811Y286668D01*
X415676Y286752D01*
X415543Y286840D01*
X415413Y286930D01*
X415284Y287024D01*
X415159Y287121D01*
X415035Y287221D01*
X414914Y287325D01*
X414796Y287431D01*
X414681Y287540D01*
X414568Y287652D01*
X414458Y287767D01*
X414351Y287885D01*
X414247Y288005D01*
X414146Y288128D01*
X414048Y288253D01*
X413953Y288380D01*
X413862Y288510D01*
X413774Y288643D01*
X413689Y288777D01*
X413607Y288914D01*
X413529Y289052D01*
X413455Y289192D01*
X413384Y289335D01*
X413316Y289479D01*
X413253Y289624D01*
X413192Y289771D01*
X413136Y289920D01*
X413083Y290070D01*
X413034Y290221D01*
X412989Y290373D01*
X412948Y290527D01*
X412910Y290681D01*
X412877Y290837D01*
X412847Y290993D01*
X412821Y291150D01*
X412800Y291307D01*
X412782Y291465D01*
X412768Y291624D01*
X412758Y291782D01*
X412752Y291941D01*
X412750Y292100D01*
X412750Y266700D02*
X412752Y266859D01*
X412758Y267018D01*
X412768Y267176D01*
X412782Y267335D01*
X412800Y267493D01*
X412821Y267650D01*
X412847Y267807D01*
X412877Y267963D01*
X412910Y268119D01*
X412948Y268273D01*
X412989Y268427D01*
X413034Y268579D01*
X413083Y268730D01*
X413136Y268880D01*
X413192Y269029D01*
X413253Y269176D01*
X413316Y269321D01*
X413384Y269465D01*
X413455Y269608D01*
X413529Y269748D01*
X413607Y269886D01*
X413689Y270023D01*
X413774Y270157D01*
X413862Y270290D01*
X413953Y270420D01*
X414048Y270547D01*
X414146Y270672D01*
X414247Y270795D01*
X414351Y270915D01*
X414458Y271033D01*
X414568Y271148D01*
X414681Y271260D01*
X414796Y271369D01*
X414914Y271475D01*
X415035Y271579D01*
X415159Y271679D01*
X415284Y271776D01*
X415413Y271870D01*
X415543Y271960D01*
X415676Y272048D01*
X415811Y272132D01*
X415948Y272212D01*
X416087Y272290D01*
X416228Y272363D01*
X416370Y272433D01*
X416515Y272500D01*
X416661Y272563D01*
X416808Y272622D01*
X416957Y272678D01*
X417108Y272729D01*
X417259Y272777D01*
X417412Y272821D01*
X417566Y272862D01*
X417720Y272898D01*
X417876Y272931D01*
X418032Y272960D01*
X418189Y272984D01*
X418347Y273005D01*
X418505Y273022D01*
X418663Y273035D01*
X418822Y273044D01*
X418981Y273049D01*
X419140Y273050D01*
X419299Y273047D01*
X419457Y273040D01*
X419616Y273029D01*
X419774Y273014D01*
X419932Y272995D01*
X420089Y272972D01*
X420246Y272946D01*
X420402Y272915D01*
X420557Y272881D01*
X420711Y272842D01*
X420865Y272800D01*
X421017Y272754D01*
X421168Y272704D01*
X421317Y272650D01*
X421466Y272593D01*
X421612Y272532D01*
X421758Y272467D01*
X421901Y272399D01*
X422043Y272327D01*
X422183Y272251D01*
X422321Y272173D01*
X422457Y272090D01*
X422591Y272005D01*
X422722Y271916D01*
X422852Y271823D01*
X422979Y271728D01*
X423103Y271629D01*
X423226Y271527D01*
X423345Y271423D01*
X423462Y271315D01*
X423576Y271204D01*
X423687Y271091D01*
X423796Y270975D01*
X423901Y270856D01*
X424004Y270734D01*
X424103Y270610D01*
X424200Y270484D01*
X424293Y270355D01*
X424383Y270224D01*
X424469Y270090D01*
X424552Y269955D01*
X424632Y269817D01*
X424708Y269678D01*
X424781Y269537D01*
X424850Y269394D01*
X424916Y269249D01*
X424978Y269102D01*
X425036Y268955D01*
X425091Y268805D01*
X425142Y268655D01*
X425189Y268503D01*
X425232Y268350D01*
X425271Y268196D01*
X425307Y268041D01*
X425338Y267885D01*
X425366Y267729D01*
X425390Y267572D01*
X425410Y267414D01*
X425426Y267256D01*
X425438Y267097D01*
X425446Y266938D01*
X425450Y266779D01*
X425450Y266621D01*
X425446Y266462D01*
X425438Y266303D01*
X425426Y266144D01*
X425410Y265986D01*
X425390Y265828D01*
X425366Y265671D01*
X425338Y265515D01*
X425307Y265359D01*
X425271Y265204D01*
X425232Y265050D01*
X425189Y264897D01*
X425142Y264745D01*
X425091Y264595D01*
X425036Y264445D01*
X424978Y264298D01*
X424916Y264151D01*
X424850Y264006D01*
X424781Y263863D01*
X424708Y263722D01*
X424632Y263583D01*
X424552Y263445D01*
X424469Y263310D01*
X424383Y263176D01*
X424293Y263045D01*
X424200Y262916D01*
X424103Y262790D01*
X424004Y262666D01*
X423901Y262544D01*
X423796Y262425D01*
X423687Y262309D01*
X423576Y262196D01*
X423462Y262085D01*
X423345Y261977D01*
X423226Y261873D01*
X423103Y261771D01*
X422979Y261672D01*
X422852Y261577D01*
X422722Y261484D01*
X422591Y261395D01*
X422457Y261310D01*
X422321Y261227D01*
X422183Y261149D01*
X422043Y261073D01*
X421901Y261001D01*
X421758Y260933D01*
X421612Y260868D01*
X421466Y260807D01*
X421317Y260750D01*
X421168Y260696D01*
X421017Y260646D01*
X420865Y260600D01*
X420711Y260558D01*
X420557Y260519D01*
X420402Y260485D01*
X420246Y260454D01*
X420089Y260428D01*
X419932Y260405D01*
X419774Y260386D01*
X419616Y260371D01*
X419457Y260360D01*
X419299Y260353D01*
X419140Y260350D01*
X418981Y260351D01*
X418822Y260356D01*
X418663Y260365D01*
X418505Y260378D01*
X418347Y260395D01*
X418189Y260416D01*
X418032Y260440D01*
X417876Y260469D01*
X417720Y260502D01*
X417566Y260538D01*
X417412Y260579D01*
X417259Y260623D01*
X417108Y260671D01*
X416957Y260722D01*
X416808Y260778D01*
X416661Y260837D01*
X416515Y260900D01*
X416370Y260967D01*
X416228Y261037D01*
X416087Y261110D01*
X415948Y261188D01*
X415811Y261268D01*
X415676Y261352D01*
X415543Y261440D01*
X415413Y261530D01*
X415284Y261624D01*
X415159Y261721D01*
X415035Y261821D01*
X414914Y261925D01*
X414796Y262031D01*
X414681Y262140D01*
X414568Y262252D01*
X414458Y262367D01*
X414351Y262485D01*
X414247Y262605D01*
X414146Y262728D01*
X414048Y262853D01*
X413953Y262980D01*
X413862Y263110D01*
X413774Y263243D01*
X413689Y263377D01*
X413607Y263514D01*
X413529Y263652D01*
X413455Y263792D01*
X413384Y263935D01*
X413316Y264079D01*
X413253Y264224D01*
X413192Y264371D01*
X413136Y264520D01*
X413083Y264670D01*
X413034Y264821D01*
X412989Y264973D01*
X412948Y265127D01*
X412910Y265281D01*
X412877Y265437D01*
X412847Y265593D01*
X412821Y265750D01*
X412800Y265907D01*
X412782Y266065D01*
X412768Y266224D01*
X412758Y266382D01*
X412752Y266541D01*
X412750Y266700D01*
X6350Y215900D02*
X6352Y216059D01*
X6358Y216218D01*
X6368Y216376D01*
X6382Y216535D01*
X6400Y216693D01*
X6421Y216850D01*
X6447Y217007D01*
X6477Y217163D01*
X6510Y217319D01*
X6548Y217473D01*
X6589Y217627D01*
X6634Y217779D01*
X6683Y217930D01*
X6736Y218080D01*
X6792Y218229D01*
X6853Y218376D01*
X6916Y218521D01*
X6984Y218665D01*
X7055Y218808D01*
X7129Y218948D01*
X7207Y219086D01*
X7289Y219223D01*
X7374Y219357D01*
X7462Y219490D01*
X7553Y219620D01*
X7648Y219747D01*
X7746Y219872D01*
X7847Y219995D01*
X7951Y220115D01*
X8058Y220233D01*
X8168Y220348D01*
X8281Y220460D01*
X8396Y220569D01*
X8514Y220675D01*
X8635Y220779D01*
X8759Y220879D01*
X8884Y220976D01*
X9013Y221070D01*
X9143Y221160D01*
X9276Y221248D01*
X9411Y221332D01*
X9548Y221412D01*
X9687Y221490D01*
X9828Y221563D01*
X9970Y221633D01*
X10115Y221700D01*
X10261Y221763D01*
X10408Y221822D01*
X10557Y221878D01*
X10708Y221929D01*
X10859Y221977D01*
X11012Y222021D01*
X11166Y222062D01*
X11320Y222098D01*
X11476Y222131D01*
X11632Y222160D01*
X11789Y222184D01*
X11947Y222205D01*
X12105Y222222D01*
X12263Y222235D01*
X12422Y222244D01*
X12581Y222249D01*
X12740Y222250D01*
X12899Y222247D01*
X13057Y222240D01*
X13216Y222229D01*
X13374Y222214D01*
X13532Y222195D01*
X13689Y222172D01*
X13846Y222146D01*
X14002Y222115D01*
X14157Y222081D01*
X14311Y222042D01*
X14465Y222000D01*
X14617Y221954D01*
X14768Y221904D01*
X14917Y221850D01*
X15066Y221793D01*
X15212Y221732D01*
X15358Y221667D01*
X15501Y221599D01*
X15643Y221527D01*
X15783Y221451D01*
X15921Y221373D01*
X16057Y221290D01*
X16191Y221205D01*
X16322Y221116D01*
X16452Y221023D01*
X16579Y220928D01*
X16703Y220829D01*
X16826Y220727D01*
X16945Y220623D01*
X17062Y220515D01*
X17176Y220404D01*
X17287Y220291D01*
X17396Y220175D01*
X17501Y220056D01*
X17604Y219934D01*
X17703Y219810D01*
X17800Y219684D01*
X17893Y219555D01*
X17983Y219424D01*
X18069Y219290D01*
X18152Y219155D01*
X18232Y219017D01*
X18308Y218878D01*
X18381Y218737D01*
X18450Y218594D01*
X18516Y218449D01*
X18578Y218302D01*
X18636Y218155D01*
X18691Y218005D01*
X18742Y217855D01*
X18789Y217703D01*
X18832Y217550D01*
X18871Y217396D01*
X18907Y217241D01*
X18938Y217085D01*
X18966Y216929D01*
X18990Y216772D01*
X19010Y216614D01*
X19026Y216456D01*
X19038Y216297D01*
X19046Y216138D01*
X19050Y215979D01*
X19050Y215821D01*
X19046Y215662D01*
X19038Y215503D01*
X19026Y215344D01*
X19010Y215186D01*
X18990Y215028D01*
X18966Y214871D01*
X18938Y214715D01*
X18907Y214559D01*
X18871Y214404D01*
X18832Y214250D01*
X18789Y214097D01*
X18742Y213945D01*
X18691Y213795D01*
X18636Y213645D01*
X18578Y213498D01*
X18516Y213351D01*
X18450Y213206D01*
X18381Y213063D01*
X18308Y212922D01*
X18232Y212783D01*
X18152Y212645D01*
X18069Y212510D01*
X17983Y212376D01*
X17893Y212245D01*
X17800Y212116D01*
X17703Y211990D01*
X17604Y211866D01*
X17501Y211744D01*
X17396Y211625D01*
X17287Y211509D01*
X17176Y211396D01*
X17062Y211285D01*
X16945Y211177D01*
X16826Y211073D01*
X16703Y210971D01*
X16579Y210872D01*
X16452Y210777D01*
X16322Y210684D01*
X16191Y210595D01*
X16057Y210510D01*
X15921Y210427D01*
X15783Y210349D01*
X15643Y210273D01*
X15501Y210201D01*
X15358Y210133D01*
X15212Y210068D01*
X15066Y210007D01*
X14917Y209950D01*
X14768Y209896D01*
X14617Y209846D01*
X14465Y209800D01*
X14311Y209758D01*
X14157Y209719D01*
X14002Y209685D01*
X13846Y209654D01*
X13689Y209628D01*
X13532Y209605D01*
X13374Y209586D01*
X13216Y209571D01*
X13057Y209560D01*
X12899Y209553D01*
X12740Y209550D01*
X12581Y209551D01*
X12422Y209556D01*
X12263Y209565D01*
X12105Y209578D01*
X11947Y209595D01*
X11789Y209616D01*
X11632Y209640D01*
X11476Y209669D01*
X11320Y209702D01*
X11166Y209738D01*
X11012Y209779D01*
X10859Y209823D01*
X10708Y209871D01*
X10557Y209922D01*
X10408Y209978D01*
X10261Y210037D01*
X10115Y210100D01*
X9970Y210167D01*
X9828Y210237D01*
X9687Y210310D01*
X9548Y210388D01*
X9411Y210468D01*
X9276Y210552D01*
X9143Y210640D01*
X9013Y210730D01*
X8884Y210824D01*
X8759Y210921D01*
X8635Y211021D01*
X8514Y211125D01*
X8396Y211231D01*
X8281Y211340D01*
X8168Y211452D01*
X8058Y211567D01*
X7951Y211685D01*
X7847Y211805D01*
X7746Y211928D01*
X7648Y212053D01*
X7553Y212180D01*
X7462Y212310D01*
X7374Y212443D01*
X7289Y212577D01*
X7207Y212714D01*
X7129Y212852D01*
X7055Y212992D01*
X6984Y213135D01*
X6916Y213279D01*
X6853Y213424D01*
X6792Y213571D01*
X6736Y213720D01*
X6683Y213870D01*
X6634Y214021D01*
X6589Y214173D01*
X6548Y214327D01*
X6510Y214481D01*
X6477Y214637D01*
X6447Y214793D01*
X6421Y214950D01*
X6400Y215107D01*
X6382Y215265D01*
X6368Y215424D01*
X6358Y215582D01*
X6352Y215741D01*
X6350Y215900D01*
X6350Y368300D02*
X6352Y368459D01*
X6358Y368618D01*
X6368Y368776D01*
X6382Y368935D01*
X6400Y369093D01*
X6421Y369250D01*
X6447Y369407D01*
X6477Y369563D01*
X6510Y369719D01*
X6548Y369873D01*
X6589Y370027D01*
X6634Y370179D01*
X6683Y370330D01*
X6736Y370480D01*
X6792Y370629D01*
X6853Y370776D01*
X6916Y370921D01*
X6984Y371065D01*
X7055Y371208D01*
X7129Y371348D01*
X7207Y371486D01*
X7289Y371623D01*
X7374Y371757D01*
X7462Y371890D01*
X7553Y372020D01*
X7648Y372147D01*
X7746Y372272D01*
X7847Y372395D01*
X7951Y372515D01*
X8058Y372633D01*
X8168Y372748D01*
X8281Y372860D01*
X8396Y372969D01*
X8514Y373075D01*
X8635Y373179D01*
X8759Y373279D01*
X8884Y373376D01*
X9013Y373470D01*
X9143Y373560D01*
X9276Y373648D01*
X9411Y373732D01*
X9548Y373812D01*
X9687Y373890D01*
X9828Y373963D01*
X9970Y374033D01*
X10115Y374100D01*
X10261Y374163D01*
X10408Y374222D01*
X10557Y374278D01*
X10708Y374329D01*
X10859Y374377D01*
X11012Y374421D01*
X11166Y374462D01*
X11320Y374498D01*
X11476Y374531D01*
X11632Y374560D01*
X11789Y374584D01*
X11947Y374605D01*
X12105Y374622D01*
X12263Y374635D01*
X12422Y374644D01*
X12581Y374649D01*
X12740Y374650D01*
X12899Y374647D01*
X13057Y374640D01*
X13216Y374629D01*
X13374Y374614D01*
X13532Y374595D01*
X13689Y374572D01*
X13846Y374546D01*
X14002Y374515D01*
X14157Y374481D01*
X14311Y374442D01*
X14465Y374400D01*
X14617Y374354D01*
X14768Y374304D01*
X14917Y374250D01*
X15066Y374193D01*
X15212Y374132D01*
X15358Y374067D01*
X15501Y373999D01*
X15643Y373927D01*
X15783Y373851D01*
X15921Y373773D01*
X16057Y373690D01*
X16191Y373605D01*
X16322Y373516D01*
X16452Y373423D01*
X16579Y373328D01*
X16703Y373229D01*
X16826Y373127D01*
X16945Y373023D01*
X17062Y372915D01*
X17176Y372804D01*
X17287Y372691D01*
X17396Y372575D01*
X17501Y372456D01*
X17604Y372334D01*
X17703Y372210D01*
X17800Y372084D01*
X17893Y371955D01*
X17983Y371824D01*
X18069Y371690D01*
X18152Y371555D01*
X18232Y371417D01*
X18308Y371278D01*
X18381Y371137D01*
X18450Y370994D01*
X18516Y370849D01*
X18578Y370702D01*
X18636Y370555D01*
X18691Y370405D01*
X18742Y370255D01*
X18789Y370103D01*
X18832Y369950D01*
X18871Y369796D01*
X18907Y369641D01*
X18938Y369485D01*
X18966Y369329D01*
X18990Y369172D01*
X19010Y369014D01*
X19026Y368856D01*
X19038Y368697D01*
X19046Y368538D01*
X19050Y368379D01*
X19050Y368221D01*
X19046Y368062D01*
X19038Y367903D01*
X19026Y367744D01*
X19010Y367586D01*
X18990Y367428D01*
X18966Y367271D01*
X18938Y367115D01*
X18907Y366959D01*
X18871Y366804D01*
X18832Y366650D01*
X18789Y366497D01*
X18742Y366345D01*
X18691Y366195D01*
X18636Y366045D01*
X18578Y365898D01*
X18516Y365751D01*
X18450Y365606D01*
X18381Y365463D01*
X18308Y365322D01*
X18232Y365183D01*
X18152Y365045D01*
X18069Y364910D01*
X17983Y364776D01*
X17893Y364645D01*
X17800Y364516D01*
X17703Y364390D01*
X17604Y364266D01*
X17501Y364144D01*
X17396Y364025D01*
X17287Y363909D01*
X17176Y363796D01*
X17062Y363685D01*
X16945Y363577D01*
X16826Y363473D01*
X16703Y363371D01*
X16579Y363272D01*
X16452Y363177D01*
X16322Y363084D01*
X16191Y362995D01*
X16057Y362910D01*
X15921Y362827D01*
X15783Y362749D01*
X15643Y362673D01*
X15501Y362601D01*
X15358Y362533D01*
X15212Y362468D01*
X15066Y362407D01*
X14917Y362350D01*
X14768Y362296D01*
X14617Y362246D01*
X14465Y362200D01*
X14311Y362158D01*
X14157Y362119D01*
X14002Y362085D01*
X13846Y362054D01*
X13689Y362028D01*
X13532Y362005D01*
X13374Y361986D01*
X13216Y361971D01*
X13057Y361960D01*
X12899Y361953D01*
X12740Y361950D01*
X12581Y361951D01*
X12422Y361956D01*
X12263Y361965D01*
X12105Y361978D01*
X11947Y361995D01*
X11789Y362016D01*
X11632Y362040D01*
X11476Y362069D01*
X11320Y362102D01*
X11166Y362138D01*
X11012Y362179D01*
X10859Y362223D01*
X10708Y362271D01*
X10557Y362322D01*
X10408Y362378D01*
X10261Y362437D01*
X10115Y362500D01*
X9970Y362567D01*
X9828Y362637D01*
X9687Y362710D01*
X9548Y362788D01*
X9411Y362868D01*
X9276Y362952D01*
X9143Y363040D01*
X9013Y363130D01*
X8884Y363224D01*
X8759Y363321D01*
X8635Y363421D01*
X8514Y363525D01*
X8396Y363631D01*
X8281Y363740D01*
X8168Y363852D01*
X8058Y363967D01*
X7951Y364085D01*
X7847Y364205D01*
X7746Y364328D01*
X7648Y364453D01*
X7553Y364580D01*
X7462Y364710D01*
X7374Y364843D01*
X7289Y364977D01*
X7207Y365114D01*
X7129Y365252D01*
X7055Y365392D01*
X6984Y365535D01*
X6916Y365679D01*
X6853Y365824D01*
X6792Y365971D01*
X6736Y366120D01*
X6683Y366270D01*
X6634Y366421D01*
X6589Y366573D01*
X6548Y366727D01*
X6510Y366881D01*
X6477Y367037D01*
X6447Y367193D01*
X6421Y367350D01*
X6400Y367507D01*
X6382Y367665D01*
X6368Y367824D01*
X6358Y367982D01*
X6352Y368141D01*
X6350Y368300D01*
X0Y381000D02*
X0Y203200D01*
X0Y381000D02*
X431800Y381000D01*
X431800Y203200D01*
X0Y203200D01*
D15*
G36*
X150859Y319040D02*
X177799Y292100D01*
X150859Y265160D01*
X123919Y292100D01*
X150859Y319040D01*
G37*
D16*
X31750Y292100D03*
D10*
X374650Y490220D02*
X381000Y496570D01*
X374650Y490220D02*
X361950Y490220D01*
X355600Y496570D01*
X355600Y509270D01*
X361950Y515620D01*
X374650Y515620D01*
X381000Y509270D01*
X412750Y490220D02*
X425450Y490220D01*
X412750Y490220D02*
X406400Y496570D01*
X406400Y509270D01*
X412750Y515620D01*
X406400Y496570D02*
X400050Y490220D01*
X387350Y490220D01*
X381000Y496570D01*
X381000Y509270D01*
X387350Y515620D01*
X400050Y515620D01*
X406400Y509270D01*
X431800Y509270D02*
X431800Y496570D01*
X425450Y490220D01*
X431800Y509270D02*
X425450Y515620D01*
X412750Y515620D01*
X349250Y490220D02*
X336550Y490220D01*
X330200Y496570D01*
X330200Y509270D01*
X336550Y515620D01*
X355600Y496570D02*
X349250Y490220D01*
X355600Y509270D02*
X349250Y515620D01*
X336550Y515620D01*
D11*
X408738Y483997D02*
X408738Y475107D01*
X408736Y475007D01*
X408730Y474908D01*
X408720Y474808D01*
X408707Y474710D01*
X408689Y474611D01*
X408668Y474514D01*
X408643Y474418D01*
X408614Y474322D01*
X408581Y474228D01*
X408545Y474135D01*
X408505Y474044D01*
X408461Y473954D01*
X408414Y473866D01*
X408364Y473780D01*
X408310Y473696D01*
X408253Y473614D01*
X408193Y473535D01*
X408129Y473457D01*
X408063Y473383D01*
X407994Y473311D01*
X407922Y473242D01*
X407848Y473176D01*
X407770Y473112D01*
X407691Y473052D01*
X407609Y472995D01*
X407525Y472941D01*
X407439Y472891D01*
X407351Y472844D01*
X407261Y472800D01*
X407170Y472760D01*
X407077Y472724D01*
X406983Y472691D01*
X406887Y472662D01*
X406791Y472637D01*
X406694Y472616D01*
X406595Y472598D01*
X406497Y472585D01*
X406397Y472575D01*
X406298Y472569D01*
X406198Y472567D01*
X404928Y472567D01*
X414719Y472567D02*
X414719Y483997D01*
X417894Y483997D01*
X418005Y483995D01*
X418115Y483989D01*
X418226Y483980D01*
X418336Y483966D01*
X418445Y483949D01*
X418554Y483928D01*
X418662Y483903D01*
X418769Y483874D01*
X418875Y483842D01*
X418980Y483806D01*
X419083Y483766D01*
X419185Y483723D01*
X419286Y483676D01*
X419385Y483625D01*
X419482Y483572D01*
X419576Y483515D01*
X419669Y483454D01*
X419760Y483391D01*
X419849Y483324D01*
X419935Y483254D01*
X420018Y483181D01*
X420100Y483106D01*
X420178Y483028D01*
X420253Y482946D01*
X420326Y482863D01*
X420396Y482777D01*
X420463Y482688D01*
X420526Y482597D01*
X420587Y482504D01*
X420644Y482409D01*
X420697Y482313D01*
X420748Y482214D01*
X420795Y482113D01*
X420838Y482011D01*
X420878Y481908D01*
X420914Y481803D01*
X420946Y481697D01*
X420975Y481590D01*
X421000Y481482D01*
X421021Y481373D01*
X421038Y481264D01*
X421052Y481154D01*
X421061Y481043D01*
X421067Y480933D01*
X421069Y480822D01*
X421067Y480711D01*
X421061Y480601D01*
X421052Y480490D01*
X421038Y480380D01*
X421021Y480271D01*
X421000Y480162D01*
X420975Y480054D01*
X420946Y479947D01*
X420914Y479841D01*
X420878Y479736D01*
X420838Y479633D01*
X420795Y479531D01*
X420748Y479430D01*
X420697Y479331D01*
X420644Y479234D01*
X420587Y479140D01*
X420526Y479047D01*
X420463Y478956D01*
X420396Y478867D01*
X420326Y478781D01*
X420253Y478698D01*
X420178Y478616D01*
X420100Y478538D01*
X420018Y478463D01*
X419935Y478390D01*
X419849Y478320D01*
X419760Y478253D01*
X419669Y478190D01*
X419576Y478129D01*
X419482Y478072D01*
X419385Y478019D01*
X419286Y477968D01*
X419185Y477921D01*
X419083Y477878D01*
X418980Y477838D01*
X418875Y477802D01*
X418769Y477770D01*
X418662Y477741D01*
X418554Y477716D01*
X418445Y477695D01*
X418336Y477678D01*
X418226Y477664D01*
X418115Y477655D01*
X418005Y477649D01*
X417894Y477647D01*
X414719Y477647D01*
X425577Y481457D02*
X428752Y483997D01*
X428752Y472567D01*
X425577Y472567D02*
X431927Y472567D01*
M02*
