G04 EAGLE Gerber RS-274X export*
G75*
%MOMM*%
%FSLAX34Y34*%
%LPD*%
%INSoldermask Bottom*%
%IPPOS*%
%AMOC8*
5,1,8,0,0,1.08239X$1,22.5*%
G01*
%ADD10C,3.403200*%
%ADD11P,1.951982X8X202.500000*%
%ADD12C,1.803400*%
%ADD13C,1.930400*%
%ADD14C,3.505200*%
%ADD15P,1.759533X8X292.500000*%
%ADD16C,1.828800*%
%ADD17C,2.133600*%
%ADD18C,1.612800*%


D10*
X40000Y510000D03*
X40000Y40000D03*
X810000Y40000D03*
X810000Y510000D03*
D11*
X368300Y165100D03*
D12*
X393700Y165100D03*
D13*
X722884Y402336D02*
X740156Y402336D01*
X740156Y427736D02*
X722884Y427736D01*
X722884Y453136D02*
X740156Y453136D01*
D14*
X556260Y427736D03*
D13*
X722884Y199136D02*
X740156Y199136D01*
X740156Y224536D02*
X722884Y224536D01*
X722884Y249936D02*
X740156Y249936D01*
D14*
X556260Y224536D03*
D13*
X722884Y300736D02*
X740156Y300736D01*
X740156Y326136D02*
X722884Y326136D01*
X722884Y351536D02*
X740156Y351536D01*
D14*
X556260Y326136D03*
D13*
X722884Y97536D02*
X740156Y97536D01*
X740156Y122936D02*
X722884Y122936D01*
X722884Y148336D02*
X740156Y148336D01*
D14*
X556260Y122936D03*
D15*
X292100Y444500D03*
X292100Y393700D03*
X266700Y444500D03*
X266700Y393700D03*
X215900Y444500D03*
X215900Y393700D03*
X241300Y444500D03*
X241300Y393700D03*
D16*
X342900Y79248D02*
X342900Y62992D01*
X317500Y62992D02*
X317500Y79248D01*
X292100Y79248D02*
X292100Y62992D01*
X266700Y62992D02*
X266700Y79248D01*
X241300Y79248D02*
X241300Y62992D01*
X190500Y62992D02*
X190500Y79248D01*
X165100Y79248D02*
X165100Y62992D01*
X139700Y62992D02*
X139700Y79248D01*
X114300Y79248D02*
X114300Y62992D01*
X88900Y62992D02*
X88900Y79248D01*
D17*
X785368Y402336D02*
X804672Y402336D01*
X804672Y453136D02*
X785368Y453136D01*
X785368Y199136D02*
X804672Y199136D01*
X804672Y249936D02*
X785368Y249936D01*
X785368Y300736D02*
X804672Y300736D01*
X804672Y351536D02*
X785368Y351536D01*
X785368Y97536D02*
X804672Y97536D01*
X804672Y148336D02*
X785368Y148336D01*
X56896Y113792D02*
X37592Y113792D01*
X37592Y164592D02*
X56896Y164592D01*
D18*
X393700Y361252D02*
X393700Y375348D01*
X368300Y375348D02*
X368300Y361252D01*
X342900Y361252D02*
X342900Y375348D01*
X317500Y375348D02*
X317500Y361252D01*
X292100Y361252D02*
X292100Y375348D01*
X266700Y375348D02*
X266700Y361252D01*
X241300Y361252D02*
X241300Y375348D01*
X215900Y375348D02*
X215900Y361252D01*
X190500Y361252D02*
X190500Y375348D01*
X165100Y375348D02*
X165100Y361252D01*
X139700Y361252D02*
X139700Y375348D01*
X114300Y375348D02*
X114300Y361252D01*
X393700Y222948D02*
X393700Y208852D01*
X368300Y208852D02*
X368300Y222948D01*
X342900Y222948D02*
X342900Y208852D01*
X190500Y208852D02*
X190500Y222948D01*
X165100Y222948D02*
X165100Y208852D01*
X139700Y208852D02*
X139700Y222948D01*
X114300Y222948D02*
X114300Y208852D01*
X38100Y208852D02*
X38100Y222948D01*
X38100Y361252D02*
X38100Y375348D01*
X63500Y375348D02*
X63500Y361252D01*
X88900Y361252D02*
X88900Y375348D01*
X63500Y222948D02*
X63500Y208852D01*
X88900Y208852D02*
X88900Y222948D01*
X317500Y222948D02*
X317500Y208852D01*
X215900Y208852D02*
X215900Y222948D01*
X241300Y222948D02*
X241300Y208852D01*
X266700Y208852D02*
X266700Y222948D01*
X292100Y222948D02*
X292100Y208852D01*
D16*
X419100Y494792D02*
X419100Y511048D01*
X393700Y511048D02*
X393700Y494792D01*
X368300Y494792D02*
X368300Y511048D01*
X342900Y511048D02*
X342900Y494792D01*
M02*
