G04 EAGLE Gerber RS-274X export*
G75*
%MOMM*%
%FSLAX34Y34*%
%LPD*%
%INSoldermask Top*%
%IPPOS*%
%AMOC8*
5,1,8,0,0,1.08239X$1,22.5*%
G01*
%ADD10C,3.403200*%
%ADD11P,1.951982X8X202.500000*%
%ADD12C,1.803400*%
%ADD13C,1.879600*%
%ADD14C,3.505200*%
%ADD15P,1.649562X8X292.500000*%
%ADD16C,1.727200*%
%ADD17C,2.133600*%
%ADD18C,1.511200*%


D10*
X40000Y510000D03*
X40000Y40000D03*
X810000Y40000D03*
X810000Y510000D03*
D11*
X368300Y165100D03*
D12*
X393700Y165100D03*
D13*
X723138Y402336D02*
X739902Y402336D01*
X739902Y427736D02*
X723138Y427736D01*
X723138Y453136D02*
X739902Y453136D01*
D14*
X556260Y427736D03*
D13*
X723138Y199136D02*
X739902Y199136D01*
X739902Y224536D02*
X723138Y224536D01*
X723138Y249936D02*
X739902Y249936D01*
D14*
X556260Y224536D03*
D13*
X723138Y300736D02*
X739902Y300736D01*
X739902Y326136D02*
X723138Y326136D01*
X723138Y351536D02*
X739902Y351536D01*
D14*
X556260Y326136D03*
D13*
X723138Y97536D02*
X739902Y97536D01*
X739902Y122936D02*
X723138Y122936D01*
X723138Y148336D02*
X739902Y148336D01*
D14*
X556260Y122936D03*
D15*
X292100Y444500D03*
X292100Y393700D03*
X266700Y444500D03*
X266700Y393700D03*
X215900Y444500D03*
X215900Y393700D03*
X241300Y444500D03*
X241300Y393700D03*
D16*
X342900Y78740D02*
X342900Y63500D01*
X317500Y63500D02*
X317500Y78740D01*
X292100Y78740D02*
X292100Y63500D01*
X266700Y63500D02*
X266700Y78740D01*
X241300Y78740D02*
X241300Y63500D01*
X190500Y63500D02*
X190500Y78740D01*
X165100Y78740D02*
X165100Y63500D01*
X139700Y63500D02*
X139700Y78740D01*
X114300Y78740D02*
X114300Y63500D01*
X88900Y63500D02*
X88900Y78740D01*
D17*
X785368Y402336D02*
X804672Y402336D01*
X804672Y453136D02*
X785368Y453136D01*
X785368Y199136D02*
X804672Y199136D01*
X804672Y249936D02*
X785368Y249936D01*
X785368Y300736D02*
X804672Y300736D01*
X804672Y351536D02*
X785368Y351536D01*
X785368Y97536D02*
X804672Y97536D01*
X804672Y148336D02*
X785368Y148336D01*
X56896Y113792D02*
X37592Y113792D01*
X37592Y164592D02*
X56896Y164592D01*
D18*
X393700Y361760D02*
X393700Y374840D01*
X368300Y374840D02*
X368300Y361760D01*
X342900Y361760D02*
X342900Y374840D01*
X317500Y374840D02*
X317500Y361760D01*
X292100Y361760D02*
X292100Y374840D01*
X266700Y374840D02*
X266700Y361760D01*
X241300Y361760D02*
X241300Y374840D01*
X215900Y374840D02*
X215900Y361760D01*
X190500Y361760D02*
X190500Y374840D01*
X165100Y374840D02*
X165100Y361760D01*
X139700Y361760D02*
X139700Y374840D01*
X114300Y374840D02*
X114300Y361760D01*
X393700Y222440D02*
X393700Y209360D01*
X368300Y209360D02*
X368300Y222440D01*
X342900Y222440D02*
X342900Y209360D01*
X190500Y209360D02*
X190500Y222440D01*
X165100Y222440D02*
X165100Y209360D01*
X139700Y209360D02*
X139700Y222440D01*
X114300Y222440D02*
X114300Y209360D01*
X38100Y209360D02*
X38100Y222440D01*
X38100Y361760D02*
X38100Y374840D01*
X63500Y374840D02*
X63500Y361760D01*
X88900Y361760D02*
X88900Y374840D01*
X63500Y222440D02*
X63500Y209360D01*
X88900Y209360D02*
X88900Y222440D01*
X317500Y222440D02*
X317500Y209360D01*
X215900Y209360D02*
X215900Y222440D01*
X241300Y222440D02*
X241300Y209360D01*
X266700Y209360D02*
X266700Y222440D01*
X292100Y222440D02*
X292100Y209360D01*
D16*
X419100Y495300D02*
X419100Y510540D01*
X393700Y510540D02*
X393700Y495300D01*
X368300Y495300D02*
X368300Y510540D01*
X342900Y510540D02*
X342900Y495300D01*
M02*
