%
M48
M72
T01C0.03200
T02C0.04000
T03C0.11811
%
T01
X47000Y53000
X82000Y78000
X112000Y78000
X142000Y78000
X172000Y78000
X172000Y53000
X132000Y53000
X127000Y38000
X87000Y38000
X87000Y53000
X82000Y118000
X112000Y118000
X142000Y118000
X172000Y118000
T02
X167000Y138000
X177000Y138000
X147000Y138000
X137000Y138000
X117000Y138000
X107000Y138000
X87000Y138000
X77000Y138000
X22000Y93000
X22000Y83000
X22000Y73000
X22000Y63000
X22000Y53000
X62000Y18000
X72000Y18000
X102000Y18000
X112000Y18000
X147000Y18000
X157000Y18000
X217000Y53000
X217000Y63000
X217000Y73000
X217000Y83000
X217000Y93000
T03
X17000Y18000
X17000Y136110
X213850Y136110
X213850Y18000
M30
