G75*
%MOIN*%
%OFA0B0*%
%FSLAX25Y25*%
%IPPOS*%
%LPD*%
%AMOC8*
5,1,8,0,0,1.08239X$1,22.5*
%
%ADD10C,0.06000*%
%ADD11OC8,0.05200*%
%ADD12C,0.07600*%
%ADD13OC8,0.06600*%
%ADD14C,0.02362*%
%ADD15C,0.03937*%
%ADD16C,0.04000*%
D10*
X0082000Y0095000D02*
X0088000Y0095000D01*
X0088000Y0105000D02*
X0082000Y0105000D01*
X0082000Y0115000D02*
X0088000Y0115000D01*
X0122000Y0115000D02*
X0128000Y0115000D01*
X0128000Y0105000D02*
X0122000Y0105000D01*
X0122000Y0095000D02*
X0128000Y0095000D01*
X0162000Y0095000D02*
X0168000Y0095000D01*
X0168000Y0105000D02*
X0162000Y0105000D01*
X0162000Y0115000D02*
X0168000Y0115000D01*
X0202000Y0115000D02*
X0208000Y0115000D01*
X0208000Y0105000D02*
X0202000Y0105000D01*
X0202000Y0095000D02*
X0208000Y0095000D01*
X0262000Y0095000D02*
X0268000Y0095000D01*
X0268000Y0085000D02*
X0262000Y0085000D01*
X0262000Y0075000D02*
X0268000Y0075000D01*
X0268000Y0065000D02*
X0262000Y0065000D01*
X0262000Y0105000D02*
X0268000Y0105000D01*
X0038000Y0120000D02*
X0032000Y0120000D01*
X0032000Y0130000D02*
X0038000Y0130000D01*
X0038000Y0140000D02*
X0032000Y0140000D01*
X0032000Y0150000D02*
X0038000Y0150000D01*
X0038000Y0160000D02*
X0032000Y0160000D01*
D11*
X0105472Y0159528D03*
X0145472Y0159528D03*
X0185472Y0159528D03*
X0225472Y0159528D03*
X0225472Y0119528D03*
X0185472Y0119528D03*
X0145472Y0119528D03*
X0105472Y0119528D03*
D12*
X0038800Y0075000D02*
X0031200Y0075000D01*
X0031200Y0055000D02*
X0038800Y0055000D01*
X0085000Y0053800D02*
X0085000Y0046200D01*
X0105000Y0046200D02*
X0105000Y0053800D01*
X0125000Y0053800D02*
X0125000Y0046200D01*
X0145000Y0046200D02*
X0145000Y0053800D01*
X0165000Y0053800D02*
X0165000Y0046200D01*
X0185000Y0046200D02*
X0185000Y0053800D01*
X0205000Y0053800D02*
X0205000Y0046200D01*
X0225000Y0046200D02*
X0225000Y0053800D01*
D13*
X0225000Y0015000D03*
X0215000Y0015000D03*
X0205000Y0015000D03*
X0185000Y0015000D03*
X0175000Y0015000D03*
X0165000Y0015000D03*
X0155000Y0015000D03*
X0145000Y0015000D03*
X0135000Y0015000D03*
X0125000Y0015000D03*
X0115000Y0015000D03*
X0235000Y0015000D03*
X0245000Y0015000D03*
X0255000Y0015000D03*
X0255000Y0205000D03*
X0245000Y0205000D03*
X0235000Y0205000D03*
X0225000Y0205000D03*
X0215000Y0205000D03*
X0205000Y0205000D03*
X0195000Y0205000D03*
X0185000Y0205000D03*
X0169000Y0205000D03*
X0159000Y0205000D03*
X0149000Y0205000D03*
X0139000Y0205000D03*
X0129000Y0205000D03*
X0119000Y0205000D03*
X0109000Y0205000D03*
X0099000Y0205000D03*
X0089000Y0205000D03*
X0079000Y0205000D03*
D14*
X0063858Y0038268D02*
X0032165Y0038268D01*
X0016811Y0053622D01*
X0016811Y0075079D01*
X0012677Y0079213D01*
X0012677Y0153425D01*
X0019252Y0160000D01*
X0035000Y0160000D01*
X0034528Y0158543D01*
X0036496Y0140827D02*
X0035000Y0140000D01*
X0036496Y0140827D02*
X0054213Y0140827D01*
X0117205Y0203819D01*
X0119000Y0205000D01*
X0127047Y0203819D02*
X0129000Y0205000D01*
X0127047Y0203819D02*
X0054213Y0130984D01*
X0036496Y0130984D01*
X0035000Y0130000D01*
X0036496Y0121142D02*
X0035000Y0120000D01*
X0036496Y0121142D02*
X0056181Y0121142D01*
X0138858Y0203819D01*
X0139000Y0205000D01*
X0186102Y0176260D02*
X0186102Y0160512D01*
X0185472Y0159528D01*
X0184134Y0158543D01*
X0166417Y0140827D01*
X0166417Y0115236D01*
X0165000Y0115000D01*
X0165000Y0105000D02*
X0166417Y0103425D01*
X0176850Y0103425D01*
X0176850Y0072520D01*
X0166417Y0062087D01*
X0166417Y0050276D01*
X0165000Y0050000D01*
X0193386Y0064646D02*
X0203819Y0054213D01*
X0203819Y0050276D01*
X0205000Y0050000D01*
X0193386Y0064646D02*
X0193386Y0103425D01*
X0203819Y0103425D01*
X0205000Y0105000D01*
X0205000Y0115000D02*
X0205787Y0115236D01*
X0225472Y0134921D01*
X0225472Y0158543D01*
X0225472Y0159528D01*
X0225472Y0160512D01*
X0225472Y0203819D01*
X0225000Y0205000D01*
X0215000Y0205000D02*
X0213661Y0203819D01*
X0186102Y0176260D01*
X0160512Y0160512D02*
X0146732Y0160512D01*
X0145472Y0159528D01*
X0144764Y0158543D01*
X0125079Y0138858D01*
X0125079Y0115236D01*
X0125000Y0115000D01*
X0125000Y0105000D02*
X0123110Y0103425D01*
X0107559Y0103425D01*
X0107559Y0079606D01*
X0123110Y0064055D01*
X0123110Y0050276D01*
X0125000Y0050000D01*
X0146142Y0025276D02*
X0076850Y0025276D01*
X0063858Y0038268D01*
X0083740Y0050276D02*
X0075866Y0058150D01*
X0075866Y0087677D01*
X0074094Y0089449D01*
X0074094Y0102244D01*
X0076654Y0104803D01*
X0084803Y0104803D01*
X0085000Y0105000D01*
X0083740Y0103425D01*
X0085000Y0115000D02*
X0093386Y0117795D01*
X0093386Y0134331D01*
X0105394Y0146339D01*
X0105472Y0146732D01*
X0105472Y0159528D01*
X0113740Y0166417D01*
X0156575Y0166417D01*
X0193976Y0203819D01*
X0195000Y0205000D01*
X0203819Y0203819D02*
X0205000Y0205000D01*
X0203819Y0203819D02*
X0160512Y0160512D01*
X0233346Y0080787D02*
X0246963Y0094404D01*
X0264934Y0094404D01*
X0265000Y0095000D01*
X0264934Y0094404D02*
X0264843Y0093583D01*
X0265000Y0085000D02*
X0248780Y0085000D01*
X0239843Y0076063D01*
X0239843Y0041024D01*
X0215630Y0016811D01*
X0215000Y0015000D01*
X0205787Y0014843D02*
X0205000Y0015000D01*
X0205787Y0014843D02*
X0233346Y0042402D01*
X0233346Y0080787D01*
X0248110Y0068976D02*
X0254134Y0075000D01*
X0265000Y0075000D01*
X0264843Y0073898D01*
X0264843Y0083740D02*
X0265000Y0085000D01*
X0248110Y0068976D02*
X0248110Y0039449D01*
X0225472Y0016811D01*
X0225000Y0015000D01*
X0235000Y0015000D02*
X0253150Y0033150D01*
X0253228Y0033150D01*
X0253228Y0052441D01*
X0264843Y0064055D01*
X0265000Y0065000D01*
X0235315Y0016811D02*
X0235000Y0015000D01*
X0155000Y0015000D02*
X0154606Y0016811D01*
X0146142Y0025276D01*
X0085000Y0050000D02*
X0083740Y0050276D01*
X0016811Y0053031D02*
X0016811Y0053622D01*
D15*
X0035000Y0055000D02*
X0036496Y0054213D01*
X0064055Y0054213D01*
X0064055Y0048307D01*
X0079803Y0032559D01*
X0111299Y0032559D01*
X0111299Y0038465D01*
X0112283Y0039449D01*
X0111299Y0040433D01*
X0111299Y0042402D01*
X0105394Y0048307D01*
X0105000Y0050000D01*
X0117205Y0042402D02*
X0121142Y0038465D01*
X0132953Y0038465D01*
X0132953Y0062087D01*
X0148701Y0062087D01*
X0152638Y0058150D01*
X0152638Y0038465D01*
X0168386Y0038465D01*
X0174291Y0044370D01*
X0174291Y0062087D01*
X0184921Y0062087D01*
X0184921Y0118976D01*
X0185472Y0119528D01*
X0215630Y0109331D02*
X0215630Y0093583D01*
X0209724Y0087677D01*
X0208740Y0086693D01*
X0213661Y0081772D01*
X0213661Y0038465D01*
X0201850Y0038465D01*
X0195945Y0044370D01*
X0195945Y0054213D01*
X0188071Y0062087D01*
X0184921Y0062087D01*
X0185000Y0050000D02*
X0184134Y0048307D01*
X0184134Y0032559D01*
X0144764Y0032559D01*
X0144764Y0048307D01*
X0145000Y0050000D01*
X0132953Y0062087D02*
X0132953Y0093583D01*
X0125079Y0093583D01*
X0125000Y0095000D01*
X0132953Y0093583D02*
X0152638Y0093583D01*
X0152638Y0101457D01*
X0153622Y0102441D01*
X0152638Y0103425D01*
X0152638Y0113268D01*
X0146732Y0119173D01*
X0145472Y0119528D01*
X0105472Y0119528D02*
X0105272Y0115114D01*
X0103228Y0113071D01*
X0103228Y0109134D01*
X0091614Y0097520D01*
X0085709Y0097520D01*
X0085709Y0095551D01*
X0085000Y0095000D01*
X0085709Y0093583D01*
X0094567Y0084724D01*
X0093583Y0083740D01*
X0093583Y0038465D01*
X0081772Y0038465D01*
X0075866Y0044370D01*
X0075866Y0050276D01*
X0069961Y0056181D01*
X0069961Y0073898D01*
X0036496Y0073898D01*
X0035000Y0075000D01*
X0034528Y0075866D01*
X0034528Y0079803D01*
X0022717Y0091614D01*
X0034528Y0148701D02*
X0035000Y0150000D01*
X0043079Y0150000D01*
X0044173Y0151260D01*
X0081772Y0188858D01*
X0094370Y0188858D01*
X0107362Y0201850D01*
X0107362Y0203819D01*
X0109000Y0205000D01*
X0215630Y0109331D02*
X0222520Y0116220D01*
X0223504Y0115236D01*
X0255000Y0115236D01*
X0264843Y0105394D01*
X0265000Y0105000D01*
X0225472Y0119173D02*
X0225472Y0119528D01*
X0225472Y0119173D02*
X0222520Y0116220D01*
X0205000Y0095000D02*
X0205787Y0093583D01*
X0205787Y0089646D01*
X0208740Y0086693D01*
X0225000Y0050000D02*
X0223504Y0048307D01*
X0219567Y0044370D01*
X0219567Y0036496D01*
X0215630Y0032559D01*
X0184134Y0032559D01*
X0184134Y0016811D01*
X0185000Y0015000D01*
X0144764Y0032559D02*
X0119173Y0032559D01*
X0112283Y0039449D01*
X0117205Y0042402D02*
X0117205Y0062087D01*
X0094567Y0084724D01*
D16*
X0152638Y0093583D02*
X0163583Y0093583D01*
X0165000Y0095000D01*
X0035000Y0150000D02*
X0027165Y0150000D01*
X0020354Y0143189D01*
X0020354Y0093976D01*
X0022717Y0091614D01*
M02*
