%
M48
M72
T01C0.03200
T02C0.03937
T03C0.04000
T04C0.04331
%
T01
X105472Y119528
X145472Y119528
X185472Y119528
X225472Y119528
X225472Y159528
X185472Y159528
X145472Y159528
X105472Y159528
T02
X109000Y205000
X99000Y205000
X89000Y205000
X79000Y205000
X119000Y205000
X129000Y205000
X139000Y205000
X149000Y205000
X159000Y205000
X169000Y205000
X185000Y205000
X195000Y205000
X205000Y205000
X215000Y205000
X225000Y205000
X235000Y205000
X245000Y205000
X255000Y205000
X255000Y15000
X245000Y15000
X235000Y15000
X225000Y15000
X215000Y15000
X205000Y15000
X185000Y15000
X175000Y15000
X165000Y15000
X155000Y15000
X145000Y15000
X135000Y15000
X125000Y15000
X115000Y15000
T03
X125000Y95000
X125000Y105000
X125000Y115000
X165000Y115000
X165000Y105000
X165000Y95000
X205000Y95000
X205000Y105000
X205000Y115000
X265000Y105000
X265000Y95000
X265000Y85000
X265000Y75000
X265000Y65000
X85000Y95000
X85000Y105000
X85000Y115000
X35000Y120000
X35000Y130000
X35000Y140000
X35000Y150000
X35000Y160000
T04
X35000Y55000
X35000Y75000
X85000Y50000
X105000Y50000
X125000Y50000
X145000Y50000
X165000Y50000
X185000Y50000
X205000Y50000
X225000Y50000
M30
