G75*
%MOIN*%
%OFA0B0*%
%FSLAX25Y25*%
%IPPOS*%
%LPD*%
%AMOC8*
5,1,8,0,0,1.08239X$1,22.5*
%
%ADD10C,0.00600*%
%ADD11C,0.02000*%
%ADD12C,0.00500*%
%ADD13R,0.03000X0.42000*%
%ADD14R,0.02000X0.07500*%
%ADD15R,0.02000X0.03000*%
%ADD16R,0.02400X0.03400*%
%ADD17C,0.03000*%
%ADD18R,0.04000X0.03000*%
%ADD19C,0.00000*%
%ADD20C,0.00300*%
D10*
X0079000Y0085500D02*
X0090500Y0085000D01*
X0079000Y0085500D02*
X0078000Y0086500D01*
X0078000Y0123500D01*
X0079000Y0124500D01*
X0090500Y0125000D01*
X0100972Y0128028D02*
X0100972Y0129528D01*
X0101472Y0130028D01*
X0101472Y0149028D01*
X0100972Y0149528D01*
X0100972Y0151028D01*
X0100974Y0151088D01*
X0100979Y0151149D01*
X0100988Y0151208D01*
X0101001Y0151267D01*
X0101017Y0151326D01*
X0101037Y0151383D01*
X0101060Y0151438D01*
X0101087Y0151493D01*
X0101116Y0151545D01*
X0101149Y0151596D01*
X0101185Y0151645D01*
X0101223Y0151691D01*
X0101265Y0151735D01*
X0101309Y0151777D01*
X0101355Y0151815D01*
X0101404Y0151851D01*
X0101455Y0151884D01*
X0101507Y0151913D01*
X0101562Y0151940D01*
X0101617Y0151963D01*
X0101674Y0151983D01*
X0101733Y0151999D01*
X0101792Y0152012D01*
X0101851Y0152021D01*
X0101912Y0152026D01*
X0101972Y0152028D01*
X0108972Y0152028D01*
X0109032Y0152026D01*
X0109093Y0152021D01*
X0109152Y0152012D01*
X0109211Y0151999D01*
X0109270Y0151983D01*
X0109327Y0151963D01*
X0109382Y0151940D01*
X0109437Y0151913D01*
X0109489Y0151884D01*
X0109540Y0151851D01*
X0109589Y0151815D01*
X0109635Y0151777D01*
X0109679Y0151735D01*
X0109721Y0151691D01*
X0109759Y0151645D01*
X0109795Y0151596D01*
X0109828Y0151545D01*
X0109857Y0151493D01*
X0109884Y0151438D01*
X0109907Y0151383D01*
X0109927Y0151326D01*
X0109943Y0151267D01*
X0109956Y0151208D01*
X0109965Y0151149D01*
X0109970Y0151088D01*
X0109972Y0151028D01*
X0109972Y0149528D01*
X0109472Y0149028D01*
X0109472Y0130028D01*
X0109972Y0129528D01*
X0109972Y0128028D01*
X0109970Y0127968D01*
X0109965Y0127907D01*
X0109956Y0127848D01*
X0109943Y0127789D01*
X0109927Y0127730D01*
X0109907Y0127673D01*
X0109884Y0127618D01*
X0109857Y0127563D01*
X0109828Y0127511D01*
X0109795Y0127460D01*
X0109759Y0127411D01*
X0109721Y0127365D01*
X0109679Y0127321D01*
X0109635Y0127279D01*
X0109589Y0127241D01*
X0109540Y0127205D01*
X0109489Y0127172D01*
X0109437Y0127143D01*
X0109382Y0127116D01*
X0109327Y0127093D01*
X0109270Y0127073D01*
X0109211Y0127057D01*
X0109152Y0127044D01*
X0109093Y0127035D01*
X0109032Y0127030D01*
X0108972Y0127028D01*
X0101972Y0127028D01*
X0101912Y0127030D01*
X0101851Y0127035D01*
X0101792Y0127044D01*
X0101733Y0127057D01*
X0101674Y0127073D01*
X0101617Y0127093D01*
X0101562Y0127116D01*
X0101507Y0127143D01*
X0101455Y0127172D01*
X0101404Y0127205D01*
X0101355Y0127241D01*
X0101309Y0127279D01*
X0101265Y0127321D01*
X0101223Y0127365D01*
X0101185Y0127411D01*
X0101149Y0127460D01*
X0101116Y0127511D01*
X0101087Y0127563D01*
X0101060Y0127618D01*
X0101037Y0127673D01*
X0101017Y0127730D01*
X0101001Y0127789D01*
X0100988Y0127848D01*
X0100979Y0127907D01*
X0100974Y0127968D01*
X0100972Y0128028D01*
X0118000Y0123500D02*
X0119000Y0124500D01*
X0130500Y0125000D01*
X0140972Y0128028D02*
X0140972Y0129528D01*
X0141472Y0130028D01*
X0141472Y0149028D01*
X0140972Y0149528D01*
X0140972Y0151028D01*
X0140974Y0151088D01*
X0140979Y0151149D01*
X0140988Y0151208D01*
X0141001Y0151267D01*
X0141017Y0151326D01*
X0141037Y0151383D01*
X0141060Y0151438D01*
X0141087Y0151493D01*
X0141116Y0151545D01*
X0141149Y0151596D01*
X0141185Y0151645D01*
X0141223Y0151691D01*
X0141265Y0151735D01*
X0141309Y0151777D01*
X0141355Y0151815D01*
X0141404Y0151851D01*
X0141455Y0151884D01*
X0141507Y0151913D01*
X0141562Y0151940D01*
X0141617Y0151963D01*
X0141674Y0151983D01*
X0141733Y0151999D01*
X0141792Y0152012D01*
X0141851Y0152021D01*
X0141912Y0152026D01*
X0141972Y0152028D01*
X0148972Y0152028D01*
X0149032Y0152026D01*
X0149093Y0152021D01*
X0149152Y0152012D01*
X0149211Y0151999D01*
X0149270Y0151983D01*
X0149327Y0151963D01*
X0149382Y0151940D01*
X0149437Y0151913D01*
X0149489Y0151884D01*
X0149540Y0151851D01*
X0149589Y0151815D01*
X0149635Y0151777D01*
X0149679Y0151735D01*
X0149721Y0151691D01*
X0149759Y0151645D01*
X0149795Y0151596D01*
X0149828Y0151545D01*
X0149857Y0151493D01*
X0149884Y0151438D01*
X0149907Y0151383D01*
X0149927Y0151326D01*
X0149943Y0151267D01*
X0149956Y0151208D01*
X0149965Y0151149D01*
X0149970Y0151088D01*
X0149972Y0151028D01*
X0149972Y0149528D01*
X0149472Y0149028D01*
X0149472Y0130028D01*
X0149972Y0129528D01*
X0149972Y0128028D01*
X0149970Y0127968D01*
X0149965Y0127907D01*
X0149956Y0127848D01*
X0149943Y0127789D01*
X0149927Y0127730D01*
X0149907Y0127673D01*
X0149884Y0127618D01*
X0149857Y0127563D01*
X0149828Y0127511D01*
X0149795Y0127460D01*
X0149759Y0127411D01*
X0149721Y0127365D01*
X0149679Y0127321D01*
X0149635Y0127279D01*
X0149589Y0127241D01*
X0149540Y0127205D01*
X0149489Y0127172D01*
X0149437Y0127143D01*
X0149382Y0127116D01*
X0149327Y0127093D01*
X0149270Y0127073D01*
X0149211Y0127057D01*
X0149152Y0127044D01*
X0149093Y0127035D01*
X0149032Y0127030D01*
X0148972Y0127028D01*
X0141972Y0127028D01*
X0141912Y0127030D01*
X0141851Y0127035D01*
X0141792Y0127044D01*
X0141733Y0127057D01*
X0141674Y0127073D01*
X0141617Y0127093D01*
X0141562Y0127116D01*
X0141507Y0127143D01*
X0141455Y0127172D01*
X0141404Y0127205D01*
X0141355Y0127241D01*
X0141309Y0127279D01*
X0141265Y0127321D01*
X0141223Y0127365D01*
X0141185Y0127411D01*
X0141149Y0127460D01*
X0141116Y0127511D01*
X0141087Y0127563D01*
X0141060Y0127618D01*
X0141037Y0127673D01*
X0141017Y0127730D01*
X0141001Y0127789D01*
X0140988Y0127848D01*
X0140979Y0127907D01*
X0140974Y0127968D01*
X0140972Y0128028D01*
X0158000Y0123500D02*
X0159000Y0124500D01*
X0170500Y0125000D01*
X0180972Y0128028D02*
X0180972Y0129528D01*
X0181472Y0130028D01*
X0181472Y0149028D01*
X0180972Y0149528D01*
X0180972Y0151028D01*
X0180974Y0151088D01*
X0180979Y0151149D01*
X0180988Y0151208D01*
X0181001Y0151267D01*
X0181017Y0151326D01*
X0181037Y0151383D01*
X0181060Y0151438D01*
X0181087Y0151493D01*
X0181116Y0151545D01*
X0181149Y0151596D01*
X0181185Y0151645D01*
X0181223Y0151691D01*
X0181265Y0151735D01*
X0181309Y0151777D01*
X0181355Y0151815D01*
X0181404Y0151851D01*
X0181455Y0151884D01*
X0181507Y0151913D01*
X0181562Y0151940D01*
X0181617Y0151963D01*
X0181674Y0151983D01*
X0181733Y0151999D01*
X0181792Y0152012D01*
X0181851Y0152021D01*
X0181912Y0152026D01*
X0181972Y0152028D01*
X0188972Y0152028D01*
X0189032Y0152026D01*
X0189093Y0152021D01*
X0189152Y0152012D01*
X0189211Y0151999D01*
X0189270Y0151983D01*
X0189327Y0151963D01*
X0189382Y0151940D01*
X0189437Y0151913D01*
X0189489Y0151884D01*
X0189540Y0151851D01*
X0189589Y0151815D01*
X0189635Y0151777D01*
X0189679Y0151735D01*
X0189721Y0151691D01*
X0189759Y0151645D01*
X0189795Y0151596D01*
X0189828Y0151545D01*
X0189857Y0151493D01*
X0189884Y0151438D01*
X0189907Y0151383D01*
X0189927Y0151326D01*
X0189943Y0151267D01*
X0189956Y0151208D01*
X0189965Y0151149D01*
X0189970Y0151088D01*
X0189972Y0151028D01*
X0189972Y0149528D01*
X0189472Y0149028D01*
X0189472Y0130028D01*
X0189972Y0129528D01*
X0189972Y0128028D01*
X0189970Y0127968D01*
X0189965Y0127907D01*
X0189956Y0127848D01*
X0189943Y0127789D01*
X0189927Y0127730D01*
X0189907Y0127673D01*
X0189884Y0127618D01*
X0189857Y0127563D01*
X0189828Y0127511D01*
X0189795Y0127460D01*
X0189759Y0127411D01*
X0189721Y0127365D01*
X0189679Y0127321D01*
X0189635Y0127279D01*
X0189589Y0127241D01*
X0189540Y0127205D01*
X0189489Y0127172D01*
X0189437Y0127143D01*
X0189382Y0127116D01*
X0189327Y0127093D01*
X0189270Y0127073D01*
X0189211Y0127057D01*
X0189152Y0127044D01*
X0189093Y0127035D01*
X0189032Y0127030D01*
X0188972Y0127028D01*
X0181972Y0127028D01*
X0181912Y0127030D01*
X0181851Y0127035D01*
X0181792Y0127044D01*
X0181733Y0127057D01*
X0181674Y0127073D01*
X0181617Y0127093D01*
X0181562Y0127116D01*
X0181507Y0127143D01*
X0181455Y0127172D01*
X0181404Y0127205D01*
X0181355Y0127241D01*
X0181309Y0127279D01*
X0181265Y0127321D01*
X0181223Y0127365D01*
X0181185Y0127411D01*
X0181149Y0127460D01*
X0181116Y0127511D01*
X0181087Y0127563D01*
X0181060Y0127618D01*
X0181037Y0127673D01*
X0181017Y0127730D01*
X0181001Y0127789D01*
X0180988Y0127848D01*
X0180979Y0127907D01*
X0180974Y0127968D01*
X0180972Y0128028D01*
X0198000Y0123500D02*
X0199000Y0124500D01*
X0210500Y0125000D01*
X0220972Y0128028D02*
X0220972Y0129528D01*
X0221472Y0130028D01*
X0221472Y0149028D01*
X0220972Y0149528D01*
X0220972Y0151028D01*
X0220974Y0151088D01*
X0220979Y0151149D01*
X0220988Y0151208D01*
X0221001Y0151267D01*
X0221017Y0151326D01*
X0221037Y0151383D01*
X0221060Y0151438D01*
X0221087Y0151493D01*
X0221116Y0151545D01*
X0221149Y0151596D01*
X0221185Y0151645D01*
X0221223Y0151691D01*
X0221265Y0151735D01*
X0221309Y0151777D01*
X0221355Y0151815D01*
X0221404Y0151851D01*
X0221455Y0151884D01*
X0221507Y0151913D01*
X0221562Y0151940D01*
X0221617Y0151963D01*
X0221674Y0151983D01*
X0221733Y0151999D01*
X0221792Y0152012D01*
X0221851Y0152021D01*
X0221912Y0152026D01*
X0221972Y0152028D01*
X0228972Y0152028D01*
X0229032Y0152026D01*
X0229093Y0152021D01*
X0229152Y0152012D01*
X0229211Y0151999D01*
X0229270Y0151983D01*
X0229327Y0151963D01*
X0229382Y0151940D01*
X0229437Y0151913D01*
X0229489Y0151884D01*
X0229540Y0151851D01*
X0229589Y0151815D01*
X0229635Y0151777D01*
X0229679Y0151735D01*
X0229721Y0151691D01*
X0229759Y0151645D01*
X0229795Y0151596D01*
X0229828Y0151545D01*
X0229857Y0151493D01*
X0229884Y0151438D01*
X0229907Y0151383D01*
X0229927Y0151326D01*
X0229943Y0151267D01*
X0229956Y0151208D01*
X0229965Y0151149D01*
X0229970Y0151088D01*
X0229972Y0151028D01*
X0229972Y0149528D01*
X0229472Y0149028D01*
X0229472Y0130028D01*
X0229972Y0129528D01*
X0229972Y0128028D01*
X0229970Y0127968D01*
X0229965Y0127907D01*
X0229956Y0127848D01*
X0229943Y0127789D01*
X0229927Y0127730D01*
X0229907Y0127673D01*
X0229884Y0127618D01*
X0229857Y0127563D01*
X0229828Y0127511D01*
X0229795Y0127460D01*
X0229759Y0127411D01*
X0229721Y0127365D01*
X0229679Y0127321D01*
X0229635Y0127279D01*
X0229589Y0127241D01*
X0229540Y0127205D01*
X0229489Y0127172D01*
X0229437Y0127143D01*
X0229382Y0127116D01*
X0229327Y0127093D01*
X0229270Y0127073D01*
X0229211Y0127057D01*
X0229152Y0127044D01*
X0229093Y0127035D01*
X0229032Y0127030D01*
X0228972Y0127028D01*
X0221972Y0127028D01*
X0221912Y0127030D01*
X0221851Y0127035D01*
X0221792Y0127044D01*
X0221733Y0127057D01*
X0221674Y0127073D01*
X0221617Y0127093D01*
X0221562Y0127116D01*
X0221507Y0127143D01*
X0221455Y0127172D01*
X0221404Y0127205D01*
X0221355Y0127241D01*
X0221309Y0127279D01*
X0221265Y0127321D01*
X0221223Y0127365D01*
X0221185Y0127411D01*
X0221149Y0127460D01*
X0221116Y0127511D01*
X0221087Y0127563D01*
X0221060Y0127618D01*
X0221037Y0127673D01*
X0221017Y0127730D01*
X0221001Y0127789D01*
X0220988Y0127848D01*
X0220979Y0127907D01*
X0220974Y0127968D01*
X0220972Y0128028D01*
X0198000Y0123500D02*
X0198000Y0086500D01*
X0199000Y0085500D01*
X0210500Y0085000D01*
X0247500Y0080000D02*
X0247500Y0070000D01*
X0247500Y0060000D01*
X0257500Y0060000D01*
X0257500Y0070000D01*
X0257500Y0080000D01*
X0257500Y0090000D01*
X0257500Y0100000D01*
X0257500Y0110000D01*
X0247500Y0110000D01*
X0247500Y0100000D01*
X0247500Y0090000D01*
X0247500Y0080000D01*
X0257500Y0080000D01*
X0257500Y0070000D02*
X0247500Y0070000D01*
X0247500Y0090000D02*
X0257500Y0090000D01*
X0257500Y0100000D02*
X0247500Y0100000D01*
X0170500Y0085000D02*
X0159000Y0085500D01*
X0158000Y0086500D01*
X0158000Y0123500D01*
X0118000Y0123500D02*
X0118000Y0086500D01*
X0119000Y0085500D01*
X0130500Y0085000D01*
X0040000Y0117500D02*
X0037500Y0115000D01*
X0032500Y0115000D01*
X0030000Y0117500D01*
X0030000Y0122500D01*
X0032500Y0125000D01*
X0030000Y0127500D01*
X0030000Y0132500D01*
X0032500Y0135000D01*
X0030000Y0137500D01*
X0030000Y0142500D01*
X0032500Y0145000D01*
X0030000Y0147500D01*
X0030000Y0152500D01*
X0032500Y0155000D01*
X0030000Y0157500D01*
X0030000Y0162500D01*
X0032500Y0165000D01*
X0037500Y0165000D01*
X0040000Y0162500D01*
X0040000Y0157500D01*
X0037500Y0155000D01*
X0040000Y0152500D01*
X0040000Y0147500D01*
X0037500Y0145000D01*
X0032500Y0145000D01*
X0037500Y0145000D02*
X0040000Y0142500D01*
X0040000Y0137500D01*
X0037500Y0135000D01*
X0040000Y0132500D01*
X0040000Y0127500D01*
X0037500Y0125000D01*
X0040000Y0122500D01*
X0040000Y0117500D01*
X0037500Y0125000D02*
X0032500Y0125000D01*
X0032500Y0135000D02*
X0037500Y0135000D01*
X0037500Y0155000D02*
X0032500Y0155000D01*
D11*
X0080400Y0122700D03*
X0120400Y0122700D03*
X0160400Y0122700D03*
X0200400Y0122700D03*
D12*
X0195950Y0122750D02*
X0191450Y0122750D01*
X0191450Y0124750D01*
X0193450Y0124250D02*
X0193450Y0122750D01*
X0195950Y0122750D02*
X0195950Y0124750D01*
X0195950Y0119340D02*
X0191450Y0120840D01*
X0191450Y0117840D02*
X0195950Y0119340D01*
X0195950Y0116350D02*
X0195950Y0114350D01*
X0191450Y0114350D01*
X0191450Y0110940D02*
X0195950Y0112440D01*
X0194825Y0112065D02*
X0194825Y0109815D01*
X0195950Y0109440D02*
X0191450Y0110940D01*
X0191450Y0107940D02*
X0195950Y0106440D01*
X0191450Y0104940D01*
X0191450Y0099890D02*
X0191450Y0097390D01*
X0191450Y0098640D02*
X0195950Y0098640D01*
X0195950Y0095950D02*
X0195950Y0093950D01*
X0191450Y0093950D01*
X0191450Y0095950D01*
X0193450Y0095450D02*
X0193450Y0093950D01*
X0193450Y0092050D02*
X0193450Y0090050D01*
X0191450Y0090050D02*
X0195950Y0090050D01*
X0191450Y0090050D02*
X0191450Y0092050D01*
X0196450Y0101390D02*
X0196450Y0103390D01*
X0179222Y0127778D02*
X0174722Y0127778D01*
X0174722Y0129028D01*
X0174724Y0129097D01*
X0174730Y0129166D01*
X0174739Y0129234D01*
X0174752Y0129301D01*
X0174769Y0129368D01*
X0174790Y0129434D01*
X0174814Y0129498D01*
X0174842Y0129561D01*
X0174873Y0129623D01*
X0174907Y0129683D01*
X0174945Y0129740D01*
X0174986Y0129796D01*
X0175029Y0129849D01*
X0175076Y0129900D01*
X0175125Y0129948D01*
X0175177Y0129993D01*
X0175232Y0130035D01*
X0175288Y0130074D01*
X0175347Y0130111D01*
X0175408Y0130143D01*
X0175470Y0130173D01*
X0175534Y0130199D01*
X0175599Y0130221D01*
X0175665Y0130240D01*
X0175732Y0130255D01*
X0175800Y0130266D01*
X0175869Y0130274D01*
X0175938Y0130278D01*
X0176006Y0130278D01*
X0176075Y0130274D01*
X0176144Y0130266D01*
X0176212Y0130255D01*
X0176279Y0130240D01*
X0176345Y0130221D01*
X0176410Y0130199D01*
X0176474Y0130173D01*
X0176536Y0130143D01*
X0176597Y0130111D01*
X0176656Y0130074D01*
X0176712Y0130035D01*
X0176767Y0129993D01*
X0176819Y0129948D01*
X0176868Y0129900D01*
X0176915Y0129849D01*
X0176958Y0129796D01*
X0176999Y0129740D01*
X0177037Y0129683D01*
X0177071Y0129623D01*
X0177102Y0129561D01*
X0177130Y0129498D01*
X0177154Y0129434D01*
X0177175Y0129368D01*
X0177192Y0129301D01*
X0177205Y0129234D01*
X0177214Y0129166D01*
X0177220Y0129097D01*
X0177222Y0129028D01*
X0177222Y0127778D01*
X0177222Y0129278D02*
X0179222Y0130278D01*
X0178222Y0132245D02*
X0174722Y0133245D01*
X0177222Y0133995D02*
X0179222Y0133995D01*
X0178222Y0134745D02*
X0178222Y0132245D01*
X0179722Y0136545D02*
X0179722Y0138545D01*
X0179222Y0140345D02*
X0179222Y0142845D01*
X0179222Y0141595D02*
X0174722Y0141595D01*
X0175722Y0140345D01*
X0176972Y0147345D02*
X0177092Y0147343D01*
X0177212Y0147337D01*
X0177332Y0147327D01*
X0177451Y0147314D01*
X0177570Y0147296D01*
X0177688Y0147275D01*
X0177806Y0147250D01*
X0177922Y0147221D01*
X0178038Y0147188D01*
X0178152Y0147152D01*
X0178266Y0147112D01*
X0178378Y0147068D01*
X0178488Y0147021D01*
X0178597Y0146970D01*
X0178653Y0146949D01*
X0178708Y0146923D01*
X0178762Y0146895D01*
X0178813Y0146863D01*
X0178862Y0146828D01*
X0178908Y0146789D01*
X0178952Y0146748D01*
X0178994Y0146704D01*
X0179032Y0146657D01*
X0179067Y0146608D01*
X0179099Y0146556D01*
X0179127Y0146503D01*
X0179152Y0146448D01*
X0179173Y0146392D01*
X0179191Y0146334D01*
X0179204Y0146275D01*
X0179214Y0146215D01*
X0179220Y0146155D01*
X0179222Y0146095D01*
X0179220Y0146035D01*
X0179214Y0145975D01*
X0179204Y0145915D01*
X0179191Y0145856D01*
X0179173Y0145798D01*
X0179152Y0145742D01*
X0179127Y0145687D01*
X0179099Y0145634D01*
X0179067Y0145582D01*
X0179032Y0145533D01*
X0178994Y0145486D01*
X0178952Y0145442D01*
X0178908Y0145401D01*
X0178862Y0145362D01*
X0178813Y0145327D01*
X0178762Y0145295D01*
X0178708Y0145267D01*
X0178653Y0145241D01*
X0178597Y0145220D01*
X0178222Y0145095D02*
X0175722Y0147095D01*
X0175347Y0146970D02*
X0175291Y0146949D01*
X0175236Y0146923D01*
X0175182Y0146895D01*
X0175131Y0146863D01*
X0175082Y0146828D01*
X0175036Y0146789D01*
X0174992Y0146748D01*
X0174950Y0146704D01*
X0174912Y0146657D01*
X0174877Y0146608D01*
X0174845Y0146556D01*
X0174817Y0146503D01*
X0174792Y0146448D01*
X0174771Y0146392D01*
X0174753Y0146334D01*
X0174740Y0146275D01*
X0174730Y0146215D01*
X0174724Y0146155D01*
X0174722Y0146095D01*
X0174724Y0146035D01*
X0174730Y0145975D01*
X0174740Y0145915D01*
X0174753Y0145856D01*
X0174771Y0145798D01*
X0174792Y0145742D01*
X0174817Y0145687D01*
X0174845Y0145634D01*
X0174877Y0145582D01*
X0174912Y0145533D01*
X0174950Y0145486D01*
X0174992Y0145442D01*
X0175036Y0145401D01*
X0175082Y0145362D01*
X0175131Y0145327D01*
X0175182Y0145295D01*
X0175236Y0145267D01*
X0175291Y0145241D01*
X0175347Y0145220D01*
X0175347Y0146970D02*
X0175456Y0147021D01*
X0175566Y0147068D01*
X0175678Y0147112D01*
X0175792Y0147152D01*
X0175906Y0147188D01*
X0176022Y0147221D01*
X0176138Y0147250D01*
X0176256Y0147275D01*
X0176374Y0147296D01*
X0176493Y0147314D01*
X0176612Y0147327D01*
X0176732Y0147337D01*
X0176852Y0147343D01*
X0176972Y0147345D01*
X0176972Y0144845D02*
X0177092Y0144847D01*
X0177212Y0144853D01*
X0177332Y0144863D01*
X0177451Y0144876D01*
X0177570Y0144894D01*
X0177688Y0144915D01*
X0177806Y0144940D01*
X0177922Y0144969D01*
X0178038Y0145002D01*
X0178152Y0145038D01*
X0178266Y0145078D01*
X0178378Y0145122D01*
X0178488Y0145169D01*
X0178597Y0145220D01*
X0176972Y0144845D02*
X0176852Y0144847D01*
X0176732Y0144853D01*
X0176612Y0144863D01*
X0176493Y0144876D01*
X0176374Y0144894D01*
X0176256Y0144915D01*
X0176138Y0144940D01*
X0176022Y0144969D01*
X0175906Y0145002D01*
X0175792Y0145038D01*
X0175678Y0145078D01*
X0175566Y0145122D01*
X0175456Y0145169D01*
X0175347Y0145220D01*
X0174722Y0149570D02*
X0179222Y0149570D01*
X0177472Y0149570D02*
X0174722Y0152070D01*
X0176472Y0150570D02*
X0179222Y0152070D01*
X0179222Y0153895D02*
X0179222Y0154645D01*
X0177972Y0154645D01*
X0177936Y0154582D01*
X0177897Y0154520D01*
X0177855Y0154461D01*
X0177810Y0154404D01*
X0177761Y0154349D01*
X0177710Y0154297D01*
X0177657Y0154247D01*
X0177601Y0154201D01*
X0177543Y0154157D01*
X0177482Y0154116D01*
X0177420Y0154079D01*
X0177355Y0154044D01*
X0177289Y0154013D01*
X0177222Y0153986D01*
X0177153Y0153962D01*
X0177083Y0153942D01*
X0177012Y0153925D01*
X0176940Y0153912D01*
X0176868Y0153903D01*
X0176795Y0153897D01*
X0176722Y0153895D01*
X0176222Y0153895D01*
X0174722Y0155395D02*
X0174724Y0155471D01*
X0174730Y0155547D01*
X0174739Y0155622D01*
X0174753Y0155697D01*
X0174770Y0155771D01*
X0174791Y0155844D01*
X0174815Y0155916D01*
X0174844Y0155987D01*
X0174875Y0156056D01*
X0174910Y0156123D01*
X0174949Y0156188D01*
X0174991Y0156252D01*
X0175036Y0156313D01*
X0175084Y0156372D01*
X0175135Y0156428D01*
X0175189Y0156482D01*
X0175245Y0156533D01*
X0175304Y0156581D01*
X0175365Y0156626D01*
X0175429Y0156668D01*
X0175494Y0156707D01*
X0175561Y0156742D01*
X0175630Y0156773D01*
X0175701Y0156802D01*
X0175773Y0156826D01*
X0175846Y0156847D01*
X0175920Y0156864D01*
X0175995Y0156878D01*
X0176070Y0156887D01*
X0176146Y0156893D01*
X0176222Y0156895D01*
X0176722Y0156895D01*
X0176795Y0156893D01*
X0176868Y0156887D01*
X0176940Y0156878D01*
X0177012Y0156865D01*
X0177083Y0156848D01*
X0177153Y0156828D01*
X0177222Y0156804D01*
X0177289Y0156777D01*
X0177355Y0156746D01*
X0177420Y0156711D01*
X0177482Y0156674D01*
X0177543Y0156633D01*
X0177601Y0156589D01*
X0177657Y0156543D01*
X0177710Y0156493D01*
X0177761Y0156441D01*
X0177810Y0156386D01*
X0177855Y0156329D01*
X0177897Y0156270D01*
X0177936Y0156208D01*
X0177972Y0156145D01*
X0179222Y0156145D01*
X0179222Y0156895D01*
X0176222Y0153895D02*
X0176146Y0153897D01*
X0176070Y0153903D01*
X0175995Y0153912D01*
X0175920Y0153926D01*
X0175846Y0153943D01*
X0175773Y0153964D01*
X0175701Y0153988D01*
X0175630Y0154017D01*
X0175561Y0154048D01*
X0175494Y0154083D01*
X0175429Y0154122D01*
X0175365Y0154164D01*
X0175304Y0154209D01*
X0175245Y0154257D01*
X0175189Y0154308D01*
X0175135Y0154362D01*
X0175084Y0154418D01*
X0175036Y0154477D01*
X0174991Y0154538D01*
X0174949Y0154602D01*
X0174910Y0154667D01*
X0174875Y0154734D01*
X0174844Y0154803D01*
X0174815Y0154874D01*
X0174791Y0154946D01*
X0174770Y0155019D01*
X0174753Y0155093D01*
X0174739Y0155168D01*
X0174730Y0155243D01*
X0174724Y0155319D01*
X0174722Y0155395D01*
X0139222Y0154645D02*
X0139222Y0153895D01*
X0139222Y0154645D02*
X0137972Y0154645D01*
X0137936Y0154582D01*
X0137897Y0154520D01*
X0137855Y0154461D01*
X0137810Y0154404D01*
X0137761Y0154349D01*
X0137710Y0154297D01*
X0137657Y0154247D01*
X0137601Y0154201D01*
X0137543Y0154157D01*
X0137482Y0154116D01*
X0137420Y0154079D01*
X0137355Y0154044D01*
X0137289Y0154013D01*
X0137222Y0153986D01*
X0137153Y0153962D01*
X0137083Y0153942D01*
X0137012Y0153925D01*
X0136940Y0153912D01*
X0136868Y0153903D01*
X0136795Y0153897D01*
X0136722Y0153895D01*
X0136222Y0153895D01*
X0134722Y0155395D02*
X0134724Y0155471D01*
X0134730Y0155547D01*
X0134739Y0155622D01*
X0134753Y0155697D01*
X0134770Y0155771D01*
X0134791Y0155844D01*
X0134815Y0155916D01*
X0134844Y0155987D01*
X0134875Y0156056D01*
X0134910Y0156123D01*
X0134949Y0156188D01*
X0134991Y0156252D01*
X0135036Y0156313D01*
X0135084Y0156372D01*
X0135135Y0156428D01*
X0135189Y0156482D01*
X0135245Y0156533D01*
X0135304Y0156581D01*
X0135365Y0156626D01*
X0135429Y0156668D01*
X0135494Y0156707D01*
X0135561Y0156742D01*
X0135630Y0156773D01*
X0135701Y0156802D01*
X0135773Y0156826D01*
X0135846Y0156847D01*
X0135920Y0156864D01*
X0135995Y0156878D01*
X0136070Y0156887D01*
X0136146Y0156893D01*
X0136222Y0156895D01*
X0136722Y0156895D01*
X0136795Y0156893D01*
X0136868Y0156887D01*
X0136940Y0156878D01*
X0137012Y0156865D01*
X0137083Y0156848D01*
X0137153Y0156828D01*
X0137222Y0156804D01*
X0137289Y0156777D01*
X0137355Y0156746D01*
X0137420Y0156711D01*
X0137482Y0156674D01*
X0137543Y0156633D01*
X0137601Y0156589D01*
X0137657Y0156543D01*
X0137710Y0156493D01*
X0137761Y0156441D01*
X0137810Y0156386D01*
X0137855Y0156329D01*
X0137897Y0156270D01*
X0137936Y0156208D01*
X0137972Y0156145D01*
X0139222Y0156145D01*
X0139222Y0156895D01*
X0136222Y0153895D02*
X0136146Y0153897D01*
X0136070Y0153903D01*
X0135995Y0153912D01*
X0135920Y0153926D01*
X0135846Y0153943D01*
X0135773Y0153964D01*
X0135701Y0153988D01*
X0135630Y0154017D01*
X0135561Y0154048D01*
X0135494Y0154083D01*
X0135429Y0154122D01*
X0135365Y0154164D01*
X0135304Y0154209D01*
X0135245Y0154257D01*
X0135189Y0154308D01*
X0135135Y0154362D01*
X0135084Y0154418D01*
X0135036Y0154477D01*
X0134991Y0154538D01*
X0134949Y0154602D01*
X0134910Y0154667D01*
X0134875Y0154734D01*
X0134844Y0154803D01*
X0134815Y0154874D01*
X0134791Y0154946D01*
X0134770Y0155019D01*
X0134753Y0155093D01*
X0134739Y0155168D01*
X0134730Y0155243D01*
X0134724Y0155319D01*
X0134722Y0155395D01*
X0134722Y0152070D02*
X0137472Y0149570D01*
X0138597Y0145220D02*
X0138488Y0145169D01*
X0138378Y0145122D01*
X0138266Y0145078D01*
X0138152Y0145038D01*
X0138038Y0145002D01*
X0137922Y0144969D01*
X0137806Y0144940D01*
X0137688Y0144915D01*
X0137570Y0144894D01*
X0137451Y0144876D01*
X0137332Y0144863D01*
X0137212Y0144853D01*
X0137092Y0144847D01*
X0136972Y0144845D01*
X0136972Y0147345D02*
X0137092Y0147343D01*
X0137212Y0147337D01*
X0137332Y0147327D01*
X0137451Y0147314D01*
X0137570Y0147296D01*
X0137688Y0147275D01*
X0137806Y0147250D01*
X0137922Y0147221D01*
X0138038Y0147188D01*
X0138152Y0147152D01*
X0138266Y0147112D01*
X0138378Y0147068D01*
X0138488Y0147021D01*
X0138597Y0146970D01*
X0138653Y0146949D01*
X0138708Y0146923D01*
X0138762Y0146895D01*
X0138813Y0146863D01*
X0138862Y0146828D01*
X0138908Y0146789D01*
X0138952Y0146748D01*
X0138994Y0146704D01*
X0139032Y0146657D01*
X0139067Y0146608D01*
X0139099Y0146556D01*
X0139127Y0146503D01*
X0139152Y0146448D01*
X0139173Y0146392D01*
X0139191Y0146334D01*
X0139204Y0146275D01*
X0139214Y0146215D01*
X0139220Y0146155D01*
X0139222Y0146095D01*
X0139220Y0146035D01*
X0139214Y0145975D01*
X0139204Y0145915D01*
X0139191Y0145856D01*
X0139173Y0145798D01*
X0139152Y0145742D01*
X0139127Y0145687D01*
X0139099Y0145634D01*
X0139067Y0145582D01*
X0139032Y0145533D01*
X0138994Y0145486D01*
X0138952Y0145442D01*
X0138908Y0145401D01*
X0138862Y0145362D01*
X0138813Y0145327D01*
X0138762Y0145295D01*
X0138708Y0145267D01*
X0138653Y0145241D01*
X0138597Y0145220D01*
X0138222Y0145095D02*
X0135722Y0147095D01*
X0135347Y0146970D02*
X0135291Y0146949D01*
X0135236Y0146923D01*
X0135182Y0146895D01*
X0135131Y0146863D01*
X0135082Y0146828D01*
X0135036Y0146789D01*
X0134992Y0146748D01*
X0134950Y0146704D01*
X0134912Y0146657D01*
X0134877Y0146608D01*
X0134845Y0146556D01*
X0134817Y0146503D01*
X0134792Y0146448D01*
X0134771Y0146392D01*
X0134753Y0146334D01*
X0134740Y0146275D01*
X0134730Y0146215D01*
X0134724Y0146155D01*
X0134722Y0146095D01*
X0134724Y0146035D01*
X0134730Y0145975D01*
X0134740Y0145915D01*
X0134753Y0145856D01*
X0134771Y0145798D01*
X0134792Y0145742D01*
X0134817Y0145687D01*
X0134845Y0145634D01*
X0134877Y0145582D01*
X0134912Y0145533D01*
X0134950Y0145486D01*
X0134992Y0145442D01*
X0135036Y0145401D01*
X0135082Y0145362D01*
X0135131Y0145327D01*
X0135182Y0145295D01*
X0135236Y0145267D01*
X0135291Y0145241D01*
X0135347Y0145220D01*
X0135347Y0146970D02*
X0135456Y0147021D01*
X0135566Y0147068D01*
X0135678Y0147112D01*
X0135792Y0147152D01*
X0135906Y0147188D01*
X0136022Y0147221D01*
X0136138Y0147250D01*
X0136256Y0147275D01*
X0136374Y0147296D01*
X0136493Y0147314D01*
X0136612Y0147327D01*
X0136732Y0147337D01*
X0136852Y0147343D01*
X0136972Y0147345D01*
X0136972Y0144845D02*
X0136852Y0144847D01*
X0136732Y0144853D01*
X0136612Y0144863D01*
X0136493Y0144876D01*
X0136374Y0144894D01*
X0136256Y0144915D01*
X0136138Y0144940D01*
X0136022Y0144969D01*
X0135906Y0145002D01*
X0135792Y0145038D01*
X0135678Y0145078D01*
X0135566Y0145122D01*
X0135456Y0145169D01*
X0135347Y0145220D01*
X0134722Y0141595D02*
X0139222Y0141595D01*
X0139222Y0140345D02*
X0139222Y0142845D01*
X0135722Y0140345D02*
X0134722Y0141595D01*
X0139722Y0138545D02*
X0139722Y0136545D01*
X0139222Y0134745D02*
X0139222Y0132245D01*
X0139222Y0133495D02*
X0134722Y0133495D01*
X0135722Y0132245D01*
X0137222Y0129278D02*
X0139222Y0130278D01*
X0137222Y0129028D02*
X0137222Y0127778D01*
X0137222Y0129028D02*
X0137220Y0129097D01*
X0137214Y0129166D01*
X0137205Y0129234D01*
X0137192Y0129301D01*
X0137175Y0129368D01*
X0137154Y0129434D01*
X0137130Y0129498D01*
X0137102Y0129561D01*
X0137071Y0129623D01*
X0137037Y0129683D01*
X0136999Y0129740D01*
X0136958Y0129796D01*
X0136915Y0129849D01*
X0136868Y0129900D01*
X0136819Y0129948D01*
X0136767Y0129993D01*
X0136712Y0130035D01*
X0136656Y0130074D01*
X0136597Y0130111D01*
X0136536Y0130143D01*
X0136474Y0130173D01*
X0136410Y0130199D01*
X0136345Y0130221D01*
X0136279Y0130240D01*
X0136212Y0130255D01*
X0136144Y0130266D01*
X0136075Y0130274D01*
X0136006Y0130278D01*
X0135938Y0130278D01*
X0135869Y0130274D01*
X0135800Y0130266D01*
X0135732Y0130255D01*
X0135665Y0130240D01*
X0135599Y0130221D01*
X0135534Y0130199D01*
X0135470Y0130173D01*
X0135408Y0130143D01*
X0135347Y0130111D01*
X0135288Y0130074D01*
X0135232Y0130035D01*
X0135177Y0129993D01*
X0135125Y0129948D01*
X0135076Y0129900D01*
X0135029Y0129849D01*
X0134986Y0129796D01*
X0134945Y0129740D01*
X0134907Y0129683D01*
X0134873Y0129623D01*
X0134842Y0129561D01*
X0134814Y0129498D01*
X0134790Y0129434D01*
X0134769Y0129368D01*
X0134752Y0129301D01*
X0134739Y0129234D01*
X0134730Y0129166D01*
X0134724Y0129097D01*
X0134722Y0129028D01*
X0134722Y0127778D01*
X0139222Y0127778D01*
X0151450Y0123500D02*
X0151450Y0122250D01*
X0155950Y0122250D01*
X0153950Y0122250D02*
X0153950Y0123500D01*
X0153948Y0123569D01*
X0153942Y0123638D01*
X0153933Y0123706D01*
X0153920Y0123773D01*
X0153903Y0123840D01*
X0153882Y0123906D01*
X0153858Y0123970D01*
X0153830Y0124033D01*
X0153799Y0124095D01*
X0153765Y0124155D01*
X0153727Y0124212D01*
X0153686Y0124268D01*
X0153643Y0124321D01*
X0153596Y0124372D01*
X0153547Y0124420D01*
X0153495Y0124465D01*
X0153440Y0124507D01*
X0153384Y0124546D01*
X0153325Y0124583D01*
X0153264Y0124615D01*
X0153202Y0124645D01*
X0153138Y0124671D01*
X0153073Y0124693D01*
X0153007Y0124712D01*
X0152940Y0124727D01*
X0152872Y0124738D01*
X0152803Y0124746D01*
X0152734Y0124750D01*
X0152666Y0124750D01*
X0152597Y0124746D01*
X0152528Y0124738D01*
X0152460Y0124727D01*
X0152393Y0124712D01*
X0152327Y0124693D01*
X0152262Y0124671D01*
X0152198Y0124645D01*
X0152136Y0124615D01*
X0152075Y0124583D01*
X0152016Y0124546D01*
X0151960Y0124507D01*
X0151905Y0124465D01*
X0151853Y0124420D01*
X0151804Y0124372D01*
X0151757Y0124321D01*
X0151714Y0124268D01*
X0151673Y0124212D01*
X0151635Y0124155D01*
X0151601Y0124095D01*
X0151570Y0124033D01*
X0151542Y0123970D01*
X0151518Y0123906D01*
X0151497Y0123840D01*
X0151480Y0123773D01*
X0151467Y0123706D01*
X0151458Y0123638D01*
X0151452Y0123569D01*
X0151450Y0123500D01*
X0151450Y0119825D02*
X0155950Y0119825D01*
X0153950Y0118325D02*
X0151450Y0119825D01*
X0153950Y0118325D02*
X0151450Y0116825D01*
X0155950Y0116825D01*
X0154700Y0114475D02*
X0151450Y0114475D01*
X0151450Y0111975D02*
X0154700Y0111975D01*
X0154769Y0111977D01*
X0154838Y0111983D01*
X0154906Y0111992D01*
X0154973Y0112005D01*
X0155040Y0112022D01*
X0155106Y0112043D01*
X0155170Y0112067D01*
X0155233Y0112095D01*
X0155295Y0112126D01*
X0155355Y0112160D01*
X0155412Y0112198D01*
X0155468Y0112239D01*
X0155521Y0112282D01*
X0155572Y0112329D01*
X0155620Y0112378D01*
X0155665Y0112430D01*
X0155707Y0112485D01*
X0155746Y0112541D01*
X0155783Y0112600D01*
X0155815Y0112661D01*
X0155845Y0112723D01*
X0155871Y0112787D01*
X0155893Y0112852D01*
X0155912Y0112918D01*
X0155927Y0112985D01*
X0155938Y0113053D01*
X0155946Y0113122D01*
X0155950Y0113191D01*
X0155950Y0113259D01*
X0155946Y0113328D01*
X0155938Y0113397D01*
X0155927Y0113465D01*
X0155912Y0113532D01*
X0155893Y0113598D01*
X0155871Y0113663D01*
X0155845Y0113727D01*
X0155815Y0113789D01*
X0155783Y0113850D01*
X0155746Y0113909D01*
X0155707Y0113965D01*
X0155665Y0114020D01*
X0155620Y0114072D01*
X0155572Y0114121D01*
X0155521Y0114168D01*
X0155468Y0114211D01*
X0155412Y0114252D01*
X0155355Y0114290D01*
X0155295Y0114324D01*
X0155233Y0114355D01*
X0155170Y0114383D01*
X0155106Y0114407D01*
X0155040Y0114428D01*
X0154973Y0114445D01*
X0154906Y0114458D01*
X0154838Y0114467D01*
X0154769Y0114473D01*
X0154700Y0114475D01*
X0153950Y0108800D02*
X0153950Y0107550D01*
X0153950Y0108800D02*
X0153948Y0108869D01*
X0153942Y0108938D01*
X0153933Y0109006D01*
X0153920Y0109073D01*
X0153903Y0109140D01*
X0153882Y0109206D01*
X0153858Y0109270D01*
X0153830Y0109333D01*
X0153799Y0109395D01*
X0153765Y0109455D01*
X0153727Y0109512D01*
X0153686Y0109568D01*
X0153643Y0109621D01*
X0153596Y0109672D01*
X0153547Y0109720D01*
X0153495Y0109765D01*
X0153440Y0109807D01*
X0153384Y0109846D01*
X0153325Y0109883D01*
X0153264Y0109915D01*
X0153202Y0109945D01*
X0153138Y0109971D01*
X0153073Y0109993D01*
X0153007Y0110012D01*
X0152940Y0110027D01*
X0152872Y0110038D01*
X0152803Y0110046D01*
X0152734Y0110050D01*
X0152666Y0110050D01*
X0152597Y0110046D01*
X0152528Y0110038D01*
X0152460Y0110027D01*
X0152393Y0110012D01*
X0152327Y0109993D01*
X0152262Y0109971D01*
X0152198Y0109945D01*
X0152136Y0109915D01*
X0152075Y0109883D01*
X0152016Y0109846D01*
X0151960Y0109807D01*
X0151905Y0109765D01*
X0151853Y0109720D01*
X0151804Y0109672D01*
X0151757Y0109621D01*
X0151714Y0109568D01*
X0151673Y0109512D01*
X0151635Y0109455D01*
X0151601Y0109395D01*
X0151570Y0109333D01*
X0151542Y0109270D01*
X0151518Y0109206D01*
X0151497Y0109140D01*
X0151480Y0109073D01*
X0151467Y0109006D01*
X0151458Y0108938D01*
X0151452Y0108869D01*
X0151450Y0108800D01*
X0151450Y0107550D01*
X0155950Y0107550D01*
X0155950Y0104375D02*
X0151450Y0104375D01*
X0151450Y0103125D02*
X0151450Y0105625D01*
X0151450Y0101660D02*
X0151450Y0100660D01*
X0151452Y0100600D01*
X0151457Y0100539D01*
X0151466Y0100480D01*
X0151479Y0100421D01*
X0151495Y0100362D01*
X0151515Y0100305D01*
X0151538Y0100250D01*
X0151565Y0100195D01*
X0151594Y0100143D01*
X0151627Y0100092D01*
X0151663Y0100043D01*
X0151701Y0099997D01*
X0151743Y0099953D01*
X0151787Y0099911D01*
X0151833Y0099873D01*
X0151882Y0099837D01*
X0151933Y0099804D01*
X0151985Y0099775D01*
X0152040Y0099748D01*
X0152095Y0099725D01*
X0152152Y0099705D01*
X0152211Y0099689D01*
X0152270Y0099676D01*
X0152329Y0099667D01*
X0152390Y0099662D01*
X0152450Y0099660D01*
X0154950Y0099660D01*
X0155010Y0099662D01*
X0155071Y0099667D01*
X0155130Y0099676D01*
X0155189Y0099689D01*
X0155248Y0099705D01*
X0155305Y0099725D01*
X0155360Y0099748D01*
X0155415Y0099775D01*
X0155467Y0099804D01*
X0155518Y0099837D01*
X0155567Y0099873D01*
X0155613Y0099911D01*
X0155657Y0099953D01*
X0155699Y0099997D01*
X0155737Y0100043D01*
X0155773Y0100092D01*
X0155806Y0100143D01*
X0155835Y0100195D01*
X0155862Y0100250D01*
X0155885Y0100305D01*
X0155905Y0100362D01*
X0155921Y0100421D01*
X0155934Y0100480D01*
X0155943Y0100539D01*
X0155948Y0100600D01*
X0155950Y0100660D01*
X0155950Y0101660D01*
X0155950Y0097935D02*
X0155950Y0095935D01*
X0151450Y0095935D01*
X0151450Y0097935D01*
X0153450Y0097435D02*
X0153450Y0095935D01*
X0155950Y0094035D02*
X0155950Y0092035D01*
X0151450Y0092035D01*
X0151450Y0088135D02*
X0155950Y0088135D01*
X0155950Y0090135D01*
X0154700Y0085975D02*
X0152700Y0085975D01*
X0152631Y0085973D01*
X0152562Y0085967D01*
X0152494Y0085958D01*
X0152427Y0085945D01*
X0152360Y0085928D01*
X0152294Y0085907D01*
X0152230Y0085883D01*
X0152167Y0085855D01*
X0152105Y0085824D01*
X0152045Y0085790D01*
X0151988Y0085752D01*
X0151932Y0085711D01*
X0151879Y0085668D01*
X0151828Y0085621D01*
X0151780Y0085572D01*
X0151735Y0085520D01*
X0151693Y0085465D01*
X0151654Y0085409D01*
X0151617Y0085350D01*
X0151585Y0085289D01*
X0151555Y0085227D01*
X0151529Y0085163D01*
X0151507Y0085098D01*
X0151488Y0085032D01*
X0151473Y0084965D01*
X0151462Y0084897D01*
X0151454Y0084828D01*
X0151450Y0084759D01*
X0151450Y0084691D01*
X0151454Y0084622D01*
X0151462Y0084553D01*
X0151473Y0084485D01*
X0151488Y0084418D01*
X0151507Y0084352D01*
X0151529Y0084287D01*
X0151555Y0084223D01*
X0151585Y0084161D01*
X0151617Y0084100D01*
X0151654Y0084041D01*
X0151693Y0083985D01*
X0151735Y0083930D01*
X0151780Y0083878D01*
X0151828Y0083829D01*
X0151879Y0083782D01*
X0151932Y0083739D01*
X0151988Y0083698D01*
X0152045Y0083660D01*
X0152105Y0083626D01*
X0152167Y0083595D01*
X0152230Y0083567D01*
X0152294Y0083543D01*
X0152360Y0083522D01*
X0152427Y0083505D01*
X0152494Y0083492D01*
X0152562Y0083483D01*
X0152631Y0083477D01*
X0152700Y0083475D01*
X0154700Y0083475D01*
X0154769Y0083477D01*
X0154838Y0083483D01*
X0154906Y0083492D01*
X0154973Y0083505D01*
X0155040Y0083522D01*
X0155106Y0083543D01*
X0155170Y0083567D01*
X0155233Y0083595D01*
X0155295Y0083626D01*
X0155355Y0083660D01*
X0155412Y0083698D01*
X0155468Y0083739D01*
X0155521Y0083782D01*
X0155572Y0083829D01*
X0155620Y0083878D01*
X0155665Y0083930D01*
X0155707Y0083985D01*
X0155746Y0084041D01*
X0155783Y0084100D01*
X0155815Y0084161D01*
X0155845Y0084223D01*
X0155871Y0084287D01*
X0155893Y0084352D01*
X0155912Y0084418D01*
X0155927Y0084485D01*
X0155938Y0084553D01*
X0155946Y0084622D01*
X0155950Y0084691D01*
X0155950Y0084759D01*
X0155946Y0084828D01*
X0155938Y0084897D01*
X0155927Y0084965D01*
X0155912Y0085032D01*
X0155893Y0085098D01*
X0155871Y0085163D01*
X0155845Y0085227D01*
X0155815Y0085289D01*
X0155783Y0085350D01*
X0155746Y0085409D01*
X0155707Y0085465D01*
X0155665Y0085520D01*
X0155620Y0085572D01*
X0155572Y0085621D01*
X0155521Y0085668D01*
X0155468Y0085711D01*
X0155412Y0085752D01*
X0155355Y0085790D01*
X0155295Y0085824D01*
X0155233Y0085855D01*
X0155170Y0085883D01*
X0155106Y0085907D01*
X0155040Y0085928D01*
X0154973Y0085945D01*
X0154906Y0085958D01*
X0154838Y0085967D01*
X0154769Y0085973D01*
X0154700Y0085975D01*
X0155950Y0081710D02*
X0155950Y0080710D01*
X0155948Y0080650D01*
X0155943Y0080589D01*
X0155934Y0080530D01*
X0155921Y0080471D01*
X0155905Y0080412D01*
X0155885Y0080355D01*
X0155862Y0080300D01*
X0155835Y0080245D01*
X0155806Y0080193D01*
X0155773Y0080142D01*
X0155737Y0080093D01*
X0155699Y0080047D01*
X0155657Y0080003D01*
X0155613Y0079961D01*
X0155567Y0079923D01*
X0155518Y0079887D01*
X0155467Y0079854D01*
X0155415Y0079825D01*
X0155360Y0079798D01*
X0155305Y0079775D01*
X0155248Y0079755D01*
X0155189Y0079739D01*
X0155130Y0079726D01*
X0155071Y0079717D01*
X0155010Y0079712D01*
X0154950Y0079710D01*
X0152450Y0079710D01*
X0152390Y0079712D01*
X0152329Y0079717D01*
X0152270Y0079726D01*
X0152211Y0079739D01*
X0152152Y0079755D01*
X0152095Y0079775D01*
X0152040Y0079798D01*
X0151985Y0079825D01*
X0151933Y0079854D01*
X0151882Y0079887D01*
X0151833Y0079923D01*
X0151787Y0079961D01*
X0151743Y0080003D01*
X0151701Y0080047D01*
X0151663Y0080093D01*
X0151627Y0080142D01*
X0151594Y0080193D01*
X0151565Y0080245D01*
X0151538Y0080300D01*
X0151515Y0080355D01*
X0151495Y0080412D01*
X0151479Y0080471D01*
X0151466Y0080530D01*
X0151457Y0080589D01*
X0151452Y0080650D01*
X0151450Y0080710D01*
X0151450Y0081710D01*
X0156450Y0077925D02*
X0156450Y0075925D01*
X0155950Y0073175D02*
X0151450Y0073175D01*
X0151450Y0071925D02*
X0151450Y0074425D01*
X0151450Y0070485D02*
X0151450Y0068485D01*
X0155950Y0068485D01*
X0155950Y0070485D01*
X0153450Y0069985D02*
X0153450Y0068485D01*
X0155000Y0068063D02*
X0195000Y0068063D01*
X0235000Y0068063D01*
X0235000Y0032630D01*
X0195000Y0032630D01*
X0195000Y0068063D01*
X0195000Y0032630D01*
X0155000Y0032630D01*
X0155000Y0068063D01*
X0155000Y0032630D01*
X0115000Y0032630D01*
X0115000Y0068063D01*
X0075000Y0068063D01*
X0075000Y0032630D01*
X0115000Y0032630D01*
X0115000Y0068063D01*
X0155000Y0068063D01*
X0153450Y0066585D02*
X0153450Y0064585D01*
X0151450Y0064585D02*
X0151450Y0066585D01*
X0151450Y0064585D02*
X0155950Y0064585D01*
X0115950Y0080335D02*
X0111450Y0080335D01*
X0111450Y0082335D01*
X0111450Y0084235D02*
X0111450Y0086235D01*
X0111450Y0087675D02*
X0111450Y0090175D01*
X0111450Y0088925D02*
X0115950Y0088925D01*
X0116450Y0091675D02*
X0116450Y0093675D01*
X0115950Y0095225D02*
X0111450Y0096725D01*
X0115950Y0098225D01*
X0114825Y0097850D02*
X0114825Y0095600D01*
X0115950Y0099825D02*
X0115950Y0100825D01*
X0115950Y0100325D02*
X0111450Y0100325D01*
X0111450Y0099825D02*
X0111450Y0100825D01*
X0111450Y0102858D02*
X0111450Y0104108D01*
X0111452Y0104177D01*
X0111458Y0104246D01*
X0111467Y0104314D01*
X0111480Y0104381D01*
X0111497Y0104448D01*
X0111518Y0104514D01*
X0111542Y0104578D01*
X0111570Y0104641D01*
X0111601Y0104703D01*
X0111635Y0104763D01*
X0111673Y0104820D01*
X0111714Y0104876D01*
X0111757Y0104929D01*
X0111804Y0104980D01*
X0111853Y0105028D01*
X0111905Y0105073D01*
X0111960Y0105115D01*
X0112016Y0105154D01*
X0112075Y0105191D01*
X0112136Y0105223D01*
X0112198Y0105253D01*
X0112262Y0105279D01*
X0112327Y0105301D01*
X0112393Y0105320D01*
X0112460Y0105335D01*
X0112528Y0105346D01*
X0112597Y0105354D01*
X0112666Y0105358D01*
X0112734Y0105358D01*
X0112803Y0105354D01*
X0112872Y0105346D01*
X0112940Y0105335D01*
X0113007Y0105320D01*
X0113073Y0105301D01*
X0113138Y0105279D01*
X0113202Y0105253D01*
X0113264Y0105223D01*
X0113325Y0105191D01*
X0113384Y0105154D01*
X0113440Y0105115D01*
X0113495Y0105073D01*
X0113547Y0105028D01*
X0113596Y0104980D01*
X0113643Y0104929D01*
X0113686Y0104876D01*
X0113727Y0104820D01*
X0113765Y0104763D01*
X0113799Y0104703D01*
X0113830Y0104641D01*
X0113858Y0104578D01*
X0113882Y0104514D01*
X0113903Y0104448D01*
X0113920Y0104381D01*
X0113933Y0104314D01*
X0113942Y0104246D01*
X0113948Y0104177D01*
X0113950Y0104108D01*
X0113950Y0102858D01*
X0113950Y0104358D02*
X0115950Y0105358D01*
X0115950Y0107550D02*
X0111450Y0107550D01*
X0111450Y0108800D01*
X0111452Y0108869D01*
X0111458Y0108938D01*
X0111467Y0109006D01*
X0111480Y0109073D01*
X0111497Y0109140D01*
X0111518Y0109206D01*
X0111542Y0109270D01*
X0111570Y0109333D01*
X0111601Y0109395D01*
X0111635Y0109455D01*
X0111673Y0109512D01*
X0111714Y0109568D01*
X0111757Y0109621D01*
X0111804Y0109672D01*
X0111853Y0109720D01*
X0111905Y0109765D01*
X0111960Y0109807D01*
X0112016Y0109846D01*
X0112075Y0109883D01*
X0112136Y0109915D01*
X0112198Y0109945D01*
X0112262Y0109971D01*
X0112327Y0109993D01*
X0112393Y0110012D01*
X0112460Y0110027D01*
X0112528Y0110038D01*
X0112597Y0110046D01*
X0112666Y0110050D01*
X0112734Y0110050D01*
X0112803Y0110046D01*
X0112872Y0110038D01*
X0112940Y0110027D01*
X0113007Y0110012D01*
X0113073Y0109993D01*
X0113138Y0109971D01*
X0113202Y0109945D01*
X0113264Y0109915D01*
X0113325Y0109883D01*
X0113384Y0109846D01*
X0113440Y0109807D01*
X0113495Y0109765D01*
X0113547Y0109720D01*
X0113596Y0109672D01*
X0113643Y0109621D01*
X0113686Y0109568D01*
X0113727Y0109512D01*
X0113765Y0109455D01*
X0113799Y0109395D01*
X0113830Y0109333D01*
X0113858Y0109270D01*
X0113882Y0109206D01*
X0113903Y0109140D01*
X0113920Y0109073D01*
X0113933Y0109006D01*
X0113942Y0108938D01*
X0113948Y0108869D01*
X0113950Y0108800D01*
X0113950Y0107550D01*
X0114700Y0111975D02*
X0111450Y0111975D01*
X0111450Y0114475D02*
X0114700Y0114475D01*
X0114769Y0114473D01*
X0114838Y0114467D01*
X0114906Y0114458D01*
X0114973Y0114445D01*
X0115040Y0114428D01*
X0115106Y0114407D01*
X0115170Y0114383D01*
X0115233Y0114355D01*
X0115295Y0114324D01*
X0115355Y0114290D01*
X0115412Y0114252D01*
X0115468Y0114211D01*
X0115521Y0114168D01*
X0115572Y0114121D01*
X0115620Y0114072D01*
X0115665Y0114020D01*
X0115707Y0113965D01*
X0115746Y0113909D01*
X0115783Y0113850D01*
X0115815Y0113789D01*
X0115845Y0113727D01*
X0115871Y0113663D01*
X0115893Y0113598D01*
X0115912Y0113532D01*
X0115927Y0113465D01*
X0115938Y0113397D01*
X0115946Y0113328D01*
X0115950Y0113259D01*
X0115950Y0113191D01*
X0115946Y0113122D01*
X0115938Y0113053D01*
X0115927Y0112985D01*
X0115912Y0112918D01*
X0115893Y0112852D01*
X0115871Y0112787D01*
X0115845Y0112723D01*
X0115815Y0112661D01*
X0115783Y0112600D01*
X0115746Y0112541D01*
X0115707Y0112485D01*
X0115665Y0112430D01*
X0115620Y0112378D01*
X0115572Y0112329D01*
X0115521Y0112282D01*
X0115468Y0112239D01*
X0115412Y0112198D01*
X0115355Y0112160D01*
X0115295Y0112126D01*
X0115233Y0112095D01*
X0115170Y0112067D01*
X0115106Y0112043D01*
X0115040Y0112022D01*
X0114973Y0112005D01*
X0114906Y0111992D01*
X0114838Y0111983D01*
X0114769Y0111977D01*
X0114700Y0111975D01*
X0115950Y0116825D02*
X0111450Y0116825D01*
X0113950Y0118325D01*
X0111450Y0119825D01*
X0115950Y0119825D01*
X0115950Y0122250D02*
X0111450Y0122250D01*
X0111450Y0123500D01*
X0111452Y0123569D01*
X0111458Y0123638D01*
X0111467Y0123706D01*
X0111480Y0123773D01*
X0111497Y0123840D01*
X0111518Y0123906D01*
X0111542Y0123970D01*
X0111570Y0124033D01*
X0111601Y0124095D01*
X0111635Y0124155D01*
X0111673Y0124212D01*
X0111714Y0124268D01*
X0111757Y0124321D01*
X0111804Y0124372D01*
X0111853Y0124420D01*
X0111905Y0124465D01*
X0111960Y0124507D01*
X0112016Y0124546D01*
X0112075Y0124583D01*
X0112136Y0124615D01*
X0112198Y0124645D01*
X0112262Y0124671D01*
X0112327Y0124693D01*
X0112393Y0124712D01*
X0112460Y0124727D01*
X0112528Y0124738D01*
X0112597Y0124746D01*
X0112666Y0124750D01*
X0112734Y0124750D01*
X0112803Y0124746D01*
X0112872Y0124738D01*
X0112940Y0124727D01*
X0113007Y0124712D01*
X0113073Y0124693D01*
X0113138Y0124671D01*
X0113202Y0124645D01*
X0113264Y0124615D01*
X0113325Y0124583D01*
X0113384Y0124546D01*
X0113440Y0124507D01*
X0113495Y0124465D01*
X0113547Y0124420D01*
X0113596Y0124372D01*
X0113643Y0124321D01*
X0113686Y0124268D01*
X0113727Y0124212D01*
X0113765Y0124155D01*
X0113799Y0124095D01*
X0113830Y0124033D01*
X0113858Y0123970D01*
X0113882Y0123906D01*
X0113903Y0123840D01*
X0113920Y0123773D01*
X0113933Y0123706D01*
X0113942Y0123638D01*
X0113948Y0123569D01*
X0113950Y0123500D01*
X0113950Y0122250D01*
X0099222Y0127778D02*
X0094722Y0127778D01*
X0094722Y0129028D01*
X0094724Y0129097D01*
X0094730Y0129166D01*
X0094739Y0129234D01*
X0094752Y0129301D01*
X0094769Y0129368D01*
X0094790Y0129434D01*
X0094814Y0129498D01*
X0094842Y0129561D01*
X0094873Y0129623D01*
X0094907Y0129683D01*
X0094945Y0129740D01*
X0094986Y0129796D01*
X0095029Y0129849D01*
X0095076Y0129900D01*
X0095125Y0129948D01*
X0095177Y0129993D01*
X0095232Y0130035D01*
X0095288Y0130074D01*
X0095347Y0130111D01*
X0095408Y0130143D01*
X0095470Y0130173D01*
X0095534Y0130199D01*
X0095599Y0130221D01*
X0095665Y0130240D01*
X0095732Y0130255D01*
X0095800Y0130266D01*
X0095869Y0130274D01*
X0095938Y0130278D01*
X0096006Y0130278D01*
X0096075Y0130274D01*
X0096144Y0130266D01*
X0096212Y0130255D01*
X0096279Y0130240D01*
X0096345Y0130221D01*
X0096410Y0130199D01*
X0096474Y0130173D01*
X0096536Y0130143D01*
X0096597Y0130111D01*
X0096656Y0130074D01*
X0096712Y0130035D01*
X0096767Y0129993D01*
X0096819Y0129948D01*
X0096868Y0129900D01*
X0096915Y0129849D01*
X0096958Y0129796D01*
X0096999Y0129740D01*
X0097037Y0129683D01*
X0097071Y0129623D01*
X0097102Y0129561D01*
X0097130Y0129498D01*
X0097154Y0129434D01*
X0097175Y0129368D01*
X0097192Y0129301D01*
X0097205Y0129234D01*
X0097214Y0129166D01*
X0097220Y0129097D01*
X0097222Y0129028D01*
X0097222Y0127778D01*
X0097222Y0129278D02*
X0099222Y0130278D01*
X0099222Y0132245D02*
X0099222Y0133495D01*
X0099220Y0133564D01*
X0099214Y0133633D01*
X0099205Y0133701D01*
X0099192Y0133768D01*
X0099175Y0133835D01*
X0099154Y0133901D01*
X0099130Y0133965D01*
X0099102Y0134028D01*
X0099071Y0134090D01*
X0099037Y0134150D01*
X0098999Y0134207D01*
X0098958Y0134263D01*
X0098915Y0134316D01*
X0098868Y0134367D01*
X0098819Y0134415D01*
X0098767Y0134460D01*
X0098712Y0134502D01*
X0098656Y0134541D01*
X0098597Y0134578D01*
X0098536Y0134610D01*
X0098474Y0134640D01*
X0098410Y0134666D01*
X0098345Y0134688D01*
X0098279Y0134707D01*
X0098212Y0134722D01*
X0098144Y0134733D01*
X0098075Y0134741D01*
X0098006Y0134745D01*
X0097938Y0134745D01*
X0097869Y0134741D01*
X0097800Y0134733D01*
X0097732Y0134722D01*
X0097665Y0134707D01*
X0097599Y0134688D01*
X0097534Y0134666D01*
X0097470Y0134640D01*
X0097408Y0134610D01*
X0097347Y0134578D01*
X0097288Y0134541D01*
X0097232Y0134502D01*
X0097177Y0134460D01*
X0097125Y0134415D01*
X0097076Y0134367D01*
X0097029Y0134316D01*
X0096986Y0134263D01*
X0096945Y0134207D01*
X0096907Y0134150D01*
X0096873Y0134090D01*
X0096842Y0134028D01*
X0096814Y0133965D01*
X0096790Y0133901D01*
X0096769Y0133835D01*
X0096752Y0133768D01*
X0096739Y0133701D01*
X0096730Y0133633D01*
X0096724Y0133564D01*
X0096722Y0133495D01*
X0096722Y0133745D02*
X0096722Y0132745D01*
X0096722Y0133745D02*
X0096720Y0133807D01*
X0096714Y0133868D01*
X0096705Y0133929D01*
X0096692Y0133989D01*
X0096675Y0134048D01*
X0096654Y0134106D01*
X0096630Y0134163D01*
X0096603Y0134218D01*
X0096572Y0134271D01*
X0096538Y0134323D01*
X0096501Y0134372D01*
X0096461Y0134419D01*
X0096418Y0134463D01*
X0096373Y0134504D01*
X0096325Y0134543D01*
X0096274Y0134579D01*
X0096222Y0134611D01*
X0096168Y0134640D01*
X0096112Y0134666D01*
X0096054Y0134688D01*
X0095996Y0134707D01*
X0095936Y0134722D01*
X0095875Y0134733D01*
X0095814Y0134741D01*
X0095753Y0134745D01*
X0095691Y0134745D01*
X0095630Y0134741D01*
X0095569Y0134733D01*
X0095508Y0134722D01*
X0095448Y0134707D01*
X0095390Y0134688D01*
X0095332Y0134666D01*
X0095276Y0134640D01*
X0095222Y0134611D01*
X0095170Y0134579D01*
X0095119Y0134543D01*
X0095071Y0134504D01*
X0095026Y0134463D01*
X0094983Y0134419D01*
X0094943Y0134372D01*
X0094906Y0134323D01*
X0094872Y0134271D01*
X0094841Y0134218D01*
X0094814Y0134163D01*
X0094790Y0134106D01*
X0094769Y0134048D01*
X0094752Y0133989D01*
X0094739Y0133929D01*
X0094730Y0133868D01*
X0094724Y0133807D01*
X0094722Y0133745D01*
X0094722Y0132245D01*
X0099722Y0136545D02*
X0099722Y0138545D01*
X0099222Y0140345D02*
X0099222Y0142845D01*
X0099222Y0141595D02*
X0094722Y0141595D01*
X0095722Y0140345D01*
X0096972Y0147345D02*
X0097092Y0147343D01*
X0097212Y0147337D01*
X0097332Y0147327D01*
X0097451Y0147314D01*
X0097570Y0147296D01*
X0097688Y0147275D01*
X0097806Y0147250D01*
X0097922Y0147221D01*
X0098038Y0147188D01*
X0098152Y0147152D01*
X0098266Y0147112D01*
X0098378Y0147068D01*
X0098488Y0147021D01*
X0098597Y0146970D01*
X0098653Y0146949D01*
X0098708Y0146923D01*
X0098762Y0146895D01*
X0098813Y0146863D01*
X0098862Y0146828D01*
X0098908Y0146789D01*
X0098952Y0146748D01*
X0098994Y0146704D01*
X0099032Y0146657D01*
X0099067Y0146608D01*
X0099099Y0146556D01*
X0099127Y0146503D01*
X0099152Y0146448D01*
X0099173Y0146392D01*
X0099191Y0146334D01*
X0099204Y0146275D01*
X0099214Y0146215D01*
X0099220Y0146155D01*
X0099222Y0146095D01*
X0099220Y0146035D01*
X0099214Y0145975D01*
X0099204Y0145915D01*
X0099191Y0145856D01*
X0099173Y0145798D01*
X0099152Y0145742D01*
X0099127Y0145687D01*
X0099099Y0145634D01*
X0099067Y0145582D01*
X0099032Y0145533D01*
X0098994Y0145486D01*
X0098952Y0145442D01*
X0098908Y0145401D01*
X0098862Y0145362D01*
X0098813Y0145327D01*
X0098762Y0145295D01*
X0098708Y0145267D01*
X0098653Y0145241D01*
X0098597Y0145220D01*
X0098222Y0145095D02*
X0095722Y0147095D01*
X0095347Y0146970D02*
X0095291Y0146949D01*
X0095236Y0146923D01*
X0095182Y0146895D01*
X0095131Y0146863D01*
X0095082Y0146828D01*
X0095036Y0146789D01*
X0094992Y0146748D01*
X0094950Y0146704D01*
X0094912Y0146657D01*
X0094877Y0146608D01*
X0094845Y0146556D01*
X0094817Y0146503D01*
X0094792Y0146448D01*
X0094771Y0146392D01*
X0094753Y0146334D01*
X0094740Y0146275D01*
X0094730Y0146215D01*
X0094724Y0146155D01*
X0094722Y0146095D01*
X0094724Y0146035D01*
X0094730Y0145975D01*
X0094740Y0145915D01*
X0094753Y0145856D01*
X0094771Y0145798D01*
X0094792Y0145742D01*
X0094817Y0145687D01*
X0094845Y0145634D01*
X0094877Y0145582D01*
X0094912Y0145533D01*
X0094950Y0145486D01*
X0094992Y0145442D01*
X0095036Y0145401D01*
X0095082Y0145362D01*
X0095131Y0145327D01*
X0095182Y0145295D01*
X0095236Y0145267D01*
X0095291Y0145241D01*
X0095347Y0145220D01*
X0095347Y0146970D02*
X0095456Y0147021D01*
X0095566Y0147068D01*
X0095678Y0147112D01*
X0095792Y0147152D01*
X0095906Y0147188D01*
X0096022Y0147221D01*
X0096138Y0147250D01*
X0096256Y0147275D01*
X0096374Y0147296D01*
X0096493Y0147314D01*
X0096612Y0147327D01*
X0096732Y0147337D01*
X0096852Y0147343D01*
X0096972Y0147345D01*
X0096972Y0144845D02*
X0097092Y0144847D01*
X0097212Y0144853D01*
X0097332Y0144863D01*
X0097451Y0144876D01*
X0097570Y0144894D01*
X0097688Y0144915D01*
X0097806Y0144940D01*
X0097922Y0144969D01*
X0098038Y0145002D01*
X0098152Y0145038D01*
X0098266Y0145078D01*
X0098378Y0145122D01*
X0098488Y0145169D01*
X0098597Y0145220D01*
X0096972Y0144845D02*
X0096852Y0144847D01*
X0096732Y0144853D01*
X0096612Y0144863D01*
X0096493Y0144876D01*
X0096374Y0144894D01*
X0096256Y0144915D01*
X0096138Y0144940D01*
X0096022Y0144969D01*
X0095906Y0145002D01*
X0095792Y0145038D01*
X0095678Y0145078D01*
X0095566Y0145122D01*
X0095456Y0145169D01*
X0095347Y0145220D01*
X0094722Y0149570D02*
X0099222Y0149570D01*
X0097472Y0149570D02*
X0094722Y0152070D01*
X0096472Y0150570D02*
X0099222Y0152070D01*
X0099222Y0153895D02*
X0099222Y0154645D01*
X0097972Y0154645D01*
X0097936Y0154582D01*
X0097897Y0154520D01*
X0097855Y0154461D01*
X0097810Y0154404D01*
X0097761Y0154349D01*
X0097710Y0154297D01*
X0097657Y0154247D01*
X0097601Y0154201D01*
X0097543Y0154157D01*
X0097482Y0154116D01*
X0097420Y0154079D01*
X0097355Y0154044D01*
X0097289Y0154013D01*
X0097222Y0153986D01*
X0097153Y0153962D01*
X0097083Y0153942D01*
X0097012Y0153925D01*
X0096940Y0153912D01*
X0096868Y0153903D01*
X0096795Y0153897D01*
X0096722Y0153895D01*
X0096222Y0153895D01*
X0094722Y0155395D02*
X0094724Y0155471D01*
X0094730Y0155547D01*
X0094739Y0155622D01*
X0094753Y0155697D01*
X0094770Y0155771D01*
X0094791Y0155844D01*
X0094815Y0155916D01*
X0094844Y0155987D01*
X0094875Y0156056D01*
X0094910Y0156123D01*
X0094949Y0156188D01*
X0094991Y0156252D01*
X0095036Y0156313D01*
X0095084Y0156372D01*
X0095135Y0156428D01*
X0095189Y0156482D01*
X0095245Y0156533D01*
X0095304Y0156581D01*
X0095365Y0156626D01*
X0095429Y0156668D01*
X0095494Y0156707D01*
X0095561Y0156742D01*
X0095630Y0156773D01*
X0095701Y0156802D01*
X0095773Y0156826D01*
X0095846Y0156847D01*
X0095920Y0156864D01*
X0095995Y0156878D01*
X0096070Y0156887D01*
X0096146Y0156893D01*
X0096222Y0156895D01*
X0096722Y0156895D01*
X0096795Y0156893D01*
X0096868Y0156887D01*
X0096940Y0156878D01*
X0097012Y0156865D01*
X0097083Y0156848D01*
X0097153Y0156828D01*
X0097222Y0156804D01*
X0097289Y0156777D01*
X0097355Y0156746D01*
X0097420Y0156711D01*
X0097482Y0156674D01*
X0097543Y0156633D01*
X0097601Y0156589D01*
X0097657Y0156543D01*
X0097710Y0156493D01*
X0097761Y0156441D01*
X0097810Y0156386D01*
X0097855Y0156329D01*
X0097897Y0156270D01*
X0097936Y0156208D01*
X0097972Y0156145D01*
X0099222Y0156145D01*
X0099222Y0156895D01*
X0096222Y0153895D02*
X0096146Y0153897D01*
X0096070Y0153903D01*
X0095995Y0153912D01*
X0095920Y0153926D01*
X0095846Y0153943D01*
X0095773Y0153964D01*
X0095701Y0153988D01*
X0095630Y0154017D01*
X0095561Y0154048D01*
X0095494Y0154083D01*
X0095429Y0154122D01*
X0095365Y0154164D01*
X0095304Y0154209D01*
X0095245Y0154257D01*
X0095189Y0154308D01*
X0095135Y0154362D01*
X0095084Y0154418D01*
X0095036Y0154477D01*
X0094991Y0154538D01*
X0094949Y0154602D01*
X0094910Y0154667D01*
X0094875Y0154734D01*
X0094844Y0154803D01*
X0094815Y0154874D01*
X0094791Y0154946D01*
X0094770Y0155019D01*
X0094753Y0155093D01*
X0094739Y0155168D01*
X0094730Y0155243D01*
X0094724Y0155319D01*
X0094722Y0155395D01*
X0134722Y0149570D02*
X0139222Y0149570D01*
X0139222Y0152070D02*
X0136472Y0150570D01*
X0115950Y0102858D02*
X0111450Y0102858D01*
X0115950Y0086235D02*
X0115950Y0084235D01*
X0111450Y0084235D01*
X0113450Y0084235D02*
X0113450Y0085735D01*
X0113450Y0082335D02*
X0113450Y0080335D01*
X0076450Y0080875D02*
X0076450Y0082875D01*
X0075950Y0085525D02*
X0072950Y0086525D01*
X0075950Y0087525D01*
X0071450Y0088525D01*
X0071450Y0091625D02*
X0075950Y0093125D01*
X0074825Y0092750D02*
X0074825Y0090500D01*
X0075950Y0090125D02*
X0071450Y0091625D01*
X0071450Y0094575D02*
X0071450Y0097075D01*
X0071450Y0095825D02*
X0075950Y0095825D01*
X0075950Y0098935D02*
X0071450Y0098935D01*
X0071450Y0100935D01*
X0071450Y0102858D02*
X0071450Y0104108D01*
X0071452Y0104177D01*
X0071458Y0104246D01*
X0071467Y0104314D01*
X0071480Y0104381D01*
X0071497Y0104448D01*
X0071518Y0104514D01*
X0071542Y0104578D01*
X0071570Y0104641D01*
X0071601Y0104703D01*
X0071635Y0104763D01*
X0071673Y0104820D01*
X0071714Y0104876D01*
X0071757Y0104929D01*
X0071804Y0104980D01*
X0071853Y0105028D01*
X0071905Y0105073D01*
X0071960Y0105115D01*
X0072016Y0105154D01*
X0072075Y0105191D01*
X0072136Y0105223D01*
X0072198Y0105253D01*
X0072262Y0105279D01*
X0072327Y0105301D01*
X0072393Y0105320D01*
X0072460Y0105335D01*
X0072528Y0105346D01*
X0072597Y0105354D01*
X0072666Y0105358D01*
X0072734Y0105358D01*
X0072803Y0105354D01*
X0072872Y0105346D01*
X0072940Y0105335D01*
X0073007Y0105320D01*
X0073073Y0105301D01*
X0073138Y0105279D01*
X0073202Y0105253D01*
X0073264Y0105223D01*
X0073325Y0105191D01*
X0073384Y0105154D01*
X0073440Y0105115D01*
X0073495Y0105073D01*
X0073547Y0105028D01*
X0073596Y0104980D01*
X0073643Y0104929D01*
X0073686Y0104876D01*
X0073727Y0104820D01*
X0073765Y0104763D01*
X0073799Y0104703D01*
X0073830Y0104641D01*
X0073858Y0104578D01*
X0073882Y0104514D01*
X0073903Y0104448D01*
X0073920Y0104381D01*
X0073933Y0104314D01*
X0073942Y0104246D01*
X0073948Y0104177D01*
X0073950Y0104108D01*
X0073950Y0102858D01*
X0073950Y0104358D02*
X0075950Y0105358D01*
X0075950Y0107550D02*
X0071450Y0107550D01*
X0071450Y0108800D01*
X0071452Y0108869D01*
X0071458Y0108938D01*
X0071467Y0109006D01*
X0071480Y0109073D01*
X0071497Y0109140D01*
X0071518Y0109206D01*
X0071542Y0109270D01*
X0071570Y0109333D01*
X0071601Y0109395D01*
X0071635Y0109455D01*
X0071673Y0109512D01*
X0071714Y0109568D01*
X0071757Y0109621D01*
X0071804Y0109672D01*
X0071853Y0109720D01*
X0071905Y0109765D01*
X0071960Y0109807D01*
X0072016Y0109846D01*
X0072075Y0109883D01*
X0072136Y0109915D01*
X0072198Y0109945D01*
X0072262Y0109971D01*
X0072327Y0109993D01*
X0072393Y0110012D01*
X0072460Y0110027D01*
X0072528Y0110038D01*
X0072597Y0110046D01*
X0072666Y0110050D01*
X0072734Y0110050D01*
X0072803Y0110046D01*
X0072872Y0110038D01*
X0072940Y0110027D01*
X0073007Y0110012D01*
X0073073Y0109993D01*
X0073138Y0109971D01*
X0073202Y0109945D01*
X0073264Y0109915D01*
X0073325Y0109883D01*
X0073384Y0109846D01*
X0073440Y0109807D01*
X0073495Y0109765D01*
X0073547Y0109720D01*
X0073596Y0109672D01*
X0073643Y0109621D01*
X0073686Y0109568D01*
X0073727Y0109512D01*
X0073765Y0109455D01*
X0073799Y0109395D01*
X0073830Y0109333D01*
X0073858Y0109270D01*
X0073882Y0109206D01*
X0073903Y0109140D01*
X0073920Y0109073D01*
X0073933Y0109006D01*
X0073942Y0108938D01*
X0073948Y0108869D01*
X0073950Y0108800D01*
X0073950Y0107550D01*
X0074700Y0111975D02*
X0071450Y0111975D01*
X0071450Y0114475D02*
X0074700Y0114475D01*
X0074769Y0114473D01*
X0074838Y0114467D01*
X0074906Y0114458D01*
X0074973Y0114445D01*
X0075040Y0114428D01*
X0075106Y0114407D01*
X0075170Y0114383D01*
X0075233Y0114355D01*
X0075295Y0114324D01*
X0075355Y0114290D01*
X0075412Y0114252D01*
X0075468Y0114211D01*
X0075521Y0114168D01*
X0075572Y0114121D01*
X0075620Y0114072D01*
X0075665Y0114020D01*
X0075707Y0113965D01*
X0075746Y0113909D01*
X0075783Y0113850D01*
X0075815Y0113789D01*
X0075845Y0113727D01*
X0075871Y0113663D01*
X0075893Y0113598D01*
X0075912Y0113532D01*
X0075927Y0113465D01*
X0075938Y0113397D01*
X0075946Y0113328D01*
X0075950Y0113259D01*
X0075950Y0113191D01*
X0075946Y0113122D01*
X0075938Y0113053D01*
X0075927Y0112985D01*
X0075912Y0112918D01*
X0075893Y0112852D01*
X0075871Y0112787D01*
X0075845Y0112723D01*
X0075815Y0112661D01*
X0075783Y0112600D01*
X0075746Y0112541D01*
X0075707Y0112485D01*
X0075665Y0112430D01*
X0075620Y0112378D01*
X0075572Y0112329D01*
X0075521Y0112282D01*
X0075468Y0112239D01*
X0075412Y0112198D01*
X0075355Y0112160D01*
X0075295Y0112126D01*
X0075233Y0112095D01*
X0075170Y0112067D01*
X0075106Y0112043D01*
X0075040Y0112022D01*
X0074973Y0112005D01*
X0074906Y0111992D01*
X0074838Y0111983D01*
X0074769Y0111977D01*
X0074700Y0111975D01*
X0075950Y0116825D02*
X0071450Y0116825D01*
X0073950Y0118325D01*
X0071450Y0119825D01*
X0075950Y0119825D01*
X0075950Y0122250D02*
X0071450Y0122250D01*
X0071450Y0123500D01*
X0071452Y0123569D01*
X0071458Y0123638D01*
X0071467Y0123706D01*
X0071480Y0123773D01*
X0071497Y0123840D01*
X0071518Y0123906D01*
X0071542Y0123970D01*
X0071570Y0124033D01*
X0071601Y0124095D01*
X0071635Y0124155D01*
X0071673Y0124212D01*
X0071714Y0124268D01*
X0071757Y0124321D01*
X0071804Y0124372D01*
X0071853Y0124420D01*
X0071905Y0124465D01*
X0071960Y0124507D01*
X0072016Y0124546D01*
X0072075Y0124583D01*
X0072136Y0124615D01*
X0072198Y0124645D01*
X0072262Y0124671D01*
X0072327Y0124693D01*
X0072393Y0124712D01*
X0072460Y0124727D01*
X0072528Y0124738D01*
X0072597Y0124746D01*
X0072666Y0124750D01*
X0072734Y0124750D01*
X0072803Y0124746D01*
X0072872Y0124738D01*
X0072940Y0124727D01*
X0073007Y0124712D01*
X0073073Y0124693D01*
X0073138Y0124671D01*
X0073202Y0124645D01*
X0073264Y0124615D01*
X0073325Y0124583D01*
X0073384Y0124546D01*
X0073440Y0124507D01*
X0073495Y0124465D01*
X0073547Y0124420D01*
X0073596Y0124372D01*
X0073643Y0124321D01*
X0073686Y0124268D01*
X0073727Y0124212D01*
X0073765Y0124155D01*
X0073799Y0124095D01*
X0073830Y0124033D01*
X0073858Y0123970D01*
X0073882Y0123906D01*
X0073903Y0123840D01*
X0073920Y0123773D01*
X0073933Y0123706D01*
X0073942Y0123638D01*
X0073948Y0123569D01*
X0073950Y0123500D01*
X0073950Y0122250D01*
X0075950Y0102858D02*
X0071450Y0102858D01*
X0073450Y0100435D02*
X0073450Y0098935D01*
X0075950Y0098935D02*
X0075950Y0100935D01*
X0075950Y0085525D02*
X0071450Y0084525D01*
X0071450Y0079375D02*
X0071450Y0076875D01*
X0071450Y0078125D02*
X0075950Y0078125D01*
X0075950Y0075435D02*
X0075950Y0073435D01*
X0071450Y0073435D01*
X0071450Y0075435D01*
X0073450Y0074935D02*
X0073450Y0073435D01*
X0073450Y0071535D02*
X0073450Y0069535D01*
X0071450Y0069535D02*
X0071450Y0071535D01*
X0071450Y0069535D02*
X0075950Y0069535D01*
X0053063Y0085000D02*
X0053063Y0045000D01*
X0017630Y0045000D01*
X0017630Y0085000D01*
X0053063Y0085000D01*
X0044325Y0157475D02*
X0045075Y0158850D01*
X0046950Y0158350D02*
X0046948Y0158262D01*
X0046943Y0158175D01*
X0046934Y0158087D01*
X0046921Y0158000D01*
X0046905Y0157914D01*
X0046885Y0157829D01*
X0046861Y0157744D01*
X0046834Y0157660D01*
X0046804Y0157578D01*
X0046770Y0157497D01*
X0046733Y0157417D01*
X0046693Y0157339D01*
X0046649Y0157263D01*
X0046602Y0157189D01*
X0046553Y0157117D01*
X0046500Y0157046D01*
X0046444Y0156978D01*
X0046386Y0156913D01*
X0046325Y0156850D01*
X0045075Y0158850D02*
X0045108Y0158902D01*
X0045144Y0158953D01*
X0045183Y0159001D01*
X0045225Y0159046D01*
X0045270Y0159089D01*
X0045318Y0159129D01*
X0045367Y0159166D01*
X0045419Y0159200D01*
X0045473Y0159231D01*
X0045529Y0159259D01*
X0045586Y0159283D01*
X0045645Y0159303D01*
X0045704Y0159320D01*
X0045765Y0159333D01*
X0045826Y0159342D01*
X0045888Y0159348D01*
X0045950Y0159350D01*
X0046010Y0159348D01*
X0046071Y0159343D01*
X0046130Y0159334D01*
X0046189Y0159321D01*
X0046248Y0159305D01*
X0046305Y0159285D01*
X0046360Y0159262D01*
X0046415Y0159235D01*
X0046467Y0159206D01*
X0046518Y0159173D01*
X0046567Y0159137D01*
X0046613Y0159099D01*
X0046657Y0159057D01*
X0046699Y0159013D01*
X0046737Y0158967D01*
X0046773Y0158918D01*
X0046806Y0158867D01*
X0046835Y0158815D01*
X0046862Y0158760D01*
X0046885Y0158705D01*
X0046905Y0158648D01*
X0046921Y0158589D01*
X0046934Y0158530D01*
X0046943Y0158471D01*
X0046948Y0158410D01*
X0046950Y0158350D01*
X0042825Y0159100D02*
X0042778Y0159035D01*
X0042734Y0158967D01*
X0042693Y0158898D01*
X0042655Y0158827D01*
X0042620Y0158755D01*
X0042588Y0158681D01*
X0042559Y0158606D01*
X0042534Y0158530D01*
X0042512Y0158452D01*
X0042493Y0158374D01*
X0042478Y0158295D01*
X0042466Y0158216D01*
X0042457Y0158136D01*
X0042452Y0158055D01*
X0042450Y0157975D01*
X0042452Y0157915D01*
X0042457Y0157854D01*
X0042466Y0157795D01*
X0042479Y0157736D01*
X0042495Y0157677D01*
X0042515Y0157620D01*
X0042538Y0157565D01*
X0042565Y0157510D01*
X0042594Y0157458D01*
X0042627Y0157407D01*
X0042663Y0157358D01*
X0042701Y0157312D01*
X0042743Y0157268D01*
X0042787Y0157226D01*
X0042833Y0157188D01*
X0042882Y0157152D01*
X0042933Y0157119D01*
X0042985Y0157090D01*
X0043040Y0157063D01*
X0043095Y0157040D01*
X0043152Y0157020D01*
X0043211Y0157004D01*
X0043270Y0156991D01*
X0043329Y0156982D01*
X0043390Y0156977D01*
X0043450Y0156975D01*
X0043512Y0156977D01*
X0043574Y0156983D01*
X0043635Y0156992D01*
X0043696Y0157005D01*
X0043755Y0157022D01*
X0043814Y0157042D01*
X0043871Y0157066D01*
X0043927Y0157094D01*
X0043981Y0157125D01*
X0044033Y0157159D01*
X0044082Y0157196D01*
X0044130Y0157236D01*
X0044175Y0157279D01*
X0044217Y0157324D01*
X0044256Y0157372D01*
X0044292Y0157423D01*
X0044325Y0157475D01*
X0042450Y0161050D02*
X0046950Y0162050D01*
X0043950Y0163050D01*
X0046950Y0164050D01*
X0042450Y0165050D01*
X0214722Y0152070D02*
X0217472Y0149570D01*
X0218597Y0145220D02*
X0218488Y0145169D01*
X0218378Y0145122D01*
X0218266Y0145078D01*
X0218152Y0145038D01*
X0218038Y0145002D01*
X0217922Y0144969D01*
X0217806Y0144940D01*
X0217688Y0144915D01*
X0217570Y0144894D01*
X0217451Y0144876D01*
X0217332Y0144863D01*
X0217212Y0144853D01*
X0217092Y0144847D01*
X0216972Y0144845D01*
X0216972Y0147345D02*
X0217092Y0147343D01*
X0217212Y0147337D01*
X0217332Y0147327D01*
X0217451Y0147314D01*
X0217570Y0147296D01*
X0217688Y0147275D01*
X0217806Y0147250D01*
X0217922Y0147221D01*
X0218038Y0147188D01*
X0218152Y0147152D01*
X0218266Y0147112D01*
X0218378Y0147068D01*
X0218488Y0147021D01*
X0218597Y0146970D01*
X0218653Y0146949D01*
X0218708Y0146923D01*
X0218762Y0146895D01*
X0218813Y0146863D01*
X0218862Y0146828D01*
X0218908Y0146789D01*
X0218952Y0146748D01*
X0218994Y0146704D01*
X0219032Y0146657D01*
X0219067Y0146608D01*
X0219099Y0146556D01*
X0219127Y0146503D01*
X0219152Y0146448D01*
X0219173Y0146392D01*
X0219191Y0146334D01*
X0219204Y0146275D01*
X0219214Y0146215D01*
X0219220Y0146155D01*
X0219222Y0146095D01*
X0219220Y0146035D01*
X0219214Y0145975D01*
X0219204Y0145915D01*
X0219191Y0145856D01*
X0219173Y0145798D01*
X0219152Y0145742D01*
X0219127Y0145687D01*
X0219099Y0145634D01*
X0219067Y0145582D01*
X0219032Y0145533D01*
X0218994Y0145486D01*
X0218952Y0145442D01*
X0218908Y0145401D01*
X0218862Y0145362D01*
X0218813Y0145327D01*
X0218762Y0145295D01*
X0218708Y0145267D01*
X0218653Y0145241D01*
X0218597Y0145220D01*
X0218222Y0145095D02*
X0215722Y0147095D01*
X0215347Y0146970D02*
X0215291Y0146949D01*
X0215236Y0146923D01*
X0215182Y0146895D01*
X0215131Y0146863D01*
X0215082Y0146828D01*
X0215036Y0146789D01*
X0214992Y0146748D01*
X0214950Y0146704D01*
X0214912Y0146657D01*
X0214877Y0146608D01*
X0214845Y0146556D01*
X0214817Y0146503D01*
X0214792Y0146448D01*
X0214771Y0146392D01*
X0214753Y0146334D01*
X0214740Y0146275D01*
X0214730Y0146215D01*
X0214724Y0146155D01*
X0214722Y0146095D01*
X0214724Y0146035D01*
X0214730Y0145975D01*
X0214740Y0145915D01*
X0214753Y0145856D01*
X0214771Y0145798D01*
X0214792Y0145742D01*
X0214817Y0145687D01*
X0214845Y0145634D01*
X0214877Y0145582D01*
X0214912Y0145533D01*
X0214950Y0145486D01*
X0214992Y0145442D01*
X0215036Y0145401D01*
X0215082Y0145362D01*
X0215131Y0145327D01*
X0215182Y0145295D01*
X0215236Y0145267D01*
X0215291Y0145241D01*
X0215347Y0145220D01*
X0215347Y0146970D02*
X0215456Y0147021D01*
X0215566Y0147068D01*
X0215678Y0147112D01*
X0215792Y0147152D01*
X0215906Y0147188D01*
X0216022Y0147221D01*
X0216138Y0147250D01*
X0216256Y0147275D01*
X0216374Y0147296D01*
X0216493Y0147314D01*
X0216612Y0147327D01*
X0216732Y0147337D01*
X0216852Y0147343D01*
X0216972Y0147345D01*
X0216972Y0144845D02*
X0216852Y0144847D01*
X0216732Y0144853D01*
X0216612Y0144863D01*
X0216493Y0144876D01*
X0216374Y0144894D01*
X0216256Y0144915D01*
X0216138Y0144940D01*
X0216022Y0144969D01*
X0215906Y0145002D01*
X0215792Y0145038D01*
X0215678Y0145078D01*
X0215566Y0145122D01*
X0215456Y0145169D01*
X0215347Y0145220D01*
X0214722Y0141595D02*
X0219222Y0141595D01*
X0219222Y0140345D02*
X0219222Y0142845D01*
X0215722Y0140345D02*
X0214722Y0141595D01*
X0219722Y0138545D02*
X0219722Y0136545D01*
X0219222Y0134745D02*
X0219222Y0132245D01*
X0216722Y0134370D01*
X0214723Y0133620D02*
X0214725Y0133547D01*
X0214730Y0133475D01*
X0214739Y0133403D01*
X0214752Y0133331D01*
X0214768Y0133260D01*
X0214788Y0133190D01*
X0214812Y0133122D01*
X0214838Y0133054D01*
X0214869Y0132988D01*
X0214902Y0132923D01*
X0214939Y0132861D01*
X0214978Y0132800D01*
X0215021Y0132741D01*
X0215067Y0132684D01*
X0215115Y0132630D01*
X0215166Y0132579D01*
X0215220Y0132529D01*
X0215276Y0132483D01*
X0215334Y0132440D01*
X0215395Y0132399D01*
X0215457Y0132362D01*
X0215521Y0132328D01*
X0215587Y0132297D01*
X0215654Y0132269D01*
X0215723Y0132245D01*
X0216722Y0134370D02*
X0216676Y0134416D01*
X0216627Y0134460D01*
X0216576Y0134500D01*
X0216523Y0134538D01*
X0216468Y0134573D01*
X0216411Y0134605D01*
X0216353Y0134634D01*
X0216293Y0134660D01*
X0216231Y0134682D01*
X0216169Y0134701D01*
X0216106Y0134717D01*
X0216042Y0134729D01*
X0215977Y0134738D01*
X0215912Y0134743D01*
X0215847Y0134745D01*
X0215782Y0134743D01*
X0215716Y0134737D01*
X0215652Y0134728D01*
X0215588Y0134715D01*
X0215524Y0134698D01*
X0215462Y0134677D01*
X0215401Y0134653D01*
X0215342Y0134625D01*
X0215285Y0134594D01*
X0215229Y0134560D01*
X0215175Y0134522D01*
X0215124Y0134482D01*
X0215075Y0134438D01*
X0215029Y0134392D01*
X0214985Y0134343D01*
X0214945Y0134292D01*
X0214907Y0134238D01*
X0214873Y0134183D01*
X0214842Y0134125D01*
X0214814Y0134066D01*
X0214790Y0134005D01*
X0214769Y0133943D01*
X0214752Y0133879D01*
X0214739Y0133815D01*
X0214730Y0133751D01*
X0214724Y0133685D01*
X0214722Y0133620D01*
X0214722Y0129028D02*
X0214722Y0127778D01*
X0219222Y0127778D01*
X0217222Y0127778D02*
X0217222Y0129028D01*
X0217222Y0129278D02*
X0219222Y0130278D01*
X0217222Y0129028D02*
X0217220Y0129097D01*
X0217214Y0129166D01*
X0217205Y0129234D01*
X0217192Y0129301D01*
X0217175Y0129368D01*
X0217154Y0129434D01*
X0217130Y0129498D01*
X0217102Y0129561D01*
X0217071Y0129623D01*
X0217037Y0129683D01*
X0216999Y0129740D01*
X0216958Y0129796D01*
X0216915Y0129849D01*
X0216868Y0129900D01*
X0216819Y0129948D01*
X0216767Y0129993D01*
X0216712Y0130035D01*
X0216656Y0130074D01*
X0216597Y0130111D01*
X0216536Y0130143D01*
X0216474Y0130173D01*
X0216410Y0130199D01*
X0216345Y0130221D01*
X0216279Y0130240D01*
X0216212Y0130255D01*
X0216144Y0130266D01*
X0216075Y0130274D01*
X0216006Y0130278D01*
X0215938Y0130278D01*
X0215869Y0130274D01*
X0215800Y0130266D01*
X0215732Y0130255D01*
X0215665Y0130240D01*
X0215599Y0130221D01*
X0215534Y0130199D01*
X0215470Y0130173D01*
X0215408Y0130143D01*
X0215347Y0130111D01*
X0215288Y0130074D01*
X0215232Y0130035D01*
X0215177Y0129993D01*
X0215125Y0129948D01*
X0215076Y0129900D01*
X0215029Y0129849D01*
X0214986Y0129796D01*
X0214945Y0129740D01*
X0214907Y0129683D01*
X0214873Y0129623D01*
X0214842Y0129561D01*
X0214814Y0129498D01*
X0214790Y0129434D01*
X0214769Y0129368D01*
X0214752Y0129301D01*
X0214739Y0129234D01*
X0214730Y0129166D01*
X0214724Y0129097D01*
X0214722Y0129028D01*
X0214722Y0149570D02*
X0219222Y0149570D01*
X0219222Y0152070D02*
X0216472Y0150570D01*
X0216222Y0153895D02*
X0216722Y0153895D01*
X0216795Y0153897D01*
X0216868Y0153903D01*
X0216940Y0153912D01*
X0217012Y0153925D01*
X0217083Y0153942D01*
X0217153Y0153962D01*
X0217222Y0153986D01*
X0217289Y0154013D01*
X0217355Y0154044D01*
X0217420Y0154079D01*
X0217482Y0154116D01*
X0217543Y0154157D01*
X0217601Y0154201D01*
X0217657Y0154247D01*
X0217710Y0154297D01*
X0217761Y0154349D01*
X0217810Y0154404D01*
X0217855Y0154461D01*
X0217897Y0154520D01*
X0217936Y0154582D01*
X0217972Y0154645D01*
X0219222Y0154645D01*
X0219222Y0153895D01*
X0217972Y0156145D02*
X0217936Y0156208D01*
X0217897Y0156270D01*
X0217855Y0156329D01*
X0217810Y0156386D01*
X0217761Y0156441D01*
X0217710Y0156493D01*
X0217657Y0156543D01*
X0217601Y0156589D01*
X0217543Y0156633D01*
X0217482Y0156674D01*
X0217420Y0156711D01*
X0217355Y0156746D01*
X0217289Y0156777D01*
X0217222Y0156804D01*
X0217153Y0156828D01*
X0217083Y0156848D01*
X0217012Y0156865D01*
X0216940Y0156878D01*
X0216868Y0156887D01*
X0216795Y0156893D01*
X0216722Y0156895D01*
X0216222Y0156895D01*
X0216146Y0156893D01*
X0216070Y0156887D01*
X0215995Y0156878D01*
X0215920Y0156864D01*
X0215846Y0156847D01*
X0215773Y0156826D01*
X0215701Y0156802D01*
X0215630Y0156773D01*
X0215561Y0156742D01*
X0215494Y0156707D01*
X0215429Y0156668D01*
X0215365Y0156626D01*
X0215304Y0156581D01*
X0215245Y0156533D01*
X0215189Y0156482D01*
X0215135Y0156428D01*
X0215084Y0156372D01*
X0215036Y0156313D01*
X0214991Y0156252D01*
X0214949Y0156188D01*
X0214910Y0156123D01*
X0214875Y0156056D01*
X0214844Y0155987D01*
X0214815Y0155916D01*
X0214791Y0155844D01*
X0214770Y0155771D01*
X0214753Y0155697D01*
X0214739Y0155622D01*
X0214730Y0155547D01*
X0214724Y0155471D01*
X0214722Y0155395D01*
X0214724Y0155319D01*
X0214730Y0155243D01*
X0214739Y0155168D01*
X0214753Y0155093D01*
X0214770Y0155019D01*
X0214791Y0154946D01*
X0214815Y0154874D01*
X0214844Y0154803D01*
X0214875Y0154734D01*
X0214910Y0154667D01*
X0214949Y0154602D01*
X0214991Y0154538D01*
X0215036Y0154477D01*
X0215084Y0154418D01*
X0215135Y0154362D01*
X0215189Y0154308D01*
X0215245Y0154257D01*
X0215304Y0154209D01*
X0215365Y0154164D01*
X0215429Y0154122D01*
X0215494Y0154083D01*
X0215561Y0154048D01*
X0215630Y0154017D01*
X0215701Y0153988D01*
X0215773Y0153964D01*
X0215846Y0153943D01*
X0215920Y0153926D01*
X0215995Y0153912D01*
X0216070Y0153903D01*
X0216146Y0153897D01*
X0216222Y0153895D01*
X0217972Y0156145D02*
X0219222Y0156145D01*
X0219222Y0156895D01*
X0244850Y0057250D02*
X0245850Y0052750D01*
X0246850Y0055750D01*
X0247850Y0052750D01*
X0248850Y0057250D01*
X0250500Y0052250D02*
X0252500Y0052250D01*
X0254460Y0052750D02*
X0256460Y0052750D01*
X0258360Y0052750D02*
X0258360Y0057250D01*
X0260360Y0057250D01*
X0262250Y0057250D02*
X0263500Y0057250D01*
X0262250Y0057250D02*
X0262250Y0052750D01*
X0263500Y0052750D01*
X0263568Y0052752D01*
X0263635Y0052757D01*
X0263702Y0052766D01*
X0263769Y0052779D01*
X0263834Y0052796D01*
X0263899Y0052815D01*
X0263963Y0052839D01*
X0264025Y0052866D01*
X0264086Y0052896D01*
X0264144Y0052929D01*
X0264201Y0052965D01*
X0264256Y0053005D01*
X0264309Y0053047D01*
X0264360Y0053093D01*
X0264407Y0053140D01*
X0264453Y0053191D01*
X0264495Y0053244D01*
X0264535Y0053299D01*
X0264571Y0053356D01*
X0264604Y0053414D01*
X0264634Y0053475D01*
X0264661Y0053537D01*
X0264685Y0053601D01*
X0264704Y0053666D01*
X0264721Y0053731D01*
X0264734Y0053798D01*
X0264743Y0053865D01*
X0264748Y0053932D01*
X0264750Y0054000D01*
X0264750Y0056000D01*
X0264748Y0056068D01*
X0264743Y0056135D01*
X0264734Y0056202D01*
X0264721Y0056269D01*
X0264704Y0056334D01*
X0264685Y0056399D01*
X0264661Y0056463D01*
X0264634Y0056525D01*
X0264604Y0056586D01*
X0264571Y0056644D01*
X0264535Y0056701D01*
X0264495Y0056756D01*
X0264453Y0056809D01*
X0264407Y0056860D01*
X0264360Y0056907D01*
X0264309Y0056953D01*
X0264256Y0056995D01*
X0264201Y0057035D01*
X0264144Y0057071D01*
X0264086Y0057104D01*
X0264025Y0057134D01*
X0263963Y0057161D01*
X0263899Y0057185D01*
X0263834Y0057204D01*
X0263769Y0057221D01*
X0263702Y0057234D01*
X0263635Y0057243D01*
X0263568Y0057248D01*
X0263500Y0057250D01*
X0259860Y0055250D02*
X0258360Y0055250D01*
X0258360Y0052750D02*
X0260360Y0052750D01*
X0254460Y0052750D02*
X0254460Y0057250D01*
X0242650Y0054625D02*
X0241275Y0055375D01*
X0241775Y0057250D02*
X0241855Y0057248D01*
X0241936Y0057243D01*
X0242016Y0057234D01*
X0242095Y0057222D01*
X0242174Y0057207D01*
X0242252Y0057188D01*
X0242330Y0057166D01*
X0242406Y0057141D01*
X0242481Y0057112D01*
X0242555Y0057080D01*
X0242627Y0057045D01*
X0242698Y0057007D01*
X0242767Y0056966D01*
X0242835Y0056922D01*
X0242900Y0056875D01*
X0241275Y0055375D02*
X0241223Y0055408D01*
X0241172Y0055444D01*
X0241124Y0055483D01*
X0241079Y0055525D01*
X0241036Y0055570D01*
X0240996Y0055618D01*
X0240959Y0055667D01*
X0240925Y0055719D01*
X0240894Y0055773D01*
X0240866Y0055829D01*
X0240842Y0055886D01*
X0240822Y0055945D01*
X0240805Y0056004D01*
X0240792Y0056065D01*
X0240783Y0056126D01*
X0240777Y0056188D01*
X0240775Y0056250D01*
X0240777Y0056310D01*
X0240782Y0056371D01*
X0240791Y0056430D01*
X0240804Y0056489D01*
X0240820Y0056548D01*
X0240840Y0056605D01*
X0240863Y0056660D01*
X0240890Y0056715D01*
X0240919Y0056767D01*
X0240952Y0056818D01*
X0240988Y0056867D01*
X0241026Y0056913D01*
X0241068Y0056957D01*
X0241112Y0056999D01*
X0241158Y0057037D01*
X0241207Y0057073D01*
X0241258Y0057106D01*
X0241310Y0057135D01*
X0241365Y0057162D01*
X0241420Y0057185D01*
X0241477Y0057205D01*
X0241536Y0057221D01*
X0241595Y0057234D01*
X0241654Y0057243D01*
X0241715Y0057248D01*
X0241775Y0057250D01*
X0240650Y0053374D02*
X0240713Y0053313D01*
X0240778Y0053255D01*
X0240846Y0053199D01*
X0240917Y0053146D01*
X0240989Y0053097D01*
X0241063Y0053050D01*
X0241139Y0053006D01*
X0241217Y0052966D01*
X0241297Y0052929D01*
X0241378Y0052895D01*
X0241460Y0052865D01*
X0241544Y0052838D01*
X0241629Y0052814D01*
X0241714Y0052794D01*
X0241800Y0052778D01*
X0241887Y0052765D01*
X0241975Y0052756D01*
X0242062Y0052751D01*
X0242150Y0052749D01*
X0242150Y0052750D02*
X0242210Y0052752D01*
X0242271Y0052757D01*
X0242330Y0052766D01*
X0242389Y0052779D01*
X0242448Y0052795D01*
X0242505Y0052815D01*
X0242560Y0052838D01*
X0242615Y0052865D01*
X0242667Y0052894D01*
X0242718Y0052927D01*
X0242767Y0052963D01*
X0242813Y0053001D01*
X0242857Y0053043D01*
X0242899Y0053087D01*
X0242937Y0053133D01*
X0242973Y0053182D01*
X0243006Y0053233D01*
X0243035Y0053285D01*
X0243062Y0053340D01*
X0243085Y0053395D01*
X0243105Y0053452D01*
X0243121Y0053511D01*
X0243134Y0053570D01*
X0243143Y0053629D01*
X0243148Y0053690D01*
X0243150Y0053750D01*
X0243148Y0053812D01*
X0243142Y0053874D01*
X0243133Y0053935D01*
X0243120Y0053996D01*
X0243103Y0054055D01*
X0243083Y0054114D01*
X0243059Y0054171D01*
X0243031Y0054227D01*
X0243000Y0054281D01*
X0242966Y0054333D01*
X0242929Y0054382D01*
X0242889Y0054430D01*
X0242846Y0054475D01*
X0242801Y0054517D01*
X0242753Y0054556D01*
X0242702Y0054592D01*
X0242650Y0054625D01*
D13*
X0213500Y0105000D03*
X0173500Y0105000D03*
X0133500Y0105000D03*
X0093500Y0105000D03*
D14*
X0091000Y0087750D03*
X0131000Y0087750D03*
X0171000Y0087750D03*
X0211000Y0087750D03*
X0211000Y0122250D03*
X0171000Y0122250D03*
X0131000Y0122250D03*
X0091000Y0122250D03*
D15*
X0091000Y0110000D03*
X0091000Y0100000D03*
X0131000Y0100000D03*
X0131000Y0110000D03*
X0171000Y0110000D03*
X0171000Y0100000D03*
X0211000Y0100000D03*
X0211000Y0110000D03*
X0246500Y0105000D03*
X0246500Y0095000D03*
X0246500Y0085000D03*
X0246500Y0075000D03*
X0246500Y0065000D03*
D16*
X0225472Y0125328D03*
X0225472Y0153728D03*
X0185472Y0153728D03*
X0185472Y0125328D03*
X0145472Y0125328D03*
X0145472Y0153728D03*
X0105472Y0153728D03*
X0105472Y0125328D03*
D17*
X0222500Y0105000D02*
X0245000Y0105000D01*
X0245000Y0095000D02*
X0222500Y0095000D01*
X0222500Y0085000D02*
X0245000Y0085000D01*
X0245000Y0075000D02*
X0222500Y0075000D01*
X0222500Y0065000D02*
X0245000Y0065000D01*
D18*
X0259500Y0065000D03*
X0259500Y0075000D03*
X0259500Y0085000D03*
X0259500Y0095000D03*
X0259500Y0105000D03*
D19*
X0005000Y0005000D02*
X0005000Y0215000D01*
X0259000Y0215000D01*
X0265000Y0209000D01*
X0265000Y0164000D01*
X0275000Y0154000D01*
X0275000Y0025000D01*
X0265000Y0015000D01*
X0265000Y0005000D01*
X0005000Y0005000D01*
D20*
X0121110Y0020150D02*
X0121932Y0020150D01*
X0121521Y0020150D02*
X0121521Y0023850D01*
X0121110Y0023850D02*
X0121932Y0023850D01*
X0123374Y0022822D02*
X0123374Y0021178D01*
X0123373Y0021178D02*
X0123375Y0021115D01*
X0123381Y0021052D01*
X0123391Y0020989D01*
X0123404Y0020927D01*
X0123421Y0020866D01*
X0123442Y0020807D01*
X0123467Y0020748D01*
X0123495Y0020692D01*
X0123527Y0020637D01*
X0123562Y0020584D01*
X0123600Y0020534D01*
X0123641Y0020485D01*
X0123685Y0020440D01*
X0123732Y0020397D01*
X0123781Y0020358D01*
X0123833Y0020321D01*
X0123887Y0020288D01*
X0123943Y0020258D01*
X0124000Y0020231D01*
X0124059Y0020208D01*
X0124120Y0020189D01*
X0124181Y0020174D01*
X0124243Y0020162D01*
X0124306Y0020154D01*
X0124369Y0020150D01*
X0124433Y0020150D01*
X0124496Y0020154D01*
X0124559Y0020162D01*
X0124621Y0020174D01*
X0124682Y0020189D01*
X0124743Y0020208D01*
X0124802Y0020231D01*
X0124859Y0020258D01*
X0124915Y0020288D01*
X0124969Y0020321D01*
X0125021Y0020358D01*
X0125070Y0020397D01*
X0125117Y0020440D01*
X0125161Y0020485D01*
X0125202Y0020534D01*
X0125240Y0020584D01*
X0125275Y0020637D01*
X0125307Y0020692D01*
X0125335Y0020748D01*
X0125360Y0020807D01*
X0125381Y0020866D01*
X0125398Y0020927D01*
X0125411Y0020989D01*
X0125421Y0021052D01*
X0125427Y0021115D01*
X0125429Y0021178D01*
X0125429Y0022822D01*
X0125427Y0022885D01*
X0125421Y0022948D01*
X0125411Y0023011D01*
X0125398Y0023073D01*
X0125381Y0023134D01*
X0125360Y0023193D01*
X0125335Y0023252D01*
X0125307Y0023308D01*
X0125275Y0023363D01*
X0125240Y0023416D01*
X0125202Y0023466D01*
X0125161Y0023515D01*
X0125117Y0023560D01*
X0125070Y0023603D01*
X0125021Y0023642D01*
X0124969Y0023679D01*
X0124915Y0023712D01*
X0124859Y0023742D01*
X0124802Y0023769D01*
X0124743Y0023792D01*
X0124682Y0023811D01*
X0124621Y0023826D01*
X0124559Y0023838D01*
X0124496Y0023846D01*
X0124433Y0023850D01*
X0124369Y0023850D01*
X0124306Y0023846D01*
X0124243Y0023838D01*
X0124181Y0023826D01*
X0124120Y0023811D01*
X0124059Y0023792D01*
X0124000Y0023769D01*
X0123943Y0023742D01*
X0123887Y0023712D01*
X0123833Y0023679D01*
X0123781Y0023642D01*
X0123732Y0023603D01*
X0123685Y0023560D01*
X0123641Y0023515D01*
X0123600Y0023466D01*
X0123562Y0023416D01*
X0123527Y0023363D01*
X0123495Y0023308D01*
X0123467Y0023252D01*
X0123442Y0023193D01*
X0123421Y0023134D01*
X0123404Y0023073D01*
X0123391Y0023011D01*
X0123381Y0022948D01*
X0123375Y0022885D01*
X0123373Y0022822D01*
X0127079Y0022617D02*
X0127079Y0020150D01*
X0128313Y0022206D02*
X0128313Y0022617D01*
X0127079Y0022617D01*
X0141970Y0023850D02*
X0143203Y0023850D01*
X0143259Y0023848D01*
X0143315Y0023842D01*
X0143370Y0023833D01*
X0143425Y0023820D01*
X0143478Y0023803D01*
X0143530Y0023782D01*
X0143581Y0023758D01*
X0143630Y0023730D01*
X0143677Y0023700D01*
X0143722Y0023666D01*
X0143764Y0023629D01*
X0143804Y0023589D01*
X0143841Y0023547D01*
X0143875Y0023502D01*
X0143905Y0023455D01*
X0143933Y0023406D01*
X0143957Y0023355D01*
X0143978Y0023303D01*
X0143995Y0023250D01*
X0144008Y0023195D01*
X0144017Y0023140D01*
X0144023Y0023084D01*
X0144025Y0023028D01*
X0144023Y0022972D01*
X0144017Y0022916D01*
X0144008Y0022861D01*
X0143995Y0022806D01*
X0143978Y0022753D01*
X0143957Y0022701D01*
X0143933Y0022650D01*
X0143905Y0022601D01*
X0143875Y0022554D01*
X0143841Y0022509D01*
X0143804Y0022467D01*
X0143764Y0022427D01*
X0143722Y0022390D01*
X0143677Y0022356D01*
X0143630Y0022326D01*
X0143581Y0022298D01*
X0143530Y0022274D01*
X0143478Y0022253D01*
X0143425Y0022236D01*
X0143370Y0022223D01*
X0143315Y0022214D01*
X0143259Y0022208D01*
X0143203Y0022206D01*
X0142381Y0022206D01*
X0142998Y0022206D02*
X0143061Y0022204D01*
X0143124Y0022198D01*
X0143187Y0022188D01*
X0143249Y0022175D01*
X0143310Y0022158D01*
X0143369Y0022137D01*
X0143428Y0022112D01*
X0143484Y0022084D01*
X0143539Y0022052D01*
X0143592Y0022017D01*
X0143642Y0021979D01*
X0143691Y0021938D01*
X0143736Y0021894D01*
X0143779Y0021847D01*
X0143818Y0021798D01*
X0143855Y0021746D01*
X0143888Y0021692D01*
X0143918Y0021636D01*
X0143945Y0021579D01*
X0143968Y0021520D01*
X0143987Y0021459D01*
X0144002Y0021398D01*
X0144014Y0021336D01*
X0144022Y0021273D01*
X0144026Y0021210D01*
X0144026Y0021146D01*
X0144022Y0021083D01*
X0144014Y0021020D01*
X0144002Y0020958D01*
X0143987Y0020897D01*
X0143968Y0020836D01*
X0143945Y0020777D01*
X0143918Y0020720D01*
X0143888Y0020664D01*
X0143855Y0020610D01*
X0143818Y0020558D01*
X0143779Y0020509D01*
X0143736Y0020462D01*
X0143691Y0020418D01*
X0143642Y0020377D01*
X0143592Y0020339D01*
X0143539Y0020304D01*
X0143484Y0020272D01*
X0143428Y0020244D01*
X0143369Y0020219D01*
X0143310Y0020198D01*
X0143249Y0020181D01*
X0143187Y0020168D01*
X0143124Y0020158D01*
X0143061Y0020152D01*
X0142998Y0020150D01*
X0141970Y0020150D01*
X0145416Y0022617D02*
X0146238Y0020150D01*
X0147060Y0022617D01*
X0152970Y0022206D02*
X0152970Y0023850D01*
X0155026Y0023850D01*
X0154203Y0022206D02*
X0152970Y0022206D01*
X0154203Y0022205D02*
X0154259Y0022203D01*
X0154315Y0022197D01*
X0154370Y0022188D01*
X0154425Y0022175D01*
X0154478Y0022158D01*
X0154530Y0022137D01*
X0154581Y0022113D01*
X0154630Y0022085D01*
X0154677Y0022055D01*
X0154722Y0022021D01*
X0154764Y0021984D01*
X0154804Y0021944D01*
X0154841Y0021902D01*
X0154875Y0021857D01*
X0154905Y0021810D01*
X0154933Y0021761D01*
X0154957Y0021710D01*
X0154978Y0021658D01*
X0154995Y0021605D01*
X0155008Y0021550D01*
X0155017Y0021495D01*
X0155023Y0021439D01*
X0155025Y0021383D01*
X0155026Y0021383D02*
X0155026Y0020972D01*
X0155025Y0020972D02*
X0155023Y0020916D01*
X0155017Y0020860D01*
X0155008Y0020805D01*
X0154995Y0020750D01*
X0154978Y0020697D01*
X0154957Y0020645D01*
X0154933Y0020594D01*
X0154905Y0020545D01*
X0154875Y0020498D01*
X0154841Y0020453D01*
X0154804Y0020411D01*
X0154764Y0020371D01*
X0154722Y0020334D01*
X0154677Y0020300D01*
X0154630Y0020270D01*
X0154581Y0020242D01*
X0154530Y0020218D01*
X0154478Y0020197D01*
X0154425Y0020180D01*
X0154370Y0020167D01*
X0154315Y0020158D01*
X0154259Y0020152D01*
X0154203Y0020150D01*
X0152970Y0020150D01*
X0156416Y0022617D02*
X0157238Y0020150D01*
X0158060Y0022617D01*
X0165690Y0023028D02*
X0165690Y0020972D01*
X0165692Y0020916D01*
X0165698Y0020860D01*
X0165707Y0020805D01*
X0165720Y0020750D01*
X0165737Y0020697D01*
X0165758Y0020645D01*
X0165782Y0020594D01*
X0165810Y0020545D01*
X0165840Y0020498D01*
X0165874Y0020453D01*
X0165911Y0020411D01*
X0165951Y0020371D01*
X0165993Y0020334D01*
X0166038Y0020300D01*
X0166085Y0020270D01*
X0166134Y0020242D01*
X0166185Y0020218D01*
X0166237Y0020197D01*
X0166290Y0020180D01*
X0166345Y0020167D01*
X0166400Y0020158D01*
X0166456Y0020152D01*
X0166512Y0020150D01*
X0167745Y0020150D01*
X0167745Y0022206D01*
X0167129Y0022206D01*
X0165690Y0023028D02*
X0165692Y0023084D01*
X0165698Y0023140D01*
X0165707Y0023195D01*
X0165720Y0023250D01*
X0165737Y0023303D01*
X0165758Y0023355D01*
X0165782Y0023406D01*
X0165810Y0023455D01*
X0165840Y0023502D01*
X0165874Y0023547D01*
X0165911Y0023589D01*
X0165951Y0023629D01*
X0165993Y0023666D01*
X0166038Y0023700D01*
X0166085Y0023730D01*
X0166134Y0023758D01*
X0166185Y0023782D01*
X0166237Y0023803D01*
X0166290Y0023820D01*
X0166345Y0023833D01*
X0166400Y0023842D01*
X0166456Y0023848D01*
X0166512Y0023850D01*
X0167745Y0023850D01*
X0169495Y0022617D02*
X0170523Y0022617D01*
X0170571Y0022615D01*
X0170620Y0022609D01*
X0170667Y0022600D01*
X0170714Y0022587D01*
X0170759Y0022570D01*
X0170803Y0022550D01*
X0170845Y0022526D01*
X0170886Y0022499D01*
X0170924Y0022469D01*
X0170959Y0022436D01*
X0170992Y0022401D01*
X0171022Y0022363D01*
X0171049Y0022322D01*
X0171073Y0022280D01*
X0171093Y0022236D01*
X0171110Y0022191D01*
X0171123Y0022144D01*
X0171132Y0022097D01*
X0171138Y0022048D01*
X0171140Y0022000D01*
X0171140Y0020150D01*
X0169495Y0020150D02*
X0169495Y0022617D01*
X0172717Y0022000D02*
X0172717Y0020767D01*
X0172719Y0020719D01*
X0172725Y0020670D01*
X0172734Y0020623D01*
X0172747Y0020576D01*
X0172764Y0020531D01*
X0172784Y0020487D01*
X0172808Y0020445D01*
X0172835Y0020404D01*
X0172865Y0020366D01*
X0172898Y0020331D01*
X0172933Y0020298D01*
X0172971Y0020268D01*
X0173012Y0020241D01*
X0173054Y0020217D01*
X0173098Y0020197D01*
X0173143Y0020180D01*
X0173190Y0020167D01*
X0173237Y0020158D01*
X0173286Y0020152D01*
X0173334Y0020150D01*
X0174362Y0020150D01*
X0174362Y0023850D01*
X0174362Y0022617D02*
X0173334Y0022617D01*
X0173286Y0022615D01*
X0173237Y0022609D01*
X0173190Y0022600D01*
X0173143Y0022587D01*
X0173098Y0022570D01*
X0173054Y0022550D01*
X0173012Y0022526D01*
X0172971Y0022499D01*
X0172933Y0022469D01*
X0172898Y0022436D01*
X0172865Y0022401D01*
X0172835Y0022363D01*
X0172808Y0022322D01*
X0172784Y0022280D01*
X0172764Y0022236D01*
X0172747Y0022191D01*
X0172734Y0022144D01*
X0172725Y0022097D01*
X0172719Y0022048D01*
X0172717Y0022000D01*
X0181470Y0023850D02*
X0182703Y0020150D01*
X0183937Y0023850D01*
X0185121Y0023850D02*
X0185121Y0023644D01*
X0185326Y0023644D01*
X0185326Y0023850D01*
X0185121Y0023850D01*
X0185223Y0022617D02*
X0185223Y0020150D01*
X0186801Y0020150D02*
X0186801Y0022617D01*
X0187829Y0022617D01*
X0187877Y0022615D01*
X0187926Y0022609D01*
X0187973Y0022600D01*
X0188020Y0022587D01*
X0188065Y0022570D01*
X0188109Y0022550D01*
X0188151Y0022526D01*
X0188192Y0022499D01*
X0188230Y0022469D01*
X0188265Y0022436D01*
X0188298Y0022401D01*
X0188328Y0022363D01*
X0188355Y0022322D01*
X0188379Y0022280D01*
X0188399Y0022236D01*
X0188416Y0022191D01*
X0188429Y0022144D01*
X0188438Y0022097D01*
X0188444Y0022048D01*
X0188446Y0022000D01*
X0188446Y0020150D01*
X0205397Y0020664D02*
X0205442Y0020760D01*
X0205483Y0020858D01*
X0205521Y0020958D01*
X0205556Y0021058D01*
X0205587Y0021160D01*
X0205615Y0021263D01*
X0205638Y0021366D01*
X0205659Y0021471D01*
X0205675Y0021576D01*
X0205688Y0021681D01*
X0205698Y0021787D01*
X0205703Y0021894D01*
X0205705Y0022000D01*
X0203650Y0022000D02*
X0203652Y0022106D01*
X0203657Y0022213D01*
X0203667Y0022319D01*
X0203680Y0022424D01*
X0203696Y0022529D01*
X0203717Y0022634D01*
X0203740Y0022737D01*
X0203768Y0022840D01*
X0203799Y0022942D01*
X0203834Y0023042D01*
X0203872Y0023142D01*
X0203913Y0023240D01*
X0203958Y0023336D01*
X0204678Y0023850D02*
X0204730Y0023848D01*
X0204783Y0023843D01*
X0204834Y0023834D01*
X0204885Y0023821D01*
X0204935Y0023805D01*
X0204984Y0023786D01*
X0205031Y0023763D01*
X0205077Y0023737D01*
X0205120Y0023708D01*
X0205162Y0023676D01*
X0205201Y0023642D01*
X0205238Y0023604D01*
X0205272Y0023564D01*
X0205304Y0023522D01*
X0205332Y0023478D01*
X0205357Y0023432D01*
X0205379Y0023385D01*
X0205398Y0023336D01*
X0205500Y0023028D02*
X0203856Y0020972D01*
X0204678Y0020150D02*
X0204730Y0020152D01*
X0204783Y0020157D01*
X0204834Y0020166D01*
X0204885Y0020179D01*
X0204935Y0020195D01*
X0204984Y0020214D01*
X0205031Y0020237D01*
X0205077Y0020263D01*
X0205120Y0020292D01*
X0205162Y0020324D01*
X0205201Y0020358D01*
X0205238Y0020396D01*
X0205272Y0020436D01*
X0205304Y0020478D01*
X0205332Y0020522D01*
X0205357Y0020568D01*
X0205379Y0020615D01*
X0205398Y0020664D01*
X0204678Y0020150D02*
X0204626Y0020152D01*
X0204573Y0020157D01*
X0204522Y0020166D01*
X0204471Y0020179D01*
X0204421Y0020195D01*
X0204372Y0020214D01*
X0204325Y0020237D01*
X0204279Y0020263D01*
X0204236Y0020292D01*
X0204194Y0020324D01*
X0204155Y0020358D01*
X0204118Y0020396D01*
X0204084Y0020436D01*
X0204052Y0020478D01*
X0204024Y0020522D01*
X0203999Y0020568D01*
X0203977Y0020615D01*
X0203958Y0020664D01*
X0205705Y0022000D02*
X0205703Y0022106D01*
X0205698Y0022213D01*
X0205688Y0022319D01*
X0205675Y0022424D01*
X0205659Y0022529D01*
X0205638Y0022634D01*
X0205615Y0022737D01*
X0205587Y0022840D01*
X0205556Y0022942D01*
X0205521Y0023042D01*
X0205483Y0023142D01*
X0205442Y0023240D01*
X0205397Y0023336D01*
X0204678Y0023850D02*
X0204626Y0023848D01*
X0204573Y0023843D01*
X0204522Y0023834D01*
X0204471Y0023821D01*
X0204421Y0023805D01*
X0204372Y0023786D01*
X0204325Y0023763D01*
X0204279Y0023737D01*
X0204236Y0023708D01*
X0204194Y0023676D01*
X0204155Y0023642D01*
X0204118Y0023604D01*
X0204084Y0023564D01*
X0204052Y0023522D01*
X0204024Y0023478D01*
X0203999Y0023432D01*
X0203977Y0023385D01*
X0203958Y0023336D01*
X0203650Y0022000D02*
X0203652Y0021894D01*
X0203657Y0021787D01*
X0203667Y0021681D01*
X0203680Y0021576D01*
X0203696Y0021471D01*
X0203717Y0021366D01*
X0203740Y0021263D01*
X0203768Y0021160D01*
X0203799Y0021058D01*
X0203834Y0020958D01*
X0203872Y0020858D01*
X0203913Y0020760D01*
X0203958Y0020664D01*
X0213650Y0020150D02*
X0215706Y0020150D01*
X0214678Y0020150D02*
X0214678Y0023850D01*
X0213650Y0023028D01*
X0223650Y0020150D02*
X0225706Y0020150D01*
X0223650Y0020150D02*
X0225397Y0022206D01*
X0224781Y0023850D02*
X0224713Y0023848D01*
X0224645Y0023842D01*
X0224578Y0023833D01*
X0224512Y0023819D01*
X0224446Y0023802D01*
X0224381Y0023781D01*
X0224318Y0023756D01*
X0224256Y0023728D01*
X0224196Y0023696D01*
X0224138Y0023661D01*
X0224082Y0023623D01*
X0224029Y0023581D01*
X0223977Y0023537D01*
X0223929Y0023489D01*
X0223883Y0023439D01*
X0223840Y0023387D01*
X0223800Y0023332D01*
X0223763Y0023275D01*
X0223730Y0023216D01*
X0223700Y0023155D01*
X0223674Y0023092D01*
X0223651Y0023028D01*
X0225398Y0022205D02*
X0225441Y0022249D01*
X0225482Y0022296D01*
X0225519Y0022345D01*
X0225554Y0022396D01*
X0225585Y0022450D01*
X0225613Y0022505D01*
X0225637Y0022562D01*
X0225658Y0022620D01*
X0225675Y0022680D01*
X0225689Y0022740D01*
X0225698Y0022801D01*
X0225704Y0022863D01*
X0225706Y0022925D01*
X0225704Y0022983D01*
X0225699Y0023041D01*
X0225690Y0023098D01*
X0225677Y0023155D01*
X0225661Y0023211D01*
X0225641Y0023266D01*
X0225618Y0023319D01*
X0225592Y0023371D01*
X0225562Y0023421D01*
X0225529Y0023469D01*
X0225494Y0023515D01*
X0225455Y0023558D01*
X0225414Y0023599D01*
X0225371Y0023638D01*
X0225325Y0023673D01*
X0225277Y0023706D01*
X0225227Y0023736D01*
X0225175Y0023762D01*
X0225122Y0023785D01*
X0225067Y0023805D01*
X0225011Y0023821D01*
X0224954Y0023834D01*
X0224897Y0023843D01*
X0224839Y0023848D01*
X0224781Y0023850D01*
X0233650Y0023850D02*
X0234883Y0023850D01*
X0234939Y0023848D01*
X0234995Y0023842D01*
X0235050Y0023833D01*
X0235105Y0023820D01*
X0235158Y0023803D01*
X0235210Y0023782D01*
X0235261Y0023758D01*
X0235310Y0023730D01*
X0235357Y0023700D01*
X0235402Y0023666D01*
X0235444Y0023629D01*
X0235484Y0023589D01*
X0235521Y0023547D01*
X0235555Y0023502D01*
X0235585Y0023455D01*
X0235613Y0023406D01*
X0235637Y0023355D01*
X0235658Y0023303D01*
X0235675Y0023250D01*
X0235688Y0023195D01*
X0235697Y0023140D01*
X0235703Y0023084D01*
X0235705Y0023028D01*
X0235703Y0022972D01*
X0235697Y0022916D01*
X0235688Y0022861D01*
X0235675Y0022806D01*
X0235658Y0022753D01*
X0235637Y0022701D01*
X0235613Y0022650D01*
X0235585Y0022601D01*
X0235555Y0022554D01*
X0235521Y0022509D01*
X0235484Y0022467D01*
X0235444Y0022427D01*
X0235402Y0022390D01*
X0235357Y0022356D01*
X0235310Y0022326D01*
X0235261Y0022298D01*
X0235210Y0022274D01*
X0235158Y0022253D01*
X0235105Y0022236D01*
X0235050Y0022223D01*
X0234995Y0022214D01*
X0234939Y0022208D01*
X0234883Y0022206D01*
X0234061Y0022206D01*
X0234678Y0022206D02*
X0234741Y0022204D01*
X0234804Y0022198D01*
X0234867Y0022188D01*
X0234929Y0022175D01*
X0234990Y0022158D01*
X0235049Y0022137D01*
X0235108Y0022112D01*
X0235164Y0022084D01*
X0235219Y0022052D01*
X0235272Y0022017D01*
X0235322Y0021979D01*
X0235371Y0021938D01*
X0235416Y0021894D01*
X0235459Y0021847D01*
X0235498Y0021798D01*
X0235535Y0021746D01*
X0235568Y0021692D01*
X0235598Y0021636D01*
X0235625Y0021579D01*
X0235648Y0021520D01*
X0235667Y0021459D01*
X0235682Y0021398D01*
X0235694Y0021336D01*
X0235702Y0021273D01*
X0235706Y0021210D01*
X0235706Y0021146D01*
X0235702Y0021083D01*
X0235694Y0021020D01*
X0235682Y0020958D01*
X0235667Y0020897D01*
X0235648Y0020836D01*
X0235625Y0020777D01*
X0235598Y0020720D01*
X0235568Y0020664D01*
X0235535Y0020610D01*
X0235498Y0020558D01*
X0235459Y0020509D01*
X0235416Y0020462D01*
X0235371Y0020418D01*
X0235322Y0020377D01*
X0235272Y0020339D01*
X0235219Y0020304D01*
X0235164Y0020272D01*
X0235108Y0020244D01*
X0235049Y0020219D01*
X0234990Y0020198D01*
X0234929Y0020181D01*
X0234867Y0020168D01*
X0234804Y0020158D01*
X0234741Y0020152D01*
X0234678Y0020150D01*
X0233650Y0020150D01*
X0243650Y0020972D02*
X0245706Y0020972D01*
X0245089Y0021794D02*
X0245089Y0020150D01*
X0243650Y0020972D02*
X0244472Y0023850D01*
X0253650Y0023850D02*
X0253650Y0022206D01*
X0254883Y0022206D01*
X0254883Y0022205D02*
X0254939Y0022203D01*
X0254995Y0022197D01*
X0255050Y0022188D01*
X0255105Y0022175D01*
X0255158Y0022158D01*
X0255210Y0022137D01*
X0255261Y0022113D01*
X0255310Y0022085D01*
X0255357Y0022055D01*
X0255402Y0022021D01*
X0255444Y0021984D01*
X0255484Y0021944D01*
X0255521Y0021902D01*
X0255555Y0021857D01*
X0255585Y0021810D01*
X0255613Y0021761D01*
X0255637Y0021710D01*
X0255658Y0021658D01*
X0255675Y0021605D01*
X0255688Y0021550D01*
X0255697Y0021495D01*
X0255703Y0021439D01*
X0255705Y0021383D01*
X0255706Y0021383D02*
X0255706Y0020972D01*
X0255705Y0020972D02*
X0255703Y0020916D01*
X0255697Y0020860D01*
X0255688Y0020805D01*
X0255675Y0020750D01*
X0255658Y0020697D01*
X0255637Y0020645D01*
X0255613Y0020594D01*
X0255585Y0020545D01*
X0255555Y0020498D01*
X0255521Y0020453D01*
X0255484Y0020411D01*
X0255444Y0020371D01*
X0255402Y0020334D01*
X0255357Y0020300D01*
X0255310Y0020270D01*
X0255261Y0020242D01*
X0255210Y0020218D01*
X0255158Y0020197D01*
X0255105Y0020180D01*
X0255050Y0020167D01*
X0254995Y0020158D01*
X0254939Y0020152D01*
X0254883Y0020150D01*
X0253650Y0020150D01*
X0253650Y0023850D02*
X0255706Y0023850D01*
X0242068Y0009437D02*
X0241041Y0009437D01*
X0241041Y0006970D01*
X0239514Y0006970D02*
X0238692Y0006970D01*
X0239103Y0006970D02*
X0239103Y0010670D01*
X0238692Y0010670D02*
X0239514Y0010670D01*
X0242068Y0009437D02*
X0242116Y0009435D01*
X0242165Y0009429D01*
X0242212Y0009420D01*
X0242259Y0009407D01*
X0242304Y0009390D01*
X0242348Y0009370D01*
X0242390Y0009346D01*
X0242431Y0009319D01*
X0242469Y0009289D01*
X0242504Y0009256D01*
X0242537Y0009221D01*
X0242567Y0009183D01*
X0242594Y0009142D01*
X0242618Y0009100D01*
X0242638Y0009056D01*
X0242655Y0009011D01*
X0242668Y0008964D01*
X0242677Y0008917D01*
X0242683Y0008868D01*
X0242685Y0008820D01*
X0242685Y0006970D01*
X0235227Y0006970D02*
X0234199Y0006970D01*
X0234151Y0006972D01*
X0234102Y0006978D01*
X0234055Y0006987D01*
X0234008Y0007000D01*
X0233963Y0007017D01*
X0233919Y0007037D01*
X0233877Y0007061D01*
X0233836Y0007088D01*
X0233798Y0007118D01*
X0233763Y0007151D01*
X0233730Y0007186D01*
X0233700Y0007224D01*
X0233673Y0007265D01*
X0233649Y0007307D01*
X0233629Y0007351D01*
X0233612Y0007396D01*
X0233599Y0007443D01*
X0233590Y0007490D01*
X0233584Y0007539D01*
X0233582Y0007587D01*
X0233583Y0007587D02*
X0233583Y0008820D01*
X0233582Y0008820D02*
X0233584Y0008868D01*
X0233590Y0008917D01*
X0233599Y0008964D01*
X0233612Y0009011D01*
X0233629Y0009056D01*
X0233649Y0009100D01*
X0233673Y0009142D01*
X0233700Y0009183D01*
X0233730Y0009221D01*
X0233763Y0009256D01*
X0233798Y0009289D01*
X0233836Y0009319D01*
X0233877Y0009346D01*
X0233919Y0009370D01*
X0233963Y0009390D01*
X0234008Y0009407D01*
X0234055Y0009420D01*
X0234102Y0009429D01*
X0234151Y0009435D01*
X0234199Y0009437D01*
X0235227Y0009437D01*
X0235227Y0006353D01*
X0235228Y0006353D02*
X0235226Y0006305D01*
X0235220Y0006256D01*
X0235211Y0006209D01*
X0235198Y0006162D01*
X0235181Y0006117D01*
X0235161Y0006073D01*
X0235137Y0006031D01*
X0235110Y0005990D01*
X0235080Y0005952D01*
X0235047Y0005917D01*
X0235012Y0005884D01*
X0234974Y0005854D01*
X0234933Y0005827D01*
X0234891Y0005803D01*
X0234847Y0005783D01*
X0234802Y0005766D01*
X0234755Y0005753D01*
X0234708Y0005744D01*
X0234659Y0005738D01*
X0234611Y0005736D01*
X0234611Y0005737D02*
X0233788Y0005737D01*
X0232125Y0007792D02*
X0232125Y0008615D01*
X0232123Y0008671D01*
X0232117Y0008727D01*
X0232108Y0008782D01*
X0232095Y0008837D01*
X0232078Y0008890D01*
X0232057Y0008942D01*
X0232033Y0008993D01*
X0232005Y0009042D01*
X0231975Y0009089D01*
X0231941Y0009134D01*
X0231904Y0009176D01*
X0231864Y0009216D01*
X0231822Y0009253D01*
X0231777Y0009287D01*
X0231730Y0009317D01*
X0231681Y0009345D01*
X0231630Y0009369D01*
X0231578Y0009390D01*
X0231525Y0009407D01*
X0231470Y0009420D01*
X0231415Y0009429D01*
X0231359Y0009435D01*
X0231303Y0009437D01*
X0231247Y0009435D01*
X0231191Y0009429D01*
X0231136Y0009420D01*
X0231081Y0009407D01*
X0231028Y0009390D01*
X0230976Y0009369D01*
X0230925Y0009345D01*
X0230876Y0009317D01*
X0230829Y0009287D01*
X0230784Y0009253D01*
X0230742Y0009216D01*
X0230702Y0009176D01*
X0230665Y0009134D01*
X0230631Y0009089D01*
X0230601Y0009042D01*
X0230573Y0008993D01*
X0230549Y0008942D01*
X0230528Y0008890D01*
X0230511Y0008837D01*
X0230498Y0008782D01*
X0230489Y0008727D01*
X0230483Y0008671D01*
X0230481Y0008615D01*
X0230481Y0007792D01*
X0230483Y0007736D01*
X0230489Y0007680D01*
X0230498Y0007625D01*
X0230511Y0007570D01*
X0230528Y0007517D01*
X0230549Y0007465D01*
X0230573Y0007414D01*
X0230601Y0007365D01*
X0230631Y0007318D01*
X0230665Y0007273D01*
X0230702Y0007231D01*
X0230742Y0007191D01*
X0230784Y0007154D01*
X0230829Y0007120D01*
X0230876Y0007090D01*
X0230925Y0007062D01*
X0230976Y0007038D01*
X0231028Y0007017D01*
X0231081Y0007000D01*
X0231136Y0006987D01*
X0231191Y0006978D01*
X0231247Y0006972D01*
X0231303Y0006970D01*
X0231359Y0006972D01*
X0231415Y0006978D01*
X0231470Y0006987D01*
X0231525Y0007000D01*
X0231578Y0007017D01*
X0231630Y0007038D01*
X0231681Y0007062D01*
X0231730Y0007090D01*
X0231777Y0007120D01*
X0231822Y0007154D01*
X0231864Y0007191D01*
X0231904Y0007231D01*
X0231941Y0007273D01*
X0231975Y0007318D01*
X0232005Y0007365D01*
X0232033Y0007414D01*
X0232057Y0007465D01*
X0232078Y0007517D01*
X0232095Y0007570D01*
X0232108Y0007625D01*
X0232117Y0007680D01*
X0232123Y0007736D01*
X0232125Y0007792D01*
X0229227Y0006970D02*
X0229179Y0006972D01*
X0229130Y0006978D01*
X0229083Y0006987D01*
X0229036Y0007000D01*
X0228991Y0007017D01*
X0228947Y0007037D01*
X0228905Y0007061D01*
X0228864Y0007088D01*
X0228826Y0007118D01*
X0228791Y0007151D01*
X0228758Y0007186D01*
X0228728Y0007224D01*
X0228701Y0007265D01*
X0228677Y0007307D01*
X0228657Y0007351D01*
X0228640Y0007396D01*
X0228627Y0007443D01*
X0228618Y0007490D01*
X0228612Y0007539D01*
X0228610Y0007587D01*
X0228610Y0010670D01*
X0226947Y0008820D02*
X0226947Y0006970D01*
X0226022Y0006970D01*
X0226022Y0006971D02*
X0225970Y0006973D01*
X0225917Y0006979D01*
X0225866Y0006988D01*
X0225815Y0007001D01*
X0225765Y0007018D01*
X0225717Y0007039D01*
X0225670Y0007063D01*
X0225625Y0007090D01*
X0225583Y0007121D01*
X0225542Y0007155D01*
X0225504Y0007191D01*
X0225469Y0007230D01*
X0225437Y0007272D01*
X0225408Y0007315D01*
X0225383Y0007361D01*
X0225360Y0007409D01*
X0225342Y0007458D01*
X0225326Y0007508D01*
X0225315Y0007559D01*
X0225307Y0007611D01*
X0225303Y0007664D01*
X0225303Y0007716D01*
X0225307Y0007769D01*
X0225315Y0007821D01*
X0225326Y0007872D01*
X0225342Y0007922D01*
X0225360Y0007971D01*
X0225383Y0008019D01*
X0225408Y0008065D01*
X0225437Y0008108D01*
X0225469Y0008150D01*
X0225504Y0008189D01*
X0225542Y0008225D01*
X0225583Y0008259D01*
X0225625Y0008290D01*
X0225670Y0008317D01*
X0225717Y0008341D01*
X0225765Y0008362D01*
X0225815Y0008379D01*
X0225866Y0008392D01*
X0225917Y0008401D01*
X0225970Y0008407D01*
X0226022Y0008409D01*
X0226947Y0008409D01*
X0226948Y0008820D02*
X0226946Y0008868D01*
X0226940Y0008917D01*
X0226931Y0008964D01*
X0226918Y0009011D01*
X0226901Y0009056D01*
X0226881Y0009100D01*
X0226857Y0009142D01*
X0226830Y0009183D01*
X0226800Y0009221D01*
X0226767Y0009256D01*
X0226732Y0009289D01*
X0226694Y0009319D01*
X0226653Y0009346D01*
X0226611Y0009370D01*
X0226567Y0009390D01*
X0226522Y0009407D01*
X0226475Y0009420D01*
X0226428Y0009429D01*
X0226379Y0009435D01*
X0226331Y0009437D01*
X0225508Y0009437D01*
X0223725Y0008820D02*
X0223725Y0006970D01*
X0222081Y0006970D02*
X0222081Y0009437D01*
X0223109Y0009437D01*
X0223157Y0009435D01*
X0223206Y0009429D01*
X0223253Y0009420D01*
X0223300Y0009407D01*
X0223345Y0009390D01*
X0223389Y0009370D01*
X0223431Y0009346D01*
X0223472Y0009319D01*
X0223510Y0009289D01*
X0223545Y0009256D01*
X0223578Y0009221D01*
X0223608Y0009183D01*
X0223635Y0009142D01*
X0223659Y0009100D01*
X0223679Y0009056D01*
X0223696Y0009011D01*
X0223709Y0008964D01*
X0223718Y0008917D01*
X0223724Y0008868D01*
X0223726Y0008820D01*
X0220348Y0007895D02*
X0218498Y0007895D01*
X0218190Y0006970D02*
X0219423Y0010670D01*
X0220656Y0006970D01*
X0138863Y0009850D02*
X0136808Y0009850D01*
X0137836Y0009850D02*
X0137836Y0006150D01*
X0135212Y0007692D02*
X0134082Y0008308D01*
X0134493Y0009850D02*
X0134569Y0009848D01*
X0134645Y0009842D01*
X0134721Y0009833D01*
X0134796Y0009820D01*
X0134871Y0009803D01*
X0134944Y0009782D01*
X0135017Y0009758D01*
X0135088Y0009731D01*
X0135157Y0009699D01*
X0135226Y0009665D01*
X0135292Y0009627D01*
X0135356Y0009586D01*
X0135418Y0009542D01*
X0134082Y0008309D02*
X0134036Y0008338D01*
X0133993Y0008370D01*
X0133951Y0008404D01*
X0133912Y0008442D01*
X0133875Y0008481D01*
X0133841Y0008523D01*
X0133809Y0008568D01*
X0133781Y0008614D01*
X0133756Y0008662D01*
X0133733Y0008711D01*
X0133715Y0008762D01*
X0133699Y0008814D01*
X0133687Y0008866D01*
X0133678Y0008920D01*
X0133673Y0008974D01*
X0133671Y0009028D01*
X0133673Y0009084D01*
X0133679Y0009140D01*
X0133688Y0009195D01*
X0133701Y0009250D01*
X0133718Y0009303D01*
X0133739Y0009355D01*
X0133763Y0009406D01*
X0133791Y0009455D01*
X0133821Y0009502D01*
X0133855Y0009547D01*
X0133892Y0009589D01*
X0133932Y0009629D01*
X0133974Y0009666D01*
X0134019Y0009700D01*
X0134066Y0009730D01*
X0134115Y0009758D01*
X0134166Y0009782D01*
X0134218Y0009803D01*
X0134271Y0009820D01*
X0134326Y0009833D01*
X0134381Y0009842D01*
X0134437Y0009848D01*
X0134493Y0009850D01*
X0133568Y0006664D02*
X0133626Y0006608D01*
X0133686Y0006555D01*
X0133749Y0006504D01*
X0133815Y0006457D01*
X0133882Y0006413D01*
X0133952Y0006372D01*
X0134023Y0006334D01*
X0134096Y0006300D01*
X0134170Y0006269D01*
X0134246Y0006241D01*
X0134323Y0006217D01*
X0134401Y0006197D01*
X0134480Y0006180D01*
X0134560Y0006167D01*
X0134640Y0006157D01*
X0134720Y0006152D01*
X0134801Y0006150D01*
X0134857Y0006152D01*
X0134913Y0006158D01*
X0134968Y0006167D01*
X0135023Y0006180D01*
X0135076Y0006197D01*
X0135128Y0006218D01*
X0135179Y0006242D01*
X0135228Y0006270D01*
X0135275Y0006300D01*
X0135320Y0006334D01*
X0135362Y0006371D01*
X0135402Y0006411D01*
X0135439Y0006453D01*
X0135473Y0006498D01*
X0135503Y0006545D01*
X0135531Y0006594D01*
X0135555Y0006645D01*
X0135576Y0006697D01*
X0135593Y0006750D01*
X0135606Y0006805D01*
X0135615Y0006860D01*
X0135621Y0006916D01*
X0135623Y0006972D01*
X0135621Y0007026D01*
X0135616Y0007080D01*
X0135607Y0007134D01*
X0135595Y0007186D01*
X0135579Y0007238D01*
X0135561Y0007289D01*
X0135538Y0007338D01*
X0135513Y0007386D01*
X0135485Y0007432D01*
X0135453Y0007477D01*
X0135419Y0007519D01*
X0135382Y0007558D01*
X0135343Y0007596D01*
X0135301Y0007630D01*
X0135258Y0007662D01*
X0135212Y0007691D01*
X0132166Y0006150D02*
X0131344Y0007794D01*
X0131138Y0007794D02*
X0130110Y0007794D01*
X0131138Y0007794D02*
X0131201Y0007796D01*
X0131264Y0007802D01*
X0131327Y0007812D01*
X0131389Y0007825D01*
X0131450Y0007842D01*
X0131509Y0007863D01*
X0131568Y0007888D01*
X0131624Y0007916D01*
X0131679Y0007948D01*
X0131732Y0007983D01*
X0131782Y0008021D01*
X0131831Y0008062D01*
X0131876Y0008106D01*
X0131919Y0008153D01*
X0131958Y0008202D01*
X0131995Y0008254D01*
X0132028Y0008308D01*
X0132058Y0008364D01*
X0132085Y0008421D01*
X0132108Y0008480D01*
X0132127Y0008541D01*
X0132142Y0008602D01*
X0132154Y0008664D01*
X0132162Y0008727D01*
X0132166Y0008790D01*
X0132166Y0008854D01*
X0132162Y0008917D01*
X0132154Y0008980D01*
X0132142Y0009042D01*
X0132127Y0009103D01*
X0132108Y0009164D01*
X0132085Y0009223D01*
X0132058Y0009280D01*
X0132028Y0009336D01*
X0131995Y0009390D01*
X0131958Y0009442D01*
X0131919Y0009491D01*
X0131876Y0009538D01*
X0131831Y0009582D01*
X0131782Y0009623D01*
X0131732Y0009661D01*
X0131679Y0009696D01*
X0131624Y0009728D01*
X0131568Y0009756D01*
X0131509Y0009781D01*
X0131450Y0009802D01*
X0131389Y0009819D01*
X0131327Y0009832D01*
X0131264Y0009842D01*
X0131201Y0009848D01*
X0131138Y0009850D01*
X0130110Y0009850D01*
X0130110Y0006150D01*
X0129750Y0196150D02*
X0127694Y0196150D01*
X0128722Y0196150D02*
X0128722Y0199850D01*
X0127694Y0199028D01*
X0131294Y0196150D02*
X0133350Y0196150D01*
X0131294Y0196150D02*
X0133042Y0198206D01*
X0132425Y0199850D02*
X0132357Y0199848D01*
X0132289Y0199842D01*
X0132222Y0199833D01*
X0132156Y0199819D01*
X0132090Y0199802D01*
X0132025Y0199781D01*
X0131962Y0199756D01*
X0131900Y0199728D01*
X0131840Y0199696D01*
X0131782Y0199661D01*
X0131726Y0199623D01*
X0131673Y0199581D01*
X0131621Y0199537D01*
X0131573Y0199489D01*
X0131527Y0199439D01*
X0131484Y0199387D01*
X0131444Y0199332D01*
X0131407Y0199275D01*
X0131374Y0199216D01*
X0131344Y0199155D01*
X0131318Y0199092D01*
X0131295Y0199028D01*
X0133042Y0198205D02*
X0133085Y0198249D01*
X0133126Y0198296D01*
X0133163Y0198345D01*
X0133198Y0198396D01*
X0133229Y0198450D01*
X0133257Y0198505D01*
X0133281Y0198562D01*
X0133302Y0198620D01*
X0133319Y0198680D01*
X0133333Y0198740D01*
X0133342Y0198801D01*
X0133348Y0198863D01*
X0133350Y0198925D01*
X0133348Y0198983D01*
X0133343Y0199041D01*
X0133334Y0199098D01*
X0133321Y0199155D01*
X0133305Y0199211D01*
X0133285Y0199266D01*
X0133262Y0199319D01*
X0133236Y0199371D01*
X0133206Y0199421D01*
X0133173Y0199469D01*
X0133138Y0199515D01*
X0133099Y0199558D01*
X0133058Y0199599D01*
X0133015Y0199638D01*
X0132969Y0199673D01*
X0132921Y0199706D01*
X0132871Y0199736D01*
X0132819Y0199762D01*
X0132766Y0199785D01*
X0132711Y0199805D01*
X0132655Y0199821D01*
X0132598Y0199834D01*
X0132541Y0199843D01*
X0132483Y0199848D01*
X0132425Y0199850D01*
X0137694Y0199028D02*
X0138722Y0199850D01*
X0138722Y0196150D01*
X0137694Y0196150D02*
X0139750Y0196150D01*
X0141294Y0196150D02*
X0143350Y0196150D01*
X0142322Y0196150D02*
X0142322Y0199850D01*
X0141294Y0199028D01*
X0147694Y0199028D02*
X0148722Y0199850D01*
X0148722Y0196150D01*
X0147694Y0196150D02*
X0149750Y0196150D01*
X0153042Y0196664D02*
X0153087Y0196760D01*
X0153128Y0196858D01*
X0153166Y0196958D01*
X0153201Y0197058D01*
X0153232Y0197160D01*
X0153260Y0197263D01*
X0153283Y0197366D01*
X0153304Y0197471D01*
X0153320Y0197576D01*
X0153333Y0197681D01*
X0153343Y0197787D01*
X0153348Y0197894D01*
X0153350Y0198000D01*
X0151295Y0198000D02*
X0151297Y0198106D01*
X0151302Y0198213D01*
X0151312Y0198319D01*
X0151325Y0198424D01*
X0151341Y0198529D01*
X0151362Y0198634D01*
X0151385Y0198737D01*
X0151413Y0198840D01*
X0151444Y0198942D01*
X0151479Y0199042D01*
X0151517Y0199142D01*
X0151558Y0199240D01*
X0151603Y0199336D01*
X0152322Y0199850D02*
X0152374Y0199848D01*
X0152427Y0199843D01*
X0152478Y0199834D01*
X0152529Y0199821D01*
X0152579Y0199805D01*
X0152628Y0199786D01*
X0152675Y0199763D01*
X0152721Y0199737D01*
X0152764Y0199708D01*
X0152806Y0199676D01*
X0152845Y0199642D01*
X0152882Y0199604D01*
X0152916Y0199564D01*
X0152948Y0199522D01*
X0152976Y0199478D01*
X0153001Y0199432D01*
X0153023Y0199385D01*
X0153042Y0199336D01*
X0153144Y0199028D02*
X0151500Y0196972D01*
X0152322Y0196150D02*
X0152374Y0196152D01*
X0152427Y0196157D01*
X0152478Y0196166D01*
X0152529Y0196179D01*
X0152579Y0196195D01*
X0152628Y0196214D01*
X0152675Y0196237D01*
X0152721Y0196263D01*
X0152764Y0196292D01*
X0152806Y0196324D01*
X0152845Y0196358D01*
X0152882Y0196396D01*
X0152916Y0196436D01*
X0152948Y0196478D01*
X0152976Y0196522D01*
X0153001Y0196568D01*
X0153023Y0196615D01*
X0153042Y0196664D01*
X0152322Y0196150D02*
X0152270Y0196152D01*
X0152217Y0196157D01*
X0152166Y0196166D01*
X0152115Y0196179D01*
X0152065Y0196195D01*
X0152016Y0196214D01*
X0151969Y0196237D01*
X0151923Y0196263D01*
X0151880Y0196292D01*
X0151838Y0196324D01*
X0151799Y0196358D01*
X0151762Y0196396D01*
X0151728Y0196436D01*
X0151696Y0196478D01*
X0151668Y0196522D01*
X0151643Y0196568D01*
X0151621Y0196615D01*
X0151602Y0196664D01*
X0153350Y0198000D02*
X0153348Y0198106D01*
X0153343Y0198213D01*
X0153333Y0198319D01*
X0153320Y0198424D01*
X0153304Y0198529D01*
X0153283Y0198634D01*
X0153260Y0198737D01*
X0153232Y0198840D01*
X0153201Y0198942D01*
X0153166Y0199042D01*
X0153128Y0199142D01*
X0153087Y0199240D01*
X0153042Y0199336D01*
X0152322Y0199850D02*
X0152270Y0199848D01*
X0152217Y0199843D01*
X0152166Y0199834D01*
X0152115Y0199821D01*
X0152065Y0199805D01*
X0152016Y0199786D01*
X0151969Y0199763D01*
X0151923Y0199737D01*
X0151880Y0199708D01*
X0151838Y0199676D01*
X0151799Y0199642D01*
X0151762Y0199604D01*
X0151728Y0199564D01*
X0151696Y0199522D01*
X0151668Y0199478D01*
X0151643Y0199432D01*
X0151621Y0199385D01*
X0151602Y0199336D01*
X0151295Y0198000D02*
X0151297Y0197894D01*
X0151302Y0197787D01*
X0151312Y0197681D01*
X0151325Y0197576D01*
X0151341Y0197471D01*
X0151362Y0197366D01*
X0151385Y0197263D01*
X0151413Y0197160D01*
X0151444Y0197058D01*
X0151479Y0196958D01*
X0151517Y0196858D01*
X0151558Y0196760D01*
X0151603Y0196664D01*
X0159294Y0198617D02*
X0159294Y0198822D01*
X0159295Y0198617D02*
X0159297Y0198561D01*
X0159303Y0198505D01*
X0159312Y0198450D01*
X0159325Y0198395D01*
X0159342Y0198342D01*
X0159363Y0198290D01*
X0159387Y0198239D01*
X0159415Y0198190D01*
X0159445Y0198143D01*
X0159479Y0198098D01*
X0159516Y0198056D01*
X0159556Y0198016D01*
X0159598Y0197979D01*
X0159643Y0197945D01*
X0159690Y0197915D01*
X0159739Y0197887D01*
X0159790Y0197863D01*
X0159842Y0197842D01*
X0159895Y0197825D01*
X0159950Y0197812D01*
X0160005Y0197803D01*
X0160061Y0197797D01*
X0160117Y0197795D01*
X0160117Y0197794D02*
X0161350Y0197794D01*
X0161350Y0198822D01*
X0161348Y0198885D01*
X0161342Y0198948D01*
X0161332Y0199011D01*
X0161319Y0199073D01*
X0161302Y0199134D01*
X0161281Y0199193D01*
X0161256Y0199252D01*
X0161228Y0199308D01*
X0161196Y0199363D01*
X0161161Y0199416D01*
X0161123Y0199466D01*
X0161082Y0199515D01*
X0161038Y0199560D01*
X0160991Y0199603D01*
X0160942Y0199642D01*
X0160890Y0199679D01*
X0160836Y0199712D01*
X0160780Y0199742D01*
X0160723Y0199769D01*
X0160664Y0199792D01*
X0160603Y0199811D01*
X0160542Y0199826D01*
X0160480Y0199838D01*
X0160417Y0199846D01*
X0160354Y0199850D01*
X0160290Y0199850D01*
X0160227Y0199846D01*
X0160164Y0199838D01*
X0160102Y0199826D01*
X0160041Y0199811D01*
X0159980Y0199792D01*
X0159921Y0199769D01*
X0159864Y0199742D01*
X0159808Y0199712D01*
X0159754Y0199679D01*
X0159702Y0199642D01*
X0159653Y0199603D01*
X0159606Y0199560D01*
X0159562Y0199515D01*
X0159521Y0199466D01*
X0159483Y0199416D01*
X0159448Y0199363D01*
X0159416Y0199308D01*
X0159388Y0199252D01*
X0159363Y0199193D01*
X0159342Y0199134D01*
X0159325Y0199073D01*
X0159312Y0199011D01*
X0159302Y0198948D01*
X0159296Y0198885D01*
X0159294Y0198822D01*
X0161350Y0197794D02*
X0161348Y0197716D01*
X0161343Y0197638D01*
X0161333Y0197560D01*
X0161320Y0197483D01*
X0161304Y0197406D01*
X0161283Y0197331D01*
X0161260Y0197256D01*
X0161232Y0197183D01*
X0161201Y0197111D01*
X0161167Y0197041D01*
X0161130Y0196972D01*
X0161089Y0196905D01*
X0161045Y0196840D01*
X0160998Y0196778D01*
X0160948Y0196717D01*
X0160896Y0196660D01*
X0160840Y0196604D01*
X0160783Y0196552D01*
X0160722Y0196502D01*
X0160660Y0196455D01*
X0160595Y0196411D01*
X0160528Y0196370D01*
X0160459Y0196333D01*
X0160389Y0196299D01*
X0160317Y0196268D01*
X0160244Y0196240D01*
X0160169Y0196217D01*
X0160094Y0196196D01*
X0160017Y0196180D01*
X0159940Y0196167D01*
X0159862Y0196157D01*
X0159784Y0196152D01*
X0159706Y0196150D01*
X0169294Y0197178D02*
X0169296Y0197115D01*
X0169302Y0197052D01*
X0169312Y0196989D01*
X0169325Y0196927D01*
X0169342Y0196866D01*
X0169363Y0196807D01*
X0169388Y0196748D01*
X0169416Y0196692D01*
X0169448Y0196637D01*
X0169483Y0196584D01*
X0169521Y0196534D01*
X0169562Y0196485D01*
X0169606Y0196440D01*
X0169653Y0196397D01*
X0169702Y0196358D01*
X0169754Y0196321D01*
X0169808Y0196288D01*
X0169864Y0196258D01*
X0169921Y0196231D01*
X0169980Y0196208D01*
X0170041Y0196189D01*
X0170102Y0196174D01*
X0170164Y0196162D01*
X0170227Y0196154D01*
X0170290Y0196150D01*
X0170354Y0196150D01*
X0170417Y0196154D01*
X0170480Y0196162D01*
X0170542Y0196174D01*
X0170603Y0196189D01*
X0170664Y0196208D01*
X0170723Y0196231D01*
X0170780Y0196258D01*
X0170836Y0196288D01*
X0170890Y0196321D01*
X0170942Y0196358D01*
X0170991Y0196397D01*
X0171038Y0196440D01*
X0171082Y0196485D01*
X0171123Y0196534D01*
X0171161Y0196584D01*
X0171196Y0196637D01*
X0171228Y0196692D01*
X0171256Y0196748D01*
X0171281Y0196807D01*
X0171302Y0196866D01*
X0171319Y0196927D01*
X0171332Y0196989D01*
X0171342Y0197052D01*
X0171348Y0197115D01*
X0171350Y0197178D01*
X0171348Y0197241D01*
X0171342Y0197304D01*
X0171332Y0197367D01*
X0171319Y0197429D01*
X0171302Y0197490D01*
X0171281Y0197549D01*
X0171256Y0197608D01*
X0171228Y0197664D01*
X0171196Y0197719D01*
X0171161Y0197772D01*
X0171123Y0197822D01*
X0171082Y0197871D01*
X0171038Y0197916D01*
X0170991Y0197959D01*
X0170942Y0197998D01*
X0170890Y0198035D01*
X0170836Y0198068D01*
X0170780Y0198098D01*
X0170723Y0198125D01*
X0170664Y0198148D01*
X0170603Y0198167D01*
X0170542Y0198182D01*
X0170480Y0198194D01*
X0170417Y0198202D01*
X0170354Y0198206D01*
X0170290Y0198206D01*
X0170227Y0198202D01*
X0170164Y0198194D01*
X0170102Y0198182D01*
X0170041Y0198167D01*
X0169980Y0198148D01*
X0169921Y0198125D01*
X0169864Y0198098D01*
X0169808Y0198068D01*
X0169754Y0198035D01*
X0169702Y0197998D01*
X0169653Y0197959D01*
X0169606Y0197916D01*
X0169562Y0197871D01*
X0169521Y0197822D01*
X0169483Y0197772D01*
X0169448Y0197719D01*
X0169416Y0197664D01*
X0169388Y0197608D01*
X0169363Y0197549D01*
X0169342Y0197490D01*
X0169325Y0197429D01*
X0169312Y0197367D01*
X0169302Y0197304D01*
X0169296Y0197241D01*
X0169294Y0197178D01*
X0169500Y0199028D02*
X0169502Y0198972D01*
X0169508Y0198916D01*
X0169517Y0198861D01*
X0169530Y0198806D01*
X0169547Y0198753D01*
X0169568Y0198701D01*
X0169592Y0198650D01*
X0169620Y0198601D01*
X0169650Y0198554D01*
X0169684Y0198509D01*
X0169721Y0198467D01*
X0169761Y0198427D01*
X0169803Y0198390D01*
X0169848Y0198356D01*
X0169895Y0198326D01*
X0169944Y0198298D01*
X0169995Y0198274D01*
X0170047Y0198253D01*
X0170100Y0198236D01*
X0170155Y0198223D01*
X0170210Y0198214D01*
X0170266Y0198208D01*
X0170322Y0198206D01*
X0170378Y0198208D01*
X0170434Y0198214D01*
X0170489Y0198223D01*
X0170544Y0198236D01*
X0170597Y0198253D01*
X0170649Y0198274D01*
X0170700Y0198298D01*
X0170749Y0198326D01*
X0170796Y0198356D01*
X0170841Y0198390D01*
X0170883Y0198427D01*
X0170923Y0198467D01*
X0170960Y0198509D01*
X0170994Y0198554D01*
X0171024Y0198601D01*
X0171052Y0198650D01*
X0171076Y0198701D01*
X0171097Y0198753D01*
X0171114Y0198806D01*
X0171127Y0198861D01*
X0171136Y0198916D01*
X0171142Y0198972D01*
X0171144Y0199028D01*
X0171142Y0199084D01*
X0171136Y0199140D01*
X0171127Y0199195D01*
X0171114Y0199250D01*
X0171097Y0199303D01*
X0171076Y0199355D01*
X0171052Y0199406D01*
X0171024Y0199455D01*
X0170994Y0199502D01*
X0170960Y0199547D01*
X0170923Y0199589D01*
X0170883Y0199629D01*
X0170841Y0199666D01*
X0170796Y0199700D01*
X0170749Y0199730D01*
X0170700Y0199758D01*
X0170649Y0199782D01*
X0170597Y0199803D01*
X0170544Y0199820D01*
X0170489Y0199833D01*
X0170434Y0199842D01*
X0170378Y0199848D01*
X0170322Y0199850D01*
X0170266Y0199848D01*
X0170210Y0199842D01*
X0170155Y0199833D01*
X0170100Y0199820D01*
X0170047Y0199803D01*
X0169995Y0199782D01*
X0169944Y0199758D01*
X0169895Y0199730D01*
X0169848Y0199700D01*
X0169803Y0199666D01*
X0169761Y0199629D01*
X0169721Y0199589D01*
X0169684Y0199547D01*
X0169650Y0199502D01*
X0169620Y0199455D01*
X0169592Y0199406D01*
X0169568Y0199355D01*
X0169547Y0199303D01*
X0169530Y0199250D01*
X0169517Y0199195D01*
X0169508Y0199140D01*
X0169502Y0199084D01*
X0169500Y0199028D01*
X0185294Y0199439D02*
X0185294Y0199850D01*
X0187350Y0199850D01*
X0186322Y0196150D01*
X0195294Y0197178D02*
X0195294Y0198206D01*
X0196528Y0198206D01*
X0195295Y0198206D02*
X0195297Y0198287D01*
X0195303Y0198367D01*
X0195313Y0198447D01*
X0195327Y0198527D01*
X0195344Y0198605D01*
X0195366Y0198683D01*
X0195391Y0198760D01*
X0195420Y0198835D01*
X0195453Y0198909D01*
X0195489Y0198981D01*
X0195529Y0199051D01*
X0195572Y0199119D01*
X0195619Y0199185D01*
X0195668Y0199249D01*
X0195721Y0199310D01*
X0195777Y0199368D01*
X0195835Y0199424D01*
X0195896Y0199477D01*
X0195960Y0199526D01*
X0196026Y0199573D01*
X0196094Y0199616D01*
X0196164Y0199656D01*
X0196236Y0199692D01*
X0196310Y0199725D01*
X0196385Y0199754D01*
X0196462Y0199779D01*
X0196540Y0199801D01*
X0196618Y0199818D01*
X0196698Y0199832D01*
X0196778Y0199842D01*
X0196858Y0199848D01*
X0196939Y0199850D01*
X0197350Y0197383D02*
X0197350Y0197178D01*
X0197350Y0197383D02*
X0197348Y0197439D01*
X0197342Y0197495D01*
X0197333Y0197550D01*
X0197320Y0197605D01*
X0197303Y0197658D01*
X0197282Y0197710D01*
X0197258Y0197761D01*
X0197230Y0197810D01*
X0197200Y0197857D01*
X0197166Y0197902D01*
X0197129Y0197944D01*
X0197089Y0197984D01*
X0197047Y0198021D01*
X0197002Y0198055D01*
X0196955Y0198085D01*
X0196906Y0198113D01*
X0196855Y0198137D01*
X0196803Y0198158D01*
X0196750Y0198175D01*
X0196695Y0198188D01*
X0196640Y0198197D01*
X0196584Y0198203D01*
X0196528Y0198205D01*
X0197350Y0197178D02*
X0197348Y0197115D01*
X0197342Y0197052D01*
X0197332Y0196989D01*
X0197319Y0196927D01*
X0197302Y0196866D01*
X0197281Y0196807D01*
X0197256Y0196748D01*
X0197228Y0196692D01*
X0197196Y0196637D01*
X0197161Y0196584D01*
X0197123Y0196534D01*
X0197082Y0196485D01*
X0197038Y0196440D01*
X0196991Y0196397D01*
X0196942Y0196358D01*
X0196890Y0196321D01*
X0196836Y0196288D01*
X0196780Y0196258D01*
X0196723Y0196231D01*
X0196664Y0196208D01*
X0196603Y0196189D01*
X0196542Y0196174D01*
X0196480Y0196162D01*
X0196417Y0196154D01*
X0196354Y0196150D01*
X0196290Y0196150D01*
X0196227Y0196154D01*
X0196164Y0196162D01*
X0196102Y0196174D01*
X0196041Y0196189D01*
X0195980Y0196208D01*
X0195921Y0196231D01*
X0195864Y0196258D01*
X0195808Y0196288D01*
X0195754Y0196321D01*
X0195702Y0196358D01*
X0195653Y0196397D01*
X0195606Y0196440D01*
X0195562Y0196485D01*
X0195521Y0196534D01*
X0195483Y0196584D01*
X0195448Y0196637D01*
X0195416Y0196692D01*
X0195388Y0196748D01*
X0195363Y0196807D01*
X0195342Y0196866D01*
X0195325Y0196927D01*
X0195312Y0196989D01*
X0195302Y0197052D01*
X0195296Y0197115D01*
X0195294Y0197178D01*
X0205294Y0198206D02*
X0205294Y0199850D01*
X0207350Y0199850D01*
X0206528Y0198206D02*
X0205294Y0198206D01*
X0206528Y0198205D02*
X0206584Y0198203D01*
X0206640Y0198197D01*
X0206695Y0198188D01*
X0206750Y0198175D01*
X0206803Y0198158D01*
X0206855Y0198137D01*
X0206906Y0198113D01*
X0206955Y0198085D01*
X0207002Y0198055D01*
X0207047Y0198021D01*
X0207089Y0197984D01*
X0207129Y0197944D01*
X0207166Y0197902D01*
X0207200Y0197857D01*
X0207230Y0197810D01*
X0207258Y0197761D01*
X0207282Y0197710D01*
X0207303Y0197658D01*
X0207320Y0197605D01*
X0207333Y0197550D01*
X0207342Y0197495D01*
X0207348Y0197439D01*
X0207350Y0197383D01*
X0207350Y0196972D01*
X0207348Y0196916D01*
X0207342Y0196860D01*
X0207333Y0196805D01*
X0207320Y0196750D01*
X0207303Y0196697D01*
X0207282Y0196645D01*
X0207258Y0196594D01*
X0207230Y0196545D01*
X0207200Y0196498D01*
X0207166Y0196453D01*
X0207129Y0196411D01*
X0207089Y0196371D01*
X0207047Y0196334D01*
X0207002Y0196300D01*
X0206955Y0196270D01*
X0206906Y0196242D01*
X0206855Y0196218D01*
X0206803Y0196197D01*
X0206750Y0196180D01*
X0206695Y0196167D01*
X0206640Y0196158D01*
X0206584Y0196152D01*
X0206528Y0196150D01*
X0205294Y0196150D01*
X0215294Y0196972D02*
X0217350Y0196972D01*
X0216733Y0197794D02*
X0216733Y0196150D01*
X0215294Y0196972D02*
X0216117Y0199850D01*
X0225294Y0199850D02*
X0226528Y0199850D01*
X0226584Y0199848D01*
X0226640Y0199842D01*
X0226695Y0199833D01*
X0226750Y0199820D01*
X0226803Y0199803D01*
X0226855Y0199782D01*
X0226906Y0199758D01*
X0226955Y0199730D01*
X0227002Y0199700D01*
X0227047Y0199666D01*
X0227089Y0199629D01*
X0227129Y0199589D01*
X0227166Y0199547D01*
X0227200Y0199502D01*
X0227230Y0199455D01*
X0227258Y0199406D01*
X0227282Y0199355D01*
X0227303Y0199303D01*
X0227320Y0199250D01*
X0227333Y0199195D01*
X0227342Y0199140D01*
X0227348Y0199084D01*
X0227350Y0199028D01*
X0227348Y0198972D01*
X0227342Y0198916D01*
X0227333Y0198861D01*
X0227320Y0198806D01*
X0227303Y0198753D01*
X0227282Y0198701D01*
X0227258Y0198650D01*
X0227230Y0198601D01*
X0227200Y0198554D01*
X0227166Y0198509D01*
X0227129Y0198467D01*
X0227089Y0198427D01*
X0227047Y0198390D01*
X0227002Y0198356D01*
X0226955Y0198326D01*
X0226906Y0198298D01*
X0226855Y0198274D01*
X0226803Y0198253D01*
X0226750Y0198236D01*
X0226695Y0198223D01*
X0226640Y0198214D01*
X0226584Y0198208D01*
X0226528Y0198206D01*
X0225706Y0198206D01*
X0226322Y0198206D02*
X0226385Y0198204D01*
X0226448Y0198198D01*
X0226511Y0198188D01*
X0226573Y0198175D01*
X0226634Y0198158D01*
X0226693Y0198137D01*
X0226752Y0198112D01*
X0226808Y0198084D01*
X0226863Y0198052D01*
X0226916Y0198017D01*
X0226966Y0197979D01*
X0227015Y0197938D01*
X0227060Y0197894D01*
X0227103Y0197847D01*
X0227142Y0197798D01*
X0227179Y0197746D01*
X0227212Y0197692D01*
X0227242Y0197636D01*
X0227269Y0197579D01*
X0227292Y0197520D01*
X0227311Y0197459D01*
X0227326Y0197398D01*
X0227338Y0197336D01*
X0227346Y0197273D01*
X0227350Y0197210D01*
X0227350Y0197146D01*
X0227346Y0197083D01*
X0227338Y0197020D01*
X0227326Y0196958D01*
X0227311Y0196897D01*
X0227292Y0196836D01*
X0227269Y0196777D01*
X0227242Y0196720D01*
X0227212Y0196664D01*
X0227179Y0196610D01*
X0227142Y0196558D01*
X0227103Y0196509D01*
X0227060Y0196462D01*
X0227015Y0196418D01*
X0226966Y0196377D01*
X0226916Y0196339D01*
X0226863Y0196304D01*
X0226808Y0196272D01*
X0226752Y0196244D01*
X0226693Y0196219D01*
X0226634Y0196198D01*
X0226573Y0196181D01*
X0226511Y0196168D01*
X0226448Y0196158D01*
X0226385Y0196152D01*
X0226322Y0196150D01*
X0225294Y0196150D01*
X0235294Y0196150D02*
X0237350Y0196150D01*
X0235294Y0196150D02*
X0237042Y0198206D01*
X0236425Y0199850D02*
X0236357Y0199848D01*
X0236289Y0199842D01*
X0236222Y0199833D01*
X0236156Y0199819D01*
X0236090Y0199802D01*
X0236025Y0199781D01*
X0235962Y0199756D01*
X0235900Y0199728D01*
X0235840Y0199696D01*
X0235782Y0199661D01*
X0235726Y0199623D01*
X0235673Y0199581D01*
X0235621Y0199537D01*
X0235573Y0199489D01*
X0235527Y0199439D01*
X0235484Y0199387D01*
X0235444Y0199332D01*
X0235407Y0199275D01*
X0235374Y0199216D01*
X0235344Y0199155D01*
X0235318Y0199092D01*
X0235295Y0199028D01*
X0237042Y0198205D02*
X0237085Y0198249D01*
X0237126Y0198296D01*
X0237163Y0198345D01*
X0237198Y0198396D01*
X0237229Y0198450D01*
X0237257Y0198505D01*
X0237281Y0198562D01*
X0237302Y0198620D01*
X0237319Y0198680D01*
X0237333Y0198740D01*
X0237342Y0198801D01*
X0237348Y0198863D01*
X0237350Y0198925D01*
X0237348Y0198983D01*
X0237343Y0199041D01*
X0237334Y0199098D01*
X0237321Y0199155D01*
X0237305Y0199211D01*
X0237285Y0199266D01*
X0237262Y0199319D01*
X0237236Y0199371D01*
X0237206Y0199421D01*
X0237173Y0199469D01*
X0237138Y0199515D01*
X0237099Y0199558D01*
X0237058Y0199599D01*
X0237015Y0199638D01*
X0236969Y0199673D01*
X0236921Y0199706D01*
X0236871Y0199736D01*
X0236819Y0199762D01*
X0236766Y0199785D01*
X0236711Y0199805D01*
X0236655Y0199821D01*
X0236598Y0199834D01*
X0236541Y0199843D01*
X0236483Y0199848D01*
X0236425Y0199850D01*
X0245294Y0199028D02*
X0246322Y0199850D01*
X0246322Y0196150D01*
X0245294Y0196150D02*
X0247350Y0196150D01*
X0257042Y0196664D02*
X0257087Y0196760D01*
X0257128Y0196858D01*
X0257166Y0196958D01*
X0257201Y0197058D01*
X0257232Y0197160D01*
X0257260Y0197263D01*
X0257283Y0197366D01*
X0257304Y0197471D01*
X0257320Y0197576D01*
X0257333Y0197681D01*
X0257343Y0197787D01*
X0257348Y0197894D01*
X0257350Y0198000D01*
X0255295Y0198000D02*
X0255297Y0198106D01*
X0255302Y0198213D01*
X0255312Y0198319D01*
X0255325Y0198424D01*
X0255341Y0198529D01*
X0255362Y0198634D01*
X0255385Y0198737D01*
X0255413Y0198840D01*
X0255444Y0198942D01*
X0255479Y0199042D01*
X0255517Y0199142D01*
X0255558Y0199240D01*
X0255603Y0199336D01*
X0256322Y0199850D02*
X0256374Y0199848D01*
X0256427Y0199843D01*
X0256478Y0199834D01*
X0256529Y0199821D01*
X0256579Y0199805D01*
X0256628Y0199786D01*
X0256675Y0199763D01*
X0256721Y0199737D01*
X0256764Y0199708D01*
X0256806Y0199676D01*
X0256845Y0199642D01*
X0256882Y0199604D01*
X0256916Y0199564D01*
X0256948Y0199522D01*
X0256976Y0199478D01*
X0257001Y0199432D01*
X0257023Y0199385D01*
X0257042Y0199336D01*
X0257144Y0199028D02*
X0255500Y0196972D01*
X0256322Y0196150D02*
X0256374Y0196152D01*
X0256427Y0196157D01*
X0256478Y0196166D01*
X0256529Y0196179D01*
X0256579Y0196195D01*
X0256628Y0196214D01*
X0256675Y0196237D01*
X0256721Y0196263D01*
X0256764Y0196292D01*
X0256806Y0196324D01*
X0256845Y0196358D01*
X0256882Y0196396D01*
X0256916Y0196436D01*
X0256948Y0196478D01*
X0256976Y0196522D01*
X0257001Y0196568D01*
X0257023Y0196615D01*
X0257042Y0196664D01*
X0256322Y0196150D02*
X0256270Y0196152D01*
X0256217Y0196157D01*
X0256166Y0196166D01*
X0256115Y0196179D01*
X0256065Y0196195D01*
X0256016Y0196214D01*
X0255969Y0196237D01*
X0255923Y0196263D01*
X0255880Y0196292D01*
X0255838Y0196324D01*
X0255799Y0196358D01*
X0255762Y0196396D01*
X0255728Y0196436D01*
X0255696Y0196478D01*
X0255668Y0196522D01*
X0255643Y0196568D01*
X0255621Y0196615D01*
X0255602Y0196664D01*
X0257350Y0198000D02*
X0257348Y0198106D01*
X0257343Y0198213D01*
X0257333Y0198319D01*
X0257320Y0198424D01*
X0257304Y0198529D01*
X0257283Y0198634D01*
X0257260Y0198737D01*
X0257232Y0198840D01*
X0257201Y0198942D01*
X0257166Y0199042D01*
X0257128Y0199142D01*
X0257087Y0199240D01*
X0257042Y0199336D01*
X0256322Y0199850D02*
X0256270Y0199848D01*
X0256217Y0199843D01*
X0256166Y0199834D01*
X0256115Y0199821D01*
X0256065Y0199805D01*
X0256016Y0199786D01*
X0255969Y0199763D01*
X0255923Y0199737D01*
X0255880Y0199708D01*
X0255838Y0199676D01*
X0255799Y0199642D01*
X0255762Y0199604D01*
X0255728Y0199564D01*
X0255696Y0199522D01*
X0255668Y0199478D01*
X0255643Y0199432D01*
X0255621Y0199385D01*
X0255602Y0199336D01*
X0255295Y0198000D02*
X0255297Y0197894D01*
X0255302Y0197787D01*
X0255312Y0197681D01*
X0255325Y0197576D01*
X0255341Y0197471D01*
X0255362Y0197366D01*
X0255385Y0197263D01*
X0255413Y0197160D01*
X0255444Y0197058D01*
X0255479Y0196958D01*
X0255517Y0196858D01*
X0255558Y0196760D01*
X0255603Y0196664D01*
X0231945Y0211178D02*
X0231945Y0212822D01*
X0231946Y0212822D02*
X0231944Y0212885D01*
X0231938Y0212948D01*
X0231928Y0213011D01*
X0231915Y0213073D01*
X0231898Y0213134D01*
X0231877Y0213193D01*
X0231852Y0213252D01*
X0231824Y0213308D01*
X0231792Y0213363D01*
X0231757Y0213416D01*
X0231719Y0213466D01*
X0231678Y0213515D01*
X0231634Y0213560D01*
X0231587Y0213603D01*
X0231538Y0213642D01*
X0231486Y0213679D01*
X0231432Y0213712D01*
X0231376Y0213742D01*
X0231319Y0213769D01*
X0231260Y0213792D01*
X0231199Y0213811D01*
X0231138Y0213826D01*
X0231076Y0213838D01*
X0231013Y0213846D01*
X0230950Y0213850D01*
X0230886Y0213850D01*
X0230823Y0213846D01*
X0230760Y0213838D01*
X0230698Y0213826D01*
X0230637Y0213811D01*
X0230576Y0213792D01*
X0230517Y0213769D01*
X0230460Y0213742D01*
X0230404Y0213712D01*
X0230350Y0213679D01*
X0230298Y0213642D01*
X0230249Y0213603D01*
X0230202Y0213560D01*
X0230158Y0213515D01*
X0230117Y0213466D01*
X0230079Y0213416D01*
X0230044Y0213363D01*
X0230012Y0213308D01*
X0229984Y0213252D01*
X0229959Y0213193D01*
X0229938Y0213134D01*
X0229921Y0213073D01*
X0229908Y0213011D01*
X0229898Y0212948D01*
X0229892Y0212885D01*
X0229890Y0212822D01*
X0229890Y0211178D01*
X0229892Y0211115D01*
X0229898Y0211052D01*
X0229908Y0210989D01*
X0229921Y0210927D01*
X0229938Y0210866D01*
X0229959Y0210807D01*
X0229984Y0210748D01*
X0230012Y0210692D01*
X0230044Y0210637D01*
X0230079Y0210584D01*
X0230117Y0210534D01*
X0230158Y0210485D01*
X0230202Y0210440D01*
X0230249Y0210397D01*
X0230298Y0210358D01*
X0230350Y0210321D01*
X0230404Y0210288D01*
X0230460Y0210258D01*
X0230517Y0210231D01*
X0230576Y0210208D01*
X0230637Y0210189D01*
X0230698Y0210174D01*
X0230760Y0210162D01*
X0230823Y0210154D01*
X0230886Y0210150D01*
X0230950Y0210150D01*
X0231013Y0210154D01*
X0231076Y0210162D01*
X0231138Y0210174D01*
X0231199Y0210189D01*
X0231260Y0210208D01*
X0231319Y0210231D01*
X0231376Y0210258D01*
X0231432Y0210288D01*
X0231486Y0210321D01*
X0231538Y0210358D01*
X0231587Y0210397D01*
X0231634Y0210440D01*
X0231678Y0210485D01*
X0231719Y0210534D01*
X0231757Y0210584D01*
X0231792Y0210637D01*
X0231824Y0210692D01*
X0231852Y0210748D01*
X0231877Y0210807D01*
X0231898Y0210866D01*
X0231915Y0210927D01*
X0231928Y0210989D01*
X0231938Y0211052D01*
X0231944Y0211115D01*
X0231946Y0211178D01*
X0228500Y0214261D02*
X0226855Y0209739D01*
X0225569Y0210150D02*
X0224747Y0210150D01*
X0225158Y0210150D02*
X0225158Y0213850D01*
X0224747Y0213850D02*
X0225569Y0213850D01*
X0221025Y0213850D02*
X0221025Y0210767D01*
X0221027Y0210719D01*
X0221033Y0210670D01*
X0221042Y0210623D01*
X0221055Y0210576D01*
X0221072Y0210531D01*
X0221092Y0210487D01*
X0221116Y0210445D01*
X0221143Y0210404D01*
X0221173Y0210366D01*
X0221206Y0210331D01*
X0221241Y0210298D01*
X0221279Y0210268D01*
X0221320Y0210241D01*
X0221362Y0210217D01*
X0221406Y0210197D01*
X0221451Y0210180D01*
X0221498Y0210167D01*
X0221545Y0210158D01*
X0221594Y0210152D01*
X0221642Y0210150D01*
X0219362Y0210150D02*
X0219362Y0212000D01*
X0219362Y0211589D02*
X0218437Y0211589D01*
X0219362Y0212000D02*
X0219360Y0212048D01*
X0219354Y0212097D01*
X0219345Y0212144D01*
X0219332Y0212191D01*
X0219315Y0212236D01*
X0219295Y0212280D01*
X0219271Y0212322D01*
X0219244Y0212363D01*
X0219214Y0212401D01*
X0219181Y0212436D01*
X0219146Y0212469D01*
X0219108Y0212499D01*
X0219067Y0212526D01*
X0219025Y0212550D01*
X0218981Y0212570D01*
X0218936Y0212587D01*
X0218889Y0212600D01*
X0218842Y0212609D01*
X0218793Y0212615D01*
X0218745Y0212617D01*
X0217923Y0212617D01*
X0216386Y0212617D02*
X0215153Y0212617D01*
X0213998Y0212617D02*
X0213998Y0210150D01*
X0212402Y0210150D02*
X0211374Y0210150D01*
X0211326Y0210152D01*
X0211277Y0210158D01*
X0211230Y0210167D01*
X0211183Y0210180D01*
X0211138Y0210197D01*
X0211094Y0210217D01*
X0211052Y0210241D01*
X0211011Y0210268D01*
X0210973Y0210298D01*
X0210938Y0210331D01*
X0210905Y0210366D01*
X0210875Y0210404D01*
X0210848Y0210445D01*
X0210824Y0210487D01*
X0210804Y0210531D01*
X0210787Y0210576D01*
X0210774Y0210623D01*
X0210765Y0210670D01*
X0210759Y0210719D01*
X0210757Y0210767D01*
X0210758Y0210767D02*
X0210758Y0212000D01*
X0210757Y0212000D02*
X0210759Y0212048D01*
X0210765Y0212097D01*
X0210774Y0212144D01*
X0210787Y0212191D01*
X0210804Y0212236D01*
X0210824Y0212280D01*
X0210848Y0212322D01*
X0210875Y0212363D01*
X0210905Y0212401D01*
X0210938Y0212436D01*
X0210973Y0212469D01*
X0211011Y0212499D01*
X0211052Y0212526D01*
X0211094Y0212550D01*
X0211138Y0212570D01*
X0211183Y0212587D01*
X0211230Y0212600D01*
X0211277Y0212609D01*
X0211326Y0212615D01*
X0211374Y0212617D01*
X0212402Y0212617D01*
X0212402Y0209533D01*
X0212400Y0209485D01*
X0212394Y0209436D01*
X0212385Y0209389D01*
X0212372Y0209342D01*
X0212355Y0209297D01*
X0212335Y0209253D01*
X0212311Y0209211D01*
X0212284Y0209170D01*
X0212254Y0209132D01*
X0212221Y0209097D01*
X0212186Y0209064D01*
X0212148Y0209034D01*
X0212107Y0209007D01*
X0212065Y0208983D01*
X0212021Y0208963D01*
X0211976Y0208946D01*
X0211929Y0208933D01*
X0211882Y0208924D01*
X0211833Y0208918D01*
X0211785Y0208916D01*
X0211785Y0208917D02*
X0210963Y0208917D01*
X0209318Y0210150D02*
X0209318Y0212617D01*
X0209421Y0213644D02*
X0209215Y0213644D01*
X0209215Y0213850D01*
X0209421Y0213850D01*
X0209421Y0213644D01*
X0207706Y0212822D02*
X0207706Y0211178D01*
X0207704Y0211116D01*
X0207699Y0211054D01*
X0207689Y0210993D01*
X0207676Y0210932D01*
X0207659Y0210872D01*
X0207639Y0210813D01*
X0207615Y0210756D01*
X0207588Y0210700D01*
X0207558Y0210646D01*
X0207524Y0210594D01*
X0207487Y0210544D01*
X0207447Y0210496D01*
X0207405Y0210451D01*
X0207360Y0210409D01*
X0207312Y0210369D01*
X0207262Y0210332D01*
X0207210Y0210298D01*
X0207156Y0210268D01*
X0207100Y0210241D01*
X0207043Y0210217D01*
X0206984Y0210197D01*
X0206924Y0210180D01*
X0206863Y0210167D01*
X0206802Y0210157D01*
X0206740Y0210152D01*
X0206678Y0210150D01*
X0205650Y0210150D01*
X0205650Y0213850D01*
X0206678Y0213850D01*
X0206740Y0213848D01*
X0206802Y0213843D01*
X0206863Y0213833D01*
X0206924Y0213820D01*
X0206984Y0213803D01*
X0207043Y0213783D01*
X0207100Y0213759D01*
X0207156Y0213732D01*
X0207210Y0213702D01*
X0207262Y0213668D01*
X0207312Y0213631D01*
X0207360Y0213591D01*
X0207405Y0213549D01*
X0207447Y0213504D01*
X0207487Y0213456D01*
X0207524Y0213406D01*
X0207558Y0213354D01*
X0207588Y0213300D01*
X0207615Y0213244D01*
X0207639Y0213187D01*
X0207659Y0213128D01*
X0207676Y0213068D01*
X0207689Y0213007D01*
X0207699Y0212946D01*
X0207704Y0212884D01*
X0207706Y0212822D01*
X0213895Y0213644D02*
X0214101Y0213644D01*
X0214101Y0213850D01*
X0213895Y0213850D01*
X0213895Y0213644D01*
X0215564Y0213850D02*
X0215564Y0210767D01*
X0215566Y0210719D01*
X0215572Y0210670D01*
X0215581Y0210623D01*
X0215594Y0210576D01*
X0215611Y0210531D01*
X0215631Y0210487D01*
X0215655Y0210445D01*
X0215682Y0210404D01*
X0215712Y0210366D01*
X0215745Y0210331D01*
X0215780Y0210298D01*
X0215818Y0210268D01*
X0215859Y0210241D01*
X0215901Y0210217D01*
X0215945Y0210197D01*
X0215990Y0210180D01*
X0216037Y0210167D01*
X0216084Y0210158D01*
X0216133Y0210152D01*
X0216181Y0210150D01*
X0216386Y0210150D01*
X0218437Y0210150D02*
X0219362Y0210150D01*
X0218437Y0210150D02*
X0218385Y0210152D01*
X0218332Y0210158D01*
X0218281Y0210167D01*
X0218230Y0210180D01*
X0218180Y0210197D01*
X0218132Y0210218D01*
X0218085Y0210242D01*
X0218040Y0210269D01*
X0217998Y0210300D01*
X0217957Y0210334D01*
X0217919Y0210370D01*
X0217884Y0210409D01*
X0217852Y0210451D01*
X0217823Y0210494D01*
X0217798Y0210540D01*
X0217775Y0210588D01*
X0217757Y0210637D01*
X0217741Y0210687D01*
X0217730Y0210738D01*
X0217722Y0210790D01*
X0217718Y0210843D01*
X0217718Y0210895D01*
X0217722Y0210948D01*
X0217730Y0211000D01*
X0217741Y0211051D01*
X0217757Y0211101D01*
X0217775Y0211150D01*
X0217798Y0211198D01*
X0217823Y0211244D01*
X0217852Y0211287D01*
X0217884Y0211329D01*
X0217919Y0211368D01*
X0217957Y0211404D01*
X0217998Y0211438D01*
X0218040Y0211469D01*
X0218085Y0211496D01*
X0218132Y0211520D01*
X0218180Y0211541D01*
X0218230Y0211558D01*
X0218281Y0211571D01*
X0218332Y0211580D01*
X0218385Y0211586D01*
X0218437Y0211588D01*
X0155945Y0211178D02*
X0155945Y0212822D01*
X0155946Y0212822D02*
X0155944Y0212885D01*
X0155938Y0212948D01*
X0155928Y0213011D01*
X0155915Y0213073D01*
X0155898Y0213134D01*
X0155877Y0213193D01*
X0155852Y0213252D01*
X0155824Y0213308D01*
X0155792Y0213363D01*
X0155757Y0213416D01*
X0155719Y0213466D01*
X0155678Y0213515D01*
X0155634Y0213560D01*
X0155587Y0213603D01*
X0155538Y0213642D01*
X0155486Y0213679D01*
X0155432Y0213712D01*
X0155376Y0213742D01*
X0155319Y0213769D01*
X0155260Y0213792D01*
X0155199Y0213811D01*
X0155138Y0213826D01*
X0155076Y0213838D01*
X0155013Y0213846D01*
X0154950Y0213850D01*
X0154886Y0213850D01*
X0154823Y0213846D01*
X0154760Y0213838D01*
X0154698Y0213826D01*
X0154637Y0213811D01*
X0154576Y0213792D01*
X0154517Y0213769D01*
X0154460Y0213742D01*
X0154404Y0213712D01*
X0154350Y0213679D01*
X0154298Y0213642D01*
X0154249Y0213603D01*
X0154202Y0213560D01*
X0154158Y0213515D01*
X0154117Y0213466D01*
X0154079Y0213416D01*
X0154044Y0213363D01*
X0154012Y0213308D01*
X0153984Y0213252D01*
X0153959Y0213193D01*
X0153938Y0213134D01*
X0153921Y0213073D01*
X0153908Y0213011D01*
X0153898Y0212948D01*
X0153892Y0212885D01*
X0153890Y0212822D01*
X0153890Y0211178D01*
X0153892Y0211115D01*
X0153898Y0211052D01*
X0153908Y0210989D01*
X0153921Y0210927D01*
X0153938Y0210866D01*
X0153959Y0210807D01*
X0153984Y0210748D01*
X0154012Y0210692D01*
X0154044Y0210637D01*
X0154079Y0210584D01*
X0154117Y0210534D01*
X0154158Y0210485D01*
X0154202Y0210440D01*
X0154249Y0210397D01*
X0154298Y0210358D01*
X0154350Y0210321D01*
X0154404Y0210288D01*
X0154460Y0210258D01*
X0154517Y0210231D01*
X0154576Y0210208D01*
X0154637Y0210189D01*
X0154698Y0210174D01*
X0154760Y0210162D01*
X0154823Y0210154D01*
X0154886Y0210150D01*
X0154950Y0210150D01*
X0155013Y0210154D01*
X0155076Y0210162D01*
X0155138Y0210174D01*
X0155199Y0210189D01*
X0155260Y0210208D01*
X0155319Y0210231D01*
X0155376Y0210258D01*
X0155432Y0210288D01*
X0155486Y0210321D01*
X0155538Y0210358D01*
X0155587Y0210397D01*
X0155634Y0210440D01*
X0155678Y0210485D01*
X0155719Y0210534D01*
X0155757Y0210584D01*
X0155792Y0210637D01*
X0155824Y0210692D01*
X0155852Y0210748D01*
X0155877Y0210807D01*
X0155898Y0210866D01*
X0155915Y0210927D01*
X0155928Y0210989D01*
X0155938Y0211052D01*
X0155944Y0211115D01*
X0155946Y0211178D01*
X0152500Y0214261D02*
X0150855Y0209739D01*
X0149569Y0210150D02*
X0148747Y0210150D01*
X0149158Y0210150D02*
X0149158Y0213850D01*
X0148747Y0213850D02*
X0149569Y0213850D01*
X0145025Y0213850D02*
X0145025Y0210767D01*
X0145027Y0210719D01*
X0145033Y0210670D01*
X0145042Y0210623D01*
X0145055Y0210576D01*
X0145072Y0210531D01*
X0145092Y0210487D01*
X0145116Y0210445D01*
X0145143Y0210404D01*
X0145173Y0210366D01*
X0145206Y0210331D01*
X0145241Y0210298D01*
X0145279Y0210268D01*
X0145320Y0210241D01*
X0145362Y0210217D01*
X0145406Y0210197D01*
X0145451Y0210180D01*
X0145498Y0210167D01*
X0145545Y0210158D01*
X0145594Y0210152D01*
X0145642Y0210150D01*
X0143362Y0210150D02*
X0143362Y0212000D01*
X0143362Y0211589D02*
X0142437Y0211589D01*
X0143362Y0212000D02*
X0143360Y0212048D01*
X0143354Y0212097D01*
X0143345Y0212144D01*
X0143332Y0212191D01*
X0143315Y0212236D01*
X0143295Y0212280D01*
X0143271Y0212322D01*
X0143244Y0212363D01*
X0143214Y0212401D01*
X0143181Y0212436D01*
X0143146Y0212469D01*
X0143108Y0212499D01*
X0143067Y0212526D01*
X0143025Y0212550D01*
X0142981Y0212570D01*
X0142936Y0212587D01*
X0142889Y0212600D01*
X0142842Y0212609D01*
X0142793Y0212615D01*
X0142745Y0212617D01*
X0141923Y0212617D01*
X0140386Y0212617D02*
X0139153Y0212617D01*
X0137998Y0212617D02*
X0137998Y0210150D01*
X0136402Y0210150D02*
X0135374Y0210150D01*
X0135326Y0210152D01*
X0135277Y0210158D01*
X0135230Y0210167D01*
X0135183Y0210180D01*
X0135138Y0210197D01*
X0135094Y0210217D01*
X0135052Y0210241D01*
X0135011Y0210268D01*
X0134973Y0210298D01*
X0134938Y0210331D01*
X0134905Y0210366D01*
X0134875Y0210404D01*
X0134848Y0210445D01*
X0134824Y0210487D01*
X0134804Y0210531D01*
X0134787Y0210576D01*
X0134774Y0210623D01*
X0134765Y0210670D01*
X0134759Y0210719D01*
X0134757Y0210767D01*
X0134758Y0210767D02*
X0134758Y0212000D01*
X0134757Y0212000D02*
X0134759Y0212048D01*
X0134765Y0212097D01*
X0134774Y0212144D01*
X0134787Y0212191D01*
X0134804Y0212236D01*
X0134824Y0212280D01*
X0134848Y0212322D01*
X0134875Y0212363D01*
X0134905Y0212401D01*
X0134938Y0212436D01*
X0134973Y0212469D01*
X0135011Y0212499D01*
X0135052Y0212526D01*
X0135094Y0212550D01*
X0135138Y0212570D01*
X0135183Y0212587D01*
X0135230Y0212600D01*
X0135277Y0212609D01*
X0135326Y0212615D01*
X0135374Y0212617D01*
X0136402Y0212617D01*
X0136402Y0209533D01*
X0136400Y0209485D01*
X0136394Y0209436D01*
X0136385Y0209389D01*
X0136372Y0209342D01*
X0136355Y0209297D01*
X0136335Y0209253D01*
X0136311Y0209211D01*
X0136284Y0209170D01*
X0136254Y0209132D01*
X0136221Y0209097D01*
X0136186Y0209064D01*
X0136148Y0209034D01*
X0136107Y0209007D01*
X0136065Y0208983D01*
X0136021Y0208963D01*
X0135976Y0208946D01*
X0135929Y0208933D01*
X0135882Y0208924D01*
X0135833Y0208918D01*
X0135785Y0208916D01*
X0135785Y0208917D02*
X0134963Y0208917D01*
X0133318Y0210150D02*
X0133318Y0212617D01*
X0133421Y0213644D02*
X0133215Y0213644D01*
X0133215Y0213850D01*
X0133421Y0213850D01*
X0133421Y0213644D01*
X0131706Y0212822D02*
X0131706Y0211178D01*
X0131704Y0211116D01*
X0131699Y0211054D01*
X0131689Y0210993D01*
X0131676Y0210932D01*
X0131659Y0210872D01*
X0131639Y0210813D01*
X0131615Y0210756D01*
X0131588Y0210700D01*
X0131558Y0210646D01*
X0131524Y0210594D01*
X0131487Y0210544D01*
X0131447Y0210496D01*
X0131405Y0210451D01*
X0131360Y0210409D01*
X0131312Y0210369D01*
X0131262Y0210332D01*
X0131210Y0210298D01*
X0131156Y0210268D01*
X0131100Y0210241D01*
X0131043Y0210217D01*
X0130984Y0210197D01*
X0130924Y0210180D01*
X0130863Y0210167D01*
X0130802Y0210157D01*
X0130740Y0210152D01*
X0130678Y0210150D01*
X0129650Y0210150D01*
X0129650Y0213850D01*
X0130678Y0213850D01*
X0130740Y0213848D01*
X0130802Y0213843D01*
X0130863Y0213833D01*
X0130924Y0213820D01*
X0130984Y0213803D01*
X0131043Y0213783D01*
X0131100Y0213759D01*
X0131156Y0213732D01*
X0131210Y0213702D01*
X0131262Y0213668D01*
X0131312Y0213631D01*
X0131360Y0213591D01*
X0131405Y0213549D01*
X0131447Y0213504D01*
X0131487Y0213456D01*
X0131524Y0213406D01*
X0131558Y0213354D01*
X0131588Y0213300D01*
X0131615Y0213244D01*
X0131639Y0213187D01*
X0131659Y0213128D01*
X0131676Y0213068D01*
X0131689Y0213007D01*
X0131699Y0212946D01*
X0131704Y0212884D01*
X0131706Y0212822D01*
X0137895Y0213644D02*
X0138101Y0213644D01*
X0138101Y0213850D01*
X0137895Y0213850D01*
X0137895Y0213644D01*
X0139564Y0213850D02*
X0139564Y0210767D01*
X0139566Y0210719D01*
X0139572Y0210670D01*
X0139581Y0210623D01*
X0139594Y0210576D01*
X0139611Y0210531D01*
X0139631Y0210487D01*
X0139655Y0210445D01*
X0139682Y0210404D01*
X0139712Y0210366D01*
X0139745Y0210331D01*
X0139780Y0210298D01*
X0139818Y0210268D01*
X0139859Y0210241D01*
X0139901Y0210217D01*
X0139945Y0210197D01*
X0139990Y0210180D01*
X0140037Y0210167D01*
X0140084Y0210158D01*
X0140133Y0210152D01*
X0140181Y0210150D01*
X0140386Y0210150D01*
X0142437Y0210150D02*
X0143362Y0210150D01*
X0142437Y0210150D02*
X0142385Y0210152D01*
X0142332Y0210158D01*
X0142281Y0210167D01*
X0142230Y0210180D01*
X0142180Y0210197D01*
X0142132Y0210218D01*
X0142085Y0210242D01*
X0142040Y0210269D01*
X0141998Y0210300D01*
X0141957Y0210334D01*
X0141919Y0210370D01*
X0141884Y0210409D01*
X0141852Y0210451D01*
X0141823Y0210494D01*
X0141798Y0210540D01*
X0141775Y0210588D01*
X0141757Y0210637D01*
X0141741Y0210687D01*
X0141730Y0210738D01*
X0141722Y0210790D01*
X0141718Y0210843D01*
X0141718Y0210895D01*
X0141722Y0210948D01*
X0141730Y0211000D01*
X0141741Y0211051D01*
X0141757Y0211101D01*
X0141775Y0211150D01*
X0141798Y0211198D01*
X0141823Y0211244D01*
X0141852Y0211287D01*
X0141884Y0211329D01*
X0141919Y0211368D01*
X0141957Y0211404D01*
X0141998Y0211438D01*
X0142040Y0211469D01*
X0142085Y0211496D01*
X0142132Y0211520D01*
X0142180Y0211541D01*
X0142230Y0211558D01*
X0142281Y0211571D01*
X0142332Y0211580D01*
X0142385Y0211586D01*
X0142437Y0211588D01*
X0122528Y0199850D02*
X0121294Y0199850D01*
X0122528Y0199850D02*
X0122584Y0199848D01*
X0122640Y0199842D01*
X0122695Y0199833D01*
X0122750Y0199820D01*
X0122803Y0199803D01*
X0122855Y0199782D01*
X0122906Y0199758D01*
X0122955Y0199730D01*
X0123002Y0199700D01*
X0123047Y0199666D01*
X0123089Y0199629D01*
X0123129Y0199589D01*
X0123166Y0199547D01*
X0123200Y0199502D01*
X0123230Y0199455D01*
X0123258Y0199406D01*
X0123282Y0199355D01*
X0123303Y0199303D01*
X0123320Y0199250D01*
X0123333Y0199195D01*
X0123342Y0199140D01*
X0123348Y0199084D01*
X0123350Y0199028D01*
X0123348Y0198972D01*
X0123342Y0198916D01*
X0123333Y0198861D01*
X0123320Y0198806D01*
X0123303Y0198753D01*
X0123282Y0198701D01*
X0123258Y0198650D01*
X0123230Y0198601D01*
X0123200Y0198554D01*
X0123166Y0198509D01*
X0123129Y0198467D01*
X0123089Y0198427D01*
X0123047Y0198390D01*
X0123002Y0198356D01*
X0122955Y0198326D01*
X0122906Y0198298D01*
X0122855Y0198274D01*
X0122803Y0198253D01*
X0122750Y0198236D01*
X0122695Y0198223D01*
X0122640Y0198214D01*
X0122584Y0198208D01*
X0122528Y0198206D01*
X0121706Y0198206D01*
X0122322Y0198206D02*
X0122385Y0198204D01*
X0122448Y0198198D01*
X0122511Y0198188D01*
X0122573Y0198175D01*
X0122634Y0198158D01*
X0122693Y0198137D01*
X0122752Y0198112D01*
X0122808Y0198084D01*
X0122863Y0198052D01*
X0122916Y0198017D01*
X0122966Y0197979D01*
X0123015Y0197938D01*
X0123060Y0197894D01*
X0123103Y0197847D01*
X0123142Y0197798D01*
X0123179Y0197746D01*
X0123212Y0197692D01*
X0123242Y0197636D01*
X0123269Y0197579D01*
X0123292Y0197520D01*
X0123311Y0197459D01*
X0123326Y0197398D01*
X0123338Y0197336D01*
X0123346Y0197273D01*
X0123350Y0197210D01*
X0123350Y0197146D01*
X0123346Y0197083D01*
X0123338Y0197020D01*
X0123326Y0196958D01*
X0123311Y0196897D01*
X0123292Y0196836D01*
X0123269Y0196777D01*
X0123242Y0196720D01*
X0123212Y0196664D01*
X0123179Y0196610D01*
X0123142Y0196558D01*
X0123103Y0196509D01*
X0123060Y0196462D01*
X0123015Y0196418D01*
X0122966Y0196377D01*
X0122916Y0196339D01*
X0122863Y0196304D01*
X0122808Y0196272D01*
X0122752Y0196244D01*
X0122693Y0196219D01*
X0122634Y0196198D01*
X0122573Y0196181D01*
X0122511Y0196168D01*
X0122448Y0196158D01*
X0122385Y0196152D01*
X0122322Y0196150D01*
X0121294Y0196150D01*
X0119750Y0196150D02*
X0117694Y0196150D01*
X0118722Y0196150D02*
X0118722Y0199850D01*
X0117694Y0199028D01*
X0112822Y0210150D02*
X0111794Y0210150D01*
X0111746Y0210152D01*
X0111697Y0210158D01*
X0111650Y0210167D01*
X0111603Y0210180D01*
X0111558Y0210197D01*
X0111514Y0210217D01*
X0111472Y0210241D01*
X0111431Y0210268D01*
X0111393Y0210298D01*
X0111358Y0210331D01*
X0111325Y0210366D01*
X0111295Y0210404D01*
X0111268Y0210445D01*
X0111244Y0210487D01*
X0111224Y0210531D01*
X0111207Y0210576D01*
X0111194Y0210623D01*
X0111185Y0210670D01*
X0111179Y0210719D01*
X0111177Y0210767D01*
X0111178Y0210767D02*
X0111178Y0212000D01*
X0111177Y0212000D02*
X0111179Y0212048D01*
X0111185Y0212097D01*
X0111194Y0212144D01*
X0111207Y0212191D01*
X0111224Y0212236D01*
X0111244Y0212280D01*
X0111268Y0212322D01*
X0111295Y0212363D01*
X0111325Y0212401D01*
X0111358Y0212436D01*
X0111393Y0212469D01*
X0111431Y0212499D01*
X0111472Y0212526D01*
X0111514Y0212550D01*
X0111558Y0212570D01*
X0111603Y0212587D01*
X0111650Y0212600D01*
X0111697Y0212609D01*
X0111746Y0212615D01*
X0111794Y0212617D01*
X0112822Y0212617D01*
X0112822Y0213850D02*
X0112822Y0210150D01*
X0109600Y0210150D02*
X0109600Y0212000D01*
X0109598Y0212048D01*
X0109592Y0212097D01*
X0109583Y0212144D01*
X0109570Y0212191D01*
X0109553Y0212236D01*
X0109533Y0212280D01*
X0109509Y0212322D01*
X0109482Y0212363D01*
X0109452Y0212401D01*
X0109419Y0212436D01*
X0109384Y0212469D01*
X0109346Y0212499D01*
X0109305Y0212526D01*
X0109263Y0212550D01*
X0109219Y0212570D01*
X0109174Y0212587D01*
X0109127Y0212600D01*
X0109080Y0212609D01*
X0109031Y0212615D01*
X0108983Y0212617D01*
X0107956Y0212617D01*
X0107956Y0210150D01*
X0106206Y0210150D02*
X0106206Y0212206D01*
X0105589Y0212206D01*
X0104150Y0213028D02*
X0104152Y0213084D01*
X0104158Y0213140D01*
X0104167Y0213195D01*
X0104180Y0213250D01*
X0104197Y0213303D01*
X0104218Y0213355D01*
X0104242Y0213406D01*
X0104270Y0213455D01*
X0104300Y0213502D01*
X0104334Y0213547D01*
X0104371Y0213589D01*
X0104411Y0213629D01*
X0104453Y0213666D01*
X0104498Y0213700D01*
X0104545Y0213730D01*
X0104594Y0213758D01*
X0104645Y0213782D01*
X0104697Y0213803D01*
X0104750Y0213820D01*
X0104805Y0213833D01*
X0104860Y0213842D01*
X0104916Y0213848D01*
X0104972Y0213850D01*
X0106206Y0213850D01*
X0104150Y0213028D02*
X0104150Y0210972D01*
X0104152Y0210916D01*
X0104158Y0210860D01*
X0104167Y0210805D01*
X0104180Y0210750D01*
X0104197Y0210697D01*
X0104218Y0210645D01*
X0104242Y0210594D01*
X0104270Y0210545D01*
X0104300Y0210498D01*
X0104334Y0210453D01*
X0104371Y0210411D01*
X0104411Y0210371D01*
X0104453Y0210334D01*
X0104498Y0210300D01*
X0104545Y0210270D01*
X0104594Y0210242D01*
X0104645Y0210218D01*
X0104697Y0210197D01*
X0104750Y0210180D01*
X0104805Y0210167D01*
X0104860Y0210158D01*
X0104916Y0210152D01*
X0104972Y0210150D01*
X0106206Y0210150D01*
X0104282Y0199850D02*
X0104076Y0199850D01*
X0104028Y0199848D01*
X0103979Y0199842D01*
X0103932Y0199833D01*
X0103885Y0199820D01*
X0103840Y0199803D01*
X0103796Y0199783D01*
X0103754Y0199759D01*
X0103713Y0199732D01*
X0103675Y0199702D01*
X0103640Y0199669D01*
X0103607Y0199634D01*
X0103577Y0199596D01*
X0103550Y0199555D01*
X0103526Y0199513D01*
X0103506Y0199469D01*
X0103489Y0199424D01*
X0103476Y0199377D01*
X0103467Y0199330D01*
X0103461Y0199281D01*
X0103459Y0199233D01*
X0103460Y0199233D02*
X0103460Y0196150D01*
X0101786Y0196150D02*
X0100758Y0196150D01*
X0100710Y0196152D01*
X0100661Y0196158D01*
X0100614Y0196167D01*
X0100567Y0196180D01*
X0100522Y0196197D01*
X0100478Y0196217D01*
X0100436Y0196241D01*
X0100395Y0196268D01*
X0100357Y0196298D01*
X0100322Y0196331D01*
X0100289Y0196366D01*
X0100259Y0196404D01*
X0100232Y0196445D01*
X0100208Y0196487D01*
X0100188Y0196531D01*
X0100171Y0196576D01*
X0100158Y0196623D01*
X0100149Y0196670D01*
X0100143Y0196719D01*
X0100141Y0196767D01*
X0100141Y0197794D01*
X0100141Y0197383D02*
X0101786Y0197383D01*
X0101786Y0197794D01*
X0101785Y0197794D02*
X0101783Y0197850D01*
X0101777Y0197906D01*
X0101768Y0197961D01*
X0101755Y0198016D01*
X0101738Y0198069D01*
X0101717Y0198121D01*
X0101693Y0198172D01*
X0101665Y0198221D01*
X0101635Y0198268D01*
X0101601Y0198313D01*
X0101564Y0198355D01*
X0101524Y0198395D01*
X0101482Y0198432D01*
X0101437Y0198466D01*
X0101390Y0198496D01*
X0101341Y0198524D01*
X0101290Y0198548D01*
X0101238Y0198569D01*
X0101185Y0198586D01*
X0101130Y0198599D01*
X0101075Y0198608D01*
X0101019Y0198614D01*
X0100963Y0198616D01*
X0100907Y0198614D01*
X0100851Y0198608D01*
X0100796Y0198599D01*
X0100741Y0198586D01*
X0100688Y0198569D01*
X0100636Y0198548D01*
X0100585Y0198524D01*
X0100536Y0198496D01*
X0100489Y0198466D01*
X0100444Y0198432D01*
X0100402Y0198395D01*
X0100362Y0198355D01*
X0100325Y0198313D01*
X0100291Y0198268D01*
X0100261Y0198221D01*
X0100233Y0198172D01*
X0100209Y0198121D01*
X0100188Y0198069D01*
X0100171Y0198016D01*
X0100158Y0197961D01*
X0100149Y0197906D01*
X0100143Y0197850D01*
X0100141Y0197794D01*
X0098654Y0196150D02*
X0097831Y0197794D01*
X0097626Y0197794D02*
X0096598Y0197794D01*
X0097626Y0197794D02*
X0097689Y0197796D01*
X0097752Y0197802D01*
X0097815Y0197812D01*
X0097877Y0197825D01*
X0097938Y0197842D01*
X0097997Y0197863D01*
X0098056Y0197888D01*
X0098112Y0197916D01*
X0098167Y0197948D01*
X0098220Y0197983D01*
X0098270Y0198021D01*
X0098319Y0198062D01*
X0098364Y0198106D01*
X0098407Y0198153D01*
X0098446Y0198202D01*
X0098483Y0198254D01*
X0098516Y0198308D01*
X0098546Y0198364D01*
X0098573Y0198421D01*
X0098596Y0198480D01*
X0098615Y0198541D01*
X0098630Y0198602D01*
X0098642Y0198664D01*
X0098650Y0198727D01*
X0098654Y0198790D01*
X0098654Y0198854D01*
X0098650Y0198917D01*
X0098642Y0198980D01*
X0098630Y0199042D01*
X0098615Y0199103D01*
X0098596Y0199164D01*
X0098573Y0199223D01*
X0098546Y0199280D01*
X0098516Y0199336D01*
X0098483Y0199390D01*
X0098446Y0199442D01*
X0098407Y0199491D01*
X0098364Y0199538D01*
X0098319Y0199582D01*
X0098270Y0199623D01*
X0098220Y0199661D01*
X0098167Y0199696D01*
X0098112Y0199728D01*
X0098056Y0199756D01*
X0097997Y0199781D01*
X0097938Y0199802D01*
X0097877Y0199819D01*
X0097815Y0199832D01*
X0097752Y0199842D01*
X0097689Y0199848D01*
X0097626Y0199850D01*
X0096598Y0199850D01*
X0096598Y0196150D01*
X0095117Y0196150D02*
X0093883Y0199850D01*
X0092650Y0196150D01*
X0092958Y0197075D02*
X0094808Y0197075D01*
X0103049Y0198617D02*
X0104282Y0198617D01*
X0093231Y0210150D02*
X0091998Y0213850D01*
X0090764Y0210150D01*
X0091073Y0211075D02*
X0092923Y0211075D01*
X0089306Y0211178D02*
X0089306Y0212822D01*
X0089304Y0212884D01*
X0089299Y0212946D01*
X0089289Y0213007D01*
X0089276Y0213068D01*
X0089259Y0213128D01*
X0089239Y0213187D01*
X0089215Y0213244D01*
X0089188Y0213300D01*
X0089158Y0213354D01*
X0089124Y0213406D01*
X0089087Y0213456D01*
X0089047Y0213504D01*
X0089005Y0213549D01*
X0088960Y0213591D01*
X0088912Y0213631D01*
X0088862Y0213668D01*
X0088810Y0213702D01*
X0088756Y0213732D01*
X0088700Y0213759D01*
X0088643Y0213783D01*
X0088584Y0213803D01*
X0088524Y0213820D01*
X0088463Y0213833D01*
X0088402Y0213843D01*
X0088340Y0213848D01*
X0088278Y0213850D01*
X0087250Y0213850D01*
X0087250Y0210150D01*
X0088278Y0210150D01*
X0088340Y0210152D01*
X0088402Y0210157D01*
X0088463Y0210167D01*
X0088524Y0210180D01*
X0088584Y0210197D01*
X0088643Y0210217D01*
X0088700Y0210241D01*
X0088756Y0210268D01*
X0088810Y0210298D01*
X0088862Y0210332D01*
X0088912Y0210369D01*
X0088960Y0210409D01*
X0089005Y0210451D01*
X0089047Y0210496D01*
X0089087Y0210544D01*
X0089124Y0210594D01*
X0089158Y0210646D01*
X0089188Y0210700D01*
X0089215Y0210756D01*
X0089239Y0210813D01*
X0089259Y0210872D01*
X0089276Y0210932D01*
X0089289Y0210993D01*
X0089299Y0211054D01*
X0089304Y0211116D01*
X0089306Y0211178D01*
X0085294Y0211692D02*
X0084164Y0212308D01*
X0084575Y0213850D02*
X0084651Y0213848D01*
X0084727Y0213842D01*
X0084803Y0213833D01*
X0084878Y0213820D01*
X0084953Y0213803D01*
X0085026Y0213782D01*
X0085099Y0213758D01*
X0085170Y0213731D01*
X0085239Y0213699D01*
X0085308Y0213665D01*
X0085374Y0213627D01*
X0085438Y0213586D01*
X0085500Y0213542D01*
X0084164Y0212309D02*
X0084118Y0212338D01*
X0084075Y0212370D01*
X0084033Y0212404D01*
X0083994Y0212442D01*
X0083957Y0212481D01*
X0083923Y0212523D01*
X0083891Y0212568D01*
X0083863Y0212614D01*
X0083838Y0212662D01*
X0083815Y0212711D01*
X0083797Y0212762D01*
X0083781Y0212814D01*
X0083769Y0212866D01*
X0083760Y0212920D01*
X0083755Y0212974D01*
X0083753Y0213028D01*
X0083755Y0213084D01*
X0083761Y0213140D01*
X0083770Y0213195D01*
X0083783Y0213250D01*
X0083800Y0213303D01*
X0083821Y0213355D01*
X0083845Y0213406D01*
X0083873Y0213455D01*
X0083903Y0213502D01*
X0083937Y0213547D01*
X0083974Y0213589D01*
X0084014Y0213629D01*
X0084056Y0213666D01*
X0084101Y0213700D01*
X0084148Y0213730D01*
X0084197Y0213758D01*
X0084248Y0213782D01*
X0084300Y0213803D01*
X0084353Y0213820D01*
X0084408Y0213833D01*
X0084463Y0213842D01*
X0084519Y0213848D01*
X0084575Y0213850D01*
X0083650Y0210664D02*
X0083708Y0210608D01*
X0083768Y0210555D01*
X0083831Y0210504D01*
X0083897Y0210457D01*
X0083964Y0210413D01*
X0084034Y0210372D01*
X0084105Y0210334D01*
X0084178Y0210300D01*
X0084252Y0210269D01*
X0084328Y0210241D01*
X0084405Y0210217D01*
X0084483Y0210197D01*
X0084562Y0210180D01*
X0084642Y0210167D01*
X0084722Y0210157D01*
X0084802Y0210152D01*
X0084883Y0210150D01*
X0084939Y0210152D01*
X0084995Y0210158D01*
X0085050Y0210167D01*
X0085105Y0210180D01*
X0085158Y0210197D01*
X0085210Y0210218D01*
X0085261Y0210242D01*
X0085310Y0210270D01*
X0085357Y0210300D01*
X0085402Y0210334D01*
X0085444Y0210371D01*
X0085484Y0210411D01*
X0085521Y0210453D01*
X0085555Y0210498D01*
X0085585Y0210545D01*
X0085613Y0210594D01*
X0085637Y0210645D01*
X0085658Y0210697D01*
X0085675Y0210750D01*
X0085688Y0210805D01*
X0085697Y0210860D01*
X0085703Y0210916D01*
X0085705Y0210972D01*
X0085703Y0211026D01*
X0085698Y0211080D01*
X0085689Y0211134D01*
X0085677Y0211186D01*
X0085661Y0211238D01*
X0085643Y0211289D01*
X0085620Y0211338D01*
X0085595Y0211386D01*
X0085567Y0211432D01*
X0085535Y0211477D01*
X0085501Y0211519D01*
X0085464Y0211558D01*
X0085425Y0211596D01*
X0085383Y0211630D01*
X0085340Y0211662D01*
X0085294Y0211691D01*
X0081257Y0199850D02*
X0081257Y0196150D01*
X0082901Y0196150D01*
X0079764Y0196150D02*
X0078942Y0196150D01*
X0078886Y0196152D01*
X0078830Y0196158D01*
X0078775Y0196167D01*
X0078720Y0196180D01*
X0078667Y0196197D01*
X0078615Y0196218D01*
X0078564Y0196242D01*
X0078515Y0196270D01*
X0078468Y0196300D01*
X0078423Y0196334D01*
X0078381Y0196371D01*
X0078341Y0196411D01*
X0078304Y0196453D01*
X0078270Y0196498D01*
X0078240Y0196545D01*
X0078212Y0196594D01*
X0078188Y0196645D01*
X0078167Y0196697D01*
X0078150Y0196750D01*
X0078137Y0196805D01*
X0078128Y0196860D01*
X0078122Y0196916D01*
X0078120Y0196972D01*
X0078120Y0199028D01*
X0078122Y0199084D01*
X0078128Y0199140D01*
X0078137Y0199195D01*
X0078150Y0199250D01*
X0078167Y0199303D01*
X0078188Y0199355D01*
X0078212Y0199406D01*
X0078240Y0199455D01*
X0078270Y0199502D01*
X0078304Y0199547D01*
X0078341Y0199589D01*
X0078381Y0199629D01*
X0078423Y0199666D01*
X0078468Y0199700D01*
X0078515Y0199730D01*
X0078564Y0199758D01*
X0078615Y0199782D01*
X0078667Y0199803D01*
X0078720Y0199820D01*
X0078775Y0199833D01*
X0078830Y0199842D01*
X0078886Y0199848D01*
X0078942Y0199850D01*
X0079764Y0199850D01*
X0076294Y0197692D02*
X0075164Y0198308D01*
X0075575Y0199850D02*
X0075651Y0199848D01*
X0075727Y0199842D01*
X0075803Y0199833D01*
X0075878Y0199820D01*
X0075953Y0199803D01*
X0076026Y0199782D01*
X0076099Y0199758D01*
X0076170Y0199731D01*
X0076239Y0199699D01*
X0076308Y0199665D01*
X0076374Y0199627D01*
X0076438Y0199586D01*
X0076500Y0199542D01*
X0075164Y0198309D02*
X0075118Y0198338D01*
X0075075Y0198370D01*
X0075033Y0198404D01*
X0074994Y0198442D01*
X0074957Y0198481D01*
X0074923Y0198523D01*
X0074891Y0198568D01*
X0074863Y0198614D01*
X0074838Y0198662D01*
X0074815Y0198711D01*
X0074797Y0198762D01*
X0074781Y0198814D01*
X0074769Y0198866D01*
X0074760Y0198920D01*
X0074755Y0198974D01*
X0074753Y0199028D01*
X0074755Y0199084D01*
X0074761Y0199140D01*
X0074770Y0199195D01*
X0074783Y0199250D01*
X0074800Y0199303D01*
X0074821Y0199355D01*
X0074845Y0199406D01*
X0074873Y0199455D01*
X0074903Y0199502D01*
X0074937Y0199547D01*
X0074974Y0199589D01*
X0075014Y0199629D01*
X0075056Y0199666D01*
X0075101Y0199700D01*
X0075148Y0199730D01*
X0075197Y0199758D01*
X0075248Y0199782D01*
X0075300Y0199803D01*
X0075353Y0199820D01*
X0075408Y0199833D01*
X0075463Y0199842D01*
X0075519Y0199848D01*
X0075575Y0199850D01*
X0074650Y0196664D02*
X0074708Y0196608D01*
X0074768Y0196555D01*
X0074831Y0196504D01*
X0074897Y0196457D01*
X0074964Y0196413D01*
X0075034Y0196372D01*
X0075105Y0196334D01*
X0075178Y0196300D01*
X0075252Y0196269D01*
X0075328Y0196241D01*
X0075405Y0196217D01*
X0075483Y0196197D01*
X0075562Y0196180D01*
X0075642Y0196167D01*
X0075722Y0196157D01*
X0075802Y0196152D01*
X0075883Y0196150D01*
X0075939Y0196152D01*
X0075995Y0196158D01*
X0076050Y0196167D01*
X0076105Y0196180D01*
X0076158Y0196197D01*
X0076210Y0196218D01*
X0076261Y0196242D01*
X0076310Y0196270D01*
X0076357Y0196300D01*
X0076402Y0196334D01*
X0076444Y0196371D01*
X0076484Y0196411D01*
X0076521Y0196453D01*
X0076555Y0196498D01*
X0076585Y0196545D01*
X0076613Y0196594D01*
X0076637Y0196645D01*
X0076658Y0196697D01*
X0076675Y0196750D01*
X0076688Y0196805D01*
X0076697Y0196860D01*
X0076703Y0196916D01*
X0076705Y0196972D01*
X0076703Y0197026D01*
X0076698Y0197080D01*
X0076689Y0197134D01*
X0076677Y0197186D01*
X0076661Y0197238D01*
X0076643Y0197289D01*
X0076620Y0197338D01*
X0076595Y0197386D01*
X0076567Y0197432D01*
X0076535Y0197477D01*
X0076501Y0197519D01*
X0076464Y0197558D01*
X0076425Y0197596D01*
X0076383Y0197630D01*
X0076340Y0197662D01*
X0076294Y0197691D01*
M02*
