G75*
%MOIN*%
%OFA0B0*%
%FSLAX25Y25*%
%IPPOS*%
%LPD*%
%AMOC8*
5,1,8,0,0,1.08239X$1,22.5*
%
%ADD10C,0.06800*%
%ADD11OC8,0.06000*%
%ADD12C,0.08400*%
%ADD13OC8,0.07400*%
D10*
X0082000Y0095000D02*
X0088000Y0095000D01*
X0088000Y0105000D02*
X0082000Y0105000D01*
X0082000Y0115000D02*
X0088000Y0115000D01*
X0122000Y0115000D02*
X0128000Y0115000D01*
X0128000Y0105000D02*
X0122000Y0105000D01*
X0122000Y0095000D02*
X0128000Y0095000D01*
X0162000Y0095000D02*
X0168000Y0095000D01*
X0168000Y0105000D02*
X0162000Y0105000D01*
X0162000Y0115000D02*
X0168000Y0115000D01*
X0202000Y0115000D02*
X0208000Y0115000D01*
X0208000Y0105000D02*
X0202000Y0105000D01*
X0202000Y0095000D02*
X0208000Y0095000D01*
X0262000Y0095000D02*
X0268000Y0095000D01*
X0268000Y0085000D02*
X0262000Y0085000D01*
X0262000Y0075000D02*
X0268000Y0075000D01*
X0268000Y0065000D02*
X0262000Y0065000D01*
X0262000Y0105000D02*
X0268000Y0105000D01*
X0038000Y0120000D02*
X0032000Y0120000D01*
X0032000Y0130000D02*
X0038000Y0130000D01*
X0038000Y0140000D02*
X0032000Y0140000D01*
X0032000Y0150000D02*
X0038000Y0150000D01*
X0038000Y0160000D02*
X0032000Y0160000D01*
D11*
X0105472Y0159528D03*
X0145472Y0159528D03*
X0185472Y0159528D03*
X0225472Y0159528D03*
X0225472Y0119528D03*
X0185472Y0119528D03*
X0145472Y0119528D03*
X0105472Y0119528D03*
D12*
X0038800Y0055000D02*
X0031200Y0055000D01*
X0031200Y0075000D02*
X0038800Y0075000D01*
X0085000Y0053800D02*
X0085000Y0046200D01*
X0105000Y0046200D02*
X0105000Y0053800D01*
X0125000Y0053800D02*
X0125000Y0046200D01*
X0145000Y0046200D02*
X0145000Y0053800D01*
X0165000Y0053800D02*
X0165000Y0046200D01*
X0185000Y0046200D02*
X0185000Y0053800D01*
X0205000Y0053800D02*
X0205000Y0046200D01*
X0225000Y0046200D02*
X0225000Y0053800D01*
D13*
X0225000Y0015000D03*
X0215000Y0015000D03*
X0205000Y0015000D03*
X0185000Y0015000D03*
X0175000Y0015000D03*
X0165000Y0015000D03*
X0155000Y0015000D03*
X0145000Y0015000D03*
X0135000Y0015000D03*
X0125000Y0015000D03*
X0115000Y0015000D03*
X0235000Y0015000D03*
X0245000Y0015000D03*
X0255000Y0015000D03*
X0255000Y0205000D03*
X0245000Y0205000D03*
X0235000Y0205000D03*
X0225000Y0205000D03*
X0215000Y0205000D03*
X0205000Y0205000D03*
X0195000Y0205000D03*
X0185000Y0205000D03*
X0169000Y0205000D03*
X0159000Y0205000D03*
X0149000Y0205000D03*
X0139000Y0205000D03*
X0129000Y0205000D03*
X0119000Y0205000D03*
X0109000Y0205000D03*
X0099000Y0205000D03*
X0089000Y0205000D03*
X0079000Y0205000D03*
M02*
