%
M48
M72
T01C0.03200
T02C0.03937
T03C0.04000
T04C0.04331
T05C0.12992
%
T01
X66000Y101000
X106000Y101000
X146000Y101000
X186000Y101000
X226000Y101000
X266000Y101000
X306000Y101000
X346000Y101000
X346000Y161000
X346000Y176000
X346000Y186000
X306000Y186000
X306000Y176000
X306000Y161000
X266000Y161000
X266000Y176000
X266000Y186000
X226000Y186000
X226000Y176000
X226000Y161000
X186000Y161000
X186000Y176000
X186000Y186000
X146000Y186000
X146000Y176000
X146000Y161000
X106000Y161000
X106000Y176000
X106000Y186000
X66000Y186000
X66000Y176000
X66000Y161000
T02
X86000Y171000
X126000Y171000
X166000Y171000
X206000Y171000
X246000Y171000
X286000Y171000
X326000Y171000
X306000Y101000
X266000Y101000
X226000Y101000
X186000Y101000
X146000Y101000
X106000Y101000
X66000Y101000
X346000Y101000
T03
X346000Y46000
X346000Y36000
X346000Y26000
X306000Y26000
X306000Y36000
X306000Y46000
X266000Y46000
X266000Y36000
X266000Y26000
X226000Y26000
X226000Y36000
X226000Y46000
X186000Y46000
X186000Y36000
X186000Y26000
X146000Y26000
X146000Y36000
X146000Y46000
X106000Y46000
X106000Y36000
X106000Y26000
X66000Y26000
X66000Y36000
X66000Y46000
X21000Y86000
X21000Y96000
X21000Y106000
X21000Y116000
X21000Y126000
X21000Y136000
X21000Y146000
X21000Y156000
X21000Y166000
T04
X66000Y226000
X86000Y226000
X106000Y226000
X126000Y226000
X146000Y226000
X166000Y226000
X186000Y226000
X206000Y226000
X226000Y226000
X246000Y226000
X266000Y226000
X286000Y226000
X306000Y226000
X326000Y226000
X346000Y226000
X366000Y226000
X431000Y201000
X431000Y181000
X431000Y161000
X431000Y141000
X431000Y121000
X431000Y101000
X431000Y81000
X431000Y61000
T05
X21000Y21000
X21000Y276000
X451000Y276000
X451000Y21000
M30
