M48
;GenerationSoftware,Autodesk,EAGLE,9.6.2*%
;CreationDate,2021-12-14T13:21:09Z*%
FMAT,2
ICI,OFF
METRIC,TZ,000.000
T7C0.800
T6C0.813
T5C1.016
T4C1.100
T3C1.118
T2C3.200
T1C3.302
%
G90
M71
T1
X55626Y42774
X55626Y22454
X55626Y32614
X55626Y12294
T2
X4000Y51000
X4000Y4000
X81000Y4000
X81000Y51000
T3
X73152Y40234
X73152Y42774
X73152Y45314
X73152Y19914
X73152Y22454
X73152Y24994
X73152Y30074
X73152Y32614
X73152Y35154
X73152Y9754
X73152Y12294
X73152Y14834
T4
X79502Y45314
X79502Y40234
X79502Y19914
X4724Y16459
X4724Y11379
X79502Y14834
X79502Y9754
X79502Y35154
X79502Y30074
X79502Y24994
T5
X41910Y50292
X39370Y50292
X36830Y50292
X34290Y7112
X31750Y7112
X26670Y7112
X24130Y7112
X19050Y7112
X16510Y7112
X13970Y7112
X11430Y7112
X8890Y7112
X29210Y7112
X34290Y50292
T6
X36830Y16510
X39370Y16510
X29210Y44450
X26670Y39370
X26670Y44450
X29210Y39370
X24130Y39370
X24130Y44450
X21590Y39370
X21590Y44450
T7
X31750Y36830
X29210Y36830
X26670Y36830
X24130Y36830
X21590Y36830
X19050Y36830
X16510Y36830
X13970Y36830
X11430Y36830
X39370Y21590
X34290Y21590
X19050Y21590
X16510Y21590
X13970Y21590
X11430Y21590
X3810Y21590
X3810Y36830
X6350Y36830
X8890Y36830
X36830Y21590
X8890Y21590
X31750Y21590
X21590Y21590
X24130Y21590
X26670Y21590
X29210Y21590
X39370Y36830
X36830Y36830
X34290Y36830
X6350Y21590
M30