M48
;GenerationSoftware,Autodesk,EAGLE,9.6.2*%
;CreationDate,2022-01-17T08:49:20Z*%
FMAT,2
ICI,OFF
METRIC,TZ,000.000
T8C0.300
T7C0.800
T6C0.813
T5C1.016
T4C1.100
T3C1.118
T2C3.200
T1C3.302
%
G90
M71
T1
X53594Y8890
X53594Y34290
X53594Y46990
X53594Y21590
T2
X4000Y51000
X81000Y4000
X81000Y51000
X4000Y4000
T3
X71120Y24130
X71120Y31750
X71120Y34290
X71120Y36830
X71120Y8890
X71120Y6350
X71120Y44450
X71120Y46990
X71120Y49530
X71120Y19050
X71120Y21590
X71120Y11430
T4
X79502Y24994
X79502Y19914
X79502Y45314
X79502Y30074
X79502Y40234
X79502Y35154
X79502Y9754
X79502Y14834
X4724Y11379
X4724Y16459
T5
X13970Y7112
X11430Y7112
X8890Y7112
X31750Y7112
X34290Y7112
X29210Y7112
X26670Y7112
X24130Y7112
X19050Y7112
X16510Y7112
X34290Y50292
X41910Y50292
X39370Y50292
X36830Y50292
T6
X24130Y39370
X36830Y16510
X39370Y16510
X29210Y44450
X29210Y39370
X26670Y44450
X26670Y39370
X21590Y44450
X21590Y39370
X24130Y44450
T7
X39370Y36830
X36830Y36830
X34290Y36830
X31750Y36830
X29210Y36830
X26670Y36830
X24130Y36830
X21590Y36830
X19050Y36830
X16510Y36830
X13970Y36830
X8890Y36830
X39370Y21590
X36830Y21590
X34290Y21590
X19050Y21590
X16510Y21590
X13970Y21590
X11430Y21590
X3810Y21590
X3810Y36830
X6350Y36830
X11430Y36830
X6350Y21590
X8890Y21590
X31750Y21590
X21590Y21590
X24130Y21590
X26670Y21590
X29210Y21590
T8
X31750Y41910
X1270Y10795
X29845Y14605
X41910Y21590
M30